<?xml version="1.0" encoding="UTF-8"?>
<svg xmlns="http://www.w3.org/2000/svg" xmlns:xlink="http://www.w3.org/1999/xlink" width="600" height="450" viewBox="0 0 600 450">
<defs>
<g>
<g id="glyph-0-0-53080c27">
<path d="M 5.078125 0 C 4.515625 0.09375 4.125 0.140625 3.71875 0.140625 C 2.421875 0.140625 1.703125 -0.453125 1.703125 -1.515625 C 1.703125 -1.515625 1.703125 -9.125 1.703125 -9.125 C 1.703125 -9.125 0.28125 -9.125 0.28125 -9.125 C 0.28125 -9.125 0.28125 -10.484375 0.28125 -10.484375 C 0.28125 -10.484375 1.703125 -10.484375 1.703125 -10.484375 C 1.703125 -10.484375 1.703125 -13.359375 1.703125 -13.359375 C 1.703125 -13.359375 3.359375 -13.359375 3.359375 -13.359375 C 3.359375 -13.359375 3.359375 -10.484375 3.359375 -10.484375 C 3.359375 -10.484375 5.078125 -10.484375 5.078125 -10.484375 C 5.078125 -10.484375 5.078125 -9.125 5.078125 -9.125 C 5.078125 -9.125 3.359375 -9.125 3.359375 -9.125 C 3.359375 -9.125 3.359375 -2.265625 3.359375 -2.265625 C 3.359375 -1.515625 3.5625 -1.3125 4.28125 -1.3125 C 4.59375 -1.3125 4.859375 -1.34375 5.078125 -1.40625 C 5.078125 -1.40625 5.078125 0 5.078125 0 Z M 5.078125 0 "/>
</g>
<g id="glyph-0-1-53080c27">
<path d="M 3.0625 0 C 3.0625 0 1.40625 0 1.40625 0 C 1.40625 0 1.40625 -10.484375 1.40625 -10.484375 C 1.40625 -10.484375 3.0625 -10.484375 3.0625 -10.484375 C 3.0625 -10.484375 3.0625 0 3.0625 0 Z M 3.28125 -12.0625 C 3.28125 -12.0625 1.203125 -12.0625 1.203125 -12.0625 C 1.203125 -12.0625 1.203125 -14.140625 1.203125 -14.140625 C 1.203125 -14.140625 3.28125 -14.140625 3.28125 -14.140625 C 3.28125 -14.140625 3.28125 -12.0625 3.28125 -12.0625 Z M 3.28125 -12.0625 "/>
</g>
<g id="glyph-0-2-53080c27">
<path d="M 15.203125 0 C 15.203125 0 13.546875 0 13.546875 0 C 13.546875 0 13.546875 -7.21875 13.546875 -7.21875 C 13.546875 -8.546875 12.84375 -9.3125 11.625 -9.3125 C 10.265625 -9.3125 9.140625 -8.09375 9.140625 -6.578125 C 9.140625 -6.578125 9.140625 0 9.140625 0 C 9.140625 0 7.484375 0 7.484375 0 C 7.484375 0 7.484375 -7.21875 7.484375 -7.21875 C 7.484375 -8.5625 6.78125 -9.3125 5.546875 -9.3125 C 4.1875 -9.3125 3.078125 -8.09375 3.078125 -6.578125 C 3.078125 -6.578125 3.078125 0 3.078125 0 C 3.078125 0 1.421875 0 1.421875 0 C 1.421875 0 1.421875 -10.484375 1.421875 -10.484375 C 1.421875 -10.484375 2.9375 -10.484375 2.9375 -10.484375 C 2.9375 -10.484375 2.9375 -9 2.9375 -9 C 3.84375 -10.265625 4.765625 -10.78125 6.15625 -10.78125 C 7.515625 -10.78125 8.359375 -10.296875 8.984375 -9.1875 C 9.953125 -10.359375 10.796875 -10.78125 12.203125 -10.78125 C 14.15625 -10.78125 15.203125 -9.734375 15.203125 -7.859375 C 15.203125 -7.859375 15.203125 0 15.203125 0 Z M 15.203125 0 "/>
</g>
<g id="glyph-0-3-53080c27">
<path d="M 10.265625 -4.765625 C 10.265625 -4.765625 2.546875 -4.765625 2.546875 -4.765625 C 2.578125 -2.359375 3.875 -1.234375 5.625 -1.234375 C 6.953125 -1.234375 7.90625 -1.796875 8.359375 -3.1875 C 8.359375 -3.1875 10.046875 -3.1875 10.046875 -3.1875 C 9.625 -1.0625 7.953125 0.296875 5.5625 0.296875 C 2.625 0.296875 0.796875 -1.734375 0.796875 -5.1875 C 0.796875 -8.625 2.6875 -10.78125 5.59375 -10.78125 C 7.5625 -10.78125 9.15625 -9.734375 9.84375 -8.015625 C 10.140625 -7.234375 10.265625 -6.28125 10.265625 -4.765625 Z M 8.484375 -6.234375 C 8.484375 -7.875 7.21875 -9.234375 5.578125 -9.234375 C 3.90625 -9.234375 2.71875 -7.984375 2.578125 -6.125 C 2.578125 -6.125 8.453125 -6.125 8.453125 -6.125 C 8.484375 -6.15625 8.484375 -6.234375 8.484375 -6.234375 Z M 8.484375 -6.234375 "/>
</g>
<g id="glyph-0-4-53080c27">
<path d="M 10.140625 -6.8125 C 10.140625 -2.15625 8.5 0.296875 5.5 0.296875 C 2.453125 0.296875 0.859375 -2.15625 0.859375 -6.9375 C 0.859375 -11.703125 2.4375 -14.1875 5.5 -14.1875 C 8.578125 -14.1875 10.140625 -11.734375 10.140625 -6.8125 Z M 8.34375 -6.984375 C 8.34375 -10.78125 7.40625 -12.625 5.5 -12.625 C 3.59375 -12.625 2.65625 -10.796875 2.65625 -6.921875 C 2.65625 -3.046875 3.59375 -1.15625 5.453125 -1.15625 C 7.421875 -1.15625 8.34375 -2.953125 8.34375 -6.984375 Z M 8.34375 -6.984375 "/>
</g>
<g id="glyph-0-5-53080c27">
<path d="M 6.9375 0 C 6.9375 0 5.1875 0 5.1875 0 C 5.1875 0 5.1875 -10.09375 5.1875 -10.09375 C 5.1875 -10.09375 2.046875 -10.09375 2.046875 -10.09375 C 2.046875 -10.09375 2.046875 -11.359375 2.046875 -11.359375 C 4.765625 -11.703125 5.15625 -12 5.78125 -14.1875 C 5.78125 -14.1875 6.9375 -14.1875 6.9375 -14.1875 C 6.9375 -14.1875 6.9375 0 6.9375 0 Z M 6.9375 0 "/>
</g>
<g id="glyph-0-6-53080c27">
<path d="M 10.21875 -10.015625 C 10.21875 -8.28125 9.203125 -6.796875 7.21875 -5.734375 C 7.21875 -5.734375 5.21875 -4.65625 5.21875 -4.65625 C 3.484375 -3.640625 2.84375 -2.90625 2.65625 -1.734375 C 2.65625 -1.734375 10.125 -1.734375 10.125 -1.734375 C 10.125 -1.734375 10.125 0 10.125 0 C 10.125 0 0.6875 0 0.6875 0 C 0.84375 -3.125 1.703125 -4.453125 4.65625 -6.140625 C 4.65625 -6.140625 6.5 -7.1875 6.5 -7.1875 C 7.765625 -7.90625 8.421875 -8.859375 8.421875 -9.984375 C 8.421875 -11.5 7.21875 -12.640625 5.625 -12.640625 C 3.875 -12.640625 2.90625 -11.640625 2.765625 -9.265625 C 2.765625 -9.265625 1 -9.265625 1 -9.265625 C 1.09375 -12.703125 2.78125 -14.1875 5.6875 -14.1875 C 8.359375 -14.1875 10.21875 -12.421875 10.21875 -10.015625 Z M 10.21875 -10.015625 "/>
</g>
<g id="glyph-0-7-53080c27">
<path d="M 10.125 -4.125 C 10.125 -1.4375 8.234375 0.296875 5.3125 0.296875 C 2.421875 0.296875 0.859375 -1.125 0.640625 -4.28125 C 0.640625 -4.28125 2.40625 -4.28125 2.40625 -4.28125 C 2.515625 -2.21875 3.453125 -1.265625 5.375 -1.265625 C 7.21875 -1.265625 8.3125 -2.3125 8.3125 -4.09375 C 8.3125 -5.6875 7.3125 -6.59375 5.375 -6.59375 C 5.375 -6.59375 4.421875 -6.59375 4.421875 -6.59375 C 4.421875 -6.59375 4.421875 -8.078125 4.421875 -8.078125 C 7.234375 -8.078125 7.90625 -8.703125 7.90625 -10.21875 C 7.90625 -11.71875 6.953125 -12.640625 5.40625 -12.640625 C 3.59375 -12.640625 2.734375 -11.703125 2.703125 -9.59375 C 2.703125 -9.59375 0.9375 -9.59375 0.9375 -9.59375 C 1 -12.625 2.515625 -14.1875 5.375 -14.1875 C 8.078125 -14.1875 9.703125 -12.71875 9.703125 -10.28125 C 9.703125 -8.859375 9.046875 -7.9375 7.71875 -7.421875 C 9.421875 -6.84375 10.125 -5.84375 10.125 -4.125 Z M 10.125 -4.125 "/>
</g>
<g id="glyph-0-8-53080c27">
<path d="M 10.40625 -3.40625 C 10.40625 -3.40625 8.296875 -3.40625 8.296875 -3.40625 C 8.296875 -3.40625 8.296875 0 8.296875 0 C 8.296875 0 6.546875 0 6.546875 0 C 6.546875 0 6.546875 -3.40625 6.546875 -3.40625 C 6.546875 -3.40625 0.5625 -3.40625 0.5625 -3.40625 C 0.5625 -3.40625 0.5625 -5.265625 0.5625 -5.265625 C 0.5625 -5.265625 7 -14.1875 7 -14.1875 C 7 -14.1875 8.296875 -14.1875 8.296875 -14.1875 C 8.296875 -14.1875 8.296875 -4.984375 8.296875 -4.984375 C 8.296875 -4.984375 10.40625 -4.984375 10.40625 -4.984375 C 10.40625 -4.984375 10.40625 -3.40625 10.40625 -3.40625 Z M 6.546875 -4.984375 C 6.546875 -4.984375 6.546875 -11.1875 6.546875 -11.1875 C 6.546875 -11.1875 2.09375 -4.984375 2.09375 -4.984375 C 2.09375 -4.984375 6.546875 -4.984375 6.546875 -4.984375 Z M 6.546875 -4.984375 "/>
</g>
<g id="glyph-0-9-53080c27">
<path d="M 3.8125 0 C 3.8125 0 1.734375 0 1.734375 0 C 1.734375 0 1.734375 -2.078125 1.734375 -2.078125 C 1.734375 -2.078125 3.8125 -2.078125 3.8125 -2.078125 C 3.8125 -2.078125 3.8125 0 3.8125 0 Z M 3.8125 0 "/>
</g>
<g id="glyph-1-0-53080c27">
<path d="M -4.765625 -10.265625 C -4.765625 -10.265625 -4.765625 -2.546875 -4.765625 -2.546875 C -2.359375 -2.578125 -1.234375 -3.875 -1.234375 -5.625 C -1.234375 -6.953125 -1.796875 -7.90625 -3.1875 -8.359375 C -3.1875 -8.359375 -3.1875 -10.046875 -3.1875 -10.046875 C -1.0625 -9.625 0.296875 -7.953125 0.296875 -5.5625 C 0.296875 -2.625 -1.734375 -0.796875 -5.1875 -0.796875 C -8.625 -0.796875 -10.78125 -2.6875 -10.78125 -5.59375 C -10.78125 -7.5625 -9.734375 -9.15625 -8.015625 -9.84375 C -7.234375 -10.140625 -6.28125 -10.265625 -4.765625 -10.265625 Z M -6.234375 -8.484375 C -7.875 -8.484375 -9.234375 -7.21875 -9.234375 -5.578125 C -9.234375 -3.90625 -7.984375 -2.71875 -6.125 -2.578125 C -6.125 -2.578125 -6.125 -8.453125 -6.125 -8.453125 C -6.15625 -8.484375 -6.234375 -8.484375 -6.234375 -8.484375 Z M -6.234375 -8.484375 "/>
</g>
<g id="glyph-1-1-53080c27">
<path d="M 0 -9.734375 C 0 -9.734375 0 -8.078125 0 -8.078125 C 0 -8.078125 -7.265625 -8.078125 -7.265625 -8.078125 C -8.515625 -8.078125 -9.3125 -7.234375 -9.3125 -5.921875 C -9.3125 -4.21875 -7.921875 -3.0625 -5.78125 -3.0625 C -5.78125 -3.0625 0 -3.0625 0 -3.0625 C 0 -3.0625 0 -1.40625 0 -1.40625 C 0 -1.40625 -10.484375 -1.40625 -10.484375 -1.40625 C -10.484375 -1.40625 -10.484375 -2.9375 -10.484375 -2.9375 C -10.484375 -2.9375 -8.71875 -2.9375 -8.71875 -2.9375 C -10.1875 -3.859375 -10.78125 -4.859375 -10.78125 -6.421875 C -10.78125 -8.4375 -9.65625 -9.734375 -7.921875 -9.734375 C -7.921875 -9.734375 0 -9.734375 0 -9.734375 Z M 0 -9.734375 "/>
</g>
<g id="glyph-1-2-53080c27">
<path d="M -10.484375 -9.5625 C -10.484375 -9.5625 2.203125 -4.90625 2.203125 -4.90625 C 3.703125 -4.34375 4.359375 -3.375 4.359375 -2.203125 C 4.359375 -1.765625 4.28125 -1.421875 4.09375 -1.078125 C 4.09375 -1.078125 2.59375 -1.078125 2.59375 -1.078125 C 2.6875 -1.4375 2.71875 -1.71875 2.71875 -1.953125 C 2.71875 -2.6875 2.4375 -3.015625 1.703125 -3.296875 C 1.703125 -3.296875 0.046875 -3.9375 0.046875 -3.9375 C 0.046875 -3.9375 -10.484375 -0.40625 -10.484375 -0.40625 C -10.484375 -0.40625 -10.484375 -2.1875 -10.484375 -2.1875 C -10.484375 -2.1875 -2.3125 -4.859375 -2.3125 -4.859375 C -2.3125 -4.859375 -10.484375 -7.765625 -10.484375 -7.765625 C -10.484375 -7.765625 -10.484375 -9.5625 -10.484375 -9.5625 Z M -10.484375 -9.5625 "/>
</g>
<g id="glyph-2-0-53080c27">
<path d="M -9.015625 -6.421875 C -8.984375 -3.84375 -7.796875 -3.0625 -5.4375 -3.0625 C -5.4375 -3.0625 0 -3.0625 0 -3.0625 C 0 -3.0625 0 -1.40625 0 -1.40625 C 0 -1.40625 -10.484375 -1.40625 -10.484375 -1.40625 C -10.484375 -1.40625 -10.484375 -2.921875 -10.484375 -2.921875 C -10.484375 -2.921875 -8.578125 -2.921875 -8.578125 -2.921875 C -10.140625 -3.875 -10.78125 -4.703125 -10.78125 -5.78125 C -10.78125 -6 -10.765625 -6.140625 -10.71875 -6.421875 C -10.71875 -6.421875 -9.015625 -6.421875 -9.015625 -6.421875 Z M -9.015625 -6.421875 "/>
</g>
<g id="glyph-3-0-53080c27">
<path d="M -1.71875 -9.78125 C 2.90625 -9.78125 4.359375 -8.375 4.359375 -5.09375 C 4.359375 -2.640625 3.1875 -1.09375 1.203125 -0.921875 C 1.203125 -0.921875 1.203125 -2.625 1.203125 -2.625 C 2.484375 -2.8125 2.953125 -3.84375 2.953125 -5.15625 C 2.953125 -7.09375 1.90625 -8.234375 -0.875 -8.234375 C -0.875 -8.234375 -1.578125 -8.234375 -1.578125 -8.234375 C -0.265625 -7.140625 0.296875 -6.21875 0.296875 -4.90625 C 0.296875 -2.4375 -1.84375 -0.578125 -5.140625 -0.578125 C -8.546875 -0.578125 -10.78125 -2.375 -10.78125 -5.046875 C -10.78125 -6.375 -10.203125 -7.40625 -8.953125 -8.234375 C -8.953125 -8.234375 -10.484375 -8.234375 -10.484375 -8.234375 C -10.484375 -8.234375 -10.484375 -9.78125 -10.484375 -9.78125 C -10.484375 -9.78125 -1.71875 -9.78125 -1.71875 -9.78125 Z M -5.1875 -8.078125 C -7.71875 -8.078125 -9.234375 -7.015625 -9.234375 -5.21875 C -9.234375 -3.4375 -7.765625 -2.3125 -5.234375 -2.3125 C -2.703125 -2.3125 -1.234375 -3.421875 -1.234375 -5.234375 C -1.234375 -7 -2.6875 -8.078125 -5.1875 -8.078125 Z M -5.1875 -8.078125 "/>
</g>
<g id="glyph-4-0-53080c27">
<path d="M 10.265625 -4.40625 C 10.265625 -1.625 8.3125 0.296875 5.625 0.296875 C 2.375 0.296875 0.859375 -2.046875 0.859375 -6.453125 C 0.859375 -11.40625 2.640625 -14.1875 5.9375 -14.1875 C 8.09375 -14.1875 9.625 -12.796875 9.953125 -10.484375 C 9.953125 -10.484375 8.203125 -10.484375 8.203125 -10.484375 C 7.921875 -11.84375 7.0625 -12.625 5.8125 -12.625 C 3.796875 -12.625 2.6875 -10.703125 2.65625 -7.234375 C 3.421875 -8.28125 4.515625 -8.8125 5.921875 -8.8125 C 8.453125 -8.8125 10.265625 -7.046875 10.265625 -4.40625 Z M 8.453125 -4.265625 C 8.453125 -6.15625 7.40625 -7.265625 5.703125 -7.265625 C 3.953125 -7.265625 2.765625 -6.125 2.765625 -4.359375 C 2.765625 -2.546875 4 -1.265625 5.640625 -1.265625 C 7.265625 -1.265625 8.453125 -2.484375 8.453125 -4.265625 Z M 8.453125 -4.265625 "/>
</g>
<g id="glyph-4-1-53080c27">
<path d="M 10.265625 -4 C 10.265625 -1.421875 8.296875 0.296875 5.5 0.296875 C 2.703125 0.296875 0.734375 -1.421875 0.734375 -4.015625 C 0.734375 -5.578125 1.546875 -6.6875 3.15625 -7.453125 C 1.71875 -8.359375 1.234375 -9.078125 1.234375 -10.40625 C 1.234375 -12.625 3 -14.1875 5.5 -14.1875 C 8.015625 -14.1875 9.765625 -12.625 9.765625 -10.40625 C 9.765625 -9.0625 9.28125 -8.34375 7.8125 -7.453125 C 9.453125 -6.6875 10.265625 -5.578125 10.265625 -4 Z M 7.953125 -10.359375 C 7.953125 -11.734375 7 -12.625 5.5 -12.625 C 4.015625 -12.625 3.046875 -11.734375 3.046875 -10.375 C 3.046875 -9.046875 4.015625 -8.15625 5.5 -8.15625 C 6.984375 -8.15625 7.953125 -9.046875 7.953125 -10.359375 Z M 8.453125 -3.984375 C 8.453125 -5.640625 7.265625 -6.6875 5.5 -6.6875 C 3.734375 -6.6875 2.546875 -5.640625 2.546875 -3.984375 C 2.546875 -2.3125 3.734375 -1.265625 5.453125 -1.265625 C 7.265625 -1.265625 8.453125 -2.296875 8.453125 -3.984375 Z M 8.453125 -3.984375 "/>
</g>
<g id="glyph-4-2-53080c27">
<path d="M 10.140625 -6.8125 C 10.140625 -2.15625 8.5 0.296875 5.5 0.296875 C 2.453125 0.296875 0.859375 -2.15625 0.859375 -6.9375 C 0.859375 -11.703125 2.4375 -14.1875 5.5 -14.1875 C 8.578125 -14.1875 10.140625 -11.734375 10.140625 -6.8125 Z M 8.34375 -6.984375 C 8.34375 -10.78125 7.40625 -12.625 5.5 -12.625 C 3.59375 -12.625 2.65625 -10.796875 2.65625 -6.921875 C 2.65625 -3.046875 3.59375 -1.15625 5.453125 -1.15625 C 7.421875 -1.15625 8.34375 -2.953125 8.34375 -6.984375 Z M 8.34375 -6.984375 "/>
</g>
</g>
</defs>
<rect x="-60" y="-45" width="720" height="540" fill="rgb(100%, 100%, 100%)" fill-opacity="1"/>
<path fill-rule="nonzero" fill="rgb(100%, 100%, 100%)" fill-opacity="1" d="M 81 377 L 584 377 L 584 16 L 81 16 Z M 81 377 "/>
<path fill="none" stroke-width="1" stroke-linecap="butt" stroke-linejoin="miter" stroke="rgb(0%, 0%, 0%)" stroke-opacity="0.12" stroke-miterlimit="1.154701" d="M 103.863281 377 L 103.863281 16 "/>
<path fill="none" stroke-width="1" stroke-linecap="butt" stroke-linejoin="miter" stroke="rgb(0%, 0%, 0%)" stroke-opacity="0.12" stroke-miterlimit="1.154701" d="M 218.183594 377 L 218.183594 16 "/>
<path fill="none" stroke-width="1" stroke-linecap="butt" stroke-linejoin="miter" stroke="rgb(0%, 0%, 0%)" stroke-opacity="0.12" stroke-miterlimit="1.154701" d="M 332.5 377 L 332.5 16 "/>
<path fill="none" stroke-width="1" stroke-linecap="butt" stroke-linejoin="miter" stroke="rgb(0%, 0%, 0%)" stroke-opacity="0.12" stroke-miterlimit="1.154701" d="M 446.816406 377 L 446.816406 16 "/>
<path fill="none" stroke-width="1" stroke-linecap="butt" stroke-linejoin="miter" stroke="rgb(0%, 0%, 0%)" stroke-opacity="0.12" stroke-miterlimit="1.154701" d="M 561.136719 377 L 561.136719 16 "/>
<path fill="none" stroke-width="1" stroke-linecap="butt" stroke-linejoin="miter" stroke="rgb(0%, 0%, 0%)" stroke-opacity="0.12" stroke-miterlimit="1.154701" d="M 81 270.640625 L 584 270.640625 "/>
<path fill="none" stroke-width="1" stroke-linecap="butt" stroke-linejoin="miter" stroke="rgb(0%, 0%, 0%)" stroke-opacity="0.12" stroke-miterlimit="1.154701" d="M 81 151.523438 L 584 151.523438 "/>
<path fill="none" stroke-width="1" stroke-linecap="butt" stroke-linejoin="miter" stroke="rgb(0%, 0%, 0%)" stroke-opacity="0.12" stroke-miterlimit="1.154701" d="M 81 32.410156 L 584 32.410156 "/>
<g fill="rgb(0%, 0%, 0%)" fill-opacity="1">
<use xlink:href="#glyph-0-0-53080c27" x="313.610008" y="430.239999"/>
</g>
<g fill="rgb(0%, 0%, 0%)" fill-opacity="1">
<use xlink:href="#glyph-0-1-53080c27" x="319.170008" y="430.239999"/>
</g>
<g fill="rgb(0%, 0%, 0%)" fill-opacity="1">
<use xlink:href="#glyph-0-2-53080c27" x="323.610008" y="430.239999"/>
</g>
<g fill="rgb(0%, 0%, 0%)" fill-opacity="1">
<use xlink:href="#glyph-0-3-53080c27" x="340.270009" y="430.239999"/>
</g>
<g fill="rgb(0%, 0%, 0%)" fill-opacity="1">
<use xlink:href="#glyph-0-4-53080c27" x="98.303642" y="403.939999"/>
</g>
<g fill="rgb(0%, 0%, 0%)" fill-opacity="1">
<use xlink:href="#glyph-0-5-53080c27" x="212.621829" y="403.939999"/>
</g>
<g fill="rgb(0%, 0%, 0%)" fill-opacity="1">
<use xlink:href="#glyph-0-6-53080c27" x="326.940008" y="403.939999"/>
</g>
<g fill="rgb(0%, 0%, 0%)" fill-opacity="1">
<use xlink:href="#glyph-0-7-53080c27" x="441.258187" y="403.939999"/>
</g>
<g fill="rgb(0%, 0%, 0%)" fill-opacity="1">
<use xlink:href="#glyph-0-8-53080c27" x="555.576366" y="403.939999"/>
</g>
<g fill="rgb(0%, 0%, 0%)" fill-opacity="1">
<use xlink:href="#glyph-1-0-53080c27" x="33.84" y="227.069992"/>
</g>
<g fill="rgb(0%, 0%, 0%)" fill-opacity="1">
<use xlink:href="#glyph-1-1-53080c27" x="33.840001" y="215.949993"/>
</g>
<g fill="rgb(0%, 0%, 0%)" fill-opacity="1">
<use xlink:href="#glyph-1-0-53080c27" x="33.840002" y="204.829993"/>
</g>
<g fill="rgb(0%, 0%, 0%)" fill-opacity="1">
<use xlink:href="#glyph-2-0-53080c27" x="33.840002" y="193.709993"/>
</g>
<g fill="rgb(0%, 0%, 0%)" fill-opacity="1">
<use xlink:href="#glyph-3-0-53080c27" x="33.840003" y="187.049994"/>
</g>
<g fill="rgb(0%, 0%, 0%)" fill-opacity="1">
<use xlink:href="#glyph-1-2-53080c27" x="33.840004" y="175.929996"/>
</g>
<g fill="rgb(0%, 0%, 0%)" fill-opacity="1">
<use xlink:href="#glyph-0-4-53080c27" x="43.200002" y="277.93027"/>
</g>
<g fill="rgb(0%, 0%, 0%)" fill-opacity="1">
<use xlink:href="#glyph-0-9-53080c27" x="54.320001" y="277.93027"/>
</g>
<g fill="rgb(0%, 0%, 0%)" fill-opacity="1">
<use xlink:href="#glyph-4-0-53080c27" x="59.880003" y="277.93027"/>
</g>
<g fill="rgb(0%, 0%, 0%)" fill-opacity="1">
<use xlink:href="#glyph-0-4-53080c27" x="43.200002" y="158.814682"/>
</g>
<g fill="rgb(0%, 0%, 0%)" fill-opacity="1">
<use xlink:href="#glyph-0-9-53080c27" x="54.320001" y="158.814682"/>
</g>
<g fill="rgb(0%, 0%, 0%)" fill-opacity="1">
<use xlink:href="#glyph-4-1-53080c27" x="59.880003" y="158.814682"/>
</g>
<g fill="rgb(0%, 0%, 0%)" fill-opacity="1">
<use xlink:href="#glyph-0-5-53080c27" x="43.200002" y="39.699079"/>
</g>
<g fill="rgb(0%, 0%, 0%)" fill-opacity="1">
<use xlink:href="#glyph-0-9-53080c27" x="54.320001" y="39.699079"/>
</g>
<g fill="rgb(0%, 0%, 0%)" fill-opacity="1">
<use xlink:href="#glyph-4-2-53080c27" x="59.880003" y="39.699079"/>
</g>
<path fill="none" stroke-width="3" stroke-linecap="butt" stroke-linejoin="miter" stroke="rgb(0%, 44.705883%, 69.803923%)" stroke-opacity="1" stroke-miterlimit="2" d="M 103.863281 32.410156 L 108.4375 37.160156 L 113.007812 41.871094 L 117.582031 46.546875 L 122.15625 51.183594 L 126.726562 55.785156 L 131.300781 60.347656 L 135.871094 64.875 L 140.445312 69.367188 L 145.019531 73.824219 L 149.589844 78.242188 L 154.164062 82.628906 L 158.738281 86.976562 L 163.308594 91.292969 L 167.882812 95.574219 L 172.453125 99.820312 L 177.027344 104.03125 L 181.601562 108.210938 L 186.171875 112.359375 L 190.746094 116.46875 L 195.316406 120.550781 L 199.890625 124.597656 L 204.464844 128.613281 L 209.035156 132.59375 L 213.609375 136.546875 L 218.183594 140.464844 L 222.753906 144.355469 L 227.328125 148.210938 L 231.898438 152.039062 L 236.472656 155.835938 L 241.046875 159.601562 L 245.617188 163.335938 L 250.191406 167.042969 L 254.761719 170.71875 L 259.335938 174.367188 L 263.910156 177.984375 L 268.480469 181.574219 L 273.054688 185.136719 L 277.628906 188.667969 L 282.199219 192.171875 L 286.773438 195.648438 L 291.34375 199.09375 L 295.917969 202.515625 L 300.492188 205.910156 L 305.0625 209.277344 L 309.636719 212.617188 L 314.210938 215.929688 L 318.78125 219.214844 L 323.355469 222.476562 L 327.925781 225.710938 L 332.5 228.917969 L 337.074219 232.101562 L 341.644531 235.257812 L 346.21875 238.390625 L 350.789062 241.5 L 355.363281 244.582031 L 359.9375 247.640625 L 364.507812 250.671875 L 369.082031 253.683594 L 373.65625 256.667969 L 378.226562 259.628906 L 382.800781 262.570312 L 387.371094 265.484375 L 391.945312 268.375 L 396.519531 271.242188 L 401.089844 274.089844 L 405.664062 276.910156 L 410.234375 279.710938 L 414.808594 282.488281 L 419.382812 285.246094 L 423.953125 287.976562 L 428.527344 290.691406 L 433.101562 293.378906 L 437.671875 296.050781 L 442.246094 298.695312 L 446.816406 301.324219 L 451.390625 303.929688 L 455.964844 306.511719 L 460.535156 309.078125 L 465.109375 311.621094 L 469.683594 314.144531 L 474.253906 316.648438 L 478.828125 319.132812 L 483.398438 321.59375 L 487.972656 324.039062 L 492.546875 326.460938 L 497.117188 328.867188 L 501.691406 331.253906 L 506.261719 333.621094 L 510.835938 335.96875 L 515.410156 338.296875 L 519.980469 340.609375 L 524.554688 342.898438 L 529.128906 345.171875 L 533.699219 347.429688 L 538.273438 349.667969 L 542.84375 351.886719 L 547.417969 354.089844 L 551.992188 356.273438 L 556.5625 358.441406 L 561.136719 360.589844 "/>
<path fill="none" stroke-width="1" stroke-linecap="butt" stroke-linejoin="miter" stroke="rgb(0%, 0%, 0%)" stroke-opacity="1" stroke-miterlimit="1.154701" d="M 103.863281 377.5 L 103.863281 382.5 "/>
<path fill="none" stroke-width="1" stroke-linecap="butt" stroke-linejoin="miter" stroke="rgb(0%, 0%, 0%)" stroke-opacity="1" stroke-miterlimit="1.154701" d="M 218.183594 377.5 L 218.183594 382.5 "/>
<path fill="none" stroke-width="1" stroke-linecap="butt" stroke-linejoin="miter" stroke="rgb(0%, 0%, 0%)" stroke-opacity="1" stroke-miterlimit="1.154701" d="M 332.5 377.5 L 332.5 382.5 "/>
<path fill="none" stroke-width="1" stroke-linecap="butt" stroke-linejoin="miter" stroke="rgb(0%, 0%, 0%)" stroke-opacity="1" stroke-miterlimit="1.154701" d="M 446.816406 377.5 L 446.816406 382.5 "/>
<path fill="none" stroke-width="1" stroke-linecap="butt" stroke-linejoin="miter" stroke="rgb(0%, 0%, 0%)" stroke-opacity="1" stroke-miterlimit="1.154701" d="M 561.136719 377.5 L 561.136719 382.5 "/>
<path fill="none" stroke-width="1" stroke-linecap="butt" stroke-linejoin="miter" stroke="rgb(0%, 0%, 0%)" stroke-opacity="1" stroke-miterlimit="1.154701" d="M 80.5 270.640625 L 75.5 270.640625 "/>
<path fill="none" stroke-width="1" stroke-linecap="butt" stroke-linejoin="miter" stroke="rgb(0%, 0%, 0%)" stroke-opacity="1" stroke-miterlimit="1.154701" d="M 80.5 151.523438 L 75.5 151.523438 "/>
<path fill="none" stroke-width="1" stroke-linecap="butt" stroke-linejoin="miter" stroke="rgb(0%, 0%, 0%)" stroke-opacity="1" stroke-miterlimit="1.154701" d="M 80.5 32.410156 L 75.5 32.410156 "/>
<path fill="none" stroke-width="1" stroke-linecap="butt" stroke-linejoin="miter" stroke="rgb(0%, 0%, 0%)" stroke-opacity="1" stroke-miterlimit="1.154701" d="M 80.5 377 L 584.5 377 "/>
<path fill="none" stroke-width="1" stroke-linecap="butt" stroke-linejoin="miter" stroke="rgb(0%, 0%, 0%)" stroke-opacity="1" stroke-miterlimit="1.154701" d="M 81 377.5 L 81 15.5 "/>
<path fill="none" stroke-width="1" stroke-linecap="butt" stroke-linejoin="miter" stroke="rgb(0%, 0%, 0%)" stroke-opacity="1" stroke-miterlimit="1.154701" d="M 80.5 16 L 584.5 16 "/>
<path fill="none" stroke-width="1" stroke-linecap="butt" stroke-linejoin="miter" stroke="rgb(0%, 0%, 0%)" stroke-opacity="1" stroke-miterlimit="1.154701" d="M 584 377.5 L 584 15.5 "/>
</svg>
