<?xml version="1.0" encoding="utf-8"?>
<svg xmlns="http://www.w3.org/2000/svg" xmlns:xlink="http://www.w3.org/1999/xlink" width="600" height="400" viewBox="0 0 2400 1600">
<defs>
  <clipPath id="clip190">
    <rect x="0" y="0" width="2400" height="1600"/>
  </clipPath>
</defs>
<path clip-path="url(#clip190)" d="
M0 1600 L2400 1600 L2400 0 L0 0  Z
  " fill="#ffffff" fill-rule="evenodd" fill-opacity="1"/>
<defs>
  <clipPath id="clip191">
    <rect x="480" y="0" width="1681" height="1600"/>
  </clipPath>
</defs>
<path clip-path="url(#clip190)" d="
M340.984 1302.22 L2352.76 1302.22 L2352.76 214.192 L340.984 214.192  Z
  " fill="#ffffff" fill-rule="evenodd" fill-opacity="1"/>
<defs>
  <clipPath id="clip192">
    <rect x="340" y="214" width="2013" height="1089"/>
  </clipPath>
</defs>
<polyline clip-path="url(#clip192)" style="stroke:#000000; stroke-linecap:butt; stroke-linejoin:round; stroke-width:2; stroke-opacity:0.1; fill:none" points="
  397.921,1302.22 397.921,214.192 
  "/>
<polyline clip-path="url(#clip192)" style="stroke:#000000; stroke-linecap:butt; stroke-linejoin:round; stroke-width:2; stroke-opacity:0.1; fill:none" points="
  872.395,1302.22 872.395,214.192 
  "/>
<polyline clip-path="url(#clip192)" style="stroke:#000000; stroke-linecap:butt; stroke-linejoin:round; stroke-width:2; stroke-opacity:0.1; fill:none" points="
  1346.87,1302.22 1346.87,214.192 
  "/>
<polyline clip-path="url(#clip192)" style="stroke:#000000; stroke-linecap:butt; stroke-linejoin:round; stroke-width:2; stroke-opacity:0.1; fill:none" points="
  1821.34,1302.22 1821.34,214.192 
  "/>
<polyline clip-path="url(#clip192)" style="stroke:#000000; stroke-linecap:butt; stroke-linejoin:round; stroke-width:2; stroke-opacity:0.1; fill:none" points="
  2295.82,1302.22 2295.82,214.192 
  "/>
<polyline clip-path="url(#clip190)" style="stroke:#000000; stroke-linecap:butt; stroke-linejoin:round; stroke-width:4; stroke-opacity:1; fill:none" points="
  340.984,1302.22 2352.76,1302.22 
  "/>
<polyline clip-path="url(#clip190)" style="stroke:#000000; stroke-linecap:butt; stroke-linejoin:round; stroke-width:4; stroke-opacity:1; fill:none" points="
  397.921,1302.22 397.921,1283.32 
  "/>
<polyline clip-path="url(#clip190)" style="stroke:#000000; stroke-linecap:butt; stroke-linejoin:round; stroke-width:4; stroke-opacity:1; fill:none" points="
  872.395,1302.22 872.395,1283.32 
  "/>
<polyline clip-path="url(#clip190)" style="stroke:#000000; stroke-linecap:butt; stroke-linejoin:round; stroke-width:4; stroke-opacity:1; fill:none" points="
  1346.87,1302.22 1346.87,1283.32 
  "/>
<polyline clip-path="url(#clip190)" style="stroke:#000000; stroke-linecap:butt; stroke-linejoin:round; stroke-width:4; stroke-opacity:1; fill:none" points="
  1821.34,1302.22 1821.34,1283.32 
  "/>
<polyline clip-path="url(#clip190)" style="stroke:#000000; stroke-linecap:butt; stroke-linejoin:round; stroke-width:4; stroke-opacity:1; fill:none" points="
  2295.82,1302.22 2295.82,1283.32 
  "/>
<path clip-path="url(#clip190)" d="M270.925 1384.05 L341.405 1384.05 L341.405 1393.4 L270.925 1393.4 L270.925 1384.05 Z" fill="#000000" fill-rule="evenodd" fill-opacity="1" /><path clip-path="url(#clip190)" d="M367.299 1414.67 L385.441 1414.67 L385.441 1352.06 L365.705 1356.01 L365.705 1345.9 L385.331 1341.94 L396.436 1341.94 L396.436 1414.67 L414.579 1414.67 L414.579 1424.02 L367.299 1424.02 L367.299 1414.67 Z" fill="#000000" fill-rule="evenodd" fill-opacity="1" /><path clip-path="url(#clip190)" d="M437.009 1410.06 L448.609 1410.06 L448.609 1424.02 L437.009 1424.02 L437.009 1410.06 Z" fill="#000000" fill-rule="evenodd" fill-opacity="1" /><path clip-path="url(#clip190)" d="M496.549 1349.25 Q487.972 1349.25 483.629 1357.72 Q479.341 1366.13 479.341 1383.06 Q479.341 1399.94 483.629 1408.41 Q487.972 1416.82 496.549 1416.82 Q505.18 1416.82 509.468 1408.41 Q513.811 1399.94 513.811 1383.06 Q513.811 1366.13 509.468 1357.72 Q505.18 1349.25 496.549 1349.25 M496.549 1340.46 Q510.348 1340.46 517.605 1351.4 Q524.917 1362.28 524.917 1383.06 Q524.917 1403.79 517.605 1414.73 Q510.348 1425.61 496.549 1425.61 Q482.75 1425.61 475.438 1414.73 Q468.181 1403.79 468.181 1383.06 Q468.181 1362.28 475.438 1351.4 Q482.75 1340.46 496.549 1340.46 Z" fill="#000000" fill-rule="evenodd" fill-opacity="1" /><path clip-path="url(#clip190)" d="M746.581 1384.05 L817.061 1384.05 L817.061 1393.4 L746.581 1393.4 L746.581 1384.05 Z" fill="#000000" fill-rule="evenodd" fill-opacity="1" /><path clip-path="url(#clip190)" d="M864.781 1349.25 Q856.205 1349.25 851.862 1357.72 Q847.573 1366.13 847.573 1383.06 Q847.573 1399.94 851.862 1408.41 Q856.205 1416.82 864.781 1416.82 Q873.412 1416.82 877.701 1408.41 Q882.044 1399.94 882.044 1383.06 Q882.044 1366.13 877.701 1357.72 Q873.412 1349.25 864.781 1349.25 M864.781 1340.46 Q878.58 1340.46 885.837 1351.4 Q893.149 1362.28 893.149 1383.06 Q893.149 1403.79 885.837 1414.73 Q878.58 1425.61 864.781 1425.61 Q850.982 1425.61 843.67 1414.73 Q836.413 1403.79 836.413 1383.06 Q836.413 1362.28 843.67 1351.4 Q850.982 1340.46 864.781 1340.46 Z" fill="#000000" fill-rule="evenodd" fill-opacity="1" /><path clip-path="url(#clip190)" d="M912.666 1410.06 L924.266 1410.06 L924.266 1424.02 L912.666 1424.02 L912.666 1410.06 Z" fill="#000000" fill-rule="evenodd" fill-opacity="1" /><path clip-path="url(#clip190)" d="M948.565 1341.94 L992.162 1341.94 L992.162 1351.29 L958.736 1351.29 L958.736 1371.41 Q961.155 1370.58 963.574 1370.2 Q965.993 1369.76 968.412 1369.76 Q982.156 1369.76 990.183 1377.29 Q998.209 1384.82 998.209 1397.69 Q998.209 1410.94 989.963 1418.3 Q981.716 1425.61 966.708 1425.61 Q961.54 1425.61 956.152 1424.73 Q950.819 1423.85 945.102 1422.1 L945.102 1410.94 Q950.05 1413.63 955.327 1414.95 Q960.605 1416.27 966.488 1416.27 Q975.999 1416.27 981.551 1411.27 Q987.104 1406.26 987.104 1397.69 Q987.104 1389.11 981.551 1384.11 Q975.999 1379.1 966.488 1379.1 Q962.035 1379.1 957.581 1380.09 Q953.183 1381.08 948.565 1383.17 L948.565 1341.94 Z" fill="#000000" fill-rule="evenodd" fill-opacity="1" /><path clip-path="url(#clip190)" d="M1293.16 1349.25 Q1284.58 1349.25 1280.24 1357.72 Q1275.95 1366.13 1275.95 1383.06 Q1275.95 1399.94 1280.24 1408.41 Q1284.58 1416.82 1293.16 1416.82 Q1301.79 1416.82 1306.08 1408.41 Q1310.42 1399.94 1310.42 1383.06 Q1310.42 1366.13 1306.08 1357.72 Q1301.79 1349.25 1293.16 1349.25 M1293.16 1340.46 Q1306.96 1340.46 1314.21 1351.4 Q1321.53 1362.28 1321.53 1383.06 Q1321.53 1403.79 1314.21 1414.73 Q1306.96 1425.61 1293.16 1425.61 Q1279.36 1425.61 1272.05 1414.73 Q1264.79 1403.79 1264.79 1383.06 Q1264.79 1362.28 1272.05 1351.4 Q1279.36 1340.46 1293.16 1340.46 Z" fill="#000000" fill-rule="evenodd" fill-opacity="1" /><path clip-path="url(#clip190)" d="M1341.04 1410.06 L1352.64 1410.06 L1352.64 1424.02 L1341.04 1424.02 L1341.04 1410.06 Z" fill="#000000" fill-rule="evenodd" fill-opacity="1" /><path clip-path="url(#clip190)" d="M1400.58 1349.25 Q1392.01 1349.25 1387.66 1357.72 Q1383.37 1366.13 1383.37 1383.06 Q1383.37 1399.94 1387.66 1408.41 Q1392.01 1416.82 1400.58 1416.82 Q1409.21 1416.82 1413.5 1408.41 Q1417.84 1399.94 1417.84 1383.06 Q1417.84 1366.13 1413.5 1357.72 Q1409.21 1349.25 1400.58 1349.25 M1400.58 1340.46 Q1414.38 1340.46 1421.64 1351.4 Q1428.95 1362.28 1428.95 1383.06 Q1428.95 1403.79 1421.64 1414.73 Q1414.38 1425.61 1400.58 1425.61 Q1386.78 1425.61 1379.47 1414.73 Q1372.21 1403.79 1372.21 1383.06 Q1372.21 1362.28 1379.47 1351.4 Q1386.78 1340.46 1400.58 1340.46 Z" fill="#000000" fill-rule="evenodd" fill-opacity="1" /><path clip-path="url(#clip190)" d="M1768.81 1349.25 Q1760.24 1349.25 1755.89 1357.72 Q1751.61 1366.13 1751.61 1383.06 Q1751.61 1399.94 1755.89 1408.41 Q1760.24 1416.82 1768.81 1416.82 Q1777.45 1416.82 1781.73 1408.41 Q1786.08 1399.94 1786.08 1383.06 Q1786.08 1366.13 1781.73 1357.72 Q1777.45 1349.25 1768.81 1349.25 M1768.81 1340.46 Q1782.61 1340.46 1789.87 1351.4 Q1797.18 1362.28 1797.18 1383.06 Q1797.18 1403.79 1789.87 1414.73 Q1782.61 1425.61 1768.81 1425.61 Q1755.02 1425.61 1747.7 1414.73 Q1740.45 1403.79 1740.45 1383.06 Q1740.45 1362.28 1747.7 1351.4 Q1755.02 1340.46 1768.81 1340.46 Z" fill="#000000" fill-rule="evenodd" fill-opacity="1" /><path clip-path="url(#clip190)" d="M1816.7 1410.06 L1828.3 1410.06 L1828.3 1424.02 L1816.7 1424.02 L1816.7 1410.06 Z" fill="#000000" fill-rule="evenodd" fill-opacity="1" /><path clip-path="url(#clip190)" d="M1852.6 1341.94 L1896.19 1341.94 L1896.19 1351.29 L1862.77 1351.29 L1862.77 1371.41 Q1865.19 1370.58 1867.61 1370.2 Q1870.03 1369.76 1872.45 1369.76 Q1886.19 1369.76 1894.22 1377.29 Q1902.24 1384.82 1902.24 1397.69 Q1902.24 1410.94 1894 1418.3 Q1885.75 1425.61 1870.74 1425.61 Q1865.57 1425.61 1860.19 1424.73 Q1854.85 1423.85 1849.14 1422.1 L1849.14 1410.94 Q1854.08 1413.63 1859.36 1414.95 Q1864.64 1416.27 1870.52 1416.27 Q1880.03 1416.27 1885.58 1411.27 Q1891.14 1406.26 1891.14 1397.69 Q1891.14 1389.11 1885.58 1384.11 Q1880.03 1379.1 1870.52 1379.1 Q1866.07 1379.1 1861.61 1380.09 Q1857.22 1381.08 1852.6 1383.17 L1852.6 1341.94 Z" fill="#000000" fill-rule="evenodd" fill-opacity="1" /><path clip-path="url(#clip190)" d="M2217.81 1414.67 L2235.95 1414.67 L2235.95 1352.06 L2216.21 1356.01 L2216.21 1345.9 L2235.84 1341.94 L2246.94 1341.94 L2246.94 1414.67 L2265.09 1414.67 L2265.09 1424.02 L2217.81 1424.02 L2217.81 1414.67 Z" fill="#000000" fill-rule="evenodd" fill-opacity="1" /><path clip-path="url(#clip190)" d="M2287.52 1410.06 L2299.12 1410.06 L2299.12 1424.02 L2287.52 1424.02 L2287.52 1410.06 Z" fill="#000000" fill-rule="evenodd" fill-opacity="1" /><path clip-path="url(#clip190)" d="M2347.06 1349.25 Q2338.48 1349.25 2334.14 1357.72 Q2329.85 1366.13 2329.85 1383.06 Q2329.85 1399.94 2334.14 1408.41 Q2338.48 1416.82 2347.06 1416.82 Q2355.69 1416.82 2359.98 1408.41 Q2364.32 1399.94 2364.32 1383.06 Q2364.32 1366.13 2359.98 1357.72 Q2355.69 1349.25 2347.06 1349.25 M2347.06 1340.46 Q2360.86 1340.46 2368.11 1351.4 Q2375.43 1362.28 2375.43 1383.06 Q2375.43 1403.79 2368.11 1414.73 Q2360.86 1425.61 2347.06 1425.61 Q2333.26 1425.61 2325.95 1414.73 Q2318.69 1403.79 2318.69 1383.06 Q2318.69 1362.28 2325.95 1351.4 Q2333.26 1340.46 2347.06 1340.46 Z" fill="#000000" fill-rule="evenodd" fill-opacity="1" /><path clip-path="url(#clip190)" d="M1389.16 1515.75 L1356.35 1559.91 L1390.86 1606.49 L1373.28 1606.49 L1346.87 1570.84 L1320.46 1606.49 L1302.88 1606.49 L1338.12 1559.02 L1305.87 1515.75 L1323.46 1515.75 L1347.52 1548.08 L1371.58 1515.75 L1389.16 1515.75 Z" fill="#000000" fill-rule="evenodd" fill-opacity="1" /><polyline clip-path="url(#clip192)" style="stroke:#000000; stroke-linecap:butt; stroke-linejoin:round; stroke-width:2; stroke-opacity:0.1; fill:none" points="
  340.984,1271.43 2352.76,1271.43 
  "/>
<polyline clip-path="url(#clip192)" style="stroke:#000000; stroke-linecap:butt; stroke-linejoin:round; stroke-width:2; stroke-opacity:0.1; fill:none" points="
  340.984,1014.8 2352.76,1014.8 
  "/>
<polyline clip-path="url(#clip192)" style="stroke:#000000; stroke-linecap:butt; stroke-linejoin:round; stroke-width:2; stroke-opacity:0.1; fill:none" points="
  340.984,758.175 2352.76,758.175 
  "/>
<polyline clip-path="url(#clip192)" style="stroke:#000000; stroke-linecap:butt; stroke-linejoin:round; stroke-width:2; stroke-opacity:0.1; fill:none" points="
  340.984,501.549 2352.76,501.549 
  "/>
<polyline clip-path="url(#clip192)" style="stroke:#000000; stroke-linecap:butt; stroke-linejoin:round; stroke-width:2; stroke-opacity:0.1; fill:none" points="
  340.984,244.924 2352.76,244.924 
  "/>
<polyline clip-path="url(#clip190)" style="stroke:#000000; stroke-linecap:butt; stroke-linejoin:round; stroke-width:4; stroke-opacity:1; fill:none" points="
  340.984,1302.22 340.984,214.192 
  "/>
<polyline clip-path="url(#clip190)" style="stroke:#000000; stroke-linecap:butt; stroke-linejoin:round; stroke-width:4; stroke-opacity:1; fill:none" points="
  340.984,1271.43 359.881,1271.43 
  "/>
<polyline clip-path="url(#clip190)" style="stroke:#000000; stroke-linecap:butt; stroke-linejoin:round; stroke-width:4; stroke-opacity:1; fill:none" points="
  340.984,1014.8 359.881,1014.8 
  "/>
<polyline clip-path="url(#clip190)" style="stroke:#000000; stroke-linecap:butt; stroke-linejoin:round; stroke-width:4; stroke-opacity:1; fill:none" points="
  340.984,758.175 359.881,758.175 
  "/>
<polyline clip-path="url(#clip190)" style="stroke:#000000; stroke-linecap:butt; stroke-linejoin:round; stroke-width:4; stroke-opacity:1; fill:none" points="
  340.984,501.549 359.881,501.549 
  "/>
<polyline clip-path="url(#clip190)" style="stroke:#000000; stroke-linecap:butt; stroke-linejoin:round; stroke-width:4; stroke-opacity:1; fill:none" points="
  340.984,244.924 359.881,244.924 
  "/>
<path clip-path="url(#clip190)" d="M50.9921 1272.5 L121.472 1272.5 L121.472 1281.84 L50.9921 1281.84 L50.9921 1272.5 Z" fill="#000000" fill-rule="evenodd" fill-opacity="1" /><path clip-path="url(#clip190)" d="M147.366 1303.12 L165.508 1303.12 L165.508 1240.5 L145.772 1244.46 L145.772 1234.34 L165.398 1230.39 L176.504 1230.39 L176.504 1303.12 L194.646 1303.12 L194.646 1312.47 L147.366 1312.47 L147.366 1303.12 Z" fill="#000000" fill-rule="evenodd" fill-opacity="1" /><path clip-path="url(#clip190)" d="M217.076 1298.5 L228.676 1298.5 L228.676 1312.47 L217.076 1312.47 L217.076 1298.5 Z" fill="#000000" fill-rule="evenodd" fill-opacity="1" /><path clip-path="url(#clip190)" d="M276.616 1237.7 Q268.04 1237.7 263.696 1246.16 Q259.408 1254.58 259.408 1271.51 Q259.408 1288.39 263.696 1296.85 Q268.04 1305.26 276.616 1305.26 Q285.247 1305.26 289.535 1296.85 Q293.879 1288.39 293.879 1271.51 Q293.879 1254.58 289.535 1246.16 Q285.247 1237.7 276.616 1237.7 M276.616 1228.9 Q290.415 1228.9 297.672 1239.84 Q304.984 1250.73 304.984 1271.51 Q304.984 1292.24 297.672 1303.18 Q290.415 1314.06 276.616 1314.06 Q262.817 1314.06 255.505 1303.18 Q248.248 1292.24 248.248 1271.51 Q248.248 1250.73 255.505 1239.84 Q262.817 1228.9 276.616 1228.9 Z" fill="#000000" fill-rule="evenodd" fill-opacity="1" /><path clip-path="url(#clip190)" d="M53.3561 1015.87 L123.836 1015.87 L123.836 1025.22 L53.3561 1025.22 L53.3561 1015.87 Z" fill="#000000" fill-rule="evenodd" fill-opacity="1" /><path clip-path="url(#clip190)" d="M171.556 981.073 Q162.979 981.073 158.636 989.539 Q154.348 997.951 154.348 1014.88 Q154.348 1031.76 158.636 1040.23 Q162.979 1048.64 171.556 1048.64 Q180.187 1048.64 184.475 1040.23 Q188.818 1031.76 188.818 1014.88 Q188.818 997.951 184.475 989.539 Q180.187 981.073 171.556 981.073 M171.556 972.277 Q185.355 972.277 192.612 983.217 Q199.924 994.102 199.924 1014.88 Q199.924 1035.61 192.612 1046.55 Q185.355 1057.44 171.556 1057.44 Q157.757 1057.44 150.445 1046.55 Q143.188 1035.61 143.188 1014.88 Q143.188 994.102 150.445 983.217 Q157.757 972.277 171.556 972.277 Z" fill="#000000" fill-rule="evenodd" fill-opacity="1" /><path clip-path="url(#clip190)" d="M219.44 1041.88 L231.04 1041.88 L231.04 1055.84 L219.44 1055.84 L219.44 1041.88 Z" fill="#000000" fill-rule="evenodd" fill-opacity="1" /><path clip-path="url(#clip190)" d="M255.34 973.761 L298.936 973.761 L298.936 983.107 L265.511 983.107 L265.511 1003.23 Q267.93 1002.4 270.349 1002.02 Q272.768 1001.58 275.187 1001.58 Q288.931 1001.58 296.957 1009.11 Q304.984 1016.64 304.984 1029.51 Q304.984 1042.76 296.737 1050.12 Q288.491 1057.44 273.482 1057.44 Q268.314 1057.44 262.927 1056.56 Q257.594 1055.68 251.876 1053.92 L251.876 1042.76 Q256.824 1045.45 262.102 1046.77 Q267.38 1048.09 273.262 1048.09 Q282.773 1048.09 288.326 1043.09 Q293.879 1038.08 293.879 1029.51 Q293.879 1020.93 288.326 1015.93 Q282.773 1010.93 273.262 1010.93 Q268.809 1010.93 264.356 1011.91 Q259.958 1012.9 255.34 1014.99 L255.34 973.761 Z" fill="#000000" fill-rule="evenodd" fill-opacity="1" /><path clip-path="url(#clip190)" d="M169.192 724.447 Q160.615 724.447 156.272 732.913 Q151.984 741.325 151.984 758.258 Q151.984 775.135 156.272 783.602 Q160.615 792.013 169.192 792.013 Q177.823 792.013 182.111 783.602 Q186.454 775.135 186.454 758.258 Q186.454 741.325 182.111 732.913 Q177.823 724.447 169.192 724.447 M169.192 715.651 Q182.991 715.651 190.248 726.591 Q197.56 737.476 197.56 758.258 Q197.56 778.984 190.248 789.924 Q182.991 800.809 169.192 800.809 Q155.393 800.809 148.081 789.924 Q140.824 778.984 140.824 758.258 Q140.824 737.476 148.081 726.591 Q155.393 715.651 169.192 715.651 Z" fill="#000000" fill-rule="evenodd" fill-opacity="1" /><path clip-path="url(#clip190)" d="M217.076 785.251 L228.676 785.251 L228.676 799.215 L217.076 799.215 L217.076 785.251 Z" fill="#000000" fill-rule="evenodd" fill-opacity="1" /><path clip-path="url(#clip190)" d="M276.616 724.447 Q268.04 724.447 263.696 732.913 Q259.408 741.325 259.408 758.258 Q259.408 775.135 263.696 783.602 Q268.04 792.013 276.616 792.013 Q285.247 792.013 289.535 783.602 Q293.879 775.135 293.879 758.258 Q293.879 741.325 289.535 732.913 Q285.247 724.447 276.616 724.447 M276.616 715.651 Q290.415 715.651 297.672 726.591 Q304.984 737.476 304.984 758.258 Q304.984 778.984 297.672 789.924 Q290.415 800.809 276.616 800.809 Q262.817 800.809 255.505 789.924 Q248.248 778.984 248.248 758.258 Q248.248 737.476 255.505 726.591 Q262.817 715.651 276.616 715.651 Z" fill="#000000" fill-rule="evenodd" fill-opacity="1" /><path clip-path="url(#clip190)" d="M171.556 467.821 Q162.979 467.821 158.636 476.288 Q154.348 484.699 154.348 501.632 Q154.348 518.51 158.636 526.976 Q162.979 535.387 171.556 535.387 Q180.187 535.387 184.475 526.976 Q188.818 518.51 188.818 501.632 Q188.818 484.699 184.475 476.288 Q180.187 467.821 171.556 467.821 M171.556 459.025 Q185.355 459.025 192.612 469.965 Q199.924 480.851 199.924 501.632 Q199.924 522.358 192.612 533.298 Q185.355 544.184 171.556 544.184 Q157.757 544.184 150.445 533.298 Q143.188 522.358 143.188 501.632 Q143.188 480.851 150.445 469.965 Q157.757 459.025 171.556 459.025 Z" fill="#000000" fill-rule="evenodd" fill-opacity="1" /><path clip-path="url(#clip190)" d="M219.44 528.625 L231.04 528.625 L231.04 542.589 L219.44 542.589 L219.44 528.625 Z" fill="#000000" fill-rule="evenodd" fill-opacity="1" /><path clip-path="url(#clip190)" d="M255.34 460.509 L298.936 460.509 L298.936 469.855 L265.511 469.855 L265.511 489.977 Q267.93 489.152 270.349 488.767 Q272.768 488.328 275.187 488.328 Q288.931 488.328 296.957 495.859 Q304.984 503.391 304.984 516.256 Q304.984 529.505 296.737 536.872 Q288.491 544.184 273.482 544.184 Q268.314 544.184 262.927 543.304 Q257.594 542.424 251.876 540.665 L251.876 529.505 Q256.824 532.199 262.102 533.518 Q267.38 534.838 273.262 534.838 Q282.773 534.838 288.326 529.835 Q293.879 524.832 293.879 516.256 Q293.879 507.679 288.326 502.676 Q282.773 497.674 273.262 497.674 Q268.809 497.674 264.356 498.663 Q259.958 499.653 255.34 501.742 L255.34 460.509 Z" fill="#000000" fill-rule="evenodd" fill-opacity="1" /><path clip-path="url(#clip190)" d="M147.366 276.618 L165.508 276.618 L165.508 213.999 L145.772 217.958 L145.772 207.842 L165.398 203.884 L176.504 203.884 L176.504 276.618 L194.646 276.618 L194.646 285.964 L147.366 285.964 L147.366 276.618 Z" fill="#000000" fill-rule="evenodd" fill-opacity="1" /><path clip-path="url(#clip190)" d="M217.076 272 L228.676 272 L228.676 285.964 L217.076 285.964 L217.076 272 Z" fill="#000000" fill-rule="evenodd" fill-opacity="1" /><path clip-path="url(#clip190)" d="M276.616 211.196 Q268.04 211.196 263.696 219.662 Q259.408 228.073 259.408 245.006 Q259.408 261.884 263.696 270.35 Q268.04 278.762 276.616 278.762 Q285.247 278.762 289.535 270.35 Q293.879 261.884 293.879 245.006 Q293.879 228.073 289.535 219.662 Q285.247 211.196 276.616 211.196 M276.616 202.399 Q290.415 202.399 297.672 213.34 Q304.984 224.225 304.984 245.006 Q304.984 265.732 297.672 276.673 Q290.415 287.558 276.616 287.558 Q262.817 287.558 255.505 276.673 Q248.248 265.732 248.248 245.006 Q248.248 224.225 255.505 213.34 Q262.817 202.399 276.616 202.399 Z" fill="#000000" fill-rule="evenodd" fill-opacity="1" /><path clip-path="url(#clip190)" d="M798.175 136.678 L798.175 68.0147 L816.809 68.0147 L816.809 135.969 Q816.809 152.071 823.088 160.173 Q829.367 168.173 841.925 168.173 Q857.014 168.173 865.724 158.552 Q874.534 148.931 874.534 132.323 L874.534 68.0147 L893.169 68.0147 L893.169 181.44 L874.534 181.44 L874.534 164.021 Q867.749 174.351 858.736 179.415 Q849.824 184.377 837.975 184.377 Q818.429 184.377 808.302 172.224 Q798.175 160.071 798.175 136.678 M845.064 65.2803 L845.064 65.2803 Z" fill="#000000" fill-rule="evenodd" fill-opacity="1" /><path clip-path="url(#clip190)" d="M976.313 24.0624 Q962.743 47.3551 956.16 70.1414 Q949.577 92.9277 949.577 116.322 Q949.577 139.716 956.16 162.705 Q962.844 185.592 976.313 208.784 L960.11 208.784 Q944.919 184.985 937.323 161.996 Q929.829 139.007 929.829 116.322 Q929.829 93.7379 937.323 70.8503 Q944.818 47.9627 960.11 24.0624 L976.313 24.0624 Z" fill="#000000" fill-rule="evenodd" fill-opacity="1" /><path clip-path="url(#clip190)" d="M1106.75 68.0147 L1065.74 123.208 L1108.88 181.44 L1086.9 181.44 L1053.89 136.88 L1020.87 181.44 L998.897 181.44 L1042.95 122.094 L1002.64 68.0147 L1024.62 68.0147 L1054.7 108.422 L1084.78 68.0147 L1106.75 68.0147 Z" fill="#000000" fill-rule="evenodd" fill-opacity="1" /><path clip-path="url(#clip190)" d="M1139.97 155.717 L1161.34 155.717 L1161.34 173.136 L1144.73 205.543 L1131.67 205.543 L1139.97 173.136 L1139.97 155.717 Z" fill="#000000" fill-rule="evenodd" fill-opacity="1" /><path clip-path="url(#clip190)" d="M1285.5 35.81 L1285.5 68.0147 L1323.88 68.0147 L1323.88 82.4967 L1285.5 82.4967 L1285.5 144.07 Q1285.5 157.945 1289.25 161.894 Q1293.09 165.844 1304.74 165.844 L1323.88 165.844 L1323.88 181.44 L1304.74 181.44 Q1283.17 181.44 1274.97 173.439 Q1266.76 165.338 1266.76 144.07 L1266.76 82.4967 L1253.09 82.4967 L1253.09 68.0147 L1266.76 68.0147 L1266.76 35.81 L1285.5 35.81 Z" fill="#000000" fill-rule="evenodd" fill-opacity="1" /><path clip-path="url(#clip190)" d="M1350.82 87.2565 L1480.65 87.2565 L1480.65 104.27 L1350.82 104.27 L1350.82 87.2565 M1350.82 128.576 L1480.65 128.576 L1480.65 145.792 L1350.82 145.792 L1350.82 128.576 Z" fill="#000000" fill-rule="evenodd" fill-opacity="1" /><path clip-path="url(#clip190)" d="M1542.43 164.224 L1613.82 164.224 L1613.82 181.44 L1517.82 181.44 L1517.82 164.224 Q1529.46 152.172 1549.52 131.918 Q1569.67 111.562 1574.83 105.688 Q1584.66 94.6494 1588.51 87.0539 Q1592.46 79.3572 1592.46 71.9643 Q1592.46 59.9129 1583.95 52.3174 Q1575.54 44.722 1561.97 44.722 Q1552.35 44.722 1541.62 48.064 Q1530.98 51.406 1518.83 58.1912 L1518.83 37.5316 Q1531.19 32.5693 1541.92 30.0375 Q1552.66 27.5056 1561.57 27.5056 Q1585.06 27.5056 1599.04 39.2533 Q1613.01 51.0009 1613.01 70.6478 Q1613.01 79.9648 1609.47 88.3705 Q1606.03 96.6748 1596.81 108.017 Q1594.28 110.954 1580.71 125.031 Q1567.14 139.007 1542.43 164.224 Z" fill="#000000" fill-rule="evenodd" fill-opacity="1" /><path clip-path="url(#clip190)" d="M1656.76 155.717 L1678.13 155.717 L1678.13 181.44 L1656.76 181.44 L1656.76 155.717 Z" fill="#000000" fill-rule="evenodd" fill-opacity="1" /><path clip-path="url(#clip190)" d="M1766.44 43.7093 Q1750.64 43.7093 1742.64 59.3052 Q1734.74 74.7999 1734.74 105.992 Q1734.74 137.083 1742.64 152.679 Q1750.64 168.173 1766.44 168.173 Q1782.34 168.173 1790.24 152.679 Q1798.24 137.083 1798.24 105.992 Q1798.24 74.7999 1790.24 59.3052 Q1782.34 43.7093 1766.44 43.7093 M1766.44 27.5056 Q1791.86 27.5056 1805.23 47.6589 Q1818.7 67.7109 1818.7 105.992 Q1818.7 144.172 1805.23 164.325 Q1791.86 184.377 1766.44 184.377 Q1741.02 184.377 1727.55 164.325 Q1714.19 144.172 1714.19 105.992 Q1714.19 67.7109 1727.55 47.6589 Q1741.02 27.5056 1766.44 27.5056 Z" fill="#000000" fill-rule="evenodd" fill-opacity="1" /><path clip-path="url(#clip190)" d="M1849.08 24.0624 L1865.28 24.0624 Q1880.48 47.9627 1887.97 70.8503 Q1895.56 93.7379 1895.56 116.322 Q1895.56 139.007 1887.97 161.996 Q1880.48 184.985 1865.28 208.784 L1849.08 208.784 Q1862.55 185.592 1869.13 162.705 Q1875.82 139.716 1875.82 116.322 Q1875.82 92.9277 1869.13 70.1414 Q1862.55 47.3551 1849.08 24.0624 Z" fill="#000000" fill-rule="evenodd" fill-opacity="1" /><circle clip-path="url(#clip192)" cx="397.921" cy="1178.35" r="14" fill="#009af9" fill-rule="evenodd" fill-opacity="1" stroke="#000000" stroke-opacity="1" stroke-width="3.2"/>
<circle clip-path="url(#clip192)" cx="457.23" cy="1170.27" r="14" fill="#009af9" fill-rule="evenodd" fill-opacity="1" stroke="#000000" stroke-opacity="1" stroke-width="3.2"/>
<circle clip-path="url(#clip192)" cx="516.539" cy="1146.36" r="14" fill="#009af9" fill-rule="evenodd" fill-opacity="1" stroke="#000000" stroke-opacity="1" stroke-width="3.2"/>
<circle clip-path="url(#clip192)" cx="575.849" cy="1107.54" r="14" fill="#009af9" fill-rule="evenodd" fill-opacity="1" stroke="#000000" stroke-opacity="1" stroke-width="3.2"/>
<circle clip-path="url(#clip192)" cx="635.158" cy="1055.28" r="14" fill="#009af9" fill-rule="evenodd" fill-opacity="1" stroke="#000000" stroke-opacity="1" stroke-width="3.2"/>
<circle clip-path="url(#clip192)" cx="694.467" cy="991.611" r="14" fill="#009af9" fill-rule="evenodd" fill-opacity="1" stroke="#000000" stroke-opacity="1" stroke-width="3.2"/>
<circle clip-path="url(#clip192)" cx="753.777" cy="918.968" r="14" fill="#009af9" fill-rule="evenodd" fill-opacity="1" stroke="#000000" stroke-opacity="1" stroke-width="3.2"/>
<circle clip-path="url(#clip192)" cx="813.086" cy="840.147" r="14" fill="#009af9" fill-rule="evenodd" fill-opacity="1" stroke="#000000" stroke-opacity="1" stroke-width="3.2"/>
<circle clip-path="url(#clip192)" cx="872.395" cy="758.175" r="14" fill="#009af9" fill-rule="evenodd" fill-opacity="1" stroke="#000000" stroke-opacity="1" stroke-width="3.2"/>
<circle clip-path="url(#clip192)" cx="931.705" cy="676.204" r="14" fill="#009af9" fill-rule="evenodd" fill-opacity="1" stroke="#000000" stroke-opacity="1" stroke-width="3.2"/>
<circle clip-path="url(#clip192)" cx="991.014" cy="597.382" r="14" fill="#009af9" fill-rule="evenodd" fill-opacity="1" stroke="#000000" stroke-opacity="1" stroke-width="3.2"/>
<circle clip-path="url(#clip192)" cx="1050.32" cy="524.74" r="14" fill="#009af9" fill-rule="evenodd" fill-opacity="1" stroke="#000000" stroke-opacity="1" stroke-width="3.2"/>
<circle clip-path="url(#clip192)" cx="1109.63" cy="461.068" r="14" fill="#009af9" fill-rule="evenodd" fill-opacity="1" stroke="#000000" stroke-opacity="1" stroke-width="3.2"/>
<circle clip-path="url(#clip192)" cx="1168.94" cy="408.814" r="14" fill="#009af9" fill-rule="evenodd" fill-opacity="1" stroke="#000000" stroke-opacity="1" stroke-width="3.2"/>
<circle clip-path="url(#clip192)" cx="1228.25" cy="369.986" r="14" fill="#009af9" fill-rule="evenodd" fill-opacity="1" stroke="#000000" stroke-opacity="1" stroke-width="3.2"/>
<circle clip-path="url(#clip192)" cx="1287.56" cy="346.076" r="14" fill="#009af9" fill-rule="evenodd" fill-opacity="1" stroke="#000000" stroke-opacity="1" stroke-width="3.2"/>
<circle clip-path="url(#clip192)" cx="1346.87" cy="338.002" r="14" fill="#009af9" fill-rule="evenodd" fill-opacity="1" stroke="#000000" stroke-opacity="1" stroke-width="3.2"/>
<circle clip-path="url(#clip192)" cx="1406.18" cy="346.076" r="14" fill="#009af9" fill-rule="evenodd" fill-opacity="1" stroke="#000000" stroke-opacity="1" stroke-width="3.2"/>
<circle clip-path="url(#clip192)" cx="1465.49" cy="369.986" r="14" fill="#009af9" fill-rule="evenodd" fill-opacity="1" stroke="#000000" stroke-opacity="1" stroke-width="3.2"/>
<circle clip-path="url(#clip192)" cx="1524.8" cy="408.814" r="14" fill="#009af9" fill-rule="evenodd" fill-opacity="1" stroke="#000000" stroke-opacity="1" stroke-width="3.2"/>
<circle clip-path="url(#clip192)" cx="1584.11" cy="461.068" r="14" fill="#009af9" fill-rule="evenodd" fill-opacity="1" stroke="#000000" stroke-opacity="1" stroke-width="3.2"/>
<circle clip-path="url(#clip192)" cx="1643.42" cy="524.74" r="14" fill="#009af9" fill-rule="evenodd" fill-opacity="1" stroke="#000000" stroke-opacity="1" stroke-width="3.2"/>
<circle clip-path="url(#clip192)" cx="1702.73" cy="597.382" r="14" fill="#009af9" fill-rule="evenodd" fill-opacity="1" stroke="#000000" stroke-opacity="1" stroke-width="3.2"/>
<circle clip-path="url(#clip192)" cx="1762.04" cy="676.204" r="14" fill="#009af9" fill-rule="evenodd" fill-opacity="1" stroke="#000000" stroke-opacity="1" stroke-width="3.2"/>
<circle clip-path="url(#clip192)" cx="1821.34" cy="758.175" r="14" fill="#009af9" fill-rule="evenodd" fill-opacity="1" stroke="#000000" stroke-opacity="1" stroke-width="3.2"/>
<circle clip-path="url(#clip192)" cx="1880.65" cy="840.147" r="14" fill="#009af9" fill-rule="evenodd" fill-opacity="1" stroke="#000000" stroke-opacity="1" stroke-width="3.2"/>
<circle clip-path="url(#clip192)" cx="1939.96" cy="918.968" r="14" fill="#009af9" fill-rule="evenodd" fill-opacity="1" stroke="#000000" stroke-opacity="1" stroke-width="3.2"/>
<circle clip-path="url(#clip192)" cx="1999.27" cy="991.611" r="14" fill="#009af9" fill-rule="evenodd" fill-opacity="1" stroke="#000000" stroke-opacity="1" stroke-width="3.2"/>
<circle clip-path="url(#clip192)" cx="2058.58" cy="1055.28" r="14" fill="#009af9" fill-rule="evenodd" fill-opacity="1" stroke="#000000" stroke-opacity="1" stroke-width="3.2"/>
<circle clip-path="url(#clip192)" cx="2117.89" cy="1107.54" r="14" fill="#009af9" fill-rule="evenodd" fill-opacity="1" stroke="#000000" stroke-opacity="1" stroke-width="3.2"/>
<circle clip-path="url(#clip192)" cx="2177.2" cy="1146.36" r="14" fill="#009af9" fill-rule="evenodd" fill-opacity="1" stroke="#000000" stroke-opacity="1" stroke-width="3.2"/>
<circle clip-path="url(#clip192)" cx="2236.51" cy="1170.27" r="14" fill="#009af9" fill-rule="evenodd" fill-opacity="1" stroke="#000000" stroke-opacity="1" stroke-width="3.2"/>
<polyline clip-path="url(#clip192)" style="stroke:#e26f46; stroke-linecap:butt; stroke-linejoin:round; stroke-width:8; stroke-opacity:1; fill:none" points="
  397.921,1178.39 402.554,1178.34 407.188,1178.19 411.822,1177.94 416.455,1177.6 459.3,1169.74 502.145,1153.62 544.989,1129.56 587.834,1098.04 613.582,1075.76 
  639.329,1051.18 665.077,1024.47 690.825,995.83 734.364,943.586 777.903,887.496 872.494,758.038 959.698,638.406 1006.44,577.752 1053.19,521.41 1107.35,463.291 
  1161.51,414.628 1185.58,396.459 1209.64,380.585 1233.71,367.106 1257.77,356.108 1299.98,343.013 1342.19,338.011 1388.2,341.888 1434.22,355.409 1480.51,378.421 
  1526.8,410.334 1577.98,455.072 1629.16,508.49 1677.85,565.981 1726.55,628.456 1827.82,767.178 1913.06,883.815 1965.1,950.694 2017.13,1011.87 2066.05,1062.57 
  2114.96,1105.29 2154.15,1133.01 2193.33,1154.43 2232.51,1169.2 2271.7,1177.05 2277.73,1177.64 2283.76,1178.05 2289.79,1178.31 2295.82,1178.39 
  "/>
<polyline clip-path="url(#clip192)" style="stroke:#808080; stroke-linecap:butt; stroke-linejoin:round; stroke-width:8; stroke-opacity:1; fill:none" stroke-dasharray="32, 20" points="
  397.921,1271.43 402.554,1271.37 407.188,1271.19 411.822,1270.88 416.455,1270.46 459.3,1260.87 502.145,1241.18 544.989,1211.78 587.834,1173.28 613.582,1146.08 
  639.329,1116.05 665.077,1083.43 690.825,1048.45 734.364,984.636 777.903,916.128 872.494,758.008 959.698,611.889 1006.44,537.805 1053.19,468.989 1107.35,398.003 
  1161.51,338.565 1185.58,316.374 1209.64,296.985 1233.71,280.522 1257.77,267.09 1299.98,251.095 1342.19,244.985 1388.2,249.721 1434.22,266.235 1480.51,294.342 
  1526.8,333.321 1577.98,387.964 1629.16,453.21 1677.85,523.429 1726.55,599.736 1827.82,769.171 1913.06,911.632 1965.1,993.318 2017.13,1068.04 2066.05,1129.96 
  2114.96,1182.15 2154.15,1216 2193.33,1242.17 2232.51,1260.2 2271.7,1269.79 2277.73,1270.51 2283.76,1271.02 2289.79,1271.32 2295.82,1271.43 
  "/>
<path clip-path="url(#clip190)" d="
M1216.35 742.94 L2285.7 742.94 L2285.7 250.46 L1216.35 250.46  Z
  " fill="#ffffff" fill-rule="evenodd" fill-opacity="1"/>
<polyline clip-path="url(#clip190)" style="stroke:#000000; stroke-linecap:butt; stroke-linejoin:round; stroke-width:4; stroke-opacity:1; fill:none" points="
  1216.35,742.94 2285.7,742.94 2285.7,250.46 1216.35,250.46 1216.35,742.94 
  "/>
<circle clip-path="url(#clip190)" cx="1305.76" cy="373.58" r="54" fill="#009af9" fill-rule="evenodd" fill-opacity="1" stroke="#000000" stroke-opacity="1" stroke-width="12.16"/>
<path clip-path="url(#clip190)" d="M1446.74 377.456 L1446.74 414.62 L1436.63 414.62 L1436.63 377.785 Q1436.63 369.044 1433.22 364.701 Q1429.81 360.358 1422.99 360.358 Q1414.8 360.358 1410.08 365.581 Q1405.35 370.803 1405.35 379.82 L1405.35 414.62 L1395.18 414.62 L1395.18 353.046 L1405.35 353.046 L1405.35 362.612 Q1408.98 357.059 1413.87 354.31 Q1418.82 351.562 1425.25 351.562 Q1435.86 351.562 1441.3 358.159 Q1446.74 364.701 1446.74 377.456 Z" fill="#000000" fill-rule="evenodd" fill-opacity="1" /><path clip-path="url(#clip190)" d="M1465.88 390.32 L1465.88 353.046 L1475.99 353.046 L1475.99 389.935 Q1475.99 398.677 1479.4 403.075 Q1482.81 407.418 1489.63 407.418 Q1497.82 407.418 1502.55 402.195 Q1507.33 396.972 1507.33 387.956 L1507.33 353.046 L1517.44 353.046 L1517.44 414.62 L1507.33 414.62 L1507.33 405.164 Q1503.65 410.771 1498.75 413.52 Q1493.91 416.214 1487.48 416.214 Q1476.87 416.214 1471.37 409.617 Q1465.88 403.02 1465.88 390.32 M1491.33 351.562 L1491.33 351.562 Z" fill="#000000" fill-rule="evenodd" fill-opacity="1" /><path clip-path="url(#clip190)" d="M1586.22 364.866 Q1590.01 358.049 1595.29 354.805 Q1600.57 351.562 1607.72 351.562 Q1617.34 351.562 1622.56 358.324 Q1627.78 365.031 1627.78 377.456 L1627.78 414.62 L1617.61 414.62 L1617.61 377.785 Q1617.61 368.934 1614.48 364.646 Q1611.34 360.358 1604.91 360.358 Q1597.05 360.358 1592.49 365.581 Q1587.92 370.803 1587.92 379.82 L1587.92 414.62 L1577.75 414.62 L1577.75 377.785 Q1577.75 368.879 1574.62 364.646 Q1571.49 360.358 1564.94 360.358 Q1557.19 360.358 1552.63 365.636 Q1548.07 370.858 1548.07 379.82 L1548.07 414.62 L1537.9 414.62 L1537.9 353.046 L1548.07 353.046 L1548.07 362.612 Q1551.53 356.949 1556.37 354.255 Q1561.21 351.562 1567.86 351.562 Q1574.56 351.562 1579.24 354.97 Q1583.97 358.379 1586.22 364.866 Z" fill="#000000" fill-rule="evenodd" fill-opacity="1" /><path clip-path="url(#clip190)" d="M1700.63 381.304 L1700.63 386.252 L1654.12 386.252 Q1654.78 396.697 1660.38 402.195 Q1666.05 407.638 1676.11 407.638 Q1681.93 407.638 1687.38 406.208 Q1692.87 404.779 1698.26 401.92 L1698.26 411.486 Q1692.82 413.795 1687.1 415.005 Q1681.38 416.214 1675.5 416.214 Q1660.77 416.214 1652.14 407.638 Q1643.56 399.061 1643.56 384.438 Q1643.56 369.319 1651.7 360.468 Q1659.89 351.562 1673.74 351.562 Q1686.17 351.562 1693.37 359.588 Q1700.63 367.56 1700.63 381.304 M1690.51 378.335 Q1690.4 370.034 1685.84 365.086 Q1681.33 360.138 1673.85 360.138 Q1665.39 360.138 1660.27 364.921 Q1655.22 369.704 1654.45 378.39 L1690.51 378.335 Z" fill="#000000" fill-rule="evenodd" fill-opacity="1" /><path clip-path="url(#clip190)" d="M1752.91 362.502 Q1751.2 361.512 1749.17 361.073 Q1747.19 360.578 1744.77 360.578 Q1736.2 360.578 1731.58 366.185 Q1727.01 371.738 1727.01 382.184 L1727.01 414.62 L1716.84 414.62 L1716.84 353.046 L1727.01 353.046 L1727.01 362.612 Q1730.2 357.004 1735.32 354.31 Q1740.43 351.562 1747.74 351.562 Q1748.79 351.562 1750.05 351.727 Q1751.31 351.836 1752.85 352.111 L1752.91 362.502 Z" fill="#000000" fill-rule="evenodd" fill-opacity="1" /><path clip-path="url(#clip190)" d="M1763.52 353.046 L1773.64 353.046 L1773.64 414.62 L1763.52 414.62 L1763.52 353.046 M1763.52 329.076 L1773.64 329.076 L1773.64 341.886 L1763.52 341.886 L1763.52 329.076 Z" fill="#000000" fill-rule="evenodd" fill-opacity="1" /><path clip-path="url(#clip190)" d="M1839.11 355.41 L1839.11 364.866 Q1834.82 362.502 1830.48 361.347 Q1826.19 360.138 1821.79 360.138 Q1811.95 360.138 1806.51 366.405 Q1801.07 372.618 1801.07 383.888 Q1801.07 395.158 1806.51 401.425 Q1811.95 407.638 1821.79 407.638 Q1826.19 407.638 1830.48 406.483 Q1834.82 405.274 1839.11 402.91 L1839.11 412.256 Q1834.88 414.235 1830.32 415.224 Q1825.81 416.214 1820.7 416.214 Q1806.79 416.214 1798.59 407.473 Q1790.4 398.731 1790.4 383.888 Q1790.4 368.824 1798.65 360.193 Q1806.95 351.562 1821.35 351.562 Q1826.03 351.562 1830.48 352.551 Q1834.93 353.486 1839.11 355.41 Z" fill="#000000" fill-rule="evenodd" fill-opacity="1" /><path clip-path="url(#clip190)" d="M1884.69 383.668 Q1872.43 383.668 1867.7 386.472 Q1862.97 389.276 1862.97 396.038 Q1862.97 401.425 1866.49 404.614 Q1870.06 407.748 1876.17 407.748 Q1884.58 407.748 1889.64 401.81 Q1894.75 395.818 1894.75 385.922 L1894.75 383.668 L1884.69 383.668 M1904.86 379.49 L1904.86 414.62 L1894.75 414.62 L1894.75 405.274 Q1891.28 410.881 1886.12 413.575 Q1880.95 416.214 1873.47 416.214 Q1864.02 416.214 1858.41 410.936 Q1852.86 405.604 1852.86 396.697 Q1852.86 386.307 1859.78 381.029 Q1866.77 375.751 1880.56 375.751 L1894.75 375.751 L1894.75 374.762 Q1894.75 367.78 1890.13 363.986 Q1885.57 360.138 1877.27 360.138 Q1871.99 360.138 1866.99 361.402 Q1861.98 362.667 1857.36 365.196 L1857.36 355.85 Q1862.92 353.706 1868.14 352.661 Q1873.36 351.562 1878.31 351.562 Q1891.67 351.562 1898.27 358.489 Q1904.86 365.416 1904.86 379.49 Z" fill="#000000" fill-rule="evenodd" fill-opacity="1" /><path clip-path="url(#clip190)" d="M1925.7 329.076 L1935.82 329.076 L1935.82 414.62 L1925.7 414.62 L1925.7 329.076 Z" fill="#000000" fill-rule="evenodd" fill-opacity="1" /><polyline clip-path="url(#clip190)" style="stroke:#e26f46; stroke-linecap:butt; stroke-linejoin:round; stroke-width:9.5; stroke-opacity:1; fill:none" points="
  1238.71,496.7 1372.82,496.7 
  "/>
<path clip-path="url(#clip190)" d="M1427.01 506.788 Q1414.75 506.788 1410.02 509.592 Q1405.29 512.396 1405.29 519.158 Q1405.29 524.545 1408.81 527.734 Q1412.38 530.868 1418.49 530.868 Q1426.9 530.868 1431.96 524.93 Q1437.07 518.938 1437.07 509.042 L1437.07 506.788 L1427.01 506.788 M1447.18 502.61 L1447.18 537.74 L1437.07 537.74 L1437.07 528.394 Q1433.61 534.001 1428.44 536.695 Q1423.27 539.334 1415.79 539.334 Q1406.34 539.334 1400.73 534.056 Q1395.18 528.724 1395.18 519.817 Q1395.18 509.427 1402.1 504.149 Q1409.09 498.871 1422.88 498.871 L1437.07 498.871 L1437.07 497.882 Q1437.07 490.9 1432.45 487.106 Q1427.89 483.258 1419.59 483.258 Q1414.31 483.258 1409.31 484.522 Q1404.3 485.787 1399.68 488.316 L1399.68 478.97 Q1405.24 476.826 1410.46 475.781 Q1415.68 474.682 1420.63 474.682 Q1433.99 474.682 1440.59 481.609 Q1447.18 488.536 1447.18 502.61 Z" fill="#000000" fill-rule="evenodd" fill-opacity="1" /><path clip-path="url(#clip190)" d="M1519.2 500.576 L1519.2 537.74 L1509.09 537.74 L1509.09 500.905 Q1509.09 492.164 1505.68 487.821 Q1502.27 483.478 1495.45 483.478 Q1487.26 483.478 1482.53 488.701 Q1477.81 493.923 1477.81 502.94 L1477.81 537.74 L1467.64 537.74 L1467.64 476.166 L1477.81 476.166 L1477.81 485.732 Q1481.43 480.179 1486.33 477.43 Q1491.28 474.682 1497.71 474.682 Q1508.32 474.682 1513.76 481.279 Q1519.2 487.821 1519.2 500.576 Z" fill="#000000" fill-rule="evenodd" fill-opacity="1" /><path clip-path="url(#clip190)" d="M1567.36 506.788 Q1555.1 506.788 1550.38 509.592 Q1545.65 512.396 1545.65 519.158 Q1545.65 524.545 1549.17 527.734 Q1552.74 530.868 1558.84 530.868 Q1567.25 530.868 1572.31 524.93 Q1577.42 518.938 1577.42 509.042 L1577.42 506.788 L1567.36 506.788 M1587.54 502.61 L1587.54 537.74 L1577.42 537.74 L1577.42 528.394 Q1573.96 534.001 1568.79 536.695 Q1563.62 539.334 1556.15 539.334 Q1546.69 539.334 1541.08 534.056 Q1535.53 528.724 1535.53 519.817 Q1535.53 509.427 1542.46 504.149 Q1549.44 498.871 1563.24 498.871 L1577.42 498.871 L1577.42 497.882 Q1577.42 490.9 1572.81 487.106 Q1568.24 483.258 1559.94 483.258 Q1554.66 483.258 1549.66 484.522 Q1544.66 485.787 1540.04 488.316 L1540.04 478.97 Q1545.59 476.826 1550.82 475.781 Q1556.04 474.682 1560.99 474.682 Q1574.35 474.682 1580.94 481.609 Q1587.54 488.536 1587.54 502.61 Z" fill="#000000" fill-rule="evenodd" fill-opacity="1" /><path clip-path="url(#clip190)" d="M1608.38 452.196 L1618.49 452.196 L1618.49 537.74 L1608.38 537.74 L1608.38 452.196 Z" fill="#000000" fill-rule="evenodd" fill-opacity="1" /><path clip-path="url(#clip190)" d="M1665.28 543.457 Q1660.99 554.453 1656.92 557.806 Q1652.85 561.16 1646.03 561.16 L1637.95 561.16 L1637.95 552.693 L1643.89 552.693 Q1648.07 552.693 1650.38 550.714 Q1652.69 548.735 1655.49 541.368 L1657.3 536.75 L1632.4 476.166 L1643.12 476.166 L1662.36 524.325 L1681.6 476.166 L1692.32 476.166 L1665.28 543.457 Z" fill="#000000" fill-rule="evenodd" fill-opacity="1" /><path clip-path="url(#clip190)" d="M1716.29 458.683 L1716.29 476.166 L1737.13 476.166 L1737.13 484.028 L1716.29 484.028 L1716.29 517.453 Q1716.29 524.985 1718.33 527.129 Q1720.42 529.273 1726.74 529.273 L1737.13 529.273 L1737.13 537.74 L1726.74 537.74 Q1715.03 537.74 1710.58 533.397 Q1706.12 528.998 1706.12 517.453 L1706.12 484.028 L1698.7 484.028 L1698.7 476.166 L1706.12 476.166 L1706.12 458.683 L1716.29 458.683 Z" fill="#000000" fill-rule="evenodd" fill-opacity="1" /><path clip-path="url(#clip190)" d="M1750.43 476.166 L1760.55 476.166 L1760.55 537.74 L1750.43 537.74 L1750.43 476.166 M1750.43 452.196 L1760.55 452.196 L1760.55 465.006 L1750.43 465.006 L1750.43 452.196 Z" fill="#000000" fill-rule="evenodd" fill-opacity="1" /><path clip-path="url(#clip190)" d="M1826.03 478.53 L1826.03 487.986 Q1821.74 485.622 1817.4 484.467 Q1813.11 483.258 1808.71 483.258 Q1798.87 483.258 1793.43 489.525 Q1787.98 495.738 1787.98 507.008 Q1787.98 518.278 1793.43 524.545 Q1798.87 530.758 1808.71 530.758 Q1813.11 530.758 1817.4 529.603 Q1821.74 528.394 1826.03 526.03 L1826.03 535.376 Q1821.79 537.355 1817.23 538.344 Q1812.72 539.334 1807.61 539.334 Q1793.7 539.334 1785.51 530.593 Q1777.32 521.851 1777.32 507.008 Q1777.32 491.944 1785.56 483.313 Q1793.87 474.682 1808.27 474.682 Q1812.94 474.682 1817.4 475.671 Q1821.85 476.606 1826.03 478.53 Z" fill="#000000" fill-rule="evenodd" fill-opacity="1" /><path clip-path="url(#clip190)" d="M1871.6 506.788 Q1859.34 506.788 1854.62 509.592 Q1849.89 512.396 1849.89 519.158 Q1849.89 524.545 1853.41 527.734 Q1856.98 530.868 1863.08 530.868 Q1871.49 530.868 1876.55 524.93 Q1881.66 518.938 1881.66 509.042 L1881.66 506.788 L1871.6 506.788 M1891.78 502.61 L1891.78 537.74 L1881.66 537.74 L1881.66 528.394 Q1878.2 534.001 1873.03 536.695 Q1867.86 539.334 1860.39 539.334 Q1850.93 539.334 1845.32 534.056 Q1839.77 528.724 1839.77 519.817 Q1839.77 509.427 1846.7 504.149 Q1853.68 498.871 1867.48 498.871 L1881.66 498.871 L1881.66 497.882 Q1881.66 490.9 1877.05 487.106 Q1872.48 483.258 1864.18 483.258 Q1858.9 483.258 1853.9 484.522 Q1848.9 485.787 1844.28 488.316 L1844.28 478.97 Q1849.83 476.826 1855.06 475.781 Q1860.28 474.682 1865.23 474.682 Q1878.59 474.682 1885.18 481.609 Q1891.78 488.536 1891.78 502.61 Z" fill="#000000" fill-rule="evenodd" fill-opacity="1" /><path clip-path="url(#clip190)" d="M1912.62 452.196 L1922.73 452.196 L1922.73 537.74 L1912.62 537.74 L1912.62 452.196 Z" fill="#000000" fill-rule="evenodd" fill-opacity="1" /><polyline clip-path="url(#clip190)" style="stroke:#808080; stroke-linecap:butt; stroke-linejoin:round; stroke-width:9.5; stroke-opacity:1; fill:none" stroke-dasharray="38, 24" points="
  1238.71,619.82 1372.82,619.82 
  "/>
<path clip-path="url(#clip190)" d="M1395.18 599.286 L1405.29 599.286 L1405.29 660.86 L1395.18 660.86 L1395.18 599.286 M1395.18 575.316 L1405.29 575.316 L1405.29 588.126 L1395.18 588.126 L1395.18 575.316 Z" fill="#000000" fill-rule="evenodd" fill-opacity="1" /><path clip-path="url(#clip190)" d="M1477.64 623.696 L1477.64 660.86 L1467.53 660.86 L1467.53 624.025 Q1467.53 615.284 1464.12 610.941 Q1460.71 606.598 1453.89 606.598 Q1445.7 606.598 1440.97 611.821 Q1436.24 617.043 1436.24 626.06 L1436.24 660.86 L1426.07 660.86 L1426.07 599.286 L1436.24 599.286 L1436.24 608.852 Q1439.87 603.299 1444.77 600.55 Q1449.71 597.802 1456.15 597.802 Q1466.76 597.802 1472.2 604.399 Q1477.64 610.941 1477.64 623.696 Z" fill="#000000" fill-rule="evenodd" fill-opacity="1" /><path clip-path="url(#clip190)" d="M1497.82 599.286 L1507.93 599.286 L1507.93 660.86 L1497.82 660.86 L1497.82 599.286 M1497.82 575.316 L1507.93 575.316 L1507.93 588.126 L1497.82 588.126 L1497.82 575.316 Z" fill="#000000" fill-rule="evenodd" fill-opacity="1" /><path clip-path="url(#clip190)" d="M1539.11 581.803 L1539.11 599.286 L1559.94 599.286 L1559.94 607.148 L1539.11 607.148 L1539.11 640.573 Q1539.11 648.105 1541.14 650.249 Q1543.23 652.393 1549.55 652.393 L1559.94 652.393 L1559.94 660.86 L1549.55 660.86 Q1537.84 660.86 1533.39 656.517 Q1528.93 652.118 1528.93 640.573 L1528.93 607.148 L1521.51 607.148 L1521.51 599.286 L1528.93 599.286 L1528.93 581.803 L1539.11 581.803 Z" fill="#000000" fill-rule="evenodd" fill-opacity="1" /><path clip-path="url(#clip190)" d="M1573.25 599.286 L1583.36 599.286 L1583.36 660.86 L1573.25 660.86 L1573.25 599.286 M1573.25 575.316 L1583.36 575.316 L1583.36 588.126 L1573.25 588.126 L1573.25 575.316 Z" fill="#000000" fill-rule="evenodd" fill-opacity="1" /><path clip-path="url(#clip190)" d="M1632.51 629.908 Q1620.25 629.908 1615.52 632.712 Q1610.79 635.516 1610.79 642.278 Q1610.79 647.665 1614.31 650.854 Q1617.89 653.988 1623.99 653.988 Q1632.4 653.988 1637.46 648.05 Q1642.57 642.058 1642.57 632.162 L1642.57 629.908 L1632.51 629.908 M1652.69 625.73 L1652.69 660.86 L1642.57 660.86 L1642.57 651.514 Q1639.11 657.121 1633.94 659.815 Q1628.77 662.454 1621.3 662.454 Q1611.84 662.454 1606.23 657.176 Q1600.68 651.844 1600.68 642.937 Q1600.68 632.547 1607.61 627.269 Q1614.59 621.991 1628.39 621.991 L1642.57 621.991 L1642.57 621.002 Q1642.57 614.02 1637.95 610.226 Q1633.39 606.378 1625.09 606.378 Q1619.81 606.378 1614.81 607.642 Q1609.8 608.907 1605.19 611.436 L1605.19 602.09 Q1610.74 599.946 1615.96 598.901 Q1621.19 597.802 1626.13 597.802 Q1639.49 597.802 1646.09 604.729 Q1652.69 611.656 1652.69 625.73 Z" fill="#000000" fill-rule="evenodd" fill-opacity="1" /><path clip-path="url(#clip190)" d="M1673.52 575.316 L1683.64 575.316 L1683.64 660.86 L1673.52 660.86 L1673.52 575.316 Z" fill="#000000" fill-rule="evenodd" fill-opacity="1" /><path clip-path="url(#clip190)" d="M1784.91 601.65 L1784.91 611.106 Q1780.62 608.742 1776.27 607.587 Q1771.99 606.378 1767.59 606.378 Q1757.75 606.378 1752.3 612.645 Q1746.86 618.858 1746.86 630.128 Q1746.86 641.398 1752.3 647.665 Q1757.75 653.878 1767.59 653.878 Q1771.99 653.878 1776.27 652.723 Q1780.62 651.514 1784.91 649.15 L1784.91 658.496 Q1780.67 660.475 1776.11 661.464 Q1771.6 662.454 1766.49 662.454 Q1752.58 662.454 1744.39 653.713 Q1736.2 644.971 1736.2 630.128 Q1736.2 615.064 1744.44 606.433 Q1752.74 597.802 1767.15 597.802 Q1771.82 597.802 1776.27 598.791 Q1780.73 599.726 1784.91 601.65 Z" fill="#000000" fill-rule="evenodd" fill-opacity="1" /><path clip-path="url(#clip190)" d="M1826.36 606.378 Q1818.22 606.378 1813.49 612.755 Q1808.77 619.078 1808.77 630.128 Q1808.77 641.178 1813.44 647.555 Q1818.17 653.878 1826.36 653.878 Q1834.44 653.878 1839.17 647.5 Q1843.9 641.123 1843.9 630.128 Q1843.9 619.187 1839.17 612.81 Q1834.44 606.378 1826.36 606.378 M1826.36 597.802 Q1839.55 597.802 1847.08 606.378 Q1854.62 614.954 1854.62 630.128 Q1854.62 645.246 1847.08 653.878 Q1839.55 662.454 1826.36 662.454 Q1813.11 662.454 1805.58 653.878 Q1798.1 645.246 1798.1 630.128 Q1798.1 614.954 1805.58 606.378 Q1813.11 597.802 1826.36 597.802 Z" fill="#000000" fill-rule="evenodd" fill-opacity="1" /><path clip-path="url(#clip190)" d="M1922.57 623.696 L1922.57 660.86 L1912.45 660.86 L1912.45 624.025 Q1912.45 615.284 1909.04 610.941 Q1905.63 606.598 1898.82 606.598 Q1890.63 606.598 1885.9 611.821 Q1881.17 617.043 1881.17 626.06 L1881.17 660.86 L1871 660.86 L1871 599.286 L1881.17 599.286 L1881.17 608.852 Q1884.8 603.299 1889.69 600.55 Q1894.64 597.802 1901.07 597.802 Q1911.68 597.802 1917.12 604.399 Q1922.57 610.941 1922.57 623.696 Z" fill="#000000" fill-rule="evenodd" fill-opacity="1" /><path clip-path="url(#clip190)" d="M1983.26 608.632 L1983.26 575.316 L1993.38 575.316 L1993.38 660.86 L1983.26 660.86 L1983.26 651.624 Q1980.07 657.121 1975.18 659.815 Q1970.34 662.454 1963.52 662.454 Q1952.36 662.454 1945.33 653.548 Q1938.34 644.642 1938.34 630.128 Q1938.34 615.614 1945.33 606.708 Q1952.36 597.802 1963.52 597.802 Q1970.34 597.802 1975.18 600.495 Q1980.07 603.134 1983.26 608.632 M1948.79 630.128 Q1948.79 641.288 1953.35 647.665 Q1957.97 653.988 1966 653.988 Q1974.02 653.988 1978.64 647.665 Q1983.26 641.288 1983.26 630.128 Q1983.26 618.968 1978.64 612.645 Q1974.02 606.268 1966 606.268 Q1957.97 606.268 1953.35 612.645 Q1948.79 618.968 1948.79 630.128 Z" fill="#000000" fill-rule="evenodd" fill-opacity="1" /><path clip-path="url(#clip190)" d="M2014.21 599.286 L2024.33 599.286 L2024.33 660.86 L2014.21 660.86 L2014.21 599.286 M2014.21 575.316 L2024.33 575.316 L2024.33 588.126 L2014.21 588.126 L2014.21 575.316 Z" fill="#000000" fill-rule="evenodd" fill-opacity="1" /><path clip-path="url(#clip190)" d="M2055.5 581.803 L2055.5 599.286 L2076.34 599.286 L2076.34 607.148 L2055.5 607.148 L2055.5 640.573 Q2055.5 648.105 2057.53 650.249 Q2059.62 652.393 2065.95 652.393 L2076.34 652.393 L2076.34 660.86 L2065.95 660.86 Q2054.24 660.86 2049.78 656.517 Q2045.33 652.118 2045.33 640.573 L2045.33 607.148 L2037.91 607.148 L2037.91 599.286 L2045.33 599.286 L2045.33 581.803 L2055.5 581.803 Z" fill="#000000" fill-rule="evenodd" fill-opacity="1" /><path clip-path="url(#clip190)" d="M2089.64 599.286 L2099.76 599.286 L2099.76 660.86 L2089.64 660.86 L2089.64 599.286 M2089.64 575.316 L2099.76 575.316 L2099.76 588.126 L2089.64 588.126 L2089.64 575.316 Z" fill="#000000" fill-rule="evenodd" fill-opacity="1" /><path clip-path="url(#clip190)" d="M2144.78 606.378 Q2136.65 606.378 2131.92 612.755 Q2127.19 619.078 2127.19 630.128 Q2127.19 641.178 2131.86 647.555 Q2136.59 653.878 2144.78 653.878 Q2152.86 653.878 2157.59 647.5 Q2162.32 641.123 2162.32 630.128 Q2162.32 619.187 2157.59 612.81 Q2152.86 606.378 2144.78 606.378 M2144.78 597.802 Q2157.98 597.802 2165.51 606.378 Q2173.04 614.954 2173.04 630.128 Q2173.04 645.246 2165.51 653.878 Q2157.98 662.454 2144.78 662.454 Q2131.53 662.454 2124 653.878 Q2116.52 645.246 2116.52 630.128 Q2116.52 614.954 2124 606.378 Q2131.53 597.802 2144.78 597.802 Z" fill="#000000" fill-rule="evenodd" fill-opacity="1" /><path clip-path="url(#clip190)" d="M2240.99 623.696 L2240.99 660.86 L2230.88 660.86 L2230.88 624.025 Q2230.88 615.284 2227.47 610.941 Q2224.06 606.598 2217.24 606.598 Q2209.05 606.598 2204.32 611.821 Q2199.59 617.043 2199.59 626.06 L2199.59 660.86 L2189.42 660.86 L2189.42 599.286 L2199.59 599.286 L2199.59 608.852 Q2203.22 603.299 2208.11 600.55 Q2213.06 597.802 2219.49 597.802 Q2230.11 597.802 2235.55 604.399 Q2240.99 610.941 2240.99 623.696 Z" fill="#000000" fill-rule="evenodd" fill-opacity="1" /></svg>
