<?xml version="1.0" encoding="utf-8"?>
<svg xmlns="http://www.w3.org/2000/svg" xmlns:xlink="http://www.w3.org/1999/xlink" width="600" height="400" viewBox="0 0 2400 1600">
<defs>
  <clipPath id="clip260">
    <rect x="0" y="0" width="2400" height="1600"/>
  </clipPath>
</defs>
<path clip-path="url(#clip260)" d="
M0 1600 L2400 1600 L2400 0 L0 0  Z
  " fill="#ffffff" fill-rule="evenodd" fill-opacity="1"/>
<defs>
  <clipPath id="clip261">
    <rect x="480" y="0" width="1681" height="1600"/>
  </clipPath>
</defs>
<path clip-path="url(#clip260)" d="
M407.824 1250.38 L2352.76 1250.38 L2352.76 253.072 L407.824 253.072  Z
  " fill="#ffffff" fill-rule="evenodd" fill-opacity="1"/>
<defs>
  <clipPath id="clip262">
    <rect x="407" y="253" width="1946" height="998"/>
  </clipPath>
</defs>
<polyline clip-path="url(#clip262)" style="stroke:#000000; stroke-linecap:butt; stroke-linejoin:round; stroke-width:2; stroke-opacity:0.1; fill:none" points="
  462.869,1250.38 462.869,253.072 
  "/>
<polyline clip-path="url(#clip262)" style="stroke:#000000; stroke-linecap:butt; stroke-linejoin:round; stroke-width:2; stroke-opacity:0.1; fill:none" points="
  921.579,1250.38 921.579,253.072 
  "/>
<polyline clip-path="url(#clip262)" style="stroke:#000000; stroke-linecap:butt; stroke-linejoin:round; stroke-width:2; stroke-opacity:0.1; fill:none" points="
  1380.29,1250.38 1380.29,253.072 
  "/>
<polyline clip-path="url(#clip262)" style="stroke:#000000; stroke-linecap:butt; stroke-linejoin:round; stroke-width:2; stroke-opacity:0.1; fill:none" points="
  1839,1250.38 1839,253.072 
  "/>
<polyline clip-path="url(#clip262)" style="stroke:#000000; stroke-linecap:butt; stroke-linejoin:round; stroke-width:2; stroke-opacity:0.1; fill:none" points="
  2297.71,1250.38 2297.71,253.072 
  "/>
<polyline clip-path="url(#clip260)" style="stroke:#000000; stroke-linecap:butt; stroke-linejoin:round; stroke-width:4; stroke-opacity:1; fill:none" points="
  407.824,1250.38 2352.76,1250.38 
  "/>
<polyline clip-path="url(#clip260)" style="stroke:#000000; stroke-linecap:butt; stroke-linejoin:round; stroke-width:4; stroke-opacity:1; fill:none" points="
  462.869,1250.38 462.869,1231.48 
  "/>
<polyline clip-path="url(#clip260)" style="stroke:#000000; stroke-linecap:butt; stroke-linejoin:round; stroke-width:4; stroke-opacity:1; fill:none" points="
  921.579,1250.38 921.579,1231.48 
  "/>
<polyline clip-path="url(#clip260)" style="stroke:#000000; stroke-linecap:butt; stroke-linejoin:round; stroke-width:4; stroke-opacity:1; fill:none" points="
  1380.29,1250.38 1380.29,1231.48 
  "/>
<polyline clip-path="url(#clip260)" style="stroke:#000000; stroke-linecap:butt; stroke-linejoin:round; stroke-width:4; stroke-opacity:1; fill:none" points="
  1839,1250.38 1839,1231.48 
  "/>
<polyline clip-path="url(#clip260)" style="stroke:#000000; stroke-linecap:butt; stroke-linejoin:round; stroke-width:4; stroke-opacity:1; fill:none" points="
  2297.71,1250.38 2297.71,1231.48 
  "/>
<path clip-path="url(#clip260)" d="M302.453 1348.69 L391.48 1348.69 L391.48 1360.5 L302.453 1360.5 L302.453 1348.69 Z" fill="#000000" fill-rule="evenodd" fill-opacity="1" /><path clip-path="url(#clip260)" d="M424.189 1387.37 L447.105 1387.37 L447.105 1308.28 L422.175 1313.28 L422.175 1300.5 L446.966 1295.5 L460.994 1295.5 L460.994 1387.37 L483.911 1387.37 L483.911 1399.18 L424.189 1399.18 L424.189 1387.37 Z" fill="#000000" fill-rule="evenodd" fill-opacity="1" /><path clip-path="url(#clip260)" d="M512.244 1381.54 L526.896 1381.54 L526.896 1399.18 L512.244 1399.18 L512.244 1381.54 Z" fill="#000000" fill-rule="evenodd" fill-opacity="1" /><path clip-path="url(#clip260)" d="M587.452 1304.74 Q576.618 1304.74 571.132 1315.43 Q565.716 1326.06 565.716 1347.44 Q565.716 1368.76 571.132 1379.46 Q576.618 1390.08 587.452 1390.08 Q598.354 1390.08 603.771 1379.46 Q609.257 1368.76 609.257 1347.44 Q609.257 1326.06 603.771 1315.43 Q598.354 1304.74 587.452 1304.74 M587.452 1293.62 Q604.882 1293.62 614.049 1307.44 Q623.285 1321.19 623.285 1347.44 Q623.285 1373.62 614.049 1387.44 Q604.882 1401.19 587.452 1401.19 Q570.021 1401.19 560.785 1387.44 Q551.619 1373.62 551.619 1347.44 Q551.619 1321.19 560.785 1307.44 Q570.021 1293.62 587.452 1293.62 Z" fill="#000000" fill-rule="evenodd" fill-opacity="1" /><path clip-path="url(#clip260)" d="M762.657 1348.69 L851.684 1348.69 L851.684 1360.5 L762.657 1360.5 L762.657 1348.69 Z" fill="#000000" fill-rule="evenodd" fill-opacity="1" /><path clip-path="url(#clip260)" d="M911.961 1304.74 Q901.128 1304.74 895.642 1315.43 Q890.225 1326.06 890.225 1347.44 Q890.225 1368.76 895.642 1379.46 Q901.128 1390.08 911.961 1390.08 Q922.864 1390.08 928.281 1379.46 Q933.767 1368.76 933.767 1347.44 Q933.767 1326.06 928.281 1315.43 Q922.864 1304.74 911.961 1304.74 M911.961 1293.62 Q929.392 1293.62 938.558 1307.44 Q947.795 1321.19 947.795 1347.44 Q947.795 1373.62 938.558 1387.44 Q929.392 1401.19 911.961 1401.19 Q894.531 1401.19 885.295 1387.44 Q876.128 1373.62 876.128 1347.44 Q876.128 1321.19 885.295 1307.44 Q894.531 1293.62 911.961 1293.62 Z" fill="#000000" fill-rule="evenodd" fill-opacity="1" /><path clip-path="url(#clip260)" d="M972.447 1381.54 L987.1 1381.54 L987.1 1399.18 L972.447 1399.18 L972.447 1381.54 Z" fill="#000000" fill-rule="evenodd" fill-opacity="1" /><path clip-path="url(#clip260)" d="M1017.79 1295.5 L1072.86 1295.5 L1072.86 1307.31 L1030.64 1307.31 L1030.64 1332.72 Q1033.7 1331.68 1036.75 1331.19 Q1039.81 1330.64 1042.86 1330.64 Q1060.22 1330.64 1070.36 1340.15 Q1080.5 1349.67 1080.5 1365.92 Q1080.5 1382.65 1070.09 1391.96 Q1059.67 1401.19 1040.71 1401.19 Q1034.18 1401.19 1027.38 1400.08 Q1020.64 1398.97 1013.42 1396.75 L1013.42 1382.65 Q1019.67 1386.05 1026.34 1387.72 Q1033 1389.39 1040.43 1389.39 Q1052.45 1389.39 1059.46 1383.07 Q1066.47 1376.75 1066.47 1365.92 Q1066.47 1355.08 1059.46 1348.76 Q1052.45 1342.44 1040.43 1342.44 Q1034.81 1342.44 1029.18 1343.69 Q1023.63 1344.94 1017.79 1347.58 L1017.79 1295.5 Z" fill="#000000" fill-rule="evenodd" fill-opacity="1" /><path clip-path="url(#clip260)" d="M1312.44 1304.74 Q1301.61 1304.74 1296.12 1315.43 Q1290.71 1326.06 1290.71 1347.44 Q1290.71 1368.76 1296.12 1379.46 Q1301.61 1390.08 1312.44 1390.08 Q1323.35 1390.08 1328.76 1379.46 Q1334.25 1368.76 1334.25 1347.44 Q1334.25 1326.06 1328.76 1315.43 Q1323.35 1304.74 1312.44 1304.74 M1312.44 1293.62 Q1329.87 1293.62 1339.04 1307.44 Q1348.28 1321.19 1348.28 1347.44 Q1348.28 1373.62 1339.04 1387.44 Q1329.87 1401.19 1312.44 1401.19 Q1295.01 1401.19 1285.78 1387.44 Q1276.61 1373.62 1276.61 1347.44 Q1276.61 1321.19 1285.78 1307.44 Q1295.01 1293.62 1312.44 1293.62 Z" fill="#000000" fill-rule="evenodd" fill-opacity="1" /><path clip-path="url(#clip260)" d="M1372.93 1381.54 L1387.58 1381.54 L1387.58 1399.18 L1372.93 1399.18 L1372.93 1381.54 Z" fill="#000000" fill-rule="evenodd" fill-opacity="1" /><path clip-path="url(#clip260)" d="M1448.14 1304.74 Q1437.3 1304.74 1431.82 1315.43 Q1426.4 1326.06 1426.4 1347.44 Q1426.4 1368.76 1431.82 1379.46 Q1437.3 1390.08 1448.14 1390.08 Q1459.04 1390.08 1464.46 1379.46 Q1469.94 1368.76 1469.94 1347.44 Q1469.94 1326.06 1464.46 1315.43 Q1459.04 1304.74 1448.14 1304.74 M1448.14 1293.62 Q1465.57 1293.62 1474.73 1307.44 Q1483.97 1321.19 1483.97 1347.44 Q1483.97 1373.62 1474.73 1387.44 Q1465.57 1401.19 1448.14 1401.19 Q1430.71 1401.19 1421.47 1387.44 Q1412.3 1373.62 1412.3 1347.44 Q1412.3 1321.19 1421.47 1307.44 Q1430.71 1293.62 1448.14 1293.62 Z" fill="#000000" fill-rule="evenodd" fill-opacity="1" /><path clip-path="url(#clip260)" d="M1772.65 1304.74 Q1761.81 1304.74 1756.33 1315.43 Q1750.91 1326.06 1750.91 1347.44 Q1750.91 1368.76 1756.33 1379.46 Q1761.81 1390.08 1772.65 1390.08 Q1783.55 1390.08 1788.97 1379.46 Q1794.45 1368.76 1794.45 1347.44 Q1794.45 1326.06 1788.97 1315.43 Q1783.55 1304.74 1772.65 1304.74 M1772.65 1293.62 Q1790.08 1293.62 1799.24 1307.44 Q1808.48 1321.19 1808.48 1347.44 Q1808.48 1373.62 1799.24 1387.44 Q1790.08 1401.19 1772.65 1401.19 Q1755.22 1401.19 1745.98 1387.44 Q1736.81 1373.62 1736.81 1347.44 Q1736.81 1321.19 1745.98 1307.44 Q1755.22 1293.62 1772.65 1293.62 Z" fill="#000000" fill-rule="evenodd" fill-opacity="1" /><path clip-path="url(#clip260)" d="M1833.13 1381.54 L1847.78 1381.54 L1847.78 1399.18 L1833.13 1399.18 L1833.13 1381.54 Z" fill="#000000" fill-rule="evenodd" fill-opacity="1" /><path clip-path="url(#clip260)" d="M1878.48 1295.5 L1933.55 1295.5 L1933.55 1307.31 L1891.33 1307.31 L1891.33 1332.72 Q1894.38 1331.68 1897.44 1331.19 Q1900.49 1330.64 1903.55 1330.64 Q1920.91 1330.64 1931.05 1340.15 Q1941.19 1349.67 1941.19 1365.92 Q1941.19 1382.65 1930.77 1391.96 Q1920.35 1401.19 1901.4 1401.19 Q1894.87 1401.19 1888.06 1400.08 Q1881.33 1398.97 1874.1 1396.75 L1874.1 1382.65 Q1880.35 1386.05 1887.02 1387.72 Q1893.69 1389.39 1901.12 1389.39 Q1913.13 1389.39 1920.15 1383.07 Q1927.16 1376.75 1927.16 1365.92 Q1927.16 1355.08 1920.15 1348.76 Q1913.13 1342.44 1901.12 1342.44 Q1895.49 1342.44 1889.87 1343.69 Q1884.31 1344.94 1878.48 1347.58 L1878.48 1295.5 Z" fill="#000000" fill-rule="evenodd" fill-opacity="1" /><path clip-path="url(#clip260)" d="M2199.17 1387.37 L2222.09 1387.37 L2222.09 1308.28 L2197.16 1313.28 L2197.16 1300.5 L2221.95 1295.5 L2235.97 1295.5 L2235.97 1387.37 L2258.89 1387.37 L2258.89 1399.18 L2199.17 1399.18 L2199.17 1387.37 Z" fill="#000000" fill-rule="evenodd" fill-opacity="1" /><path clip-path="url(#clip260)" d="M2287.22 1381.54 L2301.88 1381.54 L2301.88 1399.18 L2287.22 1399.18 L2287.22 1381.54 Z" fill="#000000" fill-rule="evenodd" fill-opacity="1" /><path clip-path="url(#clip260)" d="M2362.43 1304.74 Q2351.6 1304.74 2346.11 1315.43 Q2340.7 1326.06 2340.7 1347.44 Q2340.7 1368.76 2346.11 1379.46 Q2351.6 1390.08 2362.43 1390.08 Q2373.34 1390.08 2378.75 1379.46 Q2384.24 1368.76 2384.24 1347.44 Q2384.24 1326.06 2378.75 1315.43 Q2373.34 1304.74 2362.43 1304.74 M2362.43 1293.62 Q2379.86 1293.62 2389.03 1307.44 Q2398.27 1321.19 2398.27 1347.44 Q2398.27 1373.62 2389.03 1387.44 Q2379.86 1401.19 2362.43 1401.19 Q2345 1401.19 2335.77 1387.44 Q2326.6 1373.62 2326.6 1347.44 Q2326.6 1321.19 2335.77 1307.44 Q2345 1293.62 2362.43 1293.62 Z" fill="#000000" fill-rule="evenodd" fill-opacity="1" /><path clip-path="url(#clip260)" d="M1433.15 1509.91 L1392.14 1565.11 L1435.28 1623.34 L1413.3 1623.34 L1380.29 1578.78 L1347.27 1623.34 L1325.3 1623.34 L1369.35 1563.99 L1329.05 1509.91 L1351.02 1509.91 L1381.1 1550.32 L1411.18 1509.91 L1433.15 1509.91 Z" fill="#000000" fill-rule="evenodd" fill-opacity="1" /><polyline clip-path="url(#clip262)" style="stroke:#000000; stroke-linecap:butt; stroke-linejoin:round; stroke-width:2; stroke-opacity:0.1; fill:none" points="
  407.824,1222.15 2352.76,1222.15 
  "/>
<polyline clip-path="url(#clip262)" style="stroke:#000000; stroke-linecap:butt; stroke-linejoin:round; stroke-width:2; stroke-opacity:0.1; fill:none" points="
  407.824,986.926 2352.76,986.926 
  "/>
<polyline clip-path="url(#clip262)" style="stroke:#000000; stroke-linecap:butt; stroke-linejoin:round; stroke-width:2; stroke-opacity:0.1; fill:none" points="
  407.824,751.698 2352.76,751.698 
  "/>
<polyline clip-path="url(#clip262)" style="stroke:#000000; stroke-linecap:butt; stroke-linejoin:round; stroke-width:2; stroke-opacity:0.1; fill:none" points="
  407.824,516.469 2352.76,516.469 
  "/>
<polyline clip-path="url(#clip262)" style="stroke:#000000; stroke-linecap:butt; stroke-linejoin:round; stroke-width:2; stroke-opacity:0.1; fill:none" points="
  407.824,281.241 2352.76,281.241 
  "/>
<polyline clip-path="url(#clip260)" style="stroke:#000000; stroke-linecap:butt; stroke-linejoin:round; stroke-width:4; stroke-opacity:1; fill:none" points="
  407.824,1250.38 407.824,253.072 
  "/>
<polyline clip-path="url(#clip260)" style="stroke:#000000; stroke-linecap:butt; stroke-linejoin:round; stroke-width:4; stroke-opacity:1; fill:none" points="
  407.824,1222.15 426.721,1222.15 
  "/>
<polyline clip-path="url(#clip260)" style="stroke:#000000; stroke-linecap:butt; stroke-linejoin:round; stroke-width:4; stroke-opacity:1; fill:none" points="
  407.824,986.926 426.721,986.926 
  "/>
<polyline clip-path="url(#clip260)" style="stroke:#000000; stroke-linecap:butt; stroke-linejoin:round; stroke-width:4; stroke-opacity:1; fill:none" points="
  407.824,751.698 426.721,751.698 
  "/>
<polyline clip-path="url(#clip260)" style="stroke:#000000; stroke-linecap:butt; stroke-linejoin:round; stroke-width:4; stroke-opacity:1; fill:none" points="
  407.824,516.469 426.721,516.469 
  "/>
<polyline clip-path="url(#clip260)" style="stroke:#000000; stroke-linecap:butt; stroke-linejoin:round; stroke-width:4; stroke-opacity:1; fill:none" points="
  407.824,281.241 426.721,281.241 
  "/>
<path clip-path="url(#clip260)" d="M50.9921 1223.51 L140.019 1223.51 L140.019 1235.31 L50.9921 1235.31 L50.9921 1223.51 Z" fill="#000000" fill-rule="evenodd" fill-opacity="1" /><path clip-path="url(#clip260)" d="M172.728 1262.19 L195.644 1262.19 L195.644 1183.09 L170.714 1188.09 L170.714 1175.31 L195.505 1170.31 L209.533 1170.31 L209.533 1262.19 L232.449 1262.19 L232.449 1273.99 L172.728 1273.99 L172.728 1262.19 Z" fill="#000000" fill-rule="evenodd" fill-opacity="1" /><path clip-path="url(#clip260)" d="M260.783 1256.36 L275.435 1256.36 L275.435 1273.99 L260.783 1273.99 L260.783 1256.36 Z" fill="#000000" fill-rule="evenodd" fill-opacity="1" /><path clip-path="url(#clip260)" d="M335.991 1179.55 Q325.157 1179.55 319.671 1190.24 Q314.255 1200.87 314.255 1222.26 Q314.255 1243.58 319.671 1254.27 Q325.157 1264.9 335.991 1264.9 Q346.893 1264.9 352.31 1254.27 Q357.796 1243.58 357.796 1222.26 Q357.796 1200.87 352.31 1190.24 Q346.893 1179.55 335.991 1179.55 M335.991 1168.44 Q353.421 1168.44 362.588 1182.26 Q371.824 1196.01 371.824 1222.26 Q371.824 1248.44 362.588 1262.26 Q353.421 1276.01 335.991 1276.01 Q318.56 1276.01 309.324 1262.26 Q300.157 1248.44 300.157 1222.26 Q300.157 1196.01 309.324 1182.26 Q318.56 1168.44 335.991 1168.44 Z" fill="#000000" fill-rule="evenodd" fill-opacity="1" /><path clip-path="url(#clip260)" d="M53.9782 988.28 L143.006 988.28 L143.006 1000.09 L53.9782 1000.09 L53.9782 988.28 Z" fill="#000000" fill-rule="evenodd" fill-opacity="1" /><path clip-path="url(#clip260)" d="M203.283 944.322 Q192.45 944.322 186.964 955.016 Q181.547 965.641 181.547 987.03 Q181.547 1008.35 186.964 1019.04 Q192.45 1029.67 203.283 1029.67 Q214.186 1029.67 219.602 1019.04 Q225.088 1008.35 225.088 987.03 Q225.088 965.641 219.602 955.016 Q214.186 944.322 203.283 944.322 M203.283 933.211 Q220.713 933.211 229.88 947.03 Q239.116 960.78 239.116 987.03 Q239.116 1013.21 229.88 1027.03 Q220.713 1040.78 203.283 1040.78 Q185.853 1040.78 176.616 1027.03 Q167.45 1013.21 167.45 987.03 Q167.45 960.78 176.616 947.03 Q185.853 933.211 203.283 933.211 Z" fill="#000000" fill-rule="evenodd" fill-opacity="1" /><path clip-path="url(#clip260)" d="M263.769 1021.13 L278.421 1021.13 L278.421 1038.77 L263.769 1038.77 L263.769 1021.13 Z" fill="#000000" fill-rule="evenodd" fill-opacity="1" /><path clip-path="url(#clip260)" d="M309.116 935.086 L364.185 935.086 L364.185 946.891 L321.963 946.891 L321.963 972.308 Q325.018 971.266 328.074 970.78 Q331.13 970.225 334.185 970.225 Q351.546 970.225 361.685 979.738 Q371.824 989.252 371.824 1005.5 Q371.824 1022.24 361.407 1031.54 Q350.991 1040.78 332.032 1040.78 Q325.505 1040.78 318.699 1039.67 Q311.963 1038.56 304.741 1036.34 L304.741 1022.24 Q310.991 1025.64 317.657 1027.31 Q324.324 1028.97 331.755 1028.97 Q343.768 1028.97 350.782 1022.65 Q357.796 1016.34 357.796 1005.5 Q357.796 994.669 350.782 988.35 Q343.768 982.03 331.755 982.03 Q326.13 982.03 320.505 983.28 Q314.949 984.53 309.116 987.169 L309.116 935.086 Z" fill="#000000" fill-rule="evenodd" fill-opacity="1" /><path clip-path="url(#clip260)" d="M200.297 709.094 Q189.464 709.094 183.978 719.788 Q178.561 730.413 178.561 751.802 Q178.561 773.121 183.978 783.816 Q189.464 794.441 200.297 794.441 Q211.2 794.441 216.616 783.816 Q222.102 773.121 222.102 751.802 Q222.102 730.413 216.616 719.788 Q211.2 709.094 200.297 709.094 M200.297 697.983 Q217.727 697.983 226.894 711.802 Q236.13 725.552 236.13 751.802 Q236.13 777.982 226.894 791.802 Q217.727 805.552 200.297 805.552 Q182.866 805.552 173.63 791.802 Q164.464 777.982 164.464 751.802 Q164.464 725.552 173.63 711.802 Q182.866 697.983 200.297 697.983 Z" fill="#000000" fill-rule="evenodd" fill-opacity="1" /><path clip-path="url(#clip260)" d="M260.783 785.899 L275.435 785.899 L275.435 803.538 L260.783 803.538 L260.783 785.899 Z" fill="#000000" fill-rule="evenodd" fill-opacity="1" /><path clip-path="url(#clip260)" d="M335.991 709.094 Q325.157 709.094 319.671 719.788 Q314.255 730.413 314.255 751.802 Q314.255 773.121 319.671 783.816 Q325.157 794.441 335.991 794.441 Q346.893 794.441 352.31 783.816 Q357.796 773.121 357.796 751.802 Q357.796 730.413 352.31 719.788 Q346.893 709.094 335.991 709.094 M335.991 697.983 Q353.421 697.983 362.588 711.802 Q371.824 725.552 371.824 751.802 Q371.824 777.982 362.588 791.802 Q353.421 805.552 335.991 805.552 Q318.56 805.552 309.324 791.802 Q300.157 777.982 300.157 751.802 Q300.157 725.552 309.324 711.802 Q318.56 697.983 335.991 697.983 Z" fill="#000000" fill-rule="evenodd" fill-opacity="1" /><path clip-path="url(#clip260)" d="M203.283 473.866 Q192.45 473.866 186.964 484.56 Q181.547 495.185 181.547 516.574 Q181.547 537.893 186.964 548.587 Q192.45 559.212 203.283 559.212 Q214.186 559.212 219.602 548.587 Q225.088 537.893 225.088 516.574 Q225.088 495.185 219.602 484.56 Q214.186 473.866 203.283 473.866 M203.283 462.754 Q220.713 462.754 229.88 476.574 Q239.116 490.324 239.116 516.574 Q239.116 542.754 229.88 556.573 Q220.713 570.323 203.283 570.323 Q185.853 570.323 176.616 556.573 Q167.45 542.754 167.45 516.574 Q167.45 490.324 176.616 476.574 Q185.853 462.754 203.283 462.754 Z" fill="#000000" fill-rule="evenodd" fill-opacity="1" /><path clip-path="url(#clip260)" d="M263.769 550.671 L278.421 550.671 L278.421 568.309 L263.769 568.309 L263.769 550.671 Z" fill="#000000" fill-rule="evenodd" fill-opacity="1" /><path clip-path="url(#clip260)" d="M309.116 464.629 L364.185 464.629 L364.185 476.435 L321.963 476.435 L321.963 501.852 Q325.018 500.81 328.074 500.324 Q331.13 499.768 334.185 499.768 Q351.546 499.768 361.685 509.282 Q371.824 518.796 371.824 535.046 Q371.824 551.782 361.407 561.087 Q350.991 570.323 332.032 570.323 Q325.505 570.323 318.699 569.212 Q311.963 568.101 304.741 565.879 L304.741 551.782 Q310.991 555.185 317.657 556.851 Q324.324 558.518 331.755 558.518 Q343.768 558.518 350.782 552.198 Q357.796 545.879 357.796 535.046 Q357.796 524.213 350.782 517.893 Q343.768 511.574 331.755 511.574 Q326.13 511.574 320.505 512.824 Q314.949 514.074 309.116 516.713 L309.116 464.629 Z" fill="#000000" fill-rule="evenodd" fill-opacity="1" /><path clip-path="url(#clip260)" d="M172.728 321.276 L195.644 321.276 L195.644 242.179 L170.714 247.179 L170.714 234.401 L195.505 229.401 L209.533 229.401 L209.533 321.276 L232.449 321.276 L232.449 333.081 L172.728 333.081 L172.728 321.276 Z" fill="#000000" fill-rule="evenodd" fill-opacity="1" /><path clip-path="url(#clip260)" d="M260.783 315.442 L275.435 315.442 L275.435 333.081 L260.783 333.081 L260.783 315.442 Z" fill="#000000" fill-rule="evenodd" fill-opacity="1" /><path clip-path="url(#clip260)" d="M335.991 238.637 Q325.157 238.637 319.671 249.332 Q314.255 259.957 314.255 281.345 Q314.255 302.665 319.671 313.359 Q325.157 323.984 335.991 323.984 Q346.893 323.984 352.31 313.359 Q357.796 302.665 357.796 281.345 Q357.796 259.957 352.31 249.332 Q346.893 238.637 335.991 238.637 M335.991 227.526 Q353.421 227.526 362.588 241.346 Q371.824 255.096 371.824 281.345 Q371.824 307.526 362.588 321.345 Q353.421 335.095 335.991 335.095 Q318.56 335.095 309.324 321.345 Q300.157 307.526 300.157 281.345 Q300.157 255.096 309.324 241.346 Q318.56 227.526 335.991 227.526 Z" fill="#000000" fill-rule="evenodd" fill-opacity="1" /><path clip-path="url(#clip260)" d="M690.502 171.823 L690.502 85.5042 L713.928 85.5042 L713.928 170.932 Q713.928 191.175 721.821 201.36 Q729.715 211.418 745.502 211.418 Q764.471 211.418 775.42 199.323 Q786.497 187.228 786.497 166.349 L786.497 85.5042 L809.923 85.5042 L809.923 228.096 L786.497 228.096 L786.497 206.198 Q777.967 219.184 766.636 225.55 Q755.432 231.788 740.536 231.788 Q715.965 231.788 703.233 216.51 Q690.502 201.233 690.502 171.823 M749.448 82.0667 L749.448 82.0667 Z" fill="#000000" fill-rule="evenodd" fill-opacity="1" /><path clip-path="url(#clip260)" d="M914.447 30.2498 Q897.387 59.5321 889.112 88.1778 Q880.836 116.823 880.836 146.233 Q880.836 175.643 889.112 204.543 Q897.515 233.316 914.447 262.471 L894.077 262.471 Q874.98 232.552 865.431 203.652 Q856.01 174.751 856.01 146.233 Q856.01 117.842 865.431 89.069 Q874.853 60.296 894.077 30.2498 L914.447 30.2498 Z" fill="#000000" fill-rule="evenodd" fill-opacity="1" /><path clip-path="url(#clip260)" d="M1078.43 85.5042 L1026.87 154.89 L1081.1 228.096 L1053.47 228.096 L1011.97 172.078 L970.466 228.096 L942.838 228.096 L998.22 153.49 L947.549 85.5042 L975.176 85.5042 L1012.99 136.303 L1050.8 85.5042 L1078.43 85.5042 Z" fill="#000000" fill-rule="evenodd" fill-opacity="1" /><path clip-path="url(#clip260)" d="M1120.19 195.758 L1147.05 195.758 L1147.05 217.656 L1126.17 258.397 L1109.75 258.397 L1120.19 217.656 L1120.19 195.758 Z" fill="#000000" fill-rule="evenodd" fill-opacity="1" /><path clip-path="url(#clip260)" d="M1303.14 45.0183 L1303.14 85.5042 L1351.39 85.5042 L1351.39 103.71 L1303.14 103.71 L1303.14 181.117 Q1303.14 198.559 1307.85 203.524 Q1312.69 208.49 1327.33 208.49 L1351.39 208.49 L1351.39 228.096 L1327.33 228.096 Q1300.21 228.096 1289.9 218.038 Q1279.58 207.853 1279.58 181.117 L1279.58 103.71 L1262.4 103.71 L1262.4 85.5042 L1279.58 85.5042 L1279.58 45.0183 L1303.14 45.0183 Z" fill="#000000" fill-rule="evenodd" fill-opacity="1" /><path clip-path="url(#clip260)" d="M1385.26 109.694 L1548.47 109.694 L1548.47 131.083 L1385.26 131.083 L1385.26 109.694 M1385.26 161.638 L1548.47 161.638 L1548.47 183.281 L1385.26 183.281 L1385.26 161.638 Z" fill="#000000" fill-rule="evenodd" fill-opacity="1" /><path clip-path="url(#clip260)" d="M1626.13 206.453 L1715.89 206.453 L1715.89 228.096 L1595.2 228.096 L1595.2 206.453 Q1609.84 191.302 1635.05 165.839 Q1660.38 140.249 1666.87 132.865 Q1679.22 118.988 1684.06 109.439 Q1689.03 99.7634 1689.03 90.4694 Q1689.03 75.319 1678.33 65.7705 Q1667.77 56.2219 1650.71 56.2219 Q1638.61 56.2219 1625.11 60.4233 Q1611.75 64.6247 1596.47 73.1547 L1596.47 47.1826 Q1612 40.9442 1625.5 37.7614 Q1638.99 34.5785 1650.2 34.5785 Q1679.73 34.5785 1697.3 49.347 Q1714.87 64.1154 1714.87 88.8143 Q1714.87 100.527 1710.42 111.094 Q1706.09 121.534 1694.5 135.793 Q1691.32 139.485 1674.26 157.182 Q1657.2 174.751 1626.13 206.453 Z" fill="#000000" fill-rule="evenodd" fill-opacity="1" /><path clip-path="url(#clip260)" d="M1769.87 195.758 L1796.73 195.758 L1796.73 228.096 L1769.87 228.096 L1769.87 195.758 Z" fill="#000000" fill-rule="evenodd" fill-opacity="1" /><path clip-path="url(#clip260)" d="M1907.75 54.9488 Q1887.89 54.9488 1877.83 74.5552 Q1867.9 94.0342 1867.9 133.247 Q1867.9 172.332 1877.83 191.939 Q1887.89 211.418 1907.75 211.418 Q1927.74 211.418 1937.67 191.939 Q1947.73 172.332 1947.73 133.247 Q1947.73 94.0342 1937.67 74.5552 Q1927.74 54.9488 1907.75 54.9488 M1907.75 34.5785 Q1939.71 34.5785 1956.51 59.914 Q1973.45 85.1222 1973.45 133.247 Q1973.45 181.244 1956.51 206.58 Q1939.71 231.788 1907.75 231.788 Q1875.8 231.788 1858.86 206.58 Q1842.06 181.244 1842.06 133.247 Q1842.06 85.1222 1858.86 59.914 Q1875.8 34.5785 1907.75 34.5785 Z" fill="#000000" fill-rule="evenodd" fill-opacity="1" /><path clip-path="url(#clip260)" d="M2011.64 30.2498 L2032.01 30.2498 Q2051.11 60.296 2060.53 89.069 Q2070.08 117.842 2070.08 146.233 Q2070.08 174.751 2060.53 203.652 Q2051.11 232.552 2032.01 262.471 L2011.64 262.471 Q2028.57 233.316 2036.85 204.543 Q2045.25 175.643 2045.25 146.233 Q2045.25 116.823 2036.85 88.1778 Q2028.57 59.5321 2011.64 30.2498 Z" fill="#000000" fill-rule="evenodd" fill-opacity="1" /><circle clip-path="url(#clip262)" cx="462.869" cy="1136.84" r="14" fill="#009af9" fill-rule="evenodd" fill-opacity="1" stroke="#000000" stroke-opacity="1" stroke-width="3.2"/>
<circle clip-path="url(#clip262)" cx="520.208" cy="1129.44" r="14" fill="#009af9" fill-rule="evenodd" fill-opacity="1" stroke="#000000" stroke-opacity="1" stroke-width="3.2"/>
<circle clip-path="url(#clip262)" cx="577.547" cy="1107.52" r="14" fill="#009af9" fill-rule="evenodd" fill-opacity="1" stroke="#000000" stroke-opacity="1" stroke-width="3.2"/>
<circle clip-path="url(#clip262)" cx="634.885" cy="1071.93" r="14" fill="#009af9" fill-rule="evenodd" fill-opacity="1" stroke="#000000" stroke-opacity="1" stroke-width="3.2"/>
<circle clip-path="url(#clip262)" cx="692.224" cy="1024.03" r="14" fill="#009af9" fill-rule="evenodd" fill-opacity="1" stroke="#000000" stroke-opacity="1" stroke-width="3.2"/>
<circle clip-path="url(#clip262)" cx="749.563" cy="965.669" r="14" fill="#009af9" fill-rule="evenodd" fill-opacity="1" stroke="#000000" stroke-opacity="1" stroke-width="3.2"/>
<circle clip-path="url(#clip262)" cx="806.902" cy="899.084" r="14" fill="#009af9" fill-rule="evenodd" fill-opacity="1" stroke="#000000" stroke-opacity="1" stroke-width="3.2"/>
<circle clip-path="url(#clip262)" cx="864.241" cy="826.835" r="14" fill="#009af9" fill-rule="evenodd" fill-opacity="1" stroke="#000000" stroke-opacity="1" stroke-width="3.2"/>
<circle clip-path="url(#clip262)" cx="921.579" cy="751.698" r="14" fill="#009af9" fill-rule="evenodd" fill-opacity="1" stroke="#000000" stroke-opacity="1" stroke-width="3.2"/>
<circle clip-path="url(#clip262)" cx="978.918" cy="676.561" r="14" fill="#009af9" fill-rule="evenodd" fill-opacity="1" stroke="#000000" stroke-opacity="1" stroke-width="3.2"/>
<circle clip-path="url(#clip262)" cx="1036.26" cy="604.312" r="14" fill="#009af9" fill-rule="evenodd" fill-opacity="1" stroke="#000000" stroke-opacity="1" stroke-width="3.2"/>
<circle clip-path="url(#clip262)" cx="1093.6" cy="537.726" r="14" fill="#009af9" fill-rule="evenodd" fill-opacity="1" stroke="#000000" stroke-opacity="1" stroke-width="3.2"/>
<circle clip-path="url(#clip262)" cx="1150.93" cy="479.364" r="14" fill="#009af9" fill-rule="evenodd" fill-opacity="1" stroke="#000000" stroke-opacity="1" stroke-width="3.2"/>
<circle clip-path="url(#clip262)" cx="1208.27" cy="431.467" r="14" fill="#009af9" fill-rule="evenodd" fill-opacity="1" stroke="#000000" stroke-opacity="1" stroke-width="3.2"/>
<circle clip-path="url(#clip262)" cx="1265.61" cy="395.876" r="14" fill="#009af9" fill-rule="evenodd" fill-opacity="1" stroke="#000000" stroke-opacity="1" stroke-width="3.2"/>
<circle clip-path="url(#clip262)" cx="1322.95" cy="373.959" r="14" fill="#009af9" fill-rule="evenodd" fill-opacity="1" stroke="#000000" stroke-opacity="1" stroke-width="3.2"/>
<circle clip-path="url(#clip262)" cx="1380.29" cy="366.559" r="14" fill="#009af9" fill-rule="evenodd" fill-opacity="1" stroke="#000000" stroke-opacity="1" stroke-width="3.2"/>
<circle clip-path="url(#clip262)" cx="1437.63" cy="373.959" r="14" fill="#009af9" fill-rule="evenodd" fill-opacity="1" stroke="#000000" stroke-opacity="1" stroke-width="3.2"/>
<circle clip-path="url(#clip262)" cx="1494.97" cy="395.876" r="14" fill="#009af9" fill-rule="evenodd" fill-opacity="1" stroke="#000000" stroke-opacity="1" stroke-width="3.2"/>
<circle clip-path="url(#clip262)" cx="1552.31" cy="431.467" r="14" fill="#009af9" fill-rule="evenodd" fill-opacity="1" stroke="#000000" stroke-opacity="1" stroke-width="3.2"/>
<circle clip-path="url(#clip262)" cx="1609.65" cy="479.364" r="14" fill="#009af9" fill-rule="evenodd" fill-opacity="1" stroke="#000000" stroke-opacity="1" stroke-width="3.2"/>
<circle clip-path="url(#clip262)" cx="1666.98" cy="537.726" r="14" fill="#009af9" fill-rule="evenodd" fill-opacity="1" stroke="#000000" stroke-opacity="1" stroke-width="3.2"/>
<circle clip-path="url(#clip262)" cx="1724.32" cy="604.312" r="14" fill="#009af9" fill-rule="evenodd" fill-opacity="1" stroke="#000000" stroke-opacity="1" stroke-width="3.2"/>
<circle clip-path="url(#clip262)" cx="1781.66" cy="676.561" r="14" fill="#009af9" fill-rule="evenodd" fill-opacity="1" stroke="#000000" stroke-opacity="1" stroke-width="3.2"/>
<circle clip-path="url(#clip262)" cx="1839" cy="751.698" r="14" fill="#009af9" fill-rule="evenodd" fill-opacity="1" stroke="#000000" stroke-opacity="1" stroke-width="3.2"/>
<circle clip-path="url(#clip262)" cx="1896.34" cy="826.835" r="14" fill="#009af9" fill-rule="evenodd" fill-opacity="1" stroke="#000000" stroke-opacity="1" stroke-width="3.2"/>
<circle clip-path="url(#clip262)" cx="1953.68" cy="899.084" r="14" fill="#009af9" fill-rule="evenodd" fill-opacity="1" stroke="#000000" stroke-opacity="1" stroke-width="3.2"/>
<circle clip-path="url(#clip262)" cx="2011.02" cy="965.669" r="14" fill="#009af9" fill-rule="evenodd" fill-opacity="1" stroke="#000000" stroke-opacity="1" stroke-width="3.2"/>
<circle clip-path="url(#clip262)" cx="2068.36" cy="1024.03" r="14" fill="#009af9" fill-rule="evenodd" fill-opacity="1" stroke="#000000" stroke-opacity="1" stroke-width="3.2"/>
<circle clip-path="url(#clip262)" cx="2125.69" cy="1071.93" r="14" fill="#009af9" fill-rule="evenodd" fill-opacity="1" stroke="#000000" stroke-opacity="1" stroke-width="3.2"/>
<circle clip-path="url(#clip262)" cx="2183.03" cy="1107.52" r="14" fill="#009af9" fill-rule="evenodd" fill-opacity="1" stroke="#000000" stroke-opacity="1" stroke-width="3.2"/>
<circle clip-path="url(#clip262)" cx="2240.37" cy="1129.44" r="14" fill="#009af9" fill-rule="evenodd" fill-opacity="1" stroke="#000000" stroke-opacity="1" stroke-width="3.2"/>
<polyline clip-path="url(#clip262)" style="stroke:#e26f46; stroke-linecap:butt; stroke-linejoin:round; stroke-width:8; stroke-opacity:1; fill:none" points="
  462.869,1136.87 467.349,1136.83 471.828,1136.69 476.308,1136.47 480.788,1136.15 522.209,1128.95 563.63,1114.17 605.051,1092.12 646.472,1063.22 671.365,1042.8 
  696.257,1020.27 721.149,995.791 746.042,969.537 788.134,921.649 830.227,870.236 921.675,751.572 1005.98,641.915 1051.18,586.318 1096.37,534.674 1148.73,481.401 
  1201.09,436.795 1224.36,420.141 1247.62,405.591 1270.89,393.236 1294.15,383.155 1334.96,371.152 1375.76,366.567 1420.25,370.121 1464.74,382.514 1509.49,403.607 
  1554.24,432.86 1603.72,473.867 1653.2,522.832 1700.28,575.529 1747.36,632.794 1845.26,759.95 1927.67,866.862 1977.98,928.164 2028.28,984.242 2075.57,1030.71 
  2122.86,1069.87 2160.75,1095.28 2198.63,1114.92 2236.51,1128.45 2274.39,1135.65 2280.22,1136.18 2286.05,1136.57 2291.88,1136.8 2297.71,1136.87 
  "/>
<polyline clip-path="url(#clip262)" style="stroke:#808080; stroke-linecap:butt; stroke-linejoin:round; stroke-width:8; stroke-opacity:1; fill:none" stroke-dasharray="32, 20" points="
  462.869,1222.15 467.349,1222.1 471.828,1221.93 476.308,1221.66 480.788,1221.27 522.209,1212.47 563.63,1194.43 605.051,1167.48 646.472,1132.19 671.365,1107.25 
  696.257,1079.74 721.149,1049.83 746.042,1017.77 788.134,959.276 830.227,896.48 921.675,751.544 1005.98,617.609 1051.18,549.703 1096.37,486.624 1148.73,421.557 
  1201.09,367.075 1224.36,346.734 1247.62,328.962 1270.89,313.872 1294.15,301.559 1334.96,286.898 1375.76,281.298 1420.25,285.639 1464.74,300.776 1509.49,326.539 
  1554.24,362.268 1603.72,412.355 1653.2,472.16 1700.28,536.525 1747.36,606.469 1845.26,761.777 1927.67,892.359 1977.98,967.234 2028.28,1035.73 2075.57,1092.48 
  2122.86,1140.32 2160.75,1171.35 2198.63,1195.33 2236.51,1211.86 2274.39,1220.65 2280.22,1221.31 2286.05,1221.78 2291.88,1222.06 2297.71,1222.15 
  "/>
<path clip-path="url(#clip260)" d="
M1003.42 908.396 L2287.92 908.396 L2287.92 286.316 L1003.42 286.316  Z
  " fill="#ffffff" fill-rule="evenodd" fill-opacity="1"/>
<polyline clip-path="url(#clip260)" style="stroke:#000000; stroke-linecap:butt; stroke-linejoin:round; stroke-width:4; stroke-opacity:1; fill:none" points="
  1003.42,908.396 2287.92,908.396 2287.92,286.316 1003.42,286.316 1003.42,908.396 
  "/>
<circle clip-path="url(#clip260)" cx="1089.87" cy="441.836" r="69" fill="#009af9" fill-rule="evenodd" fill-opacity="1" stroke="#000000" stroke-opacity="1" stroke-width="15.36"/>
<path clip-path="url(#clip260)" d="M1241.45 446.732 L1241.45 493.676 L1228.67 493.676 L1228.67 447.148 Q1228.67 436.107 1224.36 430.62 Q1220.06 425.134 1211.45 425.134 Q1201.1 425.134 1195.13 431.732 Q1189.15 438.329 1189.15 449.718 L1189.15 493.676 L1176.31 493.676 L1176.31 415.898 L1189.15 415.898 L1189.15 427.982 Q1193.74 420.968 1199.92 417.496 Q1206.17 414.023 1214.29 414.023 Q1227.7 414.023 1234.57 422.357 Q1241.45 430.62 1241.45 446.732 Z" fill="#000000" fill-rule="evenodd" fill-opacity="1" /><path clip-path="url(#clip260)" d="M1265.61 462.981 L1265.61 415.898 L1278.39 415.898 L1278.39 462.495 Q1278.39 473.537 1282.7 479.092 Q1287 484.579 1295.61 484.579 Q1305.96 484.579 1311.93 477.981 Q1317.97 471.384 1317.97 459.995 L1317.97 415.898 L1330.75 415.898 L1330.75 493.676 L1317.97 493.676 L1317.97 481.731 Q1313.32 488.815 1307.14 492.287 Q1301.03 495.69 1292.9 495.69 Q1279.5 495.69 1272.56 487.356 Q1265.61 479.023 1265.61 462.981 M1297.76 414.023 L1297.76 414.023 Z" fill="#000000" fill-rule="evenodd" fill-opacity="1" /><path clip-path="url(#clip260)" d="M1417.63 430.829 Q1422.42 422.218 1429.08 418.121 Q1435.75 414.023 1444.78 414.023 Q1456.93 414.023 1463.53 422.565 Q1470.12 431.037 1470.12 446.732 L1470.12 493.676 L1457.28 493.676 L1457.28 447.148 Q1457.28 435.968 1453.32 430.551 Q1449.36 425.134 1441.24 425.134 Q1431.31 425.134 1425.54 431.732 Q1419.78 438.329 1419.78 449.718 L1419.78 493.676 L1406.93 493.676 L1406.93 447.148 Q1406.93 435.898 1402.97 430.551 Q1399.01 425.134 1390.75 425.134 Q1380.96 425.134 1375.19 431.801 Q1369.43 438.398 1369.43 449.718 L1369.43 493.676 L1356.58 493.676 L1356.58 415.898 L1369.43 415.898 L1369.43 427.982 Q1373.81 420.829 1379.92 417.426 Q1386.03 414.023 1394.43 414.023 Q1402.9 414.023 1408.81 418.329 Q1414.78 422.634 1417.63 430.829 Z" fill="#000000" fill-rule="evenodd" fill-opacity="1" /><path clip-path="url(#clip260)" d="M1562.14 451.593 L1562.14 457.843 L1503.39 457.843 Q1504.22 471.037 1511.31 477.981 Q1518.46 484.856 1531.17 484.856 Q1538.53 484.856 1545.4 483.051 Q1552.35 481.245 1559.15 477.634 L1559.15 489.717 Q1552.28 492.634 1545.06 494.162 Q1537.83 495.69 1530.4 495.69 Q1511.79 495.69 1500.89 484.856 Q1490.06 474.023 1490.06 455.551 Q1490.06 436.454 1500.33 425.273 Q1510.68 414.023 1528.18 414.023 Q1543.87 414.023 1552.97 424.162 Q1562.14 434.232 1562.14 451.593 M1549.36 447.843 Q1549.22 437.357 1543.46 431.107 Q1537.76 424.857 1528.32 424.857 Q1517.62 424.857 1511.17 430.898 Q1504.78 436.94 1503.81 447.912 L1549.36 447.843 Z" fill="#000000" fill-rule="evenodd" fill-opacity="1" /><path clip-path="url(#clip260)" d="M1628.18 427.843 Q1626.03 426.593 1623.46 426.037 Q1620.96 425.412 1617.9 425.412 Q1607.07 425.412 1601.24 432.495 Q1595.47 439.509 1595.47 452.704 L1595.47 493.676 L1582.62 493.676 L1582.62 415.898 L1595.47 415.898 L1595.47 427.982 Q1599.5 420.898 1605.96 417.496 Q1612.42 414.023 1621.65 414.023 Q1622.97 414.023 1624.57 414.232 Q1626.17 414.371 1628.11 414.718 L1628.18 427.843 Z" fill="#000000" fill-rule="evenodd" fill-opacity="1" /><path clip-path="url(#clip260)" d="M1641.58 415.898 L1654.36 415.898 L1654.36 493.676 L1641.58 493.676 L1641.58 415.898 M1641.58 385.621 L1654.36 385.621 L1654.36 401.801 L1641.58 401.801 L1641.58 385.621 Z" fill="#000000" fill-rule="evenodd" fill-opacity="1" /><path clip-path="url(#clip260)" d="M1737.07 418.884 L1737.07 430.829 Q1731.65 427.843 1726.17 426.384 Q1720.75 424.857 1715.19 424.857 Q1702.76 424.857 1695.89 432.773 Q1689.01 440.62 1689.01 454.856 Q1689.01 469.093 1695.89 477.009 Q1702.76 484.856 1715.19 484.856 Q1720.75 484.856 1726.17 483.398 Q1731.65 481.87 1737.07 478.884 L1737.07 490.69 Q1731.72 493.19 1725.96 494.44 Q1720.26 495.69 1713.8 495.69 Q1696.23 495.69 1685.89 484.648 Q1675.54 473.606 1675.54 454.856 Q1675.54 435.829 1685.96 424.926 Q1696.44 414.023 1714.64 414.023 Q1720.54 414.023 1726.17 415.273 Q1731.79 416.454 1737.07 418.884 Z" fill="#000000" fill-rule="evenodd" fill-opacity="1" /><path clip-path="url(#clip260)" d="M1794.64 454.579 Q1779.15 454.579 1773.18 458.12 Q1767.21 461.662 1767.21 470.204 Q1767.21 477.009 1771.65 481.037 Q1776.16 484.995 1783.87 484.995 Q1794.5 484.995 1800.89 477.495 Q1807.35 469.926 1807.35 457.426 L1807.35 454.579 L1794.64 454.579 M1820.12 449.301 L1820.12 493.676 L1807.35 493.676 L1807.35 481.87 Q1802.97 488.954 1796.44 492.356 Q1789.91 495.69 1780.47 495.69 Q1768.53 495.69 1761.44 489.023 Q1754.43 482.287 1754.43 471.037 Q1754.43 457.912 1763.18 451.245 Q1772 444.579 1789.43 444.579 L1807.35 444.579 L1807.35 443.329 Q1807.35 434.509 1801.51 429.718 Q1795.75 424.857 1785.26 424.857 Q1778.6 424.857 1772.28 426.454 Q1765.96 428.051 1760.12 431.245 L1760.12 419.44 Q1767.14 416.732 1773.73 415.412 Q1780.33 414.023 1786.58 414.023 Q1803.46 414.023 1811.79 422.773 Q1820.12 431.523 1820.12 449.301 Z" fill="#000000" fill-rule="evenodd" fill-opacity="1" /><path clip-path="url(#clip260)" d="M1846.44 385.621 L1859.22 385.621 L1859.22 493.676 L1846.44 493.676 L1846.44 385.621 Z" fill="#000000" fill-rule="evenodd" fill-opacity="1" /><polyline clip-path="url(#clip260)" style="stroke:#e26f46; stroke-linecap:butt; stroke-linejoin:round; stroke-width:12; stroke-opacity:1; fill:none" points="
  1025.03,597.356 1154.7,597.356 
  "/>
<path clip-path="url(#clip260)" d="M1216.52 610.099 Q1201.03 610.099 1195.06 613.64 Q1189.08 617.182 1189.08 625.724 Q1189.08 632.529 1193.53 636.557 Q1198.04 640.515 1205.75 640.515 Q1216.38 640.515 1222.77 633.015 Q1229.22 625.446 1229.22 612.946 L1229.22 610.099 L1216.52 610.099 M1242 604.821 L1242 649.196 L1229.22 649.196 L1229.22 637.39 Q1224.85 644.474 1218.32 647.876 Q1211.79 651.21 1202.35 651.21 Q1190.4 651.21 1183.32 644.543 Q1176.31 637.807 1176.31 626.557 Q1176.31 613.432 1185.06 606.765 Q1193.88 600.099 1211.31 600.099 L1229.22 600.099 L1229.22 598.849 Q1229.22 590.029 1223.39 585.238 Q1217.63 580.377 1207.14 580.377 Q1200.47 580.377 1194.15 581.974 Q1187.83 583.571 1182 586.765 L1182 574.96 Q1189.02 572.252 1195.61 570.932 Q1202.21 569.543 1208.46 569.543 Q1225.33 569.543 1233.67 578.293 Q1242 587.043 1242 604.821 Z" fill="#000000" fill-rule="evenodd" fill-opacity="1" /><path clip-path="url(#clip260)" d="M1332.97 602.252 L1332.97 649.196 L1320.2 649.196 L1320.2 602.668 Q1320.2 591.627 1315.89 586.14 Q1311.58 580.654 1302.97 580.654 Q1292.63 580.654 1286.65 587.252 Q1280.68 593.849 1280.68 605.238 L1280.68 649.196 L1267.83 649.196 L1267.83 571.418 L1280.68 571.418 L1280.68 583.502 Q1285.26 576.488 1291.45 573.016 Q1297.7 569.543 1305.82 569.543 Q1319.22 569.543 1326.1 577.877 Q1332.97 586.14 1332.97 602.252 Z" fill="#000000" fill-rule="evenodd" fill-opacity="1" /><path clip-path="url(#clip260)" d="M1393.81 610.099 Q1378.32 610.099 1372.35 613.64 Q1366.38 617.182 1366.38 625.724 Q1366.38 632.529 1370.82 636.557 Q1375.33 640.515 1383.04 640.515 Q1393.67 640.515 1400.06 633.015 Q1406.51 625.446 1406.51 612.946 L1406.51 610.099 L1393.81 610.099 M1419.29 604.821 L1419.29 649.196 L1406.51 649.196 L1406.51 637.39 Q1402.14 644.474 1395.61 647.876 Q1389.08 651.21 1379.64 651.21 Q1367.69 651.21 1360.61 644.543 Q1353.6 637.807 1353.6 626.557 Q1353.6 613.432 1362.35 606.765 Q1371.17 600.099 1388.6 600.099 L1406.51 600.099 L1406.51 598.849 Q1406.51 590.029 1400.68 585.238 Q1394.92 580.377 1384.43 580.377 Q1377.76 580.377 1371.44 581.974 Q1365.13 583.571 1359.29 586.765 L1359.29 574.96 Q1366.31 572.252 1372.9 570.932 Q1379.5 569.543 1385.75 569.543 Q1402.63 569.543 1410.96 578.293 Q1419.29 587.043 1419.29 604.821 Z" fill="#000000" fill-rule="evenodd" fill-opacity="1" /><path clip-path="url(#clip260)" d="M1445.61 541.141 L1458.39 541.141 L1458.39 649.196 L1445.61 649.196 L1445.61 541.141 Z" fill="#000000" fill-rule="evenodd" fill-opacity="1" /><path clip-path="url(#clip260)" d="M1517.49 656.418 Q1512.07 670.307 1506.93 674.543 Q1501.79 678.779 1493.18 678.779 L1482.97 678.779 L1482.97 668.085 L1490.47 668.085 Q1495.75 668.085 1498.67 665.585 Q1501.58 663.085 1505.12 653.779 L1507.42 647.946 L1475.96 571.418 L1489.5 571.418 L1513.81 632.251 L1538.11 571.418 L1551.65 571.418 L1517.49 656.418 Z" fill="#000000" fill-rule="evenodd" fill-opacity="1" /><path clip-path="url(#clip260)" d="M1581.93 549.335 L1581.93 571.418 L1608.25 571.418 L1608.25 581.349 L1581.93 581.349 L1581.93 623.571 Q1581.93 633.085 1584.5 635.793 Q1587.14 638.501 1595.12 638.501 L1608.25 638.501 L1608.25 649.196 L1595.12 649.196 Q1580.33 649.196 1574.71 643.71 Q1569.08 638.154 1569.08 623.571 L1569.08 581.349 L1559.71 581.349 L1559.71 571.418 L1569.08 571.418 L1569.08 549.335 L1581.93 549.335 Z" fill="#000000" fill-rule="evenodd" fill-opacity="1" /><path clip-path="url(#clip260)" d="M1625.05 571.418 L1637.83 571.418 L1637.83 649.196 L1625.05 649.196 L1625.05 571.418 M1625.05 541.141 L1637.83 541.141 L1637.83 557.321 L1625.05 557.321 L1625.05 541.141 Z" fill="#000000" fill-rule="evenodd" fill-opacity="1" /><path clip-path="url(#clip260)" d="M1720.54 574.404 L1720.54 586.349 Q1715.12 583.363 1709.64 581.904 Q1704.22 580.377 1698.67 580.377 Q1686.23 580.377 1679.36 588.293 Q1672.48 596.14 1672.48 610.376 Q1672.48 624.613 1679.36 632.529 Q1686.23 640.376 1698.67 640.376 Q1704.22 640.376 1709.64 638.918 Q1715.12 637.39 1720.54 634.404 L1720.54 646.21 Q1715.19 648.71 1709.43 649.96 Q1703.73 651.21 1697.28 651.21 Q1679.71 651.21 1669.36 640.168 Q1659.01 629.126 1659.01 610.376 Q1659.01 591.349 1669.43 580.446 Q1679.92 569.543 1698.11 569.543 Q1704.01 569.543 1709.64 570.793 Q1715.26 571.974 1720.54 574.404 Z" fill="#000000" fill-rule="evenodd" fill-opacity="1" /><path clip-path="url(#clip260)" d="M1778.11 610.099 Q1762.62 610.099 1756.65 613.64 Q1750.68 617.182 1750.68 625.724 Q1750.68 632.529 1755.12 636.557 Q1759.64 640.515 1767.35 640.515 Q1777.97 640.515 1784.36 633.015 Q1790.82 625.446 1790.82 612.946 L1790.82 610.099 L1778.11 610.099 M1803.6 604.821 L1803.6 649.196 L1790.82 649.196 L1790.82 637.39 Q1786.44 644.474 1779.91 647.876 Q1773.39 651.21 1763.94 651.21 Q1752 651.21 1744.92 644.543 Q1737.9 637.807 1737.9 626.557 Q1737.9 613.432 1746.65 606.765 Q1755.47 600.099 1772.9 600.099 L1790.82 600.099 L1790.82 598.849 Q1790.82 590.029 1784.98 585.238 Q1779.22 580.377 1768.73 580.377 Q1762.07 580.377 1755.75 581.974 Q1749.43 583.571 1743.6 586.765 L1743.6 574.96 Q1750.61 572.252 1757.21 570.932 Q1763.8 569.543 1770.05 569.543 Q1786.93 569.543 1795.26 578.293 Q1803.6 587.043 1803.6 604.821 Z" fill="#000000" fill-rule="evenodd" fill-opacity="1" /><path clip-path="url(#clip260)" d="M1829.91 541.141 L1842.69 541.141 L1842.69 649.196 L1829.91 649.196 L1829.91 541.141 Z" fill="#000000" fill-rule="evenodd" fill-opacity="1" /><polyline clip-path="url(#clip260)" style="stroke:#808080; stroke-linecap:butt; stroke-linejoin:round; stroke-width:12; stroke-opacity:1; fill:none" stroke-dasharray="48, 30" points="
  1025.03,752.876 1154.7,752.876 
  "/>
<path clip-path="url(#clip260)" d="M1176.31 726.938 L1189.08 726.938 L1189.08 804.716 L1176.31 804.716 L1176.31 726.938 M1176.31 696.661 L1189.08 696.661 L1189.08 712.841 L1176.31 712.841 L1176.31 696.661 Z" fill="#000000" fill-rule="evenodd" fill-opacity="1" /><path clip-path="url(#clip260)" d="M1280.47 757.772 L1280.47 804.716 L1267.7 804.716 L1267.7 758.188 Q1267.7 747.147 1263.39 741.66 Q1259.08 736.174 1250.47 736.174 Q1240.13 736.174 1234.15 742.772 Q1228.18 749.369 1228.18 760.758 L1228.18 804.716 L1215.33 804.716 L1215.33 726.938 L1228.18 726.938 L1228.18 739.022 Q1232.77 732.008 1238.95 728.536 Q1245.2 725.063 1253.32 725.063 Q1266.72 725.063 1273.6 733.397 Q1280.47 741.66 1280.47 757.772 Z" fill="#000000" fill-rule="evenodd" fill-opacity="1" /><path clip-path="url(#clip260)" d="M1305.96 726.938 L1318.74 726.938 L1318.74 804.716 L1305.96 804.716 L1305.96 726.938 M1305.96 696.661 L1318.74 696.661 L1318.74 712.841 L1305.96 712.841 L1305.96 696.661 Z" fill="#000000" fill-rule="evenodd" fill-opacity="1" /><path clip-path="url(#clip260)" d="M1358.11 704.855 L1358.11 726.938 L1384.43 726.938 L1384.43 736.869 L1358.11 736.869 L1358.11 779.091 Q1358.11 788.605 1360.68 791.313 Q1363.32 794.021 1371.31 794.021 L1384.43 794.021 L1384.43 804.716 L1371.31 804.716 Q1356.51 804.716 1350.89 799.23 Q1345.26 793.674 1345.26 779.091 L1345.26 736.869 L1335.89 736.869 L1335.89 726.938 L1345.26 726.938 L1345.26 704.855 L1358.11 704.855 Z" fill="#000000" fill-rule="evenodd" fill-opacity="1" /><path clip-path="url(#clip260)" d="M1401.24 726.938 L1414.01 726.938 L1414.01 804.716 L1401.24 804.716 L1401.24 726.938 M1401.24 696.661 L1414.01 696.661 L1414.01 712.841 L1401.24 712.841 L1401.24 696.661 Z" fill="#000000" fill-rule="evenodd" fill-opacity="1" /><path clip-path="url(#clip260)" d="M1476.1 765.619 Q1460.61 765.619 1454.64 769.16 Q1448.67 772.702 1448.67 781.244 Q1448.67 788.049 1453.11 792.077 Q1457.63 796.035 1465.33 796.035 Q1475.96 796.035 1482.35 788.535 Q1488.81 780.966 1488.81 768.466 L1488.81 765.619 L1476.1 765.619 M1501.58 760.341 L1501.58 804.716 L1488.81 804.716 L1488.81 792.91 Q1484.43 799.994 1477.9 803.396 Q1471.37 806.73 1461.93 806.73 Q1449.99 806.73 1442.9 800.063 Q1435.89 793.327 1435.89 782.077 Q1435.89 768.952 1444.64 762.285 Q1453.46 755.619 1470.89 755.619 L1488.81 755.619 L1488.81 754.369 Q1488.81 745.549 1482.97 740.758 Q1477.21 735.897 1466.72 735.897 Q1460.06 735.897 1453.74 737.494 Q1447.42 739.091 1441.58 742.285 L1441.58 730.48 Q1448.6 727.772 1455.19 726.452 Q1461.79 725.063 1468.04 725.063 Q1484.92 725.063 1493.25 733.813 Q1501.58 742.563 1501.58 760.341 Z" fill="#000000" fill-rule="evenodd" fill-opacity="1" /><path clip-path="url(#clip260)" d="M1527.9 696.661 L1540.68 696.661 L1540.68 804.716 L1527.9 804.716 L1527.9 696.661 Z" fill="#000000" fill-rule="evenodd" fill-opacity="1" /><path clip-path="url(#clip260)" d="M1668.6 729.924 L1668.6 741.869 Q1663.18 738.883 1657.69 737.424 Q1652.28 735.897 1646.72 735.897 Q1634.29 735.897 1627.42 743.813 Q1620.54 751.66 1620.54 765.896 Q1620.54 780.133 1627.42 788.049 Q1634.29 795.896 1646.72 795.896 Q1652.28 795.896 1657.69 794.438 Q1663.18 792.91 1668.6 789.924 L1668.6 801.73 Q1663.25 804.23 1657.49 805.48 Q1651.79 806.73 1645.33 806.73 Q1627.76 806.73 1617.42 795.688 Q1607.07 784.646 1607.07 765.896 Q1607.07 746.869 1617.49 735.966 Q1627.97 725.063 1646.17 725.063 Q1652.07 725.063 1657.69 726.313 Q1663.32 727.494 1668.6 729.924 Z" fill="#000000" fill-rule="evenodd" fill-opacity="1" /><path clip-path="url(#clip260)" d="M1720.96 735.897 Q1710.68 735.897 1704.71 743.952 Q1698.73 751.938 1698.73 765.896 Q1698.73 779.855 1704.64 787.91 Q1710.61 795.896 1720.96 795.896 Q1731.17 795.896 1737.14 787.841 Q1743.11 779.785 1743.11 765.896 Q1743.11 752.077 1737.14 744.022 Q1731.17 735.897 1720.96 735.897 M1720.96 725.063 Q1737.62 725.063 1747.14 735.897 Q1756.65 746.73 1756.65 765.896 Q1756.65 784.994 1747.14 795.896 Q1737.62 806.73 1720.96 806.73 Q1704.22 806.73 1694.71 795.896 Q1685.26 784.994 1685.26 765.896 Q1685.26 746.73 1694.71 735.897 Q1704.22 725.063 1720.96 725.063 Z" fill="#000000" fill-rule="evenodd" fill-opacity="1" /><path clip-path="url(#clip260)" d="M1842.48 757.772 L1842.48 804.716 L1829.71 804.716 L1829.71 758.188 Q1829.71 747.147 1825.4 741.66 Q1821.1 736.174 1812.48 736.174 Q1802.14 736.174 1796.16 742.772 Q1790.19 749.369 1790.19 760.758 L1790.19 804.716 L1777.35 804.716 L1777.35 726.938 L1790.19 726.938 L1790.19 739.022 Q1794.78 732.008 1800.96 728.536 Q1807.21 725.063 1815.33 725.063 Q1828.73 725.063 1835.61 733.397 Q1842.48 741.66 1842.48 757.772 Z" fill="#000000" fill-rule="evenodd" fill-opacity="1" /><path clip-path="url(#clip260)" d="M1919.15 738.744 L1919.15 696.661 L1931.93 696.661 L1931.93 804.716 L1919.15 804.716 L1919.15 793.049 Q1915.12 799.994 1908.94 803.396 Q1902.83 806.73 1894.22 806.73 Q1880.12 806.73 1871.23 795.48 Q1862.41 784.23 1862.41 765.896 Q1862.41 747.563 1871.23 736.313 Q1880.12 725.063 1894.22 725.063 Q1902.83 725.063 1908.94 728.466 Q1915.12 731.799 1919.15 738.744 M1875.61 765.896 Q1875.61 779.994 1881.37 788.049 Q1887.21 796.035 1897.34 796.035 Q1907.48 796.035 1913.32 788.049 Q1919.15 779.994 1919.15 765.896 Q1919.15 751.799 1913.32 743.813 Q1907.48 735.758 1897.34 735.758 Q1887.21 735.758 1881.37 743.813 Q1875.61 751.799 1875.61 765.896 Z" fill="#000000" fill-rule="evenodd" fill-opacity="1" /><path clip-path="url(#clip260)" d="M1958.25 726.938 L1971.03 726.938 L1971.03 804.716 L1958.25 804.716 L1958.25 726.938 M1958.25 696.661 L1971.03 696.661 L1971.03 712.841 L1958.25 712.841 L1958.25 696.661 Z" fill="#000000" fill-rule="evenodd" fill-opacity="1" /><path clip-path="url(#clip260)" d="M2010.4 704.855 L2010.4 726.938 L2036.72 726.938 L2036.72 736.869 L2010.4 736.869 L2010.4 779.091 Q2010.4 788.605 2012.97 791.313 Q2015.61 794.021 2023.59 794.021 L2036.72 794.021 L2036.72 804.716 L2023.59 804.716 Q2008.8 804.716 2003.18 799.23 Q1997.55 793.674 1997.55 779.091 L1997.55 736.869 L1988.18 736.869 L1988.18 726.938 L1997.55 726.938 L1997.55 704.855 L2010.4 704.855 Z" fill="#000000" fill-rule="evenodd" fill-opacity="1" /><path clip-path="url(#clip260)" d="M2053.52 726.938 L2066.3 726.938 L2066.3 804.716 L2053.52 804.716 L2053.52 726.938 M2053.52 696.661 L2066.3 696.661 L2066.3 712.841 L2053.52 712.841 L2053.52 696.661 Z" fill="#000000" fill-rule="evenodd" fill-opacity="1" /><path clip-path="url(#clip260)" d="M2123.18 735.897 Q2112.9 735.897 2106.93 743.952 Q2100.95 751.938 2100.95 765.896 Q2100.95 779.855 2106.86 787.91 Q2112.83 795.896 2123.18 795.896 Q2133.39 795.896 2139.36 787.841 Q2145.33 779.785 2145.33 765.896 Q2145.33 752.077 2139.36 744.022 Q2133.39 735.897 2123.18 735.897 M2123.18 725.063 Q2139.84 725.063 2149.36 735.897 Q2158.87 746.73 2158.87 765.896 Q2158.87 784.994 2149.36 795.896 Q2139.84 806.73 2123.18 806.73 Q2106.44 806.73 2096.93 795.896 Q2087.48 784.994 2087.48 765.896 Q2087.48 746.73 2096.93 735.897 Q2106.44 725.063 2123.18 725.063 Z" fill="#000000" fill-rule="evenodd" fill-opacity="1" /><path clip-path="url(#clip260)" d="M2244.7 757.772 L2244.7 804.716 L2231.93 804.716 L2231.93 758.188 Q2231.93 747.147 2227.62 741.66 Q2223.32 736.174 2214.7 736.174 Q2204.36 736.174 2198.38 742.772 Q2192.41 749.369 2192.41 760.758 L2192.41 804.716 L2179.57 804.716 L2179.57 726.938 L2192.41 726.938 L2192.41 739.022 Q2197 732.008 2203.18 728.536 Q2209.43 725.063 2217.55 725.063 Q2230.95 725.063 2237.83 733.397 Q2244.7 741.66 2244.7 757.772 Z" fill="#000000" fill-rule="evenodd" fill-opacity="1" /></svg>
