<?xml version="1.0" encoding="utf-8"?>
<svg xmlns="http://www.w3.org/2000/svg" xmlns:xlink="http://www.w3.org/1999/xlink" width="600" height="400" viewBox="0 0 2400 1600">
<defs>
  <clipPath id="clip870">
    <rect x="0" y="0" width="2400" height="1600"/>
  </clipPath>
</defs>
<path clip-path="url(#clip870)" d="
M0 1600 L2400 1600 L2400 0 L0 0  Z
  " fill="#ffffff" fill-rule="evenodd" fill-opacity="1"/>
<defs>
  <clipPath id="clip871">
    <rect x="480" y="0" width="1681" height="1600"/>
  </clipPath>
</defs>
<path clip-path="url(#clip870)" d="
M190.533 1375.66 L2352.76 1375.66 L2352.76 47.2441 L190.533 47.2441  Z
  " fill="#ffffff" fill-rule="evenodd" fill-opacity="1"/>
<defs>
  <clipPath id="clip872">
    <rect x="190" y="47" width="2163" height="1329"/>
  </clipPath>
</defs>
<polyline clip-path="url(#clip872)" style="stroke:#000000; stroke-linecap:butt; stroke-linejoin:round; stroke-width:2; stroke-opacity:0.1; fill:none" points="
  251.728,1375.66 251.728,47.2441 
  "/>
<polyline clip-path="url(#clip872)" style="stroke:#000000; stroke-linecap:butt; stroke-linejoin:round; stroke-width:2; stroke-opacity:0.1; fill:none" points="
  761.686,1375.66 761.686,47.2441 
  "/>
<polyline clip-path="url(#clip872)" style="stroke:#000000; stroke-linecap:butt; stroke-linejoin:round; stroke-width:2; stroke-opacity:0.1; fill:none" points="
  1271.64,1375.66 1271.64,47.2441 
  "/>
<polyline clip-path="url(#clip872)" style="stroke:#000000; stroke-linecap:butt; stroke-linejoin:round; stroke-width:2; stroke-opacity:0.1; fill:none" points="
  1781.6,1375.66 1781.6,47.2441 
  "/>
<polyline clip-path="url(#clip872)" style="stroke:#000000; stroke-linecap:butt; stroke-linejoin:round; stroke-width:2; stroke-opacity:0.1; fill:none" points="
  2291.56,1375.66 2291.56,47.2441 
  "/>
<polyline clip-path="url(#clip870)" style="stroke:#000000; stroke-linecap:butt; stroke-linejoin:round; stroke-width:4; stroke-opacity:1; fill:none" points="
  190.533,1375.66 2352.76,1375.66 
  "/>
<polyline clip-path="url(#clip870)" style="stroke:#000000; stroke-linecap:butt; stroke-linejoin:round; stroke-width:4; stroke-opacity:1; fill:none" points="
  251.728,1375.66 251.728,1356.76 
  "/>
<polyline clip-path="url(#clip870)" style="stroke:#000000; stroke-linecap:butt; stroke-linejoin:round; stroke-width:4; stroke-opacity:1; fill:none" points="
  761.686,1375.66 761.686,1356.76 
  "/>
<polyline clip-path="url(#clip870)" style="stroke:#000000; stroke-linecap:butt; stroke-linejoin:round; stroke-width:4; stroke-opacity:1; fill:none" points="
  1271.64,1375.66 1271.64,1356.76 
  "/>
<polyline clip-path="url(#clip870)" style="stroke:#000000; stroke-linecap:butt; stroke-linejoin:round; stroke-width:4; stroke-opacity:1; fill:none" points="
  1781.6,1375.66 1781.6,1356.76 
  "/>
<polyline clip-path="url(#clip870)" style="stroke:#000000; stroke-linecap:butt; stroke-linejoin:round; stroke-width:4; stroke-opacity:1; fill:none" points="
  2291.56,1375.66 2291.56,1356.76 
  "/>
<path clip-path="url(#clip870)" d="M217.805 1412.44 Q212.388 1412.44 209.645 1417.79 Q206.937 1423.1 206.937 1433.79 Q206.937 1444.45 209.645 1449.8 Q212.388 1455.11 217.805 1455.11 Q223.256 1455.11 225.964 1449.8 Q228.708 1444.45 228.708 1433.79 Q228.708 1423.1 225.964 1417.79 Q223.256 1412.44 217.805 1412.44 M217.805 1406.88 Q226.52 1406.88 231.103 1413.79 Q235.721 1420.67 235.721 1433.79 Q235.721 1446.88 231.103 1453.79 Q226.52 1460.67 217.805 1460.67 Q209.09 1460.67 204.472 1453.79 Q199.888 1446.88 199.888 1433.79 Q199.888 1420.67 204.472 1413.79 Q209.09 1406.88 217.805 1406.88 Z" fill="#000000" fill-rule="evenodd" fill-opacity="1" /><path clip-path="url(#clip870)" d="M248.048 1450.84 L255.374 1450.84 L255.374 1459.66 L248.048 1459.66 L248.048 1450.84 Z" fill="#000000" fill-rule="evenodd" fill-opacity="1" /><path clip-path="url(#clip870)" d="M285.652 1412.44 Q280.235 1412.44 277.492 1417.79 Q274.784 1423.1 274.784 1433.79 Q274.784 1444.45 277.492 1449.8 Q280.235 1455.11 285.652 1455.11 Q291.103 1455.11 293.811 1449.8 Q296.554 1444.45 296.554 1433.79 Q296.554 1423.1 293.811 1417.79 Q291.103 1412.44 285.652 1412.44 M285.652 1406.88 Q294.367 1406.88 298.95 1413.79 Q303.568 1420.67 303.568 1433.79 Q303.568 1446.88 298.95 1453.79 Q294.367 1460.67 285.652 1460.67 Q276.936 1460.67 272.318 1453.79 Q267.735 1446.88 267.735 1433.79 Q267.735 1420.67 272.318 1413.79 Q276.936 1406.88 285.652 1406.88 Z" fill="#000000" fill-rule="evenodd" fill-opacity="1" /><path clip-path="url(#clip870)" d="M728.509 1412.44 Q723.093 1412.44 720.35 1417.79 Q717.641 1423.1 717.641 1433.79 Q717.641 1444.45 720.35 1449.8 Q723.093 1455.11 728.509 1455.11 Q733.961 1455.11 736.669 1449.8 Q739.412 1444.45 739.412 1433.79 Q739.412 1423.1 736.669 1417.79 Q733.961 1412.44 728.509 1412.44 M728.509 1406.88 Q737.225 1406.88 741.808 1413.79 Q746.426 1420.67 746.426 1433.79 Q746.426 1446.88 741.808 1453.79 Q737.225 1460.67 728.509 1460.67 Q719.794 1460.67 715.176 1453.79 Q710.593 1446.88 710.593 1433.79 Q710.593 1420.67 715.176 1413.79 Q719.794 1406.88 728.509 1406.88 Z" fill="#000000" fill-rule="evenodd" fill-opacity="1" /><path clip-path="url(#clip870)" d="M758.752 1450.84 L766.079 1450.84 L766.079 1459.66 L758.752 1459.66 L758.752 1450.84 Z" fill="#000000" fill-rule="evenodd" fill-opacity="1" /><path clip-path="url(#clip870)" d="M781.426 1407.82 L808.96 1407.82 L808.96 1413.72 L787.849 1413.72 L787.849 1426.43 Q789.377 1425.91 790.905 1425.67 Q792.433 1425.39 793.961 1425.39 Q802.641 1425.39 807.71 1430.15 Q812.78 1434.9 812.78 1443.03 Q812.78 1451.4 807.572 1456.05 Q802.363 1460.67 792.884 1460.67 Q789.62 1460.67 786.218 1460.11 Q782.849 1459.56 779.238 1458.44 L779.238 1451.4 Q782.363 1453.1 785.697 1453.93 Q789.03 1454.76 792.745 1454.76 Q798.752 1454.76 802.259 1451.6 Q805.766 1448.44 805.766 1443.03 Q805.766 1437.61 802.259 1434.45 Q798.752 1431.29 792.745 1431.29 Q789.933 1431.29 787.12 1431.92 Q784.343 1432.54 781.426 1433.86 L781.426 1407.82 Z" fill="#000000" fill-rule="evenodd" fill-opacity="1" /><path clip-path="url(#clip870)" d="M1222.37 1453.76 L1233.83 1453.76 L1233.83 1414.21 L1221.37 1416.71 L1221.37 1410.32 L1233.76 1407.82 L1240.78 1407.82 L1240.78 1453.76 L1252.23 1453.76 L1252.23 1459.66 L1222.37 1459.66 L1222.37 1453.76 Z" fill="#000000" fill-rule="evenodd" fill-opacity="1" /><path clip-path="url(#clip870)" d="M1266.4 1450.84 L1273.73 1450.84 L1273.73 1459.66 L1266.4 1459.66 L1266.4 1450.84 Z" fill="#000000" fill-rule="evenodd" fill-opacity="1" /><path clip-path="url(#clip870)" d="M1304.01 1412.44 Q1298.59 1412.44 1295.85 1417.79 Q1293.14 1423.1 1293.14 1433.79 Q1293.14 1444.45 1295.85 1449.8 Q1298.59 1455.11 1304.01 1455.11 Q1309.46 1455.11 1312.17 1449.8 Q1314.91 1444.45 1314.91 1433.79 Q1314.91 1423.1 1312.17 1417.79 Q1309.46 1412.44 1304.01 1412.44 M1304.01 1406.88 Q1312.72 1406.88 1317.3 1413.79 Q1321.92 1420.67 1321.92 1433.79 Q1321.92 1446.88 1317.3 1453.79 Q1312.72 1460.67 1304.01 1460.67 Q1295.29 1460.67 1290.67 1453.79 Q1286.09 1446.88 1286.09 1433.79 Q1286.09 1420.67 1290.67 1413.79 Q1295.29 1406.88 1304.01 1406.88 Z" fill="#000000" fill-rule="evenodd" fill-opacity="1" /><path clip-path="url(#clip870)" d="M1733.08 1453.76 L1744.54 1453.76 L1744.54 1414.21 L1732.07 1416.71 L1732.07 1410.32 L1744.47 1407.82 L1751.48 1407.82 L1751.48 1453.76 L1762.94 1453.76 L1762.94 1459.66 L1733.08 1459.66 L1733.08 1453.76 Z" fill="#000000" fill-rule="evenodd" fill-opacity="1" /><path clip-path="url(#clip870)" d="M1777.11 1450.84 L1784.43 1450.84 L1784.43 1459.66 L1777.11 1459.66 L1777.11 1450.84 Z" fill="#000000" fill-rule="evenodd" fill-opacity="1" /><path clip-path="url(#clip870)" d="M1799.78 1407.82 L1827.31 1407.82 L1827.31 1413.72 L1806.2 1413.72 L1806.2 1426.43 Q1807.73 1425.91 1809.26 1425.67 Q1810.79 1425.39 1812.31 1425.39 Q1820.99 1425.39 1826.06 1430.15 Q1831.13 1434.9 1831.13 1443.03 Q1831.13 1451.4 1825.93 1456.05 Q1820.72 1460.67 1811.24 1460.67 Q1807.97 1460.67 1804.57 1460.11 Q1801.2 1459.56 1797.59 1458.44 L1797.59 1451.4 Q1800.72 1453.1 1804.05 1453.93 Q1807.38 1454.76 1811.1 1454.76 Q1817.11 1454.76 1820.61 1451.6 Q1824.12 1448.44 1824.12 1443.03 Q1824.12 1437.61 1820.61 1434.45 Q1817.11 1431.29 1811.1 1431.29 Q1808.29 1431.29 1805.47 1431.92 Q1802.7 1432.54 1799.78 1433.86 L1799.78 1407.82 Z" fill="#000000" fill-rule="evenodd" fill-opacity="1" /><path clip-path="url(#clip870)" d="M2248.42 1453.76 L2272.9 1453.76 L2272.9 1459.66 L2239.98 1459.66 L2239.98 1453.76 Q2243.97 1449.63 2250.85 1442.68 Q2257.76 1435.7 2259.53 1433.69 Q2262.9 1429.9 2264.22 1427.3 Q2265.57 1424.66 2265.57 1422.13 Q2265.57 1417.99 2262.65 1415.39 Q2259.77 1412.79 2255.12 1412.79 Q2251.82 1412.79 2248.14 1413.93 Q2244.5 1415.08 2240.33 1417.4 L2240.33 1410.32 Q2244.56 1408.62 2248.25 1407.75 Q2251.93 1406.88 2254.98 1406.88 Q2263.04 1406.88 2267.83 1410.91 Q2272.62 1414.94 2272.62 1421.67 Q2272.62 1424.87 2271.4 1427.75 Q2270.22 1430.6 2267.06 1434.49 Q2266.2 1435.49 2261.54 1440.32 Q2256.89 1445.11 2248.42 1453.76 Z" fill="#000000" fill-rule="evenodd" fill-opacity="1" /><path clip-path="url(#clip870)" d="M2287.62 1450.84 L2294.95 1450.84 L2294.95 1459.66 L2287.62 1459.66 L2287.62 1450.84 Z" fill="#000000" fill-rule="evenodd" fill-opacity="1" /><path clip-path="url(#clip870)" d="M2325.22 1412.44 Q2319.81 1412.44 2317.06 1417.79 Q2314.36 1423.1 2314.36 1433.79 Q2314.36 1444.45 2317.06 1449.8 Q2319.81 1455.11 2325.22 1455.11 Q2330.68 1455.11 2333.38 1449.8 Q2336.13 1444.45 2336.13 1433.79 Q2336.13 1423.1 2333.38 1417.79 Q2330.68 1412.44 2325.22 1412.44 M2325.22 1406.88 Q2333.94 1406.88 2338.52 1413.79 Q2343.14 1420.67 2343.14 1433.79 Q2343.14 1446.88 2338.52 1453.79 Q2333.94 1460.67 2325.22 1460.67 Q2316.51 1460.67 2311.89 1453.79 Q2307.31 1446.88 2307.31 1433.79 Q2307.31 1420.67 2311.89 1413.79 Q2316.51 1406.88 2325.22 1406.88 Z" fill="#000000" fill-rule="evenodd" fill-opacity="1" /><path clip-path="url(#clip870)" d="M1270.11 1507.84 L1270.11 1524.4 L1289.85 1524.4 L1289.85 1531.85 L1270.11 1531.85 L1270.11 1563.51 Q1270.11 1570.65 1272.04 1572.68 Q1274.01 1574.71 1280 1574.71 L1289.85 1574.71 L1289.85 1582.73 L1280 1582.73 Q1268.91 1582.73 1264.69 1578.62 Q1260.47 1574.45 1260.47 1563.51 L1260.47 1531.85 L1253.44 1531.85 L1253.44 1524.4 L1260.47 1524.4 L1260.47 1507.84 L1270.11 1507.84 Z" fill="#000000" fill-rule="evenodd" fill-opacity="1" /><polyline clip-path="url(#clip872)" style="stroke:#000000; stroke-linecap:butt; stroke-linejoin:round; stroke-width:2; stroke-opacity:0.1; fill:none" points="
  190.533,1224.78 2352.76,1224.78 
  "/>
<polyline clip-path="url(#clip872)" style="stroke:#000000; stroke-linecap:butt; stroke-linejoin:round; stroke-width:2; stroke-opacity:0.1; fill:none" points="
  190.533,844.798 2352.76,844.798 
  "/>
<polyline clip-path="url(#clip872)" style="stroke:#000000; stroke-linecap:butt; stroke-linejoin:round; stroke-width:2; stroke-opacity:0.1; fill:none" points="
  190.533,464.819 2352.76,464.819 
  "/>
<polyline clip-path="url(#clip872)" style="stroke:#000000; stroke-linecap:butt; stroke-linejoin:round; stroke-width:2; stroke-opacity:0.1; fill:none" points="
  190.533,84.8408 2352.76,84.8408 
  "/>
<polyline clip-path="url(#clip870)" style="stroke:#000000; stroke-linecap:butt; stroke-linejoin:round; stroke-width:4; stroke-opacity:1; fill:none" points="
  190.533,1375.66 190.533,47.2441 
  "/>
<polyline clip-path="url(#clip870)" style="stroke:#000000; stroke-linecap:butt; stroke-linejoin:round; stroke-width:4; stroke-opacity:1; fill:none" points="
  190.533,1224.78 209.431,1224.78 
  "/>
<polyline clip-path="url(#clip870)" style="stroke:#000000; stroke-linecap:butt; stroke-linejoin:round; stroke-width:4; stroke-opacity:1; fill:none" points="
  190.533,844.798 209.431,844.798 
  "/>
<polyline clip-path="url(#clip870)" style="stroke:#000000; stroke-linecap:butt; stroke-linejoin:round; stroke-width:4; stroke-opacity:1; fill:none" points="
  190.533,464.819 209.431,464.819 
  "/>
<polyline clip-path="url(#clip870)" style="stroke:#000000; stroke-linecap:butt; stroke-linejoin:round; stroke-width:4; stroke-opacity:1; fill:none" points="
  190.533,84.8408 209.431,84.8408 
  "/>
<path clip-path="url(#clip870)" d="M70.124 1203.47 Q64.7073 1203.47 61.9643 1208.82 Q59.256 1214.13 59.256 1224.83 Q59.256 1235.49 61.9643 1240.83 Q64.7073 1246.15 70.124 1246.15 Q75.5753 1246.15 78.2836 1240.83 Q81.0267 1235.49 81.0267 1224.83 Q81.0267 1214.13 78.2836 1208.82 Q75.5753 1203.47 70.124 1203.47 M70.124 1197.92 Q78.8392 1197.92 83.4225 1204.83 Q88.0405 1211.7 88.0405 1224.83 Q88.0405 1237.92 83.4225 1244.83 Q78.8392 1251.7 70.124 1251.7 Q61.4087 1251.7 56.7907 1244.83 Q52.2074 1237.92 52.2074 1224.83 Q52.2074 1211.7 56.7907 1204.83 Q61.4087 1197.92 70.124 1197.92 Z" fill="#000000" fill-rule="evenodd" fill-opacity="1" /><path clip-path="url(#clip870)" d="M100.367 1241.88 L107.693 1241.88 L107.693 1250.7 L100.367 1250.7 L100.367 1241.88 Z" fill="#000000" fill-rule="evenodd" fill-opacity="1" /><path clip-path="url(#clip870)" d="M121.2 1198.86 L154.533 1198.86 L154.533 1201.84 L135.714 1250.7 L128.388 1250.7 L146.096 1204.76 L121.2 1204.76 L121.2 1198.86 Z" fill="#000000" fill-rule="evenodd" fill-opacity="1" /><path clip-path="url(#clip870)" d="M68.9087 823.496 Q63.4921 823.496 60.749 828.843 Q58.0407 834.155 58.0407 844.85 Q58.0407 855.509 60.749 860.857 Q63.4921 866.169 68.9087 866.169 Q74.3601 866.169 77.0684 860.857 Q79.8114 855.509 79.8114 844.85 Q79.8114 834.155 77.0684 828.843 Q74.3601 823.496 68.9087 823.496 M68.9087 817.94 Q77.6239 817.94 82.2072 824.85 Q86.8253 831.725 86.8253 844.85 Q86.8253 857.94 82.2072 864.85 Q77.6239 871.725 68.9087 871.725 Q60.1935 871.725 55.5754 864.85 Q50.9921 857.94 50.9921 844.85 Q50.9921 831.725 55.5754 824.85 Q60.1935 817.94 68.9087 817.94 Z" fill="#000000" fill-rule="evenodd" fill-opacity="1" /><path clip-path="url(#clip870)" d="M99.1516 861.898 L106.478 861.898 L106.478 870.718 L99.1516 870.718 L99.1516 861.898 Z" fill="#000000" fill-rule="evenodd" fill-opacity="1" /><path clip-path="url(#clip870)" d="M136.756 846.1 Q131.756 846.1 128.874 848.773 Q126.026 851.447 126.026 856.134 Q126.026 860.822 128.874 863.495 Q131.756 866.169 136.756 866.169 Q141.756 866.169 144.637 863.495 Q147.519 860.787 147.519 856.134 Q147.519 851.447 144.637 848.773 Q141.79 846.1 136.756 846.1 M129.742 843.114 Q125.228 842.002 122.693 838.912 Q120.193 835.822 120.193 831.378 Q120.193 825.162 124.603 821.551 Q129.047 817.94 136.756 817.94 Q144.499 817.94 148.908 821.551 Q153.318 825.162 153.318 831.378 Q153.318 835.822 150.783 838.912 Q148.283 842.002 143.804 843.114 Q148.874 844.294 151.686 847.732 Q154.533 851.169 154.533 856.134 Q154.533 863.669 149.915 867.697 Q145.332 871.725 136.756 871.725 Q128.179 871.725 123.561 867.697 Q118.978 863.669 118.978 856.134 Q118.978 851.169 121.825 847.732 Q124.672 844.294 129.742 843.114 M127.172 832.037 Q127.172 836.065 129.672 838.322 Q132.207 840.579 136.756 840.579 Q141.269 840.579 143.804 838.322 Q146.374 836.065 146.374 832.037 Q146.374 828.01 143.804 825.753 Q141.269 823.496 136.756 823.496 Q132.207 823.496 129.672 825.753 Q127.172 828.01 127.172 832.037 Z" fill="#000000" fill-rule="evenodd" fill-opacity="1" /><path clip-path="url(#clip870)" d="M69.0476 443.517 Q63.6309 443.517 60.8879 448.864 Q58.1796 454.177 58.1796 464.871 Q58.1796 475.531 60.8879 480.878 Q63.6309 486.191 69.0476 486.191 Q74.4989 486.191 77.2073 480.878 Q79.9503 475.531 79.9503 464.871 Q79.9503 454.177 77.2073 448.864 Q74.4989 443.517 69.0476 443.517 M69.0476 437.962 Q77.7628 437.962 82.3461 444.871 Q86.9642 451.746 86.9642 464.871 Q86.9642 477.961 82.3461 484.871 Q77.7628 491.746 69.0476 491.746 Q60.3324 491.746 55.7143 484.871 Q51.131 477.961 51.131 464.871 Q51.131 451.746 55.7143 444.871 Q60.3324 437.962 69.0476 437.962 Z" fill="#000000" fill-rule="evenodd" fill-opacity="1" /><path clip-path="url(#clip870)" d="M99.2905 481.92 L106.617 481.92 L106.617 490.739 L99.2905 490.739 L99.2905 481.92 Z" fill="#000000" fill-rule="evenodd" fill-opacity="1" /><path clip-path="url(#clip870)" d="M122.103 489.663 L122.103 483.274 Q124.742 484.524 127.45 485.184 Q130.158 485.843 132.763 485.843 Q139.707 485.843 143.353 481.191 Q147.033 476.503 147.554 466.989 Q145.54 469.975 142.45 471.573 Q139.36 473.17 135.61 473.17 Q127.832 473.17 123.283 468.482 Q118.77 463.76 118.77 455.6 Q118.77 447.614 123.492 442.788 Q128.214 437.962 136.061 437.962 Q145.054 437.962 149.776 444.871 Q154.533 451.746 154.533 464.871 Q154.533 477.128 148.7 484.455 Q142.901 491.746 133.075 491.746 Q130.436 491.746 127.728 491.225 Q125.02 490.704 122.103 489.663 M136.061 467.684 Q140.783 467.684 143.526 464.455 Q146.304 461.225 146.304 455.6 Q146.304 450.01 143.526 446.781 Q140.783 443.517 136.061 443.517 Q131.339 443.517 128.561 446.781 Q125.818 450.01 125.818 455.6 Q125.818 461.225 128.561 464.455 Q131.339 467.684 136.061 467.684 Z" fill="#000000" fill-rule="evenodd" fill-opacity="1" /><path clip-path="url(#clip870)" d="M54.9852 104.858 L66.4434 104.858 L66.4434 65.3096 L53.9782 67.8096 L53.9782 61.4208 L66.374 58.9208 L73.3878 58.9208 L73.3878 104.858 L84.8461 104.858 L84.8461 110.761 L54.9852 110.761 L54.9852 104.858 Z" fill="#000000" fill-rule="evenodd" fill-opacity="1" /><path clip-path="url(#clip870)" d="M99.0127 101.941 L106.339 101.941 L106.339 110.761 L99.0127 110.761 L99.0127 101.941 Z" fill="#000000" fill-rule="evenodd" fill-opacity="1" /><path clip-path="url(#clip870)" d="M136.617 63.5388 Q131.2 63.5388 128.457 68.886 Q125.749 74.1985 125.749 84.8928 Q125.749 95.5525 128.457 100.9 Q131.2 106.212 136.617 106.212 Q142.068 106.212 144.776 100.9 Q147.519 95.5525 147.519 84.8928 Q147.519 74.1985 144.776 68.886 Q142.068 63.5388 136.617 63.5388 M136.617 57.9833 Q145.332 57.9833 149.915 64.893 Q154.533 71.7679 154.533 84.8928 Q154.533 97.9831 149.915 104.893 Q145.332 111.768 136.617 111.768 Q127.901 111.768 123.283 104.893 Q118.7 97.9831 118.7 84.8928 Q118.7 71.7679 123.283 64.893 Q127.901 57.9833 136.617 57.9833 Z" fill="#000000" fill-rule="evenodd" fill-opacity="1" /><polyline clip-path="url(#clip872)" style="stroke:#009af9; stroke-linecap:butt; stroke-linejoin:round; stroke-width:8; stroke-opacity:1; fill:none" points="
  251.728,84.8408 272.127,100.017 292.525,115.133 312.923,130.188 333.322,145.183 353.72,160.119 374.118,174.994 394.517,189.811 414.915,204.568 435.313,219.266 
  455.711,233.906 476.11,248.486 496.508,263.009 516.906,277.474 537.305,291.881 557.703,306.23 578.101,320.523 598.5,334.758 618.898,348.936 639.296,363.057 
  659.695,377.122 680.093,391.131 700.491,405.084 720.89,418.982 741.288,432.824 761.686,446.61 782.085,460.342 802.483,474.018 822.881,487.64 843.28,501.208 
  863.678,514.721 884.076,528.18 904.475,541.586 924.873,554.938 945.271,568.237 965.67,581.483 986.068,594.675 1006.47,607.816 1026.86,620.903 1047.26,633.938 
  1067.66,646.922 1088.06,659.853 1108.46,672.733 1128.86,685.561 1149.25,698.338 1169.65,711.064 1190.05,723.739 1210.45,736.364 1230.85,748.938 1251.25,761.462 
  1271.64,773.936 1292.04,786.36 1312.44,798.735 1332.84,811.06 1353.24,823.336 1373.64,835.562 1394.03,847.74 1414.43,859.87 1434.83,871.951 1455.23,883.983 
  1475.63,895.968 1496.03,907.904 1516.42,919.794 1536.82,931.635 1557.22,943.429 1577.62,955.176 1598.02,966.877 1618.42,978.53 1638.81,990.137 1659.21,1001.7 
  1679.61,1013.21 1700.01,1024.68 1720.41,1036.1 1740.81,1047.48 1761.2,1058.81 1781.6,1070.1 1802,1081.34 1822.4,1092.54 1842.8,1103.69 1863.2,1114.79 
  1883.59,1125.86 1903.99,1136.88 1924.39,1147.85 1944.79,1158.78 1965.19,1169.67 1985.59,1180.51 2005.98,1191.31 2026.38,1202.07 2046.78,1212.78 2067.18,1223.45 
  2087.58,1234.08 2107.98,1244.67 2128.37,1255.21 2148.77,1265.72 2169.17,1276.18 2189.57,1286.59 2209.97,1296.97 2230.37,1307.3 2250.76,1317.6 2271.16,1327.85 
  2291.56,1338.06 
  "/>
<path clip-path="url(#clip870)" d="
M1798.7 247.045 L2280.68 247.045 L2280.68 91.5246 L1798.7 91.5246  Z
  " fill="#ffffff" fill-rule="evenodd" fill-opacity="1"/>
<polyline clip-path="url(#clip870)" style="stroke:#000000; stroke-linecap:butt; stroke-linejoin:round; stroke-width:4; stroke-opacity:1; fill:none" points="
  1798.7,247.045 2280.68,247.045 2280.68,91.5246 1798.7,91.5246 1798.7,247.045 
  "/>
<polyline clip-path="url(#clip870)" style="stroke:#009af9; stroke-linecap:butt; stroke-linejoin:round; stroke-width:6; stroke-opacity:1; fill:none" points="
  1822.72,169.285 1966.87,169.285 
  "/>
<path clip-path="url(#clip870)" d="M2026.94 174.163 L2026.94 177.288 L1997.56 177.288 Q1997.98 183.885 2001.52 187.357 Q2005.1 190.795 2011.45 190.795 Q2015.13 190.795 2018.57 189.892 Q2022.04 188.989 2025.45 187.184 L2025.45 193.225 Q2022.01 194.684 2018.4 195.448 Q2014.79 196.212 2011.07 196.212 Q2001.77 196.212 1996.31 190.795 Q1990.9 185.378 1990.9 176.142 Q1990.9 166.594 1996.04 161.003 Q2001.21 155.378 2009.96 155.378 Q2017.81 155.378 2022.36 160.448 Q2026.94 165.483 2026.94 174.163 M2020.55 172.288 Q2020.48 167.045 2017.6 163.92 Q2014.75 160.795 2010.03 160.795 Q2004.68 160.795 2001.45 163.816 Q1998.26 166.837 1997.77 172.323 L2020.55 172.288 Z" fill="#000000" fill-rule="evenodd" fill-opacity="1" /><path clip-path="url(#clip870)" d="M2069.75 171.733 L2069.75 195.205 L2063.36 195.205 L2063.36 171.941 Q2063.36 166.42 2061.21 163.677 Q2059.06 160.934 2054.75 160.934 Q2049.58 160.934 2046.59 164.233 Q2043.61 167.531 2043.61 173.226 L2043.61 195.205 L2037.18 195.205 L2037.18 156.316 L2043.61 156.316 L2043.61 162.358 Q2045.9 158.851 2048.99 157.115 Q2052.11 155.378 2056.18 155.378 Q2062.88 155.378 2066.31 159.545 Q2069.75 163.677 2069.75 171.733 Z" fill="#000000" fill-rule="evenodd" fill-opacity="1" /><path clip-path="url(#clip870)" d="M2115.76 174.163 L2115.76 177.288 L2086.38 177.288 Q2086.8 183.885 2090.34 187.357 Q2093.92 190.795 2100.27 190.795 Q2103.95 190.795 2107.39 189.892 Q2110.86 188.989 2114.27 187.184 L2114.27 193.225 Q2110.83 194.684 2107.22 195.448 Q2103.61 196.212 2099.89 196.212 Q2090.58 196.212 2085.13 190.795 Q2079.72 185.378 2079.72 176.142 Q2079.72 166.594 2084.86 161.003 Q2090.03 155.378 2098.78 155.378 Q2106.63 155.378 2111.17 160.448 Q2115.76 165.483 2115.76 174.163 M2109.37 172.288 Q2109.3 167.045 2106.42 163.92 Q2103.57 160.795 2098.85 160.795 Q2093.5 160.795 2090.27 163.816 Q2087.08 166.837 2086.59 172.323 L2109.37 172.288 Z" fill="#000000" fill-rule="evenodd" fill-opacity="1" /><path clip-path="url(#clip870)" d="M2148.78 162.288 Q2147.7 161.663 2146.42 161.385 Q2145.17 161.073 2143.64 161.073 Q2138.22 161.073 2135.31 164.615 Q2132.42 168.121 2132.42 174.719 L2132.42 195.205 L2126 195.205 L2126 156.316 L2132.42 156.316 L2132.42 162.358 Q2134.44 158.816 2137.67 157.115 Q2140.9 155.378 2145.51 155.378 Q2146.17 155.378 2146.97 155.483 Q2147.77 155.552 2148.74 155.726 L2148.78 162.288 Z" fill="#000000" fill-rule="evenodd" fill-opacity="1" /><path clip-path="url(#clip870)" d="M2179.82 175.309 Q2179.82 168.364 2176.94 164.545 Q2174.09 160.726 2168.92 160.726 Q2163.78 160.726 2160.9 164.545 Q2158.05 168.364 2158.05 175.309 Q2158.05 182.219 2160.9 186.038 Q2163.78 189.857 2168.92 189.857 Q2174.09 189.857 2176.94 186.038 Q2179.82 182.219 2179.82 175.309 M2186.21 190.378 Q2186.21 200.309 2181.8 205.135 Q2177.39 209.996 2168.29 209.996 Q2164.92 209.996 2161.94 209.475 Q2158.95 208.989 2156.14 207.948 L2156.14 201.732 Q2158.95 203.26 2161.7 203.989 Q2164.44 204.718 2167.29 204.718 Q2173.57 204.718 2176.7 201.42 Q2179.82 198.156 2179.82 191.524 L2179.82 188.364 Q2177.84 191.802 2174.75 193.503 Q2171.66 195.205 2167.35 195.205 Q2160.2 195.205 2155.83 189.753 Q2151.45 184.302 2151.45 175.309 Q2151.45 166.281 2155.83 160.83 Q2160.2 155.378 2167.35 155.378 Q2171.66 155.378 2174.75 157.08 Q2177.84 158.781 2179.82 162.219 L2179.82 156.316 L2186.21 156.316 L2186.21 190.378 Z" fill="#000000" fill-rule="evenodd" fill-opacity="1" /><path clip-path="url(#clip870)" d="M2215.55 198.816 Q2212.84 205.76 2210.27 207.878 Q2207.7 209.996 2203.4 209.996 L2198.29 209.996 L2198.29 204.649 L2202.04 204.649 Q2204.68 204.649 2206.14 203.399 Q2207.6 202.149 2209.37 197.496 L2210.51 194.58 L2194.79 156.316 L2201.56 156.316 L2213.71 186.732 L2225.86 156.316 L2232.63 156.316 L2215.55 198.816 Z" fill="#000000" fill-rule="evenodd" fill-opacity="1" /></svg>
