<?xml version="1.0" encoding="utf-8"?>
<svg xmlns="http://www.w3.org/2000/svg" xmlns:xlink="http://www.w3.org/1999/xlink" width="600" height="400" viewBox="0 0 2400 1600">
<defs>
  <clipPath id="clip930">
    <rect x="0" y="0" width="2400" height="1600"/>
  </clipPath>
</defs>
<path clip-path="url(#clip930)" d="
M0 1600 L2400 1600 L2400 0 L0 0  Z
  " fill="#ffffff" fill-rule="evenodd" fill-opacity="1"/>
<defs>
  <clipPath id="clip931">
    <rect x="480" y="0" width="1681" height="1600"/>
  </clipPath>
</defs>
<path clip-path="url(#clip930)" d="
M344.065 1345.42 L2352.76 1345.42 L2352.76 47.2441 L344.065 47.2441  Z
  " fill="#ffffff" fill-rule="evenodd" fill-opacity="1"/>
<defs>
  <clipPath id="clip932">
    <rect x="344" y="47" width="2010" height="1299"/>
  </clipPath>
</defs>
<polyline clip-path="url(#clip932)" style="stroke:#000000; stroke-linecap:butt; stroke-linejoin:round; stroke-width:2; stroke-opacity:0.1; fill:none" points="
  435.37,1345.42 435.37,47.2441 
  "/>
<polyline clip-path="url(#clip932)" style="stroke:#000000; stroke-linecap:butt; stroke-linejoin:round; stroke-width:2; stroke-opacity:0.1; fill:none" points="
  617.978,1345.42 617.978,47.2441 
  "/>
<polyline clip-path="url(#clip932)" style="stroke:#000000; stroke-linecap:butt; stroke-linejoin:round; stroke-width:2; stroke-opacity:0.1; fill:none" points="
  800.586,1345.42 800.586,47.2441 
  "/>
<polyline clip-path="url(#clip932)" style="stroke:#000000; stroke-linecap:butt; stroke-linejoin:round; stroke-width:2; stroke-opacity:0.1; fill:none" points="
  983.194,1345.42 983.194,47.2441 
  "/>
<polyline clip-path="url(#clip932)" style="stroke:#000000; stroke-linecap:butt; stroke-linejoin:round; stroke-width:2; stroke-opacity:0.1; fill:none" points="
  1165.8,1345.42 1165.8,47.2441 
  "/>
<polyline clip-path="url(#clip932)" style="stroke:#000000; stroke-linecap:butt; stroke-linejoin:round; stroke-width:2; stroke-opacity:0.1; fill:none" points="
  1348.41,1345.42 1348.41,47.2441 
  "/>
<polyline clip-path="url(#clip932)" style="stroke:#000000; stroke-linecap:butt; stroke-linejoin:round; stroke-width:2; stroke-opacity:0.1; fill:none" points="
  1531.02,1345.42 1531.02,47.2441 
  "/>
<polyline clip-path="url(#clip932)" style="stroke:#000000; stroke-linecap:butt; stroke-linejoin:round; stroke-width:2; stroke-opacity:0.1; fill:none" points="
  1713.63,1345.42 1713.63,47.2441 
  "/>
<polyline clip-path="url(#clip932)" style="stroke:#000000; stroke-linecap:butt; stroke-linejoin:round; stroke-width:2; stroke-opacity:0.1; fill:none" points="
  1896.24,1345.42 1896.24,47.2441 
  "/>
<polyline clip-path="url(#clip932)" style="stroke:#000000; stroke-linecap:butt; stroke-linejoin:round; stroke-width:2; stroke-opacity:0.1; fill:none" points="
  2078.84,1345.42 2078.84,47.2441 
  "/>
<polyline clip-path="url(#clip932)" style="stroke:#000000; stroke-linecap:butt; stroke-linejoin:round; stroke-width:2; stroke-opacity:0.1; fill:none" points="
  2261.45,1345.42 2261.45,47.2441 
  "/>
<polyline clip-path="url(#clip930)" style="stroke:#000000; stroke-linecap:butt; stroke-linejoin:round; stroke-width:4; stroke-opacity:1; fill:none" points="
  344.065,1345.42 2352.76,1345.42 
  "/>
<polyline clip-path="url(#clip930)" style="stroke:#000000; stroke-linecap:butt; stroke-linejoin:round; stroke-width:4; stroke-opacity:1; fill:none" points="
  435.37,1345.42 435.37,1326.52 
  "/>
<polyline clip-path="url(#clip930)" style="stroke:#000000; stroke-linecap:butt; stroke-linejoin:round; stroke-width:4; stroke-opacity:1; fill:none" points="
  617.978,1345.42 617.978,1326.52 
  "/>
<polyline clip-path="url(#clip930)" style="stroke:#000000; stroke-linecap:butt; stroke-linejoin:round; stroke-width:4; stroke-opacity:1; fill:none" points="
  800.586,1345.42 800.586,1326.52 
  "/>
<polyline clip-path="url(#clip930)" style="stroke:#000000; stroke-linecap:butt; stroke-linejoin:round; stroke-width:4; stroke-opacity:1; fill:none" points="
  983.194,1345.42 983.194,1326.52 
  "/>
<polyline clip-path="url(#clip930)" style="stroke:#000000; stroke-linecap:butt; stroke-linejoin:round; stroke-width:4; stroke-opacity:1; fill:none" points="
  1165.8,1345.42 1165.8,1326.52 
  "/>
<polyline clip-path="url(#clip930)" style="stroke:#000000; stroke-linecap:butt; stroke-linejoin:round; stroke-width:4; stroke-opacity:1; fill:none" points="
  1348.41,1345.42 1348.41,1326.52 
  "/>
<polyline clip-path="url(#clip930)" style="stroke:#000000; stroke-linecap:butt; stroke-linejoin:round; stroke-width:4; stroke-opacity:1; fill:none" points="
  1531.02,1345.42 1531.02,1326.52 
  "/>
<polyline clip-path="url(#clip930)" style="stroke:#000000; stroke-linecap:butt; stroke-linejoin:round; stroke-width:4; stroke-opacity:1; fill:none" points="
  1713.63,1345.42 1713.63,1326.52 
  "/>
<polyline clip-path="url(#clip930)" style="stroke:#000000; stroke-linecap:butt; stroke-linejoin:round; stroke-width:4; stroke-opacity:1; fill:none" points="
  1896.24,1345.42 1896.24,1326.52 
  "/>
<polyline clip-path="url(#clip930)" style="stroke:#000000; stroke-linecap:butt; stroke-linejoin:round; stroke-width:4; stroke-opacity:1; fill:none" points="
  2078.84,1345.42 2078.84,1326.52 
  "/>
<polyline clip-path="url(#clip930)" style="stroke:#000000; stroke-linecap:butt; stroke-linejoin:round; stroke-width:4; stroke-opacity:1; fill:none" points="
  2261.45,1345.42 2261.45,1326.52 
  "/>
<path clip-path="url(#clip930)" d="M435.37 1386.59 Q428.599 1386.59 425.17 1393.28 Q421.785 1399.92 421.785 1413.28 Q421.785 1426.61 425.17 1433.29 Q428.599 1439.93 435.37 1439.93 Q442.184 1439.93 445.569 1433.29 Q448.998 1426.61 448.998 1413.28 Q448.998 1399.92 445.569 1393.28 Q442.184 1386.59 435.37 1386.59 M435.37 1379.65 Q446.264 1379.65 451.993 1388.29 Q457.765 1396.88 457.765 1413.28 Q457.765 1429.65 451.993 1438.28 Q446.264 1446.88 435.37 1446.88 Q424.475 1446.88 418.703 1438.28 Q412.974 1429.65 412.974 1413.28 Q412.974 1396.88 418.703 1388.29 Q424.475 1379.65 435.37 1379.65 Z" fill="#000000" fill-rule="evenodd" fill-opacity="1" /><path clip-path="url(#clip930)" d="M599.944 1438.24 L614.267 1438.24 L614.267 1388.81 L598.685 1391.93 L598.685 1383.94 L614.18 1380.82 L622.947 1380.82 L622.947 1438.24 L637.27 1438.24 L637.27 1445.62 L599.944 1445.62 L599.944 1438.24 Z" fill="#000000" fill-rule="evenodd" fill-opacity="1" /><path clip-path="url(#clip930)" d="M790.56 1438.24 L821.159 1438.24 L821.159 1445.62 L780.013 1445.62 L780.013 1438.24 Q785.004 1433.08 793.598 1424.4 Q802.235 1415.67 804.449 1413.15 Q808.659 1408.42 810.308 1405.17 Q812.001 1401.87 812.001 1398.7 Q812.001 1393.54 808.355 1390.28 Q804.753 1387.03 798.937 1387.03 Q794.813 1387.03 790.213 1388.46 Q785.655 1389.89 780.447 1392.8 L780.447 1383.94 Q785.742 1381.82 790.343 1380.73 Q794.944 1379.65 798.763 1379.65 Q808.832 1379.65 814.822 1384.68 Q820.812 1389.72 820.812 1398.14 Q820.812 1402.13 819.292 1405.73 Q817.817 1409.29 813.867 1414.15 Q812.782 1415.41 806.966 1421.44 Q801.15 1427.43 790.56 1438.24 Z" fill="#000000" fill-rule="evenodd" fill-opacity="1" /><path clip-path="url(#clip930)" d="M991.159 1410.68 Q997.452 1412.03 1000.97 1416.28 Q1004.53 1420.53 1004.53 1426.78 Q1004.53 1436.38 997.929 1441.63 Q991.332 1446.88 979.179 1446.88 Q975.1 1446.88 970.759 1446.05 Q966.463 1445.27 961.862 1443.67 L961.862 1435.2 Q965.508 1437.33 969.848 1438.42 Q974.188 1439.5 978.919 1439.5 Q987.166 1439.5 991.462 1436.24 Q995.803 1432.99 995.803 1426.78 Q995.803 1421.05 991.766 1417.84 Q987.773 1414.59 980.612 1414.59 L973.06 1414.59 L973.06 1407.38 L980.959 1407.38 Q987.426 1407.38 990.855 1404.82 Q994.284 1402.22 994.284 1397.36 Q994.284 1392.36 990.725 1389.72 Q987.209 1387.03 980.612 1387.03 Q977.009 1387.03 972.886 1387.81 Q968.763 1388.59 963.815 1390.24 L963.815 1382.43 Q968.806 1381.04 973.147 1380.34 Q977.53 1379.65 981.393 1379.65 Q991.376 1379.65 997.192 1384.21 Q1003.01 1388.72 1003.01 1396.44 Q1003.01 1401.83 999.926 1405.56 Q996.844 1409.25 991.159 1410.68 Z" fill="#000000" fill-rule="evenodd" fill-opacity="1" /><path clip-path="url(#clip930)" d="M1171.44 1388.46 L1149.31 1423.05 L1171.44 1423.05 L1171.44 1388.46 M1169.14 1380.82 L1180.17 1380.82 L1180.17 1423.05 L1189.41 1423.05 L1189.41 1430.34 L1180.17 1430.34 L1180.17 1445.62 L1171.44 1445.62 L1171.44 1430.34 L1142.19 1430.34 L1142.19 1421.88 L1169.14 1380.82 Z" fill="#000000" fill-rule="evenodd" fill-opacity="1" /><path clip-path="url(#clip930)" d="M1330.18 1380.82 L1364.6 1380.82 L1364.6 1388.2 L1338.21 1388.2 L1338.21 1404.08 Q1340.12 1403.43 1342.03 1403.13 Q1343.94 1402.78 1345.85 1402.78 Q1356.7 1402.78 1363.04 1408.73 Q1369.37 1414.67 1369.37 1424.83 Q1369.37 1435.29 1362.86 1441.11 Q1356.35 1446.88 1344.5 1446.88 Q1340.42 1446.88 1336.17 1446.18 Q1331.96 1445.49 1327.45 1444.1 L1327.45 1435.29 Q1331.35 1437.42 1335.52 1438.46 Q1339.69 1439.5 1344.33 1439.5 Q1351.84 1439.5 1356.22 1435.55 Q1360.61 1431.6 1360.61 1424.83 Q1360.61 1418.06 1356.22 1414.11 Q1351.84 1410.16 1344.33 1410.16 Q1340.82 1410.16 1337.3 1410.94 Q1333.83 1411.72 1330.18 1413.37 L1330.18 1380.82 Z" fill="#000000" fill-rule="evenodd" fill-opacity="1" /><path clip-path="url(#clip930)" d="M1531.78 1409.73 Q1525.88 1409.73 1522.4 1413.76 Q1518.97 1417.8 1518.97 1424.83 Q1518.97 1431.82 1522.4 1435.9 Q1525.88 1439.93 1531.78 1439.93 Q1537.68 1439.93 1541.11 1435.9 Q1544.58 1431.82 1544.58 1424.83 Q1544.58 1417.8 1541.11 1413.76 Q1537.68 1409.73 1531.78 1409.73 M1549.18 1382.25 L1549.18 1390.24 Q1545.88 1388.68 1542.5 1387.85 Q1539.16 1387.03 1535.86 1387.03 Q1527.18 1387.03 1522.58 1392.89 Q1518.02 1398.75 1517.37 1410.59 Q1519.93 1406.82 1523.79 1404.82 Q1527.66 1402.78 1532.3 1402.78 Q1542.06 1402.78 1547.71 1408.73 Q1553.39 1414.63 1553.39 1424.83 Q1553.39 1434.81 1547.49 1440.85 Q1541.59 1446.88 1531.78 1446.88 Q1520.54 1446.88 1514.59 1438.28 Q1508.64 1429.65 1508.64 1413.28 Q1508.64 1397.92 1515.94 1388.81 Q1523.23 1379.65 1535.51 1379.65 Q1538.81 1379.65 1542.15 1380.3 Q1545.54 1380.95 1549.18 1382.25 Z" fill="#000000" fill-rule="evenodd" fill-opacity="1" /><path clip-path="url(#clip930)" d="M1692.79 1380.82 L1734.46 1380.82 L1734.46 1384.55 L1710.94 1445.62 L1701.78 1445.62 L1723.91 1388.2 L1692.79 1388.2 L1692.79 1380.82 Z" fill="#000000" fill-rule="evenodd" fill-opacity="1" /><path clip-path="url(#clip930)" d="M1896.24 1414.85 Q1889.99 1414.85 1886.38 1418.19 Q1882.82 1421.53 1882.82 1427.39 Q1882.82 1433.25 1886.38 1436.59 Q1889.99 1439.93 1896.24 1439.93 Q1902.49 1439.93 1906.09 1436.59 Q1909.69 1433.21 1909.69 1427.39 Q1909.69 1421.53 1906.09 1418.19 Q1902.53 1414.85 1896.24 1414.85 M1887.47 1411.11 Q1881.83 1409.73 1878.66 1405.86 Q1875.53 1402 1875.53 1396.44 Q1875.53 1388.68 1881.04 1384.16 Q1886.6 1379.65 1896.24 1379.65 Q1905.91 1379.65 1911.43 1384.16 Q1916.94 1388.68 1916.94 1396.44 Q1916.94 1402 1913.77 1405.86 Q1910.64 1409.73 1905.05 1411.11 Q1911.38 1412.59 1914.9 1416.89 Q1918.46 1421.18 1918.46 1427.39 Q1918.46 1436.81 1912.68 1441.84 Q1906.96 1446.88 1896.24 1446.88 Q1885.51 1446.88 1879.74 1441.84 Q1874.01 1436.81 1874.01 1427.39 Q1874.01 1421.18 1877.57 1416.89 Q1881.13 1412.59 1887.47 1411.11 M1884.26 1397.27 Q1884.26 1402.3 1887.38 1405.13 Q1890.55 1407.95 1896.24 1407.95 Q1901.88 1407.95 1905.05 1405.13 Q1908.26 1402.3 1908.26 1397.27 Q1908.26 1392.23 1905.05 1389.41 Q1901.88 1386.59 1896.24 1386.59 Q1890.55 1386.59 1887.38 1389.41 Q1884.26 1392.23 1884.26 1397.27 Z" fill="#000000" fill-rule="evenodd" fill-opacity="1" /><path clip-path="url(#clip930)" d="M2060.66 1444.27 L2060.66 1436.29 Q2063.96 1437.85 2067.34 1438.68 Q2070.73 1439.5 2073.98 1439.5 Q2082.66 1439.5 2087.22 1433.68 Q2091.82 1427.82 2092.47 1415.93 Q2089.95 1419.67 2086.09 1421.66 Q2082.23 1423.66 2077.54 1423.66 Q2067.82 1423.66 2062.13 1417.8 Q2056.49 1411.9 2056.49 1401.7 Q2056.49 1391.71 2062.39 1385.68 Q2068.3 1379.65 2078.11 1379.65 Q2089.35 1379.65 2095.25 1388.29 Q2101.2 1396.88 2101.2 1413.28 Q2101.2 1428.61 2093.9 1437.76 Q2086.66 1446.88 2074.37 1446.88 Q2071.07 1446.88 2067.69 1446.23 Q2064.3 1445.58 2060.66 1444.27 M2078.11 1416.8 Q2084.01 1416.8 2087.44 1412.76 Q2090.91 1408.73 2090.91 1401.7 Q2090.91 1394.71 2087.44 1390.67 Q2084.01 1386.59 2078.11 1386.59 Q2072.2 1386.59 2068.73 1390.67 Q2065.3 1394.71 2065.3 1401.7 Q2065.3 1408.73 2068.73 1412.76 Q2072.2 1416.8 2078.11 1416.8 Z" fill="#000000" fill-rule="evenodd" fill-opacity="1" /><path clip-path="url(#clip930)" d="M2213.99 1438.24 L2228.31 1438.24 L2228.31 1388.81 L2212.73 1391.93 L2212.73 1383.94 L2228.23 1380.82 L2236.99 1380.82 L2236.99 1438.24 L2251.32 1438.24 L2251.32 1445.62 L2213.99 1445.62 L2213.99 1438.24 Z" fill="#000000" fill-rule="evenodd" fill-opacity="1" /><path clip-path="url(#clip930)" d="M2287.78 1386.59 Q2281 1386.59 2277.58 1393.28 Q2274.19 1399.92 2274.19 1413.28 Q2274.19 1426.61 2277.58 1433.29 Q2281 1439.93 2287.78 1439.93 Q2294.59 1439.93 2297.98 1433.29 Q2301.4 1426.61 2301.4 1413.28 Q2301.4 1399.92 2297.98 1393.28 Q2294.59 1386.59 2287.78 1386.59 M2287.78 1379.65 Q2298.67 1379.65 2304.4 1388.29 Q2310.17 1396.88 2310.17 1413.28 Q2310.17 1429.65 2304.4 1438.28 Q2298.67 1446.88 2287.78 1446.88 Q2276.88 1446.88 2271.11 1438.28 Q2265.38 1429.65 2265.38 1413.28 Q2265.38 1396.88 2271.11 1388.29 Q2276.88 1379.65 2287.78 1379.65 Z" fill="#000000" fill-rule="evenodd" fill-opacity="1" /><path clip-path="url(#clip930)" d="M1316.77 1493.62 L1328.55 1493.62 L1328.55 1552.12 L1363.5 1521.37 L1378.46 1521.37 L1340.64 1554.73 L1380.05 1592.67 L1364.77 1592.67 L1328.55 1557.85 L1328.55 1592.67 L1316.77 1592.67 L1316.77 1493.62 Z" fill="#000000" fill-rule="evenodd" fill-opacity="1" /><polyline clip-path="url(#clip932)" style="stroke:#000000; stroke-linecap:butt; stroke-linejoin:round; stroke-width:2; stroke-opacity:0.1; fill:none" points="
  344.065,1286.41 2352.76,1286.41 
  "/>
<polyline clip-path="url(#clip932)" style="stroke:#000000; stroke-linecap:butt; stroke-linejoin:round; stroke-width:2; stroke-opacity:0.1; fill:none" points="
  344.065,991.372 2352.76,991.372 
  "/>
<polyline clip-path="url(#clip932)" style="stroke:#000000; stroke-linecap:butt; stroke-linejoin:round; stroke-width:2; stroke-opacity:0.1; fill:none" points="
  344.065,696.332 2352.76,696.332 
  "/>
<polyline clip-path="url(#clip932)" style="stroke:#000000; stroke-linecap:butt; stroke-linejoin:round; stroke-width:2; stroke-opacity:0.1; fill:none" points="
  344.065,401.292 2352.76,401.292 
  "/>
<polyline clip-path="url(#clip932)" style="stroke:#000000; stroke-linecap:butt; stroke-linejoin:round; stroke-width:2; stroke-opacity:0.1; fill:none" points="
  344.065,106.252 2352.76,106.252 
  "/>
<polyline clip-path="url(#clip930)" style="stroke:#000000; stroke-linecap:butt; stroke-linejoin:round; stroke-width:4; stroke-opacity:1; fill:none" points="
  344.065,1345.42 344.065,47.2441 
  "/>
<polyline clip-path="url(#clip930)" style="stroke:#000000; stroke-linecap:butt; stroke-linejoin:round; stroke-width:4; stroke-opacity:1; fill:none" points="
  344.065,1286.41 362.963,1286.41 
  "/>
<polyline clip-path="url(#clip930)" style="stroke:#000000; stroke-linecap:butt; stroke-linejoin:round; stroke-width:4; stroke-opacity:1; fill:none" points="
  344.065,991.372 362.963,991.372 
  "/>
<polyline clip-path="url(#clip930)" style="stroke:#000000; stroke-linecap:butt; stroke-linejoin:round; stroke-width:4; stroke-opacity:1; fill:none" points="
  344.065,696.332 362.963,696.332 
  "/>
<polyline clip-path="url(#clip930)" style="stroke:#000000; stroke-linecap:butt; stroke-linejoin:round; stroke-width:4; stroke-opacity:1; fill:none" points="
  344.065,401.292 362.963,401.292 
  "/>
<polyline clip-path="url(#clip930)" style="stroke:#000000; stroke-linecap:butt; stroke-linejoin:round; stroke-width:4; stroke-opacity:1; fill:none" points="
  344.065,106.252 362.963,106.252 
  "/>
<path clip-path="url(#clip930)" d="M50.9921 1287.26 L106.634 1287.26 L106.634 1294.64 L50.9921 1294.64 L50.9921 1287.26 Z" fill="#000000" fill-rule="evenodd" fill-opacity="1" /><path clip-path="url(#clip930)" d="M144.308 1259.78 Q137.537 1259.78 134.108 1266.47 Q130.723 1273.11 130.723 1286.48 Q130.723 1299.8 134.108 1306.49 Q137.537 1313.13 144.308 1313.13 Q151.122 1313.13 154.507 1306.49 Q157.936 1299.8 157.936 1286.48 Q157.936 1273.11 154.507 1266.47 Q151.122 1259.78 144.308 1259.78 M144.308 1252.84 Q155.202 1252.84 160.931 1261.48 Q166.703 1270.07 166.703 1286.48 Q166.703 1302.84 160.931 1311.48 Q155.202 1320.07 144.308 1320.07 Q133.414 1320.07 127.641 1311.48 Q121.912 1302.84 121.912 1286.48 Q121.912 1270.07 127.641 1261.48 Q133.414 1252.84 144.308 1252.84 Z" fill="#000000" fill-rule="evenodd" fill-opacity="1" /><path clip-path="url(#clip930)" d="M182.111 1307.79 L191.269 1307.79 L191.269 1318.81 L182.111 1318.81 L182.111 1307.79 Z" fill="#000000" fill-rule="evenodd" fill-opacity="1" /><path clip-path="url(#clip930)" d="M210.453 1254.01 L244.871 1254.01 L244.871 1261.39 L218.483 1261.39 L218.483 1277.28 Q220.392 1276.62 222.302 1276.32 Q224.212 1275.97 226.121 1275.97 Q236.972 1275.97 243.309 1281.92 Q249.646 1287.87 249.646 1298.02 Q249.646 1308.48 243.135 1314.3 Q236.625 1320.07 224.776 1320.07 Q220.696 1320.07 216.443 1319.38 Q212.233 1318.68 207.719 1317.29 L207.719 1308.48 Q211.625 1310.61 215.792 1311.65 Q219.958 1312.69 224.602 1312.69 Q232.111 1312.69 236.495 1308.74 Q240.878 1304.79 240.878 1298.02 Q240.878 1291.25 236.495 1287.3 Q232.111 1283.35 224.602 1283.35 Q221.087 1283.35 217.571 1284.13 Q214.099 1284.91 210.453 1286.56 L210.453 1254.01 Z" fill="#000000" fill-rule="evenodd" fill-opacity="1" /><path clip-path="url(#clip930)" d="M285.67 1259.78 Q278.899 1259.78 275.47 1266.47 Q272.085 1273.11 272.085 1286.48 Q272.085 1299.8 275.47 1306.49 Q278.899 1313.13 285.67 1313.13 Q292.484 1313.13 295.869 1306.49 Q299.298 1299.8 299.298 1286.48 Q299.298 1273.11 295.869 1266.47 Q292.484 1259.78 285.67 1259.78 M285.67 1252.84 Q296.564 1252.84 302.293 1261.48 Q308.065 1270.07 308.065 1286.48 Q308.065 1302.84 302.293 1311.48 Q296.564 1320.07 285.67 1320.07 Q274.776 1320.07 269.003 1311.48 Q263.274 1302.84 263.274 1286.48 Q263.274 1270.07 269.003 1261.48 Q274.776 1252.84 285.67 1252.84 Z" fill="#000000" fill-rule="evenodd" fill-opacity="1" /><path clip-path="url(#clip930)" d="M52.8584 992.218 L108.5 992.218 L108.5 999.597 L52.8584 999.597 L52.8584 992.218 Z" fill="#000000" fill-rule="evenodd" fill-opacity="1" /><path clip-path="url(#clip930)" d="M146.174 964.744 Q139.403 964.744 135.974 971.428 Q132.589 978.069 132.589 991.437 Q132.589 1004.76 135.974 1011.45 Q139.403 1018.09 146.174 1018.09 Q152.988 1018.09 156.374 1011.45 Q159.802 1004.76 159.802 991.437 Q159.802 978.069 156.374 971.428 Q152.988 964.744 146.174 964.744 M146.174 957.8 Q157.068 957.8 162.797 966.437 Q168.57 975.031 168.57 991.437 Q168.57 1007.8 162.797 1016.44 Q157.068 1025.03 146.174 1025.03 Q135.28 1025.03 129.507 1016.44 Q123.778 1007.8 123.778 991.437 Q123.778 975.031 129.507 966.437 Q135.28 957.8 146.174 957.8 Z" fill="#000000" fill-rule="evenodd" fill-opacity="1" /><path clip-path="url(#clip930)" d="M183.978 1012.75 L193.135 1012.75 L193.135 1023.77 L183.978 1023.77 L183.978 1012.75 Z" fill="#000000" fill-rule="evenodd" fill-opacity="1" /><path clip-path="url(#clip930)" d="M219.785 1016.39 L250.383 1016.39 L250.383 1023.77 L209.238 1023.77 L209.238 1016.39 Q214.229 1011.23 222.823 1002.55 Q231.46 993.824 233.673 991.307 Q237.883 986.576 239.533 983.321 Q241.225 980.022 241.225 976.854 Q241.225 971.689 237.58 968.434 Q233.977 965.178 228.161 965.178 Q224.038 965.178 219.437 966.611 Q214.88 968.043 209.672 970.951 L209.672 962.097 Q214.967 959.97 219.568 958.885 Q224.168 957.8 227.988 957.8 Q238.057 957.8 244.047 962.835 Q250.036 967.869 250.036 976.29 Q250.036 980.283 248.517 983.885 Q247.041 987.444 243.092 992.305 Q242.007 993.564 236.191 999.597 Q230.375 1005.59 219.785 1016.39 Z" fill="#000000" fill-rule="evenodd" fill-opacity="1" /><path clip-path="url(#clip930)" d="M268.873 958.972 L303.291 958.972 L303.291 966.35 L276.902 966.35 L276.902 982.236 Q278.812 981.585 280.722 981.281 Q282.632 980.934 284.541 980.934 Q295.392 980.934 301.729 986.88 Q308.065 992.826 308.065 1002.98 Q308.065 1013.44 301.555 1019.26 Q295.045 1025.03 283.196 1025.03 Q279.116 1025.03 274.862 1024.34 Q270.652 1023.64 266.139 1022.25 L266.139 1013.44 Q270.045 1015.57 274.211 1016.61 Q278.378 1017.65 283.022 1017.65 Q290.531 1017.65 294.914 1013.7 Q299.298 1009.75 299.298 1002.98 Q299.298 996.211 294.914 992.262 Q290.531 988.312 283.022 988.312 Q279.507 988.312 275.991 989.093 Q272.519 989.875 268.873 991.524 L268.873 958.972 Z" fill="#000000" fill-rule="evenodd" fill-opacity="1" /><path clip-path="url(#clip930)" d="M144.308 669.705 Q137.537 669.705 134.108 676.388 Q130.723 683.029 130.723 696.397 Q130.723 709.722 134.108 716.406 Q137.537 723.046 144.308 723.046 Q151.122 723.046 154.507 716.406 Q157.936 709.722 157.936 696.397 Q157.936 683.029 154.507 676.388 Q151.122 669.705 144.308 669.705 M144.308 662.76 Q155.202 662.76 160.931 671.397 Q166.703 679.991 166.703 696.397 Q166.703 712.76 160.931 721.397 Q155.202 729.991 144.308 729.991 Q133.414 729.991 127.641 721.397 Q121.912 712.76 121.912 696.397 Q121.912 679.991 127.641 671.397 Q133.414 662.76 144.308 662.76 Z" fill="#000000" fill-rule="evenodd" fill-opacity="1" /><path clip-path="url(#clip930)" d="M182.111 717.708 L191.269 717.708 L191.269 728.732 L182.111 728.732 L182.111 717.708 Z" fill="#000000" fill-rule="evenodd" fill-opacity="1" /><path clip-path="url(#clip930)" d="M229.116 669.705 Q222.345 669.705 218.917 676.388 Q215.531 683.029 215.531 696.397 Q215.531 709.722 218.917 716.406 Q222.345 723.046 229.116 723.046 Q235.93 723.046 239.316 716.406 Q242.745 709.722 242.745 696.397 Q242.745 683.029 239.316 676.388 Q235.93 669.705 229.116 669.705 M229.116 662.76 Q240.01 662.76 245.739 671.397 Q251.512 679.991 251.512 696.397 Q251.512 712.76 245.739 721.397 Q240.01 729.991 229.116 729.991 Q218.222 729.991 212.45 721.397 Q206.72 712.76 206.72 696.397 Q206.72 679.991 212.45 671.397 Q218.222 662.76 229.116 662.76 Z" fill="#000000" fill-rule="evenodd" fill-opacity="1" /><path clip-path="url(#clip930)" d="M285.67 669.705 Q278.899 669.705 275.47 676.388 Q272.085 683.029 272.085 696.397 Q272.085 709.722 275.47 716.406 Q278.899 723.046 285.67 723.046 Q292.484 723.046 295.869 716.406 Q299.298 709.722 299.298 696.397 Q299.298 683.029 295.869 676.388 Q292.484 669.705 285.67 669.705 M285.67 662.76 Q296.564 662.76 302.293 671.397 Q308.065 679.991 308.065 696.397 Q308.065 712.76 302.293 721.397 Q296.564 729.991 285.67 729.991 Q274.776 729.991 269.003 721.397 Q263.274 712.76 263.274 696.397 Q263.274 679.991 269.003 671.397 Q274.776 662.76 285.67 662.76 Z" fill="#000000" fill-rule="evenodd" fill-opacity="1" /><path clip-path="url(#clip930)" d="M146.174 374.665 Q139.403 374.665 135.974 381.349 Q132.589 387.989 132.589 401.357 Q132.589 414.682 135.974 421.366 Q139.403 428.006 146.174 428.006 Q152.988 428.006 156.374 421.366 Q159.802 414.682 159.802 401.357 Q159.802 387.989 156.374 381.349 Q152.988 374.665 146.174 374.665 M146.174 367.72 Q157.068 367.72 162.797 376.357 Q168.57 384.951 168.57 401.357 Q168.57 417.72 162.797 426.357 Q157.068 434.951 146.174 434.951 Q135.28 434.951 129.507 426.357 Q123.778 417.72 123.778 401.357 Q123.778 384.951 129.507 376.357 Q135.28 367.72 146.174 367.72 Z" fill="#000000" fill-rule="evenodd" fill-opacity="1" /><path clip-path="url(#clip930)" d="M183.978 422.668 L193.135 422.668 L193.135 433.692 L183.978 433.692 L183.978 422.668 Z" fill="#000000" fill-rule="evenodd" fill-opacity="1" /><path clip-path="url(#clip930)" d="M219.785 426.314 L250.383 426.314 L250.383 433.692 L209.238 433.692 L209.238 426.314 Q214.229 421.149 222.823 412.468 Q231.46 403.744 233.673 401.227 Q237.883 396.496 239.533 393.241 Q241.225 389.942 241.225 386.774 Q241.225 381.609 237.58 378.354 Q233.977 375.099 228.161 375.099 Q224.038 375.099 219.437 376.531 Q214.88 377.963 209.672 380.871 L209.672 372.017 Q214.967 369.89 219.568 368.805 Q224.168 367.72 227.988 367.72 Q238.057 367.72 244.047 372.755 Q250.036 377.79 250.036 386.21 Q250.036 390.203 248.517 393.805 Q247.041 397.364 243.092 402.225 Q242.007 403.484 236.191 409.517 Q230.375 415.506 219.785 426.314 Z" fill="#000000" fill-rule="evenodd" fill-opacity="1" /><path clip-path="url(#clip930)" d="M268.873 368.892 L303.291 368.892 L303.291 376.27 L276.902 376.27 L276.902 392.156 Q278.812 391.505 280.722 391.201 Q282.632 390.854 284.541 390.854 Q295.392 390.854 301.729 396.8 Q308.065 402.746 308.065 412.902 Q308.065 423.362 301.555 429.178 Q295.045 434.951 283.196 434.951 Q279.116 434.951 274.862 434.256 Q270.652 433.562 266.139 432.173 L266.139 423.362 Q270.045 425.489 274.211 426.531 Q278.378 427.572 283.022 427.572 Q290.531 427.572 294.914 423.623 Q299.298 419.673 299.298 412.902 Q299.298 406.131 294.914 402.182 Q290.531 398.232 283.022 398.232 Q279.507 398.232 275.991 399.013 Q272.519 399.795 268.873 401.444 L268.873 368.892 Z" fill="#000000" fill-rule="evenodd" fill-opacity="1" /><path clip-path="url(#clip930)" d="M144.308 79.6246 Q137.537 79.6246 134.108 86.3086 Q130.723 92.9492 130.723 106.317 Q130.723 119.642 134.108 126.326 Q137.537 132.966 144.308 132.966 Q151.122 132.966 154.507 126.326 Q157.936 119.642 157.936 106.317 Q157.936 92.9492 154.507 86.3086 Q151.122 79.6246 144.308 79.6246 M144.308 72.6802 Q155.202 72.6802 160.931 81.3173 Q166.703 89.911 166.703 106.317 Q166.703 122.68 160.931 131.317 Q155.202 139.911 144.308 139.911 Q133.414 139.911 127.641 131.317 Q121.912 122.68 121.912 106.317 Q121.912 89.911 127.641 81.3173 Q133.414 72.6802 144.308 72.6802 Z" fill="#000000" fill-rule="evenodd" fill-opacity="1" /><path clip-path="url(#clip930)" d="M182.111 127.628 L191.269 127.628 L191.269 138.652 L182.111 138.652 L182.111 127.628 Z" fill="#000000" fill-rule="evenodd" fill-opacity="1" /><path clip-path="url(#clip930)" d="M210.453 73.8521 L244.871 73.8521 L244.871 81.2305 L218.483 81.2305 L218.483 97.1158 Q220.392 96.4648 222.302 96.161 Q224.212 95.8138 226.121 95.8138 Q236.972 95.8138 243.309 101.76 Q249.646 107.706 249.646 117.862 Q249.646 128.322 243.135 134.138 Q236.625 139.911 224.776 139.911 Q220.696 139.911 216.443 139.216 Q212.233 138.522 207.719 137.133 L207.719 128.322 Q211.625 130.449 215.792 131.491 Q219.958 132.532 224.602 132.532 Q232.111 132.532 236.495 128.583 Q240.878 124.633 240.878 117.862 Q240.878 111.091 236.495 107.142 Q232.111 103.192 224.602 103.192 Q221.087 103.192 217.571 103.973 Q214.099 104.755 210.453 106.404 L210.453 73.8521 Z" fill="#000000" fill-rule="evenodd" fill-opacity="1" /><path clip-path="url(#clip930)" d="M285.67 79.6246 Q278.899 79.6246 275.47 86.3086 Q272.085 92.9492 272.085 106.317 Q272.085 119.642 275.47 126.326 Q278.899 132.966 285.67 132.966 Q292.484 132.966 295.869 126.326 Q299.298 119.642 299.298 106.317 Q299.298 92.9492 295.869 86.3086 Q292.484 79.6246 285.67 79.6246 M285.67 72.6802 Q296.564 72.6802 302.293 81.3173 Q308.065 89.911 308.065 106.317 Q308.065 122.68 302.293 131.317 Q296.564 139.911 285.67 139.911 Q274.776 139.911 269.003 131.317 Q263.274 122.68 263.274 106.317 Q263.274 89.911 269.003 81.3173 Q274.776 72.6802 285.67 72.6802 Z" fill="#000000" fill-rule="evenodd" fill-opacity="1" /><polyline clip-path="url(#clip932)" style="stroke:#009af9; stroke-linecap:butt; stroke-linejoin:round; stroke-width:12; stroke-opacity:1; fill:none" points="
  435.37,696.332 617.978,696.332 800.586,696.332 983.194,696.332 1165.8,696.332 1348.41,401.292 1531.02,696.332 1713.63,696.332 1896.24,696.332 2078.84,696.332 
  2261.45,696.332 2444.06,696.332 2626.67,696.332 2809.28,696.332 2991.88,696.332 3174.49,696.332 3357.1,696.332 3539.71,696.332 3722.32,696.332 3904.93,696.332 
  4087.53,696.332 4270.14,696.332 4452.75,696.332 4635.36,696.332 4817.97,696.332 5000.58,696.332 5183.18,696.332 5365.79,696.332 5548.4,696.332 5731.01,696.332 
  5913.62,696.332 6096.22,696.332 6278.83,696.332 
  "/>
<circle clip-path="url(#clip932)" cx="435.37" cy="696.332" r="14" fill="#009af9" fill-rule="evenodd" fill-opacity="1" stroke="#000000" stroke-opacity="1" stroke-width="3.2"/>
<circle clip-path="url(#clip932)" cx="617.978" cy="696.332" r="14" fill="#009af9" fill-rule="evenodd" fill-opacity="1" stroke="#000000" stroke-opacity="1" stroke-width="3.2"/>
<circle clip-path="url(#clip932)" cx="800.586" cy="696.332" r="14" fill="#009af9" fill-rule="evenodd" fill-opacity="1" stroke="#000000" stroke-opacity="1" stroke-width="3.2"/>
<circle clip-path="url(#clip932)" cx="983.194" cy="696.332" r="14" fill="#009af9" fill-rule="evenodd" fill-opacity="1" stroke="#000000" stroke-opacity="1" stroke-width="3.2"/>
<circle clip-path="url(#clip932)" cx="1165.8" cy="696.332" r="14" fill="#009af9" fill-rule="evenodd" fill-opacity="1" stroke="#000000" stroke-opacity="1" stroke-width="3.2"/>
<circle clip-path="url(#clip932)" cx="1348.41" cy="401.292" r="14" fill="#009af9" fill-rule="evenodd" fill-opacity="1" stroke="#000000" stroke-opacity="1" stroke-width="3.2"/>
<circle clip-path="url(#clip932)" cx="1531.02" cy="696.332" r="14" fill="#009af9" fill-rule="evenodd" fill-opacity="1" stroke="#000000" stroke-opacity="1" stroke-width="3.2"/>
<circle clip-path="url(#clip932)" cx="1713.63" cy="696.332" r="14" fill="#009af9" fill-rule="evenodd" fill-opacity="1" stroke="#000000" stroke-opacity="1" stroke-width="3.2"/>
<circle clip-path="url(#clip932)" cx="1896.24" cy="696.332" r="14" fill="#009af9" fill-rule="evenodd" fill-opacity="1" stroke="#000000" stroke-opacity="1" stroke-width="3.2"/>
<circle clip-path="url(#clip932)" cx="2078.84" cy="696.332" r="14" fill="#009af9" fill-rule="evenodd" fill-opacity="1" stroke="#000000" stroke-opacity="1" stroke-width="3.2"/>
<circle clip-path="url(#clip932)" cx="2261.45" cy="696.332" r="14" fill="#009af9" fill-rule="evenodd" fill-opacity="1" stroke="#000000" stroke-opacity="1" stroke-width="3.2"/>
<polyline clip-path="url(#clip932)" style="stroke:#e26f46; stroke-linecap:butt; stroke-linejoin:round; stroke-width:12; stroke-opacity:1; fill:none" points="
  435.37,696.332 617.978,696.332 800.586,1286.41 983.194,696.332 1165.8,696.332 1348.41,696.332 1531.02,696.332 1713.63,696.332 1896.24,696.332 2078.84,696.332 
  2261.45,696.332 2444.06,696.332 2626.67,696.332 2809.28,696.332 2991.88,696.332 3174.49,696.332 3357.1,696.332 3539.71,696.332 3722.32,696.332 3904.93,696.332 
  4087.53,696.332 4270.14,696.332 4452.75,696.332 4635.36,696.332 4817.97,696.332 5000.58,696.332 5183.18,696.332 5365.79,696.332 5548.4,696.332 5731.01,696.332 
  5913.62,696.332 6096.22,696.332 6278.83,696.332 
  "/>
<path clip-path="url(#clip932)" d="M419.37 680.332 L419.37 712.332 L451.37 712.332 L451.37 680.332 L419.37 680.332 Z" fill="#e26f46" fill-rule="evenodd" fill-opacity="1" stroke="#000000" stroke-opacity="1" stroke-width="3.2"/>
<path clip-path="url(#clip932)" d="M601.978 680.332 L601.978 712.332 L633.978 712.332 L633.978 680.332 L601.978 680.332 Z" fill="#e26f46" fill-rule="evenodd" fill-opacity="1" stroke="#000000" stroke-opacity="1" stroke-width="3.2"/>
<path clip-path="url(#clip932)" d="M784.586 1270.41 L784.586 1302.41 L816.586 1302.41 L816.586 1270.41 L784.586 1270.41 Z" fill="#e26f46" fill-rule="evenodd" fill-opacity="1" stroke="#000000" stroke-opacity="1" stroke-width="3.2"/>
<path clip-path="url(#clip932)" d="M967.194 680.332 L967.194 712.332 L999.194 712.332 L999.194 680.332 L967.194 680.332 Z" fill="#e26f46" fill-rule="evenodd" fill-opacity="1" stroke="#000000" stroke-opacity="1" stroke-width="3.2"/>
<path clip-path="url(#clip932)" d="M1149.8 680.332 L1149.8 712.332 L1181.8 712.332 L1181.8 680.332 L1149.8 680.332 Z" fill="#e26f46" fill-rule="evenodd" fill-opacity="1" stroke="#000000" stroke-opacity="1" stroke-width="3.2"/>
<path clip-path="url(#clip932)" d="M1332.41 680.332 L1332.41 712.332 L1364.41 712.332 L1364.41 680.332 L1332.41 680.332 Z" fill="#e26f46" fill-rule="evenodd" fill-opacity="1" stroke="#000000" stroke-opacity="1" stroke-width="3.2"/>
<path clip-path="url(#clip932)" d="M1515.02 680.332 L1515.02 712.332 L1547.02 712.332 L1547.02 680.332 L1515.02 680.332 Z" fill="#e26f46" fill-rule="evenodd" fill-opacity="1" stroke="#000000" stroke-opacity="1" stroke-width="3.2"/>
<path clip-path="url(#clip932)" d="M1697.63 680.332 L1697.63 712.332 L1729.63 712.332 L1729.63 680.332 L1697.63 680.332 Z" fill="#e26f46" fill-rule="evenodd" fill-opacity="1" stroke="#000000" stroke-opacity="1" stroke-width="3.2"/>
<path clip-path="url(#clip932)" d="M1880.24 680.332 L1880.24 712.332 L1912.24 712.332 L1912.24 680.332 L1880.24 680.332 Z" fill="#e26f46" fill-rule="evenodd" fill-opacity="1" stroke="#000000" stroke-opacity="1" stroke-width="3.2"/>
<path clip-path="url(#clip932)" d="M2062.84 680.332 L2062.84 712.332 L2094.84 712.332 L2094.84 680.332 L2062.84 680.332 Z" fill="#e26f46" fill-rule="evenodd" fill-opacity="1" stroke="#000000" stroke-opacity="1" stroke-width="3.2"/>
<path clip-path="url(#clip932)" d="M2245.45 680.332 L2245.45 712.332 L2277.45 712.332 L2277.45 680.332 L2245.45 680.332 Z" fill="#e26f46" fill-rule="evenodd" fill-opacity="1" stroke="#000000" stroke-opacity="1" stroke-width="3.2"/>
<path clip-path="url(#clip930)" d="
M1674.25 382.117 L2285.8 382.117 L2285.8 90.5166 L1674.25 90.5166  Z
  " fill="#ffffff" fill-rule="evenodd" fill-opacity="1"/>
<polyline clip-path="url(#clip930)" style="stroke:#000000; stroke-linecap:butt; stroke-linejoin:round; stroke-width:4; stroke-opacity:1; fill:none" points="
  1674.25,382.117 2285.8,382.117 2285.8,90.5166 1674.25,90.5166 1674.25,382.117 
  "/>
<polyline clip-path="url(#clip930)" style="stroke:#009af9; stroke-linecap:butt; stroke-linejoin:round; stroke-width:7.5; stroke-opacity:1; fill:none" points="
  1696.56,187.717 1830.48,187.717 
  "/>
<circle clip-path="url(#clip930)" cx="1763.52" cy="187.717" r="43" fill="#009af9" fill-rule="evenodd" fill-opacity="1" stroke="#000000" stroke-opacity="1" stroke-width="9.6"/>
<path clip-path="url(#clip930)" d="M1881.27 178.971 Q1879.92 178.19 1878.32 177.843 Q1876.75 177.452 1874.84 177.452 Q1868.07 177.452 1864.43 181.879 Q1860.83 186.263 1860.83 194.509 L1860.83 220.117 L1852.8 220.117 L1852.8 171.506 L1860.83 171.506 L1860.83 179.058 Q1863.34 174.631 1867.38 172.504 Q1871.42 170.334 1877.19 170.334 Q1878.01 170.334 1879.01 170.464 Q1880.01 170.551 1881.22 170.768 L1881.27 178.971 Z" fill="#000000" fill-rule="evenodd" fill-opacity="1" /><path clip-path="url(#clip930)" d="M1929.27 193.815 L1929.27 197.721 L1892.55 197.721 Q1893.07 205.967 1897.5 210.308 Q1901.97 214.604 1909.91 214.604 Q1914.51 214.604 1918.81 213.476 Q1923.15 212.348 1927.4 210.091 L1927.4 217.643 Q1923.11 219.466 1918.59 220.42 Q1914.08 221.375 1909.44 221.375 Q1897.8 221.375 1890.99 214.604 Q1884.22 207.834 1884.22 196.289 Q1884.22 184.353 1890.64 177.365 Q1897.11 170.334 1908.05 170.334 Q1917.86 170.334 1923.54 176.671 Q1929.27 182.964 1929.27 193.815 M1921.29 191.471 Q1921.2 184.917 1917.6 181.011 Q1914.04 177.105 1908.13 177.105 Q1901.45 177.105 1897.41 180.881 Q1893.42 184.657 1892.81 191.514 L1921.29 191.471 Z" fill="#000000" fill-rule="evenodd" fill-opacity="1" /><path clip-path="url(#clip930)" d="M1964.47 195.681 Q1954.79 195.681 1951.06 197.895 Q1947.33 200.108 1947.33 205.447 Q1947.33 209.7 1950.1 212.217 Q1952.93 214.691 1957.74 214.691 Q1964.38 214.691 1968.38 210.004 Q1972.41 205.273 1972.41 197.46 L1972.41 195.681 L1964.47 195.681 M1980.4 192.382 L1980.4 220.117 L1972.41 220.117 L1972.41 212.738 Q1969.68 217.165 1965.6 219.292 Q1961.52 221.375 1955.62 221.375 Q1948.15 221.375 1943.72 217.209 Q1939.34 212.999 1939.34 205.967 Q1939.34 197.764 1944.81 193.598 Q1950.32 189.431 1961.22 189.431 L1972.41 189.431 L1972.41 188.65 Q1972.41 183.138 1968.77 180.143 Q1965.17 177.105 1958.61 177.105 Q1954.44 177.105 1950.5 178.103 Q1946.55 179.101 1942.9 181.098 L1942.9 173.719 Q1947.28 172.027 1951.41 171.202 Q1955.53 170.334 1959.44 170.334 Q1969.98 170.334 1975.19 175.803 Q1980.4 181.271 1980.4 192.382 Z" fill="#000000" fill-rule="evenodd" fill-opacity="1" /><path clip-path="url(#clip930)" d="M1996.85 152.582 L2004.84 152.582 L2004.84 220.117 L1996.85 220.117 L1996.85 152.582 Z" fill="#000000" fill-rule="evenodd" fill-opacity="1" /><path clip-path="url(#clip930)" d="M2040.73 152.669 Q2034.91 162.652 2032.09 172.417 Q2029.27 182.183 2029.27 192.209 Q2029.27 202.235 2032.09 212.087 Q2034.96 221.896 2040.73 231.835 L2033.78 231.835 Q2027.27 221.636 2024.02 211.783 Q2020.81 201.931 2020.81 192.209 Q2020.81 182.53 2024.02 172.721 Q2027.23 162.912 2033.78 152.669 L2040.73 152.669 Z" fill="#000000" fill-rule="evenodd" fill-opacity="1" /><path clip-path="url(#clip930)" d="M2083.65 200.933 L2083.65 171.506 L2091.64 171.506 L2091.64 200.629 Q2091.64 207.53 2094.33 211.002 Q2097.02 214.431 2102.4 214.431 Q2108.87 214.431 2112.6 210.308 Q2116.38 206.184 2116.38 199.066 L2116.38 171.506 L2124.37 171.506 L2124.37 220.117 L2116.38 220.117 L2116.38 212.651 Q2113.47 217.078 2109.61 219.249 Q2105.79 221.375 2100.71 221.375 Q2092.33 221.375 2087.99 216.167 Q2083.65 210.959 2083.65 200.933 M2103.75 170.334 L2103.75 170.334 Z" fill="#000000" fill-rule="evenodd" fill-opacity="1" /><path clip-path="url(#clip930)" d="M2107 149.023 L2113.43 149.023 L2124.06 165.343 L2118.03 165.343 L2110.22 154.709 L2102.4 165.343 L2096.37 165.343 L2107 149.023 M2110.22 170.334 L2110.22 170.334 Z" fill="#000000" fill-rule="evenodd" fill-opacity="1" /><path clip-path="url(#clip930)" d="M2167.81 152.669 L2174.76 152.669 Q2181.27 162.912 2184.48 172.721 Q2187.73 182.53 2187.73 192.209 Q2187.73 201.931 2184.48 211.783 Q2181.27 221.636 2174.76 231.835 L2167.81 231.835 Q2173.58 221.896 2176.41 212.087 Q2179.27 202.235 2179.27 192.209 Q2179.27 182.183 2176.41 172.417 Q2173.58 162.652 2167.81 152.669 Z" fill="#000000" fill-rule="evenodd" fill-opacity="1" /><polyline clip-path="url(#clip930)" style="stroke:#e26f46; stroke-linecap:butt; stroke-linejoin:round; stroke-width:7.5; stroke-opacity:1; fill:none" points="
  1696.56,284.917 1830.48,284.917 
  "/>
<path clip-path="url(#clip930)" d="M1715.52 236.917 L1715.52 332.917 L1811.52 332.917 L1811.52 236.917 L1715.52 236.917 Z" fill="#e26f46" fill-rule="evenodd" fill-opacity="1" stroke="#000000" stroke-opacity="1" stroke-width="9.6"/>
<path clip-path="url(#clip930)" d="M1852.8 268.706 L1860.78 268.706 L1860.78 317.317 L1852.8 317.317 L1852.8 268.706 M1852.8 249.782 L1860.78 249.782 L1860.78 259.895 L1852.8 259.895 L1852.8 249.782 Z" fill="#000000" fill-rule="evenodd" fill-opacity="1" /><path clip-path="url(#clip930)" d="M1915.34 278.037 Q1918.33 272.655 1922.5 270.095 Q1926.67 267.534 1932.31 267.534 Q1939.9 267.534 1944.03 272.872 Q1948.15 278.168 1948.15 287.976 L1948.15 317.317 L1940.12 317.317 L1940.12 288.237 Q1940.12 281.249 1937.65 277.864 Q1935.17 274.478 1930.1 274.478 Q1923.89 274.478 1920.29 278.602 Q1916.68 282.725 1916.68 289.843 L1916.68 317.317 L1908.66 317.317 L1908.66 288.237 Q1908.66 281.206 1906.18 277.864 Q1903.71 274.478 1898.54 274.478 Q1892.42 274.478 1888.82 278.645 Q1885.22 282.768 1885.22 289.843 L1885.22 317.317 L1877.19 317.317 L1877.19 268.706 L1885.22 268.706 L1885.22 276.258 Q1887.95 271.787 1891.77 269.661 Q1895.59 267.534 1900.84 267.534 Q1906.14 267.534 1909.83 270.225 Q1913.56 272.916 1915.34 278.037 Z" fill="#000000" fill-rule="evenodd" fill-opacity="1" /><path clip-path="url(#clip930)" d="M1986.17 292.881 Q1976.49 292.881 1972.76 295.095 Q1969.03 297.308 1969.03 302.647 Q1969.03 306.9 1971.81 309.417 Q1974.63 311.891 1979.44 311.891 Q1986.09 311.891 1990.08 307.204 Q1994.11 302.473 1994.11 294.66 L1994.11 292.881 L1986.17 292.881 M2002.1 289.582 L2002.1 317.317 L1994.11 317.317 L1994.11 309.938 Q1991.38 314.365 1987.3 316.492 Q1983.22 318.575 1977.32 318.575 Q1969.85 318.575 1965.43 314.409 Q1961.04 310.199 1961.04 303.167 Q1961.04 294.964 1966.51 290.798 Q1972.02 286.631 1982.92 286.631 L1994.11 286.631 L1994.11 285.85 Q1994.11 280.338 1990.47 277.343 Q1986.87 274.305 1980.31 274.305 Q1976.15 274.305 1972.2 275.303 Q1968.25 276.301 1964.6 278.298 L1964.6 270.919 Q1968.98 269.227 1973.11 268.402 Q1977.23 267.534 1981.14 267.534 Q1991.68 267.534 1996.89 273.003 Q2002.1 278.471 2002.1 289.582 Z" fill="#000000" fill-rule="evenodd" fill-opacity="1" /><path clip-path="url(#clip930)" d="M2050.54 292.447 Q2050.54 283.766 2046.94 278.992 Q2043.38 274.218 2036.91 274.218 Q2030.49 274.218 2026.88 278.992 Q2023.32 283.766 2023.32 292.447 Q2023.32 301.084 2026.88 305.858 Q2030.49 310.633 2036.91 310.633 Q2043.38 310.633 2046.94 305.858 Q2050.54 301.084 2050.54 292.447 M2058.52 311.284 Q2058.52 323.697 2053.01 329.73 Q2047.5 335.806 2036.13 335.806 Q2031.92 335.806 2028.19 335.155 Q2024.45 334.547 2020.94 333.245 L2020.94 325.476 Q2024.45 327.386 2027.88 328.297 Q2031.31 329.209 2034.87 329.209 Q2042.73 329.209 2046.63 325.086 Q2050.54 321.006 2050.54 312.716 L2050.54 308.766 Q2048.06 313.063 2044.2 315.19 Q2040.34 317.317 2034.96 317.317 Q2026.02 317.317 2020.55 310.502 Q2015.08 303.688 2015.08 292.447 Q2015.08 281.162 2020.55 274.348 Q2026.02 267.534 2034.96 267.534 Q2040.34 267.534 2044.2 269.661 Q2048.06 271.787 2050.54 276.084 L2050.54 268.706 L2058.52 268.706 L2058.52 311.284 Z" fill="#000000" fill-rule="evenodd" fill-opacity="1" /><path clip-path="url(#clip930)" d="M2094.16 249.869 Q2088.34 259.852 2085.52 269.617 Q2082.7 279.383 2082.7 289.409 Q2082.7 299.435 2085.52 309.287 Q2088.39 319.096 2094.16 329.035 L2087.21 329.035 Q2080.7 318.836 2077.45 308.983 Q2074.24 299.131 2074.24 289.409 Q2074.24 279.73 2077.45 269.921 Q2080.66 260.112 2087.21 249.869 L2094.16 249.869 Z" fill="#000000" fill-rule="evenodd" fill-opacity="1" /><path clip-path="url(#clip930)" d="M2137.08 298.133 L2137.08 268.706 L2145.07 268.706 L2145.07 297.829 Q2145.07 304.73 2147.76 308.202 Q2150.45 311.631 2155.83 311.631 Q2162.3 311.631 2166.03 307.508 Q2169.81 303.384 2169.81 296.266 L2169.81 268.706 L2177.79 268.706 L2177.79 317.317 L2169.81 317.317 L2169.81 309.851 Q2166.9 314.278 2163.04 316.449 Q2159.22 318.575 2154.14 318.575 Q2145.76 318.575 2141.42 313.367 Q2137.08 308.159 2137.08 298.133 M2157.18 267.534 L2157.18 267.534 Z" fill="#000000" fill-rule="evenodd" fill-opacity="1" /><path clip-path="url(#clip930)" d="M2160.43 246.223 L2166.86 246.223 L2177.49 262.543 L2171.46 262.543 L2163.65 251.909 L2155.83 262.543 L2149.8 262.543 L2160.43 246.223 M2163.65 267.534 L2163.65 267.534 Z" fill="#000000" fill-rule="evenodd" fill-opacity="1" /><path clip-path="url(#clip930)" d="M2221.24 249.869 L2228.18 249.869 Q2234.7 260.112 2237.91 269.921 Q2241.16 279.73 2241.16 289.409 Q2241.16 299.131 2237.91 308.983 Q2234.7 318.836 2228.18 329.035 L2221.24 329.035 Q2227.01 319.096 2229.83 309.287 Q2232.7 299.435 2232.7 289.409 Q2232.7 279.383 2229.83 269.617 Q2227.01 259.852 2221.24 249.869 Z" fill="#000000" fill-rule="evenodd" fill-opacity="1" /></svg>
