<?xml version="1.0" encoding="utf-8"?>
<svg xmlns="http://www.w3.org/2000/svg" xmlns:xlink="http://www.w3.org/1999/xlink" width="600" height="400" viewBox="0 0 2400 1600">
<defs>
  <clipPath id="clip900">
    <rect x="0" y="0" width="2400" height="1600"/>
  </clipPath>
</defs>
<path clip-path="url(#clip900)" d="
M0 1600 L2400 1600 L2400 0 L0 0  Z
  " fill="#ffffff" fill-rule="evenodd" fill-opacity="1"/>
<defs>
  <clipPath id="clip901">
    <rect x="480" y="0" width="1681" height="1600"/>
  </clipPath>
</defs>
<path clip-path="url(#clip900)" d="
M287.512 1345.42 L2352.76 1345.42 L2352.76 47.2441 L287.512 47.2441  Z
  " fill="#ffffff" fill-rule="evenodd" fill-opacity="1"/>
<defs>
  <clipPath id="clip902">
    <rect x="287" y="47" width="2066" height="1299"/>
  </clipPath>
</defs>
<polyline clip-path="url(#clip902)" style="stroke:#000000; stroke-linecap:butt; stroke-linejoin:round; stroke-width:2; stroke-opacity:0.1; fill:none" points="
  390.565,1345.42 390.565,47.2441 
  "/>
<polyline clip-path="url(#clip902)" style="stroke:#000000; stroke-linecap:butt; stroke-linejoin:round; stroke-width:2; stroke-opacity:0.1; fill:none" points="
  705.576,1345.42 705.576,47.2441 
  "/>
<polyline clip-path="url(#clip902)" style="stroke:#000000; stroke-linecap:butt; stroke-linejoin:round; stroke-width:2; stroke-opacity:0.1; fill:none" points="
  1020.59,1345.42 1020.59,47.2441 
  "/>
<polyline clip-path="url(#clip902)" style="stroke:#000000; stroke-linecap:butt; stroke-linejoin:round; stroke-width:2; stroke-opacity:0.1; fill:none" points="
  1335.6,1345.42 1335.6,47.2441 
  "/>
<polyline clip-path="url(#clip902)" style="stroke:#000000; stroke-linecap:butt; stroke-linejoin:round; stroke-width:2; stroke-opacity:0.1; fill:none" points="
  1650.61,1345.42 1650.61,47.2441 
  "/>
<polyline clip-path="url(#clip902)" style="stroke:#000000; stroke-linecap:butt; stroke-linejoin:round; stroke-width:2; stroke-opacity:0.1; fill:none" points="
  1965.62,1345.42 1965.62,47.2441 
  "/>
<polyline clip-path="url(#clip902)" style="stroke:#000000; stroke-linecap:butt; stroke-linejoin:round; stroke-width:2; stroke-opacity:0.1; fill:none" points="
  2280.63,1345.42 2280.63,47.2441 
  "/>
<polyline clip-path="url(#clip900)" style="stroke:#000000; stroke-linecap:butt; stroke-linejoin:round; stroke-width:4; stroke-opacity:1; fill:none" points="
  287.512,1345.42 2352.76,1345.42 
  "/>
<polyline clip-path="url(#clip900)" style="stroke:#000000; stroke-linecap:butt; stroke-linejoin:round; stroke-width:4; stroke-opacity:1; fill:none" points="
  390.565,1345.42 390.565,1326.52 
  "/>
<polyline clip-path="url(#clip900)" style="stroke:#000000; stroke-linecap:butt; stroke-linejoin:round; stroke-width:4; stroke-opacity:1; fill:none" points="
  705.576,1345.42 705.576,1326.52 
  "/>
<polyline clip-path="url(#clip900)" style="stroke:#000000; stroke-linecap:butt; stroke-linejoin:round; stroke-width:4; stroke-opacity:1; fill:none" points="
  1020.59,1345.42 1020.59,1326.52 
  "/>
<polyline clip-path="url(#clip900)" style="stroke:#000000; stroke-linecap:butt; stroke-linejoin:round; stroke-width:4; stroke-opacity:1; fill:none" points="
  1335.6,1345.42 1335.6,1326.52 
  "/>
<polyline clip-path="url(#clip900)" style="stroke:#000000; stroke-linecap:butt; stroke-linejoin:round; stroke-width:4; stroke-opacity:1; fill:none" points="
  1650.61,1345.42 1650.61,1326.52 
  "/>
<polyline clip-path="url(#clip900)" style="stroke:#000000; stroke-linecap:butt; stroke-linejoin:round; stroke-width:4; stroke-opacity:1; fill:none" points="
  1965.62,1345.42 1965.62,1326.52 
  "/>
<polyline clip-path="url(#clip900)" style="stroke:#000000; stroke-linecap:butt; stroke-linejoin:round; stroke-width:4; stroke-opacity:1; fill:none" points="
  2280.63,1345.42 2280.63,1326.52 
  "/>
<path clip-path="url(#clip900)" d="M333.317 1414.07 L388.959 1414.07 L388.959 1421.44 L333.317 1421.44 L333.317 1414.07 Z" fill="#000000" fill-rule="evenodd" fill-opacity="1" /><path clip-path="url(#clip900)" d="M434.445 1410.68 Q440.739 1412.03 444.254 1416.28 Q447.813 1420.53 447.813 1426.78 Q447.813 1436.38 441.216 1441.63 Q434.619 1446.88 422.466 1446.88 Q418.386 1446.88 414.046 1446.05 Q409.749 1445.27 405.149 1443.67 L405.149 1435.2 Q408.794 1437.33 413.135 1438.42 Q417.475 1439.5 422.206 1439.5 Q430.452 1439.5 434.749 1436.24 Q439.089 1432.99 439.089 1426.78 Q439.089 1421.05 435.053 1417.84 Q431.06 1414.59 423.899 1414.59 L416.346 1414.59 L416.346 1407.38 L424.246 1407.38 Q430.713 1407.38 434.142 1404.82 Q437.57 1402.22 437.57 1397.36 Q437.57 1392.36 434.011 1389.72 Q430.496 1387.03 423.899 1387.03 Q420.296 1387.03 416.173 1387.81 Q412.05 1388.59 407.102 1390.24 L407.102 1382.43 Q412.093 1381.04 416.433 1380.34 Q420.817 1379.65 424.68 1379.65 Q434.662 1379.65 440.478 1384.21 Q446.294 1388.72 446.294 1396.44 Q446.294 1401.83 443.213 1405.56 Q440.131 1409.25 434.445 1410.68 Z" fill="#000000" fill-rule="evenodd" fill-opacity="1" /><path clip-path="url(#clip900)" d="M649.218 1414.07 L704.86 1414.07 L704.86 1421.44 L649.218 1421.44 L649.218 1414.07 Z" fill="#000000" fill-rule="evenodd" fill-opacity="1" /><path clip-path="url(#clip900)" d="M731.335 1438.24 L761.934 1438.24 L761.934 1445.62 L720.788 1445.62 L720.788 1438.24 Q725.78 1433.08 734.373 1424.4 Q743.011 1415.67 745.224 1413.15 Q749.434 1408.42 751.083 1405.17 Q752.776 1401.87 752.776 1398.7 Q752.776 1393.54 749.13 1390.28 Q745.528 1387.03 739.712 1387.03 Q735.589 1387.03 730.988 1388.46 Q726.431 1389.89 721.223 1392.8 L721.223 1383.94 Q726.518 1381.82 731.118 1380.73 Q735.719 1379.65 739.538 1379.65 Q749.608 1379.65 755.597 1384.68 Q761.587 1389.72 761.587 1398.14 Q761.587 1402.13 760.068 1405.73 Q758.592 1409.29 754.642 1414.15 Q753.557 1415.41 747.741 1421.44 Q741.926 1427.43 731.335 1438.24 Z" fill="#000000" fill-rule="evenodd" fill-opacity="1" /><path clip-path="url(#clip900)" d="M963.881 1414.07 L1019.52 1414.07 L1019.52 1421.44 L963.881 1421.44 L963.881 1414.07 Z" fill="#000000" fill-rule="evenodd" fill-opacity="1" /><path clip-path="url(#clip900)" d="M1039.97 1438.24 L1054.29 1438.24 L1054.29 1388.81 L1038.71 1391.93 L1038.71 1383.94 L1054.2 1380.82 L1062.97 1380.82 L1062.97 1438.24 L1077.29 1438.24 L1077.29 1445.62 L1039.97 1445.62 L1039.97 1438.24 Z" fill="#000000" fill-rule="evenodd" fill-opacity="1" /><path clip-path="url(#clip900)" d="M1335.6 1386.59 Q1328.83 1386.59 1325.4 1393.28 Q1322.01 1399.92 1322.01 1413.28 Q1322.01 1426.61 1325.4 1433.29 Q1328.83 1439.93 1335.6 1439.93 Q1342.41 1439.93 1345.8 1433.29 Q1349.23 1426.61 1349.23 1413.28 Q1349.23 1399.92 1345.8 1393.28 Q1342.41 1386.59 1335.6 1386.59 M1335.6 1379.65 Q1346.49 1379.65 1352.22 1388.29 Q1357.99 1396.88 1357.99 1413.28 Q1357.99 1429.65 1352.22 1438.28 Q1346.49 1446.88 1335.6 1446.88 Q1324.7 1446.88 1318.93 1438.28 Q1313.2 1429.65 1313.2 1413.28 Q1313.2 1396.88 1318.93 1388.29 Q1324.7 1379.65 1335.6 1379.65 Z" fill="#000000" fill-rule="evenodd" fill-opacity="1" /><path clip-path="url(#clip900)" d="M1632.57 1438.24 L1646.9 1438.24 L1646.9 1388.81 L1631.32 1391.93 L1631.32 1383.94 L1646.81 1380.82 L1655.58 1380.82 L1655.58 1438.24 L1669.9 1438.24 L1669.9 1445.62 L1632.57 1445.62 L1632.57 1438.24 Z" fill="#000000" fill-rule="evenodd" fill-opacity="1" /><path clip-path="url(#clip900)" d="M1955.59 1438.24 L1986.19 1438.24 L1986.19 1445.62 L1945.05 1445.62 L1945.05 1438.24 Q1950.04 1433.08 1958.63 1424.4 Q1967.27 1415.67 1969.48 1413.15 Q1973.69 1408.42 1975.34 1405.17 Q1977.03 1401.87 1977.03 1398.7 Q1977.03 1393.54 1973.39 1390.28 Q1969.78 1387.03 1963.97 1387.03 Q1959.85 1387.03 1955.24 1388.46 Q1950.69 1389.89 1945.48 1392.8 L1945.48 1383.94 Q1950.77 1381.82 1955.37 1380.73 Q1959.98 1379.65 1963.8 1379.65 Q1973.86 1379.65 1979.85 1384.68 Q1985.84 1389.72 1985.84 1398.14 Q1985.84 1402.13 1984.32 1405.73 Q1982.85 1409.29 1978.9 1414.15 Q1977.81 1415.41 1972 1421.44 Q1966.18 1427.43 1955.59 1438.24 Z" fill="#000000" fill-rule="evenodd" fill-opacity="1" /><path clip-path="url(#clip900)" d="M2288.59 1410.68 Q2294.89 1412.03 2298.4 1416.28 Q2301.96 1420.53 2301.96 1426.78 Q2301.96 1436.38 2295.36 1441.63 Q2288.77 1446.88 2276.61 1446.88 Q2272.53 1446.88 2268.19 1446.05 Q2263.9 1445.27 2259.3 1443.67 L2259.3 1435.2 Q2262.94 1437.33 2267.28 1438.42 Q2271.62 1439.5 2276.35 1439.5 Q2284.6 1439.5 2288.9 1436.24 Q2293.24 1432.99 2293.24 1426.78 Q2293.24 1421.05 2289.2 1417.84 Q2285.21 1414.59 2278.05 1414.59 L2270.49 1414.59 L2270.49 1407.38 L2278.39 1407.38 Q2284.86 1407.38 2288.29 1404.82 Q2291.72 1402.22 2291.72 1397.36 Q2291.72 1392.36 2288.16 1389.72 Q2284.64 1387.03 2278.05 1387.03 Q2274.44 1387.03 2270.32 1387.81 Q2266.2 1388.59 2261.25 1390.24 L2261.25 1382.43 Q2266.24 1381.04 2270.58 1380.34 Q2274.96 1379.65 2278.83 1379.65 Q2288.81 1379.65 2294.63 1384.21 Q2300.44 1388.72 2300.44 1396.44 Q2300.44 1401.83 2297.36 1405.56 Q2294.28 1409.25 2288.59 1410.68 Z" fill="#000000" fill-rule="evenodd" fill-opacity="1" /><path clip-path="url(#clip900)" d="M1353.36 1521.37 L1327.58 1556.07 L1354.7 1592.67 L1340.89 1592.67 L1320.13 1564.66 L1299.38 1592.67 L1285.57 1592.67 L1313.26 1555.36 L1287.92 1521.37 L1301.74 1521.37 L1320.64 1546.77 L1339.55 1521.37 L1353.36 1521.37 Z" fill="#000000" fill-rule="evenodd" fill-opacity="1" /><polyline clip-path="url(#clip902)" style="stroke:#000000; stroke-linecap:butt; stroke-linejoin:round; stroke-width:2; stroke-opacity:0.1; fill:none" points="
  287.512,1325.78 2352.76,1325.78 
  "/>
<polyline clip-path="url(#clip902)" style="stroke:#000000; stroke-linecap:butt; stroke-linejoin:round; stroke-width:2; stroke-opacity:0.1; fill:none" points="
  287.512,1115.96 2352.76,1115.96 
  "/>
<polyline clip-path="url(#clip902)" style="stroke:#000000; stroke-linecap:butt; stroke-linejoin:round; stroke-width:2; stroke-opacity:0.1; fill:none" points="
  287.512,906.147 2352.76,906.147 
  "/>
<polyline clip-path="url(#clip902)" style="stroke:#000000; stroke-linecap:butt; stroke-linejoin:round; stroke-width:2; stroke-opacity:0.1; fill:none" points="
  287.512,696.332 2352.76,696.332 
  "/>
<polyline clip-path="url(#clip902)" style="stroke:#000000; stroke-linecap:butt; stroke-linejoin:round; stroke-width:2; stroke-opacity:0.1; fill:none" points="
  287.512,486.517 2352.76,486.517 
  "/>
<polyline clip-path="url(#clip902)" style="stroke:#000000; stroke-linecap:butt; stroke-linejoin:round; stroke-width:2; stroke-opacity:0.1; fill:none" points="
  287.512,276.702 2352.76,276.702 
  "/>
<polyline clip-path="url(#clip902)" style="stroke:#000000; stroke-linecap:butt; stroke-linejoin:round; stroke-width:2; stroke-opacity:0.1; fill:none" points="
  287.512,66.8873 2352.76,66.8873 
  "/>
<polyline clip-path="url(#clip900)" style="stroke:#000000; stroke-linecap:butt; stroke-linejoin:round; stroke-width:4; stroke-opacity:1; fill:none" points="
  287.512,1345.42 287.512,47.2441 
  "/>
<polyline clip-path="url(#clip900)" style="stroke:#000000; stroke-linecap:butt; stroke-linejoin:round; stroke-width:4; stroke-opacity:1; fill:none" points="
  287.512,1325.78 306.41,1325.78 
  "/>
<polyline clip-path="url(#clip900)" style="stroke:#000000; stroke-linecap:butt; stroke-linejoin:round; stroke-width:4; stroke-opacity:1; fill:none" points="
  287.512,1115.96 306.41,1115.96 
  "/>
<polyline clip-path="url(#clip900)" style="stroke:#000000; stroke-linecap:butt; stroke-linejoin:round; stroke-width:4; stroke-opacity:1; fill:none" points="
  287.512,906.147 306.41,906.147 
  "/>
<polyline clip-path="url(#clip900)" style="stroke:#000000; stroke-linecap:butt; stroke-linejoin:round; stroke-width:4; stroke-opacity:1; fill:none" points="
  287.512,696.332 306.41,696.332 
  "/>
<polyline clip-path="url(#clip900)" style="stroke:#000000; stroke-linecap:butt; stroke-linejoin:round; stroke-width:4; stroke-opacity:1; fill:none" points="
  287.512,486.517 306.41,486.517 
  "/>
<polyline clip-path="url(#clip900)" style="stroke:#000000; stroke-linecap:butt; stroke-linejoin:round; stroke-width:4; stroke-opacity:1; fill:none" points="
  287.512,276.702 306.41,276.702 
  "/>
<polyline clip-path="url(#clip900)" style="stroke:#000000; stroke-linecap:butt; stroke-linejoin:round; stroke-width:4; stroke-opacity:1; fill:none" points="
  287.512,66.8873 306.41,66.8873 
  "/>
<path clip-path="url(#clip900)" d="M52.8584 1326.62 L108.5 1326.62 L108.5 1334 L52.8584 1334 L52.8584 1326.62 Z" fill="#000000" fill-rule="evenodd" fill-opacity="1" /><path clip-path="url(#clip900)" d="M128.943 1350.8 L143.266 1350.8 L143.266 1301.36 L127.684 1304.49 L127.684 1296.5 L143.179 1293.38 L151.946 1293.38 L151.946 1350.8 L166.269 1350.8 L166.269 1358.18 L128.943 1358.18 L128.943 1350.8 Z" fill="#000000" fill-rule="evenodd" fill-opacity="1" /><path clip-path="url(#clip900)" d="M183.978 1347.15 L193.135 1347.15 L193.135 1358.18 L183.978 1358.18 L183.978 1347.15 Z" fill="#000000" fill-rule="evenodd" fill-opacity="1" /><path clip-path="url(#clip900)" d="M212.319 1293.38 L246.738 1293.38 L246.738 1300.76 L220.349 1300.76 L220.349 1316.64 Q222.259 1315.99 224.168 1315.69 Q226.078 1315.34 227.988 1315.34 Q238.838 1315.34 245.175 1321.28 Q251.512 1327.23 251.512 1337.39 Q251.512 1347.85 245.002 1353.66 Q238.491 1359.44 226.642 1359.44 Q222.562 1359.44 218.309 1358.74 Q214.099 1358.05 209.585 1356.66 L209.585 1347.85 Q213.491 1349.97 217.658 1351.02 Q221.825 1352.06 226.469 1352.06 Q233.977 1352.06 238.361 1348.11 Q242.745 1344.16 242.745 1337.39 Q242.745 1330.62 238.361 1326.67 Q233.977 1322.72 226.469 1322.72 Q222.953 1322.72 219.437 1323.5 Q215.965 1324.28 212.319 1325.93 L212.319 1293.38 Z" fill="#000000" fill-rule="evenodd" fill-opacity="1" /><path clip-path="url(#clip900)" d="M50.9921 1116.81 L106.634 1116.81 L106.634 1124.19 L50.9921 1124.19 L50.9921 1116.81 Z" fill="#000000" fill-rule="evenodd" fill-opacity="1" /><path clip-path="url(#clip900)" d="M127.077 1140.98 L141.4 1140.98 L141.4 1091.55 L125.818 1094.67 L125.818 1086.69 L141.313 1083.56 L150.08 1083.56 L150.08 1140.98 L164.403 1140.98 L164.403 1148.36 L127.077 1148.36 L127.077 1140.98 Z" fill="#000000" fill-rule="evenodd" fill-opacity="1" /><path clip-path="url(#clip900)" d="M182.111 1137.34 L191.269 1137.34 L191.269 1148.36 L182.111 1148.36 L182.111 1137.34 Z" fill="#000000" fill-rule="evenodd" fill-opacity="1" /><path clip-path="url(#clip900)" d="M229.116 1089.33 Q222.345 1089.33 218.917 1096.02 Q215.531 1102.66 215.531 1116.03 Q215.531 1129.35 218.917 1136.04 Q222.345 1142.68 229.116 1142.68 Q235.93 1142.68 239.316 1136.04 Q242.745 1129.35 242.745 1116.03 Q242.745 1102.66 239.316 1096.02 Q235.93 1089.33 229.116 1089.33 M229.116 1082.39 Q240.01 1082.39 245.739 1091.03 Q251.512 1099.62 251.512 1116.03 Q251.512 1132.39 245.739 1141.03 Q240.01 1149.62 229.116 1149.62 Q218.222 1149.62 212.45 1141.03 Q206.72 1132.39 206.72 1116.03 Q206.72 1099.62 212.45 1091.03 Q218.222 1082.39 229.116 1082.39 Z" fill="#000000" fill-rule="evenodd" fill-opacity="1" /><path clip-path="url(#clip900)" d="M52.8584 906.993 L108.5 906.993 L108.5 914.372 L52.8584 914.372 L52.8584 906.993 Z" fill="#000000" fill-rule="evenodd" fill-opacity="1" /><path clip-path="url(#clip900)" d="M146.174 879.519 Q139.403 879.519 135.974 886.203 Q132.589 892.844 132.589 906.212 Q132.589 919.537 135.974 926.221 Q139.403 932.861 146.174 932.861 Q152.988 932.861 156.374 926.221 Q159.802 919.537 159.802 906.212 Q159.802 892.844 156.374 886.203 Q152.988 879.519 146.174 879.519 M146.174 872.575 Q157.068 872.575 162.797 881.212 Q168.57 889.806 168.57 906.212 Q168.57 922.575 162.797 931.212 Q157.068 939.806 146.174 939.806 Q135.28 939.806 129.507 931.212 Q123.778 922.575 123.778 906.212 Q123.778 889.806 129.507 881.212 Q135.28 872.575 146.174 872.575 Z" fill="#000000" fill-rule="evenodd" fill-opacity="1" /><path clip-path="url(#clip900)" d="M183.978 927.523 L193.135 927.523 L193.135 938.547 L183.978 938.547 L183.978 927.523 Z" fill="#000000" fill-rule="evenodd" fill-opacity="1" /><path clip-path="url(#clip900)" d="M212.319 873.747 L246.738 873.747 L246.738 881.125 L220.349 881.125 L220.349 897.011 Q222.259 896.36 224.168 896.056 Q226.078 895.709 227.988 895.709 Q238.838 895.709 245.175 901.655 Q251.512 907.601 251.512 917.757 Q251.512 928.217 245.002 934.033 Q238.491 939.806 226.642 939.806 Q222.562 939.806 218.309 939.111 Q214.099 938.417 209.585 937.028 L209.585 928.217 Q213.491 930.344 217.658 931.385 Q221.825 932.427 226.469 932.427 Q233.977 932.427 238.361 928.477 Q242.745 924.528 242.745 917.757 Q242.745 910.986 238.361 907.037 Q233.977 903.087 226.469 903.087 Q222.953 903.087 219.437 903.868 Q215.965 904.649 212.319 906.299 L212.319 873.747 Z" fill="#000000" fill-rule="evenodd" fill-opacity="1" /><path clip-path="url(#clip900)" d="M144.308 669.705 Q137.537 669.705 134.108 676.388 Q130.723 683.029 130.723 696.397 Q130.723 709.722 134.108 716.406 Q137.537 723.046 144.308 723.046 Q151.122 723.046 154.507 716.406 Q157.936 709.722 157.936 696.397 Q157.936 683.029 154.507 676.388 Q151.122 669.705 144.308 669.705 M144.308 662.76 Q155.202 662.76 160.931 671.397 Q166.703 679.991 166.703 696.397 Q166.703 712.76 160.931 721.397 Q155.202 729.991 144.308 729.991 Q133.414 729.991 127.641 721.397 Q121.912 712.76 121.912 696.397 Q121.912 679.991 127.641 671.397 Q133.414 662.76 144.308 662.76 Z" fill="#000000" fill-rule="evenodd" fill-opacity="1" /><path clip-path="url(#clip900)" d="M182.111 717.708 L191.269 717.708 L191.269 728.732 L182.111 728.732 L182.111 717.708 Z" fill="#000000" fill-rule="evenodd" fill-opacity="1" /><path clip-path="url(#clip900)" d="M229.116 669.705 Q222.345 669.705 218.917 676.388 Q215.531 683.029 215.531 696.397 Q215.531 709.722 218.917 716.406 Q222.345 723.046 229.116 723.046 Q235.93 723.046 239.316 716.406 Q242.745 709.722 242.745 696.397 Q242.745 683.029 239.316 676.388 Q235.93 669.705 229.116 669.705 M229.116 662.76 Q240.01 662.76 245.739 671.397 Q251.512 679.991 251.512 696.397 Q251.512 712.76 245.739 721.397 Q240.01 729.991 229.116 729.991 Q218.222 729.991 212.45 721.397 Q206.72 712.76 206.72 696.397 Q206.72 679.991 212.45 671.397 Q218.222 662.76 229.116 662.76 Z" fill="#000000" fill-rule="evenodd" fill-opacity="1" /><path clip-path="url(#clip900)" d="M146.174 459.89 Q139.403 459.89 135.974 466.574 Q132.589 473.214 132.589 486.582 Q132.589 499.907 135.974 506.591 Q139.403 513.231 146.174 513.231 Q152.988 513.231 156.374 506.591 Q159.802 499.907 159.802 486.582 Q159.802 473.214 156.374 466.574 Q152.988 459.89 146.174 459.89 M146.174 452.945 Q157.068 452.945 162.797 461.582 Q168.57 470.176 168.57 486.582 Q168.57 502.945 162.797 511.582 Q157.068 520.176 146.174 520.176 Q135.28 520.176 129.507 511.582 Q123.778 502.945 123.778 486.582 Q123.778 470.176 129.507 461.582 Q135.28 452.945 146.174 452.945 Z" fill="#000000" fill-rule="evenodd" fill-opacity="1" /><path clip-path="url(#clip900)" d="M183.978 507.893 L193.135 507.893 L193.135 518.917 L183.978 518.917 L183.978 507.893 Z" fill="#000000" fill-rule="evenodd" fill-opacity="1" /><path clip-path="url(#clip900)" d="M212.319 454.117 L246.738 454.117 L246.738 461.496 L220.349 461.496 L220.349 477.381 Q222.259 476.73 224.168 476.426 Q226.078 476.079 227.988 476.079 Q238.838 476.079 245.175 482.025 Q251.512 487.971 251.512 498.127 Q251.512 508.587 245.002 514.403 Q238.491 520.176 226.642 520.176 Q222.562 520.176 218.309 519.481 Q214.099 518.787 209.585 517.398 L209.585 508.587 Q213.491 510.714 217.658 511.756 Q221.825 512.797 226.469 512.797 Q233.977 512.797 238.361 508.848 Q242.745 504.898 242.745 498.127 Q242.745 491.356 238.361 487.407 Q233.977 483.457 226.469 483.457 Q222.953 483.457 219.437 484.238 Q215.965 485.02 212.319 486.669 L212.319 454.117 Z" fill="#000000" fill-rule="evenodd" fill-opacity="1" /><path clip-path="url(#clip900)" d="M127.077 301.724 L141.4 301.724 L141.4 252.288 L125.818 255.413 L125.818 247.427 L141.313 244.302 L150.08 244.302 L150.08 301.724 L164.403 301.724 L164.403 309.102 L127.077 309.102 L127.077 301.724 Z" fill="#000000" fill-rule="evenodd" fill-opacity="1" /><path clip-path="url(#clip900)" d="M182.111 298.078 L191.269 298.078 L191.269 309.102 L182.111 309.102 L182.111 298.078 Z" fill="#000000" fill-rule="evenodd" fill-opacity="1" /><path clip-path="url(#clip900)" d="M229.116 250.075 Q222.345 250.075 218.917 256.759 Q215.531 263.399 215.531 276.767 Q215.531 290.092 218.917 296.776 Q222.345 303.416 229.116 303.416 Q235.93 303.416 239.316 296.776 Q242.745 290.092 242.745 276.767 Q242.745 263.399 239.316 256.759 Q235.93 250.075 229.116 250.075 M229.116 243.13 Q240.01 243.13 245.739 251.767 Q251.512 260.361 251.512 276.767 Q251.512 293.13 245.739 301.767 Q240.01 310.361 229.116 310.361 Q218.222 310.361 212.45 301.767 Q206.72 293.13 206.72 276.767 Q206.72 260.361 212.45 251.767 Q218.222 243.13 229.116 243.13 Z" fill="#000000" fill-rule="evenodd" fill-opacity="1" /><path clip-path="url(#clip900)" d="M128.943 91.9089 L143.266 91.9089 L143.266 42.4734 L127.684 45.5983 L127.684 37.6123 L143.179 34.4873 L151.946 34.4873 L151.946 91.9089 L166.269 91.9089 L166.269 99.2873 L128.943 99.2873 L128.943 91.9089 Z" fill="#000000" fill-rule="evenodd" fill-opacity="1" /><path clip-path="url(#clip900)" d="M183.978 88.263 L193.135 88.263 L193.135 99.2873 L183.978 99.2873 L183.978 88.263 Z" fill="#000000" fill-rule="evenodd" fill-opacity="1" /><path clip-path="url(#clip900)" d="M212.319 34.4873 L246.738 34.4873 L246.738 41.8657 L220.349 41.8657 L220.349 57.7511 Q222.259 57.1 224.168 56.7962 Q226.078 56.449 227.988 56.449 Q238.838 56.449 245.175 62.3951 Q251.512 68.3413 251.512 78.4975 Q251.512 88.9575 245.002 94.7734 Q238.491 100.546 226.642 100.546 Q222.562 100.546 218.309 99.8515 Q214.099 99.1571 209.585 97.7682 L209.585 88.9575 Q213.491 91.0842 217.658 92.1259 Q221.825 93.1675 226.469 93.1675 Q233.977 93.1675 238.361 89.2179 Q242.745 85.2683 242.745 78.4975 Q242.745 71.7267 238.361 67.777 Q233.977 63.8274 226.469 63.8274 Q222.953 63.8274 219.437 64.6087 Q215.965 65.3899 212.319 67.0392 L212.319 34.4873 Z" fill="#000000" fill-rule="evenodd" fill-opacity="1" /><polyline clip-path="url(#clip902)" style="stroke:#009af9; stroke-linecap:butt; stroke-linejoin:round; stroke-width:12; stroke-opacity:1; fill:none" points="
  345.962,906.147 376.888,799.506 407.814,652.314 438.74,483.764 469.667,319.316 500.593,185.233 531.519,102.861 562.445,83.9849 593.371,128.341 624.297,223.859 
  655.223,349.577 686.149,480.528 717.075,593.453 748.001,672.003 778.927,710.201 809.853,713.372 840.78,696.332 871.706,679.292 902.632,682.463 933.558,720.661 
  964.484,799.211 995.41,912.136 1026.34,1043.09 1057.26,1168.8 1088.19,1264.32 1119.11,1308.68 1150.04,1289.8 1180.97,1207.43 1211.89,1073.35 1242.82,908.9 
  1273.74,740.35 1304.67,593.157 1335.6,486.517 1366.52,429.426 1397.45,419.18 1428.38,442.633 1459.3,479.902 1490.23,509.612 1521.15,514.428 1552.08,485.546 
  1583.01,425.064 1613.93,345.671 1644.86,267.712 1675.78,214.317 1706.71,205.765 1737.64,254.394 1768.56,361.292 1799.49,515.56 1830.41,696.332 1861.34,877.104 
  1892.27,1031.37 1923.19,1138.27 1954.12,1186.9 1985.04,1178.35 2015.97,1124.95 2046.9,1046.99 2077.82,967.6 2108.75,907.118 2139.68,878.236 2170.6,883.052 
  2201.53,912.762 2232.45,950.031 2263.38,973.484 2294.31,963.238 
  "/>
<path clip-path="url(#clip900)" d="
M2013.73 284.917 L2283.91 284.917 L2283.91 90.5166 L2013.73 90.5166  Z
  " fill="#ffffff" fill-rule="evenodd" fill-opacity="1"/>
<polyline clip-path="url(#clip900)" style="stroke:#000000; stroke-linecap:butt; stroke-linejoin:round; stroke-width:4; stroke-opacity:1; fill:none" points="
  2013.73,284.917 2283.91,284.917 2283.91,90.5166 2013.73,90.5166 2013.73,284.917 
  "/>
<polyline clip-path="url(#clip900)" style="stroke:#009af9; stroke-linecap:butt; stroke-linejoin:round; stroke-width:7.5; stroke-opacity:1; fill:none" points="
  2036.68,187.717 2174.36,187.717 
  "/>
<path clip-path="url(#clip900)" d="M2197.31 200.933 L2197.31 171.506 L2205.29 171.506 L2205.29 200.629 Q2205.29 207.53 2207.99 211.002 Q2210.68 214.431 2216.06 214.431 Q2222.53 214.431 2226.26 210.308 Q2230.03 206.184 2230.03 199.066 L2230.03 171.506 L2238.02 171.506 L2238.02 220.117 L2230.03 220.117 L2230.03 212.651 Q2227.13 217.078 2223.26 219.249 Q2219.44 221.375 2214.37 221.375 Q2205.99 221.375 2201.65 216.167 Q2197.31 210.959 2197.31 200.933 M2217.4 170.334 L2217.4 170.334 Z" fill="#000000" fill-rule="evenodd" fill-opacity="1" /></svg>
