<?xml version="1.0" encoding="utf-8"?>
<svg xmlns="http://www.w3.org/2000/svg" xmlns:xlink="http://www.w3.org/1999/xlink" width="600" height="400" viewBox="0 0 2400 1600">
<defs>
  <clipPath id="clip160">
    <rect x="0" y="0" width="2400" height="1600"/>
  </clipPath>
</defs>
<path clip-path="url(#clip160)" d="
M0 1600 L2400 1600 L2400 0 L0 0  Z
  " fill="#ffffff" fill-rule="evenodd" fill-opacity="1"/>
<defs>
  <clipPath id="clip161">
    <rect x="480" y="0" width="1681" height="1600"/>
  </clipPath>
</defs>
<path clip-path="url(#clip160)" d="
M203.615 1345.42 L2352.76 1345.42 L2352.76 47.2441 L203.615 47.2441  Z
  " fill="#ffffff" fill-rule="evenodd" fill-opacity="1"/>
<defs>
  <clipPath id="clip162">
    <rect x="203" y="47" width="2150" height="1299"/>
  </clipPath>
</defs>
<polyline clip-path="url(#clip162)" style="stroke:#000000; stroke-linecap:butt; stroke-linejoin:round; stroke-width:2; stroke-opacity:0.1; fill:none" points="
  310.855,1345.42 310.855,47.2441 
  "/>
<polyline clip-path="url(#clip162)" style="stroke:#000000; stroke-linecap:butt; stroke-linejoin:round; stroke-width:2; stroke-opacity:0.1; fill:none" points="
  638.662,1345.42 638.662,47.2441 
  "/>
<polyline clip-path="url(#clip162)" style="stroke:#000000; stroke-linecap:butt; stroke-linejoin:round; stroke-width:2; stroke-opacity:0.1; fill:none" points="
  966.469,1345.42 966.469,47.2441 
  "/>
<polyline clip-path="url(#clip162)" style="stroke:#000000; stroke-linecap:butt; stroke-linejoin:round; stroke-width:2; stroke-opacity:0.1; fill:none" points="
  1294.28,1345.42 1294.28,47.2441 
  "/>
<polyline clip-path="url(#clip162)" style="stroke:#000000; stroke-linecap:butt; stroke-linejoin:round; stroke-width:2; stroke-opacity:0.1; fill:none" points="
  1622.08,1345.42 1622.08,47.2441 
  "/>
<polyline clip-path="url(#clip162)" style="stroke:#000000; stroke-linecap:butt; stroke-linejoin:round; stroke-width:2; stroke-opacity:0.1; fill:none" points="
  1949.89,1345.42 1949.89,47.2441 
  "/>
<polyline clip-path="url(#clip162)" style="stroke:#000000; stroke-linecap:butt; stroke-linejoin:round; stroke-width:2; stroke-opacity:0.1; fill:none" points="
  2277.7,1345.42 2277.7,47.2441 
  "/>
<polyline clip-path="url(#clip160)" style="stroke:#000000; stroke-linecap:butt; stroke-linejoin:round; stroke-width:4; stroke-opacity:1; fill:none" points="
  203.615,1345.42 2352.76,1345.42 
  "/>
<polyline clip-path="url(#clip160)" style="stroke:#000000; stroke-linecap:butt; stroke-linejoin:round; stroke-width:4; stroke-opacity:1; fill:none" points="
  310.855,1345.42 310.855,1326.52 
  "/>
<polyline clip-path="url(#clip160)" style="stroke:#000000; stroke-linecap:butt; stroke-linejoin:round; stroke-width:4; stroke-opacity:1; fill:none" points="
  638.662,1345.42 638.662,1326.52 
  "/>
<polyline clip-path="url(#clip160)" style="stroke:#000000; stroke-linecap:butt; stroke-linejoin:round; stroke-width:4; stroke-opacity:1; fill:none" points="
  966.469,1345.42 966.469,1326.52 
  "/>
<polyline clip-path="url(#clip160)" style="stroke:#000000; stroke-linecap:butt; stroke-linejoin:round; stroke-width:4; stroke-opacity:1; fill:none" points="
  1294.28,1345.42 1294.28,1326.52 
  "/>
<polyline clip-path="url(#clip160)" style="stroke:#000000; stroke-linecap:butt; stroke-linejoin:round; stroke-width:4; stroke-opacity:1; fill:none" points="
  1622.08,1345.42 1622.08,1326.52 
  "/>
<polyline clip-path="url(#clip160)" style="stroke:#000000; stroke-linecap:butt; stroke-linejoin:round; stroke-width:4; stroke-opacity:1; fill:none" points="
  1949.89,1345.42 1949.89,1326.52 
  "/>
<polyline clip-path="url(#clip160)" style="stroke:#000000; stroke-linecap:butt; stroke-linejoin:round; stroke-width:4; stroke-opacity:1; fill:none" points="
  2277.7,1345.42 2277.7,1326.52 
  "/>
<path clip-path="url(#clip160)" d="M253.607 1414.07 L309.249 1414.07 L309.249 1421.44 L253.607 1421.44 L253.607 1414.07 Z" fill="#000000" fill-rule="evenodd" fill-opacity="1" /><path clip-path="url(#clip160)" d="M354.735 1410.68 Q361.028 1412.03 364.544 1416.28 Q368.103 1420.53 368.103 1426.78 Q368.103 1436.38 361.505 1441.63 Q354.908 1446.88 342.755 1446.88 Q338.676 1446.88 334.335 1446.05 Q330.039 1445.27 325.438 1443.67 L325.438 1435.2 Q329.084 1437.33 333.424 1438.42 Q337.764 1439.5 342.495 1439.5 Q350.742 1439.5 355.038 1436.24 Q359.379 1432.99 359.379 1426.78 Q359.379 1421.05 355.342 1417.84 Q351.349 1414.59 344.188 1414.59 L336.636 1414.59 L336.636 1407.38 L344.535 1407.38 Q351.002 1407.38 354.431 1404.82 Q357.86 1402.22 357.86 1397.36 Q357.86 1392.36 354.301 1389.72 Q350.785 1387.03 344.188 1387.03 Q340.585 1387.03 336.462 1387.81 Q332.339 1388.59 327.391 1390.24 L327.391 1382.43 Q332.382 1381.04 336.723 1380.34 Q341.106 1379.65 344.969 1379.65 Q354.952 1379.65 360.768 1384.21 Q366.583 1388.72 366.583 1396.44 Q366.583 1401.83 363.502 1405.56 Q360.42 1409.25 354.735 1410.68 Z" fill="#000000" fill-rule="evenodd" fill-opacity="1" /><path clip-path="url(#clip160)" d="M582.304 1414.07 L637.946 1414.07 L637.946 1421.44 L582.304 1421.44 L582.304 1414.07 Z" fill="#000000" fill-rule="evenodd" fill-opacity="1" /><path clip-path="url(#clip160)" d="M664.421 1438.24 L695.02 1438.24 L695.02 1445.62 L653.875 1445.62 L653.875 1438.24 Q658.866 1433.08 667.46 1424.4 Q676.097 1415.67 678.31 1413.15 Q682.52 1408.42 684.169 1405.17 Q685.862 1401.87 685.862 1398.7 Q685.862 1393.54 682.216 1390.28 Q678.614 1387.03 672.798 1387.03 Q668.675 1387.03 664.074 1388.46 Q659.517 1389.89 654.309 1392.8 L654.309 1383.94 Q659.604 1381.82 664.204 1380.73 Q668.805 1379.65 672.624 1379.65 Q682.694 1379.65 688.683 1384.68 Q694.673 1389.72 694.673 1398.14 Q694.673 1402.13 693.154 1405.73 Q691.678 1409.29 687.729 1414.15 Q686.643 1415.41 680.827 1421.44 Q675.012 1427.43 664.421 1438.24 Z" fill="#000000" fill-rule="evenodd" fill-opacity="1" /><path clip-path="url(#clip160)" d="M909.764 1414.07 L965.406 1414.07 L965.406 1421.44 L909.764 1421.44 L909.764 1414.07 Z" fill="#000000" fill-rule="evenodd" fill-opacity="1" /><path clip-path="url(#clip160)" d="M985.848 1438.24 L1000.17 1438.24 L1000.17 1388.81 L984.59 1391.93 L984.59 1383.94 L1000.08 1380.82 L1008.85 1380.82 L1008.85 1438.24 L1023.17 1438.24 L1023.17 1445.62 L985.848 1445.62 L985.848 1438.24 Z" fill="#000000" fill-rule="evenodd" fill-opacity="1" /><path clip-path="url(#clip160)" d="M1294.28 1386.59 Q1287.51 1386.59 1284.08 1393.28 Q1280.69 1399.92 1280.69 1413.28 Q1280.69 1426.61 1284.08 1433.29 Q1287.51 1439.93 1294.28 1439.93 Q1301.09 1439.93 1304.48 1433.29 Q1307.9 1426.61 1307.9 1413.28 Q1307.9 1399.92 1304.48 1393.28 Q1301.09 1386.59 1294.28 1386.59 M1294.28 1379.65 Q1305.17 1379.65 1310.9 1388.29 Q1316.67 1396.88 1316.67 1413.28 Q1316.67 1429.65 1310.9 1438.28 Q1305.17 1446.88 1294.28 1446.88 Q1283.38 1446.88 1277.61 1438.28 Q1271.88 1429.65 1271.88 1413.28 Q1271.88 1396.88 1277.61 1388.29 Q1283.38 1379.65 1294.28 1379.65 Z" fill="#000000" fill-rule="evenodd" fill-opacity="1" /><path clip-path="url(#clip160)" d="M1604.05 1438.24 L1618.37 1438.24 L1618.37 1388.81 L1602.79 1391.93 L1602.79 1383.94 L1618.29 1380.82 L1627.05 1380.82 L1627.05 1438.24 L1641.38 1438.24 L1641.38 1445.62 L1604.05 1445.62 L1604.05 1438.24 Z" fill="#000000" fill-rule="evenodd" fill-opacity="1" /><path clip-path="url(#clip160)" d="M1939.87 1438.24 L1970.46 1438.24 L1970.46 1445.62 L1929.32 1445.62 L1929.32 1438.24 Q1934.31 1433.08 1942.9 1424.4 Q1951.54 1415.67 1953.75 1413.15 Q1957.96 1408.42 1959.61 1405.17 Q1961.31 1401.87 1961.31 1398.7 Q1961.31 1393.54 1957.66 1390.28 Q1954.06 1387.03 1948.24 1387.03 Q1944.12 1387.03 1939.52 1388.46 Q1934.96 1389.89 1929.75 1392.8 L1929.75 1383.94 Q1935.05 1381.82 1939.65 1380.73 Q1944.25 1379.65 1948.07 1379.65 Q1958.14 1379.65 1964.13 1384.68 Q1970.12 1389.72 1970.12 1398.14 Q1970.12 1402.13 1968.6 1405.73 Q1967.12 1409.29 1963.17 1414.15 Q1962.09 1415.41 1956.27 1421.44 Q1950.46 1427.43 1939.87 1438.24 Z" fill="#000000" fill-rule="evenodd" fill-opacity="1" /><path clip-path="url(#clip160)" d="M2285.66 1410.68 Q2291.96 1412.03 2295.47 1416.28 Q2299.03 1420.53 2299.03 1426.78 Q2299.03 1436.38 2292.43 1441.63 Q2285.84 1446.88 2273.68 1446.88 Q2269.6 1446.88 2265.26 1446.05 Q2260.97 1445.27 2256.37 1443.67 L2256.37 1435.2 Q2260.01 1437.33 2264.35 1438.42 Q2268.69 1439.5 2273.42 1439.5 Q2281.67 1439.5 2285.97 1436.24 Q2290.31 1432.99 2290.31 1426.78 Q2290.31 1421.05 2286.27 1417.84 Q2282.28 1414.59 2275.12 1414.59 L2267.56 1414.59 L2267.56 1407.38 L2275.46 1407.38 Q2281.93 1407.38 2285.36 1404.82 Q2288.79 1402.22 2288.79 1397.36 Q2288.79 1392.36 2285.23 1389.72 Q2281.71 1387.03 2275.12 1387.03 Q2271.51 1387.03 2267.39 1387.81 Q2263.27 1388.59 2258.32 1390.24 L2258.32 1382.43 Q2263.31 1381.04 2267.65 1380.34 Q2272.03 1379.65 2275.9 1379.65 Q2285.88 1379.65 2291.7 1384.21 Q2297.51 1388.72 2297.51 1396.44 Q2297.51 1401.83 2294.43 1405.56 Q2291.35 1409.25 2285.66 1410.68 Z" fill="#000000" fill-rule="evenodd" fill-opacity="1" /><path clip-path="url(#clip160)" d="M1311.41 1521.37 L1285.63 1556.07 L1312.75 1592.67 L1298.94 1592.67 L1278.19 1564.66 L1257.43 1592.67 L1243.62 1592.67 L1271.31 1555.36 L1245.97 1521.37 L1259.79 1521.37 L1278.69 1546.77 L1297.6 1521.37 L1311.41 1521.37 Z" fill="#000000" fill-rule="evenodd" fill-opacity="1" /><polyline clip-path="url(#clip162)" style="stroke:#000000; stroke-linecap:butt; stroke-linejoin:round; stroke-width:2; stroke-opacity:0.1; fill:none" points="
  203.615,1237.89 2352.76,1237.89 
  "/>
<polyline clip-path="url(#clip162)" style="stroke:#000000; stroke-linecap:butt; stroke-linejoin:round; stroke-width:2; stroke-opacity:0.1; fill:none" points="
  203.615,954.758 2352.76,954.758 
  "/>
<polyline clip-path="url(#clip162)" style="stroke:#000000; stroke-linecap:butt; stroke-linejoin:round; stroke-width:2; stroke-opacity:0.1; fill:none" points="
  203.615,671.621 2352.76,671.621 
  "/>
<polyline clip-path="url(#clip162)" style="stroke:#000000; stroke-linecap:butt; stroke-linejoin:round; stroke-width:2; stroke-opacity:0.1; fill:none" points="
  203.615,388.485 2352.76,388.485 
  "/>
<polyline clip-path="url(#clip162)" style="stroke:#000000; stroke-linecap:butt; stroke-linejoin:round; stroke-width:2; stroke-opacity:0.1; fill:none" points="
  203.615,105.348 2352.76,105.348 
  "/>
<polyline clip-path="url(#clip160)" style="stroke:#000000; stroke-linecap:butt; stroke-linejoin:round; stroke-width:4; stroke-opacity:1; fill:none" points="
  203.615,1345.42 203.615,47.2441 
  "/>
<polyline clip-path="url(#clip160)" style="stroke:#000000; stroke-linecap:butt; stroke-linejoin:round; stroke-width:4; stroke-opacity:1; fill:none" points="
  203.615,1237.89 222.512,1237.89 
  "/>
<polyline clip-path="url(#clip160)" style="stroke:#000000; stroke-linecap:butt; stroke-linejoin:round; stroke-width:4; stroke-opacity:1; fill:none" points="
  203.615,954.758 222.512,954.758 
  "/>
<polyline clip-path="url(#clip160)" style="stroke:#000000; stroke-linecap:butt; stroke-linejoin:round; stroke-width:4; stroke-opacity:1; fill:none" points="
  203.615,671.621 222.512,671.621 
  "/>
<polyline clip-path="url(#clip160)" style="stroke:#000000; stroke-linecap:butt; stroke-linejoin:round; stroke-width:4; stroke-opacity:1; fill:none" points="
  203.615,388.485 222.512,388.485 
  "/>
<polyline clip-path="url(#clip160)" style="stroke:#000000; stroke-linecap:butt; stroke-linejoin:round; stroke-width:4; stroke-opacity:1; fill:none" points="
  203.615,105.348 222.512,105.348 
  "/>
<path clip-path="url(#clip160)" d="M50.9921 1238.74 L106.634 1238.74 L106.634 1246.12 L50.9921 1246.12 L50.9921 1238.74 Z" fill="#000000" fill-rule="evenodd" fill-opacity="1" /><path clip-path="url(#clip160)" d="M149.646 1213.13 L127.511 1247.73 L149.646 1247.73 L149.646 1213.13 M147.346 1205.49 L158.37 1205.49 L158.37 1247.73 L167.615 1247.73 L167.615 1255.02 L158.37 1255.02 L158.37 1270.29 L149.646 1270.29 L149.646 1255.02 L120.393 1255.02 L120.393 1246.55 L147.346 1205.49 Z" fill="#000000" fill-rule="evenodd" fill-opacity="1" /><path clip-path="url(#clip160)" d="M54.8984 955.604 L110.54 955.604 L110.54 962.983 L54.8984 962.983 L54.8984 955.604 Z" fill="#000000" fill-rule="evenodd" fill-opacity="1" /><path clip-path="url(#clip160)" d="M137.016 979.78 L167.615 979.78 L167.615 987.158 L126.469 987.158 L126.469 979.78 Q131.46 974.615 140.054 965.934 Q148.691 957.21 150.905 954.693 Q155.115 949.962 156.764 946.707 Q158.457 943.408 158.457 940.24 Q158.457 935.075 154.811 931.82 Q151.209 928.565 145.393 928.565 Q141.269 928.565 136.669 929.997 Q132.111 931.429 126.903 934.337 L126.903 925.483 Q132.198 923.356 136.799 922.271 Q141.4 921.186 145.219 921.186 Q155.288 921.186 161.278 926.221 Q167.268 931.256 167.268 939.676 Q167.268 943.669 165.748 947.271 Q164.273 950.83 160.323 955.691 Q159.238 956.95 153.422 962.983 Q147.606 968.972 137.016 979.78 Z" fill="#000000" fill-rule="evenodd" fill-opacity="1" /><path clip-path="url(#clip160)" d="M145.219 644.994 Q138.448 644.994 135.019 651.678 Q131.634 658.318 131.634 671.686 Q131.634 685.011 135.019 691.695 Q138.448 698.336 145.219 698.336 Q152.033 698.336 155.419 691.695 Q158.847 685.011 158.847 671.686 Q158.847 658.318 155.419 651.678 Q152.033 644.994 145.219 644.994 M145.219 638.049 Q156.113 638.049 161.842 646.687 Q167.615 655.28 167.615 671.686 Q167.615 688.049 161.842 696.686 Q156.113 705.28 145.219 705.28 Q134.325 705.28 128.552 696.686 Q122.823 688.049 122.823 671.686 Q122.823 655.28 128.552 646.687 Q134.325 638.049 145.219 638.049 Z" fill="#000000" fill-rule="evenodd" fill-opacity="1" /><path clip-path="url(#clip160)" d="M137.016 413.506 L167.615 413.506 L167.615 420.885 L126.469 420.885 L126.469 413.506 Q131.46 408.341 140.054 399.661 Q148.691 390.937 150.905 388.419 Q155.115 383.689 156.764 380.433 Q158.457 377.135 158.457 373.966 Q158.457 368.801 154.811 365.546 Q151.209 362.291 145.393 362.291 Q141.269 362.291 136.669 363.723 Q132.111 365.156 126.903 368.064 L126.903 359.209 Q132.198 357.083 136.799 355.998 Q141.4 354.913 145.219 354.913 Q155.288 354.913 161.278 359.947 Q167.268 364.982 167.268 373.402 Q167.268 377.395 165.748 380.998 Q164.273 384.557 160.323 389.418 Q159.238 390.676 153.422 396.709 Q147.606 402.699 137.016 413.506 Z" fill="#000000" fill-rule="evenodd" fill-opacity="1" /><path clip-path="url(#clip160)" d="M149.646 80.5866 L127.511 115.178 L149.646 115.178 L149.646 80.5866 M147.346 72.9477 L158.37 72.9477 L158.37 115.178 L167.615 115.178 L167.615 122.47 L158.37 122.47 L158.37 137.748 L149.646 137.748 L149.646 122.47 L120.393 122.47 L120.393 114.007 L147.346 72.9477 Z" fill="#000000" fill-rule="evenodd" fill-opacity="1" /><polyline clip-path="url(#clip162)" style="stroke:#009af9; stroke-linecap:butt; stroke-linejoin:round; stroke-width:12; stroke-opacity:1; fill:none" points="
  264.44,742.405 296.622,706.429 328.804,656.771 360.987,599.908 393.169,544.429 425.352,499.195 457.534,471.405 489.716,465.037 521.899,480.001 554.081,512.226 
  586.264,554.638 618.446,598.816 650.628,636.913 682.811,663.413 714.993,676.3 747.176,677.37 779.358,671.621 811.54,665.872 843.723,666.942 875.905,679.829 
  908.088,706.329 940.27,744.426 972.452,788.604 1004.63,831.017 1036.82,863.242 1069,878.206 1101.18,871.838 1133.36,844.048 1165.55,798.813 1197.73,743.334 
  1229.91,686.472 1262.09,636.814 1294.28,600.837 1326.46,581.577 1358.64,578.12 1390.82,586.032 1423.01,598.605 1455.19,608.628 1487.37,610.253 1519.55,600.509 
  1551.74,580.105 1583.92,553.321 1616.1,527.02 1648.28,509.006 1680.47,506.121 1712.65,522.527 1744.83,558.59 1777.01,610.635 1809.2,671.621 1841.38,732.607 
  1873.56,784.652 1905.74,820.716 1937.92,837.121 1970.11,834.236 2002.29,816.223 2034.47,789.922 2066.65,763.138 2098.84,742.733 2131.02,732.989 2163.2,734.614 
  2195.38,744.637 2227.57,757.211 2259.75,765.123 2291.93,761.666 
  "/>
<polyline clip-path="url(#clip162)" style="stroke:#e26f46; stroke-linecap:butt; stroke-linejoin:round; stroke-width:12; stroke-opacity:1; fill:none" points="
  264.44,388.485 296.622,227.088 328.804,115.762 360.987,83.9849 393.169,144.433 425.352,289.794 457.534,494.223 489.716,719.122 521.899,921.881 554.081,1065.54 
  586.264,1127.09 618.446,1102.51 650.628,1007.27 682.811,872.351 714.993,736.578 747.176,637.187 779.358,600.837 811.54,637.187 843.723,736.578 875.905,872.351 
  908.088,1007.27 940.27,1102.51 972.452,1127.09 1004.63,1065.54 1036.82,921.881 1069,719.122 1101.18,494.223 1133.36,289.794 1165.55,144.433 1197.73,83.9849 
  1229.91,115.762 1262.09,227.088 1294.28,388.485 1326.46,560.762 1358.64,704.312 1390.82,788.418 1423.01,798.394 1455.19,738.844 1487.37,632.316 1519.55,513.646 
  1551.74,421.361 1583.92,388.177 1616.1,432.853 1648.28,555.339 1680.47,736.39 1712.65,941.731 1744.83,1129.83 1777.01,1261.45 1809.2,1308.68 1841.38,1261.45 
  1873.56,1129.83 1905.74,941.731 1937.92,736.39 1970.11,555.339 2002.29,432.853 2034.47,388.177 2066.65,421.361 2098.84,513.646 2131.02,632.316 2163.2,738.844 
  2195.38,798.394 2227.57,788.418 2259.75,704.312 2291.93,560.762 
  "/>
<path clip-path="url(#clip160)" d="
M1818.54 382.117 L2281.12 382.117 L2281.12 90.5166 L1818.54 90.5166  Z
  " fill="#ffffff" fill-rule="evenodd" fill-opacity="1"/>
<polyline clip-path="url(#clip160)" style="stroke:#000000; stroke-linecap:butt; stroke-linejoin:round; stroke-width:4; stroke-opacity:1; fill:none" points="
  1818.54,382.117 2281.12,382.117 2281.12,90.5166 1818.54,90.5166 1818.54,382.117 
  "/>
<polyline clip-path="url(#clip160)" style="stroke:#009af9; stroke-linecap:butt; stroke-linejoin:round; stroke-width:7.5; stroke-opacity:1; fill:none" points="
  1842.42,187.717 1985.7,187.717 
  "/>
<path clip-path="url(#clip160)" d="M2009.58 200.933 L2009.58 171.506 L2017.56 171.506 L2017.56 200.629 Q2017.56 207.53 2020.25 211.002 Q2022.94 214.431 2028.33 214.431 Q2034.79 214.431 2038.53 210.308 Q2042.3 206.184 2042.3 199.066 L2042.3 171.506 L2050.29 171.506 L2050.29 220.117 L2042.3 220.117 L2042.3 212.651 Q2039.39 217.078 2035.53 219.249 Q2031.71 221.375 2026.63 221.375 Q2018.26 221.375 2013.92 216.167 Q2009.58 210.959 2009.58 200.933 M2029.67 170.334 L2029.67 170.334 Z" fill="#000000" fill-rule="evenodd" fill-opacity="1" /><polyline clip-path="url(#clip160)" style="stroke:#e26f46; stroke-linecap:butt; stroke-linejoin:round; stroke-width:7.5; stroke-opacity:1; fill:none" points="
  1842.42,284.917 1985.7,284.917 
  "/>
<path clip-path="url(#clip160)" d="M2024.42 318.575 Q2018.3 318.575 2014.31 314.886 Q2009.58 310.502 2009.58 302.56 Q2009.58 294.313 2013.74 287.89 Q2018.04 281.293 2025.76 281.293 Q2030.84 281.293 2034.84 284.461 Q2037.18 286.327 2038.79 289.452 Q2039.35 285.937 2039.35 281.944 Q2039.35 276.084 2037.96 272.699 Q2034.88 265.19 2026.72 265.19 Q2023.64 265.19 2018.86 267.1 L2018.86 259.808 Q2023.9 258.463 2028.41 258.463 Q2040.04 258.463 2044.99 269.14 Q2047.29 274.174 2047.29 281.683 Q2047.29 286.588 2046.21 292.273 Q2043.47 306.509 2036.4 313.28 Q2030.84 318.575 2024.42 318.575 M2017 303.862 Q2017 308.202 2018.91 310.546 Q2020.95 313.02 2024.07 313.02 Q2026.85 313.02 2029.06 311.067 Q2032.19 308.376 2034.49 303.992 Q2036.4 300.39 2037.35 296.527 Q2033.49 287.195 2026.81 287.195 Q2021.08 287.195 2018.56 294.747 Q2017 299.435 2017 303.862 Z" fill="#000000" fill-rule="evenodd" fill-opacity="1" /><path clip-path="url(#clip160)" d="M2058.97 298.133 L2058.97 268.706 L2066.95 268.706 L2066.95 297.829 Q2066.95 304.73 2069.64 308.202 Q2072.34 311.631 2077.72 311.631 Q2084.18 311.631 2087.92 307.508 Q2091.69 303.384 2091.69 296.266 L2091.69 268.706 L2099.68 268.706 L2099.68 317.317 L2091.69 317.317 L2091.69 309.851 Q2088.79 314.278 2084.92 316.449 Q2081.1 318.575 2076.02 318.575 Q2067.65 318.575 2063.31 313.367 Q2058.97 308.159 2058.97 298.133 M2079.06 267.534 L2079.06 267.534 Z" fill="#000000" fill-rule="evenodd" fill-opacity="1" /><path clip-path="url(#clip160)" d="M2130.32 252.517 L2137.7 252.517 L2115.13 325.563 L2107.75 325.563 L2130.32 252.517 Z" fill="#000000" fill-rule="evenodd" fill-opacity="1" /><path clip-path="url(#clip160)" d="M2156.67 318.575 Q2150.55 318.575 2146.55 314.886 Q2141.82 310.502 2141.82 302.56 Q2141.82 294.313 2145.99 287.89 Q2150.29 281.293 2158.01 281.293 Q2163.09 281.293 2167.08 284.461 Q2169.43 286.327 2171.03 289.452 Q2171.6 285.937 2171.6 281.944 Q2171.6 276.084 2170.21 272.699 Q2167.13 265.19 2158.97 265.19 Q2155.89 265.19 2151.11 267.1 L2151.11 259.808 Q2156.15 258.463 2160.66 258.463 Q2172.29 258.463 2177.24 269.14 Q2179.54 274.174 2179.54 281.683 Q2179.54 286.588 2178.45 292.273 Q2175.72 306.509 2168.65 313.28 Q2163.09 318.575 2156.67 318.575 M2149.25 303.862 Q2149.25 308.202 2151.15 310.546 Q2153.19 313.02 2156.32 313.02 Q2159.1 313.02 2161.31 311.067 Q2164.44 308.376 2166.74 303.992 Q2168.65 300.39 2169.6 296.527 Q2165.74 287.195 2159.05 287.195 Q2153.32 287.195 2150.81 294.747 Q2149.25 299.435 2149.25 303.862 Z" fill="#000000" fill-rule="evenodd" fill-opacity="1" /><path clip-path="url(#clip160)" d="M2232.45 268.706 L2214.87 292.36 L2233.36 317.317 L2223.94 317.317 L2209.79 298.219 L2195.64 317.317 L2186.22 317.317 L2205.1 291.883 L2187.83 268.706 L2197.25 268.706 L2210.14 286.023 L2223.03 268.706 L2232.45 268.706 Z" fill="#000000" fill-rule="evenodd" fill-opacity="1" /></svg>
