<?xml version="1.0" encoding="utf-8"?>
<svg xmlns="http://www.w3.org/2000/svg" xmlns:xlink="http://www.w3.org/1999/xlink" width="600" height="400" viewBox="0 0 2400 1600">
<defs>
  <clipPath id="clip230">
    <rect x="0" y="0" width="2400" height="1600"/>
  </clipPath>
</defs>
<path clip-path="url(#clip230)" d="
M0 1600 L2400 1600 L2400 0 L0 0  Z
  " fill="#ffffff" fill-rule="evenodd" fill-opacity="1"/>
<defs>
  <clipPath id="clip231">
    <rect x="480" y="0" width="1681" height="1600"/>
  </clipPath>
</defs>
<path clip-path="url(#clip230)" d="
M250.932 1302.22 L2352.76 1302.22 L2352.76 47.2441 L250.932 47.2441  Z
  " fill="#ffffff" fill-rule="evenodd" fill-opacity="1"/>
<defs>
  <clipPath id="clip232">
    <rect x="250" y="47" width="2103" height="1256"/>
  </clipPath>
</defs>
<polyline clip-path="url(#clip232)" style="stroke:#000000; stroke-linecap:butt; stroke-linejoin:round; stroke-width:2; stroke-opacity:0.1; fill:none" points="
  310.418,1302.22 310.418,47.2441 
  "/>
<polyline clip-path="url(#clip232)" style="stroke:#000000; stroke-linecap:butt; stroke-linejoin:round; stroke-width:2; stroke-opacity:0.1; fill:none" points="
  806.131,1302.22 806.131,47.2441 
  "/>
<polyline clip-path="url(#clip232)" style="stroke:#000000; stroke-linecap:butt; stroke-linejoin:round; stroke-width:2; stroke-opacity:0.1; fill:none" points="
  1301.84,1302.22 1301.84,47.2441 
  "/>
<polyline clip-path="url(#clip232)" style="stroke:#000000; stroke-linecap:butt; stroke-linejoin:round; stroke-width:2; stroke-opacity:0.1; fill:none" points="
  1797.56,1302.22 1797.56,47.2441 
  "/>
<polyline clip-path="url(#clip232)" style="stroke:#000000; stroke-linecap:butt; stroke-linejoin:round; stroke-width:2; stroke-opacity:0.1; fill:none" points="
  2293.27,1302.22 2293.27,47.2441 
  "/>
<polyline clip-path="url(#clip230)" style="stroke:#000000; stroke-linecap:butt; stroke-linejoin:round; stroke-width:4; stroke-opacity:1; fill:none" points="
  250.932,1302.22 2352.76,1302.22 
  "/>
<polyline clip-path="url(#clip230)" style="stroke:#000000; stroke-linecap:butt; stroke-linejoin:round; stroke-width:4; stroke-opacity:1; fill:none" points="
  310.418,1302.22 310.418,1283.32 
  "/>
<polyline clip-path="url(#clip230)" style="stroke:#000000; stroke-linecap:butt; stroke-linejoin:round; stroke-width:4; stroke-opacity:1; fill:none" points="
  806.131,1302.22 806.131,1283.32 
  "/>
<polyline clip-path="url(#clip230)" style="stroke:#000000; stroke-linecap:butt; stroke-linejoin:round; stroke-width:4; stroke-opacity:1; fill:none" points="
  1301.84,1302.22 1301.84,1283.32 
  "/>
<polyline clip-path="url(#clip230)" style="stroke:#000000; stroke-linecap:butt; stroke-linejoin:round; stroke-width:4; stroke-opacity:1; fill:none" points="
  1797.56,1302.22 1797.56,1283.32 
  "/>
<polyline clip-path="url(#clip230)" style="stroke:#000000; stroke-linecap:butt; stroke-linejoin:round; stroke-width:4; stroke-opacity:1; fill:none" points="
  2293.27,1302.22 2293.27,1283.32 
  "/>
<path clip-path="url(#clip230)" d="M256.706 1349.25 Q248.129 1349.25 243.786 1357.72 Q239.498 1366.13 239.498 1383.06 Q239.498 1399.94 243.786 1408.41 Q248.129 1416.82 256.706 1416.82 Q265.337 1416.82 269.625 1408.41 Q273.968 1399.94 273.968 1383.06 Q273.968 1366.13 269.625 1357.72 Q265.337 1349.25 256.706 1349.25 M256.706 1340.46 Q270.505 1340.46 277.762 1351.4 Q285.074 1362.28 285.074 1383.06 Q285.074 1403.79 277.762 1414.73 Q270.505 1425.61 256.706 1425.61 Q242.907 1425.61 235.595 1414.73 Q228.338 1403.79 228.338 1383.06 Q228.338 1362.28 235.595 1351.4 Q242.907 1340.46 256.706 1340.46 Z" fill="#000000" fill-rule="evenodd" fill-opacity="1" /><path clip-path="url(#clip230)" d="M304.59 1410.06 L316.19 1410.06 L316.19 1424.02 L304.59 1424.02 L304.59 1410.06 Z" fill="#000000" fill-rule="evenodd" fill-opacity="1" /><path clip-path="url(#clip230)" d="M364.13 1349.25 Q355.554 1349.25 351.21 1357.72 Q346.922 1366.13 346.922 1383.06 Q346.922 1399.94 351.21 1408.41 Q355.554 1416.82 364.13 1416.82 Q372.761 1416.82 377.049 1408.41 Q381.393 1399.94 381.393 1383.06 Q381.393 1366.13 377.049 1357.72 Q372.761 1349.25 364.13 1349.25 M364.13 1340.46 Q377.929 1340.46 385.186 1351.4 Q392.498 1362.28 392.498 1383.06 Q392.498 1403.79 385.186 1414.73 Q377.929 1425.61 364.13 1425.61 Q350.331 1425.61 343.019 1414.73 Q335.762 1403.79 335.762 1383.06 Q335.762 1362.28 343.019 1351.4 Q350.331 1340.46 364.13 1340.46 Z" fill="#000000" fill-rule="evenodd" fill-opacity="1" /><path clip-path="url(#clip230)" d="M753.601 1349.25 Q745.024 1349.25 740.681 1357.72 Q736.393 1366.13 736.393 1383.06 Q736.393 1399.94 740.681 1408.41 Q745.024 1416.82 753.601 1416.82 Q762.232 1416.82 766.52 1408.41 Q770.863 1399.94 770.863 1383.06 Q770.863 1366.13 766.52 1357.72 Q762.232 1349.25 753.601 1349.25 M753.601 1340.46 Q767.4 1340.46 774.657 1351.4 Q781.969 1362.28 781.969 1383.06 Q781.969 1403.79 774.657 1414.73 Q767.4 1425.61 753.601 1425.61 Q739.802 1425.61 732.49 1414.73 Q725.233 1403.79 725.233 1383.06 Q725.233 1362.28 732.49 1351.4 Q739.802 1340.46 753.601 1340.46 Z" fill="#000000" fill-rule="evenodd" fill-opacity="1" /><path clip-path="url(#clip230)" d="M801.485 1410.06 L813.085 1410.06 L813.085 1424.02 L801.485 1424.02 L801.485 1410.06 Z" fill="#000000" fill-rule="evenodd" fill-opacity="1" /><path clip-path="url(#clip230)" d="M837.385 1341.94 L880.982 1341.94 L880.982 1351.29 L847.556 1351.29 L847.556 1371.41 Q849.975 1370.58 852.394 1370.2 Q854.813 1369.76 857.232 1369.76 Q870.976 1369.76 879.002 1377.29 Q887.029 1384.82 887.029 1397.69 Q887.029 1410.94 878.782 1418.3 Q870.536 1425.61 855.527 1425.61 Q850.36 1425.61 844.972 1424.73 Q839.639 1423.85 833.922 1422.1 L833.922 1410.94 Q838.869 1413.63 844.147 1414.95 Q849.425 1416.27 855.307 1416.27 Q864.818 1416.27 870.371 1411.27 Q875.924 1406.26 875.924 1397.69 Q875.924 1389.11 870.371 1384.11 Q864.818 1379.1 855.307 1379.1 Q850.854 1379.1 846.401 1380.09 Q842.003 1381.08 837.385 1383.17 L837.385 1341.94 Z" fill="#000000" fill-rule="evenodd" fill-opacity="1" /><path clip-path="url(#clip230)" d="M1223.83 1414.67 L1241.97 1414.67 L1241.97 1352.06 L1222.24 1356.01 L1222.24 1345.9 L1241.86 1341.94 L1252.97 1341.94 L1252.97 1414.67 L1271.11 1414.67 L1271.11 1424.02 L1223.83 1424.02 L1223.83 1414.67 Z" fill="#000000" fill-rule="evenodd" fill-opacity="1" /><path clip-path="url(#clip230)" d="M1293.54 1410.06 L1305.14 1410.06 L1305.14 1424.02 L1293.54 1424.02 L1293.54 1410.06 Z" fill="#000000" fill-rule="evenodd" fill-opacity="1" /><path clip-path="url(#clip230)" d="M1353.08 1349.25 Q1344.51 1349.25 1340.16 1357.72 Q1335.87 1366.13 1335.87 1383.06 Q1335.87 1399.94 1340.16 1408.41 Q1344.51 1416.82 1353.08 1416.82 Q1361.71 1416.82 1366 1408.41 Q1370.34 1399.94 1370.34 1383.06 Q1370.34 1366.13 1366 1357.72 Q1361.71 1349.25 1353.08 1349.25 M1353.08 1340.46 Q1366.88 1340.46 1374.14 1351.4 Q1381.45 1362.28 1381.45 1383.06 Q1381.45 1403.79 1374.14 1414.73 Q1366.88 1425.61 1353.08 1425.61 Q1339.28 1425.61 1331.97 1414.73 Q1324.71 1403.79 1324.71 1383.06 Q1324.71 1362.28 1331.97 1351.4 Q1339.28 1340.46 1353.08 1340.46 Z" fill="#000000" fill-rule="evenodd" fill-opacity="1" /><path clip-path="url(#clip230)" d="M1720.73 1414.67 L1738.87 1414.67 L1738.87 1352.06 L1719.13 1356.01 L1719.13 1345.9 L1738.76 1341.94 L1749.87 1341.94 L1749.87 1414.67 L1768.01 1414.67 L1768.01 1424.02 L1720.73 1424.02 L1720.73 1414.67 Z" fill="#000000" fill-rule="evenodd" fill-opacity="1" /><path clip-path="url(#clip230)" d="M1790.44 1410.06 L1802.04 1410.06 L1802.04 1424.02 L1790.44 1424.02 L1790.44 1410.06 Z" fill="#000000" fill-rule="evenodd" fill-opacity="1" /><path clip-path="url(#clip230)" d="M1826.34 1341.94 L1869.93 1341.94 L1869.93 1351.29 L1836.51 1351.29 L1836.51 1371.41 Q1838.93 1370.58 1841.35 1370.2 Q1843.76 1369.76 1846.18 1369.76 Q1859.93 1369.76 1867.95 1377.29 Q1875.98 1384.82 1875.98 1397.69 Q1875.98 1410.94 1867.73 1418.3 Q1859.49 1425.61 1844.48 1425.61 Q1839.31 1425.61 1833.92 1424.73 Q1828.59 1423.85 1822.87 1422.1 L1822.87 1410.94 Q1827.82 1413.63 1833.1 1414.95 Q1838.38 1416.27 1844.26 1416.27 Q1853.77 1416.27 1859.32 1411.27 Q1864.88 1406.26 1864.88 1397.69 Q1864.88 1389.11 1859.32 1384.11 Q1853.77 1379.1 1844.26 1379.1 Q1839.81 1379.1 1835.35 1380.09 Q1830.96 1381.08 1826.34 1383.17 L1826.34 1341.94 Z" fill="#000000" fill-rule="evenodd" fill-opacity="1" /><path clip-path="url(#clip230)" d="M2224.96 1414.67 L2263.72 1414.67 L2263.72 1424.02 L2211.6 1424.02 L2211.6 1414.67 Q2217.92 1408.13 2228.81 1397.14 Q2239.75 1386.09 2242.55 1382.9 Q2247.89 1376.9 2249.98 1372.78 Q2252.12 1368.6 2252.12 1364.59 Q2252.12 1358.05 2247.5 1353.92 Q2242.94 1349.8 2235.57 1349.8 Q2230.35 1349.8 2224.52 1351.62 Q2218.75 1353.43 2212.15 1357.11 L2212.15 1345.9 Q2218.86 1343.2 2224.69 1341.83 Q2230.51 1340.46 2235.35 1340.46 Q2248.11 1340.46 2255.69 1346.83 Q2263.28 1353.21 2263.28 1363.88 Q2263.28 1368.93 2261.36 1373.5 Q2259.49 1378 2254.48 1384.16 Q2253.11 1385.76 2245.74 1393.4 Q2238.38 1400.98 2224.96 1414.67 Z" fill="#000000" fill-rule="evenodd" fill-opacity="1" /><path clip-path="url(#clip230)" d="M2287.03 1410.06 L2298.63 1410.06 L2298.63 1424.02 L2287.03 1424.02 L2287.03 1410.06 Z" fill="#000000" fill-rule="evenodd" fill-opacity="1" /><path clip-path="url(#clip230)" d="M2346.57 1349.25 Q2337.99 1349.25 2333.65 1357.72 Q2329.36 1366.13 2329.36 1383.06 Q2329.36 1399.94 2333.65 1408.41 Q2337.99 1416.82 2346.57 1416.82 Q2355.2 1416.82 2359.49 1408.41 Q2363.83 1399.94 2363.83 1383.06 Q2363.83 1366.13 2359.49 1357.72 Q2355.2 1349.25 2346.57 1349.25 M2346.57 1340.46 Q2360.37 1340.46 2367.63 1351.4 Q2374.94 1362.28 2374.94 1383.06 Q2374.94 1403.79 2367.63 1414.73 Q2360.37 1425.61 2346.57 1425.61 Q2332.77 1425.61 2325.46 1414.73 Q2318.2 1403.79 2318.2 1383.06 Q2318.2 1362.28 2325.46 1351.4 Q2332.77 1340.46 2346.57 1340.46 Z" fill="#000000" fill-rule="evenodd" fill-opacity="1" /><path clip-path="url(#clip230)" d="M1299.45 1489.99 L1299.45 1515.75 L1330.16 1515.75 L1330.16 1527.34 L1299.45 1527.34 L1299.45 1576.6 Q1299.45 1587.7 1302.45 1590.86 Q1305.53 1594.02 1314.85 1594.02 L1330.16 1594.02 L1330.16 1606.49 L1314.85 1606.49 Q1297.59 1606.49 1291.03 1600.09 Q1284.47 1593.61 1284.47 1576.6 L1284.47 1527.34 L1273.53 1527.34 L1273.53 1515.75 L1284.47 1515.75 L1284.47 1489.99 L1299.45 1489.99 Z" fill="#000000" fill-rule="evenodd" fill-opacity="1" /><polyline clip-path="url(#clip232)" style="stroke:#000000; stroke-linecap:butt; stroke-linejoin:round; stroke-width:2; stroke-opacity:0.1; fill:none" points="
  250.932,1159.68 2352.76,1159.68 
  "/>
<polyline clip-path="url(#clip232)" style="stroke:#000000; stroke-linecap:butt; stroke-linejoin:round; stroke-width:2; stroke-opacity:0.1; fill:none" points="
  250.932,800.706 2352.76,800.706 
  "/>
<polyline clip-path="url(#clip232)" style="stroke:#000000; stroke-linecap:butt; stroke-linejoin:round; stroke-width:2; stroke-opacity:0.1; fill:none" points="
  250.932,441.734 2352.76,441.734 
  "/>
<polyline clip-path="url(#clip232)" style="stroke:#000000; stroke-linecap:butt; stroke-linejoin:round; stroke-width:2; stroke-opacity:0.1; fill:none" points="
  250.932,82.7623 2352.76,82.7623 
  "/>
<polyline clip-path="url(#clip230)" style="stroke:#000000; stroke-linecap:butt; stroke-linejoin:round; stroke-width:4; stroke-opacity:1; fill:none" points="
  250.932,1302.22 250.932,47.2441 
  "/>
<polyline clip-path="url(#clip230)" style="stroke:#000000; stroke-linecap:butt; stroke-linejoin:round; stroke-width:4; stroke-opacity:1; fill:none" points="
  250.932,1159.68 269.83,1159.68 
  "/>
<polyline clip-path="url(#clip230)" style="stroke:#000000; stroke-linecap:butt; stroke-linejoin:round; stroke-width:4; stroke-opacity:1; fill:none" points="
  250.932,800.706 269.83,800.706 
  "/>
<polyline clip-path="url(#clip230)" style="stroke:#000000; stroke-linecap:butt; stroke-linejoin:round; stroke-width:4; stroke-opacity:1; fill:none" points="
  250.932,441.734 269.83,441.734 
  "/>
<polyline clip-path="url(#clip230)" style="stroke:#000000; stroke-linecap:butt; stroke-linejoin:round; stroke-width:4; stroke-opacity:1; fill:none" points="
  250.932,82.7623 269.83,82.7623 
  "/>
<path clip-path="url(#clip230)" d="M81.2842 1125.95 Q72.7079 1125.95 68.3647 1134.42 Q64.0765 1142.83 64.0765 1159.76 Q64.0765 1176.64 68.3647 1185.1 Q72.7079 1193.52 81.2842 1193.52 Q89.9155 1193.52 94.2037 1185.1 Q98.5468 1176.64 98.5468 1159.76 Q98.5468 1142.83 94.2037 1134.42 Q89.9155 1125.95 81.2842 1125.95 M81.2842 1117.15 Q95.0833 1117.15 102.34 1128.09 Q109.652 1138.98 109.652 1159.76 Q109.652 1180.49 102.34 1191.43 Q95.0833 1202.31 81.2842 1202.31 Q67.4851 1202.31 60.1732 1191.43 Q52.9163 1180.49 52.9163 1159.76 Q52.9163 1138.98 60.1732 1128.09 Q67.4851 1117.15 81.2842 1117.15 Z" fill="#000000" fill-rule="evenodd" fill-opacity="1" /><path clip-path="url(#clip230)" d="M129.169 1186.75 L140.769 1186.75 L140.769 1200.72 L129.169 1200.72 L129.169 1186.75 Z" fill="#000000" fill-rule="evenodd" fill-opacity="1" /><path clip-path="url(#clip230)" d="M162.155 1118.64 L214.932 1118.64 L214.932 1123.37 L185.135 1200.72 L173.535 1200.72 L201.573 1127.98 L162.155 1127.98 L162.155 1118.64 Z" fill="#000000" fill-rule="evenodd" fill-opacity="1" /><path clip-path="url(#clip230)" d="M79.36 766.978 Q70.7837 766.978 66.4405 775.444 Q62.1524 783.855 62.1524 800.788 Q62.1524 817.666 66.4405 826.132 Q70.7837 834.544 79.36 834.544 Q87.9913 834.544 92.2795 826.132 Q96.6227 817.666 96.6227 800.788 Q96.6227 783.855 92.2795 775.444 Q87.9913 766.978 79.36 766.978 M79.36 758.181 Q93.1591 758.181 100.416 769.122 Q107.728 780.007 107.728 800.788 Q107.728 821.514 100.416 832.455 Q93.1591 843.34 79.36 843.34 Q65.5609 843.34 58.249 832.455 Q50.9921 821.514 50.9921 800.788 Q50.9921 780.007 58.249 769.122 Q65.5609 758.181 79.36 758.181 Z" fill="#000000" fill-rule="evenodd" fill-opacity="1" /><path clip-path="url(#clip230)" d="M127.245 827.782 L138.845 827.782 L138.845 841.746 L127.245 841.746 L127.245 827.782 Z" fill="#000000" fill-rule="evenodd" fill-opacity="1" /><path clip-path="url(#clip230)" d="M186.784 802.767 Q178.868 802.767 174.305 807.001 Q169.796 811.234 169.796 818.656 Q169.796 826.077 174.305 830.311 Q178.868 834.544 186.784 834.544 Q194.701 834.544 199.264 830.311 Q203.827 826.022 203.827 818.656 Q203.827 811.234 199.264 807.001 Q194.756 802.767 186.784 802.767 M175.679 798.039 Q168.532 796.28 164.519 791.387 Q160.56 786.494 160.56 779.457 Q160.56 769.617 167.542 763.899 Q174.579 758.181 186.784 758.181 Q199.044 758.181 206.026 763.899 Q213.008 769.617 213.008 779.457 Q213.008 786.494 208.995 791.387 Q205.036 796.28 197.944 798.039 Q205.971 799.909 210.424 805.351 Q214.932 810.794 214.932 818.656 Q214.932 830.586 207.62 836.963 Q200.363 843.34 186.784 843.34 Q173.205 843.34 165.893 836.963 Q158.636 830.586 158.636 818.656 Q158.636 810.794 163.144 805.351 Q167.652 799.909 175.679 798.039 M171.611 780.502 Q171.611 786.879 175.569 790.453 Q179.582 794.026 186.784 794.026 Q193.931 794.026 197.944 790.453 Q202.013 786.879 202.013 780.502 Q202.013 774.125 197.944 770.551 Q193.931 766.978 186.784 766.978 Q179.582 766.978 175.569 770.551 Q171.611 774.125 171.611 780.502 Z" fill="#000000" fill-rule="evenodd" fill-opacity="1" /><path clip-path="url(#clip230)" d="M79.5799 408.006 Q71.0036 408.006 66.6604 416.472 Q62.3723 424.884 62.3723 441.816 Q62.3723 458.694 66.6604 467.161 Q71.0036 475.572 79.5799 475.572 Q88.2113 475.572 92.4994 467.161 Q96.8426 458.694 96.8426 441.816 Q96.8426 424.884 92.4994 416.472 Q88.2113 408.006 79.5799 408.006 M79.5799 399.21 Q93.3791 399.21 100.636 410.15 Q107.948 421.035 107.948 441.816 Q107.948 462.543 100.636 473.483 Q93.3791 484.368 79.5799 484.368 Q65.7808 484.368 58.4689 473.483 Q51.212 462.543 51.212 441.816 Q51.212 421.035 58.4689 410.15 Q65.7808 399.21 79.5799 399.21 Z" fill="#000000" fill-rule="evenodd" fill-opacity="1" /><path clip-path="url(#clip230)" d="M127.465 468.81 L139.065 468.81 L139.065 482.774 L127.465 482.774 L127.465 468.81 Z" fill="#000000" fill-rule="evenodd" fill-opacity="1" /><path clip-path="url(#clip230)" d="M163.584 481.07 L163.584 470.954 Q167.762 472.933 172.051 473.978 Q176.339 475.022 180.462 475.022 Q191.457 475.022 197.23 467.655 Q203.057 460.234 203.882 445.17 Q200.693 449.898 195.8 452.427 Q190.907 454.956 184.97 454.956 Q172.655 454.956 165.453 447.534 Q158.306 440.057 158.306 427.138 Q158.306 414.493 165.783 406.851 Q173.26 399.21 185.685 399.21 Q199.924 399.21 207.4 410.15 Q214.932 421.035 214.932 441.816 Q214.932 461.223 205.696 472.823 Q196.515 484.368 180.957 484.368 Q176.778 484.368 172.49 483.544 Q168.202 482.719 163.584 481.07 M185.685 446.27 Q193.162 446.27 197.505 441.157 Q201.903 436.044 201.903 427.138 Q201.903 418.287 197.505 413.174 Q193.162 408.006 185.685 408.006 Q178.208 408.006 173.81 413.174 Q169.467 418.287 169.467 427.138 Q169.467 436.044 173.81 441.157 Q178.208 446.27 185.685 446.27 Z" fill="#000000" fill-rule="evenodd" fill-opacity="1" /><path clip-path="url(#clip230)" d="M57.3144 114.456 L75.4567 114.456 L75.4567 51.838 L55.7201 55.7963 L55.7201 45.6806 L75.3467 41.7223 L86.452 41.7223 L86.452 114.456 L104.594 114.456 L104.594 123.802 L57.3144 123.802 L57.3144 114.456 Z" fill="#000000" fill-rule="evenodd" fill-opacity="1" /><path clip-path="url(#clip230)" d="M127.025 109.838 L138.625 109.838 L138.625 123.802 L127.025 123.802 L127.025 109.838 Z" fill="#000000" fill-rule="evenodd" fill-opacity="1" /><path clip-path="url(#clip230)" d="M186.564 49.0342 Q177.988 49.0342 173.645 57.5005 Q169.357 65.912 169.357 82.8447 Q169.357 99.7225 173.645 108.189 Q177.988 116.6 186.564 116.6 Q195.196 116.6 199.484 108.189 Q203.827 99.7225 203.827 82.8447 Q203.827 65.912 199.484 57.5005 Q195.196 49.0342 186.564 49.0342 M186.564 40.2379 Q200.363 40.2379 207.62 51.1782 Q214.932 62.0636 214.932 82.8447 Q214.932 103.571 207.62 114.511 Q200.363 125.397 186.564 125.397 Q172.765 125.397 165.453 114.511 Q158.196 103.571 158.196 82.8447 Q158.196 62.0636 165.453 51.1782 Q172.765 40.2379 186.564 40.2379 Z" fill="#000000" fill-rule="evenodd" fill-opacity="1" /><polyline clip-path="url(#clip232)" style="stroke:#009af9; stroke-linecap:butt; stroke-linejoin:round; stroke-width:8; stroke-opacity:1; fill:none" points="
  310.418,82.7623 359.989,118.498 409.56,153.879 459.132,188.907 508.703,223.586 558.274,257.92 607.846,291.913 657.417,325.567 706.988,358.885 756.56,391.873 
  806.131,424.532 855.702,456.865 905.274,488.877 954.845,520.57 1004.42,551.948 1053.99,583.013 1103.56,613.769 1153.13,644.219 1202.7,674.366 1252.27,704.212 
  1301.84,733.762 1351.42,763.017 1400.99,791.981 1450.56,820.657 1500.13,849.047 1549.7,877.155 1599.27,904.982 1648.84,932.533 1698.41,959.81 1747.99,986.815 
  1797.56,1013.55 1847.13,1040.02 1896.7,1066.23 1946.27,1092.17 1995.84,1117.86 2045.41,1143.29 2094.99,1168.47 2144.56,1193.4 2194.13,1218.08 2243.7,1242.51 
  2293.27,1266.7 
  "/>
<path clip-path="url(#clip230)" d="
M1666.41 335.317 L2282.7 335.317 L2282.7 89.0766 L1666.41 89.0766  Z
  " fill="#ffffff" fill-rule="evenodd" fill-opacity="1"/>
<polyline clip-path="url(#clip230)" style="stroke:#000000; stroke-linecap:butt; stroke-linejoin:round; stroke-width:4; stroke-opacity:1; fill:none" points="
  1666.41,335.317 2282.7,335.317 2282.7,89.0766 1666.41,89.0766 1666.41,335.317 
  "/>
<polyline clip-path="url(#clip230)" style="stroke:#009af9; stroke-linecap:butt; stroke-linejoin:round; stroke-width:9.5; stroke-opacity:1; fill:none" points="
  1689.77,212.197 1829.89,212.197 
  "/>
<path clip-path="url(#clip230)" d="M1910.31 219.921 L1910.31 224.869 L1863.8 224.869 Q1864.46 235.314 1870.06 240.812 Q1875.73 246.255 1885.79 246.255 Q1891.61 246.255 1897.06 244.825 Q1902.56 243.396 1907.94 240.537 L1907.94 250.103 Q1902.5 252.412 1896.78 253.621 Q1891.07 254.831 1885.18 254.831 Q1870.45 254.831 1861.82 246.255 Q1853.24 237.678 1853.24 223.054 Q1853.24 207.936 1861.38 199.085 Q1869.57 190.179 1883.42 190.179 Q1895.85 190.179 1903.05 198.205 Q1910.31 206.177 1910.31 219.921 M1900.19 216.952 Q1900.08 208.651 1895.52 203.703 Q1891.01 198.755 1883.53 198.755 Q1875.07 198.755 1869.95 203.538 Q1864.9 208.321 1864.13 217.007 L1900.19 216.952 Z" fill="#000000" fill-rule="evenodd" fill-opacity="1" /><path clip-path="url(#clip230)" d="M1978.09 216.072 L1978.09 253.237 L1967.98 253.237 L1967.98 216.402 Q1967.98 207.661 1964.57 203.318 Q1961.16 198.975 1954.34 198.975 Q1946.15 198.975 1941.42 204.198 Q1936.7 209.42 1936.7 218.436 L1936.7 253.237 L1926.52 253.237 L1926.52 191.663 L1936.7 191.663 L1936.7 201.229 Q1940.32 195.676 1945.22 192.927 Q1950.16 190.179 1956.6 190.179 Q1967.21 190.179 1972.65 196.776 Q1978.09 203.318 1978.09 216.072 Z" fill="#000000" fill-rule="evenodd" fill-opacity="1" /><path clip-path="url(#clip230)" d="M2050.94 219.921 L2050.94 224.869 L2004.43 224.869 Q2005.09 235.314 2010.69 240.812 Q2016.36 246.255 2026.42 246.255 Q2032.24 246.255 2037.69 244.825 Q2043.19 243.396 2048.57 240.537 L2048.57 250.103 Q2043.13 252.412 2037.41 253.621 Q2031.7 254.831 2025.81 254.831 Q2011.08 254.831 2002.45 246.255 Q1993.87 237.678 1993.87 223.054 Q1993.87 207.936 2002.01 199.085 Q2010.2 190.179 2024.05 190.179 Q2036.48 190.179 2043.68 198.205 Q2050.94 206.177 2050.94 219.921 M2040.82 216.952 Q2040.71 208.651 2036.15 203.703 Q2031.64 198.755 2024.16 198.755 Q2015.7 198.755 2010.58 203.538 Q2005.53 208.321 2004.76 217.007 L2040.82 216.952 Z" fill="#000000" fill-rule="evenodd" fill-opacity="1" /><path clip-path="url(#clip230)" d="M2103.22 201.119 Q2101.52 200.129 2099.48 199.689 Q2097.5 199.195 2095.08 199.195 Q2086.51 199.195 2081.89 204.802 Q2077.33 210.355 2077.33 220.8 L2077.33 253.237 L2067.15 253.237 L2067.15 191.663 L2077.33 191.663 L2077.33 201.229 Q2080.51 195.621 2085.63 192.927 Q2090.74 190.179 2098.05 190.179 Q2099.1 190.179 2100.36 190.343 Q2101.63 190.453 2103.16 190.728 L2103.22 201.119 Z" fill="#000000" fill-rule="evenodd" fill-opacity="1" /><path clip-path="url(#clip230)" d="M2152.37 221.735 Q2152.37 210.74 2147.81 204.692 Q2143.3 198.645 2135.11 198.645 Q2126.97 198.645 2122.41 204.692 Q2117.9 210.74 2117.9 221.735 Q2117.9 232.675 2122.41 238.723 Q2126.97 244.77 2135.11 244.77 Q2143.3 244.77 2147.81 238.723 Q2152.37 232.675 2152.37 221.735 M2162.48 245.595 Q2162.48 261.318 2155.5 268.96 Q2148.52 276.657 2134.12 276.657 Q2128.78 276.657 2124.06 275.832 Q2119.33 275.062 2114.87 273.413 L2114.87 263.572 Q2119.33 265.991 2123.67 267.146 Q2128.01 268.3 2132.52 268.3 Q2142.47 268.3 2147.42 263.077 Q2152.37 257.91 2152.37 247.409 L2152.37 242.406 Q2149.23 247.849 2144.34 250.543 Q2139.45 253.237 2132.63 253.237 Q2121.31 253.237 2114.38 244.605 Q2107.45 235.974 2107.45 221.735 Q2107.45 207.441 2114.38 198.81 Q2121.31 190.179 2132.63 190.179 Q2139.45 190.179 2144.34 192.872 Q2149.23 195.566 2152.37 201.009 L2152.37 191.663 L2162.48 191.663 L2162.48 245.595 Z" fill="#000000" fill-rule="evenodd" fill-opacity="1" /><path clip-path="url(#clip230)" d="M2208.94 258.954 Q2204.65 269.949 2200.58 273.303 Q2196.51 276.657 2189.7 276.657 L2181.62 276.657 L2181.62 268.19 L2187.55 268.19 Q2191.73 268.19 2194.04 266.211 Q2196.35 264.232 2199.15 256.865 L2200.97 252.247 L2176.06 191.663 L2186.78 191.663 L2206.03 239.822 L2225.27 191.663 L2235.99 191.663 L2208.94 258.954 Z" fill="#000000" fill-rule="evenodd" fill-opacity="1" /></svg>
