<?xml version="1.0" encoding="utf-8"?>
<svg xmlns="http://www.w3.org/2000/svg" xmlns:xlink="http://www.w3.org/1999/xlink" width="600" height="400" viewBox="0 0 2400 1600">
<defs>
  <clipPath id="clip710">
    <rect x="0" y="0" width="2400" height="1600"/>
  </clipPath>
</defs>
<path clip-path="url(#clip710)" d="
M0 1600 L2400 1600 L2400 0 L0 0  Z
  " fill="#ffffff" fill-rule="evenodd" fill-opacity="1"/>
<defs>
  <clipPath id="clip711">
    <rect x="480" y="0" width="1681" height="1600"/>
  </clipPath>
</defs>
<path clip-path="url(#clip710)" d="
M173.276 1401.58 L2352.76 1401.58 L2352.76 47.2441 L173.276 47.2441  Z
  " fill="#ffffff" fill-rule="evenodd" fill-opacity="1"/>
<defs>
  <clipPath id="clip712">
    <rect x="173" y="47" width="2180" height="1355"/>
  </clipPath>
</defs>
<polyline clip-path="url(#clip712)" style="stroke:#000000; stroke-linecap:butt; stroke-linejoin:round; stroke-width:2; stroke-opacity:0.1; fill:none" points="
  234.96,1401.58 234.96,47.2441 
  "/>
<polyline clip-path="url(#clip712)" style="stroke:#000000; stroke-linecap:butt; stroke-linejoin:round; stroke-width:2; stroke-opacity:0.1; fill:none" points="
  748.988,1401.58 748.988,47.2441 
  "/>
<polyline clip-path="url(#clip712)" style="stroke:#000000; stroke-linecap:butt; stroke-linejoin:round; stroke-width:2; stroke-opacity:0.1; fill:none" points="
  1263.02,1401.58 1263.02,47.2441 
  "/>
<polyline clip-path="url(#clip712)" style="stroke:#000000; stroke-linecap:butt; stroke-linejoin:round; stroke-width:2; stroke-opacity:0.1; fill:none" points="
  1777.04,1401.58 1777.04,47.2441 
  "/>
<polyline clip-path="url(#clip712)" style="stroke:#000000; stroke-linecap:butt; stroke-linejoin:round; stroke-width:2; stroke-opacity:0.1; fill:none" points="
  2291.07,1401.58 2291.07,47.2441 
  "/>
<polyline clip-path="url(#clip710)" style="stroke:#000000; stroke-linecap:butt; stroke-linejoin:round; stroke-width:4; stroke-opacity:1; fill:none" points="
  173.276,1401.58 2352.76,1401.58 
  "/>
<polyline clip-path="url(#clip710)" style="stroke:#000000; stroke-linecap:butt; stroke-linejoin:round; stroke-width:4; stroke-opacity:1; fill:none" points="
  234.96,1401.58 234.96,1382.68 
  "/>
<polyline clip-path="url(#clip710)" style="stroke:#000000; stroke-linecap:butt; stroke-linejoin:round; stroke-width:4; stroke-opacity:1; fill:none" points="
  748.988,1401.58 748.988,1382.68 
  "/>
<polyline clip-path="url(#clip710)" style="stroke:#000000; stroke-linecap:butt; stroke-linejoin:round; stroke-width:4; stroke-opacity:1; fill:none" points="
  1263.02,1401.58 1263.02,1382.68 
  "/>
<polyline clip-path="url(#clip710)" style="stroke:#000000; stroke-linecap:butt; stroke-linejoin:round; stroke-width:4; stroke-opacity:1; fill:none" points="
  1777.04,1401.58 1777.04,1382.68 
  "/>
<polyline clip-path="url(#clip710)" style="stroke:#000000; stroke-linecap:butt; stroke-linejoin:round; stroke-width:4; stroke-opacity:1; fill:none" points="
  2291.07,1401.58 2291.07,1382.68 
  "/>
<path clip-path="url(#clip710)" d="M206.69 1435.43 Q202.176 1435.43 199.891 1439.88 Q197.634 1444.31 197.634 1453.22 Q197.634 1462.11 199.891 1466.56 Q202.176 1470.99 206.69 1470.99 Q211.233 1470.99 213.49 1466.56 Q215.776 1462.11 215.776 1453.22 Q215.776 1444.31 213.49 1439.88 Q211.233 1435.43 206.69 1435.43 M206.69 1430.8 Q213.953 1430.8 217.772 1436.56 Q221.621 1442.29 221.621 1453.22 Q221.621 1464.13 217.772 1469.89 Q213.953 1475.62 206.69 1475.62 Q199.428 1475.62 195.579 1469.89 Q191.76 1464.13 191.76 1453.22 Q191.76 1442.29 195.579 1436.56 Q199.428 1430.8 206.69 1430.8 Z" fill="#000000" fill-rule="evenodd" fill-opacity="1" /><path clip-path="url(#clip710)" d="M231.893 1467.43 L237.998 1467.43 L237.998 1474.78 L231.893 1474.78 L231.893 1467.43 Z" fill="#000000" fill-rule="evenodd" fill-opacity="1" /><path clip-path="url(#clip710)" d="M263.229 1435.43 Q258.715 1435.43 256.43 1439.88 Q254.173 1444.31 254.173 1453.22 Q254.173 1462.11 256.43 1466.56 Q258.715 1470.99 263.229 1470.99 Q267.772 1470.99 270.029 1466.56 Q272.315 1462.11 272.315 1453.22 Q272.315 1444.31 270.029 1439.88 Q267.772 1435.43 263.229 1435.43 M263.229 1430.8 Q270.492 1430.8 274.311 1436.56 Q278.16 1442.29 278.16 1453.22 Q278.16 1464.13 274.311 1469.89 Q270.492 1475.62 263.229 1475.62 Q255.967 1475.62 252.118 1469.89 Q248.299 1464.13 248.299 1453.22 Q248.299 1442.29 252.118 1436.56 Q255.967 1430.8 263.229 1430.8 Z" fill="#000000" fill-rule="evenodd" fill-opacity="1" /><path clip-path="url(#clip710)" d="M721.341 1435.43 Q716.827 1435.43 714.541 1439.88 Q712.284 1444.31 712.284 1453.22 Q712.284 1462.11 714.541 1466.56 Q716.827 1470.99 721.341 1470.99 Q725.883 1470.99 728.14 1466.56 Q730.426 1462.11 730.426 1453.22 Q730.426 1444.31 728.14 1439.88 Q725.883 1435.43 721.341 1435.43 M721.341 1430.8 Q728.603 1430.8 732.423 1436.56 Q736.271 1442.29 736.271 1453.22 Q736.271 1464.13 732.423 1469.89 Q728.603 1475.62 721.341 1475.62 Q714.078 1475.62 710.229 1469.89 Q706.41 1464.13 706.41 1453.22 Q706.41 1442.29 710.229 1436.56 Q714.078 1430.8 721.341 1430.8 Z" fill="#000000" fill-rule="evenodd" fill-opacity="1" /><path clip-path="url(#clip710)" d="M746.543 1467.43 L752.648 1467.43 L752.648 1474.78 L746.543 1474.78 L746.543 1467.43 Z" fill="#000000" fill-rule="evenodd" fill-opacity="1" /><path clip-path="url(#clip710)" d="M765.438 1431.58 L788.383 1431.58 L788.383 1436.5 L770.791 1436.5 L770.791 1447.09 Q772.064 1446.65 773.337 1446.45 Q774.61 1446.22 775.883 1446.22 Q783.117 1446.22 787.341 1450.19 Q791.566 1454.15 791.566 1460.92 Q791.566 1467.89 787.226 1471.77 Q782.885 1475.62 774.986 1475.62 Q772.266 1475.62 769.431 1475.16 Q766.624 1474.69 763.615 1473.77 L763.615 1467.89 Q766.219 1469.31 768.997 1470.01 Q771.774 1470.7 774.87 1470.7 Q779.876 1470.7 782.799 1468.07 Q785.721 1465.43 785.721 1460.92 Q785.721 1456.41 782.799 1453.77 Q779.876 1451.14 774.87 1451.14 Q772.527 1451.14 770.183 1451.66 Q767.868 1452.18 765.438 1453.28 L765.438 1431.58 Z" fill="#000000" fill-rule="evenodd" fill-opacity="1" /><path clip-path="url(#clip710)" d="M1221.96 1469.86 L1231.51 1469.86 L1231.51 1436.9 L1221.12 1438.99 L1221.12 1433.66 L1231.45 1431.58 L1237.29 1431.58 L1237.29 1469.86 L1246.84 1469.86 L1246.84 1474.78 L1221.96 1474.78 L1221.96 1469.86 Z" fill="#000000" fill-rule="evenodd" fill-opacity="1" /><path clip-path="url(#clip710)" d="M1258.65 1467.43 L1264.75 1467.43 L1264.75 1474.78 L1258.65 1474.78 L1258.65 1467.43 Z" fill="#000000" fill-rule="evenodd" fill-opacity="1" /><path clip-path="url(#clip710)" d="M1289.98 1435.43 Q1285.47 1435.43 1283.18 1439.88 Q1280.93 1444.31 1280.93 1453.22 Q1280.93 1462.11 1283.18 1466.56 Q1285.47 1470.99 1289.98 1470.99 Q1294.53 1470.99 1296.78 1466.56 Q1299.07 1462.11 1299.07 1453.22 Q1299.07 1444.31 1296.78 1439.88 Q1294.53 1435.43 1289.98 1435.43 M1289.98 1430.8 Q1297.25 1430.8 1301.07 1436.56 Q1304.91 1442.29 1304.91 1453.22 Q1304.91 1464.13 1301.07 1469.89 Q1297.25 1475.62 1289.98 1475.62 Q1282.72 1475.62 1278.87 1469.89 Q1275.05 1464.13 1275.05 1453.22 Q1275.05 1442.29 1278.87 1436.56 Q1282.72 1430.8 1289.98 1430.8 Z" fill="#000000" fill-rule="evenodd" fill-opacity="1" /><path clip-path="url(#clip710)" d="M1736.61 1469.86 L1746.16 1469.86 L1746.16 1436.9 L1735.77 1438.99 L1735.77 1433.66 L1746.1 1431.58 L1751.94 1431.58 L1751.94 1469.86 L1761.49 1469.86 L1761.49 1474.78 L1736.61 1474.78 L1736.61 1469.86 Z" fill="#000000" fill-rule="evenodd" fill-opacity="1" /><path clip-path="url(#clip710)" d="M1773.3 1467.43 L1779.4 1467.43 L1779.4 1474.78 L1773.3 1474.78 L1773.3 1467.43 Z" fill="#000000" fill-rule="evenodd" fill-opacity="1" /><path clip-path="url(#clip710)" d="M1792.19 1431.58 L1815.14 1431.58 L1815.14 1436.5 L1797.54 1436.5 L1797.54 1447.09 Q1798.82 1446.65 1800.09 1446.45 Q1801.36 1446.22 1802.64 1446.22 Q1809.87 1446.22 1814.1 1450.19 Q1818.32 1454.15 1818.32 1460.92 Q1818.32 1467.89 1813.98 1471.77 Q1809.64 1475.62 1801.74 1475.62 Q1799.02 1475.62 1796.18 1475.16 Q1793.38 1474.69 1790.37 1473.77 L1790.37 1467.89 Q1792.97 1469.31 1795.75 1470.01 Q1798.53 1470.7 1801.62 1470.7 Q1806.63 1470.7 1809.55 1468.07 Q1812.48 1465.43 1812.48 1460.92 Q1812.48 1456.41 1809.55 1453.77 Q1806.63 1451.14 1801.62 1451.14 Q1799.28 1451.14 1796.94 1451.66 Q1794.62 1452.18 1792.19 1453.28 L1792.19 1431.58 Z" fill="#000000" fill-rule="evenodd" fill-opacity="1" /><path clip-path="url(#clip710)" d="M2255.12 1469.86 L2275.52 1469.86 L2275.52 1474.78 L2248.09 1474.78 L2248.09 1469.86 Q2251.42 1466.42 2257.15 1460.63 Q2262.9 1454.81 2264.38 1453.14 Q2267.19 1449.98 2268.29 1447.81 Q2269.41 1445.61 2269.41 1443.5 Q2269.41 1440.06 2266.98 1437.89 Q2264.58 1435.72 2260.71 1435.72 Q2257.96 1435.72 2254.89 1436.67 Q2251.85 1437.63 2248.38 1439.57 L2248.38 1433.66 Q2251.91 1432.25 2254.98 1431.52 Q2258.04 1430.8 2260.59 1430.8 Q2267.3 1430.8 2271.3 1434.16 Q2275.29 1437.51 2275.29 1443.12 Q2275.29 1445.79 2274.28 1448.19 Q2273.29 1450.56 2270.66 1453.8 Q2269.94 1454.64 2266.06 1458.66 Q2262.18 1462.66 2255.12 1469.86 Z" fill="#000000" fill-rule="evenodd" fill-opacity="1" /><path clip-path="url(#clip710)" d="M2287.79 1467.43 L2293.89 1467.43 L2293.89 1474.78 L2287.79 1474.78 L2287.79 1467.43 Z" fill="#000000" fill-rule="evenodd" fill-opacity="1" /><path clip-path="url(#clip710)" d="M2319.13 1435.43 Q2314.61 1435.43 2312.33 1439.88 Q2310.07 1444.31 2310.07 1453.22 Q2310.07 1462.11 2312.33 1466.56 Q2314.61 1470.99 2319.13 1470.99 Q2323.67 1470.99 2325.92 1466.56 Q2328.21 1462.11 2328.21 1453.22 Q2328.21 1444.31 2325.92 1439.88 Q2323.67 1435.43 2319.13 1435.43 M2319.13 1430.8 Q2326.39 1430.8 2330.21 1436.56 Q2334.06 1442.29 2334.06 1453.22 Q2334.06 1464.13 2330.21 1469.89 Q2326.39 1475.62 2319.13 1475.62 Q2311.86 1475.62 2308.01 1469.89 Q2304.19 1464.13 2304.19 1453.22 Q2304.19 1442.29 2308.01 1436.56 Q2311.86 1430.8 2319.13 1430.8 Z" fill="#000000" fill-rule="evenodd" fill-opacity="1" /><path clip-path="url(#clip710)" d="M1261.82 1516.7 L1261.82 1529.59 L1277.17 1529.59 L1277.17 1535.38 L1261.82 1535.38 L1261.82 1560.01 Q1261.82 1565.56 1263.32 1567.14 Q1264.86 1568.72 1269.52 1568.72 L1277.17 1568.72 L1277.17 1574.96 L1269.52 1574.96 Q1260.89 1574.96 1257.61 1571.76 Q1254.33 1568.51 1254.33 1560.01 L1254.33 1535.38 L1248.86 1535.38 L1248.86 1529.59 L1254.33 1529.59 L1254.33 1516.7 L1261.82 1516.7 Z" fill="#000000" fill-rule="evenodd" fill-opacity="1" /><polyline clip-path="url(#clip712)" style="stroke:#000000; stroke-linecap:butt; stroke-linejoin:round; stroke-width:2; stroke-opacity:0.1; fill:none" points="
  173.276,1247.75 2352.76,1247.75 
  "/>
<polyline clip-path="url(#clip712)" style="stroke:#000000; stroke-linecap:butt; stroke-linejoin:round; stroke-width:2; stroke-opacity:0.1; fill:none" points="
  173.276,860.359 2352.76,860.359 
  "/>
<polyline clip-path="url(#clip712)" style="stroke:#000000; stroke-linecap:butt; stroke-linejoin:round; stroke-width:2; stroke-opacity:0.1; fill:none" points="
  173.276,472.967 2352.76,472.967 
  "/>
<polyline clip-path="url(#clip712)" style="stroke:#000000; stroke-linecap:butt; stroke-linejoin:round; stroke-width:2; stroke-opacity:0.1; fill:none" points="
  173.276,85.5744 2352.76,85.5744 
  "/>
<polyline clip-path="url(#clip710)" style="stroke:#000000; stroke-linecap:butt; stroke-linejoin:round; stroke-width:4; stroke-opacity:1; fill:none" points="
  173.276,1401.58 173.276,47.2441 
  "/>
<polyline clip-path="url(#clip710)" style="stroke:#000000; stroke-linecap:butt; stroke-linejoin:round; stroke-width:4; stroke-opacity:1; fill:none" points="
  173.276,1247.75 192.174,1247.75 
  "/>
<polyline clip-path="url(#clip710)" style="stroke:#000000; stroke-linecap:butt; stroke-linejoin:round; stroke-width:4; stroke-opacity:1; fill:none" points="
  173.276,860.359 192.174,860.359 
  "/>
<polyline clip-path="url(#clip710)" style="stroke:#000000; stroke-linecap:butt; stroke-linejoin:round; stroke-width:4; stroke-opacity:1; fill:none" points="
  173.276,472.967 192.174,472.967 
  "/>
<polyline clip-path="url(#clip710)" style="stroke:#000000; stroke-linecap:butt; stroke-linejoin:round; stroke-width:4; stroke-opacity:1; fill:none" points="
  173.276,85.5744 192.174,85.5744 
  "/>
<path clip-path="url(#clip710)" d="M66.9353 1230 Q62.4215 1230 60.1356 1234.46 Q57.8787 1238.88 57.8787 1247.8 Q57.8787 1256.68 60.1356 1261.13 Q62.4215 1265.56 66.9353 1265.56 Q71.4781 1265.56 73.7351 1261.13 Q76.0209 1256.68 76.0209 1247.8 Q76.0209 1238.88 73.7351 1234.46 Q71.4781 1230 66.9353 1230 M66.9353 1225.37 Q74.198 1225.37 78.0174 1231.13 Q81.8658 1236.86 81.8658 1247.8 Q81.8658 1258.7 78.0174 1264.46 Q74.198 1270.19 66.9353 1270.19 Q59.6726 1270.19 55.8243 1264.46 Q52.0049 1258.7 52.0049 1247.8 Q52.0049 1236.86 55.8243 1231.13 Q59.6726 1225.37 66.9353 1225.37 Z" fill="#000000" fill-rule="evenodd" fill-opacity="1" /><path clip-path="url(#clip710)" d="M92.1377 1262 L98.243 1262 L98.243 1269.35 L92.1377 1269.35 L92.1377 1262 Z" fill="#000000" fill-rule="evenodd" fill-opacity="1" /><path clip-path="url(#clip710)" d="M109.499 1226.15 L137.276 1226.15 L137.276 1228.64 L121.594 1269.35 L115.488 1269.35 L130.245 1231.07 L109.499 1231.07 L109.499 1226.15 Z" fill="#000000" fill-rule="evenodd" fill-opacity="1" /><path clip-path="url(#clip710)" d="M65.9226 842.608 Q61.4087 842.608 59.1229 847.064 Q56.8659 851.491 56.8659 860.403 Q56.8659 869.286 59.1229 873.742 Q61.4087 878.169 65.9226 878.169 Q70.4654 878.169 72.7223 873.742 Q75.0082 869.286 75.0082 860.403 Q75.0082 851.491 72.7223 847.064 Q70.4654 842.608 65.9226 842.608 M65.9226 837.978 Q73.1853 837.978 77.0047 843.736 Q80.8531 849.465 80.8531 860.403 Q80.8531 871.311 77.0047 877.069 Q73.1853 882.799 65.9226 882.799 Q58.6599 882.799 54.8115 877.069 Q50.9921 871.311 50.9921 860.403 Q50.9921 849.465 54.8115 843.736 Q58.6599 837.978 65.9226 837.978 Z" fill="#000000" fill-rule="evenodd" fill-opacity="1" /><path clip-path="url(#clip710)" d="M91.125 874.61 L97.2303 874.61 L97.2303 881.959 L91.125 881.959 L91.125 874.61 Z" fill="#000000" fill-rule="evenodd" fill-opacity="1" /><path clip-path="url(#clip710)" d="M122.462 861.445 Q118.295 861.445 115.893 863.673 Q113.521 865.901 113.521 869.807 Q113.521 873.713 115.893 875.941 Q118.295 878.169 122.462 878.169 Q126.628 878.169 129.03 875.941 Q131.432 873.684 131.432 869.807 Q131.432 865.901 129.03 863.673 Q126.657 861.445 122.462 861.445 M116.617 858.956 Q112.855 858.03 110.743 855.455 Q108.66 852.88 108.66 849.176 Q108.66 843.997 112.334 840.987 Q116.038 837.978 122.462 837.978 Q128.914 837.978 132.589 840.987 Q136.264 843.997 136.264 849.176 Q136.264 852.88 134.151 855.455 Q132.068 858.03 128.335 858.956 Q132.56 859.94 134.904 862.804 Q137.276 865.669 137.276 869.807 Q137.276 876.086 133.428 879.442 Q129.609 882.799 122.462 882.799 Q115.315 882.799 111.466 879.442 Q107.647 876.086 107.647 869.807 Q107.647 865.669 110.02 862.804 Q112.392 859.94 116.617 858.956 M114.476 849.726 Q114.476 853.082 116.559 854.963 Q118.671 856.844 122.462 856.844 Q126.223 856.844 128.335 854.963 Q130.477 853.082 130.477 849.726 Q130.477 846.369 128.335 844.489 Q126.223 842.608 122.462 842.608 Q118.671 842.608 116.559 844.489 Q114.476 846.369 114.476 849.726 Z" fill="#000000" fill-rule="evenodd" fill-opacity="1" /><path clip-path="url(#clip710)" d="M66.0383 455.215 Q61.5245 455.215 59.2386 459.671 Q56.9817 464.098 56.9817 473.01 Q56.9817 481.893 59.2386 486.349 Q61.5245 490.776 66.0383 490.776 Q70.5811 490.776 72.8381 486.349 Q75.1239 481.893 75.1239 473.01 Q75.1239 464.098 72.8381 459.671 Q70.5811 455.215 66.0383 455.215 M66.0383 450.586 Q73.301 450.586 77.1205 456.344 Q80.9688 462.073 80.9688 473.01 Q80.9688 483.919 77.1205 489.677 Q73.301 495.406 66.0383 495.406 Q58.7756 495.406 54.9273 489.677 Q51.1079 483.919 51.1079 473.01 Q51.1079 462.073 54.9273 456.344 Q58.7756 450.586 66.0383 450.586 Z" fill="#000000" fill-rule="evenodd" fill-opacity="1" /><path clip-path="url(#clip710)" d="M91.2408 487.217 L97.346 487.217 L97.346 494.567 L91.2408 494.567 L91.2408 487.217 Z" fill="#000000" fill-rule="evenodd" fill-opacity="1" /><path clip-path="url(#clip710)" d="M110.251 493.67 L110.251 488.346 Q112.45 489.388 114.707 489.937 Q116.964 490.487 119.134 490.487 Q124.921 490.487 127.959 486.61 Q131.026 482.704 131.46 474.775 Q129.782 477.264 127.207 478.595 Q124.632 479.926 121.507 479.926 Q115.025 479.926 111.235 476.02 Q107.473 472.084 107.473 465.285 Q107.473 458.63 111.408 454.608 Q115.344 450.586 121.883 450.586 Q129.377 450.586 133.312 456.344 Q137.276 462.073 137.276 473.01 Q137.276 483.224 132.415 489.33 Q127.583 495.406 119.395 495.406 Q117.195 495.406 114.939 494.972 Q112.682 494.538 110.251 493.67 M121.883 475.354 Q125.818 475.354 128.104 472.663 Q130.419 469.972 130.419 465.285 Q130.419 460.626 128.104 457.935 Q125.818 455.215 121.883 455.215 Q117.948 455.215 115.633 457.935 Q113.347 460.626 113.347 465.285 Q113.347 469.972 115.633 472.663 Q117.948 475.354 121.883 475.354 Z" fill="#000000" fill-rule="evenodd" fill-opacity="1" /><path clip-path="url(#clip710)" d="M54.3197 102.255 L63.8682 102.255 L63.8682 69.2984 L53.4805 71.3817 L53.4805 66.0577 L63.8103 63.9744 L69.6552 63.9744 L69.6552 102.255 L79.2038 102.255 L79.2038 107.174 L54.3197 107.174 L54.3197 102.255 Z" fill="#000000" fill-rule="evenodd" fill-opacity="1" /><path clip-path="url(#clip710)" d="M91.0093 99.8249 L97.1146 99.8249 L97.1146 107.174 L91.0093 107.174 L91.0093 99.8249 Z" fill="#000000" fill-rule="evenodd" fill-opacity="1" /><path clip-path="url(#clip710)" d="M122.346 67.8227 Q117.832 67.8227 115.546 72.2787 Q113.289 76.7058 113.289 85.6178 Q113.289 94.5008 115.546 98.9568 Q117.832 103.384 122.346 103.384 Q126.889 103.384 129.146 98.9568 Q131.432 94.5008 131.432 85.6178 Q131.432 76.7058 129.146 72.2787 Q126.889 67.8227 122.346 67.8227 M122.346 63.1931 Q129.609 63.1931 133.428 68.9512 Q137.276 74.6803 137.276 85.6178 Q137.276 96.5263 133.428 102.284 Q129.609 108.013 122.346 108.013 Q115.083 108.013 111.235 102.284 Q107.415 96.5263 107.415 85.6178 Q107.415 74.6803 111.235 68.9512 Q115.083 63.1931 122.346 63.1931 Z" fill="#000000" fill-rule="evenodd" fill-opacity="1" /><polyline clip-path="url(#clip712)" style="stroke:#009af9; stroke-linecap:butt; stroke-linejoin:round; stroke-width:12; stroke-opacity:1; fill:none" points="
  234.96,85.5744 255.521,101.047 276.082,116.458 296.643,131.807 317.204,147.094 337.765,162.321 358.327,177.487 378.888,192.593 399.449,207.638 420.01,222.623 
  440.571,237.548 461.132,252.413 481.693,267.219 502.254,281.966 522.816,296.654 543.377,311.284 563.938,325.855 584.499,340.368 605.06,354.822 625.621,369.219 
  646.182,383.559 666.743,397.841 687.305,412.067 707.866,426.235 728.427,440.347 748.988,454.402 769.549,468.402 790.11,482.345 810.671,496.233 831.232,510.065 
  851.794,523.842 872.355,537.564 892.916,551.232 913.477,564.844 934.038,578.403 954.599,591.907 975.16,605.357 995.721,618.753 1016.28,632.096 1036.84,645.386 
  1057.4,658.623 1077.97,671.806 1098.53,684.937 1119.09,698.016 1139.65,711.042 1160.21,724.017 1180.77,736.939 1201.33,749.81 1221.89,762.63 1242.46,775.398 
  1263.02,788.115 1283.58,800.782 1304.14,813.398 1324.7,825.963 1345.26,838.479 1365.82,850.944 1386.38,863.36 1406.94,875.726 1427.51,888.042 1448.07,900.31 
  1468.63,912.528 1489.19,924.698 1509.75,936.819 1530.31,948.891 1550.87,960.916 1571.43,972.892 1591.99,984.821 1612.56,996.701 1633.12,1008.53 1653.68,1020.32 
  1674.24,1032.06 1694.8,1043.75 1715.36,1055.4 1735.92,1067 1756.48,1078.55 1777.04,1090.06 1797.61,1101.52 1818.17,1112.93 1838.73,1124.3 1859.29,1135.62 
  1879.85,1146.9 1900.41,1158.14 1920.97,1169.33 1941.53,1180.47 1962.09,1191.57 1982.66,1202.62 2003.22,1213.63 2023.78,1224.6 2044.34,1235.52 2064.9,1246.4 
  2085.46,1257.24 2106.02,1268.03 2126.58,1278.78 2147.14,1289.49 2167.71,1300.15 2188.27,1310.78 2208.83,1321.35 2229.39,1331.89 2249.95,1342.39 2270.51,1352.84 
  2291.07,1363.25 
  "/>
<path clip-path="url(#clip710)" d="
M1836.5 221.989 L2280.11 221.989 L2280.11 92.3886 L1836.5 92.3886  Z
  " fill="#ffffff" fill-rule="evenodd" fill-opacity="1"/>
<polyline clip-path="url(#clip710)" style="stroke:#000000; stroke-linecap:butt; stroke-linejoin:round; stroke-width:4; stroke-opacity:1; fill:none" points="
  1836.5,221.989 2280.11,221.989 2280.11,92.3886 1836.5,92.3886 1836.5,221.989 
  "/>
<polyline clip-path="url(#clip710)" style="stroke:#009af9; stroke-linecap:butt; stroke-linejoin:round; stroke-width:5; stroke-opacity:1; fill:none" points="
  1860.71,157.189 2006.01,157.189 
  "/>
<path clip-path="url(#clip710)" d="M2060.26 161.254 L2060.26 163.858 L2035.78 163.858 Q2036.13 169.356 2039.08 172.249 Q2042.06 175.114 2047.36 175.114 Q2050.42 175.114 2053.29 174.362 Q2056.18 173.609 2059.02 172.105 L2059.02 177.139 Q2056.15 178.355 2053.14 178.991 Q2050.14 179.628 2047.04 179.628 Q2039.28 179.628 2034.74 175.114 Q2030.23 170.6 2030.23 162.903 Q2030.23 154.946 2034.51 150.288 Q2038.82 145.6 2046.11 145.6 Q2052.65 145.6 2056.44 149.825 Q2060.26 154.02 2060.26 161.254 M2054.94 159.691 Q2054.88 155.322 2052.48 152.718 Q2050.11 150.114 2046.17 150.114 Q2041.72 150.114 2039.02 152.631 Q2036.36 155.149 2035.96 159.72 L2054.94 159.691 Z" fill="#000000" fill-rule="evenodd" fill-opacity="1" /><path clip-path="url(#clip710)" d="M2095.94 159.229 L2095.94 178.789 L2090.62 178.789 L2090.62 159.402 Q2090.62 154.801 2088.82 152.516 Q2087.03 150.23 2083.44 150.23 Q2079.13 150.23 2076.64 152.979 Q2074.15 155.727 2074.15 160.473 L2074.15 178.789 L2068.8 178.789 L2068.8 146.381 L2074.15 146.381 L2074.15 151.416 Q2076.06 148.494 2078.64 147.047 Q2081.24 145.6 2084.63 145.6 Q2090.21 145.6 2093.07 149.072 Q2095.94 152.516 2095.94 159.229 Z" fill="#000000" fill-rule="evenodd" fill-opacity="1" /><path clip-path="url(#clip710)" d="M2134.28 161.254 L2134.28 163.858 L2109.8 163.858 Q2110.15 169.356 2113.1 172.249 Q2116.08 175.114 2121.37 175.114 Q2124.44 175.114 2127.31 174.362 Q2130.2 173.609 2133.03 172.105 L2133.03 177.139 Q2130.17 178.355 2127.16 178.991 Q2124.15 179.628 2121.06 179.628 Q2113.3 179.628 2108.76 175.114 Q2104.24 170.6 2104.24 162.903 Q2104.24 154.946 2108.53 150.288 Q2112.84 145.6 2120.13 145.6 Q2126.67 145.6 2130.46 149.825 Q2134.28 154.02 2134.28 161.254 M2128.95 159.691 Q2128.9 155.322 2126.49 152.718 Q2124.12 150.114 2120.19 150.114 Q2115.73 150.114 2113.04 152.631 Q2110.38 155.149 2109.97 159.72 L2128.95 159.691 Z" fill="#000000" fill-rule="evenodd" fill-opacity="1" /><path clip-path="url(#clip710)" d="M2161.8 151.358 Q2160.9 150.837 2159.83 150.606 Q2158.79 150.345 2157.51 150.345 Q2153 150.345 2150.57 153.297 Q2148.17 156.219 2148.17 161.717 L2148.17 178.789 L2142.81 178.789 L2142.81 146.381 L2148.17 146.381 L2148.17 151.416 Q2149.85 148.465 2152.54 147.047 Q2155.23 145.6 2159.08 145.6 Q2159.63 145.6 2160.29 145.687 Q2160.96 145.745 2161.77 145.889 L2161.8 151.358 Z" fill="#000000" fill-rule="evenodd" fill-opacity="1" /><path clip-path="url(#clip710)" d="M2187.66 162.209 Q2187.66 156.422 2185.26 153.239 Q2182.89 150.056 2178.58 150.056 Q2174.3 150.056 2171.89 153.239 Q2169.52 156.422 2169.52 162.209 Q2169.52 167.967 2171.89 171.15 Q2174.3 174.333 2178.58 174.333 Q2182.89 174.333 2185.26 171.15 Q2187.66 167.967 2187.66 162.209 M2192.99 174.767 Q2192.99 183.042 2189.31 187.064 Q2185.64 191.115 2178.06 191.115 Q2175.25 191.115 2172.76 190.681 Q2170.27 190.276 2167.93 189.408 L2167.93 184.228 Q2170.27 185.502 2172.56 186.109 Q2174.85 186.717 2177.22 186.717 Q2182.46 186.717 2185.06 183.968 Q2187.66 181.248 2187.66 175.722 L2187.66 173.088 Q2186.01 175.953 2183.44 177.371 Q2180.86 178.789 2177.28 178.789 Q2171.32 178.789 2167.67 174.246 Q2164.02 169.703 2164.02 162.209 Q2164.02 154.686 2167.67 150.143 Q2171.32 145.6 2177.28 145.6 Q2180.86 145.6 2183.44 147.018 Q2186.01 148.436 2187.66 151.3 L2187.66 146.381 L2192.99 146.381 L2192.99 174.767 Z" fill="#000000" fill-rule="evenodd" fill-opacity="1" /><path clip-path="url(#clip710)" d="M2217.44 181.798 Q2215.18 187.585 2213.04 189.35 Q2210.9 191.115 2207.31 191.115 L2203.06 191.115 L2203.06 186.659 L2206.18 186.659 Q2208.38 186.659 2209.6 185.617 Q2210.81 184.576 2212.29 180.698 L2213.24 178.268 L2200.13 146.381 L2205.78 146.381 L2215.9 171.728 L2226.03 146.381 L2231.67 146.381 L2217.44 181.798 Z" fill="#000000" fill-rule="evenodd" fill-opacity="1" /></svg>
