<?xml version="1.0" encoding="utf-8"?>
<svg xmlns="http://www.w3.org/2000/svg" xmlns:xlink="http://www.w3.org/1999/xlink" width="600" height="400" viewBox="0 0 2400 1600">
<defs>
  <clipPath id="clip640">
    <rect x="0" y="0" width="2400" height="1600"/>
  </clipPath>
</defs>
<path clip-path="url(#clip640)" d="
M0 1600 L2400 1600 L2400 0 L0 0  Z
  " fill="#ffffff" fill-rule="evenodd" fill-opacity="1"/>
<defs>
  <clipPath id="clip641">
    <rect x="480" y="0" width="1681" height="1600"/>
  </clipPath>
</defs>
<path clip-path="url(#clip640)" d="
M247.408 1375.66 L2352.76 1375.66 L2352.76 47.2441 L247.408 47.2441  Z
  " fill="#ffffff" fill-rule="evenodd" fill-opacity="1"/>
<defs>
  <clipPath id="clip642">
    <rect x="247" y="47" width="2106" height="1329"/>
  </clipPath>
</defs>
<polyline clip-path="url(#clip642)" style="stroke:#000000; stroke-linecap:butt; stroke-linejoin:round; stroke-width:2; stroke-opacity:0.1; fill:none" points="
  352.463,1375.66 352.463,47.2441 
  "/>
<polyline clip-path="url(#clip642)" style="stroke:#000000; stroke-linecap:butt; stroke-linejoin:round; stroke-width:2; stroke-opacity:0.1; fill:none" points="
  673.59,1375.66 673.59,47.2441 
  "/>
<polyline clip-path="url(#clip642)" style="stroke:#000000; stroke-linecap:butt; stroke-linejoin:round; stroke-width:2; stroke-opacity:0.1; fill:none" points="
  994.718,1375.66 994.718,47.2441 
  "/>
<polyline clip-path="url(#clip642)" style="stroke:#000000; stroke-linecap:butt; stroke-linejoin:round; stroke-width:2; stroke-opacity:0.1; fill:none" points="
  1315.85,1375.66 1315.85,47.2441 
  "/>
<polyline clip-path="url(#clip642)" style="stroke:#000000; stroke-linecap:butt; stroke-linejoin:round; stroke-width:2; stroke-opacity:0.1; fill:none" points="
  1636.97,1375.66 1636.97,47.2441 
  "/>
<polyline clip-path="url(#clip642)" style="stroke:#000000; stroke-linecap:butt; stroke-linejoin:round; stroke-width:2; stroke-opacity:0.1; fill:none" points="
  1958.1,1375.66 1958.1,47.2441 
  "/>
<polyline clip-path="url(#clip642)" style="stroke:#000000; stroke-linecap:butt; stroke-linejoin:round; stroke-width:2; stroke-opacity:0.1; fill:none" points="
  2279.23,1375.66 2279.23,47.2441 
  "/>
<polyline clip-path="url(#clip640)" style="stroke:#000000; stroke-linecap:butt; stroke-linejoin:round; stroke-width:4; stroke-opacity:1; fill:none" points="
  247.408,1375.66 2352.76,1375.66 
  "/>
<polyline clip-path="url(#clip640)" style="stroke:#000000; stroke-linecap:butt; stroke-linejoin:round; stroke-width:4; stroke-opacity:1; fill:none" points="
  352.463,1375.66 352.463,1356.76 
  "/>
<polyline clip-path="url(#clip640)" style="stroke:#000000; stroke-linecap:butt; stroke-linejoin:round; stroke-width:4; stroke-opacity:1; fill:none" points="
  673.59,1375.66 673.59,1356.76 
  "/>
<polyline clip-path="url(#clip640)" style="stroke:#000000; stroke-linecap:butt; stroke-linejoin:round; stroke-width:4; stroke-opacity:1; fill:none" points="
  994.718,1375.66 994.718,1356.76 
  "/>
<polyline clip-path="url(#clip640)" style="stroke:#000000; stroke-linecap:butt; stroke-linejoin:round; stroke-width:4; stroke-opacity:1; fill:none" points="
  1315.85,1375.66 1315.85,1356.76 
  "/>
<polyline clip-path="url(#clip640)" style="stroke:#000000; stroke-linecap:butt; stroke-linejoin:round; stroke-width:4; stroke-opacity:1; fill:none" points="
  1636.97,1375.66 1636.97,1356.76 
  "/>
<polyline clip-path="url(#clip640)" style="stroke:#000000; stroke-linecap:butt; stroke-linejoin:round; stroke-width:4; stroke-opacity:1; fill:none" points="
  1958.1,1375.66 1958.1,1356.76 
  "/>
<polyline clip-path="url(#clip640)" style="stroke:#000000; stroke-linecap:butt; stroke-linejoin:round; stroke-width:4; stroke-opacity:1; fill:none" points="
  2279.23,1375.66 2279.23,1356.76 
  "/>
<path clip-path="url(#clip640)" d="M306.664 1434.42 L351.178 1434.42 L351.178 1440.32 L306.664 1440.32 L306.664 1434.42 Z" fill="#000000" fill-rule="evenodd" fill-opacity="1" /><path clip-path="url(#clip640)" d="M387.567 1431.71 Q392.601 1432.78 395.414 1436.19 Q398.261 1439.59 398.261 1444.59 Q398.261 1452.26 392.983 1456.47 Q387.705 1460.67 377.983 1460.67 Q374.719 1460.67 371.247 1460.01 Q367.81 1459.38 364.129 1458.1 L364.129 1451.33 Q367.046 1453.03 370.518 1453.9 Q373.99 1454.76 377.775 1454.76 Q384.372 1454.76 387.81 1452.16 Q391.282 1449.56 391.282 1444.59 Q391.282 1440.01 388.053 1437.44 Q384.858 1434.83 379.129 1434.83 L373.087 1434.83 L373.087 1429.07 L379.407 1429.07 Q384.58 1429.07 387.323 1427.02 Q390.067 1424.94 390.067 1421.05 Q390.067 1417.06 387.219 1414.94 Q384.407 1412.79 379.129 1412.79 Q376.247 1412.79 372.949 1413.41 Q369.65 1414.04 365.692 1415.35 L365.692 1409.1 Q369.685 1407.99 373.157 1407.44 Q376.664 1406.88 379.754 1406.88 Q387.74 1406.88 392.393 1410.53 Q397.046 1414.14 397.046 1420.32 Q397.046 1424.63 394.58 1427.61 Q392.115 1430.56 387.567 1431.71 Z" fill="#000000" fill-rule="evenodd" fill-opacity="1" /><path clip-path="url(#clip640)" d="M628.504 1434.42 L673.017 1434.42 L673.017 1440.32 L628.504 1440.32 L628.504 1434.42 Z" fill="#000000" fill-rule="evenodd" fill-opacity="1" /><path clip-path="url(#clip640)" d="M694.198 1453.76 L718.677 1453.76 L718.677 1459.66 L685.76 1459.66 L685.76 1453.76 Q689.753 1449.63 696.628 1442.68 Q703.538 1435.7 705.309 1433.69 Q708.677 1429.9 709.996 1427.3 Q711.35 1424.66 711.35 1422.13 Q711.35 1417.99 708.434 1415.39 Q705.552 1412.79 700.899 1412.79 Q697.6 1412.79 693.92 1413.93 Q690.274 1415.08 686.107 1417.4 L686.107 1410.32 Q690.343 1408.62 694.024 1407.75 Q697.705 1406.88 700.76 1406.88 Q708.816 1406.88 713.607 1410.91 Q718.399 1414.94 718.399 1421.67 Q718.399 1424.87 717.184 1427.75 Q716.003 1430.6 712.843 1434.49 Q711.975 1435.49 707.323 1440.32 Q702.67 1445.11 694.198 1453.76 Z" fill="#000000" fill-rule="evenodd" fill-opacity="1" /><path clip-path="url(#clip640)" d="M949.353 1434.42 L993.867 1434.42 L993.867 1440.32 L949.353 1440.32 L949.353 1434.42 Z" fill="#000000" fill-rule="evenodd" fill-opacity="1" /><path clip-path="url(#clip640)" d="M1010.22 1453.76 L1021.68 1453.76 L1021.68 1414.21 L1009.21 1416.71 L1009.21 1410.32 L1021.61 1407.82 L1028.62 1407.82 L1028.62 1453.76 L1040.08 1453.76 L1040.08 1459.66 L1010.22 1459.66 L1010.22 1453.76 Z" fill="#000000" fill-rule="evenodd" fill-opacity="1" /><path clip-path="url(#clip640)" d="M1315.85 1412.44 Q1310.43 1412.44 1307.69 1417.79 Q1304.98 1423.1 1304.98 1433.79 Q1304.98 1444.45 1307.69 1449.8 Q1310.43 1455.11 1315.85 1455.11 Q1321.3 1455.11 1324 1449.8 Q1326.75 1444.45 1326.75 1433.79 Q1326.75 1423.1 1324 1417.79 Q1321.3 1412.44 1315.85 1412.44 M1315.85 1406.88 Q1324.56 1406.88 1329.14 1413.79 Q1333.76 1420.67 1333.76 1433.79 Q1333.76 1446.88 1329.14 1453.79 Q1324.56 1460.67 1315.85 1460.67 Q1307.13 1460.67 1302.51 1453.79 Q1297.93 1446.88 1297.93 1433.79 Q1297.93 1420.67 1302.51 1413.79 Q1307.13 1406.88 1315.85 1406.88 Z" fill="#000000" fill-rule="evenodd" fill-opacity="1" /><path clip-path="url(#clip640)" d="M1622.55 1453.76 L1634 1453.76 L1634 1414.21 L1621.54 1416.71 L1621.54 1410.32 L1633.93 1407.82 L1640.95 1407.82 L1640.95 1453.76 L1652.41 1453.76 L1652.41 1459.66 L1622.55 1459.66 L1622.55 1453.76 Z" fill="#000000" fill-rule="evenodd" fill-opacity="1" /><path clip-path="url(#clip640)" d="M1950.08 1453.76 L1974.56 1453.76 L1974.56 1459.66 L1941.64 1459.66 L1941.64 1453.76 Q1945.64 1449.63 1952.51 1442.68 Q1959.42 1435.7 1961.19 1433.69 Q1964.56 1429.9 1965.88 1427.3 Q1967.23 1424.66 1967.23 1422.13 Q1967.23 1417.99 1964.32 1415.39 Q1961.43 1412.79 1956.78 1412.79 Q1953.48 1412.79 1949.8 1413.93 Q1946.16 1415.08 1941.99 1417.4 L1941.99 1410.32 Q1946.23 1408.62 1949.91 1407.75 Q1953.59 1406.88 1956.64 1406.88 Q1964.7 1406.88 1969.49 1410.91 Q1974.28 1414.94 1974.28 1421.67 Q1974.28 1424.87 1973.07 1427.75 Q1971.88 1430.6 1968.73 1434.49 Q1967.86 1435.49 1963.2 1440.32 Q1958.55 1445.11 1950.08 1453.76 Z" fill="#000000" fill-rule="evenodd" fill-opacity="1" /><path clip-path="url(#clip640)" d="M2285.6 1431.71 Q2290.63 1432.78 2293.45 1436.19 Q2296.29 1439.59 2296.29 1444.59 Q2296.29 1452.26 2291.02 1456.47 Q2285.74 1460.67 2276.02 1460.67 Q2272.75 1460.67 2269.28 1460.01 Q2265.84 1459.38 2262.16 1458.1 L2262.16 1451.33 Q2265.08 1453.03 2268.55 1453.9 Q2272.02 1454.76 2275.81 1454.76 Q2282.4 1454.76 2285.84 1452.16 Q2289.31 1449.56 2289.31 1444.59 Q2289.31 1440.01 2286.09 1437.44 Q2282.89 1434.83 2277.16 1434.83 L2271.12 1434.83 L2271.12 1429.07 L2277.44 1429.07 Q2282.61 1429.07 2285.36 1427.02 Q2288.1 1424.94 2288.1 1421.05 Q2288.1 1417.06 2285.25 1414.94 Q2282.44 1412.79 2277.16 1412.79 Q2274.28 1412.79 2270.98 1413.41 Q2267.68 1414.04 2263.72 1415.35 L2263.72 1409.1 Q2267.72 1407.99 2271.19 1407.44 Q2274.7 1406.88 2277.79 1406.88 Q2285.77 1406.88 2290.43 1410.53 Q2295.08 1414.14 2295.08 1420.32 Q2295.08 1424.63 2292.61 1427.61 Q2290.15 1430.56 2285.6 1431.71 Z" fill="#000000" fill-rule="evenodd" fill-opacity="1" /><path clip-path="url(#clip640)" d="M1327.27 1524.4 L1306.18 1552.78 L1328.36 1582.73 L1317.06 1582.73 L1300.08 1559.82 L1283.1 1582.73 L1271.8 1582.73 L1294.46 1552.21 L1273.73 1524.4 L1285.03 1524.4 L1300.5 1545.18 L1315.97 1524.4 L1327.27 1524.4 Z" fill="#000000" fill-rule="evenodd" fill-opacity="1" /><polyline clip-path="url(#clip642)" style="stroke:#000000; stroke-linecap:butt; stroke-linejoin:round; stroke-width:2; stroke-opacity:0.1; fill:none" points="
  247.408,1355.56 2352.76,1355.56 
  "/>
<polyline clip-path="url(#clip642)" style="stroke:#000000; stroke-linecap:butt; stroke-linejoin:round; stroke-width:2; stroke-opacity:0.1; fill:none" points="
  247.408,1140.86 2352.76,1140.86 
  "/>
<polyline clip-path="url(#clip642)" style="stroke:#000000; stroke-linecap:butt; stroke-linejoin:round; stroke-width:2; stroke-opacity:0.1; fill:none" points="
  247.408,926.154 2352.76,926.154 
  "/>
<polyline clip-path="url(#clip642)" style="stroke:#000000; stroke-linecap:butt; stroke-linejoin:round; stroke-width:2; stroke-opacity:0.1; fill:none" points="
  247.408,711.452 2352.76,711.452 
  "/>
<polyline clip-path="url(#clip642)" style="stroke:#000000; stroke-linecap:butt; stroke-linejoin:round; stroke-width:2; stroke-opacity:0.1; fill:none" points="
  247.408,496.75 2352.76,496.75 
  "/>
<polyline clip-path="url(#clip642)" style="stroke:#000000; stroke-linecap:butt; stroke-linejoin:round; stroke-width:2; stroke-opacity:0.1; fill:none" points="
  247.408,282.047 2352.76,282.047 
  "/>
<polyline clip-path="url(#clip642)" style="stroke:#000000; stroke-linecap:butt; stroke-linejoin:round; stroke-width:2; stroke-opacity:0.1; fill:none" points="
  247.408,67.3449 2352.76,67.3449 
  "/>
<polyline clip-path="url(#clip640)" style="stroke:#000000; stroke-linecap:butt; stroke-linejoin:round; stroke-width:4; stroke-opacity:1; fill:none" points="
  247.408,1375.66 247.408,47.2441 
  "/>
<polyline clip-path="url(#clip640)" style="stroke:#000000; stroke-linecap:butt; stroke-linejoin:round; stroke-width:4; stroke-opacity:1; fill:none" points="
  247.408,1355.56 266.306,1355.56 
  "/>
<polyline clip-path="url(#clip640)" style="stroke:#000000; stroke-linecap:butt; stroke-linejoin:round; stroke-width:4; stroke-opacity:1; fill:none" points="
  247.408,1140.86 266.306,1140.86 
  "/>
<polyline clip-path="url(#clip640)" style="stroke:#000000; stroke-linecap:butt; stroke-linejoin:round; stroke-width:4; stroke-opacity:1; fill:none" points="
  247.408,926.154 266.306,926.154 
  "/>
<polyline clip-path="url(#clip640)" style="stroke:#000000; stroke-linecap:butt; stroke-linejoin:round; stroke-width:4; stroke-opacity:1; fill:none" points="
  247.408,711.452 266.306,711.452 
  "/>
<polyline clip-path="url(#clip640)" style="stroke:#000000; stroke-linecap:butt; stroke-linejoin:round; stroke-width:4; stroke-opacity:1; fill:none" points="
  247.408,496.75 266.306,496.75 
  "/>
<polyline clip-path="url(#clip640)" style="stroke:#000000; stroke-linecap:butt; stroke-linejoin:round; stroke-width:4; stroke-opacity:1; fill:none" points="
  247.408,282.047 266.306,282.047 
  "/>
<polyline clip-path="url(#clip640)" style="stroke:#000000; stroke-linecap:butt; stroke-linejoin:round; stroke-width:4; stroke-opacity:1; fill:none" points="
  247.408,67.3449 266.306,67.3449 
  "/>
<path clip-path="url(#clip640)" d="M52.4852 1356.24 L96.9988 1356.24 L96.9988 1362.14 L52.4852 1362.14 L52.4852 1356.24 Z" fill="#000000" fill-rule="evenodd" fill-opacity="1" /><path clip-path="url(#clip640)" d="M113.353 1375.58 L124.811 1375.58 L124.811 1336.03 L112.346 1338.53 L112.346 1332.14 L124.742 1329.64 L131.756 1329.64 L131.756 1375.58 L143.214 1375.58 L143.214 1381.48 L113.353 1381.48 L113.353 1375.58 Z" fill="#000000" fill-rule="evenodd" fill-opacity="1" /><path clip-path="url(#clip640)" d="M157.38 1372.66 L164.707 1372.66 L164.707 1381.48 L157.38 1381.48 L157.38 1372.66 Z" fill="#000000" fill-rule="evenodd" fill-opacity="1" /><path clip-path="url(#clip640)" d="M180.054 1329.64 L207.589 1329.64 L207.589 1335.54 L186.478 1335.54 L186.478 1348.25 Q188.005 1347.73 189.533 1347.49 Q191.061 1347.21 192.589 1347.21 Q201.269 1347.21 206.339 1351.97 Q211.408 1356.72 211.408 1364.85 Q211.408 1373.22 206.2 1377.87 Q200.991 1382.49 191.512 1382.49 Q188.248 1382.49 184.846 1381.93 Q181.478 1381.37 177.866 1380.26 L177.866 1373.22 Q180.991 1374.92 184.325 1375.75 Q187.658 1376.58 191.373 1376.58 Q197.38 1376.58 200.887 1373.42 Q204.394 1370.26 204.394 1364.85 Q204.394 1359.43 200.887 1356.27 Q197.38 1353.11 191.373 1353.11 Q188.561 1353.11 185.748 1353.74 Q182.971 1354.36 180.054 1355.68 L180.054 1329.64 Z" fill="#000000" fill-rule="evenodd" fill-opacity="1" /><path clip-path="url(#clip640)" d="M50.9921 1141.53 L95.5058 1141.53 L95.5058 1147.44 L50.9921 1147.44 L50.9921 1141.53 Z" fill="#000000" fill-rule="evenodd" fill-opacity="1" /><path clip-path="url(#clip640)" d="M111.86 1160.87 L123.318 1160.87 L123.318 1121.33 L110.853 1123.83 L110.853 1117.44 L123.249 1114.94 L130.263 1114.94 L130.263 1160.87 L141.721 1160.87 L141.721 1166.78 L111.86 1166.78 L111.86 1160.87 Z" fill="#000000" fill-rule="evenodd" fill-opacity="1" /><path clip-path="url(#clip640)" d="M155.887 1157.96 L163.214 1157.96 L163.214 1166.78 L155.887 1166.78 L155.887 1157.96 Z" fill="#000000" fill-rule="evenodd" fill-opacity="1" /><path clip-path="url(#clip640)" d="M193.491 1119.55 Q188.075 1119.55 185.332 1124.9 Q182.623 1130.21 182.623 1140.91 Q182.623 1151.57 185.332 1156.92 Q188.075 1162.23 193.491 1162.23 Q198.943 1162.23 201.651 1156.92 Q204.394 1151.57 204.394 1140.91 Q204.394 1130.21 201.651 1124.9 Q198.943 1119.55 193.491 1119.55 M193.491 1114 Q202.207 1114 206.79 1120.91 Q211.408 1127.78 211.408 1140.91 Q211.408 1154 206.79 1160.91 Q202.207 1167.78 193.491 1167.78 Q184.776 1167.78 180.158 1160.91 Q175.575 1154 175.575 1140.91 Q175.575 1127.78 180.158 1120.91 Q184.776 1114 193.491 1114 Z" fill="#000000" fill-rule="evenodd" fill-opacity="1" /><path clip-path="url(#clip640)" d="M52.4852 926.831 L96.9988 926.831 L96.9988 932.734 L52.4852 932.734 L52.4852 926.831 Z" fill="#000000" fill-rule="evenodd" fill-opacity="1" /><path clip-path="url(#clip640)" d="M127.138 904.852 Q121.721 904.852 118.978 910.2 Q116.27 915.512 116.27 926.206 Q116.27 936.866 118.978 942.213 Q121.721 947.526 127.138 947.526 Q132.589 947.526 135.297 942.213 Q138.04 936.866 138.04 926.206 Q138.04 915.512 135.297 910.2 Q132.589 904.852 127.138 904.852 M127.138 899.297 Q135.853 899.297 140.436 906.207 Q145.054 913.081 145.054 926.206 Q145.054 939.297 140.436 946.206 Q135.853 953.081 127.138 953.081 Q118.422 953.081 113.804 946.206 Q109.221 939.297 109.221 926.206 Q109.221 913.081 113.804 906.207 Q118.422 899.297 127.138 899.297 Z" fill="#000000" fill-rule="evenodd" fill-opacity="1" /><path clip-path="url(#clip640)" d="M157.38 943.255 L164.707 943.255 L164.707 952.074 L157.38 952.074 L157.38 943.255 Z" fill="#000000" fill-rule="evenodd" fill-opacity="1" /><path clip-path="url(#clip640)" d="M180.054 900.234 L207.589 900.234 L207.589 906.137 L186.478 906.137 L186.478 918.845 Q188.005 918.325 189.533 918.081 Q191.061 917.804 192.589 917.804 Q201.269 917.804 206.339 922.561 Q211.408 927.318 211.408 935.442 Q211.408 943.81 206.2 948.463 Q200.991 953.081 191.512 953.081 Q188.248 953.081 184.846 952.526 Q181.478 951.97 177.866 950.859 L177.866 943.81 Q180.991 945.512 184.325 946.345 Q187.658 947.179 191.373 947.179 Q197.38 947.179 200.887 944.019 Q204.394 940.859 204.394 935.442 Q204.394 930.026 200.887 926.866 Q197.38 923.706 191.373 923.706 Q188.561 923.706 185.748 924.331 Q182.971 924.956 180.054 926.276 L180.054 900.234 Z" fill="#000000" fill-rule="evenodd" fill-opacity="1" /><path clip-path="url(#clip640)" d="M125.645 690.15 Q120.228 690.15 117.485 695.497 Q114.777 700.81 114.777 711.504 Q114.777 722.164 117.485 727.511 Q120.228 732.823 125.645 732.823 Q131.096 732.823 133.804 727.511 Q136.547 722.164 136.547 711.504 Q136.547 700.81 133.804 695.497 Q131.096 690.15 125.645 690.15 M125.645 684.594 Q134.36 684.594 138.943 691.504 Q143.561 698.379 143.561 711.504 Q143.561 724.594 138.943 731.504 Q134.36 738.379 125.645 738.379 Q116.929 738.379 112.311 731.504 Q107.728 724.594 107.728 711.504 Q107.728 698.379 112.311 691.504 Q116.929 684.594 125.645 684.594 Z" fill="#000000" fill-rule="evenodd" fill-opacity="1" /><path clip-path="url(#clip640)" d="M155.887 728.553 L163.214 728.553 L163.214 737.372 L155.887 737.372 L155.887 728.553 Z" fill="#000000" fill-rule="evenodd" fill-opacity="1" /><path clip-path="url(#clip640)" d="M193.491 690.15 Q188.075 690.15 185.332 695.497 Q182.623 700.81 182.623 711.504 Q182.623 722.164 185.332 727.511 Q188.075 732.823 193.491 732.823 Q198.943 732.823 201.651 727.511 Q204.394 722.164 204.394 711.504 Q204.394 700.81 201.651 695.497 Q198.943 690.15 193.491 690.15 M193.491 684.594 Q202.207 684.594 206.79 691.504 Q211.408 698.379 211.408 711.504 Q211.408 724.594 206.79 731.504 Q202.207 738.379 193.491 738.379 Q184.776 738.379 180.158 731.504 Q175.575 724.594 175.575 711.504 Q175.575 698.379 180.158 691.504 Q184.776 684.594 193.491 684.594 Z" fill="#000000" fill-rule="evenodd" fill-opacity="1" /><path clip-path="url(#clip640)" d="M127.138 475.448 Q121.721 475.448 118.978 480.795 Q116.27 486.107 116.27 496.802 Q116.27 507.461 118.978 512.809 Q121.721 518.121 127.138 518.121 Q132.589 518.121 135.297 512.809 Q138.04 507.461 138.04 496.802 Q138.04 486.107 135.297 480.795 Q132.589 475.448 127.138 475.448 M127.138 469.892 Q135.853 469.892 140.436 476.802 Q145.054 483.677 145.054 496.802 Q145.054 509.892 140.436 516.802 Q135.853 523.677 127.138 523.677 Q118.422 523.677 113.804 516.802 Q109.221 509.892 109.221 496.802 Q109.221 483.677 113.804 476.802 Q118.422 469.892 127.138 469.892 Z" fill="#000000" fill-rule="evenodd" fill-opacity="1" /><path clip-path="url(#clip640)" d="M157.38 513.85 L164.707 513.85 L164.707 522.67 L157.38 522.67 L157.38 513.85 Z" fill="#000000" fill-rule="evenodd" fill-opacity="1" /><path clip-path="url(#clip640)" d="M180.054 470.83 L207.589 470.83 L207.589 476.732 L186.478 476.732 L186.478 489.441 Q188.005 488.92 189.533 488.677 Q191.061 488.399 192.589 488.399 Q201.269 488.399 206.339 493.156 Q211.408 497.913 211.408 506.038 Q211.408 514.406 206.2 519.059 Q200.991 523.677 191.512 523.677 Q188.248 523.677 184.846 523.121 Q181.478 522.565 177.866 521.454 L177.866 514.406 Q180.991 516.107 184.325 516.94 Q187.658 517.774 191.373 517.774 Q197.38 517.774 200.887 514.614 Q204.394 511.454 204.394 506.038 Q204.394 500.621 200.887 497.461 Q197.38 494.302 191.373 494.302 Q188.561 494.302 185.748 494.927 Q182.971 495.552 180.054 496.871 L180.054 470.83 Z" fill="#000000" fill-rule="evenodd" fill-opacity="1" /><path clip-path="url(#clip640)" d="M111.86 302.064 L123.318 302.064 L123.318 262.516 L110.853 265.016 L110.853 258.627 L123.249 256.127 L130.263 256.127 L130.263 302.064 L141.721 302.064 L141.721 307.967 L111.86 307.967 L111.86 302.064 Z" fill="#000000" fill-rule="evenodd" fill-opacity="1" /><path clip-path="url(#clip640)" d="M155.887 299.148 L163.214 299.148 L163.214 307.967 L155.887 307.967 L155.887 299.148 Z" fill="#000000" fill-rule="evenodd" fill-opacity="1" /><path clip-path="url(#clip640)" d="M193.491 260.745 Q188.075 260.745 185.332 266.092 Q182.623 271.405 182.623 282.099 Q182.623 292.759 185.332 298.106 Q188.075 303.419 193.491 303.419 Q198.943 303.419 201.651 298.106 Q204.394 292.759 204.394 282.099 Q204.394 271.405 201.651 266.092 Q198.943 260.745 193.491 260.745 M193.491 255.19 Q202.207 255.19 206.79 262.099 Q211.408 268.974 211.408 282.099 Q211.408 295.19 206.79 302.099 Q202.207 308.974 193.491 308.974 Q184.776 308.974 180.158 302.099 Q175.575 295.19 175.575 282.099 Q175.575 268.974 180.158 262.099 Q184.776 255.19 193.491 255.19 Z" fill="#000000" fill-rule="evenodd" fill-opacity="1" /><path clip-path="url(#clip640)" d="M113.353 87.3621 L124.811 87.3621 L124.811 47.8137 L112.346 50.3137 L112.346 43.9248 L124.742 41.4249 L131.756 41.4249 L131.756 87.3621 L143.214 87.3621 L143.214 93.2649 L113.353 93.2649 L113.353 87.3621 Z" fill="#000000" fill-rule="evenodd" fill-opacity="1" /><path clip-path="url(#clip640)" d="M157.38 84.4455 L164.707 84.4455 L164.707 93.2649 L157.38 93.2649 L157.38 84.4455 Z" fill="#000000" fill-rule="evenodd" fill-opacity="1" /><path clip-path="url(#clip640)" d="M180.054 41.4249 L207.589 41.4249 L207.589 47.3276 L186.478 47.3276 L186.478 60.0359 Q188.005 59.515 189.533 59.272 Q191.061 58.9942 192.589 58.9942 Q201.269 58.9942 206.339 63.7511 Q211.408 68.5081 211.408 76.633 Q211.408 85.001 206.2 89.6538 Q200.991 94.2718 191.512 94.2718 Q188.248 94.2718 184.846 93.7162 Q181.478 93.1607 177.866 92.0496 L177.866 85.001 Q180.991 86.7024 184.325 87.5357 Q187.658 88.3691 191.373 88.3691 Q197.38 88.3691 200.887 85.2094 Q204.394 82.0496 204.394 76.633 Q204.394 71.2164 200.887 68.0567 Q197.38 64.897 191.373 64.897 Q188.561 64.897 185.748 65.522 Q182.971 66.147 180.054 67.4664 L180.054 41.4249 Z" fill="#000000" fill-rule="evenodd" fill-opacity="1" /><polyline clip-path="url(#clip642)" style="stroke:#009af9; stroke-linecap:butt; stroke-linejoin:round; stroke-width:12; stroke-opacity:1; fill:none" points="
  306.993,926.154 338.52,817.03 370.047,666.408 401.573,493.932 433.1,325.654 464.626,188.448 496.153,104.157 527.68,84.8408 559.206,130.23 590.733,227.973 
  622.259,356.62 653.786,490.621 685.313,606.176 716.839,686.556 748.366,725.644 779.893,728.889 811.419,711.452 842.946,694.015 874.472,697.26 905.999,736.348 
  937.526,816.728 969.052,932.283 1000.58,1066.28 1032.11,1194.93 1063.63,1292.67 1095.16,1338.06 1126.69,1318.75 1158.21,1234.46 1189.74,1097.25 1221.27,928.972 
  1252.79,756.496 1284.32,605.874 1315.85,496.75 1347.37,438.329 1378.9,427.844 1410.43,451.843 1441.95,489.98 1473.48,520.382 1505,525.311 1536.53,495.755 
  1568.06,433.865 1599.58,352.623 1631.11,272.847 1662.64,218.209 1694.16,209.458 1725.69,259.219 1757.22,368.607 1788.74,526.469 1820.27,711.452 1851.8,896.435 
  1883.32,1054.3 1914.85,1163.68 1946.38,1213.45 1977.9,1204.69 2009.43,1150.06 2040.96,1070.28 2072.48,989.039 2104.01,927.148 2135.54,897.593 2167.06,902.522 
  2198.59,932.924 2230.12,971.061 2261.64,995.06 2293.17,984.575 
  "/>
<path clip-path="url(#clip640)" d="
M2016.08 247.045 L2282.58 247.045 L2282.58 91.5246 L2016.08 91.5246  Z
  " fill="#ffffff" fill-rule="evenodd" fill-opacity="1"/>
<polyline clip-path="url(#clip640)" style="stroke:#000000; stroke-linecap:butt; stroke-linejoin:round; stroke-width:4; stroke-opacity:1; fill:none" points="
  2016.08,247.045 2282.58,247.045 2282.58,91.5246 2016.08,91.5246 2016.08,247.045 
  "/>
<polyline clip-path="url(#clip640)" style="stroke:#009af9; stroke-linecap:butt; stroke-linejoin:round; stroke-width:6; stroke-opacity:1; fill:none" points="
  2039.47,169.285 2179.83,169.285 
  "/>
<path clip-path="url(#clip640)" d="M2203.22 179.857 L2203.22 156.316 L2209.61 156.316 L2209.61 179.614 Q2209.61 185.135 2211.76 187.913 Q2213.92 190.656 2218.22 190.656 Q2223.4 190.656 2226.38 187.357 Q2229.4 184.059 2229.4 178.364 L2229.4 156.316 L2235.79 156.316 L2235.79 195.205 L2229.4 195.205 L2229.4 189.232 Q2227.08 192.774 2223.99 194.51 Q2220.93 196.212 2216.87 196.212 Q2210.17 196.212 2206.7 192.045 Q2203.22 187.878 2203.22 179.857 M2219.3 155.378 L2219.3 155.378 Z" fill="#000000" fill-rule="evenodd" fill-opacity="1" /></svg>
