<?xml version="1.0" encoding="UTF-8"?>
<svg xmlns="http://www.w3.org/2000/svg" xmlns:xlink="http://www.w3.org/1999/xlink" width="450pt" height="390pt" viewBox="0 0 450 390" version="1.1">
<defs>
<g>
<symbol overflow="visible" id="glyph0-0-DSEaUlFY">
<path style="stroke:none;" d="M 0.296875 -10.9375 C 0.296875 -10.9375 0.296875 0 0.296875 0 C 0.296875 0 7.046875 0 7.046875 0 C 7.046875 0 7.046875 -10.9375 7.046875 -10.9375 C 7.046875 -10.9375 0.296875 -10.9375 0.296875 -10.9375 Z M 1.078125 -0.78125 C 1.078125 -0.78125 1.078125 -10.15625 1.078125 -10.15625 C 1.078125 -10.15625 6.265625 -10.15625 6.265625 -10.15625 C 6.265625 -10.15625 6.265625 -0.78125 6.265625 -0.78125 C 6.265625 -0.78125 1.078125 -0.78125 1.078125 -0.78125 Z M 1.078125 -0.78125 "/>
</symbol>
<symbol overflow="visible" id="glyph0-1-DSEaUlFY">
<path style="stroke:none;" d="M 7.09375 0 C 7.09375 0 5.640625 0 5.640625 0 C 5.640625 0 3.671875 -3.015625 3.671875 -3.015625 C 3.671875 -3.015625 1.6875 0 1.6875 0 C 1.6875 0 0.25 0 0.25 0 C 0.25 0 3.03125 -4 3.03125 -4 C 3.03125 -4 0.40625 -7.859375 0.40625 -7.859375 C 0.40625 -7.859375 1.828125 -7.859375 1.828125 -7.859375 C 1.828125 -7.859375 3.71875 -5.015625 3.71875 -5.015625 C 3.71875 -5.015625 5.609375 -7.859375 5.609375 -7.859375 C 5.609375 -7.859375 7.015625 -7.859375 7.015625 -7.859375 C 7.015625 -7.859375 4.375 -4.0625 4.375 -4.0625 C 4.375 -4.0625 7.09375 0 7.09375 0 Z M 7.09375 0 "/>
</symbol>
<symbol overflow="visible" id="glyph0-2-DSEaUlFY">
<path style="stroke:none;" d="M 11.40625 0 C 11.40625 0 10.15625 0 10.15625 0 C 10.15625 0 10.15625 -5.421875 10.15625 -5.421875 C 10.15625 -6.40625 9.625 -6.984375 8.71875 -6.984375 C 7.6875 -6.984375 6.859375 -6.078125 6.859375 -4.9375 C 6.859375 -4.9375 6.859375 0 6.859375 0 C 6.859375 0 5.609375 0 5.609375 0 C 5.609375 0 5.609375 -5.421875 5.609375 -5.421875 C 5.609375 -6.421875 5.078125 -6.984375 4.15625 -6.984375 C 3.140625 -6.984375 2.3125 -6.078125 2.3125 -4.9375 C 2.3125 -4.9375 2.3125 0 2.3125 0 C 2.3125 0 1.0625 0 1.0625 0 C 1.0625 0 1.0625 -7.859375 1.0625 -7.859375 C 1.0625 -7.859375 2.203125 -7.859375 2.203125 -7.859375 C 2.203125 -7.859375 2.203125 -6.75 2.203125 -6.75 C 2.875 -7.6875 3.5625 -8.078125 4.625 -8.078125 C 5.640625 -8.078125 6.265625 -7.71875 6.734375 -6.890625 C 7.46875 -7.765625 8.09375 -8.078125 9.15625 -8.078125 C 10.625 -8.078125 11.40625 -7.3125 11.40625 -5.890625 C 11.40625 -5.890625 11.40625 0 11.40625 0 Z M 11.40625 0 "/>
</symbol>
<symbol overflow="visible" id="glyph1-0-DSEaUlFY">
<path style="stroke:none;" d="M 0.296875 -10.9375 C 0.296875 -10.9375 0.296875 0 0.296875 0 C 0.296875 0 7.046875 0 7.046875 0 C 7.046875 0 7.046875 -10.9375 7.046875 -10.9375 C 7.046875 -10.9375 0.296875 -10.9375 0.296875 -10.9375 Z M 1.078125 -0.78125 C 1.078125 -0.78125 1.078125 -10.15625 1.078125 -10.15625 C 1.078125 -10.15625 6.265625 -10.15625 6.265625 -10.15625 C 6.265625 -10.15625 6.265625 -0.78125 6.265625 -0.78125 C 6.265625 -0.78125 1.078125 -0.78125 1.078125 -0.78125 Z M 1.078125 -0.78125 "/>
</symbol>
<symbol overflow="visible" id="glyph1-1-DSEaUlFY">
<path style="stroke:none;" d=""/>
</symbol>
<symbol overflow="visible" id="glyph1-2-DSEaUlFY">
<path style="stroke:none;" d="M 3.75 3.1875 C 3.75 3.1875 0.953125 3.1875 0.953125 3.1875 C 0.953125 3.1875 0.953125 -10.9375 0.953125 -10.9375 C 0.953125 -10.9375 3.75 -10.9375 3.75 -10.9375 C 3.75 -10.9375 3.75 -9.859375 3.75 -9.859375 C 3.75 -9.859375 2.203125 -9.859375 2.203125 -9.859375 C 2.203125 -9.859375 2.203125 2.09375 2.203125 2.09375 C 2.203125 2.09375 3.75 2.09375 3.75 2.09375 C 3.75 2.09375 3.75 3.1875 3.75 3.1875 Z M 3.75 3.1875 "/>
</symbol>
<symbol overflow="visible" id="glyph1-3-DSEaUlFY">
<path style="stroke:none;" d="M 7.53125 0 C 7.53125 0 5.984375 0 5.984375 0 C 5.984375 0 3.328125 -4.265625 3.328125 -4.265625 C 3.328125 -4.265625 2.109375 -3.0625 2.109375 -3.0625 C 2.109375 -3.0625 2.109375 0 2.109375 0 C 2.109375 0 0.875 0 0.875 0 C 0.875 0 0.875 -10.9375 0.875 -10.9375 C 0.875 -10.9375 2.109375 -10.9375 2.109375 -10.9375 C 2.109375 -10.9375 2.109375 -4.53125 2.109375 -4.53125 C 2.109375 -4.53125 5.4375 -7.859375 5.4375 -7.859375 C 5.4375 -7.859375 7.046875 -7.859375 7.046875 -7.859375 C 7.046875 -7.859375 4.3125 -5.140625 4.3125 -5.140625 C 4.3125 -5.140625 7.53125 0 7.53125 0 Z M 7.53125 0 "/>
</symbol>
<symbol overflow="visible" id="glyph1-4-DSEaUlFY">
<path style="stroke:none;" d="M 7.671875 -7.515625 C 7.671875 -6.203125 6.90625 -5.09375 5.421875 -4.3125 C 5.421875 -4.3125 3.921875 -3.5 3.921875 -3.5 C 2.609375 -2.734375 2.125 -2.171875 2 -1.3125 C 2 -1.3125 7.59375 -1.3125 7.59375 -1.3125 C 7.59375 -1.3125 7.59375 0 7.59375 0 C 7.59375 0 0.515625 0 0.515625 0 C 0.625 -2.34375 1.28125 -3.34375 3.5 -4.609375 C 3.5 -4.609375 4.875 -5.390625 4.875 -5.390625 C 5.8125 -5.921875 6.3125 -6.640625 6.3125 -7.484375 C 6.3125 -8.625 5.421875 -9.484375 4.21875 -9.484375 C 2.90625 -9.484375 2.171875 -8.734375 2.0625 -6.9375 C 2.0625 -6.9375 0.75 -6.9375 0.75 -6.9375 C 0.828125 -9.53125 2.078125 -10.640625 4.265625 -10.640625 C 6.265625 -10.640625 7.671875 -9.3125 7.671875 -7.515625 Z M 7.671875 -7.515625 "/>
</symbol>
<symbol overflow="visible" id="glyph1-5-DSEaUlFY">
<path style="stroke:none;" d="M 7.609375 -5.109375 C 7.609375 -1.625 6.375 0.21875 4.125 0.21875 C 1.84375 0.21875 0.640625 -1.625 0.640625 -5.203125 C 0.640625 -8.78125 1.828125 -10.640625 4.125 -10.640625 C 6.4375 -10.640625 7.609375 -8.8125 7.609375 -5.109375 Z M 6.25 -5.234375 C 6.25 -8.078125 5.546875 -9.46875 4.125 -9.46875 C 2.703125 -9.46875 2 -8.09375 2 -5.1875 C 2 -2.28125 2.703125 -0.875 4.09375 -0.875 C 5.5625 -0.875 6.25 -2.21875 6.25 -5.234375 Z M 6.25 -5.234375 "/>
</symbol>
<symbol overflow="visible" id="glyph1-6-DSEaUlFY">
<path style="stroke:none;" d="M 7.6875 -3.53125 C 7.6875 -1.28125 6.1875 0.21875 4.046875 0.21875 C 2.15625 0.21875 0.953125 -0.609375 0.53125 -2.734375 C 0.53125 -2.734375 1.84375 -2.734375 1.84375 -2.734375 C 2.15625 -1.53125 2.859375 -0.9375 4.015625 -0.9375 C 5.453125 -0.9375 6.34375 -1.8125 6.34375 -3.34375 C 6.34375 -4.921875 5.4375 -5.828125 4.015625 -5.828125 C 3.1875 -5.828125 2.6875 -5.578125 2.0625 -4.84375 C 2.0625 -4.84375 0.859375 -4.84375 0.859375 -4.84375 C 0.859375 -4.84375 1.65625 -10.40625 1.65625 -10.40625 C 1.65625 -10.40625 7.140625 -10.40625 7.140625 -10.40625 C 7.140625 -10.40625 7.140625 -9.109375 7.140625 -9.109375 C 7.140625 -9.109375 2.71875 -9.109375 2.71875 -9.109375 C 2.71875 -9.109375 2.296875 -6.359375 2.296875 -6.359375 C 2.90625 -6.8125 3.515625 -7 4.265625 -7 C 6.296875 -7 7.6875 -5.625 7.6875 -3.53125 Z M 7.6875 -3.53125 "/>
</symbol>
<symbol overflow="visible" id="glyph1-7-DSEaUlFY">
<path style="stroke:none;" d="M 2.859375 0 C 2.859375 0 1.3125 0 1.3125 0 C 1.3125 0 1.3125 -1.5625 1.3125 -1.5625 C 1.3125 -1.5625 2.859375 -1.5625 2.859375 -1.5625 C 2.859375 -1.5625 2.859375 0 2.859375 0 Z M 2.859375 0 "/>
</symbol>
<symbol overflow="visible" id="glyph2-0-DSEaUlFY">
<path style="stroke:none;" d="M 0.296875 -10.9375 C 0.296875 -10.9375 0.296875 0 0.296875 0 C 0.296875 0 7.046875 0 7.046875 0 C 7.046875 0 7.046875 -10.9375 7.046875 -10.9375 C 7.046875 -10.9375 0.296875 -10.9375 0.296875 -10.9375 Z M 1.078125 -0.78125 C 1.078125 -0.78125 1.078125 -10.15625 1.078125 -10.15625 C 1.078125 -10.15625 6.265625 -10.15625 6.265625 -10.15625 C 6.265625 -10.15625 6.265625 -0.78125 6.265625 -0.78125 C 6.265625 -0.78125 1.078125 -0.78125 1.078125 -0.78125 Z M 1.078125 -0.78125 "/>
</symbol>
<symbol overflow="visible" id="glyph2-1-DSEaUlFY">
<path style="stroke:none;" d="M 3.140625 3.1875 C 3.140625 3.1875 0.34375 3.1875 0.34375 3.1875 C 0.34375 3.1875 0.34375 2.09375 0.34375 2.09375 C 0.34375 2.09375 1.890625 2.09375 1.890625 2.09375 C 1.890625 2.09375 1.890625 -9.859375 1.890625 -9.859375 C 1.890625 -9.859375 0.34375 -9.859375 0.34375 -9.859375 C 0.34375 -9.859375 0.34375 -10.9375 0.34375 -10.9375 C 0.34375 -10.9375 3.140625 -10.9375 3.140625 -10.9375 C 3.140625 -10.9375 3.140625 3.1875 3.140625 3.1875 Z M 3.140625 3.1875 "/>
</symbol>
<symbol overflow="visible" id="glyph3-0-DSEaUlFY">
<path style="stroke:none;" d="M 0.296875 -10.9375 C 0.296875 -10.9375 0.296875 0 0.296875 0 C 0.296875 0 7.046875 0 7.046875 0 C 7.046875 0 7.046875 -10.9375 7.046875 -10.9375 C 7.046875 -10.9375 0.296875 -10.9375 0.296875 -10.9375 Z M 1.078125 -0.78125 C 1.078125 -0.78125 1.078125 -10.15625 1.078125 -10.15625 C 1.078125 -10.15625 6.265625 -10.15625 6.265625 -10.15625 C 6.265625 -10.15625 6.265625 -0.78125 6.265625 -0.78125 C 6.265625 -0.78125 1.078125 -0.78125 1.078125 -0.78125 Z M 1.078125 -0.78125 "/>
</symbol>
<symbol overflow="visible" id="glyph3-1-DSEaUlFY">
<path style="stroke:none;" d="M 4.265625 -3.59375 C 4.265625 -3.59375 0.6875 -3.59375 0.6875 -3.59375 C 0.6875 -3.59375 0.6875 -4.6875 0.6875 -4.6875 C 0.6875 -4.6875 4.265625 -4.6875 4.265625 -4.6875 C 4.265625 -4.6875 4.265625 -3.59375 4.265625 -3.59375 Z M 4.265625 -3.59375 "/>
</symbol>
<symbol overflow="visible" id="glyph4-0-DSEaUlFY">
<path style="stroke:none;" d="M 0.296875 -10.9375 C 0.296875 -10.9375 0.296875 0 0.296875 0 C 0.296875 0 7.046875 0 7.046875 0 C 7.046875 0 7.046875 -10.9375 7.046875 -10.9375 C 7.046875 -10.9375 0.296875 -10.9375 0.296875 -10.9375 Z M 1.078125 -0.78125 C 1.078125 -0.78125 1.078125 -10.15625 1.078125 -10.15625 C 1.078125 -10.15625 6.265625 -10.15625 6.265625 -10.15625 C 6.265625 -10.15625 6.265625 -0.78125 6.265625 -0.78125 C 6.265625 -0.78125 1.078125 -0.78125 1.078125 -0.78125 Z M 1.078125 -0.78125 "/>
</symbol>
<symbol overflow="visible" id="glyph4-1-DSEaUlFY">
<path style="stroke:none;" d="M 7.671875 -7.515625 C 7.671875 -6.203125 6.90625 -5.09375 5.421875 -4.3125 C 5.421875 -4.3125 3.921875 -3.5 3.921875 -3.5 C 2.609375 -2.734375 2.125 -2.171875 2 -1.3125 C 2 -1.3125 7.59375 -1.3125 7.59375 -1.3125 C 7.59375 -1.3125 7.59375 0 7.59375 0 C 7.59375 0 0.515625 0 0.515625 0 C 0.625 -2.34375 1.28125 -3.34375 3.5 -4.609375 C 3.5 -4.609375 4.875 -5.390625 4.875 -5.390625 C 5.8125 -5.921875 6.3125 -6.640625 6.3125 -7.484375 C 6.3125 -8.625 5.421875 -9.484375 4.21875 -9.484375 C 2.90625 -9.484375 2.171875 -8.734375 2.0625 -6.9375 C 2.0625 -6.9375 0.75 -6.9375 0.75 -6.9375 C 0.828125 -9.53125 2.078125 -10.640625 4.265625 -10.640625 C 6.265625 -10.640625 7.671875 -9.3125 7.671875 -7.515625 Z M 7.671875 -7.515625 "/>
</symbol>
<symbol overflow="visible" id="glyph4-2-DSEaUlFY">
<path style="stroke:none;" d="M 7.609375 -5.109375 C 7.609375 -1.625 6.375 0.21875 4.125 0.21875 C 1.84375 0.21875 0.640625 -1.625 0.640625 -5.203125 C 0.640625 -8.78125 1.828125 -10.640625 4.125 -10.640625 C 6.4375 -10.640625 7.609375 -8.8125 7.609375 -5.109375 Z M 6.25 -5.234375 C 6.25 -8.078125 5.546875 -9.46875 4.125 -9.46875 C 2.703125 -9.46875 2 -8.09375 2 -5.1875 C 2 -2.28125 2.703125 -0.875 4.09375 -0.875 C 5.5625 -0.875 6.25 -2.21875 6.25 -5.234375 Z M 6.25 -5.234375 "/>
</symbol>
<symbol overflow="visible" id="glyph4-3-DSEaUlFY">
<path style="stroke:none;" d="M 7.6875 -3.53125 C 7.6875 -1.28125 6.1875 0.21875 4.046875 0.21875 C 2.15625 0.21875 0.953125 -0.609375 0.53125 -2.734375 C 0.53125 -2.734375 1.84375 -2.734375 1.84375 -2.734375 C 2.15625 -1.53125 2.859375 -0.9375 4.015625 -0.9375 C 5.453125 -0.9375 6.34375 -1.8125 6.34375 -3.34375 C 6.34375 -4.921875 5.4375 -5.828125 4.015625 -5.828125 C 3.1875 -5.828125 2.6875 -5.578125 2.0625 -4.84375 C 2.0625 -4.84375 0.859375 -4.84375 0.859375 -4.84375 C 0.859375 -4.84375 1.65625 -10.40625 1.65625 -10.40625 C 1.65625 -10.40625 7.140625 -10.40625 7.140625 -10.40625 C 7.140625 -10.40625 7.140625 -9.109375 7.140625 -9.109375 C 7.140625 -9.109375 2.71875 -9.109375 2.71875 -9.109375 C 2.71875 -9.109375 2.296875 -6.359375 2.296875 -6.359375 C 2.90625 -6.8125 3.515625 -7 4.265625 -7 C 6.296875 -7 7.6875 -5.625 7.6875 -3.53125 Z M 7.6875 -3.53125 "/>
</symbol>
<symbol overflow="visible" id="glyph4-4-DSEaUlFY">
<path style="stroke:none;" d="M 2.859375 0 C 2.859375 0 1.3125 0 1.3125 0 C 1.3125 0 1.3125 -1.5625 1.3125 -1.5625 C 1.3125 -1.5625 2.859375 -1.5625 2.859375 -1.5625 C 2.859375 -1.5625 2.859375 0 2.859375 0 Z M 2.859375 0 "/>
</symbol>
<symbol overflow="visible" id="glyph5-0-DSEaUlFY">
<path style="stroke:none;" d="M 0.296875 -10.9375 C 0.296875 -10.9375 0.296875 0 0.296875 0 C 0.296875 0 7.046875 0 7.046875 0 C 7.046875 0 7.046875 -10.9375 7.046875 -10.9375 C 7.046875 -10.9375 0.296875 -10.9375 0.296875 -10.9375 Z M 1.078125 -0.78125 C 1.078125 -0.78125 1.078125 -10.15625 1.078125 -10.15625 C 1.078125 -10.15625 6.265625 -10.15625 6.265625 -10.15625 C 6.265625 -10.15625 6.265625 -0.78125 6.265625 -0.78125 C 6.265625 -0.78125 1.078125 -0.78125 1.078125 -0.78125 Z M 1.078125 -0.78125 "/>
</symbol>
<symbol overflow="visible" id="glyph5-1-DSEaUlFY">
<path style="stroke:none;" d="M 7.6875 -3.53125 C 7.6875 -1.28125 6.1875 0.21875 4.046875 0.21875 C 2.15625 0.21875 0.953125 -0.609375 0.53125 -2.734375 C 0.53125 -2.734375 1.84375 -2.734375 1.84375 -2.734375 C 2.15625 -1.53125 2.859375 -0.9375 4.015625 -0.9375 C 5.453125 -0.9375 6.34375 -1.8125 6.34375 -3.34375 C 6.34375 -4.921875 5.4375 -5.828125 4.015625 -5.828125 C 3.1875 -5.828125 2.6875 -5.578125 2.0625 -4.84375 C 2.0625 -4.84375 0.859375 -4.84375 0.859375 -4.84375 C 0.859375 -4.84375 1.65625 -10.40625 1.65625 -10.40625 C 1.65625 -10.40625 7.140625 -10.40625 7.140625 -10.40625 C 7.140625 -10.40625 7.140625 -9.109375 7.140625 -9.109375 C 7.140625 -9.109375 2.71875 -9.109375 2.71875 -9.109375 C 2.71875 -9.109375 2.296875 -6.359375 2.296875 -6.359375 C 2.90625 -6.8125 3.515625 -7 4.265625 -7 C 6.296875 -7 7.6875 -5.625 7.6875 -3.53125 Z M 7.6875 -3.53125 "/>
</symbol>
<symbol overflow="visible" id="glyph6-0-DSEaUlFY">
<path style="stroke:none;" d="M 0.296875 -10.9375 C 0.296875 -10.9375 0.296875 0 0.296875 0 C 0.296875 0 7.046875 0 7.046875 0 C 7.046875 0 7.046875 -10.9375 7.046875 -10.9375 C 7.046875 -10.9375 0.296875 -10.9375 0.296875 -10.9375 Z M 1.078125 -0.78125 C 1.078125 -0.78125 1.078125 -10.15625 1.078125 -10.15625 C 1.078125 -10.15625 6.265625 -10.15625 6.265625 -10.15625 C 6.265625 -10.15625 6.265625 -0.78125 6.265625 -0.78125 C 6.265625 -0.78125 1.078125 -0.78125 1.078125 -0.78125 Z M 1.078125 -0.78125 "/>
</symbol>
<symbol overflow="visible" id="glyph6-1-DSEaUlFY">
<path style="stroke:none;" d="M 7.609375 -5.109375 C 7.609375 -1.625 6.375 0.21875 4.125 0.21875 C 1.84375 0.21875 0.640625 -1.625 0.640625 -5.203125 C 0.640625 -8.78125 1.828125 -10.640625 4.125 -10.640625 C 6.4375 -10.640625 7.609375 -8.8125 7.609375 -5.109375 Z M 6.25 -5.234375 C 6.25 -8.078125 5.546875 -9.46875 4.125 -9.46875 C 2.703125 -9.46875 2 -8.09375 2 -5.1875 C 2 -2.28125 2.703125 -0.875 4.09375 -0.875 C 5.5625 -0.875 6.25 -2.21875 6.25 -5.234375 Z M 6.25 -5.234375 "/>
</symbol>
<symbol overflow="visible" id="glyph7-0-DSEaUlFY">
<path style="stroke:none;" d="M -10.9375 -0.296875 C -10.9375 -0.296875 0 -0.296875 0 -0.296875 C 0 -0.296875 0 -7.046875 0 -7.046875 C 0 -7.046875 -10.9375 -7.046875 -10.9375 -7.046875 C -10.9375 -7.046875 -10.9375 -0.296875 -10.9375 -0.296875 Z M -0.78125 -1.078125 C -0.78125 -1.078125 -10.15625 -1.078125 -10.15625 -1.078125 C -10.15625 -1.078125 -10.15625 -6.265625 -10.15625 -6.265625 C -10.15625 -6.265625 -0.78125 -6.265625 -0.78125 -6.265625 C -0.78125 -6.265625 -0.78125 -1.078125 -0.78125 -1.078125 Z M -0.78125 -1.078125 "/>
</symbol>
<symbol overflow="visible" id="glyph7-1-DSEaUlFY">
<path style="stroke:none;" d="M 3 -7.3125 C 3 -7.3125 3 -6.0625 3 -6.0625 C 3 -6.0625 -5.4375 -6.0625 -5.4375 -6.0625 C -6.390625 -6.0625 -6.984375 -5.4375 -6.984375 -4.4375 C -6.984375 -3.171875 -5.9375 -2.296875 -4.328125 -2.296875 C -4.328125 -2.296875 0 -2.296875 0 -2.296875 C 0 -2.296875 0 -1.046875 0 -1.046875 C 0 -1.046875 -7.859375 -1.046875 -7.859375 -1.046875 C -7.859375 -1.046875 -7.859375 -2.203125 -7.859375 -2.203125 C -7.859375 -2.203125 -6.546875 -2.203125 -6.546875 -2.203125 C -7.640625 -2.890625 -8.078125 -3.640625 -8.078125 -4.8125 C -8.078125 -6.328125 -7.25 -7.3125 -5.9375 -7.3125 C -5.9375 -7.3125 3 -7.3125 3 -7.3125 Z M 3 -7.3125 "/>
</symbol>
<symbol overflow="visible" id="glyph8-0-DSEaUlFY">
<path style="stroke:none;" d="M -10.9375 -0.296875 C -10.9375 -0.296875 0 -0.296875 0 -0.296875 C 0 -0.296875 0 -7.046875 0 -7.046875 C 0 -7.046875 -10.9375 -7.046875 -10.9375 -7.046875 C -10.9375 -7.046875 -10.9375 -0.296875 -10.9375 -0.296875 Z M -0.78125 -1.078125 C -0.78125 -1.078125 -10.15625 -1.078125 -10.15625 -1.078125 C -10.15625 -1.078125 -10.15625 -6.265625 -10.15625 -6.265625 C -10.15625 -6.265625 -0.78125 -6.265625 -0.78125 -6.265625 C -0.78125 -6.265625 -0.78125 -1.078125 -0.78125 -1.078125 Z M -0.78125 -1.078125 "/>
</symbol>
<symbol overflow="visible" id="glyph8-1-DSEaUlFY">
<path style="stroke:none;" d=""/>
</symbol>
<symbol overflow="visible" id="glyph8-2-DSEaUlFY">
<path style="stroke:none;" d="M 3.1875 -3.75 C 3.1875 -3.75 3.1875 -0.953125 3.1875 -0.953125 C 3.1875 -0.953125 -10.9375 -0.953125 -10.9375 -0.953125 C -10.9375 -0.953125 -10.9375 -3.75 -10.9375 -3.75 C -10.9375 -3.75 -9.859375 -3.75 -9.859375 -3.75 C -9.859375 -3.75 -9.859375 -2.203125 -9.859375 -2.203125 C -9.859375 -2.203125 2.09375 -2.203125 2.09375 -2.203125 C 2.09375 -2.203125 2.09375 -3.75 2.09375 -3.75 C 2.09375 -3.75 3.1875 -3.75 3.1875 -3.75 Z M 3.1875 -3.75 "/>
</symbol>
<symbol overflow="visible" id="glyph8-3-DSEaUlFY">
<path style="stroke:none;" d="M 0 -11.40625 C 0 -11.40625 0 -10.15625 0 -10.15625 C 0 -10.15625 -5.421875 -10.15625 -5.421875 -10.15625 C -6.40625 -10.15625 -6.984375 -9.625 -6.984375 -8.71875 C -6.984375 -7.6875 -6.078125 -6.859375 -4.9375 -6.859375 C -4.9375 -6.859375 0 -6.859375 0 -6.859375 C 0 -6.859375 0 -5.609375 0 -5.609375 C 0 -5.609375 -5.421875 -5.609375 -5.421875 -5.609375 C -6.421875 -5.609375 -6.984375 -5.078125 -6.984375 -4.15625 C -6.984375 -3.140625 -6.078125 -2.3125 -4.9375 -2.3125 C -4.9375 -2.3125 0 -2.3125 0 -2.3125 C 0 -2.3125 0 -1.0625 0 -1.0625 C 0 -1.0625 -7.859375 -1.0625 -7.859375 -1.0625 C -7.859375 -1.0625 -7.859375 -2.203125 -7.859375 -2.203125 C -7.859375 -2.203125 -6.75 -2.203125 -6.75 -2.203125 C -7.6875 -2.875 -8.078125 -3.5625 -8.078125 -4.625 C -8.078125 -5.640625 -7.71875 -6.265625 -6.890625 -6.734375 C -7.765625 -7.46875 -8.078125 -8.09375 -8.078125 -9.15625 C -8.078125 -10.625 -7.3125 -11.40625 -5.890625 -11.40625 C -5.890625 -11.40625 0 -11.40625 0 -11.40625 Z M 0 -11.40625 "/>
</symbol>
<symbol overflow="visible" id="glyph8-4-DSEaUlFY">
<path style="stroke:none;" d="M 3.1875 -3.140625 C 3.1875 -3.140625 3.1875 -0.34375 3.1875 -0.34375 C 3.1875 -0.34375 2.09375 -0.34375 2.09375 -0.34375 C 2.09375 -0.34375 2.09375 -1.890625 2.09375 -1.890625 C 2.09375 -1.890625 -9.859375 -1.890625 -9.859375 -1.890625 C -9.859375 -1.890625 -9.859375 -0.34375 -9.859375 -0.34375 C -9.859375 -0.34375 -10.9375 -0.34375 -10.9375 -0.34375 C -10.9375 -0.34375 -10.9375 -3.140625 -10.9375 -3.140625 C -10.9375 -3.140625 3.1875 -3.140625 3.1875 -3.140625 Z M 3.1875 -3.140625 "/>
</symbol>
<symbol overflow="visible" id="glyph9-0-DSEaUlFY">
<path style="stroke:none;" d="M 0.296875 -10.9375 C 0.296875 -10.9375 0.296875 0 0.296875 0 C 0.296875 0 7.046875 0 7.046875 0 C 7.046875 0 7.046875 -10.9375 7.046875 -10.9375 C 7.046875 -10.9375 0.296875 -10.9375 0.296875 -10.9375 Z M 1.078125 -0.78125 C 1.078125 -0.78125 1.078125 -10.15625 1.078125 -10.15625 C 1.078125 -10.15625 6.265625 -10.15625 6.265625 -10.15625 C 6.265625 -10.15625 6.265625 -0.78125 6.265625 -0.78125 C 6.265625 -0.78125 1.078125 -0.78125 1.078125 -0.78125 Z M 1.078125 -0.78125 "/>
</symbol>
<symbol overflow="visible" id="glyph9-1-DSEaUlFY">
<path style="stroke:none;" d="M 4.265625 -3.59375 C 4.265625 -3.59375 0.6875 -3.59375 0.6875 -3.59375 C 0.6875 -3.59375 0.6875 -4.6875 0.6875 -4.6875 C 0.6875 -4.6875 4.265625 -4.6875 4.265625 -4.6875 C 4.265625 -4.6875 4.265625 -3.59375 4.265625 -3.59375 Z M 4.265625 -3.59375 "/>
</symbol>
<symbol overflow="visible" id="glyph9-2-DSEaUlFY">
<path style="stroke:none;" d="M 7.609375 -5.109375 C 7.609375 -1.625 6.375 0.21875 4.125 0.21875 C 1.84375 0.21875 0.640625 -1.625 0.640625 -5.203125 C 0.640625 -8.78125 1.828125 -10.640625 4.125 -10.640625 C 6.4375 -10.640625 7.609375 -8.8125 7.609375 -5.109375 Z M 6.25 -5.234375 C 6.25 -8.078125 5.546875 -9.46875 4.125 -9.46875 C 2.703125 -9.46875 2 -8.09375 2 -5.1875 C 2 -2.28125 2.703125 -0.875 4.09375 -0.875 C 5.5625 -0.875 6.25 -2.21875 6.25 -5.234375 Z M 6.25 -5.234375 "/>
</symbol>
<symbol overflow="visible" id="glyph10-0-DSEaUlFY">
<path style="stroke:none;" d="M 0.296875 -10.9375 C 0.296875 -10.9375 0.296875 0 0.296875 0 C 0.296875 0 7.046875 0 7.046875 0 C 7.046875 0 7.046875 -10.9375 7.046875 -10.9375 C 7.046875 -10.9375 0.296875 -10.9375 0.296875 -10.9375 Z M 1.078125 -0.78125 C 1.078125 -0.78125 1.078125 -10.15625 1.078125 -10.15625 C 1.078125 -10.15625 6.265625 -10.15625 6.265625 -10.15625 C 6.265625 -10.15625 6.265625 -0.78125 6.265625 -0.78125 C 6.265625 -0.78125 1.078125 -0.78125 1.078125 -0.78125 Z M 1.078125 -0.78125 "/>
</symbol>
<symbol overflow="visible" id="glyph10-1-DSEaUlFY">
<path style="stroke:none;" d="M 2.859375 0 C 2.859375 0 1.3125 0 1.3125 0 C 1.3125 0 1.3125 -1.5625 1.3125 -1.5625 C 1.3125 -1.5625 2.859375 -1.5625 2.859375 -1.5625 C 2.859375 -1.5625 2.859375 0 2.859375 0 Z M 2.859375 0 "/>
</symbol>
<symbol overflow="visible" id="glyph11-0-DSEaUlFY">
<path style="stroke:none;" d="M 0.296875 -10.9375 C 0.296875 -10.9375 0.296875 0 0.296875 0 C 0.296875 0 7.046875 0 7.046875 0 C 7.046875 0 7.046875 -10.9375 7.046875 -10.9375 C 7.046875 -10.9375 0.296875 -10.9375 0.296875 -10.9375 Z M 1.078125 -0.78125 C 1.078125 -0.78125 1.078125 -10.15625 1.078125 -10.15625 C 1.078125 -10.15625 6.265625 -10.15625 6.265625 -10.15625 C 6.265625 -10.15625 6.265625 -0.78125 6.265625 -0.78125 C 6.265625 -0.78125 1.078125 -0.78125 1.078125 -0.78125 Z M 1.078125 -0.78125 "/>
</symbol>
<symbol overflow="visible" id="glyph11-1-DSEaUlFY">
<path style="stroke:none;" d="M 7.671875 -7.515625 C 7.671875 -6.203125 6.90625 -5.09375 5.421875 -4.3125 C 5.421875 -4.3125 3.921875 -3.5 3.921875 -3.5 C 2.609375 -2.734375 2.125 -2.171875 2 -1.3125 C 2 -1.3125 7.59375 -1.3125 7.59375 -1.3125 C 7.59375 -1.3125 7.59375 0 7.59375 0 C 7.59375 0 0.515625 0 0.515625 0 C 0.625 -2.34375 1.28125 -3.34375 3.5 -4.609375 C 3.5 -4.609375 4.875 -5.390625 4.875 -5.390625 C 5.8125 -5.921875 6.3125 -6.640625 6.3125 -7.484375 C 6.3125 -8.625 5.421875 -9.484375 4.21875 -9.484375 C 2.90625 -9.484375 2.171875 -8.734375 2.0625 -6.9375 C 2.0625 -6.9375 0.75 -6.9375 0.75 -6.9375 C 0.828125 -9.53125 2.078125 -10.640625 4.265625 -10.640625 C 6.265625 -10.640625 7.671875 -9.3125 7.671875 -7.515625 Z M 7.671875 -7.515625 "/>
</symbol>
<symbol overflow="visible" id="glyph12-0-DSEaUlFY">
<path style="stroke:none;" d="M 0.296875 -10.9375 C 0.296875 -10.9375 0.296875 0 0.296875 0 C 0.296875 0 7.046875 0 7.046875 0 C 7.046875 0 7.046875 -10.9375 7.046875 -10.9375 C 7.046875 -10.9375 0.296875 -10.9375 0.296875 -10.9375 Z M 1.078125 -0.78125 C 1.078125 -0.78125 1.078125 -10.15625 1.078125 -10.15625 C 1.078125 -10.15625 6.265625 -10.15625 6.265625 -10.15625 C 6.265625 -10.15625 6.265625 -0.78125 6.265625 -0.78125 C 6.265625 -0.78125 1.078125 -0.78125 1.078125 -0.78125 Z M 1.078125 -0.78125 "/>
</symbol>
<symbol overflow="visible" id="glyph12-1-DSEaUlFY">
<path style="stroke:none;" d="M 7.609375 -5.109375 C 7.609375 -1.625 6.375 0.21875 4.125 0.21875 C 1.84375 0.21875 0.640625 -1.625 0.640625 -5.203125 C 0.640625 -8.78125 1.828125 -10.640625 4.125 -10.640625 C 6.4375 -10.640625 7.609375 -8.8125 7.609375 -5.109375 Z M 6.25 -5.234375 C 6.25 -8.078125 5.546875 -9.46875 4.125 -9.46875 C 2.703125 -9.46875 2 -8.09375 2 -5.1875 C 2 -2.28125 2.703125 -0.875 4.09375 -0.875 C 5.5625 -0.875 6.25 -2.21875 6.25 -5.234375 Z M 6.25 -5.234375 "/>
</symbol>
<symbol overflow="visible" id="glyph13-0-DSEaUlFY">
<path style="stroke:none;" d="M 0.296875 -10.9375 C 0.296875 -10.9375 0.296875 0 0.296875 0 C 0.296875 0 7.046875 0 7.046875 0 C 7.046875 0 7.046875 -10.9375 7.046875 -10.9375 C 7.046875 -10.9375 0.296875 -10.9375 0.296875 -10.9375 Z M 1.078125 -0.78125 C 1.078125 -0.78125 1.078125 -10.15625 1.078125 -10.15625 C 1.078125 -10.15625 6.265625 -10.15625 6.265625 -10.15625 C 6.265625 -10.15625 6.265625 -0.78125 6.265625 -0.78125 C 6.265625 -0.78125 1.078125 -0.78125 1.078125 -0.78125 Z M 1.078125 -0.78125 "/>
</symbol>
<symbol overflow="visible" id="glyph13-1-DSEaUlFY">
<path style="stroke:none;" d="M 7.609375 -5.109375 C 7.609375 -1.625 6.375 0.21875 4.125 0.21875 C 1.84375 0.21875 0.640625 -1.625 0.640625 -5.203125 C 0.640625 -8.78125 1.828125 -10.640625 4.125 -10.640625 C 6.4375 -10.640625 7.609375 -8.8125 7.609375 -5.109375 Z M 6.25 -5.234375 C 6.25 -8.078125 5.546875 -9.46875 4.125 -9.46875 C 2.703125 -9.46875 2 -8.09375 2 -5.1875 C 2 -2.28125 2.703125 -0.875 4.09375 -0.875 C 5.5625 -0.875 6.25 -2.21875 6.25 -5.234375 Z M 6.25 -5.234375 "/>
</symbol>
<symbol overflow="visible" id="glyph14-0-DSEaUlFY">
<path style="stroke:none;" d="M 0.296875 -10.9375 C 0.296875 -10.9375 0.296875 0 0.296875 0 C 0.296875 0 7.046875 0 7.046875 0 C 7.046875 0 7.046875 -10.9375 7.046875 -10.9375 C 7.046875 -10.9375 0.296875 -10.9375 0.296875 -10.9375 Z M 1.078125 -0.78125 C 1.078125 -0.78125 1.078125 -10.15625 1.078125 -10.15625 C 1.078125 -10.15625 6.265625 -10.15625 6.265625 -10.15625 C 6.265625 -10.15625 6.265625 -0.78125 6.265625 -0.78125 C 6.265625 -0.78125 1.078125 -0.78125 1.078125 -0.78125 Z M 1.078125 -0.78125 "/>
</symbol>
<symbol overflow="visible" id="glyph14-1-DSEaUlFY">
<path style="stroke:none;" d="M 2.859375 0 C 2.859375 0 1.3125 0 1.3125 0 C 1.3125 0 1.3125 -1.5625 1.3125 -1.5625 C 1.3125 -1.5625 2.859375 -1.5625 2.859375 -1.5625 C 2.859375 -1.5625 2.859375 0 2.859375 0 Z M 2.859375 0 "/>
</symbol>
<symbol overflow="visible" id="glyph14-2-DSEaUlFY">
<path style="stroke:none;" d="M 7.671875 -7.515625 C 7.671875 -6.203125 6.90625 -5.09375 5.421875 -4.3125 C 5.421875 -4.3125 3.921875 -3.5 3.921875 -3.5 C 2.609375 -2.734375 2.125 -2.171875 2 -1.3125 C 2 -1.3125 7.59375 -1.3125 7.59375 -1.3125 C 7.59375 -1.3125 7.59375 0 7.59375 0 C 7.59375 0 0.515625 0 0.515625 0 C 0.625 -2.34375 1.28125 -3.34375 3.5 -4.609375 C 3.5 -4.609375 4.875 -5.390625 4.875 -5.390625 C 5.8125 -5.921875 6.3125 -6.640625 6.3125 -7.484375 C 6.3125 -8.625 5.421875 -9.484375 4.21875 -9.484375 C 2.90625 -9.484375 2.171875 -8.734375 2.0625 -6.9375 C 2.0625 -6.9375 0.75 -6.9375 0.75 -6.9375 C 0.828125 -9.53125 2.078125 -10.640625 4.265625 -10.640625 C 6.265625 -10.640625 7.671875 -9.3125 7.671875 -7.515625 Z M 7.671875 -7.515625 "/>
</symbol>
<symbol overflow="visible" id="glyph15-0-DSEaUlFY">
<path style="stroke:none;" d="M 0.296875 -10.9375 C 0.296875 -10.9375 0.296875 0 0.296875 0 C 0.296875 0 7.046875 0 7.046875 0 C 7.046875 0 7.046875 -10.9375 7.046875 -10.9375 C 7.046875 -10.9375 0.296875 -10.9375 0.296875 -10.9375 Z M 1.078125 -0.78125 C 1.078125 -0.78125 1.078125 -10.15625 1.078125 -10.15625 C 1.078125 -10.15625 6.265625 -10.15625 6.265625 -10.15625 C 6.265625 -10.15625 6.265625 -0.78125 6.265625 -0.78125 C 6.265625 -0.78125 1.078125 -0.78125 1.078125 -0.78125 Z M 1.078125 -0.78125 "/>
</symbol>
<symbol overflow="visible" id="glyph15-1-DSEaUlFY">
<path style="stroke:none;" d="M 7.796875 -2.40625 C 7.796875 -0.765625 6.546875 0.140625 4.265625 0.140625 C 1.796875 0.140625 0.5 -0.796875 0.4375 -2.5625 C 0.4375 -2.5625 2.484375 -2.5625 2.484375 -2.5625 C 2.671875 -1.6875 3.1875 -1.515625 4.140625 -1.515625 C 5.109375 -1.515625 5.703125 -1.703125 5.703125 -2.203125 C 5.703125 -2.4375 5.515625 -2.59375 5 -2.765625 C 5 -2.765625 2.484375 -3.546875 2.484375 -3.546875 C 0.984375 -4 0.71875 -4.546875 0.71875 -5.53125 C 0.71875 -7.203125 2 -8.234375 4.046875 -8.234375 C 6.21875 -8.234375 7.546875 -7.203125 7.578125 -5.484375 C 7.578125 -5.484375 5.546875 -5.484375 5.546875 -5.484375 C 5.53125 -6.21875 5.046875 -6.578125 4.03125 -6.578125 C 3.296875 -6.578125 2.8125 -6.28125 2.8125 -5.828125 C 2.8125 -5.5 2.96875 -5.375 3.5625 -5.203125 C 3.5625 -5.203125 6.203125 -4.4375 6.203125 -4.4375 C 7.28125 -4.125 7.796875 -3.4375 7.796875 -2.5 C 7.796875 -2.5 7.796875 -2.40625 7.796875 -2.40625 Z M 7.796875 -2.40625 "/>
</symbol>
<symbol overflow="visible" id="glyph16-0-DSEaUlFY">
<path style="stroke:none;" d="M 0.296875 -10.9375 C 0.296875 -10.9375 0.296875 0 0.296875 0 C 0.296875 0 7.046875 0 7.046875 0 C 7.046875 0 7.046875 -10.9375 7.046875 -10.9375 C 7.046875 -10.9375 0.296875 -10.9375 0.296875 -10.9375 Z M 1.078125 -0.78125 C 1.078125 -0.78125 1.078125 -10.15625 1.078125 -10.15625 C 1.078125 -10.15625 6.265625 -10.15625 6.265625 -10.15625 C 6.265625 -10.15625 6.265625 -0.78125 6.265625 -0.78125 C 6.265625 -0.78125 1.078125 -0.78125 1.078125 -0.78125 Z M 1.078125 -0.78125 "/>
</symbol>
<symbol overflow="visible" id="glyph16-1-DSEaUlFY">
<path style="stroke:none;" d="M 12.359375 0 C 12.359375 0 10.265625 0 10.265625 0 C 10.265625 0 10.265625 -5.40625 10.265625 -5.40625 C 10.265625 -6.046875 9.828125 -6.453125 9.125 -6.453125 C 8.21875 -6.453125 7.6875 -5.84375 7.6875 -4.859375 C 7.6875 -4.859375 7.6875 0 7.6875 0 C 7.6875 0 5.578125 0 5.578125 0 C 5.578125 0 5.578125 -5.40625 5.578125 -5.40625 C 5.578125 -6.046875 5.140625 -6.453125 4.4375 -6.453125 C 3.546875 -6.453125 3 -5.84375 3 -4.859375 C 3 -4.859375 3 0 3 0 C 3 0 0.90625 0 0.90625 0 C 0.90625 0 0.90625 -8.09375 0.90625 -8.09375 C 0.90625 -8.09375 2.984375 -8.09375 2.984375 -8.09375 C 2.984375 -8.09375 2.984375 -7.09375 2.984375 -7.09375 C 3.671875 -7.921875 4.28125 -8.234375 5.203125 -8.234375 C 6.203125 -8.234375 7.015625 -7.796875 7.40625 -7.03125 C 8.046875 -7.875 8.765625 -8.234375 9.78125 -8.234375 C 11.40625 -8.234375 12.359375 -7.3125 12.359375 -5.734375 C 12.359375 -5.734375 12.359375 0 12.359375 0 Z M 12.359375 0 "/>
</symbol>
<symbol overflow="visible" id="glyph16-2-DSEaUlFY">
<path style="stroke:none;" d="M 3.109375 0 C 3.109375 0 1 0 1 0 C 1 0 1 -10.9375 1 -10.9375 C 1 -10.9375 3.109375 -10.9375 3.109375 -10.9375 C 3.109375 -10.9375 3.109375 0 3.109375 0 Z M 3.109375 0 "/>
</symbol>
<symbol overflow="visible" id="glyph16-3-DSEaUlFY">
<path style="stroke:none;" d="M 4.46875 -3.109375 C 4.46875 -3.109375 0.390625 -3.109375 0.390625 -3.109375 C 0.390625 -3.109375 0.390625 -5.125 0.390625 -5.125 C 0.390625 -5.125 4.46875 -5.125 4.46875 -5.125 C 4.46875 -5.125 4.46875 -3.109375 4.46875 -3.109375 Z M 4.46875 -3.109375 "/>
</symbol>
<symbol overflow="visible" id="glyph16-4-DSEaUlFY">
<path style="stroke:none;" d="M 8.1875 0 C 8.1875 0 6.09375 0 6.09375 0 C 6.09375 0 6.09375 -5 6.09375 -5 C 6.09375 -5.953125 5.640625 -6.453125 4.734375 -6.453125 C 3.71875 -6.453125 3.046875 -5.8125 3.046875 -4.859375 C 3.046875 -4.859375 3.046875 0 3.046875 0 C 3.046875 0 0.9375 0 0.9375 0 C 0.9375 0 0.9375 -8.09375 0.9375 -8.09375 C 0.9375 -8.09375 3.046875 -8.09375 3.046875 -8.09375 C 3.046875 -8.09375 3.046875 -6.9375 3.046875 -6.9375 C 3.640625 -7.828125 4.375 -8.234375 5.46875 -8.234375 C 7.203125 -8.234375 8.1875 -7.21875 8.1875 -5.4375 C 8.1875 -5.4375 8.1875 0 8.1875 0 Z M 8.1875 0 "/>
</symbol>
<symbol overflow="visible" id="glyph16-5-DSEaUlFY">
<path style="stroke:none;" d="M 8.53125 -3.984375 C 8.53125 -1.390625 6.984375 0.140625 4.53125 0.140625 C 2.046875 0.140625 0.53125 -1.375 0.53125 -4.046875 C 0.53125 -6.703125 2.046875 -8.234375 4.515625 -8.234375 C 7.046875 -8.234375 8.53125 -6.734375 8.53125 -3.984375 Z M 6.4375 -4.015625 C 6.4375 -5.609375 5.6875 -6.546875 4.53125 -6.546875 C 3.390625 -6.546875 2.625 -5.59375 2.625 -4.046875 C 2.625 -2.5 3.390625 -1.5625 4.53125 -1.5625 C 5.65625 -1.5625 6.4375 -2.5 6.4375 -4.015625 Z M 6.4375 -4.015625 "/>
</symbol>
<symbol overflow="visible" id="glyph16-6-DSEaUlFY">
<path style="stroke:none;" d="M 3.109375 0 C 3.109375 0 1 0 1 0 C 1 0 1 -8.09375 1 -8.09375 C 1 -8.09375 3.109375 -8.09375 3.109375 -8.09375 C 3.109375 -8.09375 3.109375 0 3.109375 0 Z M 3.140625 -9.078125 C 3.140625 -9.078125 1.03125 -9.078125 1.03125 -9.078125 C 1.03125 -9.078125 1.03125 -11.171875 1.03125 -11.171875 C 1.03125 -11.171875 3.140625 -11.171875 3.140625 -11.171875 C 3.140625 -11.171875 3.140625 -9.078125 3.140625 -9.078125 Z M 3.140625 -9.078125 "/>
</symbol>
<symbol overflow="visible" id="glyph16-7-DSEaUlFY">
<path style="stroke:none;" d="M 7.875 -3.75 C 7.875 -3.75 7.859375 -3.5 7.859375 -3.5 C 7.859375 -3.5 2.4375 -3.5 2.4375 -3.5 C 2.484375 -1.921875 3.125 -1.46875 4.109375 -1.46875 C 4.875 -1.46875 5.53125 -1.6875 5.71875 -2.28125 C 5.71875 -2.28125 7.78125 -2.28125 7.78125 -2.28125 C 7.3125 -0.6875 5.84375 0.140625 4.03125 0.140625 C 1.734375 0.140625 0.328125 -1.34375 0.328125 -3.9375 C 0.328125 -6.65625 1.75 -8.234375 4.078125 -8.234375 C 6.46875 -8.234375 7.875 -6.546875 7.875 -3.75 Z M 5.6875 -4.890625 C 5.578125 -6.046875 4.953125 -6.625 4.046875 -6.625 C 3.125 -6.625 2.59375 -6.015625 2.453125 -4.890625 C 2.453125 -4.890625 5.6875 -4.890625 5.6875 -4.890625 Z M 5.6875 -4.890625 "/>
</symbol>
<symbol overflow="visible" id="glyph17-0-DSEaUlFY">
<path style="stroke:none;" d="M 0.296875 -10.9375 C 0.296875 -10.9375 0.296875 0 0.296875 0 C 0.296875 0 7.046875 0 7.046875 0 C 7.046875 0 7.046875 -10.9375 7.046875 -10.9375 C 7.046875 -10.9375 0.296875 -10.9375 0.296875 -10.9375 Z M 1.078125 -0.78125 C 1.078125 -0.78125 1.078125 -10.15625 1.078125 -10.15625 C 1.078125 -10.15625 6.265625 -10.15625 6.265625 -10.15625 C 6.265625 -10.15625 6.265625 -0.78125 6.265625 -0.78125 C 6.265625 -0.78125 1.078125 -0.78125 1.078125 -0.78125 Z M 1.078125 -0.78125 "/>
</symbol>
<symbol overflow="visible" id="glyph17-1-DSEaUlFY">
<path style="stroke:none;" d="M 7.859375 0 C 7.859375 0 5.578125 0 5.578125 0 C 5.390625 -0.234375 5.34375 -0.59375 5.34375 -1.015625 C 4.609375 -0.25 3.78125 0.140625 2.875 0.140625 C 1.53125 0.140625 0.421875 -0.609375 0.421875 -2.1875 C 0.421875 -3.65625 1.203125 -4.34375 2.8125 -4.640625 C 2.8125 -4.640625 3.640625 -4.78125 3.640625 -4.78125 C 4.6875 -4.96875 5.328125 -4.875 5.328125 -5.734375 C 5.328125 -6.265625 4.921875 -6.546875 4.109375 -6.546875 C 3.078125 -6.546875 2.734375 -6.265625 2.625 -5.4375 C 2.625 -5.4375 0.59375 -5.4375 0.59375 -5.4375 C 0.734375 -7.3125 1.875 -8.234375 4.0625 -8.234375 C 6.25 -8.234375 7.375 -7.390625 7.375 -5.75 C 7.375 -5.75 7.375 -1.25 7.375 -1.25 C 7.375 -0.828125 7.484375 -0.59375 7.859375 -0.25 C 7.859375 -0.25 7.859375 0 7.859375 0 Z M 5.328125 -3.46875 C 5.328125 -3.46875 5.328125 -3.828125 5.328125 -3.828125 C 5.078125 -3.703125 5 -3.671875 4.4375 -3.5625 C 4.4375 -3.5625 3.71875 -3.4375 3.71875 -3.4375 C 2.84375 -3.265625 2.515625 -3.046875 2.515625 -2.4375 C 2.515625 -1.828125 2.953125 -1.5625 3.65625 -1.5625 C 4.71875 -1.5625 5.328125 -2.25 5.328125 -3.46875 Z M 5.328125 -3.46875 "/>
</symbol>
<symbol overflow="visible" id="glyph17-2-DSEaUlFY">
<path style="stroke:none;" d="M 7.828125 -2.8125 C 7.640625 -1.078125 6.265625 0.140625 4.3125 0.140625 C 1.90625 0.140625 0.515625 -1.3125 0.515625 -3.984375 C 0.515625 -6.75 1.921875 -8.234375 4.328125 -8.234375 C 6.359375 -8.234375 7.6875 -7.046875 7.828125 -5.0625 C 7.828125 -5.0625 5.8125 -5.0625 5.8125 -5.0625 C 5.578125 -6.140625 5.171875 -6.546875 4.3125 -6.546875 C 3 -6.546875 2.609375 -5.46875 2.609375 -3.984375 C 2.609375 -2.421875 3.25 -1.5625 4.3125 -1.5625 C 5.125 -1.5625 5.546875 -1.96875 5.8125 -2.8125 C 5.8125 -2.8125 7.828125 -2.8125 7.828125 -2.8125 Z M 7.828125 -2.8125 "/>
</symbol>
<symbol overflow="visible" id="glyph17-3-DSEaUlFY">
<path style="stroke:none;" d="M 3.109375 0 C 3.109375 0 1 0 1 0 C 1 0 1 -10.9375 1 -10.9375 C 1 -10.9375 3.109375 -10.9375 3.109375 -10.9375 C 3.109375 -10.9375 3.109375 0 3.109375 0 Z M 3.109375 0 "/>
</symbol>
<symbol overflow="visible" id="glyph17-4-DSEaUlFY">
<path style="stroke:none;" d="M 7.875 -3.75 C 7.875 -3.75 7.859375 -3.5 7.859375 -3.5 C 7.859375 -3.5 2.4375 -3.5 2.4375 -3.5 C 2.484375 -1.921875 3.125 -1.46875 4.109375 -1.46875 C 4.875 -1.46875 5.53125 -1.6875 5.71875 -2.28125 C 5.71875 -2.28125 7.78125 -2.28125 7.78125 -2.28125 C 7.3125 -0.6875 5.84375 0.140625 4.03125 0.140625 C 1.734375 0.140625 0.328125 -1.34375 0.328125 -3.9375 C 0.328125 -6.65625 1.75 -8.234375 4.078125 -8.234375 C 6.46875 -8.234375 7.875 -6.546875 7.875 -3.75 Z M 5.6875 -4.890625 C 5.578125 -6.046875 4.953125 -6.625 4.046875 -6.625 C 3.125 -6.625 2.59375 -6.015625 2.453125 -4.890625 C 2.453125 -4.890625 5.6875 -4.890625 5.6875 -4.890625 Z M 5.6875 -4.890625 "/>
</symbol>
<symbol overflow="visible" id="glyph17-5-DSEaUlFY">
<path style="stroke:none;" d="M 7.796875 -2.40625 C 7.796875 -0.765625 6.546875 0.140625 4.265625 0.140625 C 1.796875 0.140625 0.5 -0.796875 0.4375 -2.5625 C 0.4375 -2.5625 2.484375 -2.5625 2.484375 -2.5625 C 2.671875 -1.6875 3.1875 -1.515625 4.140625 -1.515625 C 5.109375 -1.515625 5.703125 -1.703125 5.703125 -2.203125 C 5.703125 -2.4375 5.515625 -2.59375 5 -2.765625 C 5 -2.765625 2.484375 -3.546875 2.484375 -3.546875 C 0.984375 -4 0.71875 -4.546875 0.71875 -5.53125 C 0.71875 -7.203125 2 -8.234375 4.046875 -8.234375 C 6.21875 -8.234375 7.546875 -7.203125 7.578125 -5.484375 C 7.578125 -5.484375 5.546875 -5.484375 5.546875 -5.484375 C 5.53125 -6.21875 5.046875 -6.578125 4.03125 -6.578125 C 3.296875 -6.578125 2.8125 -6.28125 2.8125 -5.828125 C 2.8125 -5.5 2.96875 -5.375 3.5625 -5.203125 C 3.5625 -5.203125 6.203125 -4.4375 6.203125 -4.4375 C 7.28125 -4.125 7.796875 -3.4375 7.796875 -2.5 C 7.796875 -2.5 7.796875 -2.40625 7.796875 -2.40625 Z M 7.796875 -2.40625 "/>
</symbol>
<symbol overflow="visible" id="glyph18-0-DSEaUlFY">
<path style="stroke:none;" d="M 0.296875 -10.9375 C 0.296875 -10.9375 0.296875 0 0.296875 0 C 0.296875 0 7.046875 0 7.046875 0 C 7.046875 0 7.046875 -10.9375 7.046875 -10.9375 C 7.046875 -10.9375 0.296875 -10.9375 0.296875 -10.9375 Z M 1.078125 -0.78125 C 1.078125 -0.78125 1.078125 -10.15625 1.078125 -10.15625 C 1.078125 -10.15625 6.265625 -10.15625 6.265625 -10.15625 C 6.265625 -10.15625 6.265625 -0.78125 6.265625 -0.78125 C 6.265625 -0.78125 1.078125 -0.78125 1.078125 -0.78125 Z M 1.078125 -0.78125 "/>
</symbol>
<symbol overflow="visible" id="glyph18-1-DSEaUlFY">
<path style="stroke:none;" d="M 7.796875 -2.40625 C 7.796875 -0.765625 6.546875 0.140625 4.265625 0.140625 C 1.796875 0.140625 0.5 -0.796875 0.4375 -2.5625 C 0.4375 -2.5625 2.484375 -2.5625 2.484375 -2.5625 C 2.671875 -1.6875 3.1875 -1.515625 4.140625 -1.515625 C 5.109375 -1.515625 5.703125 -1.703125 5.703125 -2.203125 C 5.703125 -2.4375 5.515625 -2.59375 5 -2.765625 C 5 -2.765625 2.484375 -3.546875 2.484375 -3.546875 C 0.984375 -4 0.71875 -4.546875 0.71875 -5.53125 C 0.71875 -7.203125 2 -8.234375 4.046875 -8.234375 C 6.21875 -8.234375 7.546875 -7.203125 7.578125 -5.484375 C 7.578125 -5.484375 5.546875 -5.484375 5.546875 -5.484375 C 5.53125 -6.21875 5.046875 -6.578125 4.03125 -6.578125 C 3.296875 -6.578125 2.8125 -6.28125 2.8125 -5.828125 C 2.8125 -5.5 2.96875 -5.375 3.5625 -5.203125 C 3.5625 -5.203125 6.203125 -4.4375 6.203125 -4.4375 C 7.28125 -4.125 7.796875 -3.4375 7.796875 -2.5 C 7.796875 -2.5 7.796875 -2.40625 7.796875 -2.40625 Z M 7.796875 -2.40625 "/>
</symbol>
<symbol overflow="visible" id="glyph18-2-DSEaUlFY">
<path style="stroke:none;" d="M 7.859375 0 C 7.859375 0 5.578125 0 5.578125 0 C 5.390625 -0.234375 5.34375 -0.59375 5.34375 -1.015625 C 4.609375 -0.25 3.78125 0.140625 2.875 0.140625 C 1.53125 0.140625 0.421875 -0.609375 0.421875 -2.1875 C 0.421875 -3.65625 1.203125 -4.34375 2.8125 -4.640625 C 2.8125 -4.640625 3.640625 -4.78125 3.640625 -4.78125 C 4.6875 -4.96875 5.328125 -4.875 5.328125 -5.734375 C 5.328125 -6.265625 4.921875 -6.546875 4.109375 -6.546875 C 3.078125 -6.546875 2.734375 -6.265625 2.625 -5.4375 C 2.625 -5.4375 0.59375 -5.4375 0.59375 -5.4375 C 0.734375 -7.3125 1.875 -8.234375 4.0625 -8.234375 C 6.25 -8.234375 7.375 -7.390625 7.375 -5.75 C 7.375 -5.75 7.375 -1.25 7.375 -1.25 C 7.375 -0.828125 7.484375 -0.59375 7.859375 -0.25 C 7.859375 -0.25 7.859375 0 7.859375 0 Z M 5.328125 -3.46875 C 5.328125 -3.46875 5.328125 -3.828125 5.328125 -3.828125 C 5.078125 -3.703125 5 -3.671875 4.4375 -3.5625 C 4.4375 -3.5625 3.71875 -3.4375 3.71875 -3.4375 C 2.84375 -3.265625 2.515625 -3.046875 2.515625 -2.4375 C 2.515625 -1.828125 2.953125 -1.5625 3.65625 -1.5625 C 4.71875 -1.5625 5.328125 -2.25 5.328125 -3.46875 Z M 5.328125 -3.46875 "/>
</symbol>
<symbol overflow="visible" id="glyph18-3-DSEaUlFY">
<path style="stroke:none;" d=""/>
</symbol>
<symbol overflow="visible" id="glyph19-0-DSEaUlFY">
<path style="stroke:none;" d="M 0.296875 -10.9375 C 0.296875 -10.9375 0.296875 0 0.296875 0 C 0.296875 0 7.046875 0 7.046875 0 C 7.046875 0 7.046875 -10.9375 7.046875 -10.9375 C 7.046875 -10.9375 0.296875 -10.9375 0.296875 -10.9375 Z M 1.078125 -0.78125 C 1.078125 -0.78125 1.078125 -10.15625 1.078125 -10.15625 C 1.078125 -10.15625 6.265625 -10.15625 6.265625 -10.15625 C 6.265625 -10.15625 6.265625 -0.78125 6.265625 -0.78125 C 6.265625 -0.78125 1.078125 -0.78125 1.078125 -0.78125 Z M 1.078125 -0.78125 "/>
</symbol>
<symbol overflow="visible" id="glyph19-1-DSEaUlFY">
<path style="stroke:none;" d="M 7.09375 0 C 7.09375 0 5.640625 0 5.640625 0 C 5.640625 0 3.671875 -3.015625 3.671875 -3.015625 C 3.671875 -3.015625 1.6875 0 1.6875 0 C 1.6875 0 0.25 0 0.25 0 C 0.25 0 3.03125 -4 3.03125 -4 C 3.03125 -4 0.40625 -7.859375 0.40625 -7.859375 C 0.40625 -7.859375 1.828125 -7.859375 1.828125 -7.859375 C 1.828125 -7.859375 3.71875 -5.015625 3.71875 -5.015625 C 3.71875 -5.015625 5.609375 -7.859375 5.609375 -7.859375 C 5.609375 -7.859375 7.015625 -7.859375 7.015625 -7.859375 C 7.015625 -7.859375 4.375 -4.0625 4.375 -4.0625 C 4.375 -4.0625 7.09375 0 7.09375 0 Z M 7.09375 0 "/>
</symbol>
<symbol overflow="visible" id="glyph19-2-DSEaUlFY">
<path style="stroke:none;" d="M 11.40625 0 C 11.40625 0 10.15625 0 10.15625 0 C 10.15625 0 10.15625 -5.421875 10.15625 -5.421875 C 10.15625 -6.40625 9.625 -6.984375 8.71875 -6.984375 C 7.6875 -6.984375 6.859375 -6.078125 6.859375 -4.9375 C 6.859375 -4.9375 6.859375 0 6.859375 0 C 6.859375 0 5.609375 0 5.609375 0 C 5.609375 0 5.609375 -5.421875 5.609375 -5.421875 C 5.609375 -6.421875 5.078125 -6.984375 4.15625 -6.984375 C 3.140625 -6.984375 2.3125 -6.078125 2.3125 -4.9375 C 2.3125 -4.9375 2.3125 0 2.3125 0 C 2.3125 0 1.0625 0 1.0625 0 C 1.0625 0 1.0625 -7.859375 1.0625 -7.859375 C 1.0625 -7.859375 2.203125 -7.859375 2.203125 -7.859375 C 2.203125 -7.859375 2.203125 -6.75 2.203125 -6.75 C 2.875 -7.6875 3.5625 -8.078125 4.625 -8.078125 C 5.640625 -8.078125 6.265625 -7.71875 6.734375 -6.890625 C 7.46875 -7.765625 8.09375 -8.078125 9.15625 -8.078125 C 10.625 -8.078125 11.40625 -7.3125 11.40625 -5.890625 C 11.40625 -5.890625 11.40625 0 11.40625 0 Z M 11.40625 0 "/>
</symbol>
<symbol overflow="visible" id="glyph20-0-DSEaUlFY">
<path style="stroke:none;" d="M 0.296875 -10.9375 C 0.296875 -10.9375 0.296875 0 0.296875 0 C 0.296875 0 7.046875 0 7.046875 0 C 7.046875 0 7.046875 -10.9375 7.046875 -10.9375 C 7.046875 -10.9375 0.296875 -10.9375 0.296875 -10.9375 Z M 1.078125 -0.78125 C 1.078125 -0.78125 1.078125 -10.15625 1.078125 -10.15625 C 1.078125 -10.15625 6.265625 -10.15625 6.265625 -10.15625 C 6.265625 -10.15625 6.265625 -0.78125 6.265625 -0.78125 C 6.265625 -0.78125 1.078125 -0.78125 1.078125 -0.78125 Z M 1.078125 -0.78125 "/>
</symbol>
<symbol overflow="visible" id="glyph20-1-DSEaUlFY">
<path style="stroke:none;" d=""/>
</symbol>
<symbol overflow="visible" id="glyph20-2-DSEaUlFY">
<path style="stroke:none;" d="M 3.75 3.1875 C 3.75 3.1875 0.953125 3.1875 0.953125 3.1875 C 0.953125 3.1875 0.953125 -10.9375 0.953125 -10.9375 C 0.953125 -10.9375 3.75 -10.9375 3.75 -10.9375 C 3.75 -10.9375 3.75 -9.859375 3.75 -9.859375 C 3.75 -9.859375 2.203125 -9.859375 2.203125 -9.859375 C 2.203125 -9.859375 2.203125 2.09375 2.203125 2.09375 C 2.203125 2.09375 3.75 2.09375 3.75 2.09375 C 3.75 2.09375 3.75 3.1875 3.75 3.1875 Z M 3.75 3.1875 "/>
</symbol>
<symbol overflow="visible" id="glyph20-3-DSEaUlFY">
<path style="stroke:none;" d="M 7.53125 0 C 7.53125 0 5.984375 0 5.984375 0 C 5.984375 0 3.328125 -4.265625 3.328125 -4.265625 C 3.328125 -4.265625 2.109375 -3.0625 2.109375 -3.0625 C 2.109375 -3.0625 2.109375 0 2.109375 0 C 2.109375 0 0.875 0 0.875 0 C 0.875 0 0.875 -10.9375 0.875 -10.9375 C 0.875 -10.9375 2.109375 -10.9375 2.109375 -10.9375 C 2.109375 -10.9375 2.109375 -4.53125 2.109375 -4.53125 C 2.109375 -4.53125 5.4375 -7.859375 5.4375 -7.859375 C 5.4375 -7.859375 7.046875 -7.859375 7.046875 -7.859375 C 7.046875 -7.859375 4.3125 -5.140625 4.3125 -5.140625 C 4.3125 -5.140625 7.53125 0 7.53125 0 Z M 7.53125 0 "/>
</symbol>
<symbol overflow="visible" id="glyph21-0-DSEaUlFY">
<path style="stroke:none;" d="M 0.296875 -10.9375 C 0.296875 -10.9375 0.296875 0 0.296875 0 C 0.296875 0 7.046875 0 7.046875 0 C 7.046875 0 7.046875 -10.9375 7.046875 -10.9375 C 7.046875 -10.9375 0.296875 -10.9375 0.296875 -10.9375 Z M 1.078125 -0.78125 C 1.078125 -0.78125 1.078125 -10.15625 1.078125 -10.15625 C 1.078125 -10.15625 6.265625 -10.15625 6.265625 -10.15625 C 6.265625 -10.15625 6.265625 -0.78125 6.265625 -0.78125 C 6.265625 -0.78125 1.078125 -0.78125 1.078125 -0.78125 Z M 1.078125 -0.78125 "/>
</symbol>
<symbol overflow="visible" id="glyph21-1-DSEaUlFY">
<path style="stroke:none;" d="M 3.140625 3.1875 C 3.140625 3.1875 0.34375 3.1875 0.34375 3.1875 C 0.34375 3.1875 0.34375 2.09375 0.34375 2.09375 C 0.34375 2.09375 1.890625 2.09375 1.890625 2.09375 C 1.890625 2.09375 1.890625 -9.859375 1.890625 -9.859375 C 1.890625 -9.859375 0.34375 -9.859375 0.34375 -9.859375 C 0.34375 -9.859375 0.34375 -10.9375 0.34375 -10.9375 C 0.34375 -10.9375 3.140625 -10.9375 3.140625 -10.9375 C 3.140625 -10.9375 3.140625 3.1875 3.140625 3.1875 Z M 3.140625 3.1875 "/>
</symbol>
<symbol overflow="visible" id="glyph22-0-DSEaUlFY">
<path style="stroke:none;" d="M 0.296875 -10.9375 C 0.296875 -10.9375 0.296875 0 0.296875 0 C 0.296875 0 7.046875 0 7.046875 0 C 7.046875 0 7.046875 -10.9375 7.046875 -10.9375 C 7.046875 -10.9375 0.296875 -10.9375 0.296875 -10.9375 Z M 1.078125 -0.78125 C 1.078125 -0.78125 1.078125 -10.15625 1.078125 -10.15625 C 1.078125 -10.15625 6.265625 -10.15625 6.265625 -10.15625 C 6.265625 -10.15625 6.265625 -0.78125 6.265625 -0.78125 C 6.265625 -0.78125 1.078125 -0.78125 1.078125 -0.78125 Z M 1.078125 -0.78125 "/>
</symbol>
<symbol overflow="visible" id="glyph22-1-DSEaUlFY">
<path style="stroke:none;" d="M 4.265625 -3.59375 C 4.265625 -3.59375 0.6875 -3.59375 0.6875 -3.59375 C 0.6875 -3.59375 0.6875 -4.6875 0.6875 -4.6875 C 0.6875 -4.6875 4.265625 -4.6875 4.265625 -4.6875 C 4.265625 -4.6875 4.265625 -3.59375 4.265625 -3.59375 Z M 4.265625 -3.59375 "/>
</symbol>
<symbol overflow="visible" id="glyph23-0-DSEaUlFY">
<path style="stroke:none;" d="M 0.296875 -10.9375 C 0.296875 -10.9375 0.296875 0 0.296875 0 C 0.296875 0 7.046875 0 7.046875 0 C 7.046875 0 7.046875 -10.9375 7.046875 -10.9375 C 7.046875 -10.9375 0.296875 -10.9375 0.296875 -10.9375 Z M 1.078125 -0.78125 C 1.078125 -0.78125 1.078125 -10.15625 1.078125 -10.15625 C 1.078125 -10.15625 6.265625 -10.15625 6.265625 -10.15625 C 6.265625 -10.15625 6.265625 -0.78125 6.265625 -0.78125 C 6.265625 -0.78125 1.078125 -0.78125 1.078125 -0.78125 Z M 1.078125 -0.78125 "/>
</symbol>
<symbol overflow="visible" id="glyph23-1-DSEaUlFY">
<path style="stroke:none;" d="M 7.6875 -3.53125 C 7.6875 -1.28125 6.1875 0.21875 4.046875 0.21875 C 2.15625 0.21875 0.953125 -0.609375 0.53125 -2.734375 C 0.53125 -2.734375 1.84375 -2.734375 1.84375 -2.734375 C 2.15625 -1.53125 2.859375 -0.9375 4.015625 -0.9375 C 5.453125 -0.9375 6.34375 -1.8125 6.34375 -3.34375 C 6.34375 -4.921875 5.4375 -5.828125 4.015625 -5.828125 C 3.1875 -5.828125 2.6875 -5.578125 2.0625 -4.84375 C 2.0625 -4.84375 0.859375 -4.84375 0.859375 -4.84375 C 0.859375 -4.84375 1.65625 -10.40625 1.65625 -10.40625 C 1.65625 -10.40625 7.140625 -10.40625 7.140625 -10.40625 C 7.140625 -10.40625 7.140625 -9.109375 7.140625 -9.109375 C 7.140625 -9.109375 2.71875 -9.109375 2.71875 -9.109375 C 2.71875 -9.109375 2.296875 -6.359375 2.296875 -6.359375 C 2.90625 -6.8125 3.515625 -7 4.265625 -7 C 6.296875 -7 7.6875 -5.625 7.6875 -3.53125 Z M 7.6875 -3.53125 "/>
</symbol>
<symbol overflow="visible" id="glyph24-0-DSEaUlFY">
<path style="stroke:none;" d="M 0.296875 -10.9375 C 0.296875 -10.9375 0.296875 0 0.296875 0 C 0.296875 0 7.046875 0 7.046875 0 C 7.046875 0 7.046875 -10.9375 7.046875 -10.9375 C 7.046875 -10.9375 0.296875 -10.9375 0.296875 -10.9375 Z M 1.078125 -0.78125 C 1.078125 -0.78125 1.078125 -10.15625 1.078125 -10.15625 C 1.078125 -10.15625 6.265625 -10.15625 6.265625 -10.15625 C 6.265625 -10.15625 6.265625 -0.78125 6.265625 -0.78125 C 6.265625 -0.78125 1.078125 -0.78125 1.078125 -0.78125 Z M 1.078125 -0.78125 "/>
</symbol>
<symbol overflow="visible" id="glyph24-1-DSEaUlFY">
<path style="stroke:none;" d="M 7.609375 -5.109375 C 7.609375 -1.625 6.375 0.21875 4.125 0.21875 C 1.84375 0.21875 0.640625 -1.625 0.640625 -5.203125 C 0.640625 -8.78125 1.828125 -10.640625 4.125 -10.640625 C 6.4375 -10.640625 7.609375 -8.8125 7.609375 -5.109375 Z M 6.25 -5.234375 C 6.25 -8.078125 5.546875 -9.46875 4.125 -9.46875 C 2.703125 -9.46875 2 -8.09375 2 -5.1875 C 2 -2.28125 2.703125 -0.875 4.09375 -0.875 C 5.5625 -0.875 6.25 -2.21875 6.25 -5.234375 Z M 6.25 -5.234375 "/>
</symbol>
<symbol overflow="visible" id="glyph25-0-DSEaUlFY">
<path style="stroke:none;" d="M -10.9375 -0.296875 C -10.9375 -0.296875 0 -0.296875 0 -0.296875 C 0 -0.296875 0 -7.046875 0 -7.046875 C 0 -7.046875 -10.9375 -7.046875 -10.9375 -7.046875 C -10.9375 -7.046875 -10.9375 -0.296875 -10.9375 -0.296875 Z M -0.78125 -1.078125 C -0.78125 -1.078125 -10.15625 -1.078125 -10.15625 -1.078125 C -10.15625 -1.078125 -10.15625 -6.265625 -10.15625 -6.265625 C -10.15625 -6.265625 -0.78125 -6.265625 -0.78125 -6.265625 C -0.78125 -6.265625 -0.78125 -1.078125 -0.78125 -1.078125 Z M -0.78125 -1.078125 "/>
</symbol>
<symbol overflow="visible" id="glyph25-1-DSEaUlFY">
<path style="stroke:none;" d="M 0 -11.40625 C 0 -11.40625 0 -10.15625 0 -10.15625 C 0 -10.15625 -5.421875 -10.15625 -5.421875 -10.15625 C -6.40625 -10.15625 -6.984375 -9.625 -6.984375 -8.71875 C -6.984375 -7.6875 -6.078125 -6.859375 -4.9375 -6.859375 C -4.9375 -6.859375 0 -6.859375 0 -6.859375 C 0 -6.859375 0 -5.609375 0 -5.609375 C 0 -5.609375 -5.421875 -5.609375 -5.421875 -5.609375 C -6.421875 -5.609375 -6.984375 -5.078125 -6.984375 -4.15625 C -6.984375 -3.140625 -6.078125 -2.3125 -4.9375 -2.3125 C -4.9375 -2.3125 0 -2.3125 0 -2.3125 C 0 -2.3125 0 -1.0625 0 -1.0625 C 0 -1.0625 -7.859375 -1.0625 -7.859375 -1.0625 C -7.859375 -1.0625 -7.859375 -2.203125 -7.859375 -2.203125 C -7.859375 -2.203125 -6.75 -2.203125 -6.75 -2.203125 C -7.6875 -2.875 -8.078125 -3.5625 -8.078125 -4.625 C -8.078125 -5.640625 -7.71875 -6.265625 -6.890625 -6.734375 C -7.765625 -7.46875 -8.078125 -8.09375 -8.078125 -9.15625 C -8.078125 -10.625 -7.3125 -11.40625 -5.890625 -11.40625 C -5.890625 -11.40625 0 -11.40625 0 -11.40625 Z M 0 -11.40625 "/>
</symbol>
<symbol overflow="visible" id="glyph25-2-DSEaUlFY">
<path style="stroke:none;" d="M -2.203125 -6.890625 C -0.6875 -6.890625 0.21875 -5.625 0.21875 -3.640625 C 0.21875 -1.59375 -0.578125 -0.5625 -2.40625 -0.515625 C -2.40625 -0.515625 -2.40625 -1.828125 -2.40625 -1.828125 C -1.203125 -2 -0.9375 -2.625 -0.9375 -3.75 C -0.9375 -4.84375 -1.359375 -5.578125 -2.09375 -5.578125 C -2.671875 -5.578125 -2.921875 -5.234375 -3.140625 -4.359375 C -3.140625 -4.359375 -3.421875 -3.1875 -3.421875 -3.1875 C -3.875 -1.328125 -4.453125 -0.703125 -5.6875 -0.703125 C -7.140625 -0.703125 -8.078125 -1.890625 -8.078125 -3.71875 C -8.078125 -5.53125 -7.21875 -6.5625 -5.671875 -6.5625 C -5.671875 -6.5625 -5.671875 -5.25 -5.671875 -5.25 C -6.5 -5.21875 -6.9375 -4.6875 -6.9375 -3.671875 C -6.9375 -2.65625 -6.46875 -2.015625 -5.75 -2.015625 C -5.1875 -2.015625 -4.859375 -2.4375 -4.625 -3.46875 C -4.625 -3.46875 -4.328125 -4.671875 -4.328125 -4.671875 C -3.953125 -6.21875 -3.375 -6.890625 -2.203125 -6.890625 Z M -2.203125 -6.890625 "/>
</symbol>
<symbol overflow="visible" id="glyph26-0-DSEaUlFY">
<path style="stroke:none;" d="M -10.9375 -0.296875 C -10.9375 -0.296875 0 -0.296875 0 -0.296875 C 0 -0.296875 0 -7.046875 0 -7.046875 C 0 -7.046875 -10.9375 -7.046875 -10.9375 -7.046875 C -10.9375 -7.046875 -10.9375 -0.296875 -10.9375 -0.296875 Z M -0.78125 -1.078125 C -0.78125 -1.078125 -10.15625 -1.078125 -10.15625 -1.078125 C -10.15625 -1.078125 -10.15625 -6.265625 -10.15625 -6.265625 C -10.15625 -6.265625 -0.78125 -6.265625 -0.78125 -6.265625 C -0.78125 -6.265625 -0.78125 -1.078125 -0.78125 -1.078125 Z M -0.78125 -1.078125 "/>
</symbol>
<symbol overflow="visible" id="glyph26-1-DSEaUlFY">
<path style="stroke:none;" d="M -0.03125 -8.03125 C 0.078125 -7.625 0.109375 -7.421875 0.109375 -7.171875 C 0.109375 -6.5625 -0.328125 -6.015625 -0.9375 -5.875 C -0.1875 -5.1875 0.21875 -4.21875 0.21875 -3.203125 C 0.21875 -1.625 -0.609375 -0.625 -2.046875 -0.625 C -3 -0.625 -3.703125 -1.09375 -4.078125 -2.015625 C -4.28125 -2.484375 -4.328125 -2.765625 -4.5625 -4.53125 C -4.6875 -5.515625 -4.90625 -5.828125 -5.4375 -5.828125 C -5.4375 -5.828125 -5.765625 -5.828125 -5.765625 -5.828125 C -6.515625 -5.828125 -6.9375 -5.203125 -6.9375 -4.078125 C -6.9375 -2.90625 -6.5 -2.34375 -5.53125 -2.234375 C -5.53125 -2.234375 -5.53125 -0.96875 -5.53125 -0.96875 C -7.34375 -1.046875 -8.078125 -2.21875 -8.078125 -4.125 C -8.078125 -6.0625 -7.328125 -7.078125 -5.9375 -7.078125 C -5.9375 -7.078125 -1.5625 -7.078125 -1.5625 -7.078125 C -1.171875 -7.078125 -0.9375 -7.3125 -0.9375 -7.75 C -0.9375 -7.828125 -0.9375 -7.890625 -0.96875 -8.03125 C -0.96875 -8.03125 -0.03125 -8.03125 -0.03125 -8.03125 Z M -2.71875 -5.828125 C -2.71875 -5.828125 -3.890625 -5.828125 -3.890625 -5.828125 C -3.6875 -5.421875 -3.625 -5.140625 -3.453125 -3.828125 C -3.25 -2.484375 -2.890625 -1.9375 -2.0625 -1.9375 C -1.21875 -1.9375 -0.875 -2.5 -0.875 -3.484375 C -0.875 -4.6875 -1.59375 -5.828125 -2.71875 -5.828125 Z M -2.71875 -5.828125 "/>
</symbol>
<symbol overflow="visible" id="glyph27-0-DSEaUlFY">
<path style="stroke:none;" d="M -10.9375 -0.296875 C -10.9375 -0.296875 0 -0.296875 0 -0.296875 C 0 -0.296875 0 -7.046875 0 -7.046875 C 0 -7.046875 -10.9375 -7.046875 -10.9375 -7.046875 C -10.9375 -7.046875 -10.9375 -0.296875 -10.9375 -0.296875 Z M -0.78125 -1.078125 C -0.78125 -1.078125 -10.15625 -1.078125 -10.15625 -1.078125 C -10.15625 -1.078125 -10.15625 -6.265625 -10.15625 -6.265625 C -10.15625 -6.265625 -0.78125 -6.265625 -0.78125 -6.265625 C -0.78125 -6.265625 -0.78125 -1.078125 -0.78125 -1.078125 Z M -0.78125 -1.078125 "/>
</symbol>
<symbol overflow="visible" id="glyph27-1-DSEaUlFY">
<path style="stroke:none;" d="M 0 -7.53125 C 0 -7.53125 0 -5.984375 0 -5.984375 C 0 -5.984375 -4.265625 -3.328125 -4.265625 -3.328125 C -4.265625 -3.328125 -3.0625 -2.109375 -3.0625 -2.109375 C -3.0625 -2.109375 0 -2.109375 0 -2.109375 C 0 -2.109375 0 -0.875 0 -0.875 C 0 -0.875 -10.9375 -0.875 -10.9375 -0.875 C -10.9375 -0.875 -10.9375 -2.109375 -10.9375 -2.109375 C -10.9375 -2.109375 -4.53125 -2.109375 -4.53125 -2.109375 C -4.53125 -2.109375 -7.859375 -5.4375 -7.859375 -5.4375 C -7.859375 -5.4375 -7.859375 -7.046875 -7.859375 -7.046875 C -7.859375 -7.046875 -5.140625 -4.3125 -5.140625 -4.3125 C -5.140625 -4.3125 0 -7.53125 0 -7.53125 Z M 0 -7.53125 "/>
</symbol>
<symbol overflow="visible" id="glyph28-0-DSEaUlFY">
<path style="stroke:none;" d="M 0.296875 -10.9375 C 0.296875 -10.9375 0.296875 0 0.296875 0 C 0.296875 0 7.046875 0 7.046875 0 C 7.046875 0 7.046875 -10.9375 7.046875 -10.9375 C 7.046875 -10.9375 0.296875 -10.9375 0.296875 -10.9375 Z M 1.078125 -0.78125 C 1.078125 -0.78125 1.078125 -10.15625 1.078125 -10.15625 C 1.078125 -10.15625 6.265625 -10.15625 6.265625 -10.15625 C 6.265625 -10.15625 6.265625 -0.78125 6.265625 -0.78125 C 6.265625 -0.78125 1.078125 -0.78125 1.078125 -0.78125 Z M 1.078125 -0.78125 "/>
</symbol>
<symbol overflow="visible" id="glyph28-1-DSEaUlFY">
<path style="stroke:none;" d="M 7.609375 -5.109375 C 7.609375 -1.625 6.375 0.21875 4.125 0.21875 C 1.84375 0.21875 0.640625 -1.625 0.640625 -5.203125 C 0.640625 -8.78125 1.828125 -10.640625 4.125 -10.640625 C 6.4375 -10.640625 7.609375 -8.8125 7.609375 -5.109375 Z M 6.25 -5.234375 C 6.25 -8.078125 5.546875 -9.46875 4.125 -9.46875 C 2.703125 -9.46875 2 -8.09375 2 -5.1875 C 2 -2.28125 2.703125 -0.875 4.09375 -0.875 C 5.5625 -0.875 6.25 -2.21875 6.25 -5.234375 Z M 6.25 -5.234375 "/>
</symbol>
<symbol overflow="visible" id="glyph28-2-DSEaUlFY">
<path style="stroke:none;" d="M 5.203125 0 C 5.203125 0 3.890625 0 3.890625 0 C 3.890625 0 3.890625 -7.578125 3.890625 -7.578125 C 3.890625 -7.578125 1.53125 -7.578125 1.53125 -7.578125 C 1.53125 -7.578125 1.53125 -8.515625 1.53125 -8.515625 C 3.5625 -8.78125 3.875 -9 4.328125 -10.640625 C 4.328125 -10.640625 5.203125 -10.640625 5.203125 -10.640625 C 5.203125 -10.640625 5.203125 0 5.203125 0 Z M 5.203125 0 "/>
</symbol>
<symbol overflow="visible" id="glyph29-0-DSEaUlFY">
<path style="stroke:none;" d="M 0.296875 -10.9375 C 0.296875 -10.9375 0.296875 0 0.296875 0 C 0.296875 0 7.046875 0 7.046875 0 C 7.046875 0 7.046875 -10.9375 7.046875 -10.9375 C 7.046875 -10.9375 0.296875 -10.9375 0.296875 -10.9375 Z M 1.078125 -0.78125 C 1.078125 -0.78125 1.078125 -10.15625 1.078125 -10.15625 C 1.078125 -10.15625 6.265625 -10.15625 6.265625 -10.15625 C 6.265625 -10.15625 6.265625 -0.78125 6.265625 -0.78125 C 6.265625 -0.78125 1.078125 -0.78125 1.078125 -0.78125 Z M 1.078125 -0.78125 "/>
</symbol>
<symbol overflow="visible" id="glyph29-1-DSEaUlFY">
<path style="stroke:none;" d="M 7.609375 -5.109375 C 7.609375 -1.625 6.375 0.21875 4.125 0.21875 C 1.84375 0.21875 0.640625 -1.625 0.640625 -5.203125 C 0.640625 -8.78125 1.828125 -10.640625 4.125 -10.640625 C 6.4375 -10.640625 7.609375 -8.8125 7.609375 -5.109375 Z M 6.25 -5.234375 C 6.25 -8.078125 5.546875 -9.46875 4.125 -9.46875 C 2.703125 -9.46875 2 -8.09375 2 -5.1875 C 2 -2.28125 2.703125 -0.875 4.09375 -0.875 C 5.5625 -0.875 6.25 -2.21875 6.25 -5.234375 Z M 6.25 -5.234375 "/>
</symbol>
<symbol overflow="visible" id="glyph30-0-DSEaUlFY">
<path style="stroke:none;" d="M 0.296875 -10.9375 C 0.296875 -10.9375 0.296875 0 0.296875 0 C 0.296875 0 7.046875 0 7.046875 0 C 7.046875 0 7.046875 -10.9375 7.046875 -10.9375 C 7.046875 -10.9375 0.296875 -10.9375 0.296875 -10.9375 Z M 1.078125 -0.78125 C 1.078125 -0.78125 1.078125 -10.15625 1.078125 -10.15625 C 1.078125 -10.15625 6.265625 -10.15625 6.265625 -10.15625 C 6.265625 -10.15625 6.265625 -0.78125 6.265625 -0.78125 C 6.265625 -0.78125 1.078125 -0.78125 1.078125 -0.78125 Z M 1.078125 -0.78125 "/>
</symbol>
<symbol overflow="visible" id="glyph30-1-DSEaUlFY">
<path style="stroke:none;" d="M 2.859375 0 C 2.859375 0 1.3125 0 1.3125 0 C 1.3125 0 1.3125 -1.5625 1.3125 -1.5625 C 1.3125 -1.5625 2.859375 -1.5625 2.859375 -1.5625 C 2.859375 -1.5625 2.859375 0 2.859375 0 Z M 2.859375 0 "/>
</symbol>
<symbol overflow="visible" id="glyph30-2-DSEaUlFY">
<path style="stroke:none;" d="M 7.6875 -3.53125 C 7.6875 -1.28125 6.1875 0.21875 4.046875 0.21875 C 2.15625 0.21875 0.953125 -0.609375 0.53125 -2.734375 C 0.53125 -2.734375 1.84375 -2.734375 1.84375 -2.734375 C 2.15625 -1.53125 2.859375 -0.9375 4.015625 -0.9375 C 5.453125 -0.9375 6.34375 -1.8125 6.34375 -3.34375 C 6.34375 -4.921875 5.4375 -5.828125 4.015625 -5.828125 C 3.1875 -5.828125 2.6875 -5.578125 2.0625 -4.84375 C 2.0625 -4.84375 0.859375 -4.84375 0.859375 -4.84375 C 0.859375 -4.84375 1.65625 -10.40625 1.65625 -10.40625 C 1.65625 -10.40625 7.140625 -10.40625 7.140625 -10.40625 C 7.140625 -10.40625 7.140625 -9.109375 7.140625 -9.109375 C 7.140625 -9.109375 2.71875 -9.109375 2.71875 -9.109375 C 2.71875 -9.109375 2.296875 -6.359375 2.296875 -6.359375 C 2.90625 -6.8125 3.515625 -7 4.265625 -7 C 6.296875 -7 7.6875 -5.625 7.6875 -3.53125 Z M 7.6875 -3.53125 "/>
</symbol>
</g>
<clipPath id="clip1-DSEaUlFY">
  <path d="M 66.75 32.25 L 438 32.25 L 438 153 L 66.75 153 Z M 66.75 32.25 "/>
</clipPath>
<clipPath id="clip2-DSEaUlFY">
  <path d="M 66.75 215 L 438 215 L 438 334 L 66.75 334 Z M 66.75 215 "/>
</clipPath>
</defs>
<g id="surface1-DSEaUlFY">
<rect x="0" y="0" width="450" height="390" style="fill:rgb(100%,100%,100%);fill-opacity:1;stroke:none;"/>
<path style=" stroke:none;fill-rule:nonzero;fill:rgb(100%,100%,100%);fill-opacity:1;" d="M 66.75 153 L 438 153 L 438 32.25 L 66.75 32.25 Z M 66.75 153 "/>
<path style=" stroke:none;fill-rule:nonzero;fill:rgb(100%,100%,100%);fill-opacity:1;" d="M 66.75 334.5 L 438 334.5 L 438 214.5 L 66.75 214.5 Z M 66.75 334.5 "/>
<path style="fill:none;stroke-width:1;stroke-linecap:butt;stroke-linejoin:miter;stroke:rgb(0%,0%,0%);stroke-opacity:0.12;stroke-miterlimit:2;" d="M 89 204 L 89 43 " transform="matrix(0.75,0,0,0.75,0,0)"/>
<path style="fill:none;stroke-width:1;stroke-linecap:butt;stroke-linejoin:miter;stroke:rgb(0%,0%,0%);stroke-opacity:0.12;stroke-miterlimit:2;" d="M 336.5 204 L 336.5 43 " transform="matrix(0.75,0,0,0.75,0,0)"/>
<path style="fill:none;stroke-width:1;stroke-linecap:butt;stroke-linejoin:miter;stroke:rgb(0%,0%,0%);stroke-opacity:0.12;stroke-miterlimit:2;" d="M 584 204 L 584 43 " transform="matrix(0.75,0,0,0.75,0,0)"/>
<path style="fill:none;stroke-width:1;stroke-linecap:butt;stroke-linejoin:miter;stroke:rgb(0%,0%,0%);stroke-opacity:0.12;stroke-miterlimit:2;" d="M 89 173.90625 L 584 173.90625 " transform="matrix(0.75,0,0,0.75,0,0)"/>
<path style="fill:none;stroke-width:1;stroke-linecap:butt;stroke-linejoin:miter;stroke:rgb(0%,0%,0%);stroke-opacity:0.12;stroke-miterlimit:2;" d="M 89 118.619792 L 584 118.619792 " transform="matrix(0.75,0,0,0.75,0,0)"/>
<path style="fill:none;stroke-width:1;stroke-linecap:butt;stroke-linejoin:miter;stroke:rgb(0%,0%,0%);stroke-opacity:0.12;stroke-miterlimit:2;" d="M 89 63.333333 L 584 63.333333 " transform="matrix(0.75,0,0,0.75,0,0)"/>
<path style="fill:none;stroke-width:1;stroke-linecap:butt;stroke-linejoin:miter;stroke:rgb(0%,0%,0%);stroke-opacity:0.12;stroke-miterlimit:2;" d="M 89 446 L 89 286 " transform="matrix(0.75,0,0,0.75,0,0)"/>
<path style="fill:none;stroke-width:1;stroke-linecap:butt;stroke-linejoin:miter;stroke:rgb(0%,0%,0%);stroke-opacity:0.12;stroke-miterlimit:2;" d="M 336.5 446 L 336.5 286 " transform="matrix(0.75,0,0,0.75,0,0)"/>
<path style="fill:none;stroke-width:1;stroke-linecap:butt;stroke-linejoin:miter;stroke:rgb(0%,0%,0%);stroke-opacity:0.12;stroke-miterlimit:2;" d="M 584 446 L 584 286 " transform="matrix(0.75,0,0,0.75,0,0)"/>
<path style="fill:none;stroke-width:1;stroke-linecap:butt;stroke-linejoin:miter;stroke:rgb(0%,0%,0%);stroke-opacity:0.12;stroke-miterlimit:2;" d="M 89 438.729167 L 584 438.729167 " transform="matrix(0.75,0,0,0.75,0,0)"/>
<path style="fill:none;stroke-width:1;stroke-linecap:butt;stroke-linejoin:miter;stroke:rgb(0%,0%,0%);stroke-opacity:0.12;stroke-miterlimit:2;" d="M 89 366 L 584 366 " transform="matrix(0.75,0,0,0.75,0,0)"/>
<path style="fill:none;stroke-width:1;stroke-linecap:butt;stroke-linejoin:miter;stroke:rgb(0%,0%,0%);stroke-opacity:0.12;stroke-miterlimit:2;" d="M 89 293.270833 L 584 293.270833 " transform="matrix(0.75,0,0,0.75,0,0)"/>
<g style="fill:rgb(0%,0%,0%);fill-opacity:1;">
  <use xlink:href="#glyph0-1-DSEaUlFY" x="232.371094" y="193.679688"/>
</g>
<g style="fill:rgb(0%,0%,0%);fill-opacity:1;">
  <use xlink:href="#glyph1-1-DSEaUlFY" x="239.871094" y="193.679688"/>
</g>
<g style="fill:rgb(0%,0%,0%);fill-opacity:1;">
  <use xlink:href="#glyph1-2-DSEaUlFY" x="244.042969" y="193.679688"/>
</g>
<g style="fill:rgb(0%,0%,0%);fill-opacity:1;">
  <use xlink:href="#glyph1-3-DSEaUlFY" x="248.210937" y="193.679688"/>
</g>
<g style="fill:rgb(0%,0%,0%);fill-opacity:1;">
  <use xlink:href="#glyph0-2-DSEaUlFY" x="255.710937" y="193.679688"/>
</g>
<g style="fill:rgb(0%,0%,0%);fill-opacity:1;">
  <use xlink:href="#glyph2-1-DSEaUlFY" x="268.207031" y="193.679688"/>
</g>
<g style="fill:rgb(0%,0%,0%);fill-opacity:1;">
  <use xlink:href="#glyph3-1-DSEaUlFY" x="51.742188" y="173.953125"/>
</g>
<g style="fill:rgb(0%,0%,0%);fill-opacity:1;">
  <use xlink:href="#glyph4-1-DSEaUlFY" x="56.738281" y="173.953125"/>
</g>
<g style="fill:rgb(0%,0%,0%);fill-opacity:1;">
  <use xlink:href="#glyph5-1-DSEaUlFY" x="65.078125" y="173.953125"/>
</g>
<g style="fill:rgb(0%,0%,0%);fill-opacity:1;">
  <use xlink:href="#glyph4-2-DSEaUlFY" x="73.417969" y="173.953125"/>
</g>
<g style="fill:rgb(0%,0%,0%);fill-opacity:1;">
  <use xlink:href="#glyph4-2-DSEaUlFY" x="248.203125" y="173.953125"/>
</g>
<g style="fill:rgb(0%,0%,0%);fill-opacity:1;">
  <use xlink:href="#glyph4-1-DSEaUlFY" x="425.488281" y="173.953125"/>
</g>
<g style="fill:rgb(0%,0%,0%);fill-opacity:1;">
  <use xlink:href="#glyph4-3-DSEaUlFY" x="433.828125" y="173.953125"/>
</g>
<g style="fill:rgb(0%,0%,0%);fill-opacity:1;">
  <use xlink:href="#glyph6-1-DSEaUlFY" x="442.171875" y="173.953125"/>
</g>
<g style="fill:rgb(0%,0%,0%);fill-opacity:1;">
  <use xlink:href="#glyph7-1-DSEaUlFY" x="25.636719" y="109.296875"/>
</g>
<g style="fill:rgb(0%,0%,0%);fill-opacity:1;">
  <use xlink:href="#glyph8-1-DSEaUlFY" x="25.636719" y="100.957031"/>
</g>
<g style="fill:rgb(0%,0%,0%);fill-opacity:1;">
  <use xlink:href="#glyph8-2-DSEaUlFY" x="25.636719" y="96.789062"/>
</g>
<g style="fill:rgb(0%,0%,0%);fill-opacity:1;">
  <use xlink:href="#glyph8-3-DSEaUlFY" x="25.636719" y="92.617188"/>
</g>
<g style="fill:rgb(0%,0%,0%);fill-opacity:1;">
  <use xlink:href="#glyph8-4-DSEaUlFY" x="25.636719" y="80.121094"/>
</g>
<g style="fill:rgb(0%,0%,0%);fill-opacity:1;">
  <use xlink:href="#glyph9-1-DSEaUlFY" x="32.65625" y="135.898438"/>
</g>
<g style="fill:rgb(0%,0%,0%);fill-opacity:1;">
  <use xlink:href="#glyph9-2-DSEaUlFY" x="37.648438" y="135.898438"/>
</g>
<g style="fill:rgb(0%,0%,0%);fill-opacity:1;">
  <use xlink:href="#glyph10-1-DSEaUlFY" x="45.988281" y="135.898438"/>
</g>
<g style="fill:rgb(0%,0%,0%);fill-opacity:1;">
  <use xlink:href="#glyph11-1-DSEaUlFY" x="50.160156" y="135.898438"/>
</g>
<g style="fill:rgb(0%,0%,0%);fill-opacity:1;">
  <use xlink:href="#glyph12-1-DSEaUlFY" x="37.648438" y="94.433594"/>
</g>
<g style="fill:rgb(0%,0%,0%);fill-opacity:1;">
  <use xlink:href="#glyph4-4-DSEaUlFY" x="45.988281" y="94.433594"/>
</g>
<g style="fill:rgb(0%,0%,0%);fill-opacity:1;">
  <use xlink:href="#glyph4-2-DSEaUlFY" x="50.160156" y="94.433594"/>
</g>
<g style="fill:rgb(0%,0%,0%);fill-opacity:1;">
  <use xlink:href="#glyph13-1-DSEaUlFY" x="37.648438" y="52.96875"/>
</g>
<g style="fill:rgb(0%,0%,0%);fill-opacity:1;">
  <use xlink:href="#glyph14-1-DSEaUlFY" x="45.988281" y="52.96875"/>
</g>
<g style="fill:rgb(0%,0%,0%);fill-opacity:1;">
  <use xlink:href="#glyph14-2-DSEaUlFY" x="50.160156" y="52.96875"/>
</g>
<g style="fill:rgb(0%,0%,0%);fill-opacity:1;">
  <use xlink:href="#glyph15-1-DSEaUlFY" x="190.261719" y="25.980469"/>
</g>
<g style="fill:rgb(0%,0%,0%);fill-opacity:1;">
  <use xlink:href="#glyph16-1-DSEaUlFY" x="198.601562" y="25.980469"/>
</g>
<g style="fill:rgb(0%,0%,0%);fill-opacity:1;">
  <use xlink:href="#glyph17-1-DSEaUlFY" x="211.933594" y="25.980469"/>
</g>
<g style="fill:rgb(0%,0%,0%);fill-opacity:1;">
  <use xlink:href="#glyph16-2-DSEaUlFY" x="220.273437" y="25.980469"/>
</g>
<g style="fill:rgb(0%,0%,0%);fill-opacity:1;">
  <use xlink:href="#glyph16-2-DSEaUlFY" x="224.445312" y="25.980469"/>
</g>
<g style="fill:rgb(0%,0%,0%);fill-opacity:1;">
  <use xlink:href="#glyph16-3-DSEaUlFY" x="228.613281" y="25.980469"/>
</g>
<g style="fill:rgb(0%,0%,0%);fill-opacity:1;">
  <use xlink:href="#glyph18-1-DSEaUlFY" x="233.609375" y="25.980469"/>
</g>
<g style="fill:rgb(0%,0%,0%);fill-opacity:1;">
  <use xlink:href="#glyph17-2-DSEaUlFY" x="241.949219" y="25.980469"/>
</g>
<g style="fill:rgb(0%,0%,0%);fill-opacity:1;">
  <use xlink:href="#glyph18-2-DSEaUlFY" x="250.289062" y="25.980469"/>
</g>
<g style="fill:rgb(0%,0%,0%);fill-opacity:1;">
  <use xlink:href="#glyph17-3-DSEaUlFY" x="258.628906" y="25.980469"/>
</g>
<g style="fill:rgb(0%,0%,0%);fill-opacity:1;">
  <use xlink:href="#glyph17-4-DSEaUlFY" x="262.800781" y="25.980469"/>
</g>
<g style="fill:rgb(0%,0%,0%);fill-opacity:1;">
  <use xlink:href="#glyph18-3-DSEaUlFY" x="271.140625" y="25.980469"/>
</g>
<g style="fill:rgb(0%,0%,0%);fill-opacity:1;">
  <use xlink:href="#glyph16-4-DSEaUlFY" x="275.308594" y="25.980469"/>
</g>
<g style="fill:rgb(0%,0%,0%);fill-opacity:1;">
  <use xlink:href="#glyph16-5-DSEaUlFY" x="284.476562" y="25.980469"/>
</g>
<g style="fill:rgb(0%,0%,0%);fill-opacity:1;">
  <use xlink:href="#glyph16-6-DSEaUlFY" x="293.640625" y="25.980469"/>
</g>
<g style="fill:rgb(0%,0%,0%);fill-opacity:1;">
  <use xlink:href="#glyph17-5-DSEaUlFY" x="297.808594" y="25.980469"/>
</g>
<g style="fill:rgb(0%,0%,0%);fill-opacity:1;">
  <use xlink:href="#glyph16-7-DSEaUlFY" x="306.148438" y="25.980469"/>
</g>
<g clip-path="url(#clip1-DSEaUlFY)" clip-rule="nonzero">
<path style="fill:none;stroke-width:3;stroke-linecap:butt;stroke-linejoin:miter;stroke:rgb(0%,0%,0%);stroke-opacity:0.7;stroke-miterlimit:2;" d="M 89 118.619792 L 192.447917 118.619792 L 193.416667 118.614583 L 194.380208 118.619792 L 195.348958 118.625 L 196.3125 118.614583 L 197.28125 118.625 L 198.25 118.619792 L 199.213542 118.635417 L 200.182292 118.625 L 201.145833 118.640625 L 202.114583 118.630208 L 203.083333 118.630208 L 204.046875 118.609375 L 205.015625 118.697917 L 205.984375 118.635417 L 206.947917 118.572917 L 207.916667 118.604167 L 208.885417 118.755208 L 209.848958 118.911458 L 210.817708 118.5 L 211.78125 118.536458 L 212.75 118.552083 L 213.71875 118.604167 L 214.682292 118.25 L 215.651042 118.651042 L 216.614583 118.15625 L 217.583333 118.807292 L 218.552083 119.119792 L 219.515625 119.130208 L 220.484375 117.859375 L 221.453125 119.958333 L 222.416667 119.9375 L 223.385417 116.067708 L 224.354167 118.9375 L 225.317708 118.958333 L 226.286458 116.541667 L 227.25 119.359375 L 228.21875 114.09375 L 229.1875 112.71875 L 230.151042 113.791667 L 231.119792 115.197917 L 232.083333 119.182292 L 233.052083 120.041667 L 234.020833 113.34375 L 234.984375 138.744792 L 235.953125 136.145833 L 236.921875 116.984375 L 237.885417 109.401042 L 238.854167 138.854167 L 239.822917 130.166667 L 240.786458 133.661458 L 241.755208 116.958333 L 242.71875 93.765625 L 243.6875 111.34375 L 244.65625 123.020833 L 245.619792 88.088542 L 246.588542 165.729167 L 247.552083 139.453125 L 248.520833 117.484375 L 249.489583 129.645833 L 250.453125 113.104167 L 251.421875 104.0625 L 252.390625 98.09375 L 253.354167 117.458333 L 254.322917 121.671875 L 255.291667 126.177083 L 256.255208 104.192708 L 257.223958 188.239583 L 258.1875 106.302083 L 259.15625 119.135417 L 260.125 152.5625 L 261.088542 133.109375 L 262.057292 94.9375 L 263.020833 112.796875 L 263.989583 79.635417 L 264.958333 61.140625 L 265.921875 179.598958 L 266.890625 118.947917 L 267.859375 106.421875 L 268.822917 173.828125 L 269.791667 76.796875 L 270.760417 69.052083 L 271.723958 147.666667 L 272.692708 146.484375 L 273.65625 109.520833 L 274.625 99.770833 L 275.59375 108.651042 L 276.557292 119.796875 L 277.526042 97.786458 L 278.489583 88.786458 L 279.458333 87.078125 L 280.427083 135.098958 L 281.390625 115.338542 L 282.359375 117.697917 L 283.328125 175.979167 L 284.291667 108.197917 L 285.260417 146.682292 L 286.229167 105.015625 L 287.192708 121.864583 L 288.161458 173.942708 L 289.125 124.880208 L 290.09375 107.0625 L 291.0625 170.359375 L 292.026042 156.671875 L 292.994792 122.203125 L 293.958333 143.453125 L 294.927083 138.677083 L 295.895833 124.119792 L 296.859375 161.489583 L 297.828125 88.1875 L 298.796875 110.661458 L 299.760417 114.078125 L 300.729167 112.119792 L 301.697917 112.083333 L 302.661458 114.984375 L 303.630208 154.432292 L 304.59375 81.411458 L 305.5625 97.71875 L 306.53125 128.442708 L 307.494792 119.984375 L 308.463542 110.302083 L 309.427083 96.796875 L 310.395833 90.494792 L 311.364583 96.234375 L 312.328125 94.942708 L 313.296875 120.177083 L 314.265625 99.161458 L 315.229167 104.729167 L 316.197917 173.713542 L 317.166667 117.890625 L 318.130208 137.619792 L 319.098958 163.984375 L 320.0625 103.171875 L 321.03125 135.552083 L 322 102.479167 L 322.963542 167.911458 L 323.932292 136.578125 L 324.895833 136.072917 L 325.864583 98.947917 L 326.833333 163.84375 L 327.796875 76.34375 L 328.765625 145.572917 L 329.734375 138.359375 L 330.697917 71.317708 L 331.666667 94.21875 L 332.635417 121.140625 L 333.598958 118.041667 L 334.567708 73.223958 L 335.53125 86.28125 L 336.5 129.359375 L 337.46875 76.40625 L 338.432292 129.895833 L 339.401042 121.390625 L 340.364583 112.885417 L 341.333333 112.223958 L 342.302083 163.223958 L 343.265625 136.770833 L 344.234375 125.234375 L 345.203125 97.90625 L 346.166667 104.401042 L 347.135417 144.307292 L 348.104167 111.401042 L 349.067708 94.979167 L 350.036458 155.03125 L 351 196.682292 L 351.96875 143.135417 L 352.9375 111.770833 L 353.901042 112.963542 L 354.869792 142.432292 L 355.833333 134.1875 L 356.802083 90.333333 L 357.770833 144.375 L 358.734375 133.697917 L 359.703125 110.859375 L 360.671875 50.317708 L 361.635417 76.75 L 362.604167 140.520833 L 363.572917 101.260417 L 364.536458 107.083333 L 365.505208 127.322917 L 366.46875 129.895833 L 367.4375 109.885417 L 368.40625 118.427083 L 369.369792 70.682292 L 370.338542 129.75 L 371.302083 148.171875 L 372.270833 181.34375 L 373.239583 133.244792 L 374.203125 129.3125 L 375.171875 144.802083 L 376.140625 136.65625 L 377.104167 98.411458 L 378.072917 131.583333 L 379.041667 112.828125 L 380.005208 108.755208 L 380.973958 130.765625 L 381.9375 94.65625 L 382.90625 74.880208 L 383.875 125.5625 L 384.838542 85.479167 L 385.807292 109.796875 L 386.770833 128.84375 L 387.739583 114.979167 L 388.708333 82.828125 L 389.671875 96.348958 L 390.640625 70.208333 L 391.609375 99.947917 L 392.572917 139.651042 L 393.541667 134.635417 L 394.510417 112.75 L 395.473958 123.010417 L 396.442708 131.776042 L 397.40625 121.776042 L 398.375 86.635417 L 399.34375 173.3125 L 400.307292 132.385417 L 401.276042 103.348958 L 402.239583 86.583333 L 403.208333 153.729167 L 404.177083 128.541667 L 405.140625 165.177083 L 406.109375 140.244792 L 407.078125 110.661458 L 408.041667 196.515625 L 409.010417 100.583333 L 409.979167 140.380208 L 410.942708 118.739583 L 411.911458 121.598958 L 412.875 167.010417 L 413.84375 129.609375 L 414.8125 127.901042 L 415.776042 128.677083 L 416.744792 87.65625 L 417.708333 111 L 418.677083 140.96875 L 419.645833 106.328125 L 420.609375 105.21875 L 421.578125 119.822917 L 422.546875 116.583333 L 423.510417 139.369792 L 424.479167 144.1875 L 425.447917 94.635417 L 426.411458 148.786458 L 427.380208 116.442708 L 428.34375 128.989583 L 429.3125 145.859375 L 430.28125 126.385417 L 431.244792 112.921875 L 432.213542 149.875 L 433.177083 90.104167 L 434.145833 107.807292 L 435.114583 106.828125 L 436.078125 108.15625 L 437.046875 126.427083 L 438.015625 121.151042 L 438.979167 132.848958 L 439.947917 104.020833 L 440.916667 115.8125 L 441.880208 129.640625 L 442.848958 111.229167 L 443.8125 115.119792 L 444.78125 115.442708 L 445.75 118.942708 L 446.713542 117.46875 L 447.682292 123.25 L 448.645833 119.911458 L 449.614583 119.114583 L 450.583333 118.96875 L 451.546875 116.447917 L 452.515625 119.130208 L 453.484375 120.348958 L 454.447917 118.28125 L 455.416667 119.015625 L 456.385417 118.46875 L 457.348958 118.546875 L 458.317708 118.973958 L 459.28125 118.333333 L 460.25 118.776042 L 461.21875 118.708333 L 462.182292 118.473958 L 463.151042 118.505208 L 464.114583 118.53125 L 465.083333 118.630208 L 466.052083 118.536458 L 467.015625 118.541667 L 467.984375 118.536458 L 468.953125 118.588542 L 469.916667 118.645833 L 470.885417 118.614583 L 471.854167 118.619792 L 472.817708 118.630208 L 473.786458 118.604167 L 474.75 118.619792 L 476.6875 118.630208 L 477.651042 118.625 L 478.619792 118.619792 L 583.03125 118.619792 " transform="matrix(0.75,0,0,0.75,0,0)"/>
</g>
<g style="fill:rgb(0%,0%,0%);fill-opacity:1;">
  <use xlink:href="#glyph19-1-DSEaUlFY" x="232.371094" y="375.179688"/>
</g>
<g style="fill:rgb(0%,0%,0%);fill-opacity:1;">
  <use xlink:href="#glyph20-1-DSEaUlFY" x="239.871094" y="375.179688"/>
</g>
<g style="fill:rgb(0%,0%,0%);fill-opacity:1;">
  <use xlink:href="#glyph20-2-DSEaUlFY" x="244.042969" y="375.179688"/>
</g>
<g style="fill:rgb(0%,0%,0%);fill-opacity:1;">
  <use xlink:href="#glyph20-3-DSEaUlFY" x="248.210937" y="375.179688"/>
</g>
<g style="fill:rgb(0%,0%,0%);fill-opacity:1;">
  <use xlink:href="#glyph19-2-DSEaUlFY" x="255.710937" y="375.179688"/>
</g>
<g style="fill:rgb(0%,0%,0%);fill-opacity:1;">
  <use xlink:href="#glyph21-1-DSEaUlFY" x="268.207031" y="375.179688"/>
</g>
<g style="fill:rgb(0%,0%,0%);fill-opacity:1;">
  <use xlink:href="#glyph22-1-DSEaUlFY" x="51.742188" y="355.453125"/>
</g>
<g style="fill:rgb(0%,0%,0%);fill-opacity:1;">
  <use xlink:href="#glyph1-4-DSEaUlFY" x="56.738281" y="355.453125"/>
</g>
<g style="fill:rgb(0%,0%,0%);fill-opacity:1;">
  <use xlink:href="#glyph23-1-DSEaUlFY" x="65.078125" y="355.453125"/>
</g>
<g style="fill:rgb(0%,0%,0%);fill-opacity:1;">
  <use xlink:href="#glyph1-5-DSEaUlFY" x="73.417969" y="355.453125"/>
</g>
<g style="fill:rgb(0%,0%,0%);fill-opacity:1;">
  <use xlink:href="#glyph1-5-DSEaUlFY" x="248.203125" y="355.453125"/>
</g>
<g style="fill:rgb(0%,0%,0%);fill-opacity:1;">
  <use xlink:href="#glyph1-4-DSEaUlFY" x="425.488281" y="355.453125"/>
</g>
<g style="fill:rgb(0%,0%,0%);fill-opacity:1;">
  <use xlink:href="#glyph1-6-DSEaUlFY" x="433.828125" y="355.453125"/>
</g>
<g style="fill:rgb(0%,0%,0%);fill-opacity:1;">
  <use xlink:href="#glyph24-1-DSEaUlFY" x="442.171875" y="355.453125"/>
</g>
<g style="fill:rgb(0%,0%,0%);fill-opacity:1;">
  <use xlink:href="#glyph25-1-DSEaUlFY" x="30.628906" y="292.417969"/>
</g>
<g style="fill:rgb(0%,0%,0%);fill-opacity:1;">
  <use xlink:href="#glyph26-1-DSEaUlFY" x="30.628906" y="279.921875"/>
</g>
<g style="fill:rgb(0%,0%,0%);fill-opacity:1;">
  <use xlink:href="#glyph25-2-DSEaUlFY" x="30.628906" y="271.582031"/>
</g>
<g style="fill:rgb(0%,0%,0%);fill-opacity:1;">
  <use xlink:href="#glyph27-1-DSEaUlFY" x="30.628906" y="264.082031"/>
</g>
<g style="fill:rgb(0%,0%,0%);fill-opacity:1;">
  <use xlink:href="#glyph28-1-DSEaUlFY" x="37.648438" y="334.511719"/>
</g>
<g style="fill:rgb(0%,0%,0%);fill-opacity:1;">
  <use xlink:href="#glyph1-7-DSEaUlFY" x="45.988281" y="334.511719"/>
</g>
<g style="fill:rgb(0%,0%,0%);fill-opacity:1;">
  <use xlink:href="#glyph1-5-DSEaUlFY" x="50.160156" y="334.511719"/>
</g>
<g style="fill:rgb(0%,0%,0%);fill-opacity:1;">
  <use xlink:href="#glyph29-1-DSEaUlFY" x="37.648438" y="279.96875"/>
</g>
<g style="fill:rgb(0%,0%,0%);fill-opacity:1;">
  <use xlink:href="#glyph30-1-DSEaUlFY" x="45.988281" y="279.96875"/>
</g>
<g style="fill:rgb(0%,0%,0%);fill-opacity:1;">
  <use xlink:href="#glyph30-2-DSEaUlFY" x="50.160156" y="279.96875"/>
</g>
<g style="fill:rgb(0%,0%,0%);fill-opacity:1;">
  <use xlink:href="#glyph28-2-DSEaUlFY" x="37.648438" y="225.421875"/>
</g>
<g style="fill:rgb(0%,0%,0%);fill-opacity:1;">
  <use xlink:href="#glyph1-7-DSEaUlFY" x="45.988281" y="225.421875"/>
</g>
<g style="fill:rgb(0%,0%,0%);fill-opacity:1;">
  <use xlink:href="#glyph1-5-DSEaUlFY" x="50.160156" y="225.421875"/>
</g>
<g clip-path="url(#clip2-DSEaUlFY)" clip-rule="nonzero">
<path style="fill:none;stroke-width:2;stroke-linecap:butt;stroke-linejoin:miter;stroke:rgb(50.196081%,50.196081%,50.196081%);stroke-opacity:0.7;stroke-miterlimit:2;" d="M 89 438.729167 L 176.979167 438.729167 L 177.942708 438.723958 L 186.645833 438.723958 L 187.614583 438.71875 L 190.515625 438.71875 L 191.479167 438.713542 L 192.447917 438.713542 L 193.416667 438.708333 L 194.380208 438.703125 L 195.348958 438.697917 L 196.3125 438.692708 L 197.28125 438.682292 L 198.25 438.677083 L 199.213542 438.661458 L 200.182292 438.651042 L 201.145833 438.635417 L 202.114583 438.614583 L 203.083333 438.588542 L 204.046875 438.557292 L 205.015625 438.520833 L 205.984375 438.479167 L 206.947917 438.421875 L 207.916667 438.359375 L 208.885417 438.28125 L 209.848958 438.182292 L 210.817708 438.067708 L 211.78125 437.927083 L 212.75 437.755208 L 213.71875 437.546875 L 214.682292 437.291667 L 215.651042 436.989583 L 216.614583 436.619792 L 217.583333 436.171875 L 218.552083 435.630208 L 219.515625 434.979167 L 220.484375 434.197917 L 221.453125 433.255208 L 222.416667 432.130208 L 223.385417 430.786458 L 224.354167 429.182292 L 225.317708 427.286458 L 226.286458 425.052083 L 227.25 422.432292 L 228.21875 419.385417 L 229.1875 415.869792 L 230.151042 411.854167 L 231.119792 407.307292 L 232.083333 402.229167 L 233.052083 396.635417 L 234.020833 390.5625 L 234.984375 384.078125 L 235.953125 377.270833 L 236.921875 370.255208 L 237.885417 363.161458 L 238.854167 356.119792 L 239.822917 349.260417 L 240.786458 342.703125 L 241.755208 336.541667 L 242.71875 330.848958 L 243.6875 325.666667 L 244.65625 321.015625 L 245.619792 316.890625 L 246.588542 313.276042 L 247.552083 310.140625 L 248.520833 307.4375 L 249.489583 305.130208 L 250.453125 303.171875 L 251.421875 301.515625 L 252.390625 300.119792 L 253.354167 298.953125 L 254.322917 297.979167 L 255.291667 297.166667 L 256.255208 296.489583 L 257.223958 295.927083 L 258.1875 295.463542 L 259.15625 295.083333 L 260.125 294.765625 L 261.088542 294.5 L 262.057292 294.286458 L 263.020833 294.104167 L 263.989583 293.958333 L 264.958333 293.838542 L 265.921875 293.739583 L 266.890625 293.65625 L 267.859375 293.588542 L 268.822917 293.53125 L 269.791667 293.484375 L 270.760417 293.447917 L 271.723958 293.416667 L 272.692708 293.390625 L 273.65625 293.369792 L 275.59375 293.338542 L 276.557292 293.328125 L 277.526042 293.317708 L 278.489583 293.307292 L 280.427083 293.296875 L 281.390625 293.291667 L 282.359375 293.291667 L 283.328125 293.286458 L 284.291667 293.286458 L 285.260417 293.28125 L 287.192708 293.28125 L 288.161458 293.276042 L 297.828125 293.276042 L 298.796875 293.270833 L 374.203125 293.270833 L 375.171875 293.276042 L 384.838542 293.276042 L 385.807292 293.28125 L 387.739583 293.28125 L 388.708333 293.286458 L 389.671875 293.286458 L 390.640625 293.291667 L 391.609375 293.291667 L 392.572917 293.296875 L 394.510417 293.307292 L 395.473958 293.317708 L 396.442708 293.328125 L 397.40625 293.338542 L 399.34375 293.369792 L 400.307292 293.390625 L 401.276042 293.416667 L 402.239583 293.447917 L 403.208333 293.484375 L 404.177083 293.53125 L 405.140625 293.588542 L 406.109375 293.65625 L 407.078125 293.739583 L 408.041667 293.838542 L 409.010417 293.958333 L 409.979167 294.104167 L 410.942708 294.286458 L 411.911458 294.5 L 412.875 294.765625 L 413.84375 295.083333 L 414.8125 295.463542 L 415.776042 295.927083 L 416.744792 296.489583 L 417.708333 297.166667 L 418.677083 297.979167 L 419.645833 298.953125 L 420.609375 300.119792 L 421.578125 301.515625 L 422.546875 303.171875 L 423.510417 305.130208 L 424.479167 307.4375 L 425.447917 310.140625 L 426.411458 313.276042 L 427.380208 316.890625 L 428.34375 321.015625 L 429.3125 325.666667 L 430.28125 330.848958 L 431.244792 336.541667 L 432.213542 342.703125 L 433.177083 349.260417 L 434.145833 356.119792 L 435.114583 363.161458 L 436.078125 370.255208 L 437.046875 377.270833 L 438.015625 384.078125 L 438.979167 390.5625 L 439.947917 396.635417 L 440.916667 402.229167 L 441.880208 407.307292 L 442.848958 411.854167 L 443.8125 415.869792 L 444.78125 419.385417 L 445.75 422.432292 L 446.713542 425.052083 L 447.682292 427.286458 L 448.645833 429.182292 L 449.614583 430.786458 L 450.583333 432.130208 L 451.546875 433.255208 L 452.515625 434.197917 L 453.484375 434.979167 L 454.447917 435.630208 L 455.416667 436.171875 L 456.385417 436.619792 L 457.348958 436.989583 L 458.317708 437.291667 L 459.28125 437.546875 L 460.25 437.755208 L 461.21875 437.927083 L 462.182292 438.067708 L 463.151042 438.182292 L 464.114583 438.28125 L 465.083333 438.359375 L 466.052083 438.421875 L 467.015625 438.479167 L 467.984375 438.520833 L 468.953125 438.557292 L 469.916667 438.588542 L 470.885417 438.614583 L 471.854167 438.635417 L 472.817708 438.651042 L 473.786458 438.661458 L 474.75 438.677083 L 475.71875 438.682292 L 476.6875 438.692708 L 477.651042 438.697917 L 478.619792 438.703125 L 479.583333 438.708333 L 480.552083 438.713542 L 481.520833 438.713542 L 482.484375 438.71875 L 485.385417 438.71875 L 486.354167 438.723958 L 495.052083 438.723958 L 496.020833 438.729167 L 583.03125 438.729167 " transform="matrix(0.75,0,0,0.75,0,0)"/>
</g>
<path style="fill:none;stroke-width:1;stroke-linecap:butt;stroke-linejoin:miter;stroke:rgb(0%,0%,0%);stroke-opacity:1;stroke-miterlimit:2;" d="M 89 204.5 L 89 210.5 " transform="matrix(0.75,0,0,0.75,0,0)"/>
<path style="fill:none;stroke-width:1;stroke-linecap:butt;stroke-linejoin:miter;stroke:rgb(0%,0%,0%);stroke-opacity:1;stroke-miterlimit:2;" d="M 336.5 204.5 L 336.5 210.5 " transform="matrix(0.75,0,0,0.75,0,0)"/>
<path style="fill:none;stroke-width:1;stroke-linecap:butt;stroke-linejoin:miter;stroke:rgb(0%,0%,0%);stroke-opacity:1;stroke-miterlimit:2;" d="M 584 204.5 L 584 210.5 " transform="matrix(0.75,0,0,0.75,0,0)"/>
<path style="fill:none;stroke-width:1;stroke-linecap:butt;stroke-linejoin:miter;stroke:rgb(0%,0%,0%);stroke-opacity:1;stroke-miterlimit:2;" d="M 88.5 173.90625 L 82.5 173.90625 " transform="matrix(0.75,0,0,0.75,0,0)"/>
<path style="fill:none;stroke-width:1;stroke-linecap:butt;stroke-linejoin:miter;stroke:rgb(0%,0%,0%);stroke-opacity:1;stroke-miterlimit:2;" d="M 88.5 118.619792 L 82.5 118.619792 " transform="matrix(0.75,0,0,0.75,0,0)"/>
<path style="fill:none;stroke-width:1;stroke-linecap:butt;stroke-linejoin:miter;stroke:rgb(0%,0%,0%);stroke-opacity:1;stroke-miterlimit:2;" d="M 88.5 63.333333 L 82.5 63.333333 " transform="matrix(0.75,0,0,0.75,0,0)"/>
<path style="fill:none;stroke-width:1;stroke-linecap:butt;stroke-linejoin:miter;stroke:rgb(0%,0%,0%);stroke-opacity:1;stroke-miterlimit:2;" d="M 89 446.5 L 89 452.5 " transform="matrix(0.75,0,0,0.75,0,0)"/>
<path style="fill:none;stroke-width:1;stroke-linecap:butt;stroke-linejoin:miter;stroke:rgb(0%,0%,0%);stroke-opacity:1;stroke-miterlimit:2;" d="M 336.5 446.5 L 336.5 452.5 " transform="matrix(0.75,0,0,0.75,0,0)"/>
<path style="fill:none;stroke-width:1;stroke-linecap:butt;stroke-linejoin:miter;stroke:rgb(0%,0%,0%);stroke-opacity:1;stroke-miterlimit:2;" d="M 584 446.5 L 584 452.5 " transform="matrix(0.75,0,0,0.75,0,0)"/>
<path style="fill:none;stroke-width:1;stroke-linecap:butt;stroke-linejoin:miter;stroke:rgb(0%,0%,0%);stroke-opacity:1;stroke-miterlimit:2;" d="M 88.5 438.729167 L 82.5 438.729167 " transform="matrix(0.75,0,0,0.75,0,0)"/>
<path style="fill:none;stroke-width:1;stroke-linecap:butt;stroke-linejoin:miter;stroke:rgb(0%,0%,0%);stroke-opacity:1;stroke-miterlimit:2;" d="M 88.5 366 L 82.5 366 " transform="matrix(0.75,0,0,0.75,0,0)"/>
<path style="fill:none;stroke-width:1;stroke-linecap:butt;stroke-linejoin:miter;stroke:rgb(0%,0%,0%);stroke-opacity:1;stroke-miterlimit:2;" d="M 88.5 293.270833 L 82.5 293.270833 " transform="matrix(0.75,0,0,0.75,0,0)"/>
<path style="fill:none;stroke-width:1;stroke-linecap:butt;stroke-linejoin:miter;stroke:rgb(0%,0%,0%);stroke-opacity:1;stroke-miterlimit:2;" d="M 88.5 204 L 584.5 204 " transform="matrix(0.75,0,0,0.75,0,0)"/>
<path style="fill:none;stroke-width:1;stroke-linecap:butt;stroke-linejoin:miter;stroke:rgb(0%,0%,0%);stroke-opacity:1;stroke-miterlimit:2;" d="M 89 204.5 L 89 42.5 " transform="matrix(0.75,0,0,0.75,0,0)"/>
<path style="fill:none;stroke-width:1;stroke-linecap:butt;stroke-linejoin:miter;stroke:rgb(0%,0%,0%);stroke-opacity:1;stroke-miterlimit:2;" d="M 88.5 43 L 584.5 43 " transform="matrix(0.75,0,0,0.75,0,0)"/>
<path style="fill:none;stroke-width:1;stroke-linecap:butt;stroke-linejoin:miter;stroke:rgb(0%,0%,0%);stroke-opacity:1;stroke-miterlimit:2;" d="M 584 204.5 L 584 42.5 " transform="matrix(0.75,0,0,0.75,0,0)"/>
<path style="fill:none;stroke-width:1;stroke-linecap:butt;stroke-linejoin:miter;stroke:rgb(0%,0%,0%);stroke-opacity:1;stroke-miterlimit:2;" d="M 88.5 446 L 584.5 446 " transform="matrix(0.75,0,0,0.75,0,0)"/>
<path style="fill:none;stroke-width:1;stroke-linecap:butt;stroke-linejoin:miter;stroke:rgb(0%,0%,0%);stroke-opacity:1;stroke-miterlimit:2;" d="M 89 446.5 L 89 285.5 " transform="matrix(0.75,0,0,0.75,0,0)"/>
<path style="fill:none;stroke-width:1;stroke-linecap:butt;stroke-linejoin:miter;stroke:rgb(0%,0%,0%);stroke-opacity:1;stroke-miterlimit:2;" d="M 88.5 286 L 584.5 286 " transform="matrix(0.75,0,0,0.75,0,0)"/>
<path style="fill:none;stroke-width:1;stroke-linecap:butt;stroke-linejoin:miter;stroke:rgb(0%,0%,0%);stroke-opacity:1;stroke-miterlimit:2;" d="M 584 446.5 L 584 285.5 " transform="matrix(0.75,0,0,0.75,0,0)"/>
</g>
</svg>
