<?xml version="1.0" encoding="utf-8"?>
<svg xmlns="http://www.w3.org/2000/svg" xmlns:xlink="http://www.w3.org/1999/xlink" width="600" height="400" viewBox="0 0 2400 1600">
<defs>
  <clipPath id="clip520">
    <rect x="0" y="0" width="2400" height="1600"/>
  </clipPath>
</defs>
<path clip-path="url(#clip520)" d="
M0 1600 L2400 1600 L2400 0 L0 0  Z
  " fill="#ffffff" fill-rule="evenodd" fill-opacity="1"/>
<defs>
  <clipPath id="clip521">
    <rect x="480" y="0" width="1681" height="1600"/>
  </clipPath>
</defs>
<path clip-path="url(#clip520)" d="
M158.462 1401.58 L2352.76 1401.58 L2352.76 47.2441 L158.462 47.2441  Z
  " fill="#ffffff" fill-rule="evenodd" fill-opacity="1"/>
<defs>
  <clipPath id="clip522">
    <rect x="158" y="47" width="2195" height="1355"/>
  </clipPath>
</defs>
<polyline clip-path="url(#clip522)" style="stroke:#000000; stroke-width:2; stroke-opacity:0.1; fill:none" points="
  267.955,1401.58 267.955,47.2441 
  "/>
<polyline clip-path="url(#clip522)" style="stroke:#000000; stroke-width:2; stroke-opacity:0.1; fill:none" points="
  602.649,1401.58 602.649,47.2441 
  "/>
<polyline clip-path="url(#clip522)" style="stroke:#000000; stroke-width:2; stroke-opacity:0.1; fill:none" points="
  937.344,1401.58 937.344,47.2441 
  "/>
<polyline clip-path="url(#clip522)" style="stroke:#000000; stroke-width:2; stroke-opacity:0.1; fill:none" points="
  1272.04,1401.58 1272.04,47.2441 
  "/>
<polyline clip-path="url(#clip522)" style="stroke:#000000; stroke-width:2; stroke-opacity:0.1; fill:none" points="
  1606.73,1401.58 1606.73,47.2441 
  "/>
<polyline clip-path="url(#clip522)" style="stroke:#000000; stroke-width:2; stroke-opacity:0.1; fill:none" points="
  1941.43,1401.58 1941.43,47.2441 
  "/>
<polyline clip-path="url(#clip522)" style="stroke:#000000; stroke-width:2; stroke-opacity:0.1; fill:none" points="
  2276.12,1401.58 2276.12,47.2441 
  "/>
<polyline clip-path="url(#clip520)" style="stroke:#000000; stroke-width:4; stroke-opacity:1; fill:none" points="
  158.462,1401.58 2352.76,1401.58 
  "/>
<polyline clip-path="url(#clip520)" style="stroke:#000000; stroke-width:4; stroke-opacity:1; fill:none" points="
  267.955,1401.58 267.955,1385.33 
  "/>
<polyline clip-path="url(#clip520)" style="stroke:#000000; stroke-width:4; stroke-opacity:1; fill:none" points="
  602.649,1401.58 602.649,1385.33 
  "/>
<polyline clip-path="url(#clip520)" style="stroke:#000000; stroke-width:4; stroke-opacity:1; fill:none" points="
  937.344,1401.58 937.344,1385.33 
  "/>
<polyline clip-path="url(#clip520)" style="stroke:#000000; stroke-width:4; stroke-opacity:1; fill:none" points="
  1272.04,1401.58 1272.04,1385.33 
  "/>
<polyline clip-path="url(#clip520)" style="stroke:#000000; stroke-width:4; stroke-opacity:1; fill:none" points="
  1606.73,1401.58 1606.73,1385.33 
  "/>
<polyline clip-path="url(#clip520)" style="stroke:#000000; stroke-width:4; stroke-opacity:1; fill:none" points="
  1941.43,1401.58 1941.43,1385.33 
  "/>
<polyline clip-path="url(#clip520)" style="stroke:#000000; stroke-width:4; stroke-opacity:1; fill:none" points="
  2276.12,1401.58 2276.12,1385.33 
  "/>
<path clip-path="url(#clip520)" d="M 0 0 M232.929 1451.58 L270.023 1451.58 L270.023 1456.5 L232.929 1456.5 L232.929 1451.58 Z" fill="#000000" fill-rule="evenodd" fill-opacity="1" /><path clip-path="url(#clip520)" d="M 0 0 M294.068 1449.33 Q298.264 1450.22 300.608 1453.06 Q302.98 1455.9 302.98 1460.06 Q302.98 1466.46 298.582 1469.96 Q294.184 1473.46 286.082 1473.46 Q283.363 1473.46 280.469 1472.91 Q277.604 1472.39 274.537 1471.32 L274.537 1465.68 Q276.968 1467.09 279.861 1467.82 Q282.755 1468.54 285.909 1468.54 Q291.406 1468.54 294.271 1466.37 Q297.165 1464.2 297.165 1460.06 Q297.165 1456.24 294.474 1454.1 Q291.812 1451.93 287.037 1451.93 L282.003 1451.93 L282.003 1447.13 L287.269 1447.13 Q291.58 1447.13 293.866 1445.42 Q296.152 1443.68 296.152 1440.44 Q296.152 1437.12 293.779 1435.35 Q291.435 1433.56 287.037 1433.56 Q284.636 1433.56 281.887 1434.08 Q279.138 1434.6 275.839 1435.7 L275.839 1430.49 Q279.167 1429.56 282.06 1429.1 Q284.983 1428.64 287.558 1428.64 Q294.213 1428.64 298.09 1431.68 Q301.968 1434.69 301.968 1439.84 Q301.968 1443.42 299.913 1445.91 Q297.859 1448.37 294.068 1449.33 Z" fill="#000000" fill-rule="evenodd" fill-opacity="1" /><path clip-path="url(#clip520)" d="M 0 0 M568.216 1451.58 L605.311 1451.58 L605.311 1456.5 L568.216 1456.5 L568.216 1451.58 Z" fill="#000000" fill-rule="evenodd" fill-opacity="1" /><path clip-path="url(#clip520)" d="M 0 0 M616.683 1467.7 L637.082 1467.7 L637.082 1472.62 L609.651 1472.62 L609.651 1467.7 Q612.979 1464.26 618.708 1458.47 Q624.466 1452.65 625.942 1450.98 Q628.748 1447.82 629.848 1445.65 Q630.976 1443.45 630.976 1441.34 Q630.976 1437.9 628.546 1435.73 Q626.144 1433.56 622.267 1433.56 Q619.518 1433.56 616.451 1434.51 Q613.413 1435.47 609.941 1437.41 L609.941 1431.5 Q613.471 1430.09 616.538 1429.36 Q619.605 1428.64 622.151 1428.64 Q628.864 1428.64 632.857 1432 Q636.85 1435.35 636.85 1440.96 Q636.85 1443.63 635.838 1446.03 Q634.854 1448.4 632.221 1451.64 Q631.497 1452.48 627.62 1456.5 Q623.743 1460.5 616.683 1467.7 Z" fill="#000000" fill-rule="evenodd" fill-opacity="1" /><path clip-path="url(#clip520)" d="M 0 0 M902.679 1451.58 L939.774 1451.58 L939.774 1456.5 L902.679 1456.5 L902.679 1451.58 Z" fill="#000000" fill-rule="evenodd" fill-opacity="1" /><path clip-path="url(#clip520)" d="M 0 0 M947.124 1467.7 L956.672 1467.7 L956.672 1434.74 L946.284 1436.83 L946.284 1431.5 L956.614 1429.42 L962.459 1429.42 L962.459 1467.7 L972.008 1467.7 L972.008 1472.62 L947.124 1472.62 L947.124 1467.7 Z" fill="#000000" fill-rule="evenodd" fill-opacity="1" /><path clip-path="url(#clip520)" d="M 0 0 M1272.04 1433.27 Q1267.52 1433.27 1265.24 1437.72 Q1262.98 1442.15 1262.98 1451.06 Q1262.98 1459.95 1265.24 1464.4 Q1267.52 1468.83 1272.04 1468.83 Q1276.58 1468.83 1278.84 1464.4 Q1281.12 1459.95 1281.12 1451.06 Q1281.12 1442.15 1278.84 1437.72 Q1276.58 1433.27 1272.04 1433.27 M1272.04 1428.64 Q1279.3 1428.64 1283.12 1434.4 Q1286.97 1440.13 1286.97 1451.06 Q1286.97 1461.97 1283.12 1467.73 Q1279.3 1473.46 1272.04 1473.46 Q1264.78 1473.46 1260.93 1467.73 Q1257.11 1461.97 1257.11 1451.06 Q1257.11 1440.13 1260.93 1434.4 Q1264.78 1428.64 1272.04 1428.64 Z" fill="#000000" fill-rule="evenodd" fill-opacity="1" /><path clip-path="url(#clip520)" d="M 0 0 M1594.71 1467.7 L1604.26 1467.7 L1604.26 1434.74 L1593.87 1436.83 L1593.87 1431.5 L1604.2 1429.42 L1610.05 1429.42 L1610.05 1467.7 L1619.59 1467.7 L1619.59 1472.62 L1594.71 1472.62 L1594.71 1467.7 Z" fill="#000000" fill-rule="evenodd" fill-opacity="1" /><path clip-path="url(#clip520)" d="M 0 0 M1934.74 1467.7 L1955.14 1467.7 L1955.14 1472.62 L1927.71 1472.62 L1927.71 1467.7 Q1931.04 1464.26 1936.77 1458.47 Q1942.53 1452.65 1944 1450.98 Q1946.81 1447.82 1947.91 1445.65 Q1949.04 1443.45 1949.04 1441.34 Q1949.04 1437.9 1946.61 1435.73 Q1944.2 1433.56 1940.33 1433.56 Q1937.58 1433.56 1934.51 1434.51 Q1931.47 1435.47 1928 1437.41 L1928 1431.5 Q1931.53 1430.09 1934.6 1429.36 Q1937.67 1428.64 1940.21 1428.64 Q1946.92 1428.64 1950.92 1432 Q1954.91 1435.35 1954.91 1440.96 Q1954.91 1443.63 1953.9 1446.03 Q1952.91 1448.4 1950.28 1451.64 Q1949.56 1452.48 1945.68 1456.5 Q1941.8 1460.5 1934.74 1467.7 Z" fill="#000000" fill-rule="evenodd" fill-opacity="1" /><path clip-path="url(#clip520)" d="M 0 0 M2281.43 1449.33 Q2285.63 1450.22 2287.97 1453.06 Q2290.34 1455.9 2290.34 1460.06 Q2290.34 1466.46 2285.94 1469.96 Q2281.55 1473.46 2273.45 1473.46 Q2270.73 1473.46 2267.83 1472.91 Q2264.97 1472.39 2261.9 1471.32 L2261.9 1465.68 Q2264.33 1467.09 2267.22 1467.82 Q2270.12 1468.54 2273.27 1468.54 Q2278.77 1468.54 2281.63 1466.37 Q2284.53 1464.2 2284.53 1460.06 Q2284.53 1456.24 2281.84 1454.1 Q2279.17 1451.93 2274.4 1451.93 L2269.37 1451.93 L2269.37 1447.13 L2274.63 1447.13 Q2278.94 1447.13 2281.23 1445.42 Q2283.51 1443.68 2283.51 1440.44 Q2283.51 1437.12 2281.14 1435.35 Q2278.8 1433.56 2274.4 1433.56 Q2272 1433.56 2269.25 1434.08 Q2266.5 1434.6 2263.2 1435.7 L2263.2 1430.49 Q2266.53 1429.56 2269.42 1429.1 Q2272.35 1428.64 2274.92 1428.64 Q2281.58 1428.64 2285.45 1431.68 Q2289.33 1434.69 2289.33 1439.84 Q2289.33 1443.42 2287.28 1445.91 Q2285.22 1448.37 2281.43 1449.33 Z" fill="#000000" fill-rule="evenodd" fill-opacity="1" /><path clip-path="url(#clip520)" d="M 0 0 M1276.75 1517.59 L1260.35 1539.66 L1277.61 1562.96 L1268.81 1562.96 L1255.61 1545.13 L1242.4 1562.96 L1233.61 1562.96 L1251.23 1539.22 L1235.11 1517.59 L1243.9 1517.59 L1255.93 1533.75 L1267.96 1517.59 L1276.75 1517.59 Z" fill="#000000" fill-rule="evenodd" fill-opacity="1" /><polyline clip-path="url(#clip522)" style="stroke:#000000; stroke-width:2; stroke-opacity:0.1; fill:none" points="
  158.462,1289.4 2352.76,1289.4 
  "/>
<polyline clip-path="url(#clip522)" style="stroke:#000000; stroke-width:2; stroke-opacity:0.1; fill:none" points="
  158.462,994.018 2352.76,994.018 
  "/>
<polyline clip-path="url(#clip522)" style="stroke:#000000; stroke-width:2; stroke-opacity:0.1; fill:none" points="
  158.462,698.632 2352.76,698.632 
  "/>
<polyline clip-path="url(#clip522)" style="stroke:#000000; stroke-width:2; stroke-opacity:0.1; fill:none" points="
  158.462,403.247 2352.76,403.247 
  "/>
<polyline clip-path="url(#clip522)" style="stroke:#000000; stroke-width:2; stroke-opacity:0.1; fill:none" points="
  158.462,107.861 2352.76,107.861 
  "/>
<polyline clip-path="url(#clip520)" style="stroke:#000000; stroke-width:4; stroke-opacity:1; fill:none" points="
  158.462,1401.58 158.462,47.2441 
  "/>
<polyline clip-path="url(#clip520)" style="stroke:#000000; stroke-width:4; stroke-opacity:1; fill:none" points="
  158.462,1289.4 184.793,1289.4 
  "/>
<polyline clip-path="url(#clip520)" style="stroke:#000000; stroke-width:4; stroke-opacity:1; fill:none" points="
  158.462,994.018 184.793,994.018 
  "/>
<polyline clip-path="url(#clip520)" style="stroke:#000000; stroke-width:4; stroke-opacity:1; fill:none" points="
  158.462,698.632 184.793,698.632 
  "/>
<polyline clip-path="url(#clip520)" style="stroke:#000000; stroke-width:4; stroke-opacity:1; fill:none" points="
  158.462,403.247 184.793,403.247 
  "/>
<polyline clip-path="url(#clip520)" style="stroke:#000000; stroke-width:4; stroke-opacity:1; fill:none" points="
  158.462,107.861 184.793,107.861 
  "/>
<path clip-path="url(#clip520)" d="M 0 0 M50.9921 1289.97 L88.0868 1289.97 L88.0868 1294.89 L50.9921 1294.89 L50.9921 1289.97 Z" fill="#000000" fill-rule="evenodd" fill-opacity="1" /><path clip-path="url(#clip520)" d="M 0 0 M110.483 1272.9 L95.7257 1295.96 L110.483 1295.96 L110.483 1272.9 M108.949 1267.8 L116.298 1267.8 L116.298 1295.96 L122.462 1295.96 L122.462 1300.82 L116.298 1300.82 L116.298 1311 L110.483 1311 L110.483 1300.82 L90.9803 1300.82 L90.9803 1295.18 L108.949 1267.8 Z" fill="#000000" fill-rule="evenodd" fill-opacity="1" /><path clip-path="url(#clip520)" d="M 0 0 M53.5963 994.582 L90.691 994.582 L90.691 999.501 L53.5963 999.501 L53.5963 994.582 Z" fill="#000000" fill-rule="evenodd" fill-opacity="1" /><path clip-path="url(#clip520)" d="M 0 0 M102.062 1010.7 L122.462 1010.7 L122.462 1015.62 L95.0312 1015.62 L95.0312 1010.7 Q98.3588 1007.26 104.088 1001.47 Q109.846 995.653 111.322 993.974 Q114.128 990.82 115.228 988.65 Q116.356 986.451 116.356 984.339 Q116.356 980.896 113.926 978.726 Q111.524 976.555 107.647 976.555 Q104.898 976.555 101.831 977.51 Q98.7928 978.465 95.3206 980.404 L95.3206 974.501 Q98.8507 973.083 101.918 972.36 Q104.985 971.637 107.531 971.637 Q114.244 971.637 118.237 974.993 Q122.23 978.349 122.23 983.963 Q122.23 986.625 121.217 989.026 Q120.234 991.399 117.601 994.64 Q116.877 995.479 113 999.501 Q109.123 1003.49 102.062 1010.7 Z" fill="#000000" fill-rule="evenodd" fill-opacity="1" /><path clip-path="url(#clip520)" d="M 0 0 M107.531 680.881 Q103.017 680.881 100.731 685.337 Q98.4745 689.764 98.4745 698.676 Q98.4745 707.559 100.731 712.015 Q103.017 716.442 107.531 716.442 Q112.074 716.442 114.331 712.015 Q116.617 707.559 116.617 698.676 Q116.617 689.764 114.331 685.337 Q112.074 680.881 107.531 680.881 M107.531 676.251 Q114.794 676.251 118.613 682.009 Q122.462 687.738 122.462 698.676 Q122.462 709.584 118.613 715.342 Q114.794 721.071 107.531 721.071 Q100.268 721.071 96.4201 715.342 Q92.6007 709.584 92.6007 698.676 Q92.6007 687.738 96.4201 682.009 Q100.268 676.251 107.531 676.251 Z" fill="#000000" fill-rule="evenodd" fill-opacity="1" /><path clip-path="url(#clip520)" d="M 0 0 M102.062 419.928 L122.462 419.928 L122.462 424.847 L95.0312 424.847 L95.0312 419.928 Q98.3588 416.485 104.088 410.698 Q109.846 404.882 111.322 403.203 Q114.128 400.049 115.228 397.879 Q116.356 395.68 116.356 393.568 Q116.356 390.125 113.926 387.955 Q111.524 385.785 107.647 385.785 Q104.898 385.785 101.831 386.739 Q98.7928 387.694 95.3206 389.633 L95.3206 383.73 Q98.8507 382.312 101.918 381.589 Q104.985 380.866 107.531 380.866 Q114.244 380.866 118.237 384.222 Q122.23 387.578 122.23 393.192 Q122.23 395.854 121.217 398.256 Q120.234 400.628 117.601 403.869 Q116.877 404.708 113 408.73 Q109.123 412.723 102.062 419.928 Z" fill="#000000" fill-rule="evenodd" fill-opacity="1" /><path clip-path="url(#clip520)" d="M 0 0 M110.483 91.3539 L95.7257 114.415 L110.483 114.415 L110.483 91.3539 M108.949 86.2613 L116.298 86.2613 L116.298 114.415 L122.462 114.415 L122.462 119.276 L116.298 119.276 L116.298 129.461 L110.483 129.461 L110.483 119.276 L90.9803 119.276 L90.9803 113.634 L108.949 86.2613 Z" fill="#000000" fill-rule="evenodd" fill-opacity="1" /><polyline clip-path="url(#clip522)" style="stroke:#009af9; stroke-width:8; stroke-opacity:1; fill:none" points="
  220.564,772.479 253.423,734.946 286.281,683.14 319.14,623.817 351.999,565.938 384.857,518.746 417.716,489.755 450.574,483.111 483.433,498.722 516.291,532.341 
  549.15,576.589 582.008,622.678 614.867,662.423 647.726,690.069 680.584,703.514 713.443,704.63 746.301,698.632 779.16,692.635 812.018,693.751 844.877,707.195 
  877.735,734.842 910.594,774.587 943.453,820.676 976.311,864.924 1009.17,898.542 1042.03,914.154 1074.89,907.51 1107.75,878.518 1140.6,831.327 1173.46,773.448 
  1206.32,714.125 1239.18,662.319 1272.04,624.786 1304.9,604.692 1337.76,601.086 1370.61,609.34 1403.47,622.458 1436.33,632.914 1469.19,634.609 1502.05,624.444 
  1534.91,603.157 1567.77,575.214 1600.62,547.775 1633.48,528.983 1666.34,525.973 1699.2,543.088 1732.06,580.712 1764.92,635.008 1797.77,698.632 1830.63,762.257 
  1863.49,816.553 1896.35,854.177 1929.21,871.292 1962.07,868.282 1994.93,849.489 2027.78,822.051 2060.64,794.108 2093.5,772.821 2126.36,762.655 2159.22,764.35 
  2192.08,774.807 2224.94,787.924 2257.79,796.179 2290.65,792.572 
  "/>
<polyline clip-path="url(#clip522)" style="stroke:#e26f46; stroke-width:8; stroke-opacity:1; fill:none" points="
  220.564,403.247 253.423,234.868 286.281,118.727 319.14,85.5744 351.999,148.637 384.857,300.287 417.716,513.56 450.574,748.188 483.433,959.719 516.291,1109.59 
  549.15,1173.81 582.008,1148.16 614.867,1048.8 647.726,908.045 680.584,766.399 713.443,662.709 746.301,624.786 779.16,662.709 812.018,766.399 844.877,908.045 
  877.735,1048.8 910.594,1148.16 943.453,1173.81 976.311,1109.59 1009.17,959.719 1042.03,748.188 1074.89,513.56 1107.75,300.287 1140.6,148.637 1173.46,85.5744 
  1206.32,118.727 1239.18,234.868 1272.04,403.247 1304.9,582.977 1337.76,732.737 1370.61,820.482 1403.47,830.889 1436.33,768.763 1469.19,657.627 1502.05,533.823 
  1534.91,437.546 1567.77,402.926 1600.62,449.534 1633.48,577.32 1666.34,766.202 1699.2,980.427 1732.06,1176.67 1764.92,1313.98 1797.77,1363.25 1830.63,1313.98 
  1863.49,1176.67 1896.35,980.427 1929.21,766.202 1962.07,577.32 1994.93,449.534 2027.78,402.926 2060.64,437.546 2093.5,533.823 2126.36,657.627 2159.22,768.763 
  2192.08,830.889 2224.94,820.482 2257.79,732.737 2290.65,582.977 
  "/>
<path clip-path="url(#clip520)" d="
M1897.49 319.189 L2279.61 319.189 L2279.61 92.3886 L1897.49 92.3886  Z
  " fill="#ffffff" fill-rule="evenodd" fill-opacity="1"/>
<polyline clip-path="url(#clip520)" style="stroke:#000000; stroke-width:4; stroke-opacity:1; fill:none" points="
  1897.49,319.189 2279.61,319.189 2279.61,92.3886 1897.49,92.3886 1897.49,319.189 
  "/>
<polyline clip-path="url(#clip520)" style="stroke:#009af9; stroke-width:5; stroke-opacity:1; fill:none" points="
  1921.87,167.989 2068.16,167.989 
  "/>
<path clip-path="url(#clip520)" d="M 0 0 M2092.54 176.799 L2092.54 157.181 L2097.87 157.181 L2097.87 176.597 Q2097.87 181.197 2099.66 183.512 Q2101.45 185.798 2105.04 185.798 Q2109.35 185.798 2111.84 183.049 Q2114.36 180.3 2114.36 175.555 L2114.36 157.181 L2119.68 157.181 L2119.68 189.589 L2114.36 189.589 L2114.36 184.612 Q2112.42 187.563 2109.84 189.01 Q2107.3 190.428 2103.91 190.428 Q2098.33 190.428 2095.43 186.956 Q2092.54 183.483 2092.54 176.799 M2105.94 156.4 L2105.94 156.4 Z" fill="#000000" fill-rule="evenodd" fill-opacity="1" /><polyline clip-path="url(#clip520)" style="stroke:#e26f46; stroke-width:5; stroke-opacity:1; fill:none" points="
  1921.87,243.589 2068.16,243.589 
  "/>
<path clip-path="url(#clip520)" d="M 0 0 M2102.44 266.028 Q2098.36 266.028 2095.7 263.568 Q2092.54 260.646 2092.54 255.351 Q2092.54 249.853 2095.32 245.571 Q2098.18 241.173 2103.33 241.173 Q2106.72 241.173 2109.38 243.285 Q2110.94 244.529 2112.01 246.612 Q2112.39 244.269 2112.39 241.607 Q2112.39 237.7 2111.46 235.443 Q2109.41 230.438 2103.97 230.438 Q2101.92 230.438 2098.73 231.711 L2098.73 226.85 Q2102.09 225.953 2105.1 225.953 Q2112.85 225.953 2116.15 233.071 Q2117.69 236.427 2117.69 241.433 Q2117.69 244.703 2116.96 248.493 Q2115.14 257.984 2110.42 262.498 Q2106.72 266.028 2102.44 266.028 M2097.49 256.219 Q2097.49 259.112 2098.76 260.675 Q2100.12 262.324 2102.21 262.324 Q2104.06 262.324 2105.53 261.022 Q2107.62 259.228 2109.15 256.306 Q2110.42 253.904 2111.06 251.329 Q2108.48 245.108 2104.03 245.108 Q2100.21 245.108 2098.53 250.142 Q2097.49 253.267 2097.49 256.219 Z" fill="#000000" fill-rule="evenodd" fill-opacity="1" /><path clip-path="url(#clip520)" d="M 0 0 M2122.72 252.399 L2122.72 232.781 L2128.04 232.781 L2128.04 252.197 Q2128.04 256.797 2129.84 259.112 Q2131.63 261.398 2135.22 261.398 Q2139.53 261.398 2142.02 258.649 Q2144.54 255.9 2144.54 251.155 L2144.54 232.781 L2149.86 232.781 L2149.86 265.189 L2144.54 265.189 L2144.54 260.212 Q2142.6 263.163 2140.02 264.61 Q2137.48 266.028 2134.09 266.028 Q2128.51 266.028 2125.61 262.556 Q2122.72 259.083 2122.72 252.399 M2136.12 232 L2136.12 232 Z" fill="#000000" fill-rule="evenodd" fill-opacity="1" /><path clip-path="url(#clip520)" d="M 0 0 M2164.91 221.989 L2169.83 221.989 L2154.78 270.686 L2149.86 270.686 L2164.91 221.989 Z" fill="#000000" fill-rule="evenodd" fill-opacity="1" /><path clip-path="url(#clip520)" d="M 0 0 M2182.47 266.028 Q2178.39 266.028 2175.73 263.568 Q2172.58 260.646 2172.58 255.351 Q2172.58 249.853 2175.35 245.571 Q2178.22 241.173 2183.37 241.173 Q2186.75 241.173 2189.42 243.285 Q2190.98 244.529 2192.05 246.612 Q2192.42 244.269 2192.42 241.607 Q2192.42 237.7 2191.5 235.443 Q2189.44 230.438 2184 230.438 Q2181.95 230.438 2178.77 231.711 L2178.77 226.85 Q2182.12 225.953 2185.13 225.953 Q2192.89 225.953 2196.19 233.071 Q2197.72 236.427 2197.72 241.433 Q2197.72 244.703 2197 248.493 Q2195.17 257.984 2190.46 262.498 Q2186.75 266.028 2182.47 266.028 M2177.52 256.219 Q2177.52 259.112 2178.8 260.675 Q2180.16 262.324 2182.24 262.324 Q2184.09 262.324 2185.57 261.022 Q2187.65 259.228 2189.18 256.306 Q2190.46 253.904 2191.09 251.329 Q2188.52 245.108 2184.06 245.108 Q2180.24 245.108 2178.57 250.142 Q2177.52 253.267 2177.52 256.219 Z" fill="#000000" fill-rule="evenodd" fill-opacity="1" /><path clip-path="url(#clip520)" d="M 0 0 M2230.24 232.781 L2218.52 248.551 L2230.85 265.189 L2224.57 265.189 L2215.14 252.457 L2205.71 265.189 L2199.43 265.189 L2212.01 248.233 L2200.5 232.781 L2206.78 232.781 L2215.37 244.326 L2223.96 232.781 L2230.24 232.781 Z" fill="#000000" fill-rule="evenodd" fill-opacity="1" /></svg>
