<?xml version="1.0" encoding="UTF-8"?>
<svg xmlns="http://www.w3.org/2000/svg" xmlns:xlink="http://www.w3.org/1999/xlink" width="450pt" height="338pt" viewBox="0 0 450 338" version="1.1">
<defs>
<g>
<symbol overflow="visible" id="glyph0-0-a717e7ac">
<path style="stroke:none;" d="M 0.296875 -10.9375 C 0.296875 -10.9375 0.296875 0 0.296875 0 C 0.296875 0 7.046875 0 7.046875 0 C 7.046875 0 7.046875 -10.9375 7.046875 -10.9375 C 7.046875 -10.9375 0.296875 -10.9375 0.296875 -10.9375 Z M 1.078125 -0.78125 C 1.078125 -0.78125 1.078125 -10.15625 1.078125 -10.15625 C 1.078125 -10.15625 6.265625 -10.15625 6.265625 -10.15625 C 6.265625 -10.15625 6.265625 -0.78125 6.265625 -0.78125 C 6.265625 -0.78125 1.078125 -0.78125 1.078125 -0.78125 Z M 1.078125 -0.78125 "/>
</symbol>
<symbol overflow="visible" id="glyph0-1-a717e7ac">
<path style="stroke:none;" d="M 2.453125 3.1875 C 2.453125 3.1875 1.4375 3.1875 1.4375 3.1875 C 1.4375 3.1875 1.4375 -10.9375 1.4375 -10.9375 C 1.4375 -10.9375 2.453125 -10.9375 2.453125 -10.9375 C 2.453125 -10.9375 2.453125 3.1875 2.453125 3.1875 Z M 2.453125 3.1875 "/>
</symbol>
<symbol overflow="visible" id="glyph0-2-a717e7ac">
<path style="stroke:none;" d=""/>
</symbol>
<symbol overflow="visible" id="glyph0-3-a717e7ac">
<path style="stroke:none;" d="M 9.609375 -6.84375 C 9.609375 -6.84375 8.109375 -6.84375 8.109375 -6.84375 C 8.109375 -6.84375 8.109375 0 8.109375 0 C 8.109375 0 6.875 0 6.875 0 C 6.875 0 6.875 -6.84375 6.875 -6.84375 C 6.875 -6.84375 4.390625 -6.84375 4.390625 -6.84375 C 4.390625 -6.84375 4.390625 0 4.390625 0 C 4.390625 0 3.15625 0 3.15625 0 C 3.15625 0 3.15625 -6.84375 3.15625 -6.84375 C 1.984375 -6.84375 1.46875 -6.296875 1.46875 -5.125 C 1.46875 -5.125 0.453125 -5.125 0.453125 -5.125 C 0.453125 -7.3125 1.453125 -7.859375 3.78125 -7.859375 C 3.78125 -7.859375 9.609375 -7.859375 9.609375 -7.859375 C 9.609375 -7.859375 9.609375 -6.84375 9.609375 -6.84375 Z M 9.609375 -6.84375 "/>
</symbol>
<symbol overflow="visible" id="glyph0-4-a717e7ac">
<path style="stroke:none;" d="M 7.609375 -5.109375 C 7.609375 -1.625 6.375 0.21875 4.125 0.21875 C 1.84375 0.21875 0.640625 -1.625 0.640625 -5.203125 C 0.640625 -8.78125 1.828125 -10.640625 4.125 -10.640625 C 6.4375 -10.640625 7.609375 -8.8125 7.609375 -5.109375 Z M 6.25 -5.234375 C 6.25 -8.078125 5.546875 -9.46875 4.125 -9.46875 C 2.703125 -9.46875 2 -8.09375 2 -5.1875 C 2 -2.28125 2.703125 -0.875 4.09375 -0.875 C 5.5625 -0.875 6.25 -2.21875 6.25 -5.234375 Z M 6.25 -5.234375 "/>
</symbol>
<symbol overflow="visible" id="glyph0-5-a717e7ac">
<path style="stroke:none;" d="M 4.8125 -6.765625 C 2.875 -6.734375 2.296875 -5.84375 2.296875 -4.078125 C 2.296875 -4.078125 2.296875 0 2.296875 0 C 2.296875 0 1.046875 0 1.046875 0 C 1.046875 0 1.046875 -7.859375 1.046875 -7.859375 C 1.046875 -7.859375 2.1875 -7.859375 2.1875 -7.859375 C 2.1875 -7.859375 2.1875 -6.4375 2.1875 -6.4375 C 2.90625 -7.609375 3.53125 -8.078125 4.328125 -8.078125 C 4.5 -8.078125 4.609375 -8.0625 4.8125 -8.046875 C 4.8125 -8.046875 4.8125 -6.765625 4.8125 -6.765625 Z M 4.8125 -6.765625 "/>
</symbol>
<symbol overflow="visible" id="glyph0-6-a717e7ac">
<path style="stroke:none;" d="M 4.265625 -10.9375 C 4.265625 -10.9375 0.703125 0.296875 0.703125 0.296875 C 0.703125 0.296875 -0.125 0.296875 -0.125 0.296875 C -0.125 0.296875 3.4375 -10.9375 3.4375 -10.9375 C 3.4375 -10.9375 4.265625 -10.9375 4.265625 -10.9375 Z M 4.265625 -10.9375 "/>
</symbol>
<symbol overflow="visible" id="glyph0-7-a717e7ac">
<path style="stroke:none;" d="M 7.59375 -3.09375 C 7.59375 -1.078125 6.1875 0.21875 3.984375 0.21875 C 1.8125 0.21875 0.640625 -0.84375 0.484375 -3.203125 C 0.484375 -3.203125 1.796875 -3.203125 1.796875 -3.203125 C 1.890625 -1.671875 2.59375 -0.9375 4.03125 -0.9375 C 5.421875 -0.9375 6.234375 -1.734375 6.234375 -3.078125 C 6.234375 -4.265625 5.484375 -4.953125 4.03125 -4.953125 C 4.03125 -4.953125 3.3125 -4.953125 3.3125 -4.953125 C 3.3125 -4.953125 3.3125 -6.0625 3.3125 -6.0625 C 5.4375 -6.0625 5.921875 -6.53125 5.921875 -7.671875 C 5.921875 -8.796875 5.21875 -9.484375 4.046875 -9.484375 C 2.703125 -9.484375 2.0625 -8.78125 2.03125 -7.203125 C 2.03125 -7.203125 0.703125 -7.203125 0.703125 -7.203125 C 0.75 -9.46875 1.890625 -10.640625 4.03125 -10.640625 C 6.0625 -10.640625 7.28125 -9.546875 7.28125 -7.703125 C 7.28125 -6.640625 6.78125 -5.953125 5.796875 -5.5625 C 7.0625 -5.125 7.59375 -4.375 7.59375 -3.09375 Z M 7.59375 -3.09375 "/>
</symbol>
<symbol overflow="visible" id="glyph0-8-a717e7ac">
<path style="stroke:none;" d="M 3.875 -6.84375 C 3.875 -6.84375 2.5625 -6.84375 2.5625 -6.84375 C 2.5625 -6.84375 2.5625 0 2.5625 0 C 2.5625 0 1.3125 0 1.3125 0 C 1.3125 0 1.3125 -6.84375 1.3125 -6.84375 C 1.3125 -6.84375 0.265625 -6.84375 0.265625 -6.84375 C 0.265625 -6.84375 0.265625 -7.859375 0.265625 -7.859375 C 0.265625 -7.859375 1.3125 -7.859375 1.3125 -7.859375 C 1.3125 -7.859375 1.3125 -9.1875 1.3125 -9.1875 C 1.3125 -10.3125 2.015625 -10.984375 3.171875 -10.984375 C 3.421875 -10.984375 3.578125 -10.96875 3.875 -10.90625 C 3.875 -10.90625 3.875 -9.875 3.875 -9.875 C 3.578125 -9.890625 3.546875 -9.890625 3.4375 -9.890625 C 2.859375 -9.890625 2.5625 -9.609375 2.5625 -9.09375 C 2.5625 -9.09375 2.5625 -7.859375 2.5625 -7.859375 C 2.5625 -7.859375 3.875 -7.859375 3.875 -7.859375 C 3.875 -7.859375 3.875 -6.84375 3.875 -6.84375 Z M 3.875 -6.84375 "/>
</symbol>
<symbol overflow="visible" id="glyph0-9-a717e7ac">
<path style="stroke:none;" d="M 2.265625 0 C 2.265625 0 1.015625 0 1.015625 0 C 1.015625 0 1.015625 -10.9375 1.015625 -10.9375 C 1.015625 -10.9375 2.265625 -10.9375 2.265625 -10.9375 C 2.265625 -10.9375 2.265625 0 2.265625 0 Z M 2.265625 0 "/>
</symbol>
<symbol overflow="visible" id="glyph1-0-a717e7ac">
<path style="stroke:none;" d="M 1.40625 -10.703125 L 7.578125 -10.703125 L 7.578125 0 L 1.40625 0 Z M 2.171875 -0.765625 L 6.8125 -0.765625 L 6.8125 -9.953125 L 2.171875 -9.953125 Z M 2.171875 -0.765625 "/>
</symbol>
<symbol overflow="visible" id="glyph1-1-a717e7ac">
<path style="stroke:none;" d="M 3.296875 -1.25 C 3.296875 -0.9375 3.34375 -0.710938 3.4375 -0.578125 C 3.53125 -0.453125 3.722656 -0.378906 4.015625 -0.359375 L 4.015625 0 L 0.390625 0 L 0.390625 -0.359375 C 0.691406 -0.378906 0.894531 -0.445312 1 -0.5625 C 1.113281 -0.6875 1.171875 -0.914062 1.171875 -1.25 L 1.171875 -8.875 C 1.171875 -9.21875 1.128906 -9.453125 1.046875 -9.578125 C 0.972656 -9.710938 0.773438 -9.789062 0.453125 -9.8125 L 0.46875 -10.171875 L 3.296875 -10.171875 L 3.296875 -3.765625 L 5.0625 -5.53125 C 5.3125 -5.78125 5.4375 -6.007812 5.4375 -6.21875 C 5.4375 -6.445312 5.179688 -6.5625 4.671875 -6.5625 L 4.59375 -6.5625 L 4.59375 -6.921875 L 7.71875 -6.921875 L 7.71875 -6.5625 C 7.125 -6.519531 6.597656 -6.269531 6.140625 -5.8125 L 4.96875 -4.671875 L 7.734375 -0.765625 C 7.910156 -0.503906 8.132812 -0.367188 8.40625 -0.359375 L 8.40625 0 L 4.703125 0 L 4.703125 -0.359375 L 4.84375 -0.359375 C 5.175781 -0.359375 5.34375 -0.472656 5.34375 -0.703125 C 5.34375 -0.796875 5.285156 -0.925781 5.171875 -1.09375 L 3.640625 -3.28125 L 3.296875 -3 Z M 3.296875 -1.25 "/>
</symbol>
<symbol overflow="visible" id="glyph2-0-a717e7ac">
<path style="stroke:none;" d="M 0.296875 -10.9375 C 0.296875 -10.9375 0.296875 0 0.296875 0 C 0.296875 0 7.046875 0 7.046875 0 C 7.046875 0 7.046875 -10.9375 7.046875 -10.9375 C 7.046875 -10.9375 0.296875 -10.9375 0.296875 -10.9375 Z M 1.078125 -0.78125 C 1.078125 -0.78125 1.078125 -10.15625 1.078125 -10.15625 C 1.078125 -10.15625 6.265625 -10.15625 6.265625 -10.15625 C 6.265625 -10.15625 6.265625 -0.78125 6.265625 -0.78125 C 6.265625 -0.78125 1.078125 -0.78125 1.078125 -0.78125 Z M 1.078125 -0.78125 "/>
</symbol>
<symbol overflow="visible" id="glyph2-1-a717e7ac">
<path style="stroke:none;" d="M 7.421875 0 C 7.421875 0 6.3125 0 6.3125 0 C 6.3125 0 6.3125 -1.15625 6.3125 -1.15625 C 5.640625 -0.1875 4.890625 0.21875 3.8125 0.21875 C 1.6875 0.21875 0.390625 -1.34375 0.390625 -4 C 0.390625 -6.515625 1.71875 -8.078125 3.765625 -8.078125 C 4.8125 -8.078125 5.65625 -7.671875 6.1875 -6.875 C 6.1875 -6.875 6.1875 -10.9375 6.1875 -10.9375 C 6.1875 -10.9375 7.421875 -10.9375 7.421875 -10.9375 C 7.421875 -10.9375 7.421875 0 7.421875 0 Z M 6.1875 -3.90625 C 6.1875 -5.71875 5.328125 -6.921875 3.96875 -6.921875 C 2.609375 -6.921875 1.6875 -5.765625 1.6875 -3.9375 C 1.6875 -2.09375 2.609375 -0.9375 3.984375 -0.9375 C 5.3125 -0.9375 6.1875 -2.078125 6.1875 -3.90625 Z M 6.1875 -3.90625 "/>
</symbol>
<symbol overflow="visible" id="glyph2-2-a717e7ac">
<path style="stroke:none;" d="M 7.09375 0 C 7.09375 0 5.640625 0 5.640625 0 C 5.640625 0 3.671875 -3.015625 3.671875 -3.015625 C 3.671875 -3.015625 1.6875 0 1.6875 0 C 1.6875 0 0.25 0 0.25 0 C 0.25 0 3.03125 -4 3.03125 -4 C 3.03125 -4 0.40625 -7.859375 0.40625 -7.859375 C 0.40625 -7.859375 1.828125 -7.859375 1.828125 -7.859375 C 1.828125 -7.859375 3.71875 -5.015625 3.71875 -5.015625 C 3.71875 -5.015625 5.609375 -7.859375 5.609375 -7.859375 C 5.609375 -7.859375 7.015625 -7.859375 7.015625 -7.859375 C 7.015625 -7.859375 4.375 -4.0625 4.375 -4.0625 C 4.375 -4.0625 7.09375 0 7.09375 0 Z M 7.09375 0 "/>
</symbol>
<symbol overflow="visible" id="glyph2-3-a717e7ac">
<path style="stroke:none;" d=""/>
</symbol>
<symbol overflow="visible" id="glyph2-4-a717e7ac">
<path style="stroke:none;" d="M 7.609375 -5.109375 C 7.609375 -1.625 6.375 0.21875 4.125 0.21875 C 1.84375 0.21875 0.640625 -1.625 0.640625 -5.203125 C 0.640625 -8.78125 1.828125 -10.640625 4.125 -10.640625 C 6.4375 -10.640625 7.609375 -8.8125 7.609375 -5.109375 Z M 6.25 -5.234375 C 6.25 -8.078125 5.546875 -9.46875 4.125 -9.46875 C 2.703125 -9.46875 2 -8.09375 2 -5.1875 C 2 -2.28125 2.703125 -0.875 4.09375 -0.875 C 5.5625 -0.875 6.25 -2.21875 6.25 -5.234375 Z M 6.25 -5.234375 "/>
</symbol>
<symbol overflow="visible" id="glyph2-5-a717e7ac">
<path style="stroke:none;" d="M 2.859375 0 C 2.859375 0 1.3125 0 1.3125 0 C 1.3125 0 1.3125 -1.5625 1.3125 -1.5625 C 1.3125 -1.5625 2.859375 -1.5625 2.859375 -1.5625 C 2.859375 -1.5625 2.859375 0 2.859375 0 Z M 2.859375 0 "/>
</symbol>
<symbol overflow="visible" id="glyph2-6-a717e7ac">
<path style="stroke:none;" d="M 7.671875 -7.515625 C 7.671875 -6.203125 6.90625 -5.09375 5.421875 -4.3125 C 5.421875 -4.3125 3.921875 -3.5 3.921875 -3.5 C 2.609375 -2.734375 2.125 -2.171875 2 -1.3125 C 2 -1.3125 7.59375 -1.3125 7.59375 -1.3125 C 7.59375 -1.3125 7.59375 0 7.59375 0 C 7.59375 0 0.515625 0 0.515625 0 C 0.625 -2.34375 1.28125 -3.34375 3.5 -4.609375 C 3.5 -4.609375 4.875 -5.390625 4.875 -5.390625 C 5.8125 -5.921875 6.3125 -6.640625 6.3125 -7.484375 C 6.3125 -8.625 5.421875 -9.484375 4.21875 -9.484375 C 2.90625 -9.484375 2.171875 -8.734375 2.0625 -6.9375 C 2.0625 -6.9375 0.75 -6.9375 0.75 -6.9375 C 0.828125 -9.53125 2.078125 -10.640625 4.265625 -10.640625 C 6.265625 -10.640625 7.671875 -9.3125 7.671875 -7.515625 Z M 7.671875 -7.515625 "/>
</symbol>
<symbol overflow="visible" id="glyph2-7-a717e7ac">
<path style="stroke:none;" d="M 7.796875 -2.546875 C 7.796875 -2.546875 6.21875 -2.546875 6.21875 -2.546875 C 6.21875 -2.546875 6.21875 0 6.21875 0 C 6.21875 0 4.90625 0 4.90625 0 C 4.90625 0 4.90625 -2.546875 4.90625 -2.546875 C 4.90625 -2.546875 0.421875 -2.546875 0.421875 -2.546875 C 0.421875 -2.546875 0.421875 -3.9375 0.421875 -3.9375 C 0.421875 -3.9375 5.25 -10.640625 5.25 -10.640625 C 5.25 -10.640625 6.21875 -10.640625 6.21875 -10.640625 C 6.21875 -10.640625 6.21875 -3.734375 6.21875 -3.734375 C 6.21875 -3.734375 7.796875 -3.734375 7.796875 -3.734375 C 7.796875 -3.734375 7.796875 -2.546875 7.796875 -2.546875 Z M 4.90625 -3.734375 C 4.90625 -3.734375 4.90625 -8.390625 4.90625 -8.390625 C 4.90625 -8.390625 1.578125 -3.734375 1.578125 -3.734375 C 1.578125 -3.734375 4.90625 -3.734375 4.90625 -3.734375 Z M 4.90625 -3.734375 "/>
</symbol>
<symbol overflow="visible" id="glyph2-8-a717e7ac">
<path style="stroke:none;" d="M 7.6875 -3.296875 C 7.6875 -1.21875 6.234375 0.21875 4.21875 0.21875 C 1.78125 0.21875 0.640625 -1.53125 0.640625 -4.84375 C 0.640625 -8.546875 1.984375 -10.640625 4.453125 -10.640625 C 6.078125 -10.640625 7.21875 -9.59375 7.46875 -7.859375 C 7.46875 -7.859375 6.15625 -7.859375 6.15625 -7.859375 C 5.9375 -8.875 5.296875 -9.46875 4.359375 -9.46875 C 2.84375 -9.46875 2.015625 -8.03125 2 -5.4375 C 2.5625 -6.203125 3.390625 -6.609375 4.4375 -6.609375 C 6.34375 -6.609375 7.6875 -5.28125 7.6875 -3.296875 Z M 6.34375 -3.1875 C 6.34375 -4.625 5.546875 -5.4375 4.28125 -5.4375 C 2.96875 -5.4375 2.0625 -4.59375 2.0625 -3.265625 C 2.0625 -1.90625 3 -0.9375 4.234375 -0.9375 C 5.4375 -0.9375 6.34375 -1.859375 6.34375 -3.1875 Z M 6.34375 -3.1875 "/>
</symbol>
<symbol overflow="visible" id="glyph2-9-a717e7ac">
<path style="stroke:none;" d="M 5.203125 0 C 5.203125 0 3.890625 0 3.890625 0 C 3.890625 0 3.890625 -7.578125 3.890625 -7.578125 C 3.890625 -7.578125 1.53125 -7.578125 1.53125 -7.578125 C 1.53125 -7.578125 1.53125 -8.515625 1.53125 -8.515625 C 3.5625 -8.78125 3.875 -9 4.328125 -10.640625 C 4.328125 -10.640625 5.203125 -10.640625 5.203125 -10.640625 C 5.203125 -10.640625 5.203125 0 5.203125 0 Z M 5.203125 0 "/>
</symbol>
<symbol overflow="visible" id="glyph2-10-a717e7ac">
<path style="stroke:none;" d="M 3.8125 0 C 3.390625 0.078125 3.09375 0.109375 2.796875 0.109375 C 1.8125 0.109375 1.28125 -0.34375 1.28125 -1.140625 C 1.28125 -1.140625 1.28125 -6.84375 1.28125 -6.84375 C 1.28125 -6.84375 0.203125 -6.84375 0.203125 -6.84375 C 0.203125 -6.84375 0.203125 -7.859375 0.203125 -7.859375 C 0.203125 -7.859375 1.28125 -7.859375 1.28125 -7.859375 C 1.28125 -7.859375 1.28125 -10.015625 1.28125 -10.015625 C 1.28125 -10.015625 2.515625 -10.015625 2.515625 -10.015625 C 2.515625 -10.015625 2.515625 -7.859375 2.515625 -7.859375 C 2.515625 -7.859375 3.8125 -7.859375 3.8125 -7.859375 C 3.8125 -7.859375 3.8125 -6.84375 3.8125 -6.84375 C 3.8125 -6.84375 2.515625 -6.84375 2.515625 -6.84375 C 2.515625 -6.84375 2.515625 -1.6875 2.515625 -1.6875 C 2.515625 -1.140625 2.671875 -0.984375 3.203125 -0.984375 C 3.453125 -0.984375 3.640625 -1 3.8125 -1.046875 C 3.8125 -1.046875 3.8125 0 3.8125 0 Z M 3.8125 0 "/>
</symbol>
<symbol overflow="visible" id="glyph2-11-a717e7ac">
<path style="stroke:none;" d="M 7.65625 -3.875 C 7.65625 -1.296875 6.296875 0.21875 4.09375 0.21875 C 1.859375 0.21875 0.546875 -1.296875 0.546875 -3.9375 C 0.546875 -6.5625 1.875 -8.078125 4.078125 -8.078125 C 6.34375 -8.078125 7.65625 -6.578125 7.65625 -3.875 Z M 6.34375 -3.890625 C 6.34375 -5.828125 5.5 -6.9375 4.09375 -6.9375 C 2.703125 -6.9375 1.84375 -5.8125 1.84375 -3.9375 C 1.84375 -2.03125 2.703125 -0.9375 4.09375 -0.9375 C 5.46875 -0.9375 6.34375 -2.046875 6.34375 -3.890625 Z M 6.34375 -3.890625 "/>
</symbol>
<symbol overflow="visible" id="glyph2-12-a717e7ac">
<path style="stroke:none;" d="M 3.875 -6.84375 C 3.875 -6.84375 2.5625 -6.84375 2.5625 -6.84375 C 2.5625 -6.84375 2.5625 0 2.5625 0 C 2.5625 0 1.3125 0 1.3125 0 C 1.3125 0 1.3125 -6.84375 1.3125 -6.84375 C 1.3125 -6.84375 0.265625 -6.84375 0.265625 -6.84375 C 0.265625 -6.84375 0.265625 -7.859375 0.265625 -7.859375 C 0.265625 -7.859375 1.3125 -7.859375 1.3125 -7.859375 C 1.3125 -7.859375 1.3125 -9.1875 1.3125 -9.1875 C 1.3125 -10.3125 2.015625 -10.984375 3.171875 -10.984375 C 3.421875 -10.984375 3.578125 -10.96875 3.875 -10.90625 C 3.875 -10.90625 3.875 -9.875 3.875 -9.875 C 3.578125 -9.890625 3.546875 -9.890625 3.4375 -9.890625 C 2.859375 -9.890625 2.5625 -9.609375 2.5625 -9.09375 C 2.5625 -9.09375 2.5625 -7.859375 2.5625 -7.859375 C 2.5625 -7.859375 3.875 -7.859375 3.875 -7.859375 C 3.875 -7.859375 3.875 -6.84375 3.875 -6.84375 Z M 3.875 -6.84375 "/>
</symbol>
<symbol overflow="visible" id="glyph2-13-a717e7ac">
<path style="stroke:none;" d="M 10.625 -7.859375 C 10.625 -7.859375 8.3125 0 8.3125 0 C 8.3125 0 6.890625 0 6.890625 0 C 6.890625 0 5.296875 -6.171875 5.296875 -6.171875 C 5.296875 -6.171875 3.78125 0 3.78125 0 C 3.78125 0 2.375 0 2.375 0 C 2.375 0 0.09375 -7.859375 0.09375 -7.859375 C 0.09375 -7.859375 1.46875 -7.859375 1.46875 -7.859375 C 1.46875 -7.859375 3.078125 -1.734375 3.078125 -1.734375 C 3.078125 -1.734375 4.578125 -7.859375 4.578125 -7.859375 C 4.578125 -7.859375 6.109375 -7.859375 6.109375 -7.859375 C 6.109375 -7.859375 7.65625 -1.734375 7.65625 -1.734375 C 7.65625 -1.734375 9.203125 -7.859375 9.203125 -7.859375 C 9.203125 -7.859375 10.625 -7.859375 10.625 -7.859375 Z M 10.625 -7.859375 "/>
</symbol>
<symbol overflow="visible" id="glyph2-14-a717e7ac">
<path style="stroke:none;" d="M 8.03125 -0.03125 C 7.625 0.078125 7.421875 0.109375 7.171875 0.109375 C 6.5625 0.109375 6.015625 -0.328125 5.875 -0.9375 C 5.1875 -0.1875 4.21875 0.21875 3.203125 0.21875 C 1.625 0.21875 0.625 -0.609375 0.625 -2.046875 C 0.625 -3 1.09375 -3.703125 2.015625 -4.078125 C 2.484375 -4.28125 2.765625 -4.328125 4.53125 -4.5625 C 5.515625 -4.6875 5.828125 -4.90625 5.828125 -5.4375 C 5.828125 -5.4375 5.828125 -5.765625 5.828125 -5.765625 C 5.828125 -6.515625 5.203125 -6.9375 4.078125 -6.9375 C 2.90625 -6.9375 2.34375 -6.5 2.234375 -5.53125 C 2.234375 -5.53125 0.96875 -5.53125 0.96875 -5.53125 C 1.046875 -7.34375 2.21875 -8.078125 4.125 -8.078125 C 6.0625 -8.078125 7.078125 -7.328125 7.078125 -5.9375 C 7.078125 -5.9375 7.078125 -1.5625 7.078125 -1.5625 C 7.078125 -1.171875 7.3125 -0.9375 7.75 -0.9375 C 7.828125 -0.9375 7.890625 -0.9375 8.03125 -0.96875 C 8.03125 -0.96875 8.03125 -0.03125 8.03125 -0.03125 Z M 5.828125 -2.71875 C 5.828125 -2.71875 5.828125 -3.890625 5.828125 -3.890625 C 5.421875 -3.6875 5.140625 -3.625 3.828125 -3.453125 C 2.484375 -3.25 1.9375 -2.890625 1.9375 -2.0625 C 1.9375 -1.21875 2.5 -0.875 3.484375 -0.875 C 4.6875 -0.875 5.828125 -1.59375 5.828125 -2.71875 Z M 5.828125 -2.71875 "/>
</symbol>
<symbol overflow="visible" id="glyph2-15-a717e7ac">
<path style="stroke:none;" d="M 7.296875 -7.859375 C 7.296875 -7.859375 4.28125 0 4.28125 0 C 4.28125 0 2.90625 0 2.90625 0 C 2.90625 0 0.15625 -7.859375 0.15625 -7.859375 C 0.15625 -7.859375 1.5625 -7.859375 1.5625 -7.859375 C 1.5625 -7.859375 3.65625 -1.484375 3.65625 -1.484375 C 3.65625 -1.484375 5.875 -7.859375 5.875 -7.859375 C 5.875 -7.859375 7.296875 -7.859375 7.296875 -7.859375 Z M 7.296875 -7.859375 "/>
</symbol>
<symbol overflow="visible" id="glyph2-16-a717e7ac">
<path style="stroke:none;" d="M 7.6875 -3.5625 C 7.6875 -3.5625 1.90625 -3.5625 1.90625 -3.5625 C 1.9375 -1.765625 2.90625 -0.9375 4.21875 -0.9375 C 5.21875 -0.9375 5.921875 -1.34375 6.265625 -2.390625 C 6.265625 -2.390625 7.53125 -2.390625 7.53125 -2.390625 C 7.21875 -0.796875 5.96875 0.21875 4.171875 0.21875 C 1.96875 0.21875 0.59375 -1.3125 0.59375 -3.890625 C 0.59375 -6.46875 2.015625 -8.078125 4.203125 -8.078125 C 5.671875 -8.078125 6.875 -7.3125 7.375 -6.015625 C 7.609375 -5.4375 7.6875 -4.703125 7.6875 -3.5625 Z M 6.359375 -4.6875 C 6.359375 -5.90625 5.421875 -6.9375 4.1875 -6.9375 C 2.921875 -6.9375 2.046875 -5.984375 1.9375 -4.59375 C 1.9375 -4.59375 6.34375 -4.59375 6.34375 -4.59375 C 6.359375 -4.625 6.359375 -4.6875 6.359375 -4.6875 Z M 6.359375 -4.6875 "/>
</symbol>
<symbol overflow="visible" id="glyph2-17-a717e7ac">
<path style="stroke:none;" d="M 7.3125 0 C 7.3125 0 6.0625 0 6.0625 0 C 6.0625 0 6.0625 -5.4375 6.0625 -5.4375 C 6.0625 -6.390625 5.4375 -6.984375 4.4375 -6.984375 C 3.171875 -6.984375 2.296875 -5.9375 2.296875 -4.328125 C 2.296875 -4.328125 2.296875 0 2.296875 0 C 2.296875 0 1.046875 0 1.046875 0 C 1.046875 0 1.046875 -7.859375 1.046875 -7.859375 C 1.046875 -7.859375 2.203125 -7.859375 2.203125 -7.859375 C 2.203125 -7.859375 2.203125 -6.546875 2.203125 -6.546875 C 2.890625 -7.640625 3.640625 -8.078125 4.8125 -8.078125 C 6.328125 -8.078125 7.3125 -7.25 7.3125 -5.9375 C 7.3125 -5.9375 7.3125 0 7.3125 0 Z M 7.3125 0 "/>
</symbol>
<symbol overflow="visible" id="glyph2-18-a717e7ac">
<path style="stroke:none;" d="M 7.84375 -4.015625 C 7.84375 -1.46875 6.5 0.21875 4.421875 0.21875 C 3.328125 0.21875 2.53125 -0.203125 1.9375 -1.125 C 1.9375 -1.125 1.9375 0 1.9375 0 C 1.9375 0 0.8125 0 0.8125 0 C 0.8125 0 0.8125 -10.9375 0.8125 -10.9375 C 0.8125 -10.9375 2.0625 -10.9375 2.0625 -10.9375 C 2.0625 -10.9375 2.0625 -6.796875 2.0625 -6.796875 C 2.640625 -7.6875 3.40625 -8.078125 4.484375 -8.078125 C 6.5625 -8.078125 7.84375 -6.5625 7.84375 -4.015625 Z M 6.546875 -3.9375 C 6.546875 -5.703125 5.640625 -6.921875 4.25 -6.921875 C 2.921875 -6.96875 2.0625 -5.78125 2.0625 -3.9375 C 2.0625 -2.140625 2.921875 -0.9375 4.25 -0.9375 C 5.609375 -0.9375 6.546875 -2.15625 6.546875 -3.9375 Z M 6.546875 -3.9375 "/>
</symbol>
<symbol overflow="visible" id="glyph2-19-a717e7ac">
<path style="stroke:none;" d="M 2.453125 3.1875 C 2.453125 3.1875 1.4375 3.1875 1.4375 3.1875 C 1.4375 3.1875 1.4375 -10.9375 1.4375 -10.9375 C 1.4375 -10.9375 2.453125 -10.9375 2.453125 -10.9375 C 2.453125 -10.9375 2.453125 3.1875 2.453125 3.1875 Z M 2.453125 3.1875 "/>
</symbol>
<symbol overflow="visible" id="glyph2-20-a717e7ac">
<path style="stroke:none;" d="M 4.265625 -10.9375 C 4.265625 -10.9375 0.703125 0.296875 0.703125 0.296875 C 0.703125 0.296875 -0.125 0.296875 -0.125 0.296875 C -0.125 0.296875 3.4375 -10.9375 3.4375 -10.9375 C 3.4375 -10.9375 4.265625 -10.9375 4.265625 -10.9375 Z M 4.265625 -10.9375 "/>
</symbol>
<symbol overflow="visible" id="glyph2-21-a717e7ac">
<path style="stroke:none;" d="M 4.359375 3.1875 C 4.359375 3.1875 3.546875 3.1875 3.546875 3.1875 C 2.046875 1.21875 1.09375 -1.515625 1.09375 -3.890625 C 1.09375 -6.234375 2.046875 -8.96875 3.546875 -10.9375 C 3.546875 -10.9375 4.359375 -10.9375 4.359375 -10.9375 C 3.046875 -8.8125 2.3125 -6.265625 2.3125 -3.890625 C 2.3125 -1.484375 3.046875 1.03125 4.359375 3.1875 Z M 4.359375 3.1875 "/>
</symbol>
<symbol overflow="visible" id="glyph2-22-a717e7ac">
<path style="stroke:none;" d="M 7.234375 0 C 7.234375 0 6.109375 0 6.109375 0 C 6.109375 0 6.109375 -1.21875 6.109375 -1.21875 C 5.375 -0.1875 4.640625 0.21875 3.484375 0.21875 C 1.953125 0.21875 0.96875 -0.609375 0.96875 -1.921875 C 0.96875 -1.921875 0.96875 -7.859375 0.96875 -7.859375 C 0.96875 -7.859375 2.21875 -7.859375 2.21875 -7.859375 C 2.21875 -7.859375 2.21875 -2.421875 2.21875 -2.421875 C 2.21875 -1.46875 2.84375 -0.875 3.84375 -0.875 C 5.140625 -0.875 5.984375 -1.921875 5.984375 -3.53125 C 5.984375 -3.53125 5.984375 -7.859375 5.984375 -7.859375 C 5.984375 -7.859375 7.234375 -7.859375 7.234375 -7.859375 C 7.234375 -7.859375 7.234375 0 7.234375 0 Z M 7.234375 0 "/>
</symbol>
<symbol overflow="visible" id="glyph2-23-a717e7ac">
<path style="stroke:none;" d="M 3.84375 -3.875 C 3.84375 -1.515625 2.890625 1.21875 1.390625 3.1875 C 1.390625 3.1875 0.5625 3.1875 0.5625 3.1875 C 1.890625 1.046875 2.625 -1.484375 2.625 -3.875 C 2.625 -6.265625 1.890625 -8.796875 0.5625 -10.9375 C 0.5625 -10.9375 1.390625 -10.9375 1.390625 -10.9375 C 2.890625 -8.96875 3.84375 -6.234375 3.84375 -3.875 Z M 3.84375 -3.875 "/>
</symbol>
<symbol overflow="visible" id="glyph2-24-a717e7ac">
<path style="stroke:none;" d="M 4.8125 -6.765625 C 2.875 -6.734375 2.296875 -5.84375 2.296875 -4.078125 C 2.296875 -4.078125 2.296875 0 2.296875 0 C 2.296875 0 1.046875 0 1.046875 0 C 1.046875 0 1.046875 -7.859375 1.046875 -7.859375 C 1.046875 -7.859375 2.1875 -7.859375 2.1875 -7.859375 C 2.1875 -7.859375 2.1875 -6.4375 2.1875 -6.4375 C 2.90625 -7.609375 3.53125 -8.078125 4.328125 -8.078125 C 4.5 -8.078125 4.609375 -8.0625 4.8125 -8.046875 C 4.8125 -8.046875 4.8125 -6.765625 4.8125 -6.765625 Z M 4.8125 -6.765625 "/>
</symbol>
<symbol overflow="visible" id="glyph3-0-a717e7ac">
<path style="stroke:none;" d="M 0.296875 -10.9375 C 0.296875 -10.9375 0.296875 0 0.296875 0 C 0.296875 0 7.046875 0 7.046875 0 C 7.046875 0 7.046875 -10.9375 7.046875 -10.9375 C 7.046875 -10.9375 0.296875 -10.9375 0.296875 -10.9375 Z M 1.078125 -0.78125 C 1.078125 -0.78125 1.078125 -10.15625 1.078125 -10.15625 C 1.078125 -10.15625 6.265625 -10.15625 6.265625 -10.15625 C 6.265625 -10.15625 6.265625 -0.78125 6.265625 -0.78125 C 6.265625 -0.78125 1.078125 -0.78125 1.078125 -0.78125 Z M 1.078125 -0.78125 "/>
</symbol>
<symbol overflow="visible" id="glyph3-1-a717e7ac">
<path style="stroke:none;" d="M 4.265625 -10.9375 C 4.265625 -10.9375 0.703125 0.296875 0.703125 0.296875 C 0.703125 0.296875 -0.125 0.296875 -0.125 0.296875 C -0.125 0.296875 3.4375 -10.9375 3.4375 -10.9375 C 3.4375 -10.9375 4.265625 -10.9375 4.265625 -10.9375 Z M 4.265625 -10.9375 "/>
</symbol>
<symbol overflow="visible" id="glyph3-2-a717e7ac">
<path style="stroke:none;" d="M 2.859375 0 C 2.859375 0 1.3125 0 1.3125 0 C 1.3125 0 1.3125 -1.5625 1.3125 -1.5625 C 1.3125 -1.5625 2.859375 -1.5625 2.859375 -1.5625 C 2.859375 -1.5625 2.859375 0 2.859375 0 Z M 2.859375 0 "/>
</symbol>
<symbol overflow="visible" id="glyph3-3-a717e7ac">
<path style="stroke:none;" d="M 7.6875 -3 C 7.6875 -1.0625 6.21875 0.21875 4.125 0.21875 C 2.03125 0.21875 0.5625 -1.0625 0.5625 -3.015625 C 0.5625 -4.1875 1.15625 -5.015625 2.375 -5.59375 C 1.296875 -6.265625 0.9375 -6.8125 0.9375 -7.796875 C 0.9375 -9.46875 2.25 -10.640625 4.125 -10.640625 C 6.015625 -10.640625 7.3125 -9.46875 7.3125 -7.796875 C 7.3125 -6.796875 6.953125 -6.25 5.859375 -5.59375 C 7.09375 -5.015625 7.6875 -4.1875 7.6875 -3 Z M 5.96875 -7.765625 C 5.96875 -8.8125 5.25 -9.46875 4.125 -9.46875 C 3.015625 -9.46875 2.28125 -8.8125 2.28125 -7.78125 C 2.28125 -6.78125 3.015625 -6.125 4.125 -6.125 C 5.234375 -6.125 5.96875 -6.78125 5.96875 -7.765625 Z M 6.34375 -2.984375 C 6.34375 -4.234375 5.4375 -5.015625 4.125 -5.015625 C 2.8125 -5.015625 1.90625 -4.234375 1.90625 -2.984375 C 1.90625 -1.734375 2.8125 -0.9375 4.09375 -0.9375 C 5.4375 -0.9375 6.34375 -1.71875 6.34375 -2.984375 Z M 6.34375 -2.984375 "/>
</symbol>
<symbol overflow="visible" id="glyph3-4-a717e7ac">
<path style="stroke:none;" d="M 7.421875 0 C 7.421875 0 6.3125 0 6.3125 0 C 6.3125 0 6.3125 -1.15625 6.3125 -1.15625 C 5.640625 -0.1875 4.890625 0.21875 3.8125 0.21875 C 1.6875 0.21875 0.390625 -1.34375 0.390625 -4 C 0.390625 -6.515625 1.71875 -8.078125 3.765625 -8.078125 C 4.8125 -8.078125 5.65625 -7.671875 6.1875 -6.875 C 6.1875 -6.875 6.1875 -10.9375 6.1875 -10.9375 C 6.1875 -10.9375 7.421875 -10.9375 7.421875 -10.9375 C 7.421875 -10.9375 7.421875 0 7.421875 0 Z M 6.1875 -3.90625 C 6.1875 -5.71875 5.328125 -6.921875 3.96875 -6.921875 C 2.609375 -6.921875 1.6875 -5.765625 1.6875 -3.9375 C 1.6875 -2.09375 2.609375 -0.9375 3.984375 -0.9375 C 5.3125 -0.9375 6.1875 -2.078125 6.1875 -3.90625 Z M 6.1875 -3.90625 "/>
</symbol>
<symbol overflow="visible" id="glyph3-5-a717e7ac">
<path style="stroke:none;" d=""/>
</symbol>
<symbol overflow="visible" id="glyph3-6-a717e7ac">
<path style="stroke:none;" d="M 7.734375 -4.609375 C 7.734375 -4.609375 1.015625 -4.609375 1.015625 -4.609375 C 1.015625 -4.609375 1.015625 -5.625 1.015625 -5.625 C 1.015625 -5.625 7.734375 -5.625 7.734375 -5.625 C 7.734375 -5.625 7.734375 -4.609375 7.734375 -4.609375 Z M 7.734375 -1.875 C 7.734375 -1.875 1.015625 -1.875 1.015625 -1.875 C 1.015625 -1.875 1.015625 -2.890625 1.015625 -2.890625 C 1.015625 -2.890625 7.734375 -2.890625 7.734375 -2.890625 C 7.734375 -2.890625 7.734375 -1.875 7.734375 -1.875 Z M 7.734375 -1.875 "/>
</symbol>
<symbol overflow="visible" id="glyph3-7-a717e7ac">
<path style="stroke:none;" d="M 7.671875 -7.515625 C 7.671875 -6.203125 6.90625 -5.09375 5.421875 -4.3125 C 5.421875 -4.3125 3.921875 -3.5 3.921875 -3.5 C 2.609375 -2.734375 2.125 -2.171875 2 -1.3125 C 2 -1.3125 7.59375 -1.3125 7.59375 -1.3125 C 7.59375 -1.3125 7.59375 0 7.59375 0 C 7.59375 0 0.515625 0 0.515625 0 C 0.625 -2.34375 1.28125 -3.34375 3.5 -4.609375 C 3.5 -4.609375 4.875 -5.390625 4.875 -5.390625 C 5.8125 -5.921875 6.3125 -6.640625 6.3125 -7.484375 C 6.3125 -8.625 5.421875 -9.484375 4.21875 -9.484375 C 2.90625 -9.484375 2.171875 -8.734375 2.0625 -6.9375 C 2.0625 -6.9375 0.75 -6.9375 0.75 -6.9375 C 0.828125 -9.53125 2.078125 -10.640625 4.265625 -10.640625 C 6.265625 -10.640625 7.671875 -9.3125 7.671875 -7.515625 Z M 7.671875 -7.515625 "/>
</symbol>
<symbol overflow="visible" id="glyph3-8-a717e7ac">
<path style="stroke:none;" d="M 8.03125 -0.03125 C 7.625 0.078125 7.421875 0.109375 7.171875 0.109375 C 6.5625 0.109375 6.015625 -0.328125 5.875 -0.9375 C 5.1875 -0.1875 4.21875 0.21875 3.203125 0.21875 C 1.625 0.21875 0.625 -0.609375 0.625 -2.046875 C 0.625 -3 1.09375 -3.703125 2.015625 -4.078125 C 2.484375 -4.28125 2.765625 -4.328125 4.53125 -4.5625 C 5.515625 -4.6875 5.828125 -4.90625 5.828125 -5.4375 C 5.828125 -5.4375 5.828125 -5.765625 5.828125 -5.765625 C 5.828125 -6.515625 5.203125 -6.9375 4.078125 -6.9375 C 2.90625 -6.9375 2.34375 -6.5 2.234375 -5.53125 C 2.234375 -5.53125 0.96875 -5.53125 0.96875 -5.53125 C 1.046875 -7.34375 2.21875 -8.078125 4.125 -8.078125 C 6.0625 -8.078125 7.078125 -7.328125 7.078125 -5.9375 C 7.078125 -5.9375 7.078125 -1.5625 7.078125 -1.5625 C 7.078125 -1.171875 7.3125 -0.9375 7.75 -0.9375 C 7.828125 -0.9375 7.890625 -0.9375 8.03125 -0.96875 C 8.03125 -0.96875 8.03125 -0.03125 8.03125 -0.03125 Z M 5.828125 -2.71875 C 5.828125 -2.71875 5.828125 -3.890625 5.828125 -3.890625 C 5.421875 -3.6875 5.140625 -3.625 3.828125 -3.453125 C 2.484375 -3.25 1.9375 -2.890625 1.9375 -2.0625 C 1.9375 -1.21875 2.5 -0.875 3.484375 -0.875 C 4.6875 -0.875 5.828125 -1.59375 5.828125 -2.71875 Z M 5.828125 -2.71875 "/>
</symbol>
<symbol overflow="visible" id="glyph3-9-a717e7ac">
<path style="stroke:none;" d="M 3.8125 0 C 3.390625 0.078125 3.09375 0.109375 2.796875 0.109375 C 1.8125 0.109375 1.28125 -0.34375 1.28125 -1.140625 C 1.28125 -1.140625 1.28125 -6.84375 1.28125 -6.84375 C 1.28125 -6.84375 0.203125 -6.84375 0.203125 -6.84375 C 0.203125 -6.84375 0.203125 -7.859375 0.203125 -7.859375 C 0.203125 -7.859375 1.28125 -7.859375 1.28125 -7.859375 C 1.28125 -7.859375 1.28125 -10.015625 1.28125 -10.015625 C 1.28125 -10.015625 2.515625 -10.015625 2.515625 -10.015625 C 2.515625 -10.015625 2.515625 -7.859375 2.515625 -7.859375 C 2.515625 -7.859375 3.8125 -7.859375 3.8125 -7.859375 C 3.8125 -7.859375 3.8125 -6.84375 3.8125 -6.84375 C 3.8125 -6.84375 2.515625 -6.84375 2.515625 -6.84375 C 2.515625 -6.84375 2.515625 -1.6875 2.515625 -1.6875 C 2.515625 -1.140625 2.671875 -0.984375 3.203125 -0.984375 C 3.453125 -0.984375 3.640625 -1 3.8125 -1.046875 C 3.8125 -1.046875 3.8125 0 3.8125 0 Z M 3.8125 0 "/>
</symbol>
<symbol overflow="visible" id="glyph4-0-a717e7ac">
<path style="stroke:none;" d="M 0.296875 -10.9375 C 0.296875 -10.9375 0.296875 0 0.296875 0 C 0.296875 0 7.046875 0 7.046875 0 C 7.046875 0 7.046875 -10.9375 7.046875 -10.9375 C 7.046875 -10.9375 0.296875 -10.9375 0.296875 -10.9375 Z M 1.078125 -0.78125 C 1.078125 -0.78125 1.078125 -10.15625 1.078125 -10.15625 C 1.078125 -10.15625 6.265625 -10.15625 6.265625 -10.15625 C 6.265625 -10.15625 6.265625 -0.78125 6.265625 -0.78125 C 6.265625 -0.78125 1.078125 -0.78125 1.078125 -0.78125 Z M 1.078125 -0.78125 "/>
</symbol>
<symbol overflow="visible" id="glyph4-1-a717e7ac">
<path style="stroke:none;" d="M 7.609375 -5.109375 C 7.609375 -1.625 6.375 0.21875 4.125 0.21875 C 1.84375 0.21875 0.640625 -1.625 0.640625 -5.203125 C 0.640625 -8.78125 1.828125 -10.640625 4.125 -10.640625 C 6.4375 -10.640625 7.609375 -8.8125 7.609375 -5.109375 Z M 6.25 -5.234375 C 6.25 -8.078125 5.546875 -9.46875 4.125 -9.46875 C 2.703125 -9.46875 2 -8.09375 2 -5.1875 C 2 -2.28125 2.703125 -0.875 4.09375 -0.875 C 5.5625 -0.875 6.25 -2.21875 6.25 -5.234375 Z M 6.25 -5.234375 "/>
</symbol>
<symbol overflow="visible" id="glyph4-2-a717e7ac">
<path style="stroke:none;" d="M 7.15625 -2.703125 C 7 -0.90625 5.8125 0.21875 3.9375 0.21875 C 1.8125 0.21875 0.46875 -1.3125 0.46875 -3.859375 C 0.46875 -6.46875 1.84375 -8.078125 3.953125 -8.078125 C 5.71875 -8.078125 6.921875 -7.140625 7.0625 -5.21875 C 7.0625 -5.21875 5.8125 -5.21875 5.8125 -5.21875 C 5.65625 -6.3125 5 -6.9375 3.9375 -6.9375 C 2.578125 -6.9375 1.765625 -5.8125 1.765625 -3.859375 C 1.765625 -2 2.59375 -0.9375 3.96875 -0.9375 C 5.046875 -0.9375 5.6875 -1.4375 5.890625 -2.703125 C 5.890625 -2.703125 7.15625 -2.703125 7.15625 -2.703125 Z M 7.15625 -2.703125 "/>
</symbol>
<symbol overflow="visible" id="glyph4-3-a717e7ac">
<path style="stroke:none;" d="M 7.65625 -3.875 C 7.65625 -1.296875 6.296875 0.21875 4.09375 0.21875 C 1.859375 0.21875 0.546875 -1.296875 0.546875 -3.9375 C 0.546875 -6.5625 1.875 -8.078125 4.078125 -8.078125 C 6.34375 -8.078125 7.65625 -6.578125 7.65625 -3.875 Z M 6.34375 -3.890625 C 6.34375 -5.828125 5.5 -6.9375 4.09375 -6.9375 C 2.703125 -6.9375 1.84375 -5.8125 1.84375 -3.9375 C 1.84375 -2.03125 2.703125 -0.9375 4.09375 -0.9375 C 5.46875 -0.9375 6.34375 -2.046875 6.34375 -3.890625 Z M 6.34375 -3.890625 "/>
</symbol>
<symbol overflow="visible" id="glyph5-0-a717e7ac">
<path style="stroke:none;" d="M 0.296875 -10.9375 C 0.296875 -10.9375 0.296875 0 0.296875 0 C 0.296875 0 7.046875 0 7.046875 0 C 7.046875 0 7.046875 -10.9375 7.046875 -10.9375 C 7.046875 -10.9375 0.296875 -10.9375 0.296875 -10.9375 Z M 1.078125 -0.78125 C 1.078125 -0.78125 1.078125 -10.15625 1.078125 -10.15625 C 1.078125 -10.15625 6.265625 -10.15625 6.265625 -10.15625 C 6.265625 -10.15625 6.265625 -0.78125 6.265625 -0.78125 C 6.265625 -0.78125 1.078125 -0.78125 1.078125 -0.78125 Z M 1.078125 -0.78125 "/>
</symbol>
<symbol overflow="visible" id="glyph5-1-a717e7ac">
<path style="stroke:none;" d="M 2.859375 0 C 2.859375 0 1.3125 0 1.3125 0 C 1.3125 0 1.3125 -1.5625 1.3125 -1.5625 C 1.3125 -1.5625 2.859375 -1.5625 2.859375 -1.5625 C 2.859375 -1.5625 2.859375 0 2.859375 0 Z M 2.859375 0 "/>
</symbol>
<symbol overflow="visible" id="glyph6-0-a717e7ac">
<path style="stroke:none;" d="M -10.9375 -0.296875 C -10.9375 -0.296875 0 -0.296875 0 -0.296875 C 0 -0.296875 0 -7.046875 0 -7.046875 C 0 -7.046875 -10.9375 -7.046875 -10.9375 -7.046875 C -10.9375 -7.046875 -10.9375 -0.296875 -10.9375 -0.296875 Z M -0.78125 -1.078125 C -0.78125 -1.078125 -10.15625 -1.078125 -10.15625 -1.078125 C -10.15625 -1.078125 -10.15625 -6.265625 -10.15625 -6.265625 C -10.15625 -6.265625 -0.78125 -6.265625 -0.78125 -6.265625 C -0.78125 -6.265625 -0.78125 -1.078125 -0.78125 -1.078125 Z M -0.78125 -1.078125 "/>
</symbol>
<symbol overflow="visible" id="glyph6-1-a717e7ac">
<path style="stroke:none;" d="M -6.84375 -3.875 C -6.84375 -3.875 -6.84375 -2.5625 -6.84375 -2.5625 C -6.84375 -2.5625 0 -2.5625 0 -2.5625 C 0 -2.5625 0 -1.3125 0 -1.3125 C 0 -1.3125 -6.84375 -1.3125 -6.84375 -1.3125 C -6.84375 -1.3125 -6.84375 -0.265625 -6.84375 -0.265625 C -6.84375 -0.265625 -7.859375 -0.265625 -7.859375 -0.265625 C -7.859375 -0.265625 -7.859375 -1.3125 -7.859375 -1.3125 C -7.859375 -1.3125 -9.1875 -1.3125 -9.1875 -1.3125 C -10.3125 -1.3125 -10.984375 -2.015625 -10.984375 -3.171875 C -10.984375 -3.421875 -10.96875 -3.578125 -10.90625 -3.875 C -10.90625 -3.875 -9.875 -3.875 -9.875 -3.875 C -9.890625 -3.578125 -9.890625 -3.546875 -9.890625 -3.4375 C -9.890625 -2.859375 -9.609375 -2.5625 -9.09375 -2.5625 C -9.09375 -2.5625 -7.859375 -2.5625 -7.859375 -2.5625 C -7.859375 -2.5625 -7.859375 -3.875 -7.859375 -3.875 C -7.859375 -3.875 -6.84375 -3.875 -6.84375 -3.875 Z M -6.84375 -3.875 "/>
</symbol>
<symbol overflow="visible" id="glyph6-2-a717e7ac">
<path style="stroke:none;" d="M 0 -2.296875 C 0 -2.296875 0 -1.046875 0 -1.046875 C 0 -1.046875 -7.859375 -1.046875 -7.859375 -1.046875 C -7.859375 -1.046875 -7.859375 -2.296875 -7.859375 -2.296875 C -7.859375 -2.296875 0 -2.296875 0 -2.296875 Z M -9.046875 -2.453125 C -9.046875 -2.453125 -9.046875 -0.90625 -9.046875 -0.90625 C -9.046875 -0.90625 -10.609375 -0.90625 -10.609375 -0.90625 C -10.609375 -0.90625 -10.609375 -2.453125 -10.609375 -2.453125 C -10.609375 -2.453125 -9.046875 -2.453125 -9.046875 -2.453125 Z M -9.046875 -2.453125 "/>
</symbol>
<symbol overflow="visible" id="glyph6-3-a717e7ac">
<path style="stroke:none;" d="M 0 -2.265625 C 0 -2.265625 0 -1.015625 0 -1.015625 C 0 -1.015625 -10.9375 -1.015625 -10.9375 -1.015625 C -10.9375 -1.015625 -10.9375 -2.265625 -10.9375 -2.265625 C -10.9375 -2.265625 0 -2.265625 0 -2.265625 Z M 0 -2.265625 "/>
</symbol>
<symbol overflow="visible" id="glyph6-4-a717e7ac">
<path style="stroke:none;" d="M 0 -3.8125 C 0.078125 -3.390625 0.109375 -3.09375 0.109375 -2.796875 C 0.109375 -1.8125 -0.34375 -1.28125 -1.140625 -1.28125 C -1.140625 -1.28125 -6.84375 -1.28125 -6.84375 -1.28125 C -6.84375 -1.28125 -6.84375 -0.203125 -6.84375 -0.203125 C -6.84375 -0.203125 -7.859375 -0.203125 -7.859375 -0.203125 C -7.859375 -0.203125 -7.859375 -1.28125 -7.859375 -1.28125 C -7.859375 -1.28125 -10.015625 -1.28125 -10.015625 -1.28125 C -10.015625 -1.28125 -10.015625 -2.515625 -10.015625 -2.515625 C -10.015625 -2.515625 -7.859375 -2.515625 -7.859375 -2.515625 C -7.859375 -2.515625 -7.859375 -3.8125 -7.859375 -3.8125 C -7.859375 -3.8125 -6.84375 -3.8125 -6.84375 -3.8125 C -6.84375 -3.8125 -6.84375 -2.515625 -6.84375 -2.515625 C -6.84375 -2.515625 -1.6875 -2.515625 -1.6875 -2.515625 C -1.140625 -2.515625 -0.984375 -2.671875 -0.984375 -3.203125 C -0.984375 -3.453125 -1 -3.640625 -1.046875 -3.8125 C -1.046875 -3.8125 0 -3.8125 0 -3.8125 Z M 0 -3.8125 "/>
</symbol>
<symbol overflow="visible" id="glyph6-5-a717e7ac">
<path style="stroke:none;" d="M -3.5625 -7.6875 C -3.5625 -7.6875 -3.5625 -1.90625 -3.5625 -1.90625 C -1.765625 -1.9375 -0.9375 -2.90625 -0.9375 -4.21875 C -0.9375 -5.21875 -1.34375 -5.921875 -2.390625 -6.265625 C -2.390625 -6.265625 -2.390625 -7.53125 -2.390625 -7.53125 C -0.796875 -7.21875 0.21875 -5.96875 0.21875 -4.171875 C 0.21875 -1.96875 -1.3125 -0.59375 -3.890625 -0.59375 C -6.46875 -0.59375 -8.078125 -2.015625 -8.078125 -4.203125 C -8.078125 -5.671875 -7.3125 -6.875 -6.015625 -7.375 C -5.4375 -7.609375 -4.703125 -7.6875 -3.5625 -7.6875 Z M -4.6875 -6.359375 C -5.90625 -6.359375 -6.9375 -5.421875 -6.9375 -4.1875 C -6.9375 -2.921875 -5.984375 -2.046875 -4.59375 -1.9375 C -4.59375 -1.9375 -4.59375 -6.34375 -4.59375 -6.34375 C -4.625 -6.359375 -4.6875 -6.359375 -4.6875 -6.359375 Z M -4.6875 -6.359375 "/>
</symbol>
<symbol overflow="visible" id="glyph6-6-a717e7ac">
<path style="stroke:none;" d="M -6.765625 -4.8125 C -6.734375 -2.875 -5.84375 -2.296875 -4.078125 -2.296875 C -4.078125 -2.296875 0 -2.296875 0 -2.296875 C 0 -2.296875 0 -1.046875 0 -1.046875 C 0 -1.046875 -7.859375 -1.046875 -7.859375 -1.046875 C -7.859375 -1.046875 -7.859375 -2.1875 -7.859375 -2.1875 C -7.859375 -2.1875 -6.4375 -2.1875 -6.4375 -2.1875 C -7.609375 -2.90625 -8.078125 -3.53125 -8.078125 -4.328125 C -8.078125 -4.5 -8.0625 -4.609375 -8.046875 -4.8125 C -8.046875 -4.8125 -6.765625 -4.8125 -6.765625 -4.8125 Z M -6.765625 -4.8125 "/>
</symbol>
<symbol overflow="visible" id="glyph7-0-a717e7ac">
<path style="stroke:none;" d="M 0.296875 -10.9375 C 0.296875 -10.9375 0.296875 0 0.296875 0 C 0.296875 0 7.046875 0 7.046875 0 C 7.046875 0 7.046875 -10.9375 7.046875 -10.9375 C 7.046875 -10.9375 0.296875 -10.9375 0.296875 -10.9375 Z M 1.078125 -0.78125 C 1.078125 -0.78125 1.078125 -10.15625 1.078125 -10.15625 C 1.078125 -10.15625 6.265625 -10.15625 6.265625 -10.15625 C 6.265625 -10.15625 6.265625 -0.78125 6.265625 -0.78125 C 6.265625 -0.78125 1.078125 -0.78125 1.078125 -0.78125 Z M 1.078125 -0.78125 "/>
</symbol>
<symbol overflow="visible" id="glyph7-1-a717e7ac">
<path style="stroke:none;" d="M 7.609375 -5.109375 C 7.609375 -1.625 6.375 0.21875 4.125 0.21875 C 1.84375 0.21875 0.640625 -1.625 0.640625 -5.203125 C 0.640625 -8.78125 1.828125 -10.640625 4.125 -10.640625 C 6.4375 -10.640625 7.609375 -8.8125 7.609375 -5.109375 Z M 6.25 -5.234375 C 6.25 -8.078125 5.546875 -9.46875 4.125 -9.46875 C 2.703125 -9.46875 2 -8.09375 2 -5.1875 C 2 -2.28125 2.703125 -0.875 4.09375 -0.875 C 5.5625 -0.875 6.25 -2.21875 6.25 -5.234375 Z M 6.25 -5.234375 "/>
</symbol>
<symbol overflow="visible" id="glyph8-0-a717e7ac">
<path style="stroke:none;" d="M 0.296875 -10.9375 C 0.296875 -10.9375 0.296875 0 0.296875 0 C 0.296875 0 7.046875 0 7.046875 0 C 7.046875 0 7.046875 -10.9375 7.046875 -10.9375 C 7.046875 -10.9375 0.296875 -10.9375 0.296875 -10.9375 Z M 1.078125 -0.78125 C 1.078125 -0.78125 1.078125 -10.15625 1.078125 -10.15625 C 1.078125 -10.15625 6.265625 -10.15625 6.265625 -10.15625 C 6.265625 -10.15625 6.265625 -0.78125 6.265625 -0.78125 C 6.265625 -0.78125 1.078125 -0.78125 1.078125 -0.78125 Z M 1.078125 -0.78125 "/>
</symbol>
<symbol overflow="visible" id="glyph8-1-a717e7ac">
<path style="stroke:none;" d="M 7.609375 -5.109375 C 7.609375 -1.625 6.375 0.21875 4.125 0.21875 C 1.84375 0.21875 0.640625 -1.625 0.640625 -5.203125 C 0.640625 -8.78125 1.828125 -10.640625 4.125 -10.640625 C 6.4375 -10.640625 7.609375 -8.8125 7.609375 -5.109375 Z M 6.25 -5.234375 C 6.25 -8.078125 5.546875 -9.46875 4.125 -9.46875 C 2.703125 -9.46875 2 -8.09375 2 -5.1875 C 2 -2.28125 2.703125 -0.875 4.09375 -0.875 C 5.5625 -0.875 6.25 -2.21875 6.25 -5.234375 Z M 6.25 -5.234375 "/>
</symbol>
<symbol overflow="visible" id="glyph8-2-a717e7ac">
<path style="stroke:none;" d="M 2.859375 0 C 2.859375 0 1.3125 0 1.3125 0 C 1.3125 0 1.3125 -1.5625 1.3125 -1.5625 C 1.3125 -1.5625 2.859375 -1.5625 2.859375 -1.5625 C 2.859375 -1.5625 2.859375 0 2.859375 0 Z M 2.859375 0 "/>
</symbol>
<symbol overflow="visible" id="glyph8-3-a717e7ac">
<path style="stroke:none;" d="M 4.8125 -6.765625 C 2.875 -6.734375 2.296875 -5.84375 2.296875 -4.078125 C 2.296875 -4.078125 2.296875 0 2.296875 0 C 2.296875 0 1.046875 0 1.046875 0 C 1.046875 0 1.046875 -7.859375 1.046875 -7.859375 C 1.046875 -7.859375 2.1875 -7.859375 2.1875 -7.859375 C 2.1875 -7.859375 2.1875 -6.4375 2.1875 -6.4375 C 2.90625 -7.609375 3.53125 -8.078125 4.328125 -8.078125 C 4.5 -8.078125 4.609375 -8.0625 4.8125 -8.046875 C 4.8125 -8.046875 4.8125 -6.765625 4.8125 -6.765625 Z M 4.8125 -6.765625 "/>
</symbol>
<symbol overflow="visible" id="glyph8-4-a717e7ac">
<path style="stroke:none;" d="M 7.421875 0 C 7.421875 0 6.3125 0 6.3125 0 C 6.3125 0 6.3125 -1.15625 6.3125 -1.15625 C 5.640625 -0.1875 4.890625 0.21875 3.8125 0.21875 C 1.6875 0.21875 0.390625 -1.34375 0.390625 -4 C 0.390625 -6.515625 1.71875 -8.078125 3.765625 -8.078125 C 4.8125 -8.078125 5.65625 -7.671875 6.1875 -6.875 C 6.1875 -6.875 6.1875 -10.9375 6.1875 -10.9375 C 6.1875 -10.9375 7.421875 -10.9375 7.421875 -10.9375 C 7.421875 -10.9375 7.421875 0 7.421875 0 Z M 6.1875 -3.90625 C 6.1875 -5.71875 5.328125 -6.921875 3.96875 -6.921875 C 2.609375 -6.921875 1.6875 -5.765625 1.6875 -3.9375 C 1.6875 -2.09375 2.609375 -0.9375 3.984375 -0.9375 C 5.3125 -0.9375 6.1875 -2.078125 6.1875 -3.90625 Z M 6.1875 -3.90625 "/>
</symbol>
<symbol overflow="visible" id="glyph8-5-a717e7ac">
<path style="stroke:none;" d="M 7.6875 -3.5625 C 7.6875 -3.5625 1.90625 -3.5625 1.90625 -3.5625 C 1.9375 -1.765625 2.90625 -0.9375 4.21875 -0.9375 C 5.21875 -0.9375 5.921875 -1.34375 6.265625 -2.390625 C 6.265625 -2.390625 7.53125 -2.390625 7.53125 -2.390625 C 7.21875 -0.796875 5.96875 0.21875 4.171875 0.21875 C 1.96875 0.21875 0.59375 -1.3125 0.59375 -3.890625 C 0.59375 -6.46875 2.015625 -8.078125 4.203125 -8.078125 C 5.671875 -8.078125 6.875 -7.3125 7.375 -6.015625 C 7.609375 -5.4375 7.6875 -4.703125 7.6875 -3.5625 Z M 6.359375 -4.6875 C 6.359375 -5.90625 5.421875 -6.9375 4.1875 -6.9375 C 2.921875 -6.9375 2.046875 -5.984375 1.9375 -4.59375 C 1.9375 -4.59375 6.34375 -4.59375 6.34375 -4.59375 C 6.359375 -4.625 6.359375 -4.6875 6.359375 -4.6875 Z M 6.359375 -4.6875 "/>
</symbol>
<symbol overflow="visible" id="glyph8-6-a717e7ac">
<path style="stroke:none;" d=""/>
</symbol>
<symbol overflow="visible" id="glyph9-0-a717e7ac">
<path style="stroke:none;" d="M 0.296875 -10.9375 C 0.296875 -10.9375 0.296875 0 0.296875 0 C 0.296875 0 7.046875 0 7.046875 0 C 7.046875 0 7.046875 -10.9375 7.046875 -10.9375 C 7.046875 -10.9375 0.296875 -10.9375 0.296875 -10.9375 Z M 1.078125 -0.78125 C 1.078125 -0.78125 1.078125 -10.15625 1.078125 -10.15625 C 1.078125 -10.15625 6.265625 -10.15625 6.265625 -10.15625 C 6.265625 -10.15625 6.265625 -0.78125 6.265625 -0.78125 C 6.265625 -0.78125 1.078125 -0.78125 1.078125 -0.78125 Z M 1.078125 -0.78125 "/>
</symbol>
<symbol overflow="visible" id="glyph9-1-a717e7ac">
<path style="stroke:none;" d="M 7.6875 -3.53125 C 7.6875 -1.28125 6.1875 0.21875 4.046875 0.21875 C 2.15625 0.21875 0.953125 -0.609375 0.53125 -2.734375 C 0.53125 -2.734375 1.84375 -2.734375 1.84375 -2.734375 C 2.15625 -1.53125 2.859375 -0.9375 4.015625 -0.9375 C 5.453125 -0.9375 6.34375 -1.8125 6.34375 -3.34375 C 6.34375 -4.921875 5.4375 -5.828125 4.015625 -5.828125 C 3.1875 -5.828125 2.6875 -5.578125 2.0625 -4.84375 C 2.0625 -4.84375 0.859375 -4.84375 0.859375 -4.84375 C 0.859375 -4.84375 1.65625 -10.40625 1.65625 -10.40625 C 1.65625 -10.40625 7.140625 -10.40625 7.140625 -10.40625 C 7.140625 -10.40625 7.140625 -9.109375 7.140625 -9.109375 C 7.140625 -9.109375 2.71875 -9.109375 2.71875 -9.109375 C 2.71875 -9.109375 2.296875 -6.359375 2.296875 -6.359375 C 2.90625 -6.8125 3.515625 -7 4.265625 -7 C 6.296875 -7 7.6875 -5.625 7.6875 -3.53125 Z M 7.6875 -3.53125 "/>
</symbol>
<symbol overflow="visible" id="glyph10-0-a717e7ac">
<path style="stroke:none;" d="M 0.296875 -10.9375 C 0.296875 -10.9375 0.296875 0 0.296875 0 C 0.296875 0 7.046875 0 7.046875 0 C 7.046875 0 7.046875 -10.9375 7.046875 -10.9375 C 7.046875 -10.9375 0.296875 -10.9375 0.296875 -10.9375 Z M 1.078125 -0.78125 C 1.078125 -0.78125 1.078125 -10.15625 1.078125 -10.15625 C 1.078125 -10.15625 6.265625 -10.15625 6.265625 -10.15625 C 6.265625 -10.15625 6.265625 -0.78125 6.265625 -0.78125 C 6.265625 -0.78125 1.078125 -0.78125 1.078125 -0.78125 Z M 1.078125 -0.78125 "/>
</symbol>
<symbol overflow="visible" id="glyph10-1-a717e7ac">
<path style="stroke:none;" d="M 5.203125 0 C 5.203125 0 3.890625 0 3.890625 0 C 3.890625 0 3.890625 -7.578125 3.890625 -7.578125 C 3.890625 -7.578125 1.53125 -7.578125 1.53125 -7.578125 C 1.53125 -7.578125 1.53125 -8.515625 1.53125 -8.515625 C 3.5625 -8.78125 3.875 -9 4.328125 -10.640625 C 4.328125 -10.640625 5.203125 -10.640625 5.203125 -10.640625 C 5.203125 -10.640625 5.203125 0 5.203125 0 Z M 5.203125 0 "/>
</symbol>
<symbol overflow="visible" id="glyph10-2-a717e7ac">
<path style="stroke:none;" d="M 2.859375 0 C 2.859375 0 1.3125 0 1.3125 0 C 1.3125 0 1.3125 -1.5625 1.3125 -1.5625 C 1.3125 -1.5625 2.859375 -1.5625 2.859375 -1.5625 C 2.859375 -1.5625 2.859375 0 2.859375 0 Z M 2.859375 0 "/>
</symbol>
<symbol overflow="visible" id="glyph11-0-a717e7ac">
<path style="stroke:none;" d="M 0.296875 -10.9375 C 0.296875 -10.9375 0.296875 0 0.296875 0 C 0.296875 0 7.046875 0 7.046875 0 C 7.046875 0 7.046875 -10.9375 7.046875 -10.9375 C 7.046875 -10.9375 0.296875 -10.9375 0.296875 -10.9375 Z M 1.078125 -0.78125 C 1.078125 -0.78125 1.078125 -10.15625 1.078125 -10.15625 C 1.078125 -10.15625 6.265625 -10.15625 6.265625 -10.15625 C 6.265625 -10.15625 6.265625 -0.78125 6.265625 -0.78125 C 6.265625 -0.78125 1.078125 -0.78125 1.078125 -0.78125 Z M 1.078125 -0.78125 "/>
</symbol>
<symbol overflow="visible" id="glyph11-1-a717e7ac">
<path style="stroke:none;" d="M 7.609375 -5.109375 C 7.609375 -1.625 6.375 0.21875 4.125 0.21875 C 1.84375 0.21875 0.640625 -1.625 0.640625 -5.203125 C 0.640625 -8.78125 1.828125 -10.640625 4.125 -10.640625 C 6.4375 -10.640625 7.609375 -8.8125 7.609375 -5.109375 Z M 6.25 -5.234375 C 6.25 -8.078125 5.546875 -9.46875 4.125 -9.46875 C 2.703125 -9.46875 2 -8.09375 2 -5.1875 C 2 -2.28125 2.703125 -0.875 4.09375 -0.875 C 5.5625 -0.875 6.25 -2.21875 6.25 -5.234375 Z M 6.25 -5.234375 "/>
</symbol>
<symbol overflow="visible" id="glyph12-0-a717e7ac">
<path style="stroke:none;" d="M 0.296875 -10.9375 C 0.296875 -10.9375 0.296875 0 0.296875 0 C 0.296875 0 7.046875 0 7.046875 0 C 7.046875 0 7.046875 -10.9375 7.046875 -10.9375 C 7.046875 -10.9375 0.296875 -10.9375 0.296875 -10.9375 Z M 1.078125 -0.78125 C 1.078125 -0.78125 1.078125 -10.15625 1.078125 -10.15625 C 1.078125 -10.15625 6.265625 -10.15625 6.265625 -10.15625 C 6.265625 -10.15625 6.265625 -0.78125 6.265625 -0.78125 C 6.265625 -0.78125 1.078125 -0.78125 1.078125 -0.78125 Z M 1.078125 -0.78125 "/>
</symbol>
<symbol overflow="visible" id="glyph12-1-a717e7ac">
<path style="stroke:none;" d="M 7.234375 0 C 7.234375 0 6.109375 0 6.109375 0 C 6.109375 0 6.109375 -1.21875 6.109375 -1.21875 C 5.375 -0.1875 4.640625 0.21875 3.484375 0.21875 C 1.953125 0.21875 0.96875 -0.609375 0.96875 -1.921875 C 0.96875 -1.921875 0.96875 -7.859375 0.96875 -7.859375 C 0.96875 -7.859375 2.21875 -7.859375 2.21875 -7.859375 C 2.21875 -7.859375 2.21875 -2.421875 2.21875 -2.421875 C 2.21875 -1.46875 2.84375 -0.875 3.84375 -0.875 C 5.140625 -0.875 5.984375 -1.921875 5.984375 -3.53125 C 5.984375 -3.53125 5.984375 -7.859375 5.984375 -7.859375 C 5.984375 -7.859375 7.234375 -7.859375 7.234375 -7.859375 C 7.234375 -7.859375 7.234375 0 7.234375 0 Z M 7.234375 0 "/>
</symbol>
<symbol overflow="visible" id="glyph12-2-a717e7ac">
<path style="stroke:none;" d=""/>
</symbol>
<symbol overflow="visible" id="glyph13-0-a717e7ac">
<path style="stroke:none;" d="M 0.296875 -10.9375 C 0.296875 -10.9375 0.296875 0 0.296875 0 C 0.296875 0 7.046875 0 7.046875 0 C 7.046875 0 7.046875 -10.9375 7.046875 -10.9375 C 7.046875 -10.9375 0.296875 -10.9375 0.296875 -10.9375 Z M 1.078125 -0.78125 C 1.078125 -0.78125 1.078125 -10.15625 1.078125 -10.15625 C 1.078125 -10.15625 6.265625 -10.15625 6.265625 -10.15625 C 6.265625 -10.15625 6.265625 -0.78125 6.265625 -0.78125 C 6.265625 -0.78125 1.078125 -0.78125 1.078125 -0.78125 Z M 1.078125 -0.78125 "/>
</symbol>
<symbol overflow="visible" id="glyph13-1-a717e7ac">
<path style="stroke:none;" d="M 11.40625 0 C 11.40625 0 10.15625 0 10.15625 0 C 10.15625 0 10.15625 -5.421875 10.15625 -5.421875 C 10.15625 -6.40625 9.625 -6.984375 8.71875 -6.984375 C 7.6875 -6.984375 6.859375 -6.078125 6.859375 -4.9375 C 6.859375 -4.9375 6.859375 0 6.859375 0 C 6.859375 0 5.609375 0 5.609375 0 C 5.609375 0 5.609375 -5.421875 5.609375 -5.421875 C 5.609375 -6.421875 5.078125 -6.984375 4.15625 -6.984375 C 3.140625 -6.984375 2.3125 -6.078125 2.3125 -4.9375 C 2.3125 -4.9375 2.3125 0 2.3125 0 C 2.3125 0 1.0625 0 1.0625 0 C 1.0625 0 1.0625 -7.859375 1.0625 -7.859375 C 1.0625 -7.859375 2.203125 -7.859375 2.203125 -7.859375 C 2.203125 -7.859375 2.203125 -6.75 2.203125 -6.75 C 2.875 -7.6875 3.5625 -8.078125 4.625 -8.078125 C 5.640625 -8.078125 6.265625 -7.71875 6.734375 -6.890625 C 7.46875 -7.765625 8.09375 -8.078125 9.15625 -8.078125 C 10.625 -8.078125 11.40625 -7.3125 11.40625 -5.890625 C 11.40625 -5.890625 11.40625 0 11.40625 0 Z M 11.40625 0 "/>
</symbol>
<symbol overflow="visible" id="glyph13-2-a717e7ac">
<path style="stroke:none;" d="M 2.265625 0 C 2.265625 0 1.015625 0 1.015625 0 C 1.015625 0 1.015625 -10.9375 1.015625 -10.9375 C 1.015625 -10.9375 2.265625 -10.9375 2.265625 -10.9375 C 2.265625 -10.9375 2.265625 0 2.265625 0 Z M 2.265625 0 "/>
</symbol>
<symbol overflow="visible" id="glyph13-3-a717e7ac">
<path style="stroke:none;" d="M 3.8125 0 C 3.390625 0.078125 3.09375 0.109375 2.796875 0.109375 C 1.8125 0.109375 1.28125 -0.34375 1.28125 -1.140625 C 1.28125 -1.140625 1.28125 -6.84375 1.28125 -6.84375 C 1.28125 -6.84375 0.203125 -6.84375 0.203125 -6.84375 C 0.203125 -6.84375 0.203125 -7.859375 0.203125 -7.859375 C 0.203125 -7.859375 1.28125 -7.859375 1.28125 -7.859375 C 1.28125 -7.859375 1.28125 -10.015625 1.28125 -10.015625 C 1.28125 -10.015625 2.515625 -10.015625 2.515625 -10.015625 C 2.515625 -10.015625 2.515625 -7.859375 2.515625 -7.859375 C 2.515625 -7.859375 3.8125 -7.859375 3.8125 -7.859375 C 3.8125 -7.859375 3.8125 -6.84375 3.8125 -6.84375 C 3.8125 -6.84375 2.515625 -6.84375 2.515625 -6.84375 C 2.515625 -6.84375 2.515625 -1.6875 2.515625 -1.6875 C 2.515625 -1.140625 2.671875 -0.984375 3.203125 -0.984375 C 3.453125 -0.984375 3.640625 -1 3.8125 -1.046875 C 3.8125 -1.046875 3.8125 0 3.8125 0 Z M 3.8125 0 "/>
</symbol>
<symbol overflow="visible" id="glyph14-0-a717e7ac">
<path style="stroke:none;" d="M 1.40625 -10.703125 L 7.578125 -10.703125 L 7.578125 0 L 1.40625 0 Z M 2.171875 -0.765625 L 6.8125 -0.765625 L 6.8125 -9.953125 L 2.171875 -9.953125 Z M 2.171875 -0.765625 "/>
</symbol>
<symbol overflow="visible" id="glyph14-1-a717e7ac">
<path style="stroke:none;" d="M 3.296875 -1.25 C 3.296875 -0.9375 3.34375 -0.710938 3.4375 -0.578125 C 3.53125 -0.453125 3.722656 -0.378906 4.015625 -0.359375 L 4.015625 0 L 0.390625 0 L 0.390625 -0.359375 C 0.691406 -0.378906 0.894531 -0.445312 1 -0.5625 C 1.113281 -0.6875 1.171875 -0.914062 1.171875 -1.25 L 1.171875 -8.875 C 1.171875 -9.21875 1.128906 -9.453125 1.046875 -9.578125 C 0.972656 -9.710938 0.773438 -9.789062 0.453125 -9.8125 L 0.46875 -10.171875 L 3.296875 -10.171875 L 3.296875 -3.765625 L 5.0625 -5.53125 C 5.3125 -5.78125 5.4375 -6.007812 5.4375 -6.21875 C 5.4375 -6.445312 5.179688 -6.5625 4.671875 -6.5625 L 4.59375 -6.5625 L 4.59375 -6.921875 L 7.71875 -6.921875 L 7.71875 -6.5625 C 7.125 -6.519531 6.597656 -6.269531 6.140625 -5.8125 L 4.96875 -4.671875 L 7.734375 -0.765625 C 7.910156 -0.503906 8.132812 -0.367188 8.40625 -0.359375 L 8.40625 0 L 4.703125 0 L 4.703125 -0.359375 L 4.84375 -0.359375 C 5.175781 -0.359375 5.34375 -0.472656 5.34375 -0.703125 C 5.34375 -0.796875 5.285156 -0.925781 5.171875 -1.09375 L 3.640625 -3.28125 L 3.296875 -3 Z M 3.296875 -1.25 "/>
</symbol>
<symbol overflow="visible" id="glyph15-0-a717e7ac">
<path style="stroke:none;" d="M 0.296875 -10.9375 C 0.296875 -10.9375 0.296875 0 0.296875 0 C 0.296875 0 7.046875 0 7.046875 0 C 7.046875 0 7.046875 -10.9375 7.046875 -10.9375 C 7.046875 -10.9375 0.296875 -10.9375 0.296875 -10.9375 Z M 1.078125 -0.78125 C 1.078125 -0.78125 1.078125 -10.15625 1.078125 -10.15625 C 1.078125 -10.15625 6.265625 -10.15625 6.265625 -10.15625 C 6.265625 -10.15625 6.265625 -0.78125 6.265625 -0.78125 C 6.265625 -0.78125 1.078125 -0.78125 1.078125 -0.78125 Z M 1.078125 -0.78125 "/>
</symbol>
<symbol overflow="visible" id="glyph15-1-a717e7ac">
<path style="stroke:none;" d="M 7.65625 -3.875 C 7.65625 -1.296875 6.296875 0.21875 4.09375 0.21875 C 1.859375 0.21875 0.546875 -1.296875 0.546875 -3.9375 C 0.546875 -6.5625 1.875 -8.078125 4.078125 -8.078125 C 6.34375 -8.078125 7.65625 -6.578125 7.65625 -3.875 Z M 6.34375 -3.890625 C 6.34375 -5.828125 5.5 -6.9375 4.09375 -6.9375 C 2.703125 -6.9375 1.84375 -5.8125 1.84375 -3.9375 C 1.84375 -2.03125 2.703125 -0.9375 4.09375 -0.9375 C 5.46875 -0.9375 6.34375 -2.046875 6.34375 -3.890625 Z M 6.34375 -3.890625 "/>
</symbol>
<symbol overflow="visible" id="glyph16-0-a717e7ac">
<path style="stroke:none;" d="M 0.296875 -10.9375 C 0.296875 -10.9375 0.296875 0 0.296875 0 C 0.296875 0 7.046875 0 7.046875 0 C 7.046875 0 7.046875 -10.9375 7.046875 -10.9375 C 7.046875 -10.9375 0.296875 -10.9375 0.296875 -10.9375 Z M 1.078125 -0.78125 C 1.078125 -0.78125 1.078125 -10.15625 1.078125 -10.15625 C 1.078125 -10.15625 6.265625 -10.15625 6.265625 -10.15625 C 6.265625 -10.15625 6.265625 -0.78125 6.265625 -0.78125 C 6.265625 -0.78125 1.078125 -0.78125 1.078125 -0.78125 Z M 1.078125 -0.78125 "/>
</symbol>
<symbol overflow="visible" id="glyph16-1-a717e7ac">
<path style="stroke:none;" d="M 4.8125 -6.765625 C 2.875 -6.734375 2.296875 -5.84375 2.296875 -4.078125 C 2.296875 -4.078125 2.296875 0 2.296875 0 C 2.296875 0 1.046875 0 1.046875 0 C 1.046875 0 1.046875 -7.859375 1.046875 -7.859375 C 1.046875 -7.859375 2.1875 -7.859375 2.1875 -7.859375 C 2.1875 -7.859375 2.1875 -6.4375 2.1875 -6.4375 C 2.90625 -7.609375 3.53125 -8.078125 4.328125 -8.078125 C 4.5 -8.078125 4.609375 -8.0625 4.8125 -8.046875 C 4.8125 -8.046875 4.8125 -6.765625 4.8125 -6.765625 Z M 4.8125 -6.765625 "/>
</symbol>
<symbol overflow="visible" id="glyph16-2-a717e7ac">
<path style="stroke:none;" d="M 7.421875 0 C 7.421875 0 6.3125 0 6.3125 0 C 6.3125 0 6.3125 -1.15625 6.3125 -1.15625 C 5.640625 -0.1875 4.890625 0.21875 3.8125 0.21875 C 1.6875 0.21875 0.390625 -1.34375 0.390625 -4 C 0.390625 -6.515625 1.71875 -8.078125 3.765625 -8.078125 C 4.8125 -8.078125 5.65625 -7.671875 6.1875 -6.875 C 6.1875 -6.875 6.1875 -10.9375 6.1875 -10.9375 C 6.1875 -10.9375 7.421875 -10.9375 7.421875 -10.9375 C 7.421875 -10.9375 7.421875 0 7.421875 0 Z M 6.1875 -3.90625 C 6.1875 -5.71875 5.328125 -6.921875 3.96875 -6.921875 C 2.609375 -6.921875 1.6875 -5.765625 1.6875 -3.9375 C 1.6875 -2.09375 2.609375 -0.9375 3.984375 -0.9375 C 5.3125 -0.9375 6.1875 -2.078125 6.1875 -3.90625 Z M 6.1875 -3.90625 "/>
</symbol>
<symbol overflow="visible" id="glyph16-3-a717e7ac">
<path style="stroke:none;" d="M 7.6875 -3.5625 C 7.6875 -3.5625 1.90625 -3.5625 1.90625 -3.5625 C 1.9375 -1.765625 2.90625 -0.9375 4.21875 -0.9375 C 5.21875 -0.9375 5.921875 -1.34375 6.265625 -2.390625 C 6.265625 -2.390625 7.53125 -2.390625 7.53125 -2.390625 C 7.21875 -0.796875 5.96875 0.21875 4.171875 0.21875 C 1.96875 0.21875 0.59375 -1.3125 0.59375 -3.890625 C 0.59375 -6.46875 2.015625 -8.078125 4.203125 -8.078125 C 5.671875 -8.078125 6.875 -7.3125 7.375 -6.015625 C 7.609375 -5.4375 7.6875 -4.703125 7.6875 -3.5625 Z M 6.359375 -4.6875 C 6.359375 -5.90625 5.421875 -6.9375 4.1875 -6.9375 C 2.921875 -6.9375 2.046875 -5.984375 1.9375 -4.59375 C 1.9375 -4.59375 6.34375 -4.59375 6.34375 -4.59375 C 6.359375 -4.625 6.359375 -4.6875 6.359375 -4.6875 Z M 6.359375 -4.6875 "/>
</symbol>
<symbol overflow="visible" id="glyph16-4-a717e7ac">
<path style="stroke:none;" d=""/>
</symbol>
<symbol overflow="visible" id="glyph17-0-a717e7ac">
<path style="stroke:none;" d="M 0.296875 -10.9375 C 0.296875 -10.9375 0.296875 0 0.296875 0 C 0.296875 0 7.046875 0 7.046875 0 C 7.046875 0 7.046875 -10.9375 7.046875 -10.9375 C 7.046875 -10.9375 0.296875 -10.9375 0.296875 -10.9375 Z M 1.078125 -0.78125 C 1.078125 -0.78125 1.078125 -10.15625 1.078125 -10.15625 C 1.078125 -10.15625 6.265625 -10.15625 6.265625 -10.15625 C 6.265625 -10.15625 6.265625 -0.78125 6.265625 -0.78125 C 6.265625 -0.78125 1.078125 -0.78125 1.078125 -0.78125 Z M 1.078125 -0.78125 "/>
</symbol>
<symbol overflow="visible" id="glyph17-1-a717e7ac">
<path style="stroke:none;" d="M 4.8125 -6.765625 C 2.875 -6.734375 2.296875 -5.84375 2.296875 -4.078125 C 2.296875 -4.078125 2.296875 0 2.296875 0 C 2.296875 0 1.046875 0 1.046875 0 C 1.046875 0 1.046875 -7.859375 1.046875 -7.859375 C 1.046875 -7.859375 2.1875 -7.859375 2.1875 -7.859375 C 2.1875 -7.859375 2.1875 -6.4375 2.1875 -6.4375 C 2.90625 -7.609375 3.53125 -8.078125 4.328125 -8.078125 C 4.5 -8.078125 4.609375 -8.0625 4.8125 -8.046875 C 4.8125 -8.046875 4.8125 -6.765625 4.8125 -6.765625 Z M 4.8125 -6.765625 "/>
</symbol>
<symbol overflow="visible" id="glyph17-2-a717e7ac">
<path style="stroke:none;" d="M 5.203125 0 C 5.203125 0 3.890625 0 3.890625 0 C 3.890625 0 3.890625 -7.578125 3.890625 -7.578125 C 3.890625 -7.578125 1.53125 -7.578125 1.53125 -7.578125 C 1.53125 -7.578125 1.53125 -8.515625 1.53125 -8.515625 C 3.5625 -8.78125 3.875 -9 4.328125 -10.640625 C 4.328125 -10.640625 5.203125 -10.640625 5.203125 -10.640625 C 5.203125 -10.640625 5.203125 0 5.203125 0 Z M 5.203125 0 "/>
</symbol>
<symbol overflow="visible" id="glyph18-0-a717e7ac">
<path style="stroke:none;" d="M 0.296875 -10.9375 C 0.296875 -10.9375 0.296875 0 0.296875 0 C 0.296875 0 7.046875 0 7.046875 0 C 7.046875 0 7.046875 -10.9375 7.046875 -10.9375 C 7.046875 -10.9375 0.296875 -10.9375 0.296875 -10.9375 Z M 1.078125 -0.78125 C 1.078125 -0.78125 1.078125 -10.15625 1.078125 -10.15625 C 1.078125 -10.15625 6.265625 -10.15625 6.265625 -10.15625 C 6.265625 -10.15625 6.265625 -0.78125 6.265625 -0.78125 C 6.265625 -0.78125 1.078125 -0.78125 1.078125 -0.78125 Z M 1.078125 -0.78125 "/>
</symbol>
<symbol overflow="visible" id="glyph18-1-a717e7ac">
<path style="stroke:none;" d="M 7.65625 -3.875 C 7.65625 -1.296875 6.296875 0.21875 4.09375 0.21875 C 1.859375 0.21875 0.546875 -1.296875 0.546875 -3.9375 C 0.546875 -6.5625 1.875 -8.078125 4.078125 -8.078125 C 6.34375 -8.078125 7.65625 -6.578125 7.65625 -3.875 Z M 6.34375 -3.890625 C 6.34375 -5.828125 5.5 -6.9375 4.09375 -6.9375 C 2.703125 -6.9375 1.84375 -5.8125 1.84375 -3.9375 C 1.84375 -2.03125 2.703125 -0.9375 4.09375 -0.9375 C 5.46875 -0.9375 6.34375 -2.046875 6.34375 -3.890625 Z M 6.34375 -3.890625 "/>
</symbol>
<symbol overflow="visible" id="glyph19-0-a717e7ac">
<path style="stroke:none;" d="M 0.296875 -10.9375 C 0.296875 -10.9375 0.296875 0 0.296875 0 C 0.296875 0 7.046875 0 7.046875 0 C 7.046875 0 7.046875 -10.9375 7.046875 -10.9375 C 7.046875 -10.9375 0.296875 -10.9375 0.296875 -10.9375 Z M 1.078125 -0.78125 C 1.078125 -0.78125 1.078125 -10.15625 1.078125 -10.15625 C 1.078125 -10.15625 6.265625 -10.15625 6.265625 -10.15625 C 6.265625 -10.15625 6.265625 -0.78125 6.265625 -0.78125 C 6.265625 -0.78125 1.078125 -0.78125 1.078125 -0.78125 Z M 1.078125 -0.78125 "/>
</symbol>
<symbol overflow="visible" id="glyph19-1-a717e7ac">
<path style="stroke:none;" d="M 4.8125 -6.765625 C 2.875 -6.734375 2.296875 -5.84375 2.296875 -4.078125 C 2.296875 -4.078125 2.296875 0 2.296875 0 C 2.296875 0 1.046875 0 1.046875 0 C 1.046875 0 1.046875 -7.859375 1.046875 -7.859375 C 1.046875 -7.859375 2.1875 -7.859375 2.1875 -7.859375 C 2.1875 -7.859375 2.1875 -6.4375 2.1875 -6.4375 C 2.90625 -7.609375 3.53125 -8.078125 4.328125 -8.078125 C 4.5 -8.078125 4.609375 -8.0625 4.8125 -8.046875 C 4.8125 -8.046875 4.8125 -6.765625 4.8125 -6.765625 Z M 4.8125 -6.765625 "/>
</symbol>
<symbol overflow="visible" id="glyph19-2-a717e7ac">
<path style="stroke:none;" d="M 5.203125 0 C 5.203125 0 3.890625 0 3.890625 0 C 3.890625 0 3.890625 -7.578125 3.890625 -7.578125 C 3.890625 -7.578125 1.53125 -7.578125 1.53125 -7.578125 C 1.53125 -7.578125 1.53125 -8.515625 1.53125 -8.515625 C 3.5625 -8.78125 3.875 -9 4.328125 -10.640625 C 4.328125 -10.640625 5.203125 -10.640625 5.203125 -10.640625 C 5.203125 -10.640625 5.203125 0 5.203125 0 Z M 5.203125 0 "/>
</symbol>
</g>
<clipPath id="clip1-a717e7ac">
  <path d="M 304 70.5 L 309 70.5 L 309 221.25 L 304 221.25 Z M 304 70.5 "/>
</clipPath>
<clipPath id="clip2-a717e7ac">
  <path d="M 69 70.5 L 430 70.5 L 430 221.25 L 69 221.25 Z M 69 70.5 "/>
</clipPath>
<clipPath id="clip3-a717e7ac">
  <path d="M 71 70.5 L 428 70.5 L 428 221 L 71 221 Z M 71 70.5 "/>
</clipPath>
</defs>
<g id="surface1-a717e7ac">
<path style=" stroke:none;fill-rule:nonzero;fill:rgb(100%,100%,100%);fill-opacity:1;" d="M 0 0 L 450 0 L 450 337.5 L 0 337.5 Z M 0 0 "/>
<path style=" stroke:none;fill-rule:nonzero;fill:rgb(100%,100%,100%);fill-opacity:1;" d="M 60.75 221.25 L 438 221.25 L 438 70.5 L 60.75 70.5 Z M 60.75 221.25 "/>
<path style="fill:none;stroke-width:1;stroke-linecap:butt;stroke-linejoin:miter;stroke:rgb(0%,0%,0%);stroke-opacity:0.12;stroke-miterlimit:2;" d="M 103.864583 295 L 103.864583 94 " transform="matrix(0.75,0,0,0.75,0,0)"/>
<path style="fill:none;stroke-width:1;stroke-linecap:butt;stroke-linejoin:miter;stroke:rgb(0%,0%,0%);stroke-opacity:0.12;stroke-miterlimit:2;" d="M 195.317708 295 L 195.317708 94 " transform="matrix(0.75,0,0,0.75,0,0)"/>
<path style="fill:none;stroke-width:1;stroke-linecap:butt;stroke-linejoin:miter;stroke:rgb(0%,0%,0%);stroke-opacity:0.12;stroke-miterlimit:2;" d="M 286.770833 295 L 286.770833 94 " transform="matrix(0.75,0,0,0.75,0,0)"/>
<path style="fill:none;stroke-width:1;stroke-linecap:butt;stroke-linejoin:miter;stroke:rgb(0%,0%,0%);stroke-opacity:0.12;stroke-miterlimit:2;" d="M 378.229167 295 L 378.229167 94 " transform="matrix(0.75,0,0,0.75,0,0)"/>
<path style="fill:none;stroke-width:1;stroke-linecap:butt;stroke-linejoin:miter;stroke:rgb(0%,0%,0%);stroke-opacity:0.12;stroke-miterlimit:2;" d="M 469.682292 295 L 469.682292 94 " transform="matrix(0.75,0,0,0.75,0,0)"/>
<path style="fill:none;stroke-width:1;stroke-linecap:butt;stroke-linejoin:miter;stroke:rgb(0%,0%,0%);stroke-opacity:0.12;stroke-miterlimit:2;" d="M 561.135417 295 L 561.135417 94 " transform="matrix(0.75,0,0,0.75,0,0)"/>
<path style="fill:none;stroke-width:1;stroke-linecap:butt;stroke-linejoin:miter;stroke:rgb(0%,0%,0%);stroke-opacity:0.12;stroke-miterlimit:2;" d="M 81 285.864583 L 584 285.864583 " transform="matrix(0.75,0,0,0.75,0,0)"/>
<path style="fill:none;stroke-width:1;stroke-linecap:butt;stroke-linejoin:miter;stroke:rgb(0%,0%,0%);stroke-opacity:0.12;stroke-miterlimit:2;" d="M 81 194.5 L 584 194.5 " transform="matrix(0.75,0,0,0.75,0,0)"/>
<path style="fill:none;stroke-width:1;stroke-linecap:butt;stroke-linejoin:miter;stroke:rgb(0%,0%,0%);stroke-opacity:0.12;stroke-miterlimit:2;" d="M 81 103.135417 L 584 103.135417 " transform="matrix(0.75,0,0,0.75,0,0)"/>
<g style="fill:rgb(0%,0%,0%);fill-opacity:1;">
  <use xlink:href="#glyph0-1-a717e7ac" x="220.176155" y="263.007706"/>
</g>
<g style="fill:rgb(0%,0%,0%);fill-opacity:1;">
  <use xlink:href="#glyph1-1-a717e7ac" x="224.076164" y="263.007706"/>
</g>
<g style="fill:rgb(0%,0%,0%);fill-opacity:1;">
  <use xlink:href="#glyph0-1-a717e7ac" x="232.088837" y="263.007706"/>
</g>
<g style="fill:rgb(0%,0%,0%);fill-opacity:1;">
  <use xlink:href="#glyph0-2-a717e7ac" x="235.988846" y="263.007706"/>
</g>
<g style="fill:rgb(0%,0%,0%);fill-opacity:1;">
  <use xlink:href="#glyph2-1-a717e7ac" x="240.158844" y="263.007706"/>
</g>
<g style="fill:rgb(0%,0%,0%);fill-opacity:1;">
  <use xlink:href="#glyph2-2-a717e7ac" x="248.49884" y="263.007706"/>
</g>
<g style="fill:rgb(0%,0%,0%);fill-opacity:1;">
  <use xlink:href="#glyph3-1-a717e7ac" x="260.168861" y="263.007706"/>
</g>
<g style="fill:rgb(0%,0%,0%);fill-opacity:1;">
  <use xlink:href="#glyph2-3-a717e7ac" x="264.338837" y="263.007706"/>
</g>
<g style="fill:rgb(0%,0%,0%);fill-opacity:1;">
  <use xlink:href="#glyph0-3-a717e7ac" x="268.508858" y="263.007706"/>
</g>
<g style="fill:rgb(0%,0%,0%);fill-opacity:1;">
  <use xlink:href="#glyph4-1-a717e7ac" x="67.47274" y="241.455002"/>
</g>
<g style="fill:rgb(0%,0%,0%);fill-opacity:1;">
  <use xlink:href="#glyph5-1-a717e7ac" x="75.812748" y="241.455002"/>
</g>
<g style="fill:rgb(0%,0%,0%);fill-opacity:1;">
  <use xlink:href="#glyph2-4-a717e7ac" x="79.982735" y="241.455002"/>
</g>
<g style="fill:rgb(0%,0%,0%);fill-opacity:1;">
  <use xlink:href="#glyph2-4-a717e7ac" x="136.063637" y="241.455002"/>
</g>
<g style="fill:rgb(0%,0%,0%);fill-opacity:1;">
  <use xlink:href="#glyph2-5-a717e7ac" x="144.403645" y="241.455002"/>
</g>
<g style="fill:rgb(0%,0%,0%);fill-opacity:1;">
  <use xlink:href="#glyph2-6-a717e7ac" x="148.573631" y="241.455002"/>
</g>
<g style="fill:rgb(0%,0%,0%);fill-opacity:1;">
  <use xlink:href="#glyph0-4-a717e7ac" x="204.654533" y="241.455002"/>
</g>
<g style="fill:rgb(0%,0%,0%);fill-opacity:1;">
  <use xlink:href="#glyph2-5-a717e7ac" x="212.99453" y="241.455002"/>
</g>
<g style="fill:rgb(0%,0%,0%);fill-opacity:1;">
  <use xlink:href="#glyph2-7-a717e7ac" x="217.164528" y="241.455002"/>
</g>
<g style="fill:rgb(0%,0%,0%);fill-opacity:1;">
  <use xlink:href="#glyph0-4-a717e7ac" x="273.245476" y="241.455002"/>
</g>
<g style="fill:rgb(0%,0%,0%);fill-opacity:1;">
  <use xlink:href="#glyph3-2-a717e7ac" x="281.585495" y="241.455002"/>
</g>
<g style="fill:rgb(0%,0%,0%);fill-opacity:1;">
  <use xlink:href="#glyph2-8-a717e7ac" x="285.75547" y="241.455002"/>
</g>
<g style="fill:rgb(0%,0%,0%);fill-opacity:1;">
  <use xlink:href="#glyph0-4-a717e7ac" x="341.836349" y="241.455002"/>
</g>
<g style="fill:rgb(0%,0%,0%);fill-opacity:1;">
  <use xlink:href="#glyph3-2-a717e7ac" x="350.176369" y="241.455002"/>
</g>
<g style="fill:rgb(0%,0%,0%);fill-opacity:1;">
  <use xlink:href="#glyph3-3-a717e7ac" x="354.346367" y="241.455002"/>
</g>
<g style="fill:rgb(0%,0%,0%);fill-opacity:1;">
  <use xlink:href="#glyph2-9-a717e7ac" x="410.427246" y="241.455002"/>
</g>
<g style="fill:rgb(0%,0%,0%);fill-opacity:1;">
  <use xlink:href="#glyph2-5-a717e7ac" x="418.767242" y="241.455002"/>
</g>
<g style="fill:rgb(0%,0%,0%);fill-opacity:1;">
  <use xlink:href="#glyph2-4-a717e7ac" x="422.937286" y="241.455002"/>
</g>
<g style="fill:rgb(0%,0%,0%);fill-opacity:1;">
  <use xlink:href="#glyph6-1-a717e7ac" x="25.380014" y="160.042488"/>
</g>
<g style="fill:rgb(0%,0%,0%);fill-opacity:1;">
  <use xlink:href="#glyph6-2-a717e7ac" x="25.380014" y="155.872478"/>
</g>
<g style="fill:rgb(0%,0%,0%);fill-opacity:1;">
  <use xlink:href="#glyph6-3-a717e7ac" x="25.380014" y="152.542488"/>
</g>
<g style="fill:rgb(0%,0%,0%);fill-opacity:1;">
  <use xlink:href="#glyph6-4-a717e7ac" x="25.380014" y="149.212486"/>
</g>
<g style="fill:rgb(0%,0%,0%);fill-opacity:1;">
  <use xlink:href="#glyph6-5-a717e7ac" x="25.380014" y="145.042488"/>
</g>
<g style="fill:rgb(0%,0%,0%);fill-opacity:1;">
  <use xlink:href="#glyph6-6-a717e7ac" x="25.380014" y="136.70248"/>
</g>
<g style="fill:rgb(0%,0%,0%);fill-opacity:1;">
  <use xlink:href="#glyph2-4-a717e7ac" x="32.399998" y="219.865219"/>
</g>
<g style="fill:rgb(0%,0%,0%);fill-opacity:1;">
  <use xlink:href="#glyph2-5-a717e7ac" x="40.740005" y="219.865219"/>
</g>
<g style="fill:rgb(0%,0%,0%);fill-opacity:1;">
  <use xlink:href="#glyph7-1-a717e7ac" x="44.909995" y="219.865219"/>
</g>
<g style="fill:rgb(0%,0%,0%);fill-opacity:1;">
  <use xlink:href="#glyph8-1-a717e7ac" x="32.399998" y="151.342472"/>
</g>
<g style="fill:rgb(0%,0%,0%);fill-opacity:1;">
  <use xlink:href="#glyph8-2-a717e7ac" x="40.740005" y="151.342472"/>
</g>
<g style="fill:rgb(0%,0%,0%);fill-opacity:1;">
  <use xlink:href="#glyph9-1-a717e7ac" x="44.909995" y="151.342472"/>
</g>
<g style="fill:rgb(0%,0%,0%);fill-opacity:1;">
  <use xlink:href="#glyph10-1-a717e7ac" x="32.399998" y="82.819788"/>
</g>
<g style="fill:rgb(0%,0%,0%);fill-opacity:1;">
  <use xlink:href="#glyph10-2-a717e7ac" x="40.740005" y="82.819788"/>
</g>
<g style="fill:rgb(0%,0%,0%);fill-opacity:1;">
  <use xlink:href="#glyph11-1-a717e7ac" x="44.909995" y="82.819788"/>
</g>
<g clip-path="url(#clip1-a717e7ac)" clip-rule="nonzero">
<path style="fill:none;stroke-width:6;stroke-linecap:butt;stroke-linejoin:miter;stroke:rgb(50.196081%,50.196081%,50.196081%);stroke-opacity:0.4;stroke-miterlimit:2;" d="M 408.713542 295 L 408.713542 94 " transform="matrix(0.75,0,0,0.75,0,0)"/>
</g>
<g clip-path="url(#clip2-a717e7ac)" clip-rule="nonzero">
<path style="fill:none;stroke-width:4;stroke-linecap:butt;stroke-linejoin:miter;stroke:rgb(0%,44.705883%,69.803923%);stroke-opacity:1;stroke-miterlimit:2;" d="M 103.864583 103.135417 L 412.067708 103.135417 L 412.520833 103.140625 L 413.4375 103.140625 L 413.895833 103.145833 L 414.354167 103.145833 L 414.807292 103.151042 L 415.265625 103.15625 L 415.723958 103.166667 L 416.182292 103.171875 L 416.640625 103.182292 L 417.09375 103.192708 L 418.010417 103.223958 L 418.927083 103.265625 L 419.380208 103.286458 L 420.755208 103.380208 L 421.208333 103.421875 L 421.666667 103.463542 L 422.583333 103.567708 L 423.041667 103.630208 L 423.494792 103.692708 L 423.953125 103.765625 L 424.411458 103.84375 L 424.869792 103.932292 L 425.328125 104.026042 L 425.78125 104.125 L 426.239583 104.234375 L 426.697917 104.354167 L 427.15625 104.484375 L 427.614583 104.625 L 428.067708 104.770833 L 428.526042 104.932292 L 428.984375 105.098958 L 429.442708 105.28125 L 429.901042 105.479167 L 430.354167 105.682292 L 430.8125 105.90625 L 431.270833 106.140625 L 431.729167 106.390625 L 432.1875 106.651042 L 432.640625 106.932292 L 433.098958 107.223958 L 433.557292 107.536458 L 434.015625 107.864583 L 434.473958 108.213542 L 434.927083 108.578125 L 435.385417 108.958333 L 435.84375 109.364583 L 436.302083 109.786458 L 436.760417 110.229167 L 437.213542 110.692708 L 437.671875 111.177083 L 438.130208 111.6875 L 438.588542 112.21875 L 439.046875 112.770833 L 439.5 113.348958 L 439.958333 113.947917 L 440.416667 114.578125 L 440.875 115.229167 L 441.333333 115.90625 L 441.786458 116.609375 L 442.244792 117.338542 L 442.703125 118.09375 L 443.161458 118.880208 L 443.619792 119.692708 L 444.072917 120.536458 L 444.53125 121.40625 L 444.989583 122.302083 L 445.447917 123.234375 L 445.901042 124.192708 L 446.359375 125.182292 L 446.817708 126.197917 L 447.276042 127.25 L 447.734375 128.328125 L 448.1875 129.4375 L 448.645833 130.583333 L 449.104167 131.755208 L 449.5625 132.958333 L 450.020833 134.192708 L 450.473958 135.458333 L 450.932292 136.760417 L 451.390625 138.088542 L 451.848958 139.447917 L 452.307292 140.838542 L 452.760417 142.260417 L 453.21875 143.713542 L 453.677083 145.192708 L 454.135417 146.703125 L 454.59375 148.244792 L 455.046875 149.817708 L 455.505208 151.411458 L 455.963542 153.041667 L 456.421875 154.692708 L 456.880208 156.375 L 457.333333 158.078125 L 457.791667 159.8125 L 458.25 161.567708 L 458.708333 163.348958 L 459.166667 165.151042 L 459.619792 166.979167 L 460.078125 168.822917 L 460.536458 170.6875 L 460.994792 172.578125 L 461.453125 174.479167 L 461.90625 176.401042 L 462.364583 178.338542 L 462.822917 180.286458 L 463.28125 182.25 L 463.739583 184.229167 L 464.192708 186.213542 L 464.651042 188.208333 L 465.109375 190.213542 L 465.567708 192.223958 L 466.026042 194.244792 L 466.479167 196.260417 L 466.9375 198.286458 L 467.395833 200.307292 L 467.854167 202.333333 L 468.3125 204.354167 L 468.765625 206.369792 L 469.682292 210.390625 L 470.140625 212.385417 L 470.59375 214.375 L 471.052083 216.354167 L 471.510417 218.317708 L 471.96875 220.265625 L 472.427083 222.203125 L 472.880208 224.119792 L 473.338542 226.020833 L 473.796875 227.901042 L 474.255208 229.760417 L 474.713542 231.598958 L 475.166667 233.411458 L 475.625 235.203125 L 476.083333 236.963542 L 476.541667 238.703125 L 477 240.411458 L 477.453125 242.088542 L 477.911458 243.739583 L 478.369792 245.354167 L 478.828125 246.942708 L 479.286458 248.494792 L 479.739583 250.015625 L 480.197917 251.505208 L 480.65625 252.953125 L 481.114583 254.369792 L 481.572917 255.75 L 482.026042 257.098958 L 482.484375 258.40625 L 482.942708 259.677083 L 483.401042 260.911458 L 483.859375 262.109375 L 484.3125 263.270833 L 484.770833 264.395833 L 485.229167 265.484375 L 485.6875 266.53125 L 486.145833 267.546875 L 486.598958 268.526042 L 487.057292 269.463542 L 487.515625 270.369792 L 487.973958 271.239583 L 488.432292 272.072917 L 488.885417 272.875 L 489.34375 273.640625 L 489.802083 274.375 L 490.260417 275.078125 L 490.71875 275.744792 L 491.171875 276.380208 L 491.630208 276.989583 L 492.088542 277.567708 L 492.546875 278.114583 L 493.005208 278.635417 L 493.458333 279.130208 L 493.916667 279.59375 L 494.375 280.036458 L 494.833333 280.453125 L 495.291667 280.84375 L 495.744792 281.213542 L 496.203125 281.5625 L 496.661458 281.890625 L 497.119792 282.197917 L 497.572917 282.484375 L 498.03125 282.75 L 498.489583 283.005208 L 498.947917 283.234375 L 499.40625 283.453125 L 499.859375 283.65625 L 500.317708 283.84375 L 500.776042 284.020833 L 501.234375 284.182292 L 501.692708 284.333333 L 502.145833 284.46875 L 502.604167 284.598958 L 503.0625 284.71875 L 503.520833 284.822917 L 503.979167 284.921875 L 504.432292 285.015625 L 504.890625 285.098958 L 505.348958 285.177083 L 505.807292 285.244792 L 506.265625 285.307292 L 506.71875 285.364583 L 507.177083 285.416667 L 508.09375 285.510417 L 508.552083 285.546875 L 509.005208 285.583333 L 509.463542 285.614583 L 510.838542 285.692708 L 511.291667 285.708333 L 511.75 285.729167 L 512.666667 285.760417 L 513.125 285.770833 L 513.578125 285.786458 L 514.036458 285.791667 L 514.953125 285.8125 L 515.411458 285.817708 L 515.864583 285.822917 L 517.697917 285.84375 L 518.151042 285.84375 L 518.609375 285.848958 L 519.067708 285.848958 L 519.526042 285.854167 L 520.895833 285.854167 L 521.354167 285.859375 L 524.552083 285.859375 L 525.010417 285.864583 L 561.135417 285.864583 " transform="matrix(0.75,0,0,0.75,0,0)"/>
</g>
<g clip-path="url(#clip3-a717e7ac)" clip-rule="nonzero">
<path style="fill:none;stroke-width:3;stroke-linecap:butt;stroke-linejoin:miter;stroke:rgb(90.196079%,62.352943%,0%);stroke-opacity:1;stroke-dasharray:9,9;stroke-miterlimit:2;" d="M 103.864583 103.135417 L 408.40625 103.135417 L 408.864583 109.338542 L 409.322917 126.713542 L 409.78125 142.380208 L 410.234375 156.505208 L 410.692708 169.234375 L 411.151042 180.713542 L 411.609375 191.0625 L 412.067708 200.395833 L 412.520833 208.807292 L 412.979167 216.390625 L 413.4375 223.229167 L 413.895833 229.395833 L 414.354167 234.953125 L 414.807292 239.963542 L 415.265625 244.484375 L 415.723958 248.557292 L 416.182292 252.229167 L 416.640625 255.536458 L 417.09375 258.520833 L 417.552083 261.213542 L 418.010417 263.640625 L 418.46875 265.828125 L 418.927083 267.802083 L 419.380208 269.578125 L 419.838542 271.182292 L 420.296875 272.625 L 420.755208 273.927083 L 421.208333 275.104167 L 421.666667 276.161458 L 422.125 277.119792 L 422.583333 277.979167 L 423.041667 278.755208 L 423.494792 279.453125 L 423.953125 280.083333 L 424.411458 280.65625 L 424.869792 281.166667 L 425.328125 281.630208 L 425.78125 282.046875 L 426.239583 282.421875 L 426.697917 282.760417 L 427.15625 283.067708 L 427.614583 283.34375 L 428.067708 283.588542 L 428.526042 283.8125 L 428.984375 284.015625 L 429.442708 284.197917 L 429.901042 284.359375 L 430.354167 284.510417 L 430.8125 284.640625 L 431.270833 284.760417 L 431.729167 284.869792 L 432.1875 284.96875 L 432.640625 285.057292 L 433.098958 285.135417 L 433.557292 285.208333 L 434.015625 285.270833 L 434.473958 285.328125 L 434.927083 285.385417 L 435.385417 285.432292 L 435.84375 285.473958 L 436.760417 285.546875 L 437.213542 285.578125 L 438.588542 285.65625 L 439.046875 285.677083 L 439.5 285.692708 L 440.875 285.739583 L 441.333333 285.75 L 441.786458 285.760417 L 443.161458 285.791667 L 443.619792 285.796875 L 444.072917 285.802083 L 445.447917 285.817708 L 445.901042 285.822917 L 446.817708 285.833333 L 447.276042 285.833333 L 447.734375 285.838542 L 448.1875 285.838542 L 448.645833 285.84375 L 449.5625 285.84375 L 450.020833 285.848958 L 450.932292 285.848958 L 451.390625 285.854167 L 453.21875 285.854167 L 453.677083 285.859375 L 459.619792 285.859375 L 460.078125 285.864583 L 561.135417 285.864583 " transform="matrix(0.75,0,0,0.75,0,0)"/>
<path style="fill:none;stroke-width:3;stroke-linecap:butt;stroke-linejoin:miter;stroke:rgb(0%,61.960787%,45.09804%);stroke-opacity:1;stroke-dasharray:3,6;stroke-miterlimit:2;" d="M 103.864583 103.135417 L 441.786458 103.135417 L 442.244792 103.140625 L 447.276042 103.140625 L 447.734375 103.145833 L 449.104167 103.145833 L 449.5625 103.151042 L 450.932292 103.151042 L 451.390625 103.15625 L 451.848958 103.15625 L 452.307292 103.161458 L 452.760417 103.161458 L 453.21875 103.166667 L 453.677083 103.166667 L 454.59375 103.177083 L 455.046875 103.177083 L 456.880208 103.197917 L 457.333333 103.203125 L 457.791667 103.213542 L 458.25 103.21875 L 458.708333 103.229167 L 459.166667 103.234375 L 459.619792 103.244792 L 460.994792 103.276042 L 461.453125 103.291667 L 461.90625 103.307292 L 463.28125 103.354167 L 463.739583 103.375 L 464.192708 103.395833 L 465.109375 103.4375 L 465.567708 103.463542 L 466.026042 103.494792 L 466.479167 103.520833 L 466.9375 103.552083 L 468.3125 103.661458 L 468.765625 103.703125 L 469.682292 103.796875 L 470.140625 103.848958 L 470.59375 103.901042 L 471.96875 104.088542 L 472.427083 104.161458 L 472.880208 104.234375 L 473.338542 104.317708 L 474.255208 104.494792 L 474.713542 104.59375 L 475.166667 104.697917 L 475.625 104.807292 L 476.083333 104.921875 L 476.541667 105.046875 L 477 105.182292 L 477.453125 105.322917 L 477.911458 105.46875 L 478.369792 105.625 L 478.828125 105.791667 L 479.286458 105.96875 L 479.739583 106.15625 L 480.197917 106.359375 L 480.65625 106.567708 L 481.114583 106.791667 L 481.572917 107.026042 L 482.026042 107.270833 L 482.484375 107.536458 L 482.942708 107.8125 L 483.401042 108.104167 L 483.859375 108.411458 L 484.3125 108.734375 L 484.770833 109.078125 L 485.229167 109.4375 L 485.6875 109.817708 L 486.145833 110.21875 L 486.598958 110.640625 L 487.057292 111.083333 L 487.515625 111.546875 L 487.973958 112.036458 L 488.432292 112.546875 L 488.885417 113.088542 L 489.34375 113.651042 L 489.802083 114.244792 L 490.260417 114.864583 L 490.71875 115.520833 L 491.171875 116.197917 L 491.630208 116.916667 L 492.088542 117.661458 L 492.546875 118.442708 L 493.005208 119.260417 L 493.458333 120.114583 L 493.916667 121.005208 L 494.375 121.932292 L 494.833333 122.90625 L 495.291667 123.916667 L 495.744792 124.96875 L 496.203125 126.067708 L 496.661458 127.208333 L 497.119792 128.401042 L 497.572917 129.635417 L 498.03125 130.916667 L 498.489583 132.25 L 498.947917 133.635417 L 499.40625 135.067708 L 499.859375 136.557292 L 500.317708 138.09375 L 500.776042 139.6875 L 501.234375 141.338542 L 501.692708 143.041667 L 502.145833 144.796875 L 502.604167 146.614583 L 503.0625 148.484375 L 503.520833 150.411458 L 503.979167 152.395833 L 504.432292 154.4375 L 504.890625 156.53125 L 505.348958 158.6875 L 505.807292 160.895833 L 506.265625 163.15625 L 506.71875 165.473958 L 507.177083 167.84375 L 507.635417 170.265625 L 508.09375 172.739583 L 508.552083 175.255208 L 509.005208 177.822917 L 509.463542 180.432292 L 509.921875 183.083333 L 510.380208 185.776042 L 510.838542 188.505208 L 511.291667 191.265625 L 511.75 194.057292 L 512.208333 196.875 L 512.666667 199.713542 L 513.125 202.567708 L 513.578125 205.442708 L 514.036458 208.322917 L 514.494792 211.213542 L 515.411458 216.984375 L 515.864583 219.859375 L 516.322917 222.71875 L 516.78125 225.557292 L 517.239583 228.375 L 517.697917 231.161458 L 518.151042 233.911458 L 518.609375 236.619792 L 519.067708 239.28125 L 519.526042 241.890625 L 519.984375 244.447917 L 520.4375 246.942708 L 520.895833 249.375 L 521.354167 251.734375 L 521.8125 254.020833 L 522.265625 256.234375 L 522.723958 258.364583 L 523.182292 260.40625 L 523.640625 262.369792 L 524.098958 264.244792 L 524.552083 266.026042 L 525.010417 267.71875 L 525.46875 269.322917 L 525.927083 270.833333 L 526.385417 272.25 L 526.838542 273.578125 L 527.296875 274.817708 L 527.755208 275.96875 L 528.213542 277.036458 L 528.671875 278.020833 L 529.125 278.921875 L 529.583333 279.744792 L 530.041667 280.494792 L 530.5 281.171875 L 530.958333 281.786458 L 531.411458 282.333333 L 531.869792 282.822917 L 532.328125 283.260417 L 532.786458 283.645833 L 533.244792 283.984375 L 533.697917 284.276042 L 534.15625 284.536458 L 534.614583 284.755208 L 535.072917 284.947917 L 535.53125 285.109375 L 535.984375 285.244792 L 536.442708 285.364583 L 536.901042 285.458333 L 537.359375 285.541667 L 537.817708 285.604167 L 538.270833 285.661458 L 538.729167 285.703125 L 539.1875 285.739583 L 540.104167 285.791667 L 540.557292 285.807292 L 541.015625 285.822917 L 541.473958 285.833333 L 541.932292 285.838542 L 542.390625 285.848958 L 542.84375 285.848958 L 543.760417 285.859375 L 545.130208 285.859375 L 545.588542 285.864583 L 561.135417 285.864583 " transform="matrix(0.75,0,0,0.75,0,0)"/>
</g>
<path style="fill-rule:nonzero;fill:rgb(100%,100%,100%);fill-opacity:1;stroke-width:1;stroke-linecap:butt;stroke-linejoin:miter;stroke:rgb(0%,0%,0%);stroke-opacity:1;stroke-miterlimit:2;" d="M 87 289 L 506 289 L 506 171 L 87 171 Z M 87 289 " transform="matrix(0.75,0,0,0.75,0,0)"/>
<path style="fill:none;stroke-width:1;stroke-linecap:butt;stroke-linejoin:miter;stroke:rgb(0%,0%,0%);stroke-opacity:1;stroke-miterlimit:2;" d="M 103.864583 295.5 L 103.864583 300.5 " transform="matrix(0.75,0,0,0.75,0,0)"/>
<path style="fill:none;stroke-width:1;stroke-linecap:butt;stroke-linejoin:miter;stroke:rgb(0%,0%,0%);stroke-opacity:1;stroke-miterlimit:2;" d="M 195.317708 295.5 L 195.317708 300.5 " transform="matrix(0.75,0,0,0.75,0,0)"/>
<path style="fill:none;stroke-width:1;stroke-linecap:butt;stroke-linejoin:miter;stroke:rgb(0%,0%,0%);stroke-opacity:1;stroke-miterlimit:2;" d="M 286.770833 295.5 L 286.770833 300.5 " transform="matrix(0.75,0,0,0.75,0,0)"/>
<path style="fill:none;stroke-width:1;stroke-linecap:butt;stroke-linejoin:miter;stroke:rgb(0%,0%,0%);stroke-opacity:1;stroke-miterlimit:2;" d="M 378.229167 295.5 L 378.229167 300.5 " transform="matrix(0.75,0,0,0.75,0,0)"/>
<path style="fill:none;stroke-width:1;stroke-linecap:butt;stroke-linejoin:miter;stroke:rgb(0%,0%,0%);stroke-opacity:1;stroke-miterlimit:2;" d="M 469.682292 295.5 L 469.682292 300.5 " transform="matrix(0.75,0,0,0.75,0,0)"/>
<path style="fill:none;stroke-width:1;stroke-linecap:butt;stroke-linejoin:miter;stroke:rgb(0%,0%,0%);stroke-opacity:1;stroke-miterlimit:2;" d="M 561.135417 295.5 L 561.135417 300.5 " transform="matrix(0.75,0,0,0.75,0,0)"/>
<path style="fill:none;stroke-width:1;stroke-linecap:butt;stroke-linejoin:miter;stroke:rgb(0%,0%,0%);stroke-opacity:1;stroke-miterlimit:2;" d="M 80.5 285.864583 L 75.5 285.864583 " transform="matrix(0.75,0,0,0.75,0,0)"/>
<path style="fill:none;stroke-width:1;stroke-linecap:butt;stroke-linejoin:miter;stroke:rgb(0%,0%,0%);stroke-opacity:1;stroke-miterlimit:2;" d="M 80.5 194.5 L 75.5 194.5 " transform="matrix(0.75,0,0,0.75,0,0)"/>
<path style="fill:none;stroke-width:1;stroke-linecap:butt;stroke-linejoin:miter;stroke:rgb(0%,0%,0%);stroke-opacity:1;stroke-miterlimit:2;" d="M 80.5 103.135417 L 75.5 103.135417 " transform="matrix(0.75,0,0,0.75,0,0)"/>
<path style="fill:none;stroke-width:6;stroke-linecap:butt;stroke-linejoin:miter;stroke:rgb(50.196081%,50.196081%,50.196081%);stroke-opacity:0.4;stroke-miterlimit:2;" d="M 93.046875 190.552083 L 113.046875 190.552083 " transform="matrix(0.75,0,0,0.75,0,0)"/>
<path style="fill:none;stroke-width:4;stroke-linecap:butt;stroke-linejoin:miter;stroke:rgb(0%,44.705883%,69.803923%);stroke-opacity:1;stroke-miterlimit:2;" d="M 93.046875 218.817708 L 113.046875 218.817708 " transform="matrix(0.75,0,0,0.75,0,0)"/>
<path style="fill:none;stroke-width:3;stroke-linecap:butt;stroke-linejoin:miter;stroke:rgb(90.196079%,62.352943%,0%);stroke-opacity:1;stroke-dasharray:9,9;stroke-miterlimit:2;" d="M 93.046875 245.119792 L 113.046875 245.119792 " transform="matrix(0.75,0,0,0.75,0,0)"/>
<path style="fill:none;stroke-width:3;stroke-linecap:butt;stroke-linejoin:miter;stroke:rgb(0%,61.960787%,45.09804%);stroke-opacity:1;stroke-dasharray:3,6;stroke-miterlimit:2;" d="M 93.046875 271.416667 L 113.046875 271.416667 " transform="matrix(0.75,0,0,0.75,0,0)"/>
<g style="fill:rgb(0%,0%,0%);fill-opacity:1;">
  <use xlink:href="#glyph4-2-a717e7ac" x="88.53618" y="148.731583"/>
</g>
<g style="fill:rgb(0%,0%,0%);fill-opacity:1;">
  <use xlink:href="#glyph12-1-a717e7ac" x="96.036175" y="148.731583"/>
</g>
<g style="fill:rgb(0%,0%,0%);fill-opacity:1;">
  <use xlink:href="#glyph2-10-a717e7ac" x="104.376183" y="148.731583"/>
</g>
<g style="fill:rgb(0%,0%,0%);fill-opacity:1;">
  <use xlink:href="#glyph2-11-a717e7ac" x="108.546169" y="148.731583"/>
</g>
<g style="fill:rgb(0%,0%,0%);fill-opacity:1;">
  <use xlink:href="#glyph2-12-a717e7ac" x="116.886177" y="148.731583"/>
</g>
<g style="fill:rgb(0%,0%,0%);fill-opacity:1;">
  <use xlink:href="#glyph2-12-a717e7ac" x="121.056175" y="148.731583"/>
</g>
<g style="fill:rgb(0%,0%,0%);fill-opacity:1;">
  <use xlink:href="#glyph12-2-a717e7ac" x="125.226173" y="148.731583"/>
</g>
<g style="fill:rgb(0%,0%,0%);fill-opacity:1;">
  <use xlink:href="#glyph2-13-a717e7ac" x="129.396172" y="148.731583"/>
</g>
<g style="fill:rgb(0%,0%,0%);fill-opacity:1;">
  <use xlink:href="#glyph2-14-a717e7ac" x="140.226185" y="148.731583"/>
</g>
<g style="fill:rgb(0%,0%,0%);fill-opacity:1;">
  <use xlink:href="#glyph2-15-a717e7ac" x="148.566193" y="148.731583"/>
</g>
<g style="fill:rgb(0%,0%,0%);fill-opacity:1;">
  <use xlink:href="#glyph2-16-a717e7ac" x="156.066181" y="148.731583"/>
</g>
<g style="fill:rgb(0%,0%,0%);fill-opacity:1;">
  <use xlink:href="#glyph2-17-a717e7ac" x="164.406189" y="148.731583"/>
</g>
<g style="fill:rgb(0%,0%,0%);fill-opacity:1;">
  <use xlink:href="#glyph12-1-a717e7ac" x="172.746185" y="148.731583"/>
</g>
<g style="fill:rgb(0%,0%,0%);fill-opacity:1;">
  <use xlink:href="#glyph13-1-a717e7ac" x="181.086193" y="148.731583"/>
</g>
<g style="fill:rgb(0%,0%,0%);fill-opacity:1;">
  <use xlink:href="#glyph2-18-a717e7ac" x="193.581184" y="148.731583"/>
</g>
<g style="fill:rgb(0%,0%,0%);fill-opacity:1;">
  <use xlink:href="#glyph2-16-a717e7ac" x="201.921181" y="148.731583"/>
</g>
<g style="fill:rgb(0%,0%,0%);fill-opacity:1;">
  <use xlink:href="#glyph0-5-a717e7ac" x="210.261177" y="148.731583"/>
</g>
<g style="fill:rgb(0%,0%,0%);fill-opacity:1;">
  <use xlink:href="#glyph2-3-a717e7ac" x="215.25618" y="148.731583"/>
</g>
<g style="fill:rgb(0%,0%,0%);fill-opacity:1;">
  <use xlink:href="#glyph0-1-a717e7ac" x="219.426178" y="148.731583"/>
</g>
<g style="fill:rgb(0%,0%,0%);fill-opacity:1;">
  <use xlink:href="#glyph14-1-a717e7ac" x="223.326187" y="148.731583"/>
</g>
<g style="fill:rgb(0%,0%,0%);fill-opacity:1;">
  <use xlink:href="#glyph2-19-a717e7ac" x="231.338882" y="148.731583"/>
</g>
<g style="fill:rgb(0%,0%,0%);fill-opacity:1;">
  <use xlink:href="#glyph2-3-a717e7ac" x="235.238869" y="148.731583"/>
</g>
<g style="fill:rgb(0%,0%,0%);fill-opacity:1;">
  <use xlink:href="#glyph3-4-a717e7ac" x="239.40889" y="148.731583"/>
</g>
<g style="fill:rgb(0%,0%,0%);fill-opacity:1;">
  <use xlink:href="#glyph2-2-a717e7ac" x="247.748863" y="148.731583"/>
</g>
<g style="fill:rgb(0%,0%,0%);fill-opacity:1;">
  <use xlink:href="#glyph3-5-a717e7ac" x="255.248886" y="148.731583"/>
</g>
<g style="fill:rgb(0%,0%,0%);fill-opacity:1;">
  <use xlink:href="#glyph2-20-a717e7ac" x="259.418861" y="148.731583"/>
</g>
<g style="fill:rgb(0%,0%,0%);fill-opacity:1;">
  <use xlink:href="#glyph0-2-a717e7ac" x="263.58886" y="148.731583"/>
</g>
<g style="fill:rgb(0%,0%,0%);fill-opacity:1;">
  <use xlink:href="#glyph0-3-a717e7ac" x="267.758858" y="148.731583"/>
</g>
<g style="fill:rgb(0%,0%,0%);fill-opacity:1;">
  <use xlink:href="#glyph3-5-a717e7ac" x="277.823891" y="148.731583"/>
</g>
<g style="fill:rgb(0%,0%,0%);fill-opacity:1;">
  <use xlink:href="#glyph3-6-a717e7ac" x="281.993889" y="148.731583"/>
</g>
<g style="fill:rgb(0%,0%,0%);fill-opacity:1;">
  <use xlink:href="#glyph2-3-a717e7ac" x="290.75386" y="148.731583"/>
</g>
<g style="fill:rgb(0%,0%,0%);fill-opacity:1;">
  <use xlink:href="#glyph3-7-a717e7ac" x="294.923882" y="148.731583"/>
</g>
<g style="fill:rgb(0%,0%,0%);fill-opacity:1;">
  <use xlink:href="#glyph0-6-a717e7ac" x="303.263855" y="148.731583"/>
</g>
<g style="fill:rgb(0%,0%,0%);fill-opacity:1;">
  <use xlink:href="#glyph0-7-a717e7ac" x="307.433853" y="148.731583"/>
</g>
<g style="fill:rgb(0%,0%,0%);fill-opacity:1;">
  <use xlink:href="#glyph3-5-a717e7ac" x="315.773872" y="148.731583"/>
</g>
<g style="fill:rgb(0%,0%,0%);fill-opacity:1;">
  <use xlink:href="#glyph2-21-a717e7ac" x="319.943848" y="148.731583"/>
</g>
<g style="fill:rgb(0%,0%,0%);fill-opacity:1;">
  <use xlink:href="#glyph3-4-a717e7ac" x="324.93885" y="148.731583"/>
</g>
<g style="fill:rgb(0%,0%,0%);fill-opacity:1;">
  <use xlink:href="#glyph2-16-a717e7ac" x="333.278824" y="148.731583"/>
</g>
<g style="fill:rgb(0%,0%,0%);fill-opacity:1;">
  <use xlink:href="#glyph0-8-a717e7ac" x="341.61882" y="148.731583"/>
</g>
<g style="fill:rgb(0%,0%,0%);fill-opacity:1;">
  <use xlink:href="#glyph3-8-a717e7ac" x="345.788841" y="148.731583"/>
</g>
<g style="fill:rgb(0%,0%,0%);fill-opacity:1;">
  <use xlink:href="#glyph2-22-a717e7ac" x="354.128815" y="148.731583"/>
</g>
<g style="fill:rgb(0%,0%,0%);fill-opacity:1;">
  <use xlink:href="#glyph0-9-a717e7ac" x="362.468811" y="148.731583"/>
</g>
<g style="fill:rgb(0%,0%,0%);fill-opacity:1;">
  <use xlink:href="#glyph3-9-a717e7ac" x="365.798836" y="148.731583"/>
</g>
<g style="fill:rgb(0%,0%,0%);fill-opacity:1;">
  <use xlink:href="#glyph2-23-a717e7ac" x="369.968811" y="148.731583"/>
</g>
<g style="fill:rgb(0%,0%,0%);fill-opacity:1;">
  <use xlink:href="#glyph4-3-a717e7ac" x="88.536192" y="169.581093"/>
</g>
<g style="fill:rgb(0%,0%,0%);fill-opacity:1;">
  <use xlink:href="#glyph2-24-a717e7ac" x="96.876194" y="169.581093"/>
</g>
<g style="fill:rgb(0%,0%,0%);fill-opacity:1;">
  <use xlink:href="#glyph2-1-a717e7ac" x="101.871185" y="169.581093"/>
</g>
<g style="fill:rgb(0%,0%,0%);fill-opacity:1;">
  <use xlink:href="#glyph2-16-a717e7ac" x="110.211193" y="169.581093"/>
</g>
<g style="fill:rgb(0%,0%,0%);fill-opacity:1;">
  <use xlink:href="#glyph2-24-a717e7ac" x="118.551201" y="169.581093"/>
</g>
<g style="fill:rgb(0%,0%,0%);fill-opacity:1;">
  <use xlink:href="#glyph2-3-a717e7ac" x="123.546192" y="169.581093"/>
</g>
<g style="fill:rgb(0%,0%,0%);fill-opacity:1;">
  <use xlink:href="#glyph2-7-a717e7ac" x="127.716202" y="169.581093"/>
</g>
<g style="fill:rgb(0%,0%,0%);fill-opacity:1;">
  <use xlink:href="#glyph2-3-a717e7ac" x="136.056187" y="169.581093"/>
</g>
<g style="fill:rgb(0%,0%,0%);fill-opacity:1;">
  <use xlink:href="#glyph2-21-a717e7ac" x="140.226196" y="169.581093"/>
</g>
<g style="fill:rgb(0%,0%,0%);fill-opacity:1;">
  <use xlink:href="#glyph2-1-a717e7ac" x="145.22121" y="169.581093"/>
</g>
<g style="fill:rgb(0%,0%,0%);fill-opacity:1;">
  <use xlink:href="#glyph2-16-a717e7ac" x="153.561195" y="169.581093"/>
</g>
<g style="fill:rgb(0%,0%,0%);fill-opacity:1;">
  <use xlink:href="#glyph2-12-a717e7ac" x="161.901192" y="169.581093"/>
</g>
<g style="fill:rgb(0%,0%,0%);fill-opacity:1;">
  <use xlink:href="#glyph2-14-a717e7ac" x="166.071201" y="169.581093"/>
</g>
<g style="fill:rgb(0%,0%,0%);fill-opacity:1;">
  <use xlink:href="#glyph2-22-a717e7ac" x="174.411209" y="169.581093"/>
</g>
<g style="fill:rgb(0%,0%,0%);fill-opacity:1;">
  <use xlink:href="#glyph13-2-a717e7ac" x="182.751217" y="169.581093"/>
</g>
<g style="fill:rgb(0%,0%,0%);fill-opacity:1;">
  <use xlink:href="#glyph13-3-a717e7ac" x="186.081219" y="169.581093"/>
</g>
<g style="fill:rgb(0%,0%,0%);fill-opacity:1;">
  <use xlink:href="#glyph2-23-a717e7ac" x="190.251205" y="169.581093"/>
</g>
<g style="fill:rgb(0%,0%,0%);fill-opacity:1;">
  <use xlink:href="#glyph15-1-a717e7ac" x="88.53618" y="189.306118"/>
</g>
<g style="fill:rgb(0%,0%,0%);fill-opacity:1;">
  <use xlink:href="#glyph16-1-a717e7ac" x="96.876183" y="189.306118"/>
</g>
<g style="fill:rgb(0%,0%,0%);fill-opacity:1;">
  <use xlink:href="#glyph16-2-a717e7ac" x="101.871185" y="189.306118"/>
</g>
<g style="fill:rgb(0%,0%,0%);fill-opacity:1;">
  <use xlink:href="#glyph16-3-a717e7ac" x="110.211193" y="189.306118"/>
</g>
<g style="fill:rgb(0%,0%,0%);fill-opacity:1;">
  <use xlink:href="#glyph17-1-a717e7ac" x="118.551189" y="189.306118"/>
</g>
<g style="fill:rgb(0%,0%,0%);fill-opacity:1;">
  <use xlink:href="#glyph16-4-a717e7ac" x="123.546181" y="189.306118"/>
</g>
<g style="fill:rgb(0%,0%,0%);fill-opacity:1;">
  <use xlink:href="#glyph17-2-a717e7ac" x="127.71619" y="189.306118"/>
</g>
<g style="fill:rgb(0%,0%,0%);fill-opacity:1;">
  <use xlink:href="#glyph18-1-a717e7ac" x="88.53618" y="209.03112"/>
</g>
<g style="fill:rgb(0%,0%,0%);fill-opacity:1;">
  <use xlink:href="#glyph8-3-a717e7ac" x="96.876183" y="209.03112"/>
</g>
<g style="fill:rgb(0%,0%,0%);fill-opacity:1;">
  <use xlink:href="#glyph8-4-a717e7ac" x="101.871185" y="209.03112"/>
</g>
<g style="fill:rgb(0%,0%,0%);fill-opacity:1;">
  <use xlink:href="#glyph8-5-a717e7ac" x="110.211193" y="209.03112"/>
</g>
<g style="fill:rgb(0%,0%,0%);fill-opacity:1;">
  <use xlink:href="#glyph19-1-a717e7ac" x="118.551189" y="209.03112"/>
</g>
<g style="fill:rgb(0%,0%,0%);fill-opacity:1;">
  <use xlink:href="#glyph8-6-a717e7ac" x="123.546181" y="209.03112"/>
</g>
<g style="fill:rgb(0%,0%,0%);fill-opacity:1;">
  <use xlink:href="#glyph19-2-a717e7ac" x="127.71619" y="209.03112"/>
</g>
<g style="fill:rgb(0%,0%,0%);fill-opacity:1;">
  <use xlink:href="#glyph8-1-a717e7ac" x="136.056175" y="209.03112"/>
</g>
<path style="fill:none;stroke-width:1;stroke-linecap:butt;stroke-linejoin:miter;stroke:rgb(0%,0%,0%);stroke-opacity:1;stroke-miterlimit:2;" d="M 80.5 295 L 584.5 295 " transform="matrix(0.75,0,0,0.75,0,0)"/>
<path style="fill:none;stroke-width:1;stroke-linecap:butt;stroke-linejoin:miter;stroke:rgb(0%,0%,0%);stroke-opacity:1;stroke-miterlimit:2;" d="M 81 295.5 L 81 93.5 " transform="matrix(0.75,0,0,0.75,0,0)"/>
<path style="fill:none;stroke-width:1;stroke-linecap:butt;stroke-linejoin:miter;stroke:rgb(0%,0%,0%);stroke-opacity:1;stroke-miterlimit:2;" d="M 80.5 94 L 584.5 94 " transform="matrix(0.75,0,0,0.75,0,0)"/>
<path style="fill:none;stroke-width:1;stroke-linecap:butt;stroke-linejoin:miter;stroke:rgb(0%,0%,0%);stroke-opacity:1;stroke-miterlimit:2;" d="M 584 295.5 L 584 93.5 " transform="matrix(0.75,0,0,0.75,0,0)"/>
</g>
</svg>
