<?xml version="1.0" encoding="utf-8"?>
<svg xmlns="http://www.w3.org/2000/svg" xmlns:xlink="http://www.w3.org/1999/xlink" width="600" height="400" viewBox="0 0 2400 1600">
<defs>
  <clipPath id="clip230">
    <rect x="0" y="0" width="2400" height="1600"/>
  </clipPath>
</defs>
<path clip-path="url(#clip230)" d="
M0 1600 L2400 1600 L2400 0 L0 0  Z
  " fill="#ffffff" fill-rule="evenodd" fill-opacity="1"/>
<defs>
  <clipPath id="clip231">
    <rect x="480" y="0" width="1681" height="1600"/>
  </clipPath>
</defs>
<path clip-path="url(#clip230)" d="
M204.671 1401.58 L2352.76 1401.58 L2352.76 47.2441 L204.671 47.2441  Z
  " fill="#ffffff" fill-rule="evenodd" fill-opacity="1"/>
<defs>
  <clipPath id="clip232">
    <rect x="204" y="47" width="2149" height="1355"/>
  </clipPath>
</defs>
<polyline clip-path="url(#clip232)" style="stroke:#000000; stroke-width:2; stroke-opacity:0.1; fill:none" points="
  302.311,1401.58 302.311,47.2441 
  "/>
<polyline clip-path="url(#clip232)" style="stroke:#000000; stroke-width:2; stroke-opacity:0.1; fill:none" points="
  497.592,1401.58 497.592,47.2441 
  "/>
<polyline clip-path="url(#clip232)" style="stroke:#000000; stroke-width:2; stroke-opacity:0.1; fill:none" points="
  692.872,1401.58 692.872,47.2441 
  "/>
<polyline clip-path="url(#clip232)" style="stroke:#000000; stroke-width:2; stroke-opacity:0.1; fill:none" points="
  888.152,1401.58 888.152,47.2441 
  "/>
<polyline clip-path="url(#clip232)" style="stroke:#000000; stroke-width:2; stroke-opacity:0.1; fill:none" points="
  1083.43,1401.58 1083.43,47.2441 
  "/>
<polyline clip-path="url(#clip232)" style="stroke:#000000; stroke-width:2; stroke-opacity:0.1; fill:none" points="
  1278.71,1401.58 1278.71,47.2441 
  "/>
<polyline clip-path="url(#clip232)" style="stroke:#000000; stroke-width:2; stroke-opacity:0.1; fill:none" points="
  1473.99,1401.58 1473.99,47.2441 
  "/>
<polyline clip-path="url(#clip232)" style="stroke:#000000; stroke-width:2; stroke-opacity:0.1; fill:none" points="
  1669.27,1401.58 1669.27,47.2441 
  "/>
<polyline clip-path="url(#clip232)" style="stroke:#000000; stroke-width:2; stroke-opacity:0.1; fill:none" points="
  1864.55,1401.58 1864.55,47.2441 
  "/>
<polyline clip-path="url(#clip232)" style="stroke:#000000; stroke-width:2; stroke-opacity:0.1; fill:none" points="
  2059.84,1401.58 2059.84,47.2441 
  "/>
<polyline clip-path="url(#clip232)" style="stroke:#000000; stroke-width:2; stroke-opacity:0.1; fill:none" points="
  2255.12,1401.58 2255.12,47.2441 
  "/>
<polyline clip-path="url(#clip232)" style="stroke:#000000; stroke-width:2; stroke-opacity:0.1; fill:none" points="
  204.671,1192.89 2352.76,1192.89 
  "/>
<polyline clip-path="url(#clip232)" style="stroke:#000000; stroke-width:2; stroke-opacity:0.1; fill:none" points="
  204.671,852.179 2352.76,852.179 
  "/>
<polyline clip-path="url(#clip232)" style="stroke:#000000; stroke-width:2; stroke-opacity:0.1; fill:none" points="
  204.671,511.466 2352.76,511.466 
  "/>
<polyline clip-path="url(#clip232)" style="stroke:#000000; stroke-width:2; stroke-opacity:0.1; fill:none" points="
  204.671,170.753 2352.76,170.753 
  "/>
<polyline clip-path="url(#clip230)" style="stroke:#000000; stroke-width:4; stroke-opacity:1; fill:none" points="
  204.671,1401.58 2352.76,1401.58 
  "/>
<polyline clip-path="url(#clip230)" style="stroke:#000000; stroke-width:4; stroke-opacity:1; fill:none" points="
  204.671,1401.58 204.671,47.2441 
  "/>
<polyline clip-path="url(#clip230)" style="stroke:#000000; stroke-width:4; stroke-opacity:1; fill:none" points="
  302.311,1401.58 302.311,1385.33 
  "/>
<polyline clip-path="url(#clip230)" style="stroke:#000000; stroke-width:4; stroke-opacity:1; fill:none" points="
  497.592,1401.58 497.592,1385.33 
  "/>
<polyline clip-path="url(#clip230)" style="stroke:#000000; stroke-width:4; stroke-opacity:1; fill:none" points="
  692.872,1401.58 692.872,1385.33 
  "/>
<polyline clip-path="url(#clip230)" style="stroke:#000000; stroke-width:4; stroke-opacity:1; fill:none" points="
  888.152,1401.58 888.152,1385.33 
  "/>
<polyline clip-path="url(#clip230)" style="stroke:#000000; stroke-width:4; stroke-opacity:1; fill:none" points="
  1083.43,1401.58 1083.43,1385.33 
  "/>
<polyline clip-path="url(#clip230)" style="stroke:#000000; stroke-width:4; stroke-opacity:1; fill:none" points="
  1278.71,1401.58 1278.71,1385.33 
  "/>
<polyline clip-path="url(#clip230)" style="stroke:#000000; stroke-width:4; stroke-opacity:1; fill:none" points="
  1473.99,1401.58 1473.99,1385.33 
  "/>
<polyline clip-path="url(#clip230)" style="stroke:#000000; stroke-width:4; stroke-opacity:1; fill:none" points="
  1669.27,1401.58 1669.27,1385.33 
  "/>
<polyline clip-path="url(#clip230)" style="stroke:#000000; stroke-width:4; stroke-opacity:1; fill:none" points="
  1864.55,1401.58 1864.55,1385.33 
  "/>
<polyline clip-path="url(#clip230)" style="stroke:#000000; stroke-width:4; stroke-opacity:1; fill:none" points="
  2059.84,1401.58 2059.84,1385.33 
  "/>
<polyline clip-path="url(#clip230)" style="stroke:#000000; stroke-width:4; stroke-opacity:1; fill:none" points="
  2255.12,1401.58 2255.12,1385.33 
  "/>
<polyline clip-path="url(#clip230)" style="stroke:#000000; stroke-width:4; stroke-opacity:1; fill:none" points="
  204.671,1192.89 230.448,1192.89 
  "/>
<polyline clip-path="url(#clip230)" style="stroke:#000000; stroke-width:4; stroke-opacity:1; fill:none" points="
  204.671,852.179 230.448,852.179 
  "/>
<polyline clip-path="url(#clip230)" style="stroke:#000000; stroke-width:4; stroke-opacity:1; fill:none" points="
  204.671,511.466 230.448,511.466 
  "/>
<polyline clip-path="url(#clip230)" style="stroke:#000000; stroke-width:4; stroke-opacity:1; fill:none" points="
  204.671,170.753 230.448,170.753 
  "/>
<path clip-path="url(#clip230)" d="M 0 0 M302.311 1426.07 Q297.797 1426.07 295.511 1430.52 Q293.254 1434.95 293.254 1443.86 Q293.254 1452.75 295.511 1457.2 Q297.797 1461.63 302.311 1461.63 Q306.854 1461.63 309.111 1457.2 Q311.397 1452.75 311.397 1443.86 Q311.397 1434.95 309.111 1430.52 Q306.854 1426.07 302.311 1426.07 M302.311 1421.44 Q309.574 1421.44 313.393 1427.2 Q317.242 1432.93 317.242 1443.86 Q317.242 1454.77 313.393 1460.53 Q309.574 1466.26 302.311 1466.26 Q295.048 1466.26 291.2 1460.53 Q287.381 1454.77 287.381 1443.86 Q287.381 1432.93 291.2 1427.2 Q295.048 1421.44 302.311 1421.44 Z" fill="#000000" fill-rule="evenodd" fill-opacity="1" /><path clip-path="url(#clip230)" d="M 0 0 M485.569 1460.5 L495.118 1460.5 L495.118 1427.54 L484.73 1429.63 L484.73 1424.3 L495.06 1422.22 L500.905 1422.22 L500.905 1460.5 L510.453 1460.5 L510.453 1465.42 L485.569 1465.42 L485.569 1460.5 Z" fill="#000000" fill-rule="evenodd" fill-opacity="1" /><path clip-path="url(#clip230)" d="M 0 0 M686.188 1460.5 L706.587 1460.5 L706.587 1465.42 L679.157 1465.42 L679.157 1460.5 Q682.484 1457.06 688.213 1451.27 Q693.972 1445.45 695.447 1443.78 Q698.254 1440.62 699.353 1438.45 Q700.482 1436.25 700.482 1434.14 Q700.482 1430.7 698.051 1428.53 Q695.65 1426.36 691.773 1426.36 Q689.024 1426.36 685.957 1427.31 Q682.918 1428.27 679.446 1430.21 L679.446 1424.3 Q682.976 1422.89 686.043 1422.16 Q689.11 1421.44 691.657 1421.44 Q698.37 1421.44 702.363 1424.8 Q706.356 1428.15 706.356 1433.76 Q706.356 1436.43 705.343 1438.83 Q704.359 1441.2 701.726 1444.44 Q701.003 1445.28 697.125 1449.3 Q693.248 1453.3 686.188 1460.5 Z" fill="#000000" fill-rule="evenodd" fill-opacity="1" /><path clip-path="url(#clip230)" d="M 0 0 M893.462 1442.13 Q897.658 1443.02 900.001 1445.86 Q902.374 1448.7 902.374 1452.86 Q902.374 1459.26 897.976 1462.76 Q893.578 1466.26 885.476 1466.26 Q882.756 1466.26 879.863 1465.71 Q876.998 1465.19 873.931 1464.12 L873.931 1458.48 Q876.361 1459.89 879.255 1460.62 Q882.148 1461.34 885.302 1461.34 Q890.8 1461.34 893.665 1459.17 Q896.558 1457 896.558 1452.86 Q896.558 1449.04 893.867 1446.9 Q891.205 1444.73 886.431 1444.73 L881.396 1444.73 L881.396 1439.93 L886.662 1439.93 Q890.974 1439.93 893.26 1438.22 Q895.545 1436.48 895.545 1433.24 Q895.545 1429.92 893.173 1428.15 Q890.829 1426.36 886.431 1426.36 Q884.029 1426.36 881.28 1426.88 Q878.532 1427.4 875.233 1428.5 L875.233 1423.29 Q878.561 1422.36 881.454 1421.9 Q884.376 1421.44 886.952 1421.44 Q893.607 1421.44 897.484 1424.48 Q901.361 1427.49 901.361 1432.64 Q901.361 1436.22 899.307 1438.71 Q897.253 1441.17 893.462 1442.13 Z" fill="#000000" fill-rule="evenodd" fill-opacity="1" /><path clip-path="url(#clip230)" d="M 0 0 M1087.19 1427.31 L1072.44 1450.37 L1087.19 1450.37 L1087.19 1427.31 M1085.66 1422.22 L1093.01 1422.22 L1093.01 1450.37 L1099.17 1450.37 L1099.17 1455.23 L1093.01 1455.23 L1093.01 1465.42 L1087.19 1465.42 L1087.19 1455.23 L1067.69 1455.23 L1067.69 1449.59 L1085.66 1422.22 Z" fill="#000000" fill-rule="evenodd" fill-opacity="1" /><path clip-path="url(#clip230)" d="M 0 0 M1266.56 1422.22 L1289.51 1422.22 L1289.51 1427.14 L1271.91 1427.14 L1271.91 1437.73 Q1273.19 1437.29 1274.46 1437.09 Q1275.73 1436.86 1277.01 1436.86 Q1284.24 1436.86 1288.46 1440.83 Q1292.69 1444.79 1292.69 1451.56 Q1292.69 1458.53 1288.35 1462.41 Q1284.01 1466.26 1276.11 1466.26 Q1273.39 1466.26 1270.55 1465.8 Q1267.75 1465.33 1264.74 1464.41 L1264.74 1458.53 Q1267.34 1459.95 1270.12 1460.65 Q1272.9 1461.34 1275.99 1461.34 Q1281 1461.34 1283.92 1458.71 Q1286.84 1456.07 1286.84 1451.56 Q1286.84 1447.05 1283.92 1444.41 Q1281 1441.78 1275.99 1441.78 Q1273.65 1441.78 1271.31 1442.3 Q1268.99 1442.82 1266.56 1443.92 L1266.56 1422.22 Z" fill="#000000" fill-rule="evenodd" fill-opacity="1" /><path clip-path="url(#clip230)" d="M 0 0 M1474.5 1441.49 Q1470.57 1441.49 1468.25 1444.18 Q1465.96 1446.87 1465.96 1451.56 Q1465.96 1456.22 1468.25 1458.94 Q1470.57 1461.63 1474.5 1461.63 Q1478.44 1461.63 1480.72 1458.94 Q1483.04 1456.22 1483.04 1451.56 Q1483.04 1446.87 1480.72 1444.18 Q1478.44 1441.49 1474.5 1441.49 M1486.1 1423.17 L1486.1 1428.5 Q1483.9 1427.46 1481.65 1426.91 Q1479.42 1426.36 1477.22 1426.36 Q1471.43 1426.36 1468.37 1430.26 Q1465.33 1434.17 1464.89 1442.07 Q1466.6 1439.55 1469.18 1438.22 Q1471.75 1436.86 1474.85 1436.86 Q1481.36 1436.86 1485.12 1440.83 Q1488.91 1444.76 1488.91 1451.56 Q1488.91 1458.22 1484.97 1462.24 Q1481.04 1466.26 1474.5 1466.26 Q1467.01 1466.26 1463.04 1460.53 Q1459.08 1454.77 1459.08 1443.86 Q1459.08 1433.62 1463.94 1427.54 Q1468.8 1421.44 1476.99 1421.44 Q1479.19 1421.44 1481.42 1421.87 Q1483.67 1422.31 1486.1 1423.17 Z" fill="#000000" fill-rule="evenodd" fill-opacity="1" /><path clip-path="url(#clip230)" d="M 0 0 M1655.39 1422.22 L1683.16 1422.22 L1683.16 1424.71 L1667.48 1465.42 L1661.38 1465.42 L1676.13 1427.14 L1655.39 1427.14 L1655.39 1422.22 Z" fill="#000000" fill-rule="evenodd" fill-opacity="1" /><path clip-path="url(#clip230)" d="M 0 0 M1864.55 1444.9 Q1860.39 1444.9 1857.99 1447.13 Q1855.61 1449.36 1855.61 1453.27 Q1855.61 1457.17 1857.99 1459.4 Q1860.39 1461.63 1864.55 1461.63 Q1868.72 1461.63 1871.12 1459.4 Q1873.52 1457.14 1873.52 1453.27 Q1873.52 1449.36 1871.12 1447.13 Q1868.75 1444.9 1864.55 1444.9 M1858.71 1442.42 Q1854.95 1441.49 1852.84 1438.92 Q1850.75 1436.34 1850.75 1432.64 Q1850.75 1427.46 1854.43 1424.45 Q1858.13 1421.44 1864.55 1421.44 Q1871.01 1421.44 1874.68 1424.45 Q1878.36 1427.46 1878.36 1432.64 Q1878.36 1436.34 1876.24 1438.92 Q1874.16 1441.49 1870.43 1442.42 Q1874.65 1443.4 1877 1446.26 Q1879.37 1449.13 1879.37 1453.27 Q1879.37 1459.55 1875.52 1462.9 Q1871.7 1466.26 1864.55 1466.26 Q1857.41 1466.26 1853.56 1462.9 Q1849.74 1459.55 1849.74 1453.27 Q1849.74 1449.13 1852.11 1446.26 Q1854.49 1443.4 1858.71 1442.42 M1856.57 1433.19 Q1856.57 1436.54 1858.65 1438.42 Q1860.76 1440.3 1864.55 1440.3 Q1868.32 1440.3 1870.43 1438.42 Q1872.57 1436.54 1872.57 1433.19 Q1872.57 1429.83 1870.43 1427.95 Q1868.32 1426.07 1864.55 1426.07 Q1860.76 1426.07 1858.65 1427.95 Q1856.57 1429.83 1856.57 1433.19 Z" fill="#000000" fill-rule="evenodd" fill-opacity="1" /><path clip-path="url(#clip230)" d="M 0 0 M2047.71 1464.52 L2047.71 1459.2 Q2049.91 1460.24 2052.17 1460.79 Q2054.42 1461.34 2056.59 1461.34 Q2062.38 1461.34 2065.42 1457.46 Q2068.49 1453.56 2068.92 1445.63 Q2067.24 1448.12 2064.67 1449.45 Q2062.09 1450.78 2058.97 1450.78 Q2052.49 1450.78 2048.7 1446.87 Q2044.93 1442.94 2044.93 1436.14 Q2044.93 1429.48 2048.87 1425.46 Q2052.8 1421.44 2059.34 1421.44 Q2066.84 1421.44 2070.77 1427.2 Q2074.74 1432.93 2074.74 1443.86 Q2074.74 1454.08 2069.88 1460.18 Q2065.04 1466.26 2056.85 1466.26 Q2054.66 1466.26 2052.4 1465.82 Q2050.14 1465.39 2047.71 1464.52 M2059.34 1446.21 Q2063.28 1446.21 2065.56 1443.52 Q2067.88 1440.83 2067.88 1436.14 Q2067.88 1431.48 2065.56 1428.79 Q2063.28 1426.07 2059.34 1426.07 Q2055.41 1426.07 2053.09 1428.79 Q2050.81 1431.48 2050.81 1436.14 Q2050.81 1440.83 2053.09 1443.52 Q2055.41 1446.21 2059.34 1446.21 Z" fill="#000000" fill-rule="evenodd" fill-opacity="1" /><path clip-path="url(#clip230)" d="M 0 0 M2226.21 1460.5 L2235.76 1460.5 L2235.76 1427.54 L2225.37 1429.63 L2225.37 1424.3 L2235.7 1422.22 L2241.55 1422.22 L2241.55 1460.5 L2251.09 1460.5 L2251.09 1465.42 L2226.21 1465.42 L2226.21 1460.5 Z" fill="#000000" fill-rule="evenodd" fill-opacity="1" /><path clip-path="url(#clip230)" d="M 0 0 M2269.93 1426.07 Q2265.42 1426.07 2263.13 1430.52 Q2260.87 1434.95 2260.87 1443.86 Q2260.87 1452.75 2263.13 1457.2 Q2265.42 1461.63 2269.93 1461.63 Q2274.47 1461.63 2276.73 1457.2 Q2279.02 1452.75 2279.02 1443.86 Q2279.02 1434.95 2276.73 1430.52 Q2274.47 1426.07 2269.93 1426.07 M2269.93 1421.44 Q2277.19 1421.44 2281.01 1427.2 Q2284.86 1432.93 2284.86 1443.86 Q2284.86 1454.77 2281.01 1460.53 Q2277.19 1466.26 2269.93 1466.26 Q2262.67 1466.26 2258.82 1460.53 Q2255 1454.77 2255 1443.86 Q2255 1432.93 2258.82 1427.2 Q2262.67 1421.44 2269.93 1421.44 Z" fill="#000000" fill-rule="evenodd" fill-opacity="1" /><path clip-path="url(#clip230)" d="M 0 0 M62.9921 1193.46 L100.087 1193.46 L100.087 1198.38 L62.9921 1198.38 L62.9921 1193.46 Z" fill="#000000" fill-rule="evenodd" fill-opacity="1" /><path clip-path="url(#clip230)" d="M 0 0 M118.924 1175.14 Q114.41 1175.14 112.124 1179.6 Q109.867 1184.02 109.867 1192.94 Q109.867 1201.82 112.124 1206.28 Q114.41 1210.7 118.924 1210.7 Q123.466 1210.7 125.723 1206.28 Q128.009 1201.82 128.009 1192.94 Q128.009 1184.02 125.723 1179.6 Q123.466 1175.14 118.924 1175.14 M118.924 1170.51 Q126.186 1170.51 130.006 1176.27 Q133.854 1182 133.854 1192.94 Q133.854 1203.84 130.006 1209.6 Q126.186 1215.33 118.924 1215.33 Q111.661 1215.33 107.812 1209.6 Q103.993 1203.84 103.993 1192.94 Q103.993 1182 107.812 1176.27 Q111.661 1170.51 118.924 1170.51 Z" fill="#000000" fill-rule="evenodd" fill-opacity="1" /><path clip-path="url(#clip230)" d="M 0 0 M140.191 1207.14 L146.296 1207.14 L146.296 1214.49 L140.191 1214.49 L140.191 1207.14 Z" fill="#000000" fill-rule="evenodd" fill-opacity="1" /><path clip-path="url(#clip230)" d="M 0 0 M168.692 1176.39 L153.935 1199.45 L168.692 1199.45 L168.692 1176.39 M167.158 1171.29 L174.508 1171.29 L174.508 1199.45 L180.671 1199.45 L180.671 1204.31 L174.508 1204.31 L174.508 1214.49 L168.692 1214.49 L168.692 1204.31 L149.19 1204.31 L149.19 1198.67 L167.158 1171.29 Z" fill="#000000" fill-rule="evenodd" fill-opacity="1" /><path clip-path="url(#clip230)" d="M 0 0 M65.5963 852.744 L102.691 852.744 L102.691 857.663 L65.5963 857.663 L65.5963 852.744 Z" fill="#000000" fill-rule="evenodd" fill-opacity="1" /><path clip-path="url(#clip230)" d="M 0 0 M121.528 834.428 Q117.014 834.428 114.728 838.884 Q112.471 843.311 112.471 852.223 Q112.471 861.106 114.728 865.562 Q117.014 869.989 121.528 869.989 Q126.07 869.989 128.327 865.562 Q130.613 861.106 130.613 852.223 Q130.613 843.311 128.327 838.884 Q126.07 834.428 121.528 834.428 M121.528 829.798 Q128.79 829.798 132.61 835.556 Q136.458 841.285 136.458 852.223 Q136.458 863.131 132.61 868.889 Q128.79 874.619 121.528 874.619 Q114.265 874.619 110.417 868.889 Q106.597 863.131 106.597 852.223 Q106.597 841.285 110.417 835.556 Q114.265 829.798 121.528 829.798 Z" fill="#000000" fill-rule="evenodd" fill-opacity="1" /><path clip-path="url(#clip230)" d="M 0 0 M142.795 866.43 L148.9 866.43 L148.9 873.779 L142.795 873.779 L142.795 866.43 Z" fill="#000000" fill-rule="evenodd" fill-opacity="1" /><path clip-path="url(#clip230)" d="M 0 0 M160.272 868.861 L180.671 868.861 L180.671 873.779 L153.24 873.779 L153.24 868.861 Q156.568 865.417 162.297 859.63 Q168.055 853.814 169.531 852.136 Q172.338 848.982 173.437 846.812 Q174.566 844.613 174.566 842.501 Q174.566 839.057 172.135 836.887 Q169.733 834.717 165.856 834.717 Q163.107 834.717 160.04 835.672 Q157.002 836.627 153.53 838.566 L153.53 832.663 Q157.06 831.245 160.127 830.522 Q163.194 829.798 165.74 829.798 Q172.453 829.798 176.446 833.155 Q180.439 836.511 180.439 842.125 Q180.439 844.787 179.427 847.188 Q178.443 849.561 175.81 852.802 Q175.086 853.641 171.209 857.663 Q167.332 861.656 160.272 868.861 Z" fill="#000000" fill-rule="evenodd" fill-opacity="1" /><path clip-path="url(#clip230)" d="M 0 0 M119.531 493.714 Q115.017 493.714 112.731 498.17 Q110.475 502.598 110.475 511.509 Q110.475 520.393 112.731 524.849 Q115.017 529.276 119.531 529.276 Q124.074 529.276 126.331 524.849 Q128.617 520.393 128.617 511.509 Q128.617 502.598 126.331 498.17 Q124.074 493.714 119.531 493.714 M119.531 489.085 Q126.794 489.085 130.613 494.843 Q134.462 500.572 134.462 511.509 Q134.462 522.418 130.613 528.176 Q126.794 533.905 119.531 533.905 Q112.268 533.905 108.42 528.176 Q104.601 522.418 104.601 511.509 Q104.601 500.572 108.42 494.843 Q112.268 489.085 119.531 489.085 Z" fill="#000000" fill-rule="evenodd" fill-opacity="1" /><path clip-path="url(#clip230)" d="M 0 0 M140.798 525.717 L146.904 525.717 L146.904 533.066 L140.798 533.066 L140.798 525.717 Z" fill="#000000" fill-rule="evenodd" fill-opacity="1" /><path clip-path="url(#clip230)" d="M 0 0 M165.74 493.714 Q161.227 493.714 158.941 498.17 Q156.684 502.598 156.684 511.509 Q156.684 520.393 158.941 524.849 Q161.227 529.276 165.74 529.276 Q170.283 529.276 172.54 524.849 Q174.826 520.393 174.826 511.509 Q174.826 502.598 172.54 498.17 Q170.283 493.714 165.74 493.714 M165.74 489.085 Q173.003 489.085 176.823 494.843 Q180.671 500.572 180.671 511.509 Q180.671 522.418 176.823 528.176 Q173.003 533.905 165.74 533.905 Q158.478 533.905 154.629 528.176 Q150.81 522.418 150.81 511.509 Q150.81 500.572 154.629 494.843 Q158.478 489.085 165.74 489.085 Z" fill="#000000" fill-rule="evenodd" fill-opacity="1" /><path clip-path="url(#clip230)" d="M 0 0 M121.528 153.001 Q117.014 153.001 114.728 157.457 Q112.471 161.884 112.471 170.796 Q112.471 179.679 114.728 184.135 Q117.014 188.562 121.528 188.562 Q126.07 188.562 128.327 184.135 Q130.613 179.679 130.613 170.796 Q130.613 161.884 128.327 157.457 Q126.07 153.001 121.528 153.001 M121.528 148.371 Q128.79 148.371 132.61 154.13 Q136.458 159.859 136.458 170.796 Q136.458 181.705 132.61 187.463 Q128.79 193.192 121.528 193.192 Q114.265 193.192 110.417 187.463 Q106.597 181.705 106.597 170.796 Q106.597 159.859 110.417 154.13 Q114.265 148.371 121.528 148.371 Z" fill="#000000" fill-rule="evenodd" fill-opacity="1" /><path clip-path="url(#clip230)" d="M 0 0 M142.795 185.003 L148.9 185.003 L148.9 192.353 L142.795 192.353 L142.795 185.003 Z" fill="#000000" fill-rule="evenodd" fill-opacity="1" /><path clip-path="url(#clip230)" d="M 0 0 M160.272 187.434 L180.671 187.434 L180.671 192.353 L153.24 192.353 L153.24 187.434 Q156.568 183.99 162.297 178.203 Q168.055 172.388 169.531 170.709 Q172.338 167.555 173.437 165.385 Q174.566 163.186 174.566 161.074 Q174.566 157.631 172.135 155.461 Q169.733 153.29 165.856 153.29 Q163.107 153.29 160.04 154.245 Q157.002 155.2 153.53 157.139 L153.53 151.236 Q157.06 149.818 160.127 149.095 Q163.194 148.371 165.74 148.371 Q172.453 148.371 176.446 151.728 Q180.439 155.084 180.439 160.698 Q180.439 163.36 179.427 165.761 Q178.443 168.134 175.81 171.375 Q175.086 172.214 171.209 176.236 Q167.332 180.229 160.272 187.434 Z" fill="#000000" fill-rule="evenodd" fill-opacity="1" /><path clip-path="url(#clip230)" d="M 0 0 M1258.58 1499.92 L1266.07 1499.92 L1266.07 1537.15 L1288.31 1517.59 L1297.83 1517.59 L1273.77 1538.81 L1298.85 1562.96 L1289.12 1562.96 L1266.07 1540.8 L1266.07 1562.96 L1258.58 1562.96 L1258.58 1499.92 Z" fill="#000000" fill-rule="evenodd" fill-opacity="1" /><polyline clip-path="url(#clip232)" style="stroke:#009af9; stroke-width:8; stroke-opacity:1; fill:none" points="
  302.311,511.466 497.592,511.466 692.872,511.466 888.152,511.466 1083.43,511.466 1278.71,85.5744 1473.99,511.466 1669.27,511.466 1864.55,511.466 2059.84,511.466 
  2255.12,511.466 2450.4,511.466 2645.68,511.466 2840.96,511.466 3036.24,511.466 3231.52,511.466 3426.8,511.466 3622.08,511.466 3817.36,511.466 4012.64,511.466 
  4207.92,511.466 4403.2,511.466 4598.48,511.466 4793.76,511.466 4989.04,511.466 5184.32,511.466 5379.6,511.466 5574.88,511.466 5770.16,511.466 5965.44,511.466 
  6160.72,511.466 6356.01,511.466 6551.29,511.466 
  "/>
<circle clip-path="url(#clip232)" cx="302.311" cy="511.466" r="14" fill="#009af9" fill-rule="evenodd" fill-opacity="1" stroke="#000000" stroke-opacity="1" stroke-width="3.2"/>
<circle clip-path="url(#clip232)" cx="497.592" cy="511.466" r="14" fill="#009af9" fill-rule="evenodd" fill-opacity="1" stroke="#000000" stroke-opacity="1" stroke-width="3.2"/>
<circle clip-path="url(#clip232)" cx="692.872" cy="511.466" r="14" fill="#009af9" fill-rule="evenodd" fill-opacity="1" stroke="#000000" stroke-opacity="1" stroke-width="3.2"/>
<circle clip-path="url(#clip232)" cx="888.152" cy="511.466" r="14" fill="#009af9" fill-rule="evenodd" fill-opacity="1" stroke="#000000" stroke-opacity="1" stroke-width="3.2"/>
<circle clip-path="url(#clip232)" cx="1083.43" cy="511.466" r="14" fill="#009af9" fill-rule="evenodd" fill-opacity="1" stroke="#000000" stroke-opacity="1" stroke-width="3.2"/>
<circle clip-path="url(#clip232)" cx="1278.71" cy="85.5744" r="14" fill="#009af9" fill-rule="evenodd" fill-opacity="1" stroke="#000000" stroke-opacity="1" stroke-width="3.2"/>
<circle clip-path="url(#clip232)" cx="1473.99" cy="511.466" r="14" fill="#009af9" fill-rule="evenodd" fill-opacity="1" stroke="#000000" stroke-opacity="1" stroke-width="3.2"/>
<circle clip-path="url(#clip232)" cx="1669.27" cy="511.466" r="14" fill="#009af9" fill-rule="evenodd" fill-opacity="1" stroke="#000000" stroke-opacity="1" stroke-width="3.2"/>
<circle clip-path="url(#clip232)" cx="1864.55" cy="511.466" r="14" fill="#009af9" fill-rule="evenodd" fill-opacity="1" stroke="#000000" stroke-opacity="1" stroke-width="3.2"/>
<circle clip-path="url(#clip232)" cx="2059.84" cy="511.466" r="14" fill="#009af9" fill-rule="evenodd" fill-opacity="1" stroke="#000000" stroke-opacity="1" stroke-width="3.2"/>
<circle clip-path="url(#clip232)" cx="2255.12" cy="511.466" r="14" fill="#009af9" fill-rule="evenodd" fill-opacity="1" stroke="#000000" stroke-opacity="1" stroke-width="3.2"/>
<polyline clip-path="url(#clip232)" style="stroke:#e26f46; stroke-width:8; stroke-opacity:1; fill:none" points="
  302.311,511.466 497.592,511.466 692.872,1363.25 888.152,511.466 1083.43,511.466 1278.71,511.466 1473.99,511.466 1669.27,511.466 1864.55,511.466 2059.84,511.466 
  2255.12,511.466 2450.4,511.466 2645.68,511.466 2840.96,511.466 3036.24,511.466 3231.52,511.466 3426.8,511.466 3622.08,511.466 3817.36,511.466 4012.64,511.466 
  4207.92,511.466 4403.2,511.466 4598.48,511.466 4793.76,511.466 4989.04,511.466 5184.32,511.466 5379.6,511.466 5574.88,511.466 5770.16,511.466 5965.44,511.466 
  6160.72,511.466 6356.01,511.466 6551.29,511.466 
  "/>
<path clip-path="url(#clip232)" d="M286.311 495.466 L286.311 527.466 L318.311 527.466 L318.311 495.466 L286.311 495.466 Z" fill="#e26f46" fill-rule="evenodd" fill-opacity="1" stroke="#000000" stroke-opacity="1" stroke-width="3.2"/>
<path clip-path="url(#clip232)" d="M481.592 495.466 L481.592 527.466 L513.592 527.466 L513.592 495.466 L481.592 495.466 Z" fill="#e26f46" fill-rule="evenodd" fill-opacity="1" stroke="#000000" stroke-opacity="1" stroke-width="3.2"/>
<path clip-path="url(#clip232)" d="M676.872 1347.25 L676.872 1379.25 L708.872 1379.25 L708.872 1347.25 L676.872 1347.25 Z" fill="#e26f46" fill-rule="evenodd" fill-opacity="1" stroke="#000000" stroke-opacity="1" stroke-width="3.2"/>
<path clip-path="url(#clip232)" d="M872.152 495.466 L872.152 527.466 L904.152 527.466 L904.152 495.466 L872.152 495.466 Z" fill="#e26f46" fill-rule="evenodd" fill-opacity="1" stroke="#000000" stroke-opacity="1" stroke-width="3.2"/>
<path clip-path="url(#clip232)" d="M1067.43 495.466 L1067.43 527.466 L1099.43 527.466 L1099.43 495.466 L1067.43 495.466 Z" fill="#e26f46" fill-rule="evenodd" fill-opacity="1" stroke="#000000" stroke-opacity="1" stroke-width="3.2"/>
<path clip-path="url(#clip232)" d="M1262.71 495.466 L1262.71 527.466 L1294.71 527.466 L1294.71 495.466 L1262.71 495.466 Z" fill="#e26f46" fill-rule="evenodd" fill-opacity="1" stroke="#000000" stroke-opacity="1" stroke-width="3.2"/>
<path clip-path="url(#clip232)" d="M1457.99 495.466 L1457.99 527.466 L1489.99 527.466 L1489.99 495.466 L1457.99 495.466 Z" fill="#e26f46" fill-rule="evenodd" fill-opacity="1" stroke="#000000" stroke-opacity="1" stroke-width="3.2"/>
<path clip-path="url(#clip232)" d="M1653.27 495.466 L1653.27 527.466 L1685.27 527.466 L1685.27 495.466 L1653.27 495.466 Z" fill="#e26f46" fill-rule="evenodd" fill-opacity="1" stroke="#000000" stroke-opacity="1" stroke-width="3.2"/>
<path clip-path="url(#clip232)" d="M1848.55 495.466 L1848.55 527.466 L1880.55 527.466 L1880.55 495.466 L1848.55 495.466 Z" fill="#e26f46" fill-rule="evenodd" fill-opacity="1" stroke="#000000" stroke-opacity="1" stroke-width="3.2"/>
<path clip-path="url(#clip232)" d="M2043.84 495.466 L2043.84 527.466 L2075.84 527.466 L2075.84 495.466 L2043.84 495.466 Z" fill="#e26f46" fill-rule="evenodd" fill-opacity="1" stroke="#000000" stroke-opacity="1" stroke-width="3.2"/>
<path clip-path="url(#clip232)" d="M2239.12 495.466 L2239.12 527.466 L2271.12 527.466 L2271.12 495.466 L2239.12 495.466 Z" fill="#e26f46" fill-rule="evenodd" fill-opacity="1" stroke="#000000" stroke-opacity="1" stroke-width="3.2"/>
<path clip-path="url(#clip230)" d="
M1820.63 319.189 L2281.15 319.189 L2281.15 92.3886 L1820.63 92.3886  Z
  " fill="#ffffff" fill-rule="evenodd" fill-opacity="1"/>
<polyline clip-path="url(#clip230)" style="stroke:#000000; stroke-width:4; stroke-opacity:1; fill:none" points="
  1820.63,319.189 2281.15,319.189 2281.15,92.3886 1820.63,92.3886 1820.63,319.189 
  "/>
<polyline clip-path="url(#clip230)" style="stroke:#009af9; stroke-width:5; stroke-opacity:1; fill:none" points="
  1844.5,167.989 1987.71,167.989 
  "/>
<circle clip-path="url(#clip230)" cx="1916.1" cy="167.989" r="28" fill="#009af9" fill-rule="evenodd" fill-opacity="1" stroke="#000000" stroke-opacity="1" stroke-width="6.4"/>
<path clip-path="url(#clip230)" d="M 0 0 M2030.55 157.622 Q2029.66 157.101 2028.59 156.87 Q2027.55 156.609 2026.27 156.609 Q2021.76 156.609 2019.33 159.561 Q2016.93 162.483 2016.93 167.981 L2016.93 185.053 L2011.57 185.053 L2011.57 152.645 L2016.93 152.645 L2016.93 157.68 Q2018.6 154.729 2021.3 153.311 Q2023.99 151.864 2027.83 151.864 Q2028.38 151.864 2029.05 151.951 Q2029.72 152.009 2030.53 152.153 L2030.55 157.622 Z" fill="#000000" fill-rule="evenodd" fill-opacity="1" /><path clip-path="url(#clip230)" d="M 0 0 M2062.56 167.518 L2062.56 170.122 L2038.08 170.122 Q2038.42 175.62 2041.38 178.513 Q2044.36 181.378 2049.65 181.378 Q2052.72 181.378 2055.58 180.626 Q2058.48 179.873 2061.31 178.369 L2061.31 183.403 Q2058.45 184.619 2055.44 185.255 Q2052.43 185.892 2049.33 185.892 Q2041.58 185.892 2037.04 181.378 Q2032.52 176.864 2032.52 169.167 Q2032.52 161.21 2036.8 156.552 Q2041.12 151.864 2048.41 151.864 Q2054.95 151.864 2058.74 156.089 Q2062.56 160.284 2062.56 167.518 M2057.23 165.955 Q2057.17 161.586 2054.77 158.982 Q2052.4 156.378 2048.47 156.378 Q2044.01 156.378 2041.32 158.895 Q2038.66 161.413 2038.25 165.984 L2057.23 165.955 Z" fill="#000000" fill-rule="evenodd" fill-opacity="1" /><path clip-path="url(#clip230)" d="M 0 0 M2082.87 168.762 Q2076.42 168.762 2073.93 170.238 Q2071.44 171.714 2071.44 175.273 Q2071.44 178.108 2073.29 179.786 Q2075.17 181.436 2078.38 181.436 Q2082.81 181.436 2085.47 178.311 Q2088.16 175.157 2088.16 169.949 L2088.16 168.762 L2082.87 168.762 M2093.49 166.563 L2093.49 185.053 L2088.16 185.053 L2088.16 180.134 Q2086.34 183.085 2083.62 184.503 Q2080.9 185.892 2076.97 185.892 Q2071.99 185.892 2069.04 183.114 Q2066.12 180.307 2066.12 175.62 Q2066.12 170.151 2069.76 167.373 Q2073.44 164.596 2080.7 164.596 L2088.16 164.596 L2088.16 164.075 Q2088.16 160.4 2085.73 158.403 Q2083.33 156.378 2078.96 156.378 Q2076.18 156.378 2073.55 157.044 Q2070.92 157.709 2068.49 159.04 L2068.49 154.121 Q2071.41 152.993 2074.16 152.443 Q2076.91 151.864 2079.51 151.864 Q2086.54 151.864 2090.02 155.51 Q2093.49 159.156 2093.49 166.563 Z" fill="#000000" fill-rule="evenodd" fill-opacity="1" /><path clip-path="url(#clip230)" d="M 0 0 M2099.07 140.03 L2104.4 140.03 L2104.4 185.053 L2099.07 185.053 L2099.07 140.03 Z" fill="#000000" fill-rule="evenodd" fill-opacity="1" /><path clip-path="url(#clip230)" d="M 0 0 M2122.77 140.088 Q2118.89 146.743 2117.01 153.253 Q2115.13 159.763 2115.13 166.447 Q2115.13 173.131 2117.01 179.7 Q2118.92 186.239 2122.77 192.865 L2118.14 192.865 Q2113.8 186.065 2111.63 179.497 Q2109.49 172.929 2109.49 166.447 Q2109.49 159.995 2111.63 153.456 Q2113.77 146.916 2118.14 140.088 L2122.77 140.088 Z" fill="#000000" fill-rule="evenodd" fill-opacity="1" /><path clip-path="url(#clip230)" d="M 0 0 M2146.64 172.263 L2146.64 152.645 L2151.97 152.645 L2151.97 172.061 Q2151.97 176.661 2153.76 178.976 Q2155.55 181.262 2159.14 181.262 Q2163.45 181.262 2165.94 178.513 Q2168.46 175.764 2168.46 171.019 L2168.46 152.645 L2173.78 152.645 L2173.78 185.053 L2168.46 185.053 L2168.46 180.076 Q2166.52 183.027 2163.94 184.474 Q2161.4 185.892 2158.01 185.892 Q2152.43 185.892 2149.54 182.42 Q2146.64 178.947 2146.64 172.263 M2160.04 151.864 L2160.04 151.864 Z" fill="#000000" fill-rule="evenodd" fill-opacity="1" /><path clip-path="url(#clip230)" d="M 0 0 M2156.83 137.657 L2161.11 137.657 L2168.2 148.537 L2164.18 148.537 L2158.97 141.448 L2153.76 148.537 L2149.74 148.537 L2156.83 137.657 M2158.97 151.864 L2158.97 151.864 Z" fill="#000000" fill-rule="evenodd" fill-opacity="1" /><path clip-path="url(#clip230)" d="M 0 0 M2191.78 140.088 L2196.41 140.088 Q2200.75 146.916 2202.89 153.456 Q2205.06 159.995 2205.06 166.447 Q2205.06 172.929 2202.89 179.497 Q2200.75 186.065 2196.41 192.865 L2191.78 192.865 Q2195.63 186.239 2197.51 179.7 Q2199.42 173.131 2199.42 166.447 Q2199.42 159.763 2197.51 153.253 Q2195.63 146.743 2191.78 140.088 Z" fill="#000000" fill-rule="evenodd" fill-opacity="1" /><polyline clip-path="url(#clip230)" style="stroke:#e26f46; stroke-width:5; stroke-opacity:1; fill:none" points="
  1844.5,243.589 1987.71,243.589 
  "/>
<path clip-path="url(#clip230)" d="M1884.1 211.589 L1884.1 275.589 L1948.1 275.589 L1948.1 211.589 L1884.1 211.589 Z" fill="#e26f46" fill-rule="evenodd" fill-opacity="1" stroke="#000000" stroke-opacity="1" stroke-width="6.4"/>
<path clip-path="url(#clip230)" d="M 0 0 M2011.57 228.245 L2016.9 228.245 L2016.9 260.653 L2011.57 260.653 L2011.57 228.245 M2011.57 215.63 L2016.9 215.63 L2016.9 222.372 L2011.57 222.372 L2011.57 215.63 Z" fill="#000000" fill-rule="evenodd" fill-opacity="1" /><path clip-path="url(#clip230)" d="M 0 0 M2047.71 234.466 Q2049.71 230.878 2052.49 229.171 Q2055.26 227.464 2059.03 227.464 Q2064.09 227.464 2066.84 231.023 Q2069.59 234.553 2069.59 241.093 L2069.59 260.653 L2064.23 260.653 L2064.23 241.266 Q2064.23 236.608 2062.59 234.351 Q2060.94 232.094 2057.55 232.094 Q2053.41 232.094 2051.01 234.843 Q2048.61 237.591 2048.61 242.337 L2048.61 260.653 L2043.26 260.653 L2043.26 241.266 Q2043.26 236.579 2041.61 234.351 Q2039.96 232.094 2036.51 232.094 Q2032.44 232.094 2030.03 234.872 Q2027.63 237.62 2027.63 242.337 L2027.63 260.653 L2022.28 260.653 L2022.28 228.245 L2027.63 228.245 L2027.63 233.28 Q2029.45 230.3 2032 228.882 Q2034.55 227.464 2038.05 227.464 Q2041.58 227.464 2044.04 229.258 Q2046.53 231.052 2047.71 234.466 Z" fill="#000000" fill-rule="evenodd" fill-opacity="1" /><path clip-path="url(#clip230)" d="M 0 0 M2089.9 244.362 Q2083.45 244.362 2080.96 245.838 Q2078.47 247.314 2078.47 250.873 Q2078.47 253.708 2080.32 255.386 Q2082.2 257.036 2085.42 257.036 Q2089.84 257.036 2092.5 253.911 Q2095.2 250.757 2095.2 245.549 L2095.2 244.362 L2089.9 244.362 M2100.52 242.163 L2100.52 260.653 L2095.2 260.653 L2095.2 255.734 Q2093.37 258.685 2090.65 260.103 Q2087.93 261.492 2084 261.492 Q2079.02 261.492 2076.07 258.714 Q2073.15 255.907 2073.15 251.22 Q2073.15 245.751 2076.79 242.973 Q2080.47 240.196 2087.73 240.196 L2095.2 240.196 L2095.2 239.675 Q2095.2 236 2092.76 234.003 Q2090.36 231.978 2085.99 231.978 Q2083.22 231.978 2080.58 232.644 Q2077.95 233.309 2075.52 234.64 L2075.52 229.721 Q2078.44 228.593 2081.19 228.043 Q2083.94 227.464 2086.54 227.464 Q2093.57 227.464 2097.05 231.11 Q2100.52 234.756 2100.52 242.163 Z" fill="#000000" fill-rule="evenodd" fill-opacity="1" /><path clip-path="url(#clip230)" d="M 0 0 M2127.43 244.073 Q2127.43 238.286 2125.03 235.103 Q2122.65 231.92 2118.34 231.92 Q2114.06 231.92 2111.66 235.103 Q2109.29 238.286 2109.29 244.073 Q2109.29 249.831 2111.66 253.014 Q2114.06 256.197 2118.34 256.197 Q2122.65 256.197 2125.03 253.014 Q2127.43 249.831 2127.43 244.073 M2132.75 256.631 Q2132.75 264.906 2129.08 268.928 Q2125.4 272.979 2117.82 272.979 Q2115.02 272.979 2112.53 272.545 Q2110.04 272.14 2107.7 271.272 L2107.7 266.092 Q2110.04 267.366 2112.32 267.973 Q2114.61 268.581 2116.98 268.581 Q2122.22 268.581 2124.82 265.832 Q2127.43 263.112 2127.43 257.586 L2127.43 254.952 Q2125.78 257.817 2123.2 259.235 Q2120.63 260.653 2117.04 260.653 Q2111.08 260.653 2107.43 256.11 Q2103.79 251.567 2103.79 244.073 Q2103.79 236.55 2107.43 232.007 Q2111.08 227.464 2117.04 227.464 Q2120.63 227.464 2123.2 228.882 Q2125.78 230.3 2127.43 233.164 L2127.43 228.245 L2132.75 228.245 L2132.75 256.631 Z" fill="#000000" fill-rule="evenodd" fill-opacity="1" /><path clip-path="url(#clip230)" d="M 0 0 M2151.13 215.688 Q2147.25 222.343 2145.37 228.853 Q2143.49 235.363 2143.49 242.047 Q2143.49 248.731 2145.37 255.3 Q2147.28 261.839 2151.13 268.465 L2146.5 268.465 Q2142.16 261.665 2139.99 255.097 Q2137.85 248.529 2137.85 242.047 Q2137.85 235.595 2139.99 229.056 Q2142.13 222.516 2146.5 215.688 L2151.13 215.688 Z" fill="#000000" fill-rule="evenodd" fill-opacity="1" /><path clip-path="url(#clip230)" d="M 0 0 M2175 247.863 L2175 228.245 L2180.32 228.245 L2180.32 247.661 Q2180.32 252.261 2182.12 254.576 Q2183.91 256.862 2187.5 256.862 Q2191.81 256.862 2194.3 254.113 Q2196.82 251.364 2196.82 246.619 L2196.82 228.245 L2202.14 228.245 L2202.14 260.653 L2196.82 260.653 L2196.82 255.676 Q2194.88 258.627 2192.3 260.074 Q2189.75 261.492 2186.37 261.492 Q2180.79 261.492 2177.89 258.02 Q2175 254.547 2175 247.863 M2188.39 227.464 L2188.39 227.464 Z" fill="#000000" fill-rule="evenodd" fill-opacity="1" /><path clip-path="url(#clip230)" d="M 0 0 M2185.18 213.257 L2189.47 213.257 L2196.55 224.137 L2192.53 224.137 L2187.32 217.048 L2182.12 224.137 L2178.09 224.137 L2185.18 213.257 M2187.32 227.464 L2187.32 227.464 Z" fill="#000000" fill-rule="evenodd" fill-opacity="1" /><path clip-path="url(#clip230)" d="M 0 0 M2220.14 215.688 L2224.77 215.688 Q2229.11 222.516 2231.25 229.056 Q2233.42 235.595 2233.42 242.047 Q2233.42 248.529 2231.25 255.097 Q2229.11 261.665 2224.77 268.465 L2220.14 268.465 Q2223.99 261.839 2225.87 255.3 Q2227.78 248.731 2227.78 242.047 Q2227.78 235.363 2225.87 228.853 Q2223.99 222.343 2220.14 215.688 Z" fill="#000000" fill-rule="evenodd" fill-opacity="1" /></svg>
