<?xml version="1.0" encoding="utf-8"?>
<svg xmlns="http://www.w3.org/2000/svg" xmlns:xlink="http://www.w3.org/1999/xlink" width="600" height="400" viewBox="0 0 2400 1600">
<defs>
  <clipPath id="clip290">
    <rect x="0" y="0" width="2400" height="1600"/>
  </clipPath>
</defs>
<path clip-path="url(#clip290)" d="
M0 1600 L2400 1600 L2400 0 L0 0  Z
  " fill="#ffffff" fill-rule="evenodd" fill-opacity="1"/>
<defs>
  <clipPath id="clip291">
    <rect x="480" y="0" width="1681" height="1600"/>
  </clipPath>
</defs>
<path clip-path="url(#clip290)" d="
M225.984 1375.66 L2352.76 1375.66 L2352.76 158.032 L225.984 158.032  Z
  " fill="#ffffff" fill-rule="evenodd" fill-opacity="1"/>
<defs>
  <clipPath id="clip292">
    <rect x="225" y="158" width="2128" height="1219"/>
  </clipPath>
</defs>
<polyline clip-path="url(#clip292)" style="stroke:#000000; stroke-width:2; stroke-opacity:0.1; fill:none" points="
  286.176,1375.66 286.176,158.032 
  "/>
<polyline clip-path="url(#clip292)" style="stroke:#000000; stroke-width:2; stroke-opacity:0.1; fill:none" points="
  787.773,1375.66 787.773,158.032 
  "/>
<polyline clip-path="url(#clip292)" style="stroke:#000000; stroke-width:2; stroke-opacity:0.1; fill:none" points="
  1289.37,1375.66 1289.37,158.032 
  "/>
<polyline clip-path="url(#clip292)" style="stroke:#000000; stroke-width:2; stroke-opacity:0.1; fill:none" points="
  1790.97,1375.66 1790.97,158.032 
  "/>
<polyline clip-path="url(#clip292)" style="stroke:#000000; stroke-width:2; stroke-opacity:0.1; fill:none" points="
  2292.56,1375.66 2292.56,158.032 
  "/>
<polyline clip-path="url(#clip292)" style="stroke:#000000; stroke-width:2; stroke-opacity:0.1; fill:none" points="
  225.984,1341.2 2352.76,1341.2 
  "/>
<polyline clip-path="url(#clip292)" style="stroke:#000000; stroke-width:2; stroke-opacity:0.1; fill:none" points="
  225.984,1054.01 2352.76,1054.01 
  "/>
<polyline clip-path="url(#clip292)" style="stroke:#000000; stroke-width:2; stroke-opacity:0.1; fill:none" points="
  225.984,766.811 2352.76,766.811 
  "/>
<polyline clip-path="url(#clip292)" style="stroke:#000000; stroke-width:2; stroke-opacity:0.1; fill:none" points="
  225.984,479.618 2352.76,479.618 
  "/>
<polyline clip-path="url(#clip292)" style="stroke:#000000; stroke-width:2; stroke-opacity:0.1; fill:none" points="
  225.984,192.424 2352.76,192.424 
  "/>
<polyline clip-path="url(#clip290)" style="stroke:#000000; stroke-width:4; stroke-opacity:1; fill:none" points="
  225.984,1375.66 2352.76,1375.66 
  "/>
<polyline clip-path="url(#clip290)" style="stroke:#000000; stroke-width:4; stroke-opacity:1; fill:none" points="
  225.984,1375.66 225.984,158.032 
  "/>
<polyline clip-path="url(#clip290)" style="stroke:#000000; stroke-width:4; stroke-opacity:1; fill:none" points="
  286.176,1375.66 286.176,1361.05 
  "/>
<polyline clip-path="url(#clip290)" style="stroke:#000000; stroke-width:4; stroke-opacity:1; fill:none" points="
  787.773,1375.66 787.773,1361.05 
  "/>
<polyline clip-path="url(#clip290)" style="stroke:#000000; stroke-width:4; stroke-opacity:1; fill:none" points="
  1289.37,1375.66 1289.37,1361.05 
  "/>
<polyline clip-path="url(#clip290)" style="stroke:#000000; stroke-width:4; stroke-opacity:1; fill:none" points="
  1790.97,1375.66 1790.97,1361.05 
  "/>
<polyline clip-path="url(#clip290)" style="stroke:#000000; stroke-width:4; stroke-opacity:1; fill:none" points="
  2292.56,1375.66 2292.56,1361.05 
  "/>
<polyline clip-path="url(#clip290)" style="stroke:#000000; stroke-width:4; stroke-opacity:1; fill:none" points="
  225.984,1341.2 251.506,1341.2 
  "/>
<polyline clip-path="url(#clip290)" style="stroke:#000000; stroke-width:4; stroke-opacity:1; fill:none" points="
  225.984,1054.01 251.506,1054.01 
  "/>
<polyline clip-path="url(#clip290)" style="stroke:#000000; stroke-width:4; stroke-opacity:1; fill:none" points="
  225.984,766.811 251.506,766.811 
  "/>
<polyline clip-path="url(#clip290)" style="stroke:#000000; stroke-width:4; stroke-opacity:1; fill:none" points="
  225.984,479.618 251.506,479.618 
  "/>
<polyline clip-path="url(#clip290)" style="stroke:#000000; stroke-width:4; stroke-opacity:1; fill:none" points="
  225.984,192.424 251.506,192.424 
  "/>
<path clip-path="url(#clip290)" d="M 0 0 M216.854 1424.62 L261.367 1424.62 L261.367 1430.53 L216.854 1430.53 L216.854 1424.62 Z" fill="#000000" fill-rule="evenodd" fill-opacity="1" /><path clip-path="url(#clip290)" d="M 0 0 M270.187 1443.97 L281.645 1443.97 L281.645 1404.42 L269.18 1406.92 L269.18 1400.53 L281.575 1398.03 L288.589 1398.03 L288.589 1443.97 L300.048 1443.97 L300.048 1449.87 L270.187 1449.87 L270.187 1443.97 Z" fill="#000000" fill-rule="evenodd" fill-opacity="1" /><path clip-path="url(#clip290)" d="M 0 0 M307.652 1441.05 L314.978 1441.05 L314.978 1449.87 L307.652 1449.87 L307.652 1441.05 Z" fill="#000000" fill-rule="evenodd" fill-opacity="1" /><path clip-path="url(#clip290)" d="M 0 0 M337.582 1402.65 Q332.165 1402.65 329.422 1407.99 Q326.714 1413.31 326.714 1424 Q326.714 1434.66 329.422 1440.01 Q332.165 1445.32 337.582 1445.32 Q343.033 1445.32 345.742 1440.01 Q348.485 1434.66 348.485 1424 Q348.485 1413.31 345.742 1407.99 Q343.033 1402.65 337.582 1402.65 M337.582 1397.09 Q346.297 1397.09 350.881 1404 Q355.499 1410.87 355.499 1424 Q355.499 1437.09 350.881 1444 Q346.297 1450.87 337.582 1450.87 Q328.867 1450.87 324.249 1444 Q319.665 1437.09 319.665 1424 Q319.665 1410.87 324.249 1404 Q328.867 1397.09 337.582 1397.09 Z" fill="#000000" fill-rule="evenodd" fill-opacity="1" /><path clip-path="url(#clip290)" d="M 0 0 M718.277 1424.62 L762.791 1424.62 L762.791 1430.53 L718.277 1430.53 L718.277 1424.62 Z" fill="#000000" fill-rule="evenodd" fill-opacity="1" /><path clip-path="url(#clip290)" d="M 0 0 M785.395 1402.65 Q779.978 1402.65 777.235 1407.99 Q774.527 1413.31 774.527 1424 Q774.527 1434.66 777.235 1440.01 Q779.978 1445.32 785.395 1445.32 Q790.846 1445.32 793.554 1440.01 Q796.297 1434.66 796.297 1424 Q796.297 1413.31 793.554 1407.99 Q790.846 1402.65 785.395 1402.65 M785.395 1397.09 Q794.11 1397.09 798.693 1404 Q803.311 1410.87 803.311 1424 Q803.311 1437.09 798.693 1444 Q794.11 1450.87 785.395 1450.87 Q776.679 1450.87 772.061 1444 Q767.478 1437.09 767.478 1424 Q767.478 1410.87 772.061 1404 Q776.679 1397.09 785.395 1397.09 Z" fill="#000000" fill-rule="evenodd" fill-opacity="1" /><path clip-path="url(#clip290)" d="M 0 0 M810.915 1441.05 L818.242 1441.05 L818.242 1449.87 L810.915 1449.87 L810.915 1441.05 Z" fill="#000000" fill-rule="evenodd" fill-opacity="1" /><path clip-path="url(#clip290)" d="M 0 0 M825.915 1398.03 L853.45 1398.03 L853.45 1403.93 L832.339 1403.93 L832.339 1416.64 Q833.867 1416.12 835.394 1415.87 Q836.922 1415.6 838.45 1415.6 Q847.13 1415.6 852.2 1420.35 Q857.269 1425.11 857.269 1433.24 Q857.269 1441.6 852.061 1446.26 Q846.853 1450.87 837.374 1450.87 Q834.11 1450.87 830.707 1450.32 Q827.339 1449.76 823.728 1448.65 L823.728 1441.6 Q826.853 1443.31 830.186 1444.14 Q833.519 1444.97 837.235 1444.97 Q843.242 1444.97 846.749 1441.81 Q850.255 1438.65 850.255 1433.24 Q850.255 1427.82 846.749 1424.66 Q843.242 1421.5 837.235 1421.5 Q834.422 1421.5 831.61 1422.12 Q828.832 1422.75 825.915 1424.07 L825.915 1398.03 Z" fill="#000000" fill-rule="evenodd" fill-opacity="1" /><path clip-path="url(#clip290)" d="M 0 0 M1261.64 1402.65 Q1256.23 1402.65 1253.48 1407.99 Q1250.78 1413.31 1250.78 1424 Q1250.78 1434.66 1253.48 1440.01 Q1256.23 1445.32 1261.64 1445.32 Q1267.1 1445.32 1269.8 1440.01 Q1272.55 1434.66 1272.55 1424 Q1272.55 1413.31 1269.8 1407.99 Q1267.1 1402.65 1261.64 1402.65 M1261.64 1397.09 Q1270.36 1397.09 1274.94 1404 Q1279.56 1410.87 1279.56 1424 Q1279.56 1437.09 1274.94 1444 Q1270.36 1450.87 1261.64 1450.87 Q1252.93 1450.87 1248.31 1444 Q1243.73 1437.09 1243.73 1424 Q1243.73 1410.87 1248.31 1404 Q1252.93 1397.09 1261.64 1397.09 Z" fill="#000000" fill-rule="evenodd" fill-opacity="1" /><path clip-path="url(#clip290)" d="M 0 0 M1287.17 1441.05 L1294.49 1441.05 L1294.49 1449.87 L1287.17 1449.87 L1287.17 1441.05 Z" fill="#000000" fill-rule="evenodd" fill-opacity="1" /><path clip-path="url(#clip290)" d="M 0 0 M1317.1 1402.65 Q1311.68 1402.65 1308.94 1407.99 Q1306.23 1413.31 1306.23 1424 Q1306.23 1434.66 1308.94 1440.01 Q1311.68 1445.32 1317.1 1445.32 Q1322.55 1445.32 1325.26 1440.01 Q1328 1434.66 1328 1424 Q1328 1413.31 1325.26 1407.99 Q1322.55 1402.65 1317.1 1402.65 M1317.1 1397.09 Q1325.81 1397.09 1330.39 1404 Q1335.01 1410.87 1335.01 1424 Q1335.01 1437.09 1330.39 1444 Q1325.81 1450.87 1317.1 1450.87 Q1308.38 1450.87 1303.76 1444 Q1299.18 1437.09 1299.18 1424 Q1299.18 1410.87 1303.76 1404 Q1308.38 1397.09 1317.1 1397.09 Z" fill="#000000" fill-rule="evenodd" fill-opacity="1" /><path clip-path="url(#clip290)" d="M 0 0 M1763.99 1402.65 Q1758.57 1402.65 1755.83 1407.99 Q1753.12 1413.31 1753.12 1424 Q1753.12 1434.66 1755.83 1440.01 Q1758.57 1445.32 1763.99 1445.32 Q1769.44 1445.32 1772.15 1440.01 Q1774.89 1434.66 1774.89 1424 Q1774.89 1413.31 1772.15 1407.99 Q1769.44 1402.65 1763.99 1402.65 M1763.99 1397.09 Q1772.7 1397.09 1777.29 1404 Q1781.9 1410.87 1781.9 1424 Q1781.9 1437.09 1777.29 1444 Q1772.7 1450.87 1763.99 1450.87 Q1755.27 1450.87 1750.65 1444 Q1746.07 1437.09 1746.07 1424 Q1746.07 1410.87 1750.65 1404 Q1755.27 1397.09 1763.99 1397.09 Z" fill="#000000" fill-rule="evenodd" fill-opacity="1" /><path clip-path="url(#clip290)" d="M 0 0 M1789.51 1441.05 L1796.84 1441.05 L1796.84 1449.87 L1789.51 1449.87 L1789.51 1441.05 Z" fill="#000000" fill-rule="evenodd" fill-opacity="1" /><path clip-path="url(#clip290)" d="M 0 0 M1804.51 1398.03 L1832.04 1398.03 L1832.04 1403.93 L1810.93 1403.93 L1810.93 1416.64 Q1812.46 1416.12 1813.99 1415.87 Q1815.52 1415.6 1817.04 1415.6 Q1825.72 1415.6 1830.79 1420.35 Q1835.86 1425.11 1835.86 1433.24 Q1835.86 1441.6 1830.65 1446.26 Q1825.45 1450.87 1815.97 1450.87 Q1812.7 1450.87 1809.3 1450.32 Q1805.93 1449.76 1802.32 1448.65 L1802.32 1441.6 Q1805.45 1443.31 1808.78 1444.14 Q1812.11 1444.97 1815.83 1444.97 Q1821.84 1444.97 1825.34 1441.81 Q1828.85 1438.65 1828.85 1433.24 Q1828.85 1427.82 1825.34 1424.66 Q1821.84 1421.5 1815.83 1421.5 Q1813.02 1421.5 1810.2 1422.12 Q1807.43 1422.75 1804.51 1424.07 L1804.51 1398.03 Z" fill="#000000" fill-rule="evenodd" fill-opacity="1" /><path clip-path="url(#clip290)" d="M 0 0 M2250.41 1443.97 L2261.87 1443.97 L2261.87 1404.42 L2249.4 1406.92 L2249.4 1400.53 L2261.8 1398.03 L2268.81 1398.03 L2268.81 1443.97 L2280.27 1443.97 L2280.27 1449.87 L2250.41 1449.87 L2250.41 1443.97 Z" fill="#000000" fill-rule="evenodd" fill-opacity="1" /><path clip-path="url(#clip290)" d="M 0 0 M2287.88 1441.05 L2295.2 1441.05 L2295.2 1449.87 L2287.88 1449.87 L2287.88 1441.05 Z" fill="#000000" fill-rule="evenodd" fill-opacity="1" /><path clip-path="url(#clip290)" d="M 0 0 M2317.81 1402.65 Q2312.39 1402.65 2309.65 1407.99 Q2306.94 1413.31 2306.94 1424 Q2306.94 1434.66 2309.65 1440.01 Q2312.39 1445.32 2317.81 1445.32 Q2323.26 1445.32 2325.97 1440.01 Q2328.71 1434.66 2328.71 1424 Q2328.71 1413.31 2325.97 1407.99 Q2323.26 1402.65 2317.81 1402.65 M2317.81 1397.09 Q2326.52 1397.09 2331.11 1404 Q2335.72 1410.87 2335.72 1424 Q2335.72 1437.09 2331.11 1444 Q2326.52 1450.87 2317.81 1450.87 Q2309.09 1450.87 2304.47 1444 Q2299.89 1437.09 2299.89 1424 Q2299.89 1410.87 2304.47 1404 Q2309.09 1397.09 2317.81 1397.09 Z" fill="#000000" fill-rule="evenodd" fill-opacity="1" /><path clip-path="url(#clip290)" d="M 0 0 M63.3393 1341.88 L107.853 1341.88 L107.853 1347.78 L63.3393 1347.78 L63.3393 1341.88 Z" fill="#000000" fill-rule="evenodd" fill-opacity="1" /><path clip-path="url(#clip290)" d="M 0 0 M116.672 1361.22 L128.131 1361.22 L128.131 1321.67 L115.665 1324.17 L115.665 1317.78 L128.061 1315.28 L135.075 1315.28 L135.075 1361.22 L146.533 1361.22 L146.533 1367.12 L116.672 1367.12 L116.672 1361.22 Z" fill="#000000" fill-rule="evenodd" fill-opacity="1" /><path clip-path="url(#clip290)" d="M 0 0 M154.137 1358.3 L161.464 1358.3 L161.464 1367.12 L154.137 1367.12 L154.137 1358.3 Z" fill="#000000" fill-rule="evenodd" fill-opacity="1" /><path clip-path="url(#clip290)" d="M 0 0 M184.068 1319.9 Q178.651 1319.9 175.908 1325.24 Q173.2 1330.56 173.2 1341.25 Q173.2 1351.91 175.908 1357.26 Q178.651 1362.57 184.068 1362.57 Q189.519 1362.57 192.228 1357.26 Q194.971 1351.91 194.971 1341.25 Q194.971 1330.56 192.228 1325.24 Q189.519 1319.9 184.068 1319.9 M184.068 1314.34 Q192.783 1314.34 197.366 1321.25 Q201.984 1328.13 201.984 1341.25 Q201.984 1354.34 197.366 1361.25 Q192.783 1368.13 184.068 1368.13 Q175.353 1368.13 170.735 1361.25 Q166.151 1354.34 166.151 1341.25 Q166.151 1328.13 170.735 1321.25 Q175.353 1314.34 184.068 1314.34 Z" fill="#000000" fill-rule="evenodd" fill-opacity="1" /><path clip-path="url(#clip290)" d="M 0 0 M62.9921 1054.68 L107.506 1054.68 L107.506 1060.58 L62.9921 1060.58 L62.9921 1054.68 Z" fill="#000000" fill-rule="evenodd" fill-opacity="1" /><path clip-path="url(#clip290)" d="M 0 0 M130.11 1032.7 Q124.693 1032.7 121.95 1038.05 Q119.242 1043.36 119.242 1054.06 Q119.242 1064.72 121.95 1070.06 Q124.693 1075.38 130.11 1075.38 Q135.561 1075.38 138.27 1070.06 Q141.013 1064.72 141.013 1054.06 Q141.013 1043.36 138.27 1038.05 Q135.561 1032.7 130.11 1032.7 M130.11 1027.15 Q138.825 1027.15 143.408 1034.06 Q148.026 1040.93 148.026 1054.06 Q148.026 1067.15 143.408 1074.06 Q138.825 1080.93 130.11 1080.93 Q121.395 1080.93 116.777 1074.06 Q112.193 1067.15 112.193 1054.06 Q112.193 1040.93 116.777 1034.06 Q121.395 1027.15 130.11 1027.15 Z" fill="#000000" fill-rule="evenodd" fill-opacity="1" /><path clip-path="url(#clip290)" d="M 0 0 M155.631 1071.11 L162.957 1071.11 L162.957 1079.93 L155.631 1079.93 L155.631 1071.11 Z" fill="#000000" fill-rule="evenodd" fill-opacity="1" /><path clip-path="url(#clip290)" d="M 0 0 M170.63 1028.09 L198.165 1028.09 L198.165 1033.99 L177.054 1033.99 L177.054 1046.7 Q178.582 1046.18 180.11 1045.93 Q181.637 1045.65 183.165 1045.65 Q191.846 1045.65 196.915 1050.41 Q201.984 1055.17 201.984 1063.29 Q201.984 1071.66 196.776 1076.31 Q191.568 1080.93 182.089 1080.93 Q178.825 1080.93 175.422 1080.38 Q172.054 1079.82 168.443 1078.71 L168.443 1071.66 Q171.568 1073.36 174.901 1074.2 Q178.235 1075.03 181.95 1075.03 Q187.957 1075.03 191.464 1071.87 Q194.971 1068.71 194.971 1063.29 Q194.971 1057.88 191.464 1054.72 Q187.957 1051.56 181.95 1051.56 Q179.137 1051.56 176.325 1052.18 Q173.547 1052.81 170.63 1054.13 L170.63 1028.09 Z" fill="#000000" fill-rule="evenodd" fill-opacity="1" /><path clip-path="url(#clip290)" d="M 0 0 M128.617 745.509 Q123.2 745.509 120.457 750.857 Q117.749 756.169 117.749 766.864 Q117.749 777.523 120.457 782.87 Q123.2 788.183 128.617 788.183 Q134.068 788.183 136.776 782.87 Q139.519 777.523 139.519 766.864 Q139.519 756.169 136.776 750.857 Q134.068 745.509 128.617 745.509 M128.617 739.954 Q137.332 739.954 141.915 746.864 Q146.533 753.739 146.533 766.864 Q146.533 779.954 141.915 786.863 Q137.332 793.738 128.617 793.738 Q119.902 793.738 115.284 786.863 Q110.7 779.954 110.7 766.864 Q110.7 753.739 115.284 746.864 Q119.902 739.954 128.617 739.954 Z" fill="#000000" fill-rule="evenodd" fill-opacity="1" /><path clip-path="url(#clip290)" d="M 0 0 M154.137 783.912 L161.464 783.912 L161.464 792.731 L154.137 792.731 L154.137 783.912 Z" fill="#000000" fill-rule="evenodd" fill-opacity="1" /><path clip-path="url(#clip290)" d="M 0 0 M184.068 745.509 Q178.651 745.509 175.908 750.857 Q173.2 756.169 173.2 766.864 Q173.2 777.523 175.908 782.87 Q178.651 788.183 184.068 788.183 Q189.519 788.183 192.228 782.87 Q194.971 777.523 194.971 766.864 Q194.971 756.169 192.228 750.857 Q189.519 745.509 184.068 745.509 M184.068 739.954 Q192.783 739.954 197.366 746.864 Q201.984 753.739 201.984 766.864 Q201.984 779.954 197.366 786.863 Q192.783 793.738 184.068 793.738 Q175.353 793.738 170.735 786.863 Q166.151 779.954 166.151 766.864 Q166.151 753.739 170.735 746.864 Q175.353 739.954 184.068 739.954 Z" fill="#000000" fill-rule="evenodd" fill-opacity="1" /><path clip-path="url(#clip290)" d="M 0 0 M130.11 458.316 Q124.693 458.316 121.95 463.663 Q119.242 468.976 119.242 479.67 Q119.242 490.33 121.95 495.677 Q124.693 500.989 130.11 500.989 Q135.561 500.989 138.27 495.677 Q141.013 490.33 141.013 479.67 Q141.013 468.976 138.27 463.663 Q135.561 458.316 130.11 458.316 M130.11 452.76 Q138.825 452.76 143.408 459.67 Q148.026 466.545 148.026 479.67 Q148.026 492.76 143.408 499.67 Q138.825 506.545 130.11 506.545 Q121.395 506.545 116.777 499.67 Q112.193 492.76 112.193 479.67 Q112.193 466.545 116.777 459.67 Q121.395 452.76 130.11 452.76 Z" fill="#000000" fill-rule="evenodd" fill-opacity="1" /><path clip-path="url(#clip290)" d="M 0 0 M155.631 496.718 L162.957 496.718 L162.957 505.538 L155.631 505.538 L155.631 496.718 Z" fill="#000000" fill-rule="evenodd" fill-opacity="1" /><path clip-path="url(#clip290)" d="M 0 0 M170.63 453.698 L198.165 453.698 L198.165 459.601 L177.054 459.601 L177.054 472.309 Q178.582 471.788 180.11 471.545 Q181.637 471.267 183.165 471.267 Q191.846 471.267 196.915 476.024 Q201.984 480.781 201.984 488.906 Q201.984 497.274 196.776 501.927 Q191.568 506.545 182.089 506.545 Q178.825 506.545 175.422 505.989 Q172.054 505.434 168.443 504.323 L168.443 497.274 Q171.568 498.975 174.901 499.809 Q178.235 500.642 181.95 500.642 Q187.957 500.642 191.464 497.482 Q194.971 494.323 194.971 488.906 Q194.971 483.489 191.464 480.33 Q187.957 477.17 181.95 477.17 Q179.137 477.17 176.325 477.795 Q173.547 478.42 170.63 479.739 L170.63 453.698 Z" fill="#000000" fill-rule="evenodd" fill-opacity="1" /><path clip-path="url(#clip290)" d="M 0 0 M116.672 212.442 L128.131 212.442 L128.131 172.893 L115.665 175.393 L115.665 169.004 L128.061 166.504 L135.075 166.504 L135.075 212.442 L146.533 212.442 L146.533 218.344 L116.672 218.344 L116.672 212.442 Z" fill="#000000" fill-rule="evenodd" fill-opacity="1" /><path clip-path="url(#clip290)" d="M 0 0 M154.137 209.525 L161.464 209.525 L161.464 218.344 L154.137 218.344 L154.137 209.525 Z" fill="#000000" fill-rule="evenodd" fill-opacity="1" /><path clip-path="url(#clip290)" d="M 0 0 M184.068 171.122 Q178.651 171.122 175.908 176.469 Q173.2 181.782 173.2 192.476 Q173.2 203.136 175.908 208.483 Q178.651 213.796 184.068 213.796 Q189.519 213.796 192.228 208.483 Q194.971 203.136 194.971 192.476 Q194.971 181.782 192.228 176.469 Q189.519 171.122 184.068 171.122 M184.068 165.567 Q192.783 165.567 197.366 172.476 Q201.984 179.351 201.984 192.476 Q201.984 205.567 197.366 212.476 Q192.783 219.351 184.068 219.351 Q175.353 219.351 170.735 212.476 Q166.151 205.567 166.151 192.476 Q166.151 179.351 170.735 172.476 Q175.353 165.567 184.068 165.567 Z" fill="#000000" fill-rule="evenodd" fill-opacity="1" /><path clip-path="url(#clip290)" d="M 0 0 M990.468 85.9116 L990.468 42.7521 L1002.18 42.7521 L1002.18 85.466 Q1002.18 95.5875 1006.13 100.68 Q1010.07 105.709 1017.97 105.709 Q1027.45 105.709 1032.93 99.6615 Q1038.47 93.6141 1038.47 83.1743 L1038.47 42.7521 L1050.18 42.7521 L1050.18 114.048 L1038.47 114.048 L1038.47 103.099 Q1034.2 109.592 1028.54 112.775 Q1022.93 115.894 1015.49 115.894 Q1003.2 115.894 996.834 108.255 Q990.468 100.616 990.468 85.9116 M1019.94 41.0333 L1019.94 41.0333 Z" fill="#000000" fill-rule="evenodd" fill-opacity="1" /><path clip-path="url(#clip290)" d="M 0 0 M1090.6 15.1249 Q1082.07 29.766 1077.93 44.0889 Q1073.8 58.4117 1073.8 73.1165 Q1073.8 87.8213 1077.93 102.271 Q1082.13 116.658 1090.6 131.235 L1080.42 131.235 Q1070.87 116.276 1066.09 101.826 Q1061.38 87.3757 1061.38 73.1165 Q1061.38 58.921 1066.09 44.5345 Q1070.8 30.148 1080.42 15.1249 L1090.6 15.1249 Z" fill="#000000" fill-rule="evenodd" fill-opacity="1" /><path clip-path="url(#clip290)" d="M 0 0 M1162.15 42.7521 L1136.37 77.4452 L1163.49 114.048 L1149.67 114.048 L1128.92 86.0389 L1108.17 114.048 L1094.36 114.048 L1122.05 76.745 L1096.71 42.7521 L1110.53 42.7521 L1129.43 68.1513 L1148.34 42.7521 L1162.15 42.7521 Z" fill="#000000" fill-rule="evenodd" fill-opacity="1" /><path clip-path="url(#clip290)" d="M 0 0 M1178.77 97.8791 L1192.2 97.8791 L1192.2 108.828 L1181.76 129.198 L1173.55 129.198 L1178.77 108.828 L1178.77 97.8791 Z" fill="#000000" fill-rule="evenodd" fill-opacity="1" /><path clip-path="url(#clip290)" d="M 0 0 M1257.51 22.5091 L1257.51 42.7521 L1281.64 42.7521 L1281.64 51.855 L1257.51 51.855 L1257.51 90.5585 Q1257.51 99.2796 1259.87 101.762 Q1262.28 104.245 1269.6 104.245 L1281.64 104.245 L1281.64 114.048 L1269.6 114.048 Q1256.05 114.048 1250.89 109.019 Q1245.73 103.927 1245.73 90.5585 L1245.73 51.855 L1237.14 51.855 L1237.14 42.7521 L1245.73 42.7521 L1245.73 22.5091 L1257.51 22.5091 Z" fill="#000000" fill-rule="evenodd" fill-opacity="1" /><path clip-path="url(#clip290)" d="M 0 0 M1295.45 54.8469 L1377.06 54.8469 L1377.06 65.5413 L1295.45 65.5413 L1295.45 54.8469 M1295.45 80.819 L1377.06 80.819 L1377.06 91.6407 L1295.45 91.6407 L1295.45 80.819 Z" fill="#000000" fill-rule="evenodd" fill-opacity="1" /><path clip-path="url(#clip290)" d="M 0 0 M1402.08 103.226 L1446.95 103.226 L1446.95 114.048 L1386.61 114.048 L1386.61 103.226 Q1393.93 95.6511 1406.53 82.9197 Q1419.2 70.1246 1422.45 66.4325 Q1428.62 59.4939 1431.04 54.7196 Q1433.52 49.8817 1433.52 45.2347 Q1433.52 37.6595 1428.17 32.8852 Q1422.89 28.111 1414.36 28.111 Q1408.31 28.111 1401.57 30.2116 Q1394.88 32.3123 1387.24 36.5774 L1387.24 23.5913 Q1395.01 20.4721 1401.76 18.8807 Q1408.5 17.2893 1414.11 17.2893 Q1428.87 17.2893 1437.66 24.6735 Q1446.44 32.0577 1446.44 44.4072 Q1446.44 50.2636 1444.22 55.5472 Q1442.05 60.767 1436.26 67.8966 Q1434.67 69.7427 1426.14 78.591 Q1417.61 87.3757 1402.08 103.226 Z" fill="#000000" fill-rule="evenodd" fill-opacity="1" /><path clip-path="url(#clip290)" d="M 0 0 M1460.89 97.8791 L1474.33 97.8791 L1474.33 114.048 L1460.89 114.048 L1460.89 97.8791 Z" fill="#000000" fill-rule="evenodd" fill-opacity="1" /><path clip-path="url(#clip290)" d="M 0 0 M1515.77 27.4744 Q1505.84 27.4744 1500.81 37.2776 Q1495.84 47.0171 1495.84 66.6235 Q1495.84 86.1662 1500.81 95.9694 Q1505.84 105.709 1515.77 105.709 Q1525.76 105.709 1530.73 95.9694 Q1535.75 86.1662 1535.75 66.6235 Q1535.75 47.0171 1530.73 37.2776 Q1525.76 27.4744 1515.77 27.4744 M1515.77 17.2893 Q1531.74 17.2893 1540.15 29.957 Q1548.61 42.5611 1548.61 66.6235 Q1548.61 90.6222 1540.15 103.29 Q1531.74 115.894 1515.77 115.894 Q1499.79 115.894 1491.32 103.29 Q1482.92 90.6222 1482.92 66.6235 Q1482.92 42.5611 1491.32 29.957 Q1499.79 17.2893 1515.77 17.2893 Z" fill="#000000" fill-rule="evenodd" fill-opacity="1" /><path clip-path="url(#clip290)" d="M 0 0 M1559.05 15.1249 L1569.24 15.1249 Q1578.79 30.148 1583.5 44.5345 Q1588.27 58.921 1588.27 73.1165 Q1588.27 87.3757 1583.5 101.826 Q1578.79 116.276 1569.24 131.235 L1559.05 131.235 Q1567.52 116.658 1571.66 102.271 Q1575.86 87.8213 1575.86 73.1165 Q1575.86 58.4117 1571.66 44.0889 Q1567.52 29.766 1559.05 15.1249 Z" fill="#000000" fill-rule="evenodd" fill-opacity="1" /><path clip-path="url(#clip290)" d="M 0 0 M1316.56 1512.4 L1295.46 1540.78 L1317.65 1570.73 L1306.35 1570.73 L1289.37 1547.82 L1272.39 1570.73 L1261.09 1570.73 L1283.75 1540.21 L1263.02 1512.4 L1274.32 1512.4 L1289.79 1533.18 L1305.26 1512.4 L1316.56 1512.4 Z" fill="#000000" fill-rule="evenodd" fill-opacity="1" /><circle clip-path="url(#clip292)" cx="286.176" cy="1237.03" r="14" fill="#009af9" fill-rule="evenodd" fill-opacity="1" stroke="#000000" stroke-opacity="1" stroke-width="3.2"/>
<circle clip-path="url(#clip292)" cx="348.876" cy="1228" r="14" fill="#009af9" fill-rule="evenodd" fill-opacity="1" stroke="#000000" stroke-opacity="1" stroke-width="3.2"/>
<circle clip-path="url(#clip292)" cx="411.575" cy="1201.24" r="14" fill="#009af9" fill-rule="evenodd" fill-opacity="1" stroke="#000000" stroke-opacity="1" stroke-width="3.2"/>
<circle clip-path="url(#clip292)" cx="474.275" cy="1157.79" r="14" fill="#009af9" fill-rule="evenodd" fill-opacity="1" stroke="#000000" stroke-opacity="1" stroke-width="3.2"/>
<circle clip-path="url(#clip292)" cx="536.975" cy="1099.31" r="14" fill="#009af9" fill-rule="evenodd" fill-opacity="1" stroke="#000000" stroke-opacity="1" stroke-width="3.2"/>
<circle clip-path="url(#clip292)" cx="599.674" cy="1028.05" r="14" fill="#009af9" fill-rule="evenodd" fill-opacity="1" stroke="#000000" stroke-opacity="1" stroke-width="3.2"/>
<circle clip-path="url(#clip292)" cx="662.374" cy="946.757" r="14" fill="#009af9" fill-rule="evenodd" fill-opacity="1" stroke="#000000" stroke-opacity="1" stroke-width="3.2"/>
<circle clip-path="url(#clip292)" cx="725.073" cy="858.547" r="14" fill="#009af9" fill-rule="evenodd" fill-opacity="1" stroke="#000000" stroke-opacity="1" stroke-width="3.2"/>
<circle clip-path="url(#clip292)" cx="787.773" cy="766.811" r="14" fill="#009af9" fill-rule="evenodd" fill-opacity="1" stroke="#000000" stroke-opacity="1" stroke-width="3.2"/>
<circle clip-path="url(#clip292)" cx="850.473" cy="675.076" r="14" fill="#009af9" fill-rule="evenodd" fill-opacity="1" stroke="#000000" stroke-opacity="1" stroke-width="3.2"/>
<circle clip-path="url(#clip292)" cx="913.172" cy="586.866" r="14" fill="#009af9" fill-rule="evenodd" fill-opacity="1" stroke="#000000" stroke-opacity="1" stroke-width="3.2"/>
<circle clip-path="url(#clip292)" cx="975.872" cy="505.57" r="14" fill="#009af9" fill-rule="evenodd" fill-opacity="1" stroke="#000000" stroke-opacity="1" stroke-width="3.2"/>
<circle clip-path="url(#clip292)" cx="1038.57" cy="434.315" r="14" fill="#009af9" fill-rule="evenodd" fill-opacity="1" stroke="#000000" stroke-opacity="1" stroke-width="3.2"/>
<circle clip-path="url(#clip292)" cx="1101.27" cy="375.837" r="14" fill="#009af9" fill-rule="evenodd" fill-opacity="1" stroke="#000000" stroke-opacity="1" stroke-width="3.2"/>
<circle clip-path="url(#clip292)" cx="1163.97" cy="332.384" r="14" fill="#009af9" fill-rule="evenodd" fill-opacity="1" stroke="#000000" stroke-opacity="1" stroke-width="3.2"/>
<circle clip-path="url(#clip292)" cx="1226.67" cy="305.625" r="14" fill="#009af9" fill-rule="evenodd" fill-opacity="1" stroke="#000000" stroke-opacity="1" stroke-width="3.2"/>
<circle clip-path="url(#clip292)" cx="1289.37" cy="296.59" r="14" fill="#009af9" fill-rule="evenodd" fill-opacity="1" stroke="#000000" stroke-opacity="1" stroke-width="3.2"/>
<circle clip-path="url(#clip292)" cx="1352.07" cy="305.625" r="14" fill="#009af9" fill-rule="evenodd" fill-opacity="1" stroke="#000000" stroke-opacity="1" stroke-width="3.2"/>
<circle clip-path="url(#clip292)" cx="1414.77" cy="332.384" r="14" fill="#009af9" fill-rule="evenodd" fill-opacity="1" stroke="#000000" stroke-opacity="1" stroke-width="3.2"/>
<circle clip-path="url(#clip292)" cx="1477.47" cy="375.837" r="14" fill="#009af9" fill-rule="evenodd" fill-opacity="1" stroke="#000000" stroke-opacity="1" stroke-width="3.2"/>
<circle clip-path="url(#clip292)" cx="1540.17" cy="434.315" r="14" fill="#009af9" fill-rule="evenodd" fill-opacity="1" stroke="#000000" stroke-opacity="1" stroke-width="3.2"/>
<circle clip-path="url(#clip292)" cx="1602.87" cy="505.57" r="14" fill="#009af9" fill-rule="evenodd" fill-opacity="1" stroke="#000000" stroke-opacity="1" stroke-width="3.2"/>
<circle clip-path="url(#clip292)" cx="1665.57" cy="586.866" r="14" fill="#009af9" fill-rule="evenodd" fill-opacity="1" stroke="#000000" stroke-opacity="1" stroke-width="3.2"/>
<circle clip-path="url(#clip292)" cx="1728.27" cy="675.076" r="14" fill="#009af9" fill-rule="evenodd" fill-opacity="1" stroke="#000000" stroke-opacity="1" stroke-width="3.2"/>
<circle clip-path="url(#clip292)" cx="1790.97" cy="766.811" r="14" fill="#009af9" fill-rule="evenodd" fill-opacity="1" stroke="#000000" stroke-opacity="1" stroke-width="3.2"/>
<circle clip-path="url(#clip292)" cx="1853.67" cy="858.547" r="14" fill="#009af9" fill-rule="evenodd" fill-opacity="1" stroke="#000000" stroke-opacity="1" stroke-width="3.2"/>
<circle clip-path="url(#clip292)" cx="1916.37" cy="946.757" r="14" fill="#009af9" fill-rule="evenodd" fill-opacity="1" stroke="#000000" stroke-opacity="1" stroke-width="3.2"/>
<circle clip-path="url(#clip292)" cx="1979.07" cy="1028.05" r="14" fill="#009af9" fill-rule="evenodd" fill-opacity="1" stroke="#000000" stroke-opacity="1" stroke-width="3.2"/>
<circle clip-path="url(#clip292)" cx="2041.77" cy="1099.31" r="14" fill="#009af9" fill-rule="evenodd" fill-opacity="1" stroke="#000000" stroke-opacity="1" stroke-width="3.2"/>
<circle clip-path="url(#clip292)" cx="2104.47" cy="1157.79" r="14" fill="#009af9" fill-rule="evenodd" fill-opacity="1" stroke="#000000" stroke-opacity="1" stroke-width="3.2"/>
<circle clip-path="url(#clip292)" cx="2167.16" cy="1201.24" r="14" fill="#009af9" fill-rule="evenodd" fill-opacity="1" stroke="#000000" stroke-opacity="1" stroke-width="3.2"/>
<circle clip-path="url(#clip292)" cx="2229.86" cy="1228" r="14" fill="#009af9" fill-rule="evenodd" fill-opacity="1" stroke="#000000" stroke-opacity="1" stroke-width="3.2"/>
<polyline clip-path="url(#clip292)" style="stroke:#e26f46; stroke-width:8; stroke-opacity:1; fill:none" points="
  286.176,1237.08 291.075,1237.02 295.973,1236.86 300.872,1236.58 305.77,1236.19 351.064,1227.4 396.358,1209.36 441.651,1182.43 486.945,1147.15 514.165,1122.23 
  541.384,1094.72 568.604,1064.83 595.824,1032.77 641.852,974.307 687.879,911.536 787.877,766.658 880.067,632.776 929.485,564.897 978.904,501.844 1036.16,436.803 
  1093.42,382.343 1118.86,362.009 1144.3,344.244 1169.74,329.16 1195.18,316.853 1239.8,302.198 1284.42,296.6 1333.07,300.939 1381.71,316.069 1430.65,341.823 
  1479.59,377.538 1533.69,427.604 1587.8,487.386 1639.28,551.724 1690.76,621.641 1797.81,776.886 1887.93,907.417 1942.94,982.262 1997.95,1050.73 2049.66,1107.46 
  2101.37,1155.28 2142.79,1186.3 2184.22,1210.27 2225.64,1226.79 2267.06,1235.58 2273.44,1236.24 2279.81,1236.71 2286.19,1236.99 2292.56,1237.08 
  "/>
<polyline clip-path="url(#clip292)" style="stroke:#808080; stroke-width:8; stroke-opacity:1; fill:none" stroke-dasharray="32, 20" points="
  286.176,1341.2 291.075,1341.13 295.973,1340.93 300.872,1340.59 305.77,1340.12 351.064,1329.38 396.358,1307.34 441.651,1274.45 486.945,1231.36 514.165,1200.92 
  541.384,1167.32 568.604,1130.81 595.824,1091.66 641.852,1020.25 687.879,943.579 787.877,766.624 880.067,603.1 929.485,520.193 978.904,443.179 1036.16,363.738 
  1093.42,297.22 1118.86,272.385 1144.3,250.687 1169.74,232.263 1195.18,217.23 1239.8,199.331 1284.42,192.493 1333.07,197.793 1381.71,216.274 1430.65,247.729 
  1479.59,291.351 1533.69,352.503 1587.8,425.52 1639.28,504.103 1690.76,589.499 1797.81,779.117 1887.93,938.547 1942.94,1029.96 1997.95,1113.59 2049.66,1182.88 
  2101.37,1241.28 2142.79,1279.17 2184.22,1308.45 2225.64,1328.63 2267.06,1339.37 2273.44,1340.17 2279.81,1340.74 2286.19,1341.08 2292.56,1341.2 
  "/>
<path clip-path="url(#clip290)" d="
M1591.95 561.5 L2281.86 561.5 L2281.86 198.62 L1591.95 198.62  Z
  " fill="#ffffff" fill-rule="evenodd" fill-opacity="1"/>
<polyline clip-path="url(#clip290)" style="stroke:#000000; stroke-width:4; stroke-opacity:1; fill:none" points="
  1591.95,561.5 2281.86,561.5 2281.86,198.62 1591.95,198.62 1591.95,561.5 
  "/>
<circle clip-path="url(#clip290)" cx="1686.47" cy="289.34" r="34" fill="#009af9" fill-rule="evenodd" fill-opacity="1" stroke="#000000" stroke-opacity="1" stroke-width="7.68"/>
<path clip-path="url(#clip290)" d="M 0 0 M1813.56 291.788 L1813.56 315.26 L1807.17 315.26 L1807.17 291.996 Q1807.17 286.475 1805.02 283.732 Q1802.87 280.989 1798.56 280.989 Q1793.39 280.989 1790.4 284.288 Q1787.42 287.586 1787.42 293.281 L1787.42 315.26 L1780.99 315.26 L1780.99 276.371 L1787.42 276.371 L1787.42 282.413 Q1789.71 278.906 1792.8 277.17 Q1795.92 275.434 1799.99 275.434 Q1806.69 275.434 1810.13 279.6 Q1813.56 283.732 1813.56 291.788 Z" fill="#000000" fill-rule="evenodd" fill-opacity="1" /><path clip-path="url(#clip290)" d="M 0 0 M1819.6 299.913 L1819.6 276.371 L1825.99 276.371 L1825.99 299.67 Q1825.99 305.19 1828.15 307.968 Q1830.3 310.711 1834.6 310.711 Q1839.78 310.711 1842.76 307.413 Q1845.78 304.114 1845.78 298.42 L1845.78 276.371 L1852.17 276.371 L1852.17 315.26 L1845.78 315.26 L1845.78 309.288 Q1843.46 312.829 1840.37 314.565 Q1837.31 316.267 1833.25 316.267 Q1826.55 316.267 1823.08 312.1 Q1819.6 307.933 1819.6 299.913 M1835.68 275.434 L1835.68 275.434 Z" fill="#000000" fill-rule="evenodd" fill-opacity="1" /><path clip-path="url(#clip290)" d="M 0 0 M1889.15 283.836 Q1891.55 279.531 1894.88 277.482 Q1898.21 275.434 1902.73 275.434 Q1908.81 275.434 1912.1 279.704 Q1915.4 283.94 1915.4 291.788 L1915.4 315.26 L1908.98 315.26 L1908.98 291.996 Q1908.98 286.406 1907 283.697 Q1905.02 280.989 1900.96 280.989 Q1895.99 280.989 1893.11 284.288 Q1890.23 287.586 1890.23 293.281 L1890.23 315.26 L1883.81 315.26 L1883.81 291.996 Q1883.81 286.371 1881.83 283.697 Q1879.85 280.989 1875.71 280.989 Q1870.82 280.989 1867.94 284.322 Q1865.06 287.621 1865.06 293.281 L1865.06 315.26 L1858.63 315.26 L1858.63 276.371 L1865.06 276.371 L1865.06 282.413 Q1867.24 278.836 1870.3 277.135 Q1873.35 275.434 1877.56 275.434 Q1881.79 275.434 1884.74 277.586 Q1887.73 279.739 1889.15 283.836 Z" fill="#000000" fill-rule="evenodd" fill-opacity="1" /><path clip-path="url(#clip290)" d="M 0 0 M1955.37 294.218 L1955.37 297.343 L1925.99 297.343 Q1926.41 303.94 1929.95 307.413 Q1933.53 310.85 1939.88 310.85 Q1943.56 310.85 1947 309.947 Q1950.47 309.044 1953.87 307.239 L1953.87 313.281 Q1950.44 314.739 1946.83 315.503 Q1943.21 316.267 1939.5 316.267 Q1930.19 316.267 1924.74 310.85 Q1919.33 305.433 1919.33 296.197 Q1919.33 286.649 1924.46 281.059 Q1929.64 275.434 1938.39 275.434 Q1946.24 275.434 1950.78 280.503 Q1955.37 285.538 1955.37 294.218 M1948.98 292.343 Q1948.91 287.1 1946.03 283.975 Q1943.18 280.85 1938.46 280.85 Q1933.11 280.85 1929.88 283.871 Q1926.69 286.892 1926.2 292.378 L1948.98 292.343 Z" fill="#000000" fill-rule="evenodd" fill-opacity="1" /><path clip-path="url(#clip290)" d="M 0 0 M1984.6 282.343 Q1983.53 281.718 1982.24 281.44 Q1980.99 281.128 1979.46 281.128 Q1974.05 281.128 1971.13 284.67 Q1968.25 288.177 1968.25 294.774 L1968.25 315.26 L1961.83 315.26 L1961.83 276.371 L1968.25 276.371 L1968.25 282.413 Q1970.26 278.871 1973.49 277.17 Q1976.72 275.434 1981.34 275.434 Q1982 275.434 1982.8 275.538 Q1983.6 275.607 1984.57 275.781 L1984.6 282.343 Z" fill="#000000" fill-rule="evenodd" fill-opacity="1" /><path clip-path="url(#clip290)" d="M 0 0 M1991.3 276.371 L1997.69 276.371 L1997.69 315.26 L1991.3 315.26 L1991.3 276.371 M1991.3 261.232 L1997.69 261.232 L1997.69 269.322 L1991.3 269.322 L1991.3 261.232 Z" fill="#000000" fill-rule="evenodd" fill-opacity="1" /><path clip-path="url(#clip290)" d="M 0 0 M2032.38 277.864 L2032.38 283.836 Q2029.67 282.343 2026.93 281.614 Q2024.22 280.85 2021.44 280.85 Q2015.23 280.85 2011.79 284.808 Q2008.35 288.732 2008.35 295.85 Q2008.35 302.968 2011.79 306.926 Q2015.23 310.85 2021.44 310.85 Q2024.22 310.85 2026.93 310.121 Q2029.67 309.357 2032.38 307.864 L2032.38 313.767 Q2029.71 315.017 2026.83 315.642 Q2023.98 316.267 2020.75 316.267 Q2011.96 316.267 2006.79 310.746 Q2001.62 305.225 2001.62 295.85 Q2001.62 286.336 2006.83 280.885 Q2012.07 275.434 2021.17 275.434 Q2024.12 275.434 2026.93 276.059 Q2029.74 276.649 2032.38 277.864 Z" fill="#000000" fill-rule="evenodd" fill-opacity="1" /><path clip-path="url(#clip290)" d="M 0 0 M2056.76 295.711 Q2049.01 295.711 2046.03 297.482 Q2043.04 299.253 2043.04 303.524 Q2043.04 306.926 2045.26 308.94 Q2047.52 310.919 2051.37 310.919 Q2056.69 310.919 2059.88 307.169 Q2063.11 303.385 2063.11 297.135 L2063.11 295.711 L2056.76 295.711 M2069.5 293.072 L2069.5 315.26 L2063.11 315.26 L2063.11 309.357 Q2060.92 312.899 2057.66 314.6 Q2054.39 316.267 2049.67 316.267 Q2043.7 316.267 2040.16 312.933 Q2036.65 309.565 2036.65 303.94 Q2036.65 297.378 2041.03 294.045 Q2045.44 290.711 2054.15 290.711 L2063.11 290.711 L2063.11 290.086 Q2063.11 285.677 2060.19 283.281 Q2057.31 280.85 2052.07 280.85 Q2048.73 280.85 2045.58 281.649 Q2042.42 282.447 2039.5 284.045 L2039.5 278.142 Q2043.01 276.788 2046.3 276.128 Q2049.6 275.434 2052.73 275.434 Q2061.17 275.434 2065.33 279.809 Q2069.5 284.183 2069.5 293.072 Z" fill="#000000" fill-rule="evenodd" fill-opacity="1" /><path clip-path="url(#clip290)" d="M 0 0 M2076.2 261.232 L2082.59 261.232 L2082.59 315.26 L2076.2 315.26 L2076.2 261.232 Z" fill="#000000" fill-rule="evenodd" fill-opacity="1" /><polyline clip-path="url(#clip290)" style="stroke:#e26f46; stroke-width:6; stroke-opacity:1; fill:none" points="
  1615.58,380.06 1757.36,380.06 
  "/>
<path clip-path="url(#clip290)" d="M 0 0 M1801.1 386.431 Q1793.35 386.431 1790.37 388.202 Q1787.38 389.973 1787.38 394.244 Q1787.38 397.646 1789.6 399.66 Q1791.86 401.639 1795.72 401.639 Q1801.03 401.639 1804.22 397.889 Q1807.45 394.105 1807.45 387.855 L1807.45 386.431 L1801.1 386.431 M1813.84 383.792 L1813.84 405.98 L1807.45 405.98 L1807.45 400.077 Q1805.26 403.619 1802 405.32 Q1798.74 406.987 1794.01 406.987 Q1788.04 406.987 1784.5 403.653 Q1780.99 400.285 1780.99 394.66 Q1780.99 388.098 1785.37 384.765 Q1789.78 381.431 1798.49 381.431 L1807.45 381.431 L1807.45 380.806 Q1807.45 376.397 1804.53 374.001 Q1801.65 371.57 1796.41 371.57 Q1793.08 371.57 1789.92 372.369 Q1786.76 373.167 1783.84 374.765 L1783.84 368.862 Q1787.35 367.508 1790.65 366.848 Q1793.94 366.154 1797.07 366.154 Q1805.51 366.154 1809.67 370.529 Q1813.84 374.903 1813.84 383.792 Z" fill="#000000" fill-rule="evenodd" fill-opacity="1" /><path clip-path="url(#clip290)" d="M 0 0 M1852.87 382.508 L1852.87 405.98 L1846.48 405.98 L1846.48 382.716 Q1846.48 377.195 1844.33 374.452 Q1842.17 371.709 1837.87 371.709 Q1832.69 371.709 1829.71 375.008 Q1826.72 378.306 1826.72 384.001 L1826.72 405.98 L1820.3 405.98 L1820.3 367.091 L1826.72 367.091 L1826.72 373.133 Q1829.01 369.626 1832.1 367.89 Q1835.23 366.154 1839.29 366.154 Q1845.99 366.154 1849.43 370.32 Q1852.87 374.452 1852.87 382.508 Z" fill="#000000" fill-rule="evenodd" fill-opacity="1" /><path clip-path="url(#clip290)" d="M 0 0 M1877.24 386.431 Q1869.5 386.431 1866.51 388.202 Q1863.53 389.973 1863.53 394.244 Q1863.53 397.646 1865.75 399.66 Q1868.01 401.639 1871.86 401.639 Q1877.17 401.639 1880.37 397.889 Q1883.6 394.105 1883.6 387.855 L1883.6 386.431 L1877.24 386.431 M1889.99 383.792 L1889.99 405.98 L1883.6 405.98 L1883.6 400.077 Q1881.41 403.619 1878.15 405.32 Q1874.88 406.987 1870.16 406.987 Q1864.19 406.987 1860.65 403.653 Q1857.14 400.285 1857.14 394.66 Q1857.14 388.098 1861.51 384.765 Q1865.92 381.431 1874.64 381.431 L1883.6 381.431 L1883.6 380.806 Q1883.6 376.397 1880.68 374.001 Q1877.8 371.57 1872.56 371.57 Q1869.22 371.57 1866.06 372.369 Q1862.9 373.167 1859.99 374.765 L1859.99 368.862 Q1863.49 367.508 1866.79 366.848 Q1870.09 366.154 1873.21 366.154 Q1881.65 366.154 1885.82 370.529 Q1889.99 374.903 1889.99 383.792 Z" fill="#000000" fill-rule="evenodd" fill-opacity="1" /><path clip-path="url(#clip290)" d="M 0 0 M1896.69 351.952 L1903.08 351.952 L1903.08 405.98 L1896.69 405.98 L1896.69 351.952 Z" fill="#000000" fill-rule="evenodd" fill-opacity="1" /><path clip-path="url(#clip290)" d="M 0 0 M1925.96 409.591 Q1923.25 416.535 1920.68 418.653 Q1918.11 420.771 1913.81 420.771 L1908.7 420.771 L1908.7 415.424 L1912.45 415.424 Q1915.09 415.424 1916.55 414.174 Q1918.01 412.924 1919.78 408.271 L1920.92 405.355 L1905.19 367.091 L1911.96 367.091 L1924.12 397.508 L1936.27 367.091 L1943.04 367.091 L1925.96 409.591 Z" fill="#000000" fill-rule="evenodd" fill-opacity="1" /><path clip-path="url(#clip290)" d="M 0 0 M1956.06 356.049 L1956.06 367.091 L1969.22 367.091 L1969.22 372.056 L1956.06 372.056 L1956.06 393.167 Q1956.06 397.924 1957.35 399.278 Q1958.67 400.633 1962.66 400.633 L1969.22 400.633 L1969.22 405.98 L1962.66 405.98 Q1955.26 405.98 1952.45 403.237 Q1949.64 400.459 1949.64 393.167 L1949.64 372.056 L1944.95 372.056 L1944.95 367.091 L1949.64 367.091 L1949.64 356.049 L1956.06 356.049 Z" fill="#000000" fill-rule="evenodd" fill-opacity="1" /><path clip-path="url(#clip290)" d="M 0 0 M1975.92 367.091 L1982.31 367.091 L1982.31 405.98 L1975.92 405.98 L1975.92 367.091 M1975.92 351.952 L1982.31 351.952 L1982.31 360.042 L1975.92 360.042 L1975.92 351.952 Z" fill="#000000" fill-rule="evenodd" fill-opacity="1" /><path clip-path="url(#clip290)" d="M 0 0 M2017 368.584 L2017 374.556 Q2014.29 373.063 2011.55 372.334 Q2008.84 371.57 2006.06 371.57 Q1999.85 371.57 1996.41 375.528 Q1992.97 379.452 1992.97 386.57 Q1992.97 393.688 1996.41 397.646 Q1999.85 401.57 2006.06 401.57 Q2008.84 401.57 2011.55 400.841 Q2014.29 400.077 2017 398.584 L2017 404.487 Q2014.33 405.737 2011.44 406.362 Q2008.6 406.987 2005.37 406.987 Q1996.58 406.987 1991.41 401.466 Q1986.24 395.945 1986.24 386.57 Q1986.24 377.056 1991.44 371.605 Q1996.69 366.154 2005.78 366.154 Q2008.74 366.154 2011.55 366.779 Q2014.36 367.369 2017 368.584 Z" fill="#000000" fill-rule="evenodd" fill-opacity="1" /><path clip-path="url(#clip290)" d="M 0 0 M2041.37 386.431 Q2033.63 386.431 2030.64 388.202 Q2027.66 389.973 2027.66 394.244 Q2027.66 397.646 2029.88 399.66 Q2032.14 401.639 2035.99 401.639 Q2041.3 401.639 2044.5 397.889 Q2047.73 394.105 2047.73 387.855 L2047.73 386.431 L2041.37 386.431 M2054.12 383.792 L2054.12 405.98 L2047.73 405.98 L2047.73 400.077 Q2045.54 403.619 2042.28 405.32 Q2039.01 406.987 2034.29 406.987 Q2028.32 406.987 2024.78 403.653 Q2021.27 400.285 2021.27 394.66 Q2021.27 388.098 2025.64 384.765 Q2030.05 381.431 2038.77 381.431 L2047.73 381.431 L2047.73 380.806 Q2047.73 376.397 2044.81 374.001 Q2041.93 371.57 2036.69 371.57 Q2033.35 371.57 2030.19 372.369 Q2027.03 373.167 2024.12 374.765 L2024.12 368.862 Q2027.62 367.508 2030.92 366.848 Q2034.22 366.154 2037.35 366.154 Q2045.78 366.154 2049.95 370.529 Q2054.12 374.903 2054.12 383.792 Z" fill="#000000" fill-rule="evenodd" fill-opacity="1" /><path clip-path="url(#clip290)" d="M 0 0 M2060.82 351.952 L2067.21 351.952 L2067.21 405.98 L2060.82 405.98 L2060.82 351.952 Z" fill="#000000" fill-rule="evenodd" fill-opacity="1" /><polyline clip-path="url(#clip290)" style="stroke:#808080; stroke-width:6; stroke-opacity:1; fill:none" stroke-dasharray="24, 15" points="
  1615.58,470.78 1757.36,470.78 
  "/>
<path clip-path="url(#clip290)" d="M 0 0 M1780.99 457.811 L1787.38 457.811 L1787.38 496.7 L1780.99 496.7 L1780.99 457.811 M1780.99 442.672 L1787.38 442.672 L1787.38 450.762 L1780.99 450.762 L1780.99 442.672 Z" fill="#000000" fill-rule="evenodd" fill-opacity="1" /><path clip-path="url(#clip290)" d="M 0 0 M1826.41 473.228 L1826.41 496.7 L1820.02 496.7 L1820.02 473.436 Q1820.02 467.915 1817.87 465.172 Q1815.72 462.429 1811.41 462.429 Q1806.24 462.429 1803.25 465.728 Q1800.26 469.026 1800.26 474.721 L1800.26 496.7 L1793.84 496.7 L1793.84 457.811 L1800.26 457.811 L1800.26 463.853 Q1802.56 460.346 1805.65 458.61 Q1808.77 456.874 1812.83 456.874 Q1819.53 456.874 1822.97 461.04 Q1826.41 465.172 1826.41 473.228 Z" fill="#000000" fill-rule="evenodd" fill-opacity="1" /><path clip-path="url(#clip290)" d="M 0 0 M1833.11 457.811 L1839.5 457.811 L1839.5 496.7 L1833.11 496.7 L1833.11 457.811 M1833.11 442.672 L1839.5 442.672 L1839.5 450.762 L1833.11 450.762 L1833.11 442.672 Z" fill="#000000" fill-rule="evenodd" fill-opacity="1" /><path clip-path="url(#clip290)" d="M 0 0 M1852.52 446.769 L1852.52 457.811 L1865.68 457.811 L1865.68 462.776 L1852.52 462.776 L1852.52 483.887 Q1852.52 488.644 1853.81 489.998 Q1855.12 491.353 1859.12 491.353 L1865.68 491.353 L1865.68 496.7 L1859.12 496.7 Q1851.72 496.7 1848.91 493.957 Q1846.1 491.179 1846.1 483.887 L1846.1 462.776 L1841.41 462.776 L1841.41 457.811 L1846.1 457.811 L1846.1 446.769 L1852.52 446.769 Z" fill="#000000" fill-rule="evenodd" fill-opacity="1" /><path clip-path="url(#clip290)" d="M 0 0 M1872.38 457.811 L1878.77 457.811 L1878.77 496.7 L1872.38 496.7 L1872.38 457.811 M1872.38 442.672 L1878.77 442.672 L1878.77 450.762 L1872.38 450.762 L1872.38 442.672 Z" fill="#000000" fill-rule="evenodd" fill-opacity="1" /><path clip-path="url(#clip290)" d="M 0 0 M1903.15 477.151 Q1895.4 477.151 1892.42 478.922 Q1889.43 480.693 1889.43 484.964 Q1889.43 488.366 1891.65 490.38 Q1893.91 492.359 1897.76 492.359 Q1903.08 492.359 1906.27 488.609 Q1909.5 484.825 1909.5 478.575 L1909.5 477.151 L1903.15 477.151 M1915.89 474.512 L1915.89 496.7 L1909.5 496.7 L1909.5 490.797 Q1907.31 494.339 1904.05 496.04 Q1900.78 497.707 1896.06 497.707 Q1890.09 497.707 1886.55 494.373 Q1883.04 491.005 1883.04 485.38 Q1883.04 478.818 1887.42 475.485 Q1891.83 472.151 1900.54 472.151 L1909.5 472.151 L1909.5 471.526 Q1909.5 467.117 1906.58 464.721 Q1903.7 462.29 1898.46 462.29 Q1895.12 462.29 1891.96 463.089 Q1888.81 463.887 1885.89 465.485 L1885.89 459.582 Q1889.4 458.228 1892.69 457.568 Q1895.99 456.874 1899.12 456.874 Q1907.56 456.874 1911.72 461.249 Q1915.89 465.623 1915.89 474.512 Z" fill="#000000" fill-rule="evenodd" fill-opacity="1" /><path clip-path="url(#clip290)" d="M 0 0 M1922.59 442.672 L1928.98 442.672 L1928.98 496.7 L1922.59 496.7 L1922.59 442.672 Z" fill="#000000" fill-rule="evenodd" fill-opacity="1" /><path clip-path="url(#clip290)" d="M 0 0 M1986.27 459.304 L1986.27 465.276 Q1983.56 463.783 1980.82 463.054 Q1978.11 462.29 1975.33 462.29 Q1969.12 462.29 1965.68 466.248 Q1962.24 470.172 1962.24 477.29 Q1962.24 484.408 1965.68 488.366 Q1969.12 492.29 1975.33 492.29 Q1978.11 492.29 1980.82 491.561 Q1983.56 490.797 1986.27 489.304 L1986.27 495.207 Q1983.6 496.457 1980.71 497.082 Q1977.87 497.707 1974.64 497.707 Q1965.85 497.707 1960.68 492.186 Q1955.51 486.665 1955.51 477.29 Q1955.51 467.776 1960.71 462.325 Q1965.96 456.874 1975.05 456.874 Q1978.01 456.874 1980.82 457.499 Q1983.63 458.089 1986.27 459.304 Z" fill="#000000" fill-rule="evenodd" fill-opacity="1" /><path clip-path="url(#clip290)" d="M 0 0 M2008.04 462.29 Q2002.9 462.29 1999.92 466.318 Q1996.93 470.311 1996.93 477.29 Q1996.93 484.269 1999.88 488.297 Q2002.87 492.29 2008.04 492.29 Q2013.14 492.29 2016.13 488.262 Q2019.12 484.235 2019.12 477.29 Q2019.12 470.38 2016.13 466.353 Q2013.14 462.29 2008.04 462.29 M2008.04 456.874 Q2016.37 456.874 2021.13 462.29 Q2025.89 467.707 2025.89 477.29 Q2025.89 486.839 2021.13 492.29 Q2016.37 497.707 2008.04 497.707 Q1999.67 497.707 1994.92 492.29 Q1990.19 486.839 1990.19 477.29 Q1990.19 467.707 1994.92 462.29 Q1999.67 456.874 2008.04 456.874 Z" fill="#000000" fill-rule="evenodd" fill-opacity="1" /><path clip-path="url(#clip290)" d="M 0 0 M2064.92 473.228 L2064.92 496.7 L2058.53 496.7 L2058.53 473.436 Q2058.53 467.915 2056.37 465.172 Q2054.22 462.429 2049.92 462.429 Q2044.74 462.429 2041.76 465.728 Q2038.77 469.026 2038.77 474.721 L2038.77 496.7 L2032.35 496.7 L2032.35 457.811 L2038.77 457.811 L2038.77 463.853 Q2041.06 460.346 2044.15 458.61 Q2047.28 456.874 2051.34 456.874 Q2058.04 456.874 2061.48 461.04 Q2064.92 465.172 2064.92 473.228 Z" fill="#000000" fill-rule="evenodd" fill-opacity="1" /><path clip-path="url(#clip290)" d="M 0 0 M2097.21 463.714 L2097.21 442.672 L2103.6 442.672 L2103.6 496.7 L2097.21 496.7 L2097.21 490.866 Q2095.19 494.339 2092.1 496.04 Q2089.05 497.707 2084.74 497.707 Q2077.69 497.707 2073.25 492.082 Q2068.84 486.457 2068.84 477.29 Q2068.84 468.123 2073.25 462.499 Q2077.69 456.874 2084.74 456.874 Q2089.05 456.874 2092.1 458.575 Q2095.19 460.242 2097.21 463.714 M2075.44 477.29 Q2075.44 484.339 2078.32 488.366 Q2081.23 492.359 2086.3 492.359 Q2091.37 492.359 2094.29 488.366 Q2097.21 484.339 2097.21 477.29 Q2097.21 470.242 2094.29 466.248 Q2091.37 462.221 2086.3 462.221 Q2081.23 462.221 2078.32 466.248 Q2075.44 470.242 2075.44 477.29 Z" fill="#000000" fill-rule="evenodd" fill-opacity="1" /><path clip-path="url(#clip290)" d="M 0 0 M2110.3 457.811 L2116.69 457.811 L2116.69 496.7 L2110.3 496.7 L2110.3 457.811 M2110.3 442.672 L2116.69 442.672 L2116.69 450.762 L2110.3 450.762 L2110.3 442.672 Z" fill="#000000" fill-rule="evenodd" fill-opacity="1" /><path clip-path="url(#clip290)" d="M 0 0 M2129.71 446.769 L2129.71 457.811 L2142.87 457.811 L2142.87 462.776 L2129.71 462.776 L2129.71 483.887 Q2129.71 488.644 2130.99 489.998 Q2132.31 491.353 2136.3 491.353 L2142.87 491.353 L2142.87 496.7 L2136.3 496.7 Q2128.91 496.7 2126.1 493.957 Q2123.28 491.179 2123.28 483.887 L2123.28 462.776 L2118.6 462.776 L2118.6 457.811 L2123.28 457.811 L2123.28 446.769 L2129.71 446.769 Z" fill="#000000" fill-rule="evenodd" fill-opacity="1" /><path clip-path="url(#clip290)" d="M 0 0 M2149.57 457.811 L2155.96 457.811 L2155.96 496.7 L2149.57 496.7 L2149.57 457.811 M2149.57 442.672 L2155.96 442.672 L2155.96 450.762 L2149.57 450.762 L2149.57 442.672 Z" fill="#000000" fill-rule="evenodd" fill-opacity="1" /><path clip-path="url(#clip290)" d="M 0 0 M2177.73 462.29 Q2172.59 462.29 2169.6 466.318 Q2166.62 470.311 2166.62 477.29 Q2166.62 484.269 2169.57 488.297 Q2172.55 492.29 2177.73 492.29 Q2182.83 492.29 2185.82 488.262 Q2188.8 484.235 2188.8 477.29 Q2188.8 470.38 2185.82 466.353 Q2182.83 462.29 2177.73 462.29 M2177.73 456.874 Q2186.06 456.874 2190.82 462.29 Q2195.57 467.707 2195.57 477.29 Q2195.57 486.839 2190.82 492.29 Q2186.06 497.707 2177.73 497.707 Q2169.36 497.707 2164.6 492.29 Q2159.88 486.839 2159.88 477.29 Q2159.88 467.707 2164.6 462.29 Q2169.36 456.874 2177.73 456.874 Z" fill="#000000" fill-rule="evenodd" fill-opacity="1" /><path clip-path="url(#clip290)" d="M 0 0 M2234.6 473.228 L2234.6 496.7 L2228.21 496.7 L2228.21 473.436 Q2228.21 467.915 2226.06 465.172 Q2223.91 462.429 2219.6 462.429 Q2214.43 462.429 2211.44 465.728 Q2208.46 469.026 2208.46 474.721 L2208.46 496.7 L2202.03 496.7 L2202.03 457.811 L2208.46 457.811 L2208.46 463.853 Q2210.75 460.346 2213.84 458.61 Q2216.96 456.874 2221.03 456.874 Q2227.73 456.874 2231.16 461.04 Q2234.6 465.172 2234.6 473.228 Z" fill="#000000" fill-rule="evenodd" fill-opacity="1" /></svg>
