<?xml version="1.0" encoding="utf-8"?>
<svg xmlns="http://www.w3.org/2000/svg" xmlns:xlink="http://www.w3.org/1999/xlink" width="600" height="400" viewBox="0 0 2400 1600">
<defs>
  <clipPath id="clip260">
    <rect x="0" y="0" width="2400" height="1600"/>
  </clipPath>
</defs>
<path clip-path="url(#clip260)" d="
M0 1600 L2400 1600 L2400 0 L0 0  Z
  " fill="#ffffff" fill-rule="evenodd" fill-opacity="1"/>
<defs>
  <clipPath id="clip261">
    <rect x="480" y="0" width="1681" height="1600"/>
  </clipPath>
</defs>
<path clip-path="url(#clip260)" d="
M158.462 1401.58 L2352.76 1401.58 L2352.76 47.2441 L158.462 47.2441  Z
  " fill="#ffffff" fill-rule="evenodd" fill-opacity="1"/>
<defs>
  <clipPath id="clip262">
    <rect x="158" y="47" width="2195" height="1355"/>
  </clipPath>
</defs>
<polyline clip-path="url(#clip262)" style="stroke:#000000; stroke-width:2; stroke-opacity:0.1; fill:none" points="
  267.955,1401.58 267.955,47.2441 
  "/>
<polyline clip-path="url(#clip262)" style="stroke:#000000; stroke-width:2; stroke-opacity:0.1; fill:none" points="
  602.649,1401.58 602.649,47.2441 
  "/>
<polyline clip-path="url(#clip262)" style="stroke:#000000; stroke-width:2; stroke-opacity:0.1; fill:none" points="
  937.344,1401.58 937.344,47.2441 
  "/>
<polyline clip-path="url(#clip262)" style="stroke:#000000; stroke-width:2; stroke-opacity:0.1; fill:none" points="
  1272.04,1401.58 1272.04,47.2441 
  "/>
<polyline clip-path="url(#clip262)" style="stroke:#000000; stroke-width:2; stroke-opacity:0.1; fill:none" points="
  1606.73,1401.58 1606.73,47.2441 
  "/>
<polyline clip-path="url(#clip262)" style="stroke:#000000; stroke-width:2; stroke-opacity:0.1; fill:none" points="
  1941.43,1401.58 1941.43,47.2441 
  "/>
<polyline clip-path="url(#clip262)" style="stroke:#000000; stroke-width:2; stroke-opacity:0.1; fill:none" points="
  2276.12,1401.58 2276.12,47.2441 
  "/>
<polyline clip-path="url(#clip262)" style="stroke:#000000; stroke-width:2; stroke-opacity:0.1; fill:none" points="
  158.462,1289.4 2352.76,1289.4 
  "/>
<polyline clip-path="url(#clip262)" style="stroke:#000000; stroke-width:2; stroke-opacity:0.1; fill:none" points="
  158.462,994.018 2352.76,994.018 
  "/>
<polyline clip-path="url(#clip262)" style="stroke:#000000; stroke-width:2; stroke-opacity:0.1; fill:none" points="
  158.462,698.632 2352.76,698.632 
  "/>
<polyline clip-path="url(#clip262)" style="stroke:#000000; stroke-width:2; stroke-opacity:0.1; fill:none" points="
  158.462,403.247 2352.76,403.247 
  "/>
<polyline clip-path="url(#clip262)" style="stroke:#000000; stroke-width:2; stroke-opacity:0.1; fill:none" points="
  158.462,107.861 2352.76,107.861 
  "/>
<polyline clip-path="url(#clip260)" style="stroke:#000000; stroke-width:4; stroke-opacity:1; fill:none" points="
  158.462,1401.58 2352.76,1401.58 
  "/>
<polyline clip-path="url(#clip260)" style="stroke:#000000; stroke-width:4; stroke-opacity:1; fill:none" points="
  158.462,1401.58 158.462,47.2441 
  "/>
<polyline clip-path="url(#clip260)" style="stroke:#000000; stroke-width:4; stroke-opacity:1; fill:none" points="
  267.955,1401.58 267.955,1385.33 
  "/>
<polyline clip-path="url(#clip260)" style="stroke:#000000; stroke-width:4; stroke-opacity:1; fill:none" points="
  602.649,1401.58 602.649,1385.33 
  "/>
<polyline clip-path="url(#clip260)" style="stroke:#000000; stroke-width:4; stroke-opacity:1; fill:none" points="
  937.344,1401.58 937.344,1385.33 
  "/>
<polyline clip-path="url(#clip260)" style="stroke:#000000; stroke-width:4; stroke-opacity:1; fill:none" points="
  1272.04,1401.58 1272.04,1385.33 
  "/>
<polyline clip-path="url(#clip260)" style="stroke:#000000; stroke-width:4; stroke-opacity:1; fill:none" points="
  1606.73,1401.58 1606.73,1385.33 
  "/>
<polyline clip-path="url(#clip260)" style="stroke:#000000; stroke-width:4; stroke-opacity:1; fill:none" points="
  1941.43,1401.58 1941.43,1385.33 
  "/>
<polyline clip-path="url(#clip260)" style="stroke:#000000; stroke-width:4; stroke-opacity:1; fill:none" points="
  2276.12,1401.58 2276.12,1385.33 
  "/>
<polyline clip-path="url(#clip260)" style="stroke:#000000; stroke-width:4; stroke-opacity:1; fill:none" points="
  158.462,1289.4 184.793,1289.4 
  "/>
<polyline clip-path="url(#clip260)" style="stroke:#000000; stroke-width:4; stroke-opacity:1; fill:none" points="
  158.462,994.018 184.793,994.018 
  "/>
<polyline clip-path="url(#clip260)" style="stroke:#000000; stroke-width:4; stroke-opacity:1; fill:none" points="
  158.462,698.632 184.793,698.632 
  "/>
<polyline clip-path="url(#clip260)" style="stroke:#000000; stroke-width:4; stroke-opacity:1; fill:none" points="
  158.462,403.247 184.793,403.247 
  "/>
<polyline clip-path="url(#clip260)" style="stroke:#000000; stroke-width:4; stroke-opacity:1; fill:none" points="
  158.462,107.861 184.793,107.861 
  "/>
<path clip-path="url(#clip260)" d="M 0 0 M232.929 1444.38 L270.023 1444.38 L270.023 1449.3 L232.929 1449.3 L232.929 1444.38 Z" fill="#000000" fill-rule="evenodd" fill-opacity="1" /><path clip-path="url(#clip260)" d="M 0 0 M294.068 1442.13 Q298.264 1443.02 300.608 1445.86 Q302.98 1448.7 302.98 1452.86 Q302.98 1459.26 298.582 1462.76 Q294.184 1466.26 286.082 1466.26 Q283.363 1466.26 280.469 1465.71 Q277.604 1465.19 274.537 1464.12 L274.537 1458.48 Q276.968 1459.89 279.861 1460.62 Q282.755 1461.34 285.909 1461.34 Q291.406 1461.34 294.271 1459.17 Q297.165 1457 297.165 1452.86 Q297.165 1449.04 294.474 1446.9 Q291.812 1444.73 287.037 1444.73 L282.003 1444.73 L282.003 1439.93 L287.269 1439.93 Q291.58 1439.93 293.866 1438.22 Q296.152 1436.48 296.152 1433.24 Q296.152 1429.92 293.779 1428.15 Q291.435 1426.36 287.037 1426.36 Q284.636 1426.36 281.887 1426.88 Q279.138 1427.4 275.839 1428.5 L275.839 1423.29 Q279.167 1422.36 282.06 1421.9 Q284.983 1421.44 287.558 1421.44 Q294.213 1421.44 298.09 1424.48 Q301.968 1427.49 301.968 1432.64 Q301.968 1436.22 299.913 1438.71 Q297.859 1441.17 294.068 1442.13 Z" fill="#000000" fill-rule="evenodd" fill-opacity="1" /><path clip-path="url(#clip260)" d="M 0 0 M568.216 1444.38 L605.311 1444.38 L605.311 1449.3 L568.216 1449.3 L568.216 1444.38 Z" fill="#000000" fill-rule="evenodd" fill-opacity="1" /><path clip-path="url(#clip260)" d="M 0 0 M616.683 1460.5 L637.082 1460.5 L637.082 1465.42 L609.651 1465.42 L609.651 1460.5 Q612.979 1457.06 618.708 1451.27 Q624.466 1445.45 625.942 1443.78 Q628.748 1440.62 629.848 1438.45 Q630.976 1436.25 630.976 1434.14 Q630.976 1430.7 628.546 1428.53 Q626.144 1426.36 622.267 1426.36 Q619.518 1426.36 616.451 1427.31 Q613.413 1428.27 609.941 1430.21 L609.941 1424.3 Q613.471 1422.89 616.538 1422.16 Q619.605 1421.44 622.151 1421.44 Q628.864 1421.44 632.857 1424.8 Q636.85 1428.15 636.85 1433.76 Q636.85 1436.43 635.838 1438.83 Q634.854 1441.2 632.221 1444.44 Q631.497 1445.28 627.62 1449.3 Q623.743 1453.3 616.683 1460.5 Z" fill="#000000" fill-rule="evenodd" fill-opacity="1" /><path clip-path="url(#clip260)" d="M 0 0 M902.679 1444.38 L939.774 1444.38 L939.774 1449.3 L902.679 1449.3 L902.679 1444.38 Z" fill="#000000" fill-rule="evenodd" fill-opacity="1" /><path clip-path="url(#clip260)" d="M 0 0 M947.124 1460.5 L956.672 1460.5 L956.672 1427.54 L946.284 1429.63 L946.284 1424.3 L956.614 1422.22 L962.459 1422.22 L962.459 1460.5 L972.008 1460.5 L972.008 1465.42 L947.124 1465.42 L947.124 1460.5 Z" fill="#000000" fill-rule="evenodd" fill-opacity="1" /><path clip-path="url(#clip260)" d="M 0 0 M1272.04 1426.07 Q1267.52 1426.07 1265.24 1430.52 Q1262.98 1434.95 1262.98 1443.86 Q1262.98 1452.75 1265.24 1457.2 Q1267.52 1461.63 1272.04 1461.63 Q1276.58 1461.63 1278.84 1457.2 Q1281.12 1452.75 1281.12 1443.86 Q1281.12 1434.95 1278.84 1430.52 Q1276.58 1426.07 1272.04 1426.07 M1272.04 1421.44 Q1279.3 1421.44 1283.12 1427.2 Q1286.97 1432.93 1286.97 1443.86 Q1286.97 1454.77 1283.12 1460.53 Q1279.3 1466.26 1272.04 1466.26 Q1264.78 1466.26 1260.93 1460.53 Q1257.11 1454.77 1257.11 1443.86 Q1257.11 1432.93 1260.93 1427.2 Q1264.78 1421.44 1272.04 1421.44 Z" fill="#000000" fill-rule="evenodd" fill-opacity="1" /><path clip-path="url(#clip260)" d="M 0 0 M1594.71 1460.5 L1604.26 1460.5 L1604.26 1427.54 L1593.87 1429.63 L1593.87 1424.3 L1604.2 1422.22 L1610.05 1422.22 L1610.05 1460.5 L1619.59 1460.5 L1619.59 1465.42 L1594.71 1465.42 L1594.71 1460.5 Z" fill="#000000" fill-rule="evenodd" fill-opacity="1" /><path clip-path="url(#clip260)" d="M 0 0 M1934.74 1460.5 L1955.14 1460.5 L1955.14 1465.42 L1927.71 1465.42 L1927.71 1460.5 Q1931.04 1457.06 1936.77 1451.27 Q1942.53 1445.45 1944 1443.78 Q1946.81 1440.62 1947.91 1438.45 Q1949.04 1436.25 1949.04 1434.14 Q1949.04 1430.7 1946.61 1428.53 Q1944.2 1426.36 1940.33 1426.36 Q1937.58 1426.36 1934.51 1427.31 Q1931.47 1428.27 1928 1430.21 L1928 1424.3 Q1931.53 1422.89 1934.6 1422.16 Q1937.67 1421.44 1940.21 1421.44 Q1946.92 1421.44 1950.92 1424.8 Q1954.91 1428.15 1954.91 1433.76 Q1954.91 1436.43 1953.9 1438.83 Q1952.91 1441.2 1950.28 1444.44 Q1949.56 1445.28 1945.68 1449.3 Q1941.8 1453.3 1934.74 1460.5 Z" fill="#000000" fill-rule="evenodd" fill-opacity="1" /><path clip-path="url(#clip260)" d="M 0 0 M2281.43 1442.13 Q2285.63 1443.02 2287.97 1445.86 Q2290.34 1448.7 2290.34 1452.86 Q2290.34 1459.26 2285.94 1462.76 Q2281.55 1466.26 2273.45 1466.26 Q2270.73 1466.26 2267.83 1465.71 Q2264.97 1465.19 2261.9 1464.12 L2261.9 1458.48 Q2264.33 1459.89 2267.22 1460.62 Q2270.12 1461.34 2273.27 1461.34 Q2278.77 1461.34 2281.63 1459.17 Q2284.53 1457 2284.53 1452.86 Q2284.53 1449.04 2281.84 1446.9 Q2279.17 1444.73 2274.4 1444.73 L2269.37 1444.73 L2269.37 1439.93 L2274.63 1439.93 Q2278.94 1439.93 2281.23 1438.22 Q2283.51 1436.48 2283.51 1433.24 Q2283.51 1429.92 2281.14 1428.15 Q2278.8 1426.36 2274.4 1426.36 Q2272 1426.36 2269.25 1426.88 Q2266.5 1427.4 2263.2 1428.5 L2263.2 1423.29 Q2266.53 1422.36 2269.42 1421.9 Q2272.35 1421.44 2274.92 1421.44 Q2281.58 1421.44 2285.45 1424.48 Q2289.33 1427.49 2289.33 1432.64 Q2289.33 1436.22 2287.28 1438.71 Q2285.22 1441.17 2281.43 1442.13 Z" fill="#000000" fill-rule="evenodd" fill-opacity="1" /><path clip-path="url(#clip260)" d="M 0 0 M62.9921 1289.97 L100.087 1289.97 L100.087 1294.89 L62.9921 1294.89 L62.9921 1289.97 Z" fill="#000000" fill-rule="evenodd" fill-opacity="1" /><path clip-path="url(#clip260)" d="M 0 0 M122.483 1272.9 L107.726 1295.96 L122.483 1295.96 L122.483 1272.9 M120.949 1267.8 L128.298 1267.8 L128.298 1295.96 L134.462 1295.96 L134.462 1300.82 L128.298 1300.82 L128.298 1311 L122.483 1311 L122.483 1300.82 L102.98 1300.82 L102.98 1295.18 L120.949 1267.8 Z" fill="#000000" fill-rule="evenodd" fill-opacity="1" /><path clip-path="url(#clip260)" d="M 0 0 M65.5963 994.582 L102.691 994.582 L102.691 999.501 L65.5963 999.501 L65.5963 994.582 Z" fill="#000000" fill-rule="evenodd" fill-opacity="1" /><path clip-path="url(#clip260)" d="M 0 0 M114.062 1010.7 L134.462 1010.7 L134.462 1015.62 L107.031 1015.62 L107.031 1010.7 Q110.359 1007.26 116.088 1001.47 Q121.846 995.653 123.322 993.974 Q126.128 990.82 127.228 988.65 Q128.356 986.451 128.356 984.339 Q128.356 980.896 125.926 978.726 Q123.524 976.555 119.647 976.555 Q116.898 976.555 113.831 977.51 Q110.793 978.465 107.321 980.404 L107.321 974.501 Q110.851 973.083 113.918 972.36 Q116.985 971.637 119.531 971.637 Q126.244 971.637 130.237 974.993 Q134.23 978.349 134.23 983.963 Q134.23 986.625 133.217 989.026 Q132.234 991.399 129.601 994.64 Q128.877 995.479 125 999.501 Q121.123 1003.49 114.062 1010.7 Z" fill="#000000" fill-rule="evenodd" fill-opacity="1" /><path clip-path="url(#clip260)" d="M 0 0 M119.531 680.881 Q115.017 680.881 112.731 685.337 Q110.475 689.764 110.475 698.676 Q110.475 707.559 112.731 712.015 Q115.017 716.442 119.531 716.442 Q124.074 716.442 126.331 712.015 Q128.617 707.559 128.617 698.676 Q128.617 689.764 126.331 685.337 Q124.074 680.881 119.531 680.881 M119.531 676.251 Q126.794 676.251 130.613 682.009 Q134.462 687.738 134.462 698.676 Q134.462 709.584 130.613 715.342 Q126.794 721.071 119.531 721.071 Q112.268 721.071 108.42 715.342 Q104.601 709.584 104.601 698.676 Q104.601 687.738 108.42 682.009 Q112.268 676.251 119.531 676.251 Z" fill="#000000" fill-rule="evenodd" fill-opacity="1" /><path clip-path="url(#clip260)" d="M 0 0 M114.062 419.928 L134.462 419.928 L134.462 424.847 L107.031 424.847 L107.031 419.928 Q110.359 416.485 116.088 410.698 Q121.846 404.882 123.322 403.203 Q126.128 400.049 127.228 397.879 Q128.356 395.68 128.356 393.568 Q128.356 390.125 125.926 387.955 Q123.524 385.785 119.647 385.785 Q116.898 385.785 113.831 386.739 Q110.793 387.694 107.321 389.633 L107.321 383.73 Q110.851 382.312 113.918 381.589 Q116.985 380.866 119.531 380.866 Q126.244 380.866 130.237 384.222 Q134.23 387.578 134.23 393.192 Q134.23 395.854 133.217 398.256 Q132.234 400.628 129.601 403.869 Q128.877 404.708 125 408.73 Q121.123 412.723 114.062 419.928 Z" fill="#000000" fill-rule="evenodd" fill-opacity="1" /><path clip-path="url(#clip260)" d="M 0 0 M122.483 91.3539 L107.726 114.415 L122.483 114.415 L122.483 91.3539 M120.949 86.2613 L128.298 86.2613 L128.298 114.415 L134.462 114.415 L134.462 119.276 L128.298 119.276 L128.298 129.461 L122.483 129.461 L122.483 119.276 L102.98 119.276 L102.98 113.634 L120.949 86.2613 Z" fill="#000000" fill-rule="evenodd" fill-opacity="1" /><path clip-path="url(#clip260)" d="M 0 0 M1276.75 1517.59 L1260.35 1539.66 L1277.61 1562.96 L1268.81 1562.96 L1255.61 1545.13 L1242.4 1562.96 L1233.61 1562.96 L1251.23 1539.22 L1235.11 1517.59 L1243.9 1517.59 L1255.93 1533.75 L1267.96 1517.59 L1276.75 1517.59 Z" fill="#000000" fill-rule="evenodd" fill-opacity="1" /><polyline clip-path="url(#clip262)" style="stroke:#009af9; stroke-width:8; stroke-opacity:1; fill:none" points="
  220.564,772.479 253.423,734.946 286.281,683.14 319.14,623.817 351.999,565.938 384.857,518.746 417.716,489.755 450.574,483.111 483.433,498.722 516.291,532.341 
  549.15,576.589 582.008,622.678 614.867,662.423 647.726,690.069 680.584,703.514 713.443,704.63 746.301,698.632 779.16,692.635 812.018,693.751 844.877,707.195 
  877.735,734.842 910.594,774.587 943.453,820.676 976.311,864.924 1009.17,898.542 1042.03,914.154 1074.89,907.51 1107.75,878.518 1140.6,831.327 1173.46,773.448 
  1206.32,714.125 1239.18,662.319 1272.04,624.786 1304.9,604.692 1337.76,601.086 1370.61,609.34 1403.47,622.458 1436.33,632.914 1469.19,634.609 1502.05,624.444 
  1534.91,603.157 1567.77,575.214 1600.62,547.775 1633.48,528.983 1666.34,525.973 1699.2,543.088 1732.06,580.712 1764.92,635.008 1797.77,698.632 1830.63,762.257 
  1863.49,816.553 1896.35,854.177 1929.21,871.292 1962.07,868.282 1994.93,849.489 2027.78,822.051 2060.64,794.108 2093.5,772.821 2126.36,762.655 2159.22,764.35 
  2192.08,774.807 2224.94,787.924 2257.79,796.179 2290.65,792.572 
  "/>
<polyline clip-path="url(#clip262)" style="stroke:#e26f46; stroke-width:8; stroke-opacity:1; fill:none" points="
  220.564,403.247 253.423,234.868 286.281,118.727 319.14,85.5744 351.999,148.637 384.857,300.287 417.716,513.56 450.574,748.188 483.433,959.719 516.291,1109.59 
  549.15,1173.81 582.008,1148.16 614.867,1048.8 647.726,908.045 680.584,766.399 713.443,662.709 746.301,624.786 779.16,662.709 812.018,766.399 844.877,908.045 
  877.735,1048.8 910.594,1148.16 943.453,1173.81 976.311,1109.59 1009.17,959.719 1042.03,748.188 1074.89,513.56 1107.75,300.287 1140.6,148.637 1173.46,85.5744 
  1206.32,118.727 1239.18,234.868 1272.04,403.247 1304.9,582.977 1337.76,732.737 1370.61,820.482 1403.47,830.889 1436.33,768.763 1469.19,657.627 1502.05,533.823 
  1534.91,437.546 1567.77,402.926 1600.62,449.534 1633.48,577.32 1666.34,766.202 1699.2,980.427 1732.06,1176.67 1764.92,1313.98 1797.77,1363.25 1830.63,1313.98 
  1863.49,1176.67 1896.35,980.427 1929.21,766.202 1962.07,577.32 1994.93,449.534 2027.78,402.926 2060.64,437.546 2093.5,533.823 2126.36,657.627 2159.22,768.763 
  2192.08,830.889 2224.94,820.482 2257.79,732.737 2290.65,582.977 
  "/>
<path clip-path="url(#clip260)" d="
M1897.49 319.189 L2279.61 319.189 L2279.61 92.3886 L1897.49 92.3886  Z
  " fill="#ffffff" fill-rule="evenodd" fill-opacity="1"/>
<polyline clip-path="url(#clip260)" style="stroke:#000000; stroke-width:4; stroke-opacity:1; fill:none" points="
  1897.49,319.189 2279.61,319.189 2279.61,92.3886 1897.49,92.3886 1897.49,319.189 
  "/>
<polyline clip-path="url(#clip260)" style="stroke:#009af9; stroke-width:5; stroke-opacity:1; fill:none" points="
  1921.87,167.989 2068.16,167.989 
  "/>
<path clip-path="url(#clip260)" d="M 0 0 M2092.54 176.799 L2092.54 157.181 L2097.87 157.181 L2097.87 176.597 Q2097.87 181.197 2099.66 183.512 Q2101.45 185.798 2105.04 185.798 Q2109.35 185.798 2111.84 183.049 Q2114.36 180.3 2114.36 175.555 L2114.36 157.181 L2119.68 157.181 L2119.68 189.589 L2114.36 189.589 L2114.36 184.612 Q2112.42 187.563 2109.84 189.01 Q2107.3 190.428 2103.91 190.428 Q2098.33 190.428 2095.43 186.956 Q2092.54 183.483 2092.54 176.799 M2105.94 156.4 L2105.94 156.4 Z" fill="#000000" fill-rule="evenodd" fill-opacity="1" /><polyline clip-path="url(#clip260)" style="stroke:#e26f46; stroke-width:5; stroke-opacity:1; fill:none" points="
  1921.87,243.589 2068.16,243.589 
  "/>
<path clip-path="url(#clip260)" d="M 0 0 M2102.44 266.028 Q2098.36 266.028 2095.7 263.568 Q2092.54 260.646 2092.54 255.351 Q2092.54 249.853 2095.32 245.571 Q2098.18 241.173 2103.33 241.173 Q2106.72 241.173 2109.38 243.285 Q2110.94 244.529 2112.01 246.612 Q2112.39 244.269 2112.39 241.607 Q2112.39 237.7 2111.46 235.443 Q2109.41 230.438 2103.97 230.438 Q2101.92 230.438 2098.73 231.711 L2098.73 226.85 Q2102.09 225.953 2105.1 225.953 Q2112.85 225.953 2116.15 233.071 Q2117.69 236.427 2117.69 241.433 Q2117.69 244.703 2116.96 248.493 Q2115.14 257.984 2110.42 262.498 Q2106.72 266.028 2102.44 266.028 M2097.49 256.219 Q2097.49 259.112 2098.76 260.675 Q2100.12 262.324 2102.21 262.324 Q2104.06 262.324 2105.53 261.022 Q2107.62 259.228 2109.15 256.306 Q2110.42 253.904 2111.06 251.329 Q2108.48 245.108 2104.03 245.108 Q2100.21 245.108 2098.53 250.142 Q2097.49 253.267 2097.49 256.219 Z" fill="#000000" fill-rule="evenodd" fill-opacity="1" /><path clip-path="url(#clip260)" d="M 0 0 M2122.72 252.399 L2122.72 232.781 L2128.04 232.781 L2128.04 252.197 Q2128.04 256.797 2129.84 259.112 Q2131.63 261.398 2135.22 261.398 Q2139.53 261.398 2142.02 258.649 Q2144.54 255.9 2144.54 251.155 L2144.54 232.781 L2149.86 232.781 L2149.86 265.189 L2144.54 265.189 L2144.54 260.212 Q2142.6 263.163 2140.02 264.61 Q2137.48 266.028 2134.09 266.028 Q2128.51 266.028 2125.61 262.556 Q2122.72 259.083 2122.72 252.399 M2136.12 232 L2136.12 232 Z" fill="#000000" fill-rule="evenodd" fill-opacity="1" /><path clip-path="url(#clip260)" d="M 0 0 M2164.91 221.989 L2169.83 221.989 L2154.78 270.686 L2149.86 270.686 L2164.91 221.989 Z" fill="#000000" fill-rule="evenodd" fill-opacity="1" /><path clip-path="url(#clip260)" d="M 0 0 M2182.47 266.028 Q2178.39 266.028 2175.73 263.568 Q2172.58 260.646 2172.58 255.351 Q2172.58 249.853 2175.35 245.571 Q2178.22 241.173 2183.37 241.173 Q2186.75 241.173 2189.42 243.285 Q2190.98 244.529 2192.05 246.612 Q2192.42 244.269 2192.42 241.607 Q2192.42 237.7 2191.5 235.443 Q2189.44 230.438 2184 230.438 Q2181.95 230.438 2178.77 231.711 L2178.77 226.85 Q2182.12 225.953 2185.13 225.953 Q2192.89 225.953 2196.19 233.071 Q2197.72 236.427 2197.72 241.433 Q2197.72 244.703 2197 248.493 Q2195.17 257.984 2190.46 262.498 Q2186.75 266.028 2182.47 266.028 M2177.52 256.219 Q2177.52 259.112 2178.8 260.675 Q2180.16 262.324 2182.24 262.324 Q2184.09 262.324 2185.57 261.022 Q2187.65 259.228 2189.18 256.306 Q2190.46 253.904 2191.09 251.329 Q2188.52 245.108 2184.06 245.108 Q2180.24 245.108 2178.57 250.142 Q2177.52 253.267 2177.52 256.219 Z" fill="#000000" fill-rule="evenodd" fill-opacity="1" /><path clip-path="url(#clip260)" d="M 0 0 M2230.24 232.781 L2218.52 248.551 L2230.85 265.189 L2224.57 265.189 L2215.14 252.457 L2205.71 265.189 L2199.43 265.189 L2212.01 248.233 L2200.5 232.781 L2206.78 232.781 L2215.37 244.326 L2223.96 232.781 L2230.24 232.781 Z" fill="#000000" fill-rule="evenodd" fill-opacity="1" /></svg>
