<?xml version="1.0" encoding="utf-8"?>
<svg xmlns="http://www.w3.org/2000/svg" xmlns:xlink="http://www.w3.org/1999/xlink" width="600" height="400" viewBox="0 0 2400 1600">
<defs>
  <clipPath id="clip200">
    <rect x="0" y="0" width="2400" height="1600"/>
  </clipPath>
</defs>
<path clip-path="url(#clip200)" d="
M0 1600 L2400 1600 L2400 0 L0 0  Z
  " fill="#ffffff" fill-rule="evenodd" fill-opacity="1"/>
<defs>
  <clipPath id="clip201">
    <rect x="480" y="0" width="1681" height="1600"/>
  </clipPath>
</defs>
<path clip-path="url(#clip200)" d="
M202.819 1401.58 L2352.76 1401.58 L2352.76 47.2441 L202.819 47.2441  Z
  " fill="#ffffff" fill-rule="evenodd" fill-opacity="1"/>
<defs>
  <clipPath id="clip202">
    <rect x="202" y="47" width="2151" height="1355"/>
  </clipPath>
</defs>
<polyline clip-path="url(#clip202)" style="stroke:#000000; stroke-width:2; stroke-opacity:0.1; fill:none" points="
  310.099,1401.58 310.099,47.2441 
  "/>
<polyline clip-path="url(#clip202)" style="stroke:#000000; stroke-width:2; stroke-opacity:0.1; fill:none" points="
  638.027,1401.58 638.027,47.2441 
  "/>
<polyline clip-path="url(#clip202)" style="stroke:#000000; stroke-width:2; stroke-opacity:0.1; fill:none" points="
  965.956,1401.58 965.956,47.2441 
  "/>
<polyline clip-path="url(#clip202)" style="stroke:#000000; stroke-width:2; stroke-opacity:0.1; fill:none" points="
  1293.88,1401.58 1293.88,47.2441 
  "/>
<polyline clip-path="url(#clip202)" style="stroke:#000000; stroke-width:2; stroke-opacity:0.1; fill:none" points="
  1621.81,1401.58 1621.81,47.2441 
  "/>
<polyline clip-path="url(#clip202)" style="stroke:#000000; stroke-width:2; stroke-opacity:0.1; fill:none" points="
  1949.74,1401.58 1949.74,47.2441 
  "/>
<polyline clip-path="url(#clip202)" style="stroke:#000000; stroke-width:2; stroke-opacity:0.1; fill:none" points="
  2277.67,1401.58 2277.67,47.2441 
  "/>
<polyline clip-path="url(#clip202)" style="stroke:#000000; stroke-width:2; stroke-opacity:0.1; fill:none" points="
  202.819,1381.09 2352.76,1381.09 
  "/>
<polyline clip-path="url(#clip202)" style="stroke:#000000; stroke-width:2; stroke-opacity:0.1; fill:none" points="
  202.819,1162.2 2352.76,1162.2 
  "/>
<polyline clip-path="url(#clip202)" style="stroke:#000000; stroke-width:2; stroke-opacity:0.1; fill:none" points="
  202.819,943.304 2352.76,943.304 
  "/>
<polyline clip-path="url(#clip202)" style="stroke:#000000; stroke-width:2; stroke-opacity:0.1; fill:none" points="
  202.819,724.412 2352.76,724.412 
  "/>
<polyline clip-path="url(#clip202)" style="stroke:#000000; stroke-width:2; stroke-opacity:0.1; fill:none" points="
  202.819,505.52 2352.76,505.52 
  "/>
<polyline clip-path="url(#clip202)" style="stroke:#000000; stroke-width:2; stroke-opacity:0.1; fill:none" points="
  202.819,286.629 2352.76,286.629 
  "/>
<polyline clip-path="url(#clip202)" style="stroke:#000000; stroke-width:2; stroke-opacity:0.1; fill:none" points="
  202.819,67.7371 2352.76,67.7371 
  "/>
<polyline clip-path="url(#clip200)" style="stroke:#000000; stroke-width:4; stroke-opacity:1; fill:none" points="
  202.819,1401.58 2352.76,1401.58 
  "/>
<polyline clip-path="url(#clip200)" style="stroke:#000000; stroke-width:4; stroke-opacity:1; fill:none" points="
  202.819,1401.58 202.819,47.2441 
  "/>
<polyline clip-path="url(#clip200)" style="stroke:#000000; stroke-width:4; stroke-opacity:1; fill:none" points="
  310.099,1401.58 310.099,1385.33 
  "/>
<polyline clip-path="url(#clip200)" style="stroke:#000000; stroke-width:4; stroke-opacity:1; fill:none" points="
  638.027,1401.58 638.027,1385.33 
  "/>
<polyline clip-path="url(#clip200)" style="stroke:#000000; stroke-width:4; stroke-opacity:1; fill:none" points="
  965.956,1401.58 965.956,1385.33 
  "/>
<polyline clip-path="url(#clip200)" style="stroke:#000000; stroke-width:4; stroke-opacity:1; fill:none" points="
  1293.88,1401.58 1293.88,1385.33 
  "/>
<polyline clip-path="url(#clip200)" style="stroke:#000000; stroke-width:4; stroke-opacity:1; fill:none" points="
  1621.81,1401.58 1621.81,1385.33 
  "/>
<polyline clip-path="url(#clip200)" style="stroke:#000000; stroke-width:4; stroke-opacity:1; fill:none" points="
  1949.74,1401.58 1949.74,1385.33 
  "/>
<polyline clip-path="url(#clip200)" style="stroke:#000000; stroke-width:4; stroke-opacity:1; fill:none" points="
  2277.67,1401.58 2277.67,1385.33 
  "/>
<polyline clip-path="url(#clip200)" style="stroke:#000000; stroke-width:4; stroke-opacity:1; fill:none" points="
  202.819,1381.09 228.618,1381.09 
  "/>
<polyline clip-path="url(#clip200)" style="stroke:#000000; stroke-width:4; stroke-opacity:1; fill:none" points="
  202.819,1162.2 228.618,1162.2 
  "/>
<polyline clip-path="url(#clip200)" style="stroke:#000000; stroke-width:4; stroke-opacity:1; fill:none" points="
  202.819,943.304 228.618,943.304 
  "/>
<polyline clip-path="url(#clip200)" style="stroke:#000000; stroke-width:4; stroke-opacity:1; fill:none" points="
  202.819,724.412 228.618,724.412 
  "/>
<polyline clip-path="url(#clip200)" style="stroke:#000000; stroke-width:4; stroke-opacity:1; fill:none" points="
  202.819,505.52 228.618,505.52 
  "/>
<polyline clip-path="url(#clip200)" style="stroke:#000000; stroke-width:4; stroke-opacity:1; fill:none" points="
  202.819,286.629 228.618,286.629 
  "/>
<polyline clip-path="url(#clip200)" style="stroke:#000000; stroke-width:4; stroke-opacity:1; fill:none" points="
  202.819,67.7371 228.618,67.7371 
  "/>
<path clip-path="url(#clip200)" d="M 0 0 M275.073 1444.38 L312.167 1444.38 L312.167 1449.3 L275.073 1449.3 L275.073 1444.38 Z" fill="#000000" fill-rule="evenodd" fill-opacity="1" /><path clip-path="url(#clip200)" d="M 0 0 M336.212 1442.13 Q340.408 1443.02 342.752 1445.86 Q345.124 1448.7 345.124 1452.86 Q345.124 1459.26 340.726 1462.76 Q336.328 1466.26 328.226 1466.26 Q325.507 1466.26 322.613 1465.71 Q319.748 1465.19 316.681 1464.12 L316.681 1458.48 Q319.112 1459.89 322.005 1460.62 Q324.899 1461.34 328.053 1461.34 Q333.55 1461.34 336.415 1459.17 Q339.309 1457 339.309 1452.86 Q339.309 1449.04 336.618 1446.9 Q333.956 1444.73 329.181 1444.73 L324.147 1444.73 L324.147 1439.93 L329.413 1439.93 Q333.724 1439.93 336.01 1438.22 Q338.296 1436.48 338.296 1433.24 Q338.296 1429.92 335.923 1428.15 Q333.579 1426.36 329.181 1426.36 Q326.78 1426.36 324.031 1426.88 Q321.282 1427.4 317.983 1428.5 L317.983 1423.29 Q321.311 1422.36 324.204 1421.9 Q327.127 1421.44 329.702 1421.44 Q336.357 1421.44 340.234 1424.48 Q344.112 1427.49 344.112 1432.64 Q344.112 1436.22 342.057 1438.71 Q340.003 1441.17 336.212 1442.13 Z" fill="#000000" fill-rule="evenodd" fill-opacity="1" /><path clip-path="url(#clip200)" d="M 0 0 M603.595 1444.38 L640.689 1444.38 L640.689 1449.3 L603.595 1449.3 L603.595 1444.38 Z" fill="#000000" fill-rule="evenodd" fill-opacity="1" /><path clip-path="url(#clip200)" d="M 0 0 M652.061 1460.5 L672.46 1460.5 L672.46 1465.42 L645.03 1465.42 L645.03 1460.5 Q648.357 1457.06 654.086 1451.27 Q659.844 1445.45 661.32 1443.78 Q664.127 1440.62 665.226 1438.45 Q666.355 1436.25 666.355 1434.14 Q666.355 1430.7 663.924 1428.53 Q661.523 1426.36 657.645 1426.36 Q654.896 1426.36 651.829 1427.31 Q648.791 1428.27 645.319 1430.21 L645.319 1424.3 Q648.849 1422.89 651.916 1422.16 Q654.983 1421.44 657.529 1421.44 Q664.242 1421.44 668.235 1424.8 Q672.228 1428.15 672.228 1433.76 Q672.228 1436.43 671.216 1438.83 Q670.232 1441.2 667.599 1444.44 Q666.876 1445.28 662.998 1449.3 Q659.121 1453.3 652.061 1460.5 Z" fill="#000000" fill-rule="evenodd" fill-opacity="1" /><path clip-path="url(#clip200)" d="M 0 0 M931.292 1444.38 L968.387 1444.38 L968.387 1449.3 L931.292 1449.3 L931.292 1444.38 Z" fill="#000000" fill-rule="evenodd" fill-opacity="1" /><path clip-path="url(#clip200)" d="M 0 0 M975.736 1460.5 L985.285 1460.5 L985.285 1427.54 L974.897 1429.63 L974.897 1424.3 L985.227 1422.22 L991.072 1422.22 L991.072 1460.5 L1000.62 1460.5 L1000.62 1465.42 L975.736 1465.42 L975.736 1460.5 Z" fill="#000000" fill-rule="evenodd" fill-opacity="1" /><path clip-path="url(#clip200)" d="M 0 0 M1293.88 1426.07 Q1289.37 1426.07 1287.08 1430.52 Q1284.83 1434.95 1284.83 1443.86 Q1284.83 1452.75 1287.08 1457.2 Q1289.37 1461.63 1293.88 1461.63 Q1298.43 1461.63 1300.68 1457.2 Q1302.97 1452.75 1302.97 1443.86 Q1302.97 1434.95 1300.68 1430.52 Q1298.43 1426.07 1293.88 1426.07 M1293.88 1421.44 Q1301.15 1421.44 1304.97 1427.2 Q1308.82 1432.93 1308.82 1443.86 Q1308.82 1454.77 1304.97 1460.53 Q1301.15 1466.26 1293.88 1466.26 Q1286.62 1466.26 1282.77 1460.53 Q1278.95 1454.77 1278.95 1443.86 Q1278.95 1432.93 1282.77 1427.2 Q1286.62 1421.44 1293.88 1421.44 Z" fill="#000000" fill-rule="evenodd" fill-opacity="1" /><path clip-path="url(#clip200)" d="M 0 0 M1609.79 1460.5 L1619.34 1460.5 L1619.34 1427.54 L1608.95 1429.63 L1608.95 1424.3 L1619.28 1422.22 L1625.13 1422.22 L1625.13 1460.5 L1634.67 1460.5 L1634.67 1465.42 L1609.79 1465.42 L1609.79 1460.5 Z" fill="#000000" fill-rule="evenodd" fill-opacity="1" /><path clip-path="url(#clip200)" d="M 0 0 M1943.06 1460.5 L1963.46 1460.5 L1963.46 1465.42 L1936.03 1465.42 L1936.03 1460.5 Q1939.35 1457.06 1945.08 1451.27 Q1950.84 1445.45 1952.32 1443.78 Q1955.12 1440.62 1956.22 1438.45 Q1957.35 1436.25 1957.35 1434.14 Q1957.35 1430.7 1954.92 1428.53 Q1952.52 1426.36 1948.64 1426.36 Q1945.89 1426.36 1942.83 1427.31 Q1939.79 1428.27 1936.32 1430.21 L1936.32 1424.3 Q1939.85 1422.89 1942.91 1422.16 Q1945.98 1421.44 1948.53 1421.44 Q1955.24 1421.44 1959.23 1424.8 Q1963.23 1428.15 1963.23 1433.76 Q1963.23 1436.43 1962.21 1438.83 Q1961.23 1441.2 1958.6 1444.44 Q1957.87 1445.28 1954 1449.3 Q1950.12 1453.3 1943.06 1460.5 Z" fill="#000000" fill-rule="evenodd" fill-opacity="1" /><path clip-path="url(#clip200)" d="M 0 0 M2282.98 1442.13 Q2287.18 1443.02 2289.52 1445.86 Q2291.89 1448.7 2291.89 1452.86 Q2291.89 1459.26 2287.49 1462.76 Q2283.1 1466.26 2274.99 1466.26 Q2272.27 1466.26 2269.38 1465.71 Q2266.52 1465.19 2263.45 1464.12 L2263.45 1458.48 Q2265.88 1459.89 2268.77 1460.62 Q2271.67 1461.34 2274.82 1461.34 Q2280.32 1461.34 2283.18 1459.17 Q2286.08 1457 2286.08 1452.86 Q2286.08 1449.04 2283.39 1446.9 Q2280.72 1444.73 2275.95 1444.73 L2270.91 1444.73 L2270.91 1439.93 L2276.18 1439.93 Q2280.49 1439.93 2282.78 1438.22 Q2285.06 1436.48 2285.06 1433.24 Q2285.06 1429.92 2282.69 1428.15 Q2280.35 1426.36 2275.95 1426.36 Q2273.55 1426.36 2270.8 1426.88 Q2268.05 1427.4 2264.75 1428.5 L2264.75 1423.29 Q2268.08 1422.36 2270.97 1421.9 Q2273.89 1421.44 2276.47 1421.44 Q2283.12 1421.44 2287 1424.48 Q2290.88 1427.49 2290.88 1432.64 Q2290.88 1436.22 2288.83 1438.71 Q2286.77 1441.17 2282.98 1442.13 Z" fill="#000000" fill-rule="evenodd" fill-opacity="1" /><path clip-path="url(#clip200)" d="M 0 0 M64.5257 1381.65 L101.62 1381.65 L101.62 1386.57 L64.5257 1386.57 L64.5257 1381.65 Z" fill="#000000" fill-rule="evenodd" fill-opacity="1" /><path clip-path="url(#clip200)" d="M 0 0 M108.97 1397.77 L118.518 1397.77 L118.518 1364.81 L108.131 1366.89 L108.131 1361.57 L118.461 1359.49 L124.305 1359.49 L124.305 1397.77 L133.854 1397.77 L133.854 1402.69 L108.97 1402.69 L108.97 1397.77 Z" fill="#000000" fill-rule="evenodd" fill-opacity="1" /><path clip-path="url(#clip200)" d="M 0 0 M140.191 1395.34 L146.296 1395.34 L146.296 1402.69 L140.191 1402.69 L140.191 1395.34 Z" fill="#000000" fill-rule="evenodd" fill-opacity="1" /><path clip-path="url(#clip200)" d="M 0 0 M152.691 1359.49 L175.636 1359.49 L175.636 1364.41 L158.044 1364.41 L158.044 1375 Q159.317 1374.56 160.59 1374.36 Q161.863 1374.13 163.136 1374.13 Q170.37 1374.13 174.595 1378.09 Q178.819 1382.06 178.819 1388.83 Q178.819 1395.8 174.479 1399.68 Q170.139 1403.53 162.239 1403.53 Q159.519 1403.53 156.684 1403.06 Q153.877 1402.6 150.868 1401.67 L150.868 1395.8 Q153.472 1397.22 156.25 1397.91 Q159.027 1398.61 162.124 1398.61 Q167.129 1398.61 170.052 1395.97 Q172.974 1393.34 172.974 1388.83 Q172.974 1384.31 170.052 1381.68 Q167.129 1379.05 162.124 1379.05 Q159.78 1379.05 157.436 1379.57 Q155.121 1380.09 152.691 1381.19 L152.691 1359.49 Z" fill="#000000" fill-rule="evenodd" fill-opacity="1" /><path clip-path="url(#clip200)" d="M 0 0 M63.2815 1162.76 L100.376 1162.76 L100.376 1167.68 L63.2815 1167.68 L63.2815 1162.76 Z" fill="#000000" fill-rule="evenodd" fill-opacity="1" /><path clip-path="url(#clip200)" d="M 0 0 M107.726 1178.88 L117.274 1178.88 L117.274 1145.92 L106.887 1148 L106.887 1142.68 L117.216 1140.6 L123.061 1140.6 L123.061 1178.88 L132.61 1178.88 L132.61 1183.8 L107.726 1183.8 L107.726 1178.88 Z" fill="#000000" fill-rule="evenodd" fill-opacity="1" /><path clip-path="url(#clip200)" d="M 0 0 M138.947 1176.45 L145.052 1176.45 L145.052 1183.8 L138.947 1183.8 L138.947 1176.45 Z" fill="#000000" fill-rule="evenodd" fill-opacity="1" /><path clip-path="url(#clip200)" d="M 0 0 M163.889 1144.44 Q159.375 1144.44 157.089 1148.9 Q154.832 1153.33 154.832 1162.24 Q154.832 1171.12 157.089 1175.58 Q159.375 1180 163.889 1180 Q168.431 1180 170.688 1175.58 Q172.974 1171.12 172.974 1162.24 Q172.974 1153.33 170.688 1148.9 Q168.431 1144.44 163.889 1144.44 M163.889 1139.81 Q171.151 1139.81 174.971 1145.57 Q178.819 1151.3 178.819 1162.24 Q178.819 1173.15 174.971 1178.91 Q171.151 1184.63 163.889 1184.63 Q156.626 1184.63 152.778 1178.91 Q148.958 1173.15 148.958 1162.24 Q148.958 1151.3 152.778 1145.57 Q156.626 1139.81 163.889 1139.81 Z" fill="#000000" fill-rule="evenodd" fill-opacity="1" /><path clip-path="url(#clip200)" d="M 0 0 M62.9921 943.868 L100.087 943.868 L100.087 948.787 L62.9921 948.787 L62.9921 943.868 Z" fill="#000000" fill-rule="evenodd" fill-opacity="1" /><path clip-path="url(#clip200)" d="M 0 0 M118.924 925.552 Q114.41 925.552 112.124 930.008 Q109.867 934.435 109.867 943.347 Q109.867 952.23 112.124 956.686 Q114.41 961.113 118.924 961.113 Q123.466 961.113 125.723 956.686 Q128.009 952.23 128.009 943.347 Q128.009 934.435 125.723 930.008 Q123.466 925.552 118.924 925.552 M118.924 920.922 Q126.186 920.922 130.006 926.68 Q133.854 932.41 133.854 943.347 Q133.854 954.256 130.006 960.014 Q126.186 965.743 118.924 965.743 Q111.661 965.743 107.812 960.014 Q103.993 954.256 103.993 943.347 Q103.993 932.41 107.812 926.68 Q111.661 920.922 118.924 920.922 Z" fill="#000000" fill-rule="evenodd" fill-opacity="1" /><path clip-path="url(#clip200)" d="M 0 0 M140.191 957.554 L146.296 957.554 L146.296 964.904 L140.191 964.904 L140.191 957.554 Z" fill="#000000" fill-rule="evenodd" fill-opacity="1" /><path clip-path="url(#clip200)" d="M 0 0 M152.691 921.704 L175.636 921.704 L175.636 926.623 L158.044 926.623 L158.044 937.213 Q159.317 936.779 160.59 936.576 Q161.863 936.345 163.136 936.345 Q170.37 936.345 174.595 940.309 Q178.819 944.273 178.819 951.044 Q178.819 958.017 174.479 961.894 Q170.139 965.743 162.239 965.743 Q159.519 965.743 156.684 965.28 Q153.877 964.817 150.868 963.891 L150.868 958.017 Q153.472 959.435 156.25 960.129 Q159.027 960.824 162.124 960.824 Q167.129 960.824 170.052 958.191 Q172.974 955.558 172.974 951.044 Q172.974 946.53 170.052 943.897 Q167.129 941.264 162.124 941.264 Q159.78 941.264 157.436 941.785 Q155.121 942.305 152.691 943.405 L152.691 921.704 Z" fill="#000000" fill-rule="evenodd" fill-opacity="1" /><path clip-path="url(#clip200)" d="M 0 0 M117.679 706.66 Q113.165 706.66 110.88 711.116 Q108.623 715.543 108.623 724.455 Q108.623 733.338 110.88 737.794 Q113.165 742.221 117.679 742.221 Q122.222 742.221 124.479 737.794 Q126.765 733.338 126.765 724.455 Q126.765 715.543 124.479 711.116 Q122.222 706.66 117.679 706.66 M117.679 702.031 Q124.942 702.031 128.761 707.789 Q132.61 713.518 132.61 724.455 Q132.61 735.364 128.761 741.122 Q124.942 746.851 117.679 746.851 Q110.417 746.851 106.568 741.122 Q102.749 735.364 102.749 724.455 Q102.749 713.518 106.568 707.789 Q110.417 702.031 117.679 702.031 Z" fill="#000000" fill-rule="evenodd" fill-opacity="1" /><path clip-path="url(#clip200)" d="M 0 0 M138.947 738.662 L145.052 738.662 L145.052 746.012 L138.947 746.012 L138.947 738.662 Z" fill="#000000" fill-rule="evenodd" fill-opacity="1" /><path clip-path="url(#clip200)" d="M 0 0 M163.889 706.66 Q159.375 706.66 157.089 711.116 Q154.832 715.543 154.832 724.455 Q154.832 733.338 157.089 737.794 Q159.375 742.221 163.889 742.221 Q168.431 742.221 170.688 737.794 Q172.974 733.338 172.974 724.455 Q172.974 715.543 170.688 711.116 Q168.431 706.66 163.889 706.66 M163.889 702.031 Q171.151 702.031 174.971 707.789 Q178.819 713.518 178.819 724.455 Q178.819 735.364 174.971 741.122 Q171.151 746.851 163.889 746.851 Q156.626 746.851 152.778 741.122 Q148.958 735.364 148.958 724.455 Q148.958 713.518 152.778 707.789 Q156.626 702.031 163.889 702.031 Z" fill="#000000" fill-rule="evenodd" fill-opacity="1" /><path clip-path="url(#clip200)" d="M 0 0 M118.924 487.769 Q114.41 487.769 112.124 492.225 Q109.867 496.652 109.867 505.564 Q109.867 514.447 112.124 518.903 Q114.41 523.33 118.924 523.33 Q123.466 523.33 125.723 518.903 Q128.009 514.447 128.009 505.564 Q128.009 496.652 125.723 492.225 Q123.466 487.769 118.924 487.769 M118.924 483.139 Q126.186 483.139 130.006 488.897 Q133.854 494.626 133.854 505.564 Q133.854 516.472 130.006 522.23 Q126.186 527.959 118.924 527.959 Q111.661 527.959 107.812 522.23 Q103.993 516.472 103.993 505.564 Q103.993 494.626 107.812 488.897 Q111.661 483.139 118.924 483.139 Z" fill="#000000" fill-rule="evenodd" fill-opacity="1" /><path clip-path="url(#clip200)" d="M 0 0 M140.191 519.771 L146.296 519.771 L146.296 527.12 L140.191 527.12 L140.191 519.771 Z" fill="#000000" fill-rule="evenodd" fill-opacity="1" /><path clip-path="url(#clip200)" d="M 0 0 M152.691 483.92 L175.636 483.92 L175.636 488.839 L158.044 488.839 L158.044 499.43 Q159.317 498.995 160.59 498.793 Q161.863 498.561 163.136 498.561 Q170.37 498.561 174.595 502.526 Q178.819 506.49 178.819 513.26 Q178.819 520.234 174.479 524.111 Q170.139 527.959 162.239 527.959 Q159.519 527.959 156.684 527.496 Q153.877 527.034 150.868 526.108 L150.868 520.234 Q153.472 521.652 156.25 522.346 Q159.027 523.04 162.124 523.04 Q167.129 523.04 170.052 520.407 Q172.974 517.774 172.974 513.26 Q172.974 508.747 170.052 506.114 Q167.129 503.48 162.124 503.48 Q159.78 503.48 157.436 504.001 Q155.121 504.522 152.691 505.622 L152.691 483.92 Z" fill="#000000" fill-rule="evenodd" fill-opacity="1" /><path clip-path="url(#clip200)" d="M 0 0 M107.726 303.31 L117.274 303.31 L117.274 270.353 L106.887 272.436 L106.887 267.112 L117.216 265.029 L123.061 265.029 L123.061 303.31 L132.61 303.31 L132.61 308.229 L107.726 308.229 L107.726 303.31 Z" fill="#000000" fill-rule="evenodd" fill-opacity="1" /><path clip-path="url(#clip200)" d="M 0 0 M138.947 300.879 L145.052 300.879 L145.052 308.229 L138.947 308.229 L138.947 300.879 Z" fill="#000000" fill-rule="evenodd" fill-opacity="1" /><path clip-path="url(#clip200)" d="M 0 0 M163.889 268.877 Q159.375 268.877 157.089 273.333 Q154.832 277.76 154.832 286.672 Q154.832 295.555 157.089 300.011 Q159.375 304.438 163.889 304.438 Q168.431 304.438 170.688 300.011 Q172.974 295.555 172.974 286.672 Q172.974 277.76 170.688 273.333 Q168.431 268.877 163.889 268.877 M163.889 264.247 Q171.151 264.247 174.971 270.006 Q178.819 275.735 178.819 286.672 Q178.819 297.581 174.971 303.339 Q171.151 309.068 163.889 309.068 Q156.626 309.068 152.778 303.339 Q148.958 297.581 148.958 286.672 Q148.958 275.735 152.778 270.006 Q156.626 264.247 163.889 264.247 Z" fill="#000000" fill-rule="evenodd" fill-opacity="1" /><path clip-path="url(#clip200)" d="M 0 0 M108.97 84.4181 L118.518 84.4181 L118.518 51.4611 L108.131 53.5444 L108.131 48.2204 L118.461 46.1371 L124.305 46.1371 L124.305 84.4181 L133.854 84.4181 L133.854 89.3371 L108.97 89.3371 L108.97 84.4181 Z" fill="#000000" fill-rule="evenodd" fill-opacity="1" /><path clip-path="url(#clip200)" d="M 0 0 M140.191 81.9876 L146.296 81.9876 L146.296 89.3371 L140.191 89.3371 L140.191 81.9876 Z" fill="#000000" fill-rule="evenodd" fill-opacity="1" /><path clip-path="url(#clip200)" d="M 0 0 M152.691 46.1371 L175.636 46.1371 L175.636 51.056 L158.044 51.056 L158.044 61.6462 Q159.317 61.2122 160.59 61.0097 Q161.863 60.7782 163.136 60.7782 Q170.37 60.7782 174.595 64.7423 Q178.819 68.7064 178.819 75.4772 Q178.819 82.4505 174.479 86.3278 Q170.139 90.1762 162.239 90.1762 Q159.519 90.1762 156.684 89.7132 Q153.877 89.2503 150.868 88.3243 L150.868 82.4505 Q153.472 83.8683 156.25 84.5628 Q159.027 85.2572 162.124 85.2572 Q167.129 85.2572 170.052 82.6241 Q172.974 79.9911 172.974 75.4772 Q172.974 70.9633 170.052 68.3302 Q167.129 65.6971 162.124 65.6971 Q159.78 65.6971 157.436 66.218 Q155.121 66.7388 152.691 67.8383 L152.691 46.1371 Z" fill="#000000" fill-rule="evenodd" fill-opacity="1" /><path clip-path="url(#clip200)" d="M 0 0 M1298.93 1517.59 L1282.53 1539.66 L1299.78 1562.96 L1290.99 1562.96 L1277.79 1545.13 L1264.58 1562.96 L1255.79 1562.96 L1273.41 1539.22 L1257.29 1517.59 L1266.08 1517.59 L1278.11 1533.75 L1290.14 1517.59 L1298.93 1517.59 Z" fill="#000000" fill-rule="evenodd" fill-opacity="1" /><polyline clip-path="url(#clip202)" style="stroke:#009af9; stroke-width:8; stroke-opacity:1; fill:none" points="
  263.666,943.304 295.861,832.05 328.055,678.489 360.249,502.648 392.444,331.086 424.638,191.203 456.832,105.267 489.027,85.5744 521.221,131.849 553.415,231.5 
  585.61,362.657 617.804,499.272 649.998,617.082 682.193,699.03 714.387,738.881 746.581,742.189 778.775,724.412 810.97,706.634 843.164,709.943 875.358,749.794 
  907.553,831.742 939.747,949.552 971.941,1086.17 1004.14,1217.32 1036.33,1316.97 1068.52,1363.25 1100.72,1343.56 1132.91,1257.62 1165.11,1117.74 1197.3,946.176 
  1229.5,770.335 1261.69,616.774 1293.88,505.52 1326.08,445.96 1358.27,435.27 1390.47,459.737 1422.66,498.619 1454.86,529.614 1487.05,534.639 1519.24,504.507 
  1551.44,441.408 1583.63,358.581 1615.83,277.249 1648.02,221.545 1680.22,212.623 1712.41,263.355 1744.61,374.878 1776.8,535.82 1808.99,724.412 1841.19,913.004 
  1873.38,1073.95 1905.58,1185.47 1937.77,1236.2 1969.97,1227.28 2002.16,1171.57 2034.35,1090.24 2066.55,1007.42 2098.74,944.317 2130.94,914.185 2163.13,919.21 
  2195.33,950.205 2227.52,989.086 2259.71,1013.55 2291.91,1002.86 
  "/>
<path clip-path="url(#clip200)" d="
M2015.07 243.589 L2281.09 243.589 L2281.09 92.3886 L2015.07 92.3886  Z
  " fill="#ffffff" fill-rule="evenodd" fill-opacity="1"/>
<polyline clip-path="url(#clip200)" style="stroke:#000000; stroke-width:4; stroke-opacity:1; fill:none" points="
  2015.07,243.589 2281.09,243.589 2281.09,92.3886 2015.07,92.3886 2015.07,243.589 
  "/>
<polyline clip-path="url(#clip200)" style="stroke:#009af9; stroke-width:5; stroke-opacity:1; fill:none" points="
  2038.96,167.989 2182.29,167.989 
  "/>
<path clip-path="url(#clip200)" d="M 0 0 M2206.17 176.799 L2206.17 157.181 L2211.5 157.181 L2211.5 176.597 Q2211.5 181.197 2213.29 183.512 Q2215.09 185.798 2218.67 185.798 Q2222.99 185.798 2225.47 183.049 Q2227.99 180.3 2227.99 175.555 L2227.99 157.181 L2233.31 157.181 L2233.31 189.589 L2227.99 189.589 L2227.99 184.612 Q2226.05 187.563 2223.48 189.01 Q2220.93 190.428 2217.55 190.428 Q2211.96 190.428 2209.07 186.956 Q2206.17 183.483 2206.17 176.799 M2219.57 156.4 L2219.57 156.4 Z" fill="#000000" fill-rule="evenodd" fill-opacity="1" /></svg>
