<?xml version="1.0" encoding="utf-8"?>
<svg xmlns="http://www.w3.org/2000/svg" xmlns:xlink="http://www.w3.org/1999/xlink" width="600" height="400" viewBox="0 0 2400 1600">
<defs>
  <clipPath id="clip730">
    <rect x="0" y="0" width="2400" height="1600"/>
  </clipPath>
</defs>
<path clip-path="url(#clip730)" d="
M0 1600 L2400 1600 L2400 0 L0 0  Z
  " fill="#ffffff" fill-rule="evenodd" fill-opacity="1"/>
<defs>
  <clipPath id="clip731">
    <rect x="480" y="0" width="1681" height="1600"/>
  </clipPath>
</defs>
<path clip-path="url(#clip730)" d="
M204.671 1401.58 L2352.76 1401.58 L2352.76 47.2441 L204.671 47.2441  Z
  " fill="#ffffff" fill-rule="evenodd" fill-opacity="1"/>
<defs>
  <clipPath id="clip732">
    <rect x="204" y="47" width="2149" height="1355"/>
  </clipPath>
</defs>
<polyline clip-path="url(#clip732)" style="stroke:#000000; stroke-width:2; stroke-opacity:0.1; fill:none" points="
  302.311,1401.58 302.311,47.2441 
  "/>
<polyline clip-path="url(#clip732)" style="stroke:#000000; stroke-width:2; stroke-opacity:0.1; fill:none" points="
  497.592,1401.58 497.592,47.2441 
  "/>
<polyline clip-path="url(#clip732)" style="stroke:#000000; stroke-width:2; stroke-opacity:0.1; fill:none" points="
  692.872,1401.58 692.872,47.2441 
  "/>
<polyline clip-path="url(#clip732)" style="stroke:#000000; stroke-width:2; stroke-opacity:0.1; fill:none" points="
  888.152,1401.58 888.152,47.2441 
  "/>
<polyline clip-path="url(#clip732)" style="stroke:#000000; stroke-width:2; stroke-opacity:0.1; fill:none" points="
  1083.43,1401.58 1083.43,47.2441 
  "/>
<polyline clip-path="url(#clip732)" style="stroke:#000000; stroke-width:2; stroke-opacity:0.1; fill:none" points="
  1278.71,1401.58 1278.71,47.2441 
  "/>
<polyline clip-path="url(#clip732)" style="stroke:#000000; stroke-width:2; stroke-opacity:0.1; fill:none" points="
  1473.99,1401.58 1473.99,47.2441 
  "/>
<polyline clip-path="url(#clip732)" style="stroke:#000000; stroke-width:2; stroke-opacity:0.1; fill:none" points="
  1669.27,1401.58 1669.27,47.2441 
  "/>
<polyline clip-path="url(#clip732)" style="stroke:#000000; stroke-width:2; stroke-opacity:0.1; fill:none" points="
  1864.55,1401.58 1864.55,47.2441 
  "/>
<polyline clip-path="url(#clip732)" style="stroke:#000000; stroke-width:2; stroke-opacity:0.1; fill:none" points="
  2059.84,1401.58 2059.84,47.2441 
  "/>
<polyline clip-path="url(#clip732)" style="stroke:#000000; stroke-width:2; stroke-opacity:0.1; fill:none" points="
  2255.12,1401.58 2255.12,47.2441 
  "/>
<polyline clip-path="url(#clip730)" style="stroke:#000000; stroke-width:4; stroke-opacity:1; fill:none" points="
  204.671,1401.58 2352.76,1401.58 
  "/>
<polyline clip-path="url(#clip730)" style="stroke:#000000; stroke-width:4; stroke-opacity:1; fill:none" points="
  302.311,1401.58 302.311,1385.33 
  "/>
<polyline clip-path="url(#clip730)" style="stroke:#000000; stroke-width:4; stroke-opacity:1; fill:none" points="
  497.592,1401.58 497.592,1385.33 
  "/>
<polyline clip-path="url(#clip730)" style="stroke:#000000; stroke-width:4; stroke-opacity:1; fill:none" points="
  692.872,1401.58 692.872,1385.33 
  "/>
<polyline clip-path="url(#clip730)" style="stroke:#000000; stroke-width:4; stroke-opacity:1; fill:none" points="
  888.152,1401.58 888.152,1385.33 
  "/>
<polyline clip-path="url(#clip730)" style="stroke:#000000; stroke-width:4; stroke-opacity:1; fill:none" points="
  1083.43,1401.58 1083.43,1385.33 
  "/>
<polyline clip-path="url(#clip730)" style="stroke:#000000; stroke-width:4; stroke-opacity:1; fill:none" points="
  1278.71,1401.58 1278.71,1385.33 
  "/>
<polyline clip-path="url(#clip730)" style="stroke:#000000; stroke-width:4; stroke-opacity:1; fill:none" points="
  1473.99,1401.58 1473.99,1385.33 
  "/>
<polyline clip-path="url(#clip730)" style="stroke:#000000; stroke-width:4; stroke-opacity:1; fill:none" points="
  1669.27,1401.58 1669.27,1385.33 
  "/>
<polyline clip-path="url(#clip730)" style="stroke:#000000; stroke-width:4; stroke-opacity:1; fill:none" points="
  1864.55,1401.58 1864.55,1385.33 
  "/>
<polyline clip-path="url(#clip730)" style="stroke:#000000; stroke-width:4; stroke-opacity:1; fill:none" points="
  2059.84,1401.58 2059.84,1385.33 
  "/>
<polyline clip-path="url(#clip730)" style="stroke:#000000; stroke-width:4; stroke-opacity:1; fill:none" points="
  2255.12,1401.58 2255.12,1385.33 
  "/>
<path clip-path="url(#clip730)" d="M 0 0 M302.311 1433.27 Q297.797 1433.27 295.511 1437.72 Q293.254 1442.15 293.254 1451.06 Q293.254 1459.95 295.511 1464.4 Q297.797 1468.83 302.311 1468.83 Q306.854 1468.83 309.111 1464.4 Q311.397 1459.95 311.397 1451.06 Q311.397 1442.15 309.111 1437.72 Q306.854 1433.27 302.311 1433.27 M302.311 1428.64 Q309.574 1428.64 313.393 1434.4 Q317.242 1440.13 317.242 1451.06 Q317.242 1461.97 313.393 1467.73 Q309.574 1473.46 302.311 1473.46 Q295.048 1473.46 291.2 1467.73 Q287.381 1461.97 287.381 1451.06 Q287.381 1440.13 291.2 1434.4 Q295.048 1428.64 302.311 1428.64 Z" fill="#000000" fill-rule="evenodd" fill-opacity="1" /><path clip-path="url(#clip730)" d="M 0 0 M485.569 1467.7 L495.118 1467.7 L495.118 1434.74 L484.73 1436.83 L484.73 1431.5 L495.06 1429.42 L500.905 1429.42 L500.905 1467.7 L510.453 1467.7 L510.453 1472.62 L485.569 1472.62 L485.569 1467.7 Z" fill="#000000" fill-rule="evenodd" fill-opacity="1" /><path clip-path="url(#clip730)" d="M 0 0 M686.188 1467.7 L706.587 1467.7 L706.587 1472.62 L679.157 1472.62 L679.157 1467.7 Q682.484 1464.26 688.213 1458.47 Q693.972 1452.65 695.447 1450.98 Q698.254 1447.82 699.353 1445.65 Q700.482 1443.45 700.482 1441.34 Q700.482 1437.9 698.051 1435.73 Q695.65 1433.56 691.773 1433.56 Q689.024 1433.56 685.957 1434.51 Q682.918 1435.47 679.446 1437.41 L679.446 1431.5 Q682.976 1430.09 686.043 1429.36 Q689.11 1428.64 691.657 1428.64 Q698.37 1428.64 702.363 1432 Q706.356 1435.35 706.356 1440.96 Q706.356 1443.63 705.343 1446.03 Q704.359 1448.4 701.726 1451.64 Q701.003 1452.48 697.125 1456.5 Q693.248 1460.5 686.188 1467.7 Z" fill="#000000" fill-rule="evenodd" fill-opacity="1" /><path clip-path="url(#clip730)" d="M 0 0 M893.462 1449.33 Q897.658 1450.22 900.001 1453.06 Q902.374 1455.9 902.374 1460.06 Q902.374 1466.46 897.976 1469.96 Q893.578 1473.46 885.476 1473.46 Q882.756 1473.46 879.863 1472.91 Q876.998 1472.39 873.931 1471.32 L873.931 1465.68 Q876.361 1467.09 879.255 1467.82 Q882.148 1468.54 885.302 1468.54 Q890.8 1468.54 893.665 1466.37 Q896.558 1464.2 896.558 1460.06 Q896.558 1456.24 893.867 1454.1 Q891.205 1451.93 886.431 1451.93 L881.396 1451.93 L881.396 1447.13 L886.662 1447.13 Q890.974 1447.13 893.26 1445.42 Q895.545 1443.68 895.545 1440.44 Q895.545 1437.12 893.173 1435.35 Q890.829 1433.56 886.431 1433.56 Q884.029 1433.56 881.28 1434.08 Q878.532 1434.6 875.233 1435.7 L875.233 1430.49 Q878.561 1429.56 881.454 1429.1 Q884.376 1428.64 886.952 1428.64 Q893.607 1428.64 897.484 1431.68 Q901.361 1434.69 901.361 1439.84 Q901.361 1443.42 899.307 1445.91 Q897.253 1448.37 893.462 1449.33 Z" fill="#000000" fill-rule="evenodd" fill-opacity="1" /><path clip-path="url(#clip730)" d="M 0 0 M1087.19 1434.51 L1072.44 1457.57 L1087.19 1457.57 L1087.19 1434.51 M1085.66 1429.42 L1093.01 1429.42 L1093.01 1457.57 L1099.17 1457.57 L1099.17 1462.43 L1093.01 1462.43 L1093.01 1472.62 L1087.19 1472.62 L1087.19 1462.43 L1067.69 1462.43 L1067.69 1456.79 L1085.66 1429.42 Z" fill="#000000" fill-rule="evenodd" fill-opacity="1" /><path clip-path="url(#clip730)" d="M 0 0 M1266.56 1429.42 L1289.51 1429.42 L1289.51 1434.34 L1271.91 1434.34 L1271.91 1444.93 Q1273.19 1444.49 1274.46 1444.29 Q1275.73 1444.06 1277.01 1444.06 Q1284.24 1444.06 1288.46 1448.03 Q1292.69 1451.99 1292.69 1458.76 Q1292.69 1465.73 1288.35 1469.61 Q1284.01 1473.46 1276.11 1473.46 Q1273.39 1473.46 1270.55 1473 Q1267.75 1472.53 1264.74 1471.61 L1264.74 1465.73 Q1267.34 1467.15 1270.12 1467.85 Q1272.9 1468.54 1275.99 1468.54 Q1281 1468.54 1283.92 1465.91 Q1286.84 1463.27 1286.84 1458.76 Q1286.84 1454.25 1283.92 1451.61 Q1281 1448.98 1275.99 1448.98 Q1273.65 1448.98 1271.31 1449.5 Q1268.99 1450.02 1266.56 1451.12 L1266.56 1429.42 Z" fill="#000000" fill-rule="evenodd" fill-opacity="1" /><path clip-path="url(#clip730)" d="M 0 0 M1474.5 1448.69 Q1470.57 1448.69 1468.25 1451.38 Q1465.96 1454.07 1465.96 1458.76 Q1465.96 1463.42 1468.25 1466.14 Q1470.57 1468.83 1474.5 1468.83 Q1478.44 1468.83 1480.72 1466.14 Q1483.04 1463.42 1483.04 1458.76 Q1483.04 1454.07 1480.72 1451.38 Q1478.44 1448.69 1474.5 1448.69 M1486.1 1430.37 L1486.1 1435.7 Q1483.9 1434.66 1481.65 1434.11 Q1479.42 1433.56 1477.22 1433.56 Q1471.43 1433.56 1468.37 1437.46 Q1465.33 1441.37 1464.89 1449.27 Q1466.6 1446.75 1469.18 1445.42 Q1471.75 1444.06 1474.85 1444.06 Q1481.36 1444.06 1485.12 1448.03 Q1488.91 1451.96 1488.91 1458.76 Q1488.91 1465.42 1484.97 1469.44 Q1481.04 1473.46 1474.5 1473.46 Q1467.01 1473.46 1463.04 1467.73 Q1459.08 1461.97 1459.08 1451.06 Q1459.08 1440.82 1463.94 1434.74 Q1468.8 1428.64 1476.99 1428.64 Q1479.19 1428.64 1481.42 1429.07 Q1483.67 1429.51 1486.1 1430.37 Z" fill="#000000" fill-rule="evenodd" fill-opacity="1" /><path clip-path="url(#clip730)" d="M 0 0 M1655.39 1429.42 L1683.16 1429.42 L1683.16 1431.91 L1667.48 1472.62 L1661.38 1472.62 L1676.13 1434.34 L1655.39 1434.34 L1655.39 1429.42 Z" fill="#000000" fill-rule="evenodd" fill-opacity="1" /><path clip-path="url(#clip730)" d="M 0 0 M1864.55 1452.1 Q1860.39 1452.1 1857.99 1454.33 Q1855.61 1456.56 1855.61 1460.47 Q1855.61 1464.37 1857.99 1466.6 Q1860.39 1468.83 1864.55 1468.83 Q1868.72 1468.83 1871.12 1466.6 Q1873.52 1464.34 1873.52 1460.47 Q1873.52 1456.56 1871.12 1454.33 Q1868.75 1452.1 1864.55 1452.1 M1858.71 1449.62 Q1854.95 1448.69 1852.84 1446.12 Q1850.75 1443.54 1850.75 1439.84 Q1850.75 1434.66 1854.43 1431.65 Q1858.13 1428.64 1864.55 1428.64 Q1871.01 1428.64 1874.68 1431.65 Q1878.36 1434.66 1878.36 1439.84 Q1878.36 1443.54 1876.24 1446.12 Q1874.16 1448.69 1870.43 1449.62 Q1874.65 1450.6 1877 1453.46 Q1879.37 1456.33 1879.37 1460.47 Q1879.37 1466.75 1875.52 1470.1 Q1871.7 1473.46 1864.55 1473.46 Q1857.41 1473.46 1853.56 1470.1 Q1849.74 1466.75 1849.74 1460.47 Q1849.74 1456.33 1852.11 1453.46 Q1854.49 1450.6 1858.71 1449.62 M1856.57 1440.39 Q1856.57 1443.74 1858.65 1445.62 Q1860.76 1447.5 1864.55 1447.5 Q1868.32 1447.5 1870.43 1445.62 Q1872.57 1443.74 1872.57 1440.39 Q1872.57 1437.03 1870.43 1435.15 Q1868.32 1433.27 1864.55 1433.27 Q1860.76 1433.27 1858.65 1435.15 Q1856.57 1437.03 1856.57 1440.39 Z" fill="#000000" fill-rule="evenodd" fill-opacity="1" /><path clip-path="url(#clip730)" d="M 0 0 M2047.71 1471.72 L2047.71 1466.4 Q2049.91 1467.44 2052.17 1467.99 Q2054.42 1468.54 2056.59 1468.54 Q2062.38 1468.54 2065.42 1464.66 Q2068.49 1460.76 2068.92 1452.83 Q2067.24 1455.32 2064.67 1456.65 Q2062.09 1457.98 2058.97 1457.98 Q2052.49 1457.98 2048.7 1454.07 Q2044.93 1450.14 2044.93 1443.34 Q2044.93 1436.68 2048.87 1432.66 Q2052.8 1428.64 2059.34 1428.64 Q2066.84 1428.64 2070.77 1434.4 Q2074.74 1440.13 2074.74 1451.06 Q2074.74 1461.28 2069.88 1467.38 Q2065.04 1473.46 2056.85 1473.46 Q2054.66 1473.46 2052.4 1473.02 Q2050.14 1472.59 2047.71 1471.72 M2059.34 1453.41 Q2063.28 1453.41 2065.56 1450.72 Q2067.88 1448.03 2067.88 1443.34 Q2067.88 1438.68 2065.56 1435.99 Q2063.28 1433.27 2059.34 1433.27 Q2055.41 1433.27 2053.09 1435.99 Q2050.81 1438.68 2050.81 1443.34 Q2050.81 1448.03 2053.09 1450.72 Q2055.41 1453.41 2059.34 1453.41 Z" fill="#000000" fill-rule="evenodd" fill-opacity="1" /><path clip-path="url(#clip730)" d="M 0 0 M2226.21 1467.7 L2235.76 1467.7 L2235.76 1434.74 L2225.37 1436.83 L2225.37 1431.5 L2235.7 1429.42 L2241.55 1429.42 L2241.55 1467.7 L2251.09 1467.7 L2251.09 1472.62 L2226.21 1472.62 L2226.21 1467.7 Z" fill="#000000" fill-rule="evenodd" fill-opacity="1" /><path clip-path="url(#clip730)" d="M 0 0 M2269.93 1433.27 Q2265.42 1433.27 2263.13 1437.72 Q2260.87 1442.15 2260.87 1451.06 Q2260.87 1459.95 2263.13 1464.4 Q2265.42 1468.83 2269.93 1468.83 Q2274.47 1468.83 2276.73 1464.4 Q2279.02 1459.95 2279.02 1451.06 Q2279.02 1442.15 2276.73 1437.72 Q2274.47 1433.27 2269.93 1433.27 M2269.93 1428.64 Q2277.19 1428.64 2281.01 1434.4 Q2284.86 1440.13 2284.86 1451.06 Q2284.86 1461.97 2281.01 1467.73 Q2277.19 1473.46 2269.93 1473.46 Q2262.67 1473.46 2258.82 1467.73 Q2255 1461.97 2255 1451.06 Q2255 1440.13 2258.82 1434.4 Q2262.67 1428.64 2269.93 1428.64 Z" fill="#000000" fill-rule="evenodd" fill-opacity="1" /><path clip-path="url(#clip730)" d="M 0 0 M1258.58 1499.92 L1266.07 1499.92 L1266.07 1537.15 L1288.31 1517.59 L1297.83 1517.59 L1273.77 1538.81 L1298.85 1562.96 L1289.12 1562.96 L1266.07 1540.8 L1266.07 1562.96 L1258.58 1562.96 L1258.58 1499.92 Z" fill="#000000" fill-rule="evenodd" fill-opacity="1" /><polyline clip-path="url(#clip732)" style="stroke:#000000; stroke-width:2; stroke-opacity:0.1; fill:none" points="
  204.671,1192.89 2352.76,1192.89 
  "/>
<polyline clip-path="url(#clip732)" style="stroke:#000000; stroke-width:2; stroke-opacity:0.1; fill:none" points="
  204.671,852.179 2352.76,852.179 
  "/>
<polyline clip-path="url(#clip732)" style="stroke:#000000; stroke-width:2; stroke-opacity:0.1; fill:none" points="
  204.671,511.466 2352.76,511.466 
  "/>
<polyline clip-path="url(#clip732)" style="stroke:#000000; stroke-width:2; stroke-opacity:0.1; fill:none" points="
  204.671,170.753 2352.76,170.753 
  "/>
<polyline clip-path="url(#clip730)" style="stroke:#000000; stroke-width:4; stroke-opacity:1; fill:none" points="
  204.671,1401.58 204.671,47.2441 
  "/>
<polyline clip-path="url(#clip730)" style="stroke:#000000; stroke-width:4; stroke-opacity:1; fill:none" points="
  204.671,1192.89 230.448,1192.89 
  "/>
<polyline clip-path="url(#clip730)" style="stroke:#000000; stroke-width:4; stroke-opacity:1; fill:none" points="
  204.671,852.179 230.448,852.179 
  "/>
<polyline clip-path="url(#clip730)" style="stroke:#000000; stroke-width:4; stroke-opacity:1; fill:none" points="
  204.671,511.466 230.448,511.466 
  "/>
<polyline clip-path="url(#clip730)" style="stroke:#000000; stroke-width:4; stroke-opacity:1; fill:none" points="
  204.671,170.753 230.448,170.753 
  "/>
<path clip-path="url(#clip730)" d="M 0 0 M50.9921 1193.46 L88.0868 1193.46 L88.0868 1198.38 L50.9921 1198.38 L50.9921 1193.46 Z" fill="#000000" fill-rule="evenodd" fill-opacity="1" /><path clip-path="url(#clip730)" d="M 0 0 M106.924 1175.14 Q102.41 1175.14 100.124 1179.6 Q97.8669 1184.02 97.8669 1192.94 Q97.8669 1201.82 100.124 1206.28 Q102.41 1210.7 106.924 1210.7 Q111.466 1210.7 113.723 1206.28 Q116.009 1201.82 116.009 1192.94 Q116.009 1184.02 113.723 1179.6 Q111.466 1175.14 106.924 1175.14 M106.924 1170.51 Q114.186 1170.51 118.006 1176.27 Q121.854 1182 121.854 1192.94 Q121.854 1203.84 118.006 1209.6 Q114.186 1215.33 106.924 1215.33 Q99.6608 1215.33 95.8125 1209.6 Q91.9931 1203.84 91.9931 1192.94 Q91.9931 1182 95.8125 1176.27 Q99.6608 1170.51 106.924 1170.51 Z" fill="#000000" fill-rule="evenodd" fill-opacity="1" /><path clip-path="url(#clip730)" d="M 0 0 M128.191 1207.14 L134.296 1207.14 L134.296 1214.49 L128.191 1214.49 L128.191 1207.14 Z" fill="#000000" fill-rule="evenodd" fill-opacity="1" /><path clip-path="url(#clip730)" d="M 0 0 M156.692 1176.39 L141.935 1199.45 L156.692 1199.45 L156.692 1176.39 M155.158 1171.29 L162.508 1171.29 L162.508 1199.45 L168.671 1199.45 L168.671 1204.31 L162.508 1204.31 L162.508 1214.49 L156.692 1214.49 L156.692 1204.31 L137.19 1204.31 L137.19 1198.67 L155.158 1171.29 Z" fill="#000000" fill-rule="evenodd" fill-opacity="1" /><path clip-path="url(#clip730)" d="M 0 0 M53.5963 852.744 L90.691 852.744 L90.691 857.663 L53.5963 857.663 L53.5963 852.744 Z" fill="#000000" fill-rule="evenodd" fill-opacity="1" /><path clip-path="url(#clip730)" d="M 0 0 M109.528 834.428 Q105.014 834.428 102.728 838.884 Q100.471 843.311 100.471 852.223 Q100.471 861.106 102.728 865.562 Q105.014 869.989 109.528 869.989 Q114.07 869.989 116.327 865.562 Q118.613 861.106 118.613 852.223 Q118.613 843.311 116.327 838.884 Q114.07 834.428 109.528 834.428 M109.528 829.798 Q116.79 829.798 120.61 835.556 Q124.458 841.285 124.458 852.223 Q124.458 863.131 120.61 868.889 Q116.79 874.619 109.528 874.619 Q102.265 874.619 98.4166 868.889 Q94.5972 863.131 94.5972 852.223 Q94.5972 841.285 98.4166 835.556 Q102.265 829.798 109.528 829.798 Z" fill="#000000" fill-rule="evenodd" fill-opacity="1" /><path clip-path="url(#clip730)" d="M 0 0 M130.795 866.43 L136.9 866.43 L136.9 873.779 L130.795 873.779 L130.795 866.43 Z" fill="#000000" fill-rule="evenodd" fill-opacity="1" /><path clip-path="url(#clip730)" d="M 0 0 M148.272 868.861 L168.671 868.861 L168.671 873.779 L141.24 873.779 L141.24 868.861 Q144.568 865.417 150.297 859.63 Q156.055 853.814 157.531 852.136 Q160.338 848.982 161.437 846.812 Q162.566 844.613 162.566 842.501 Q162.566 839.057 160.135 836.887 Q157.733 834.717 153.856 834.717 Q151.107 834.717 148.04 835.672 Q145.002 836.627 141.53 838.566 L141.53 832.663 Q145.06 831.245 148.127 830.522 Q151.194 829.798 153.74 829.798 Q160.453 829.798 164.446 833.155 Q168.439 836.511 168.439 842.125 Q168.439 844.787 167.427 847.188 Q166.443 849.561 163.81 852.802 Q163.086 853.641 159.209 857.663 Q155.332 861.656 148.272 868.861 Z" fill="#000000" fill-rule="evenodd" fill-opacity="1" /><path clip-path="url(#clip730)" d="M 0 0 M107.531 493.714 Q103.017 493.714 100.731 498.17 Q98.4745 502.598 98.4745 511.509 Q98.4745 520.393 100.731 524.849 Q103.017 529.276 107.531 529.276 Q112.074 529.276 114.331 524.849 Q116.617 520.393 116.617 511.509 Q116.617 502.598 114.331 498.17 Q112.074 493.714 107.531 493.714 M107.531 489.085 Q114.794 489.085 118.613 494.843 Q122.462 500.572 122.462 511.509 Q122.462 522.418 118.613 528.176 Q114.794 533.905 107.531 533.905 Q100.268 533.905 96.4201 528.176 Q92.6007 522.418 92.6007 511.509 Q92.6007 500.572 96.4201 494.843 Q100.268 489.085 107.531 489.085 Z" fill="#000000" fill-rule="evenodd" fill-opacity="1" /><path clip-path="url(#clip730)" d="M 0 0 M128.798 525.717 L134.904 525.717 L134.904 533.066 L128.798 533.066 L128.798 525.717 Z" fill="#000000" fill-rule="evenodd" fill-opacity="1" /><path clip-path="url(#clip730)" d="M 0 0 M153.74 493.714 Q149.227 493.714 146.941 498.17 Q144.684 502.598 144.684 511.509 Q144.684 520.393 146.941 524.849 Q149.227 529.276 153.74 529.276 Q158.283 529.276 160.54 524.849 Q162.826 520.393 162.826 511.509 Q162.826 502.598 160.54 498.17 Q158.283 493.714 153.74 493.714 M153.74 489.085 Q161.003 489.085 164.823 494.843 Q168.671 500.572 168.671 511.509 Q168.671 522.418 164.823 528.176 Q161.003 533.905 153.74 533.905 Q146.478 533.905 142.629 528.176 Q138.81 522.418 138.81 511.509 Q138.81 500.572 142.629 494.843 Q146.478 489.085 153.74 489.085 Z" fill="#000000" fill-rule="evenodd" fill-opacity="1" /><path clip-path="url(#clip730)" d="M 0 0 M109.528 153.001 Q105.014 153.001 102.728 157.457 Q100.471 161.884 100.471 170.796 Q100.471 179.679 102.728 184.135 Q105.014 188.562 109.528 188.562 Q114.07 188.562 116.327 184.135 Q118.613 179.679 118.613 170.796 Q118.613 161.884 116.327 157.457 Q114.07 153.001 109.528 153.001 M109.528 148.371 Q116.79 148.371 120.61 154.13 Q124.458 159.859 124.458 170.796 Q124.458 181.705 120.61 187.463 Q116.79 193.192 109.528 193.192 Q102.265 193.192 98.4166 187.463 Q94.5972 181.705 94.5972 170.796 Q94.5972 159.859 98.4166 154.13 Q102.265 148.371 109.528 148.371 Z" fill="#000000" fill-rule="evenodd" fill-opacity="1" /><path clip-path="url(#clip730)" d="M 0 0 M130.795 185.003 L136.9 185.003 L136.9 192.353 L130.795 192.353 L130.795 185.003 Z" fill="#000000" fill-rule="evenodd" fill-opacity="1" /><path clip-path="url(#clip730)" d="M 0 0 M148.272 187.434 L168.671 187.434 L168.671 192.353 L141.24 192.353 L141.24 187.434 Q144.568 183.99 150.297 178.203 Q156.055 172.388 157.531 170.709 Q160.338 167.555 161.437 165.385 Q162.566 163.186 162.566 161.074 Q162.566 157.631 160.135 155.461 Q157.733 153.29 153.856 153.29 Q151.107 153.29 148.04 154.245 Q145.002 155.2 141.53 157.139 L141.53 151.236 Q145.06 149.818 148.127 149.095 Q151.194 148.371 153.74 148.371 Q160.453 148.371 164.446 151.728 Q168.439 155.084 168.439 160.698 Q168.439 163.36 167.427 165.761 Q166.443 168.134 163.81 171.375 Q163.086 172.214 159.209 176.236 Q155.332 180.229 148.272 187.434 Z" fill="#000000" fill-rule="evenodd" fill-opacity="1" /><polyline clip-path="url(#clip732)" style="stroke:#009af9; stroke-width:8; stroke-opacity:1; fill:none" points="
  302.311,511.466 497.592,511.466 692.872,511.466 888.152,511.466 1083.43,511.466 1278.71,85.5744 1473.99,511.466 1669.27,511.466 1864.55,511.466 2059.84,511.466 
  2255.12,511.466 2450.4,511.466 2645.68,511.466 2840.96,511.466 3036.24,511.466 3231.52,511.466 3426.8,511.466 3622.08,511.466 3817.36,511.466 4012.64,511.466 
  4207.92,511.466 4403.2,511.466 4598.48,511.466 4793.76,511.466 4989.04,511.466 5184.32,511.466 5379.6,511.466 5574.88,511.466 5770.16,511.466 5965.44,511.466 
  6160.72,511.466 6356.01,511.466 6551.29,511.466 
  "/>
<circle clip-path="url(#clip732)" cx="302.311" cy="511.466" r="14" fill="#009af9" fill-rule="evenodd" fill-opacity="1" stroke="#000000" stroke-opacity="1" stroke-width="3.2"/>
<circle clip-path="url(#clip732)" cx="497.592" cy="511.466" r="14" fill="#009af9" fill-rule="evenodd" fill-opacity="1" stroke="#000000" stroke-opacity="1" stroke-width="3.2"/>
<circle clip-path="url(#clip732)" cx="692.872" cy="511.466" r="14" fill="#009af9" fill-rule="evenodd" fill-opacity="1" stroke="#000000" stroke-opacity="1" stroke-width="3.2"/>
<circle clip-path="url(#clip732)" cx="888.152" cy="511.466" r="14" fill="#009af9" fill-rule="evenodd" fill-opacity="1" stroke="#000000" stroke-opacity="1" stroke-width="3.2"/>
<circle clip-path="url(#clip732)" cx="1083.43" cy="511.466" r="14" fill="#009af9" fill-rule="evenodd" fill-opacity="1" stroke="#000000" stroke-opacity="1" stroke-width="3.2"/>
<circle clip-path="url(#clip732)" cx="1278.71" cy="85.5744" r="14" fill="#009af9" fill-rule="evenodd" fill-opacity="1" stroke="#000000" stroke-opacity="1" stroke-width="3.2"/>
<circle clip-path="url(#clip732)" cx="1473.99" cy="511.466" r="14" fill="#009af9" fill-rule="evenodd" fill-opacity="1" stroke="#000000" stroke-opacity="1" stroke-width="3.2"/>
<circle clip-path="url(#clip732)" cx="1669.27" cy="511.466" r="14" fill="#009af9" fill-rule="evenodd" fill-opacity="1" stroke="#000000" stroke-opacity="1" stroke-width="3.2"/>
<circle clip-path="url(#clip732)" cx="1864.55" cy="511.466" r="14" fill="#009af9" fill-rule="evenodd" fill-opacity="1" stroke="#000000" stroke-opacity="1" stroke-width="3.2"/>
<circle clip-path="url(#clip732)" cx="2059.84" cy="511.466" r="14" fill="#009af9" fill-rule="evenodd" fill-opacity="1" stroke="#000000" stroke-opacity="1" stroke-width="3.2"/>
<circle clip-path="url(#clip732)" cx="2255.12" cy="511.466" r="14" fill="#009af9" fill-rule="evenodd" fill-opacity="1" stroke="#000000" stroke-opacity="1" stroke-width="3.2"/>
<polyline clip-path="url(#clip732)" style="stroke:#e26f46; stroke-width:8; stroke-opacity:1; fill:none" points="
  302.311,511.466 497.592,511.466 692.872,1363.25 888.152,511.466 1083.43,511.466 1278.71,511.466 1473.99,511.466 1669.27,511.466 1864.55,511.466 2059.84,511.466 
  2255.12,511.466 2450.4,511.466 2645.68,511.466 2840.96,511.466 3036.24,511.466 3231.52,511.466 3426.8,511.466 3622.08,511.466 3817.36,511.466 4012.64,511.466 
  4207.92,511.466 4403.2,511.466 4598.48,511.466 4793.76,511.466 4989.04,511.466 5184.32,511.466 5379.6,511.466 5574.88,511.466 5770.16,511.466 5965.44,511.466 
  6160.72,511.466 6356.01,511.466 6551.29,511.466 
  "/>
<path clip-path="url(#clip732)" d="M286.311 495.466 L286.311 527.466 L318.311 527.466 L318.311 495.466 L286.311 495.466 Z" fill="#e26f46" fill-rule="evenodd" fill-opacity="1" stroke="#000000" stroke-opacity="1" stroke-width="3.2"/>
<path clip-path="url(#clip732)" d="M481.592 495.466 L481.592 527.466 L513.592 527.466 L513.592 495.466 L481.592 495.466 Z" fill="#e26f46" fill-rule="evenodd" fill-opacity="1" stroke="#000000" stroke-opacity="1" stroke-width="3.2"/>
<path clip-path="url(#clip732)" d="M676.872 1347.25 L676.872 1379.25 L708.872 1379.25 L708.872 1347.25 L676.872 1347.25 Z" fill="#e26f46" fill-rule="evenodd" fill-opacity="1" stroke="#000000" stroke-opacity="1" stroke-width="3.2"/>
<path clip-path="url(#clip732)" d="M872.152 495.466 L872.152 527.466 L904.152 527.466 L904.152 495.466 L872.152 495.466 Z" fill="#e26f46" fill-rule="evenodd" fill-opacity="1" stroke="#000000" stroke-opacity="1" stroke-width="3.2"/>
<path clip-path="url(#clip732)" d="M1067.43 495.466 L1067.43 527.466 L1099.43 527.466 L1099.43 495.466 L1067.43 495.466 Z" fill="#e26f46" fill-rule="evenodd" fill-opacity="1" stroke="#000000" stroke-opacity="1" stroke-width="3.2"/>
<path clip-path="url(#clip732)" d="M1262.71 495.466 L1262.71 527.466 L1294.71 527.466 L1294.71 495.466 L1262.71 495.466 Z" fill="#e26f46" fill-rule="evenodd" fill-opacity="1" stroke="#000000" stroke-opacity="1" stroke-width="3.2"/>
<path clip-path="url(#clip732)" d="M1457.99 495.466 L1457.99 527.466 L1489.99 527.466 L1489.99 495.466 L1457.99 495.466 Z" fill="#e26f46" fill-rule="evenodd" fill-opacity="1" stroke="#000000" stroke-opacity="1" stroke-width="3.2"/>
<path clip-path="url(#clip732)" d="M1653.27 495.466 L1653.27 527.466 L1685.27 527.466 L1685.27 495.466 L1653.27 495.466 Z" fill="#e26f46" fill-rule="evenodd" fill-opacity="1" stroke="#000000" stroke-opacity="1" stroke-width="3.2"/>
<path clip-path="url(#clip732)" d="M1848.55 495.466 L1848.55 527.466 L1880.55 527.466 L1880.55 495.466 L1848.55 495.466 Z" fill="#e26f46" fill-rule="evenodd" fill-opacity="1" stroke="#000000" stroke-opacity="1" stroke-width="3.2"/>
<path clip-path="url(#clip732)" d="M2043.84 495.466 L2043.84 527.466 L2075.84 527.466 L2075.84 495.466 L2043.84 495.466 Z" fill="#e26f46" fill-rule="evenodd" fill-opacity="1" stroke="#000000" stroke-opacity="1" stroke-width="3.2"/>
<path clip-path="url(#clip732)" d="M2239.12 495.466 L2239.12 527.466 L2271.12 527.466 L2271.12 495.466 L2239.12 495.466 Z" fill="#e26f46" fill-rule="evenodd" fill-opacity="1" stroke="#000000" stroke-opacity="1" stroke-width="3.2"/>
<path clip-path="url(#clip730)" d="
M1820.63 319.189 L2281.15 319.189 L2281.15 92.3886 L1820.63 92.3886  Z
  " fill="#ffffff" fill-rule="evenodd" fill-opacity="1"/>
<polyline clip-path="url(#clip730)" style="stroke:#000000; stroke-width:4; stroke-opacity:1; fill:none" points="
  1820.63,319.189 2281.15,319.189 2281.15,92.3886 1820.63,92.3886 1820.63,319.189 
  "/>
<polyline clip-path="url(#clip730)" style="stroke:#009af9; stroke-width:5; stroke-opacity:1; fill:none" points="
  1844.5,167.989 1987.71,167.989 
  "/>
<circle clip-path="url(#clip730)" cx="1916.1" cy="167.989" r="28" fill="#009af9" fill-rule="evenodd" fill-opacity="1" stroke="#000000" stroke-opacity="1" stroke-width="6.4"/>
<path clip-path="url(#clip730)" d="M 0 0 M2030.55 157.622 Q2029.66 157.101 2028.59 156.87 Q2027.55 156.609 2026.27 156.609 Q2021.76 156.609 2019.33 159.561 Q2016.93 162.483 2016.93 167.981 L2016.93 185.053 L2011.57 185.053 L2011.57 152.645 L2016.93 152.645 L2016.93 157.68 Q2018.6 154.729 2021.3 153.311 Q2023.99 151.864 2027.83 151.864 Q2028.38 151.864 2029.05 151.951 Q2029.72 152.009 2030.53 152.153 L2030.55 157.622 Z" fill="#000000" fill-rule="evenodd" fill-opacity="1" /><path clip-path="url(#clip730)" d="M 0 0 M2062.56 167.518 L2062.56 170.122 L2038.08 170.122 Q2038.42 175.62 2041.38 178.513 Q2044.36 181.378 2049.65 181.378 Q2052.72 181.378 2055.58 180.626 Q2058.48 179.873 2061.31 178.369 L2061.31 183.403 Q2058.45 184.619 2055.44 185.255 Q2052.43 185.892 2049.33 185.892 Q2041.58 185.892 2037.04 181.378 Q2032.52 176.864 2032.52 169.167 Q2032.52 161.21 2036.8 156.552 Q2041.12 151.864 2048.41 151.864 Q2054.95 151.864 2058.74 156.089 Q2062.56 160.284 2062.56 167.518 M2057.23 165.955 Q2057.17 161.586 2054.77 158.982 Q2052.4 156.378 2048.47 156.378 Q2044.01 156.378 2041.32 158.895 Q2038.66 161.413 2038.25 165.984 L2057.23 165.955 Z" fill="#000000" fill-rule="evenodd" fill-opacity="1" /><path clip-path="url(#clip730)" d="M 0 0 M2082.87 168.762 Q2076.42 168.762 2073.93 170.238 Q2071.44 171.714 2071.44 175.273 Q2071.44 178.108 2073.29 179.786 Q2075.17 181.436 2078.38 181.436 Q2082.81 181.436 2085.47 178.311 Q2088.16 175.157 2088.16 169.949 L2088.16 168.762 L2082.87 168.762 M2093.49 166.563 L2093.49 185.053 L2088.16 185.053 L2088.16 180.134 Q2086.34 183.085 2083.62 184.503 Q2080.9 185.892 2076.97 185.892 Q2071.99 185.892 2069.04 183.114 Q2066.12 180.307 2066.12 175.62 Q2066.12 170.151 2069.76 167.373 Q2073.44 164.596 2080.7 164.596 L2088.16 164.596 L2088.16 164.075 Q2088.16 160.4 2085.73 158.403 Q2083.33 156.378 2078.96 156.378 Q2076.18 156.378 2073.55 157.044 Q2070.92 157.709 2068.49 159.04 L2068.49 154.121 Q2071.41 152.993 2074.16 152.443 Q2076.91 151.864 2079.51 151.864 Q2086.54 151.864 2090.02 155.51 Q2093.49 159.156 2093.49 166.563 Z" fill="#000000" fill-rule="evenodd" fill-opacity="1" /><path clip-path="url(#clip730)" d="M 0 0 M2099.07 140.03 L2104.4 140.03 L2104.4 185.053 L2099.07 185.053 L2099.07 140.03 Z" fill="#000000" fill-rule="evenodd" fill-opacity="1" /><path clip-path="url(#clip730)" d="M 0 0 M2122.77 140.088 Q2118.89 146.743 2117.01 153.253 Q2115.13 159.763 2115.13 166.447 Q2115.13 173.131 2117.01 179.7 Q2118.92 186.239 2122.77 192.865 L2118.14 192.865 Q2113.8 186.065 2111.63 179.497 Q2109.49 172.929 2109.49 166.447 Q2109.49 159.995 2111.63 153.456 Q2113.77 146.916 2118.14 140.088 L2122.77 140.088 Z" fill="#000000" fill-rule="evenodd" fill-opacity="1" /><path clip-path="url(#clip730)" d="M 0 0 M2146.64 172.263 L2146.64 152.645 L2151.97 152.645 L2151.97 172.061 Q2151.97 176.661 2153.76 178.976 Q2155.55 181.262 2159.14 181.262 Q2163.45 181.262 2165.94 178.513 Q2168.46 175.764 2168.46 171.019 L2168.46 152.645 L2173.78 152.645 L2173.78 185.053 L2168.46 185.053 L2168.46 180.076 Q2166.52 183.027 2163.94 184.474 Q2161.4 185.892 2158.01 185.892 Q2152.43 185.892 2149.54 182.42 Q2146.64 178.947 2146.64 172.263 M2160.04 151.864 L2160.04 151.864 Z" fill="#000000" fill-rule="evenodd" fill-opacity="1" /><path clip-path="url(#clip730)" d="M 0 0 M2156.83 137.657 L2161.11 137.657 L2168.2 148.537 L2164.18 148.537 L2158.97 141.448 L2153.76 148.537 L2149.74 148.537 L2156.83 137.657 M2158.97 151.864 L2158.97 151.864 Z" fill="#000000" fill-rule="evenodd" fill-opacity="1" /><path clip-path="url(#clip730)" d="M 0 0 M2191.78 140.088 L2196.41 140.088 Q2200.75 146.916 2202.89 153.456 Q2205.06 159.995 2205.06 166.447 Q2205.06 172.929 2202.89 179.497 Q2200.75 186.065 2196.41 192.865 L2191.78 192.865 Q2195.63 186.239 2197.51 179.7 Q2199.42 173.131 2199.42 166.447 Q2199.42 159.763 2197.51 153.253 Q2195.63 146.743 2191.78 140.088 Z" fill="#000000" fill-rule="evenodd" fill-opacity="1" /><polyline clip-path="url(#clip730)" style="stroke:#e26f46; stroke-width:5; stroke-opacity:1; fill:none" points="
  1844.5,243.589 1987.71,243.589 
  "/>
<path clip-path="url(#clip730)" d="M1884.1 211.589 L1884.1 275.589 L1948.1 275.589 L1948.1 211.589 L1884.1 211.589 Z" fill="#e26f46" fill-rule="evenodd" fill-opacity="1" stroke="#000000" stroke-opacity="1" stroke-width="6.4"/>
<path clip-path="url(#clip730)" d="M 0 0 M2011.57 228.245 L2016.9 228.245 L2016.9 260.653 L2011.57 260.653 L2011.57 228.245 M2011.57 215.63 L2016.9 215.63 L2016.9 222.372 L2011.57 222.372 L2011.57 215.63 Z" fill="#000000" fill-rule="evenodd" fill-opacity="1" /><path clip-path="url(#clip730)" d="M 0 0 M2047.71 234.466 Q2049.71 230.878 2052.49 229.171 Q2055.26 227.464 2059.03 227.464 Q2064.09 227.464 2066.84 231.023 Q2069.59 234.553 2069.59 241.093 L2069.59 260.653 L2064.23 260.653 L2064.23 241.266 Q2064.23 236.608 2062.59 234.351 Q2060.94 232.094 2057.55 232.094 Q2053.41 232.094 2051.01 234.843 Q2048.61 237.591 2048.61 242.337 L2048.61 260.653 L2043.26 260.653 L2043.26 241.266 Q2043.26 236.579 2041.61 234.351 Q2039.96 232.094 2036.51 232.094 Q2032.44 232.094 2030.03 234.872 Q2027.63 237.62 2027.63 242.337 L2027.63 260.653 L2022.28 260.653 L2022.28 228.245 L2027.63 228.245 L2027.63 233.28 Q2029.45 230.3 2032 228.882 Q2034.55 227.464 2038.05 227.464 Q2041.58 227.464 2044.04 229.258 Q2046.53 231.052 2047.71 234.466 Z" fill="#000000" fill-rule="evenodd" fill-opacity="1" /><path clip-path="url(#clip730)" d="M 0 0 M2089.9 244.362 Q2083.45 244.362 2080.96 245.838 Q2078.47 247.314 2078.47 250.873 Q2078.47 253.708 2080.32 255.386 Q2082.2 257.036 2085.42 257.036 Q2089.84 257.036 2092.5 253.911 Q2095.2 250.757 2095.2 245.549 L2095.2 244.362 L2089.9 244.362 M2100.52 242.163 L2100.52 260.653 L2095.2 260.653 L2095.2 255.734 Q2093.37 258.685 2090.65 260.103 Q2087.93 261.492 2084 261.492 Q2079.02 261.492 2076.07 258.714 Q2073.15 255.907 2073.15 251.22 Q2073.15 245.751 2076.79 242.973 Q2080.47 240.196 2087.73 240.196 L2095.2 240.196 L2095.2 239.675 Q2095.2 236 2092.76 234.003 Q2090.36 231.978 2085.99 231.978 Q2083.22 231.978 2080.58 232.644 Q2077.95 233.309 2075.52 234.64 L2075.52 229.721 Q2078.44 228.593 2081.19 228.043 Q2083.94 227.464 2086.54 227.464 Q2093.57 227.464 2097.05 231.11 Q2100.52 234.756 2100.52 242.163 Z" fill="#000000" fill-rule="evenodd" fill-opacity="1" /><path clip-path="url(#clip730)" d="M 0 0 M2127.43 244.073 Q2127.43 238.286 2125.03 235.103 Q2122.65 231.92 2118.34 231.92 Q2114.06 231.92 2111.66 235.103 Q2109.29 238.286 2109.29 244.073 Q2109.29 249.831 2111.66 253.014 Q2114.06 256.197 2118.34 256.197 Q2122.65 256.197 2125.03 253.014 Q2127.43 249.831 2127.43 244.073 M2132.75 256.631 Q2132.75 264.906 2129.08 268.928 Q2125.4 272.979 2117.82 272.979 Q2115.02 272.979 2112.53 272.545 Q2110.04 272.14 2107.7 271.272 L2107.7 266.092 Q2110.04 267.366 2112.32 267.973 Q2114.61 268.581 2116.98 268.581 Q2122.22 268.581 2124.82 265.832 Q2127.43 263.112 2127.43 257.586 L2127.43 254.952 Q2125.78 257.817 2123.2 259.235 Q2120.63 260.653 2117.04 260.653 Q2111.08 260.653 2107.43 256.11 Q2103.79 251.567 2103.79 244.073 Q2103.79 236.55 2107.43 232.007 Q2111.08 227.464 2117.04 227.464 Q2120.63 227.464 2123.2 228.882 Q2125.78 230.3 2127.43 233.164 L2127.43 228.245 L2132.75 228.245 L2132.75 256.631 Z" fill="#000000" fill-rule="evenodd" fill-opacity="1" /><path clip-path="url(#clip730)" d="M 0 0 M2151.13 215.688 Q2147.25 222.343 2145.37 228.853 Q2143.49 235.363 2143.49 242.047 Q2143.49 248.731 2145.37 255.3 Q2147.28 261.839 2151.13 268.465 L2146.5 268.465 Q2142.16 261.665 2139.99 255.097 Q2137.85 248.529 2137.85 242.047 Q2137.85 235.595 2139.99 229.056 Q2142.13 222.516 2146.5 215.688 L2151.13 215.688 Z" fill="#000000" fill-rule="evenodd" fill-opacity="1" /><path clip-path="url(#clip730)" d="M 0 0 M2175 247.863 L2175 228.245 L2180.32 228.245 L2180.32 247.661 Q2180.32 252.261 2182.12 254.576 Q2183.91 256.862 2187.5 256.862 Q2191.81 256.862 2194.3 254.113 Q2196.82 251.364 2196.82 246.619 L2196.82 228.245 L2202.14 228.245 L2202.14 260.653 L2196.82 260.653 L2196.82 255.676 Q2194.88 258.627 2192.3 260.074 Q2189.75 261.492 2186.37 261.492 Q2180.79 261.492 2177.89 258.02 Q2175 254.547 2175 247.863 M2188.39 227.464 L2188.39 227.464 Z" fill="#000000" fill-rule="evenodd" fill-opacity="1" /><path clip-path="url(#clip730)" d="M 0 0 M2185.18 213.257 L2189.47 213.257 L2196.55 224.137 L2192.53 224.137 L2187.32 217.048 L2182.12 224.137 L2178.09 224.137 L2185.18 213.257 M2187.32 227.464 L2187.32 227.464 Z" fill="#000000" fill-rule="evenodd" fill-opacity="1" /><path clip-path="url(#clip730)" d="M 0 0 M2220.14 215.688 L2224.77 215.688 Q2229.11 222.516 2231.25 229.056 Q2233.42 235.595 2233.42 242.047 Q2233.42 248.529 2231.25 255.097 Q2229.11 261.665 2224.77 268.465 L2220.14 268.465 Q2223.99 261.839 2225.87 255.3 Q2227.78 248.731 2227.78 242.047 Q2227.78 235.363 2225.87 228.853 Q2223.99 222.343 2220.14 215.688 Z" fill="#000000" fill-rule="evenodd" fill-opacity="1" /></svg>
