<?xml version="1.0" encoding="UTF-8"?>
<svg xmlns="http://www.w3.org/2000/svg" xmlns:xlink="http://www.w3.org/1999/xlink" width="600" height="600" viewBox="0 0 600 600">
<defs>
<g>
<g id="glyph-0-0-ec75932e">
<path d="M 9.453125 0 C 9.453125 0 7.515625 0 7.515625 0 C 7.515625 0 4.90625 -4.015625 4.90625 -4.015625 C 4.90625 -4.015625 2.234375 0 2.234375 0 C 2.234375 0 0.34375 0 0.34375 0 C 0.34375 0 4.046875 -5.34375 4.046875 -5.34375 C 4.046875 -5.34375 0.546875 -10.484375 0.546875 -10.484375 C 0.546875 -10.484375 2.4375 -10.484375 2.4375 -10.484375 C 2.4375 -10.484375 4.953125 -6.6875 4.953125 -6.6875 C 4.953125 -6.6875 7.484375 -10.484375 7.484375 -10.484375 C 7.484375 -10.484375 9.359375 -10.484375 9.359375 -10.484375 C 9.359375 -10.484375 5.84375 -5.421875 5.84375 -5.421875 C 5.84375 -5.421875 9.453125 0 9.453125 0 Z M 9.453125 0 "/>
</g>
<g id="glyph-0-1-ec75932e">
</g>
<g id="glyph-0-2-ec75932e">
<path d="M 5 4.234375 C 5 4.234375 1.28125 4.234375 1.28125 4.234375 C 1.28125 4.234375 1.28125 -14.578125 1.28125 -14.578125 C 1.28125 -14.578125 5 -14.578125 5 -14.578125 C 5 -14.578125 5 -13.140625 5 -13.140625 C 5 -13.140625 2.9375 -13.140625 2.9375 -13.140625 C 2.9375 -13.140625 2.9375 2.796875 2.9375 2.796875 C 2.9375 2.796875 5 2.796875 5 2.796875 C 5 2.796875 5 4.234375 5 4.234375 Z M 5 4.234375 "/>
</g>
<g id="glyph-0-3-ec75932e">
<path d="M 10.046875 0 C 10.046875 0 7.984375 0 7.984375 0 C 7.984375 0 4.4375 -5.6875 4.4375 -5.6875 C 4.4375 -5.6875 2.8125 -4.078125 2.8125 -4.078125 C 2.8125 -4.078125 2.8125 0 2.8125 0 C 2.8125 0 1.15625 0 1.15625 0 C 1.15625 0 1.15625 -14.578125 1.15625 -14.578125 C 1.15625 -14.578125 2.8125 -14.578125 2.8125 -14.578125 C 2.8125 -14.578125 2.8125 -6.046875 2.8125 -6.046875 C 2.8125 -6.046875 7.265625 -10.484375 7.265625 -10.484375 C 7.265625 -10.484375 9.40625 -10.484375 9.40625 -10.484375 C 9.40625 -10.484375 5.765625 -6.859375 5.765625 -6.859375 C 5.765625 -6.859375 10.046875 0 10.046875 0 Z M 10.046875 0 "/>
</g>
<g id="glyph-0-4-ec75932e">
<path d="M 15.203125 0 C 15.203125 0 13.546875 0 13.546875 0 C 13.546875 0 13.546875 -7.21875 13.546875 -7.21875 C 13.546875 -8.546875 12.84375 -9.3125 11.625 -9.3125 C 10.265625 -9.3125 9.140625 -8.09375 9.140625 -6.578125 C 9.140625 -6.578125 9.140625 0 9.140625 0 C 9.140625 0 7.484375 0 7.484375 0 C 7.484375 0 7.484375 -7.21875 7.484375 -7.21875 C 7.484375 -8.5625 6.78125 -9.3125 5.546875 -9.3125 C 4.1875 -9.3125 3.078125 -8.09375 3.078125 -6.578125 C 3.078125 -6.578125 3.078125 0 3.078125 0 C 3.078125 0 1.421875 0 1.421875 0 C 1.421875 0 1.421875 -10.484375 1.421875 -10.484375 C 1.421875 -10.484375 2.9375 -10.484375 2.9375 -10.484375 C 2.9375 -10.484375 2.9375 -9 2.9375 -9 C 3.84375 -10.265625 4.765625 -10.78125 6.15625 -10.78125 C 7.515625 -10.78125 8.359375 -10.296875 8.984375 -9.1875 C 9.953125 -10.359375 10.796875 -10.78125 12.203125 -10.78125 C 14.15625 -10.78125 15.203125 -9.734375 15.203125 -7.859375 C 15.203125 -7.859375 15.203125 0 15.203125 0 Z M 15.203125 0 "/>
</g>
<g id="glyph-0-5-ec75932e">
<path d="M 4.1875 4.234375 C 4.1875 4.234375 0.453125 4.234375 0.453125 4.234375 C 0.453125 4.234375 0.453125 2.796875 0.453125 2.796875 C 0.453125 2.796875 2.515625 2.796875 2.515625 2.796875 C 2.515625 2.796875 2.515625 -13.140625 2.515625 -13.140625 C 2.515625 -13.140625 0.453125 -13.140625 0.453125 -13.140625 C 0.453125 -13.140625 0.453125 -14.578125 0.453125 -14.578125 C 0.453125 -14.578125 4.1875 -14.578125 4.1875 -14.578125 C 4.1875 -14.578125 4.1875 4.234375 4.1875 4.234375 Z M 4.1875 4.234375 "/>
</g>
<g id="glyph-0-6-ec75932e">
<path d="M 10.3125 -4.3125 C 10.3125 -4.3125 1.359375 -4.3125 1.359375 -4.3125 C 1.359375 -4.3125 1.359375 -5.6875 1.359375 -5.6875 C 1.359375 -5.6875 10.3125 -5.6875 10.3125 -5.6875 C 10.3125 -5.6875 10.3125 -4.3125 10.3125 -4.3125 Z M 10.3125 -4.3125 "/>
</g>
<g id="glyph-0-7-ec75932e">
<path d="M 10.21875 -10.015625 C 10.21875 -8.28125 9.203125 -6.796875 7.21875 -5.734375 C 7.21875 -5.734375 5.21875 -4.65625 5.21875 -4.65625 C 3.484375 -3.640625 2.84375 -2.90625 2.65625 -1.734375 C 2.65625 -1.734375 10.125 -1.734375 10.125 -1.734375 C 10.125 -1.734375 10.125 0 10.125 0 C 10.125 0 0.6875 0 0.6875 0 C 0.84375 -3.125 1.703125 -4.453125 4.65625 -6.140625 C 4.65625 -6.140625 6.5 -7.1875 6.5 -7.1875 C 7.765625 -7.90625 8.421875 -8.859375 8.421875 -9.984375 C 8.421875 -11.5 7.21875 -12.640625 5.625 -12.640625 C 3.875 -12.640625 2.90625 -11.640625 2.765625 -9.265625 C 2.765625 -9.265625 1 -9.265625 1 -9.265625 C 1.09375 -12.703125 2.78125 -14.1875 5.6875 -14.1875 C 8.359375 -14.1875 10.21875 -12.421875 10.21875 -10.015625 Z M 10.21875 -10.015625 "/>
</g>
<g id="glyph-0-8-ec75932e">
<path d="M 10.265625 -4.703125 C 10.265625 -1.703125 8.265625 0.296875 5.40625 0.296875 C 2.875 0.296875 1.28125 -0.8125 0.703125 -3.640625 C 0.703125 -3.640625 2.453125 -3.640625 2.453125 -3.640625 C 2.875 -2.046875 3.8125 -1.265625 5.359375 -1.265625 C 7.28125 -1.265625 8.453125 -2.421875 8.453125 -4.453125 C 8.453125 -6.5625 7.265625 -7.78125 5.359375 -7.78125 C 4.265625 -7.78125 3.578125 -7.4375 2.765625 -6.453125 C 2.765625 -6.453125 1.140625 -6.453125 1.140625 -6.453125 C 1.140625 -6.453125 2.203125 -13.875 2.203125 -13.875 C 2.203125 -13.875 9.515625 -13.875 9.515625 -13.875 C 9.515625 -13.875 9.515625 -12.140625 9.515625 -12.140625 C 9.515625 -12.140625 3.625 -12.140625 3.625 -12.140625 C 3.625 -12.140625 3.0625 -8.484375 3.0625 -8.484375 C 3.875 -9.078125 4.6875 -9.34375 5.6875 -9.34375 C 8.40625 -9.34375 10.265625 -7.5 10.265625 -4.703125 Z M 10.265625 -4.703125 "/>
</g>
<g id="glyph-0-9-ec75932e">
<path d="M 10.140625 -6.8125 C 10.140625 -2.15625 8.5 0.296875 5.5 0.296875 C 2.453125 0.296875 0.859375 -2.15625 0.859375 -6.9375 C 0.859375 -11.703125 2.4375 -14.1875 5.5 -14.1875 C 8.578125 -14.1875 10.140625 -11.734375 10.140625 -6.8125 Z M 8.34375 -6.984375 C 8.34375 -10.78125 7.40625 -12.625 5.5 -12.625 C 3.59375 -12.625 2.65625 -10.796875 2.65625 -6.921875 C 2.65625 -3.046875 3.59375 -1.15625 5.453125 -1.15625 C 7.421875 -1.15625 8.34375 -2.953125 8.34375 -6.984375 Z M 8.34375 -6.984375 "/>
</g>
<g id="glyph-0-10-ec75932e">
<path d="M 3.8125 0 C 3.8125 0 1.734375 0 1.734375 0 C 1.734375 0 1.734375 -2.078125 1.734375 -2.078125 C 1.734375 -2.078125 3.8125 -2.078125 3.8125 -2.078125 C 3.8125 -2.078125 3.8125 0 3.8125 0 Z M 3.8125 0 "/>
</g>
<g id="glyph-0-11-ec75932e">
<path d="M 6.9375 0 C 6.9375 0 5.1875 0 5.1875 0 C 5.1875 0 5.1875 -10.09375 5.1875 -10.09375 C 5.1875 -10.09375 2.046875 -10.09375 2.046875 -10.09375 C 2.046875 -10.09375 2.046875 -11.359375 2.046875 -11.359375 C 4.765625 -11.703125 5.15625 -12 5.78125 -14.1875 C 5.78125 -14.1875 6.9375 -14.1875 6.9375 -14.1875 C 6.9375 -14.1875 6.9375 0 6.9375 0 Z M 6.9375 0 "/>
</g>
<g id="glyph-0-12-ec75932e">
<path d="M 9.640625 0 C 9.640625 0 8.140625 0 8.140625 0 C 8.140625 0 8.140625 -1.625 8.140625 -1.625 C 7.15625 -0.234375 6.1875 0.296875 4.640625 0.296875 C 2.59375 0.296875 1.296875 -0.8125 1.296875 -2.5625 C 1.296875 -2.5625 1.296875 -10.484375 1.296875 -10.484375 C 1.296875 -10.484375 2.953125 -10.484375 2.953125 -10.484375 C 2.953125 -10.484375 2.953125 -3.21875 2.953125 -3.21875 C 2.953125 -1.953125 3.796875 -1.15625 5.125 -1.15625 C 6.859375 -1.15625 7.984375 -2.5625 7.984375 -4.703125 C 7.984375 -4.703125 7.984375 -10.484375 7.984375 -10.484375 C 7.984375 -10.484375 9.640625 -10.484375 9.640625 -10.484375 C 9.640625 -10.484375 9.640625 0 9.640625 0 Z M 9.640625 0 "/>
</g>
<g id="glyph-0-13-ec75932e">
<path d="M 5.6875 -4.796875 C 5.6875 -4.796875 0.921875 -4.796875 0.921875 -4.796875 C 0.921875 -4.796875 0.921875 -6.234375 0.921875 -6.234375 C 0.921875 -6.234375 5.6875 -6.234375 5.6875 -6.234375 C 5.6875 -6.234375 5.6875 -4.796875 5.6875 -4.796875 Z M 5.6875 -4.796875 "/>
</g>
<g id="glyph-0-14-ec75932e">
<path d="M 9.78125 -1.71875 C 9.78125 2.90625 8.375 4.359375 5.09375 4.359375 C 2.640625 4.359375 1.09375 3.1875 0.921875 1.203125 C 0.921875 1.203125 2.625 1.203125 2.625 1.203125 C 2.8125 2.484375 3.84375 2.953125 5.15625 2.953125 C 7.09375 2.953125 8.234375 1.90625 8.234375 -0.875 C 8.234375 -0.875 8.234375 -1.578125 8.234375 -1.578125 C 7.140625 -0.265625 6.21875 0.296875 4.90625 0.296875 C 2.4375 0.296875 0.578125 -1.84375 0.578125 -5.140625 C 0.578125 -8.546875 2.375 -10.78125 5.046875 -10.78125 C 6.375 -10.78125 7.40625 -10.203125 8.234375 -8.953125 C 8.234375 -8.953125 8.234375 -10.484375 8.234375 -10.484375 C 8.234375 -10.484375 9.78125 -10.484375 9.78125 -10.484375 C 9.78125 -10.484375 9.78125 -1.71875 9.78125 -1.71875 Z M 8.078125 -5.1875 C 8.078125 -7.71875 7.015625 -9.234375 5.21875 -9.234375 C 3.4375 -9.234375 2.3125 -7.765625 2.3125 -5.234375 C 2.3125 -2.703125 3.421875 -1.234375 5.234375 -1.234375 C 7 -1.234375 8.078125 -2.6875 8.078125 -5.1875 Z M 8.078125 -5.1875 "/>
</g>
<g id="glyph-0-15-ec75932e">
<path d="M 5.6875 -14.578125 C 5.6875 -14.578125 0.9375 0.40625 0.9375 0.40625 C 0.9375 0.40625 -0.15625 0.40625 -0.15625 0.40625 C -0.15625 0.40625 4.578125 -14.578125 4.578125 -14.578125 C 4.578125 -14.578125 5.6875 -14.578125 5.6875 -14.578125 Z M 5.6875 -14.578125 "/>
</g>
<g id="glyph-0-16-ec75932e">
<path d="M 5.15625 -9.125 C 5.15625 -9.125 3.421875 -9.125 3.421875 -9.125 C 3.421875 -9.125 3.421875 0 3.421875 0 C 3.421875 0 1.765625 0 1.765625 0 C 1.765625 0 1.765625 -9.125 1.765625 -9.125 C 1.765625 -9.125 0.359375 -9.125 0.359375 -9.125 C 0.359375 -9.125 0.359375 -10.484375 0.359375 -10.484375 C 0.359375 -10.484375 1.765625 -10.484375 1.765625 -10.484375 C 1.765625 -10.484375 1.765625 -12.265625 1.765625 -12.265625 C 1.765625 -13.765625 2.6875 -14.640625 4.21875 -14.640625 C 4.5625 -14.640625 4.78125 -14.625 5.15625 -14.546875 C 5.15625 -14.546875 5.15625 -13.15625 5.15625 -13.15625 C 4.78125 -13.1875 4.71875 -13.1875 4.578125 -13.1875 C 3.8125 -13.1875 3.421875 -12.8125 3.421875 -12.125 C 3.421875 -12.125 3.421875 -10.484375 3.421875 -10.484375 C 3.421875 -10.484375 5.15625 -10.484375 5.15625 -10.484375 C 5.15625 -10.484375 5.15625 -9.125 5.15625 -9.125 Z M 5.15625 -9.125 "/>
</g>
<g id="glyph-0-17-ec75932e">
<path d="M 9.515625 -7.296875 C 9.515625 -3.4375 7.421875 0.234375 3.921875 0.234375 C 1.90625 0.234375 0.28125 -1.4375 0.28125 -3.5 C 0.28125 -5.984375 2.09375 -8.09375 4.515625 -8.09375 C 5.6875 -8.09375 6.8125 -7.875 7.875 -7.4375 C 7.859375 -10.59375 6.6875 -13.796875 3.921875 -13.796875 C 3.015625 -13.796875 2.1875 -13.453125 1.34375 -13.125 C 1.34375 -13.125 0.84375 -14.40625 0.84375 -14.40625 C 1.8125 -14.78125 2.875 -14.8125 3.921875 -14.8125 C 7.421875 -14.8125 9.515625 -11.140625 9.515625 -7.296875 Z M 7.859375 -6.34375 C 6.8125 -6.8125 5.6875 -7.078125 4.515625 -7.078125 C 2.859375 -7.078125 1.921875 -5.3125 1.921875 -3.5 C 1.921875 -2.09375 2.65625 -0.78125 3.921875 -0.78125 C 6.4375 -0.78125 7.640625 -3.453125 7.859375 -6.34375 Z M 7.859375 -6.34375 "/>
</g>
<g id="glyph-0-18-ec75932e">
<path d="M 9.734375 4 C 9.734375 4 8.078125 4 8.078125 4 C 8.078125 4 8.078125 -7.265625 8.078125 -7.265625 C 8.078125 -8.515625 7.234375 -9.3125 5.921875 -9.3125 C 4.21875 -9.3125 3.0625 -7.921875 3.0625 -5.78125 C 3.0625 -5.78125 3.0625 0 3.0625 0 C 3.0625 0 1.40625 0 1.40625 0 C 1.40625 0 1.40625 -10.484375 1.40625 -10.484375 C 1.40625 -10.484375 2.9375 -10.484375 2.9375 -10.484375 C 2.9375 -10.484375 2.9375 -8.71875 2.9375 -8.71875 C 3.859375 -10.1875 4.859375 -10.78125 6.421875 -10.78125 C 8.4375 -10.78125 9.734375 -9.65625 9.734375 -7.921875 C 9.734375 -7.921875 9.734375 4 9.734375 4 Z M 9.734375 4 "/>
</g>
<g id="glyph-0-19-ec75932e">
<path d="M 9.5625 -10.484375 C 9.5625 -10.484375 4.90625 2.203125 4.90625 2.203125 C 4.34375 3.703125 3.375 4.359375 2.203125 4.359375 C 1.765625 4.359375 1.421875 4.28125 1.078125 4.09375 C 1.078125 4.09375 1.078125 2.59375 1.078125 2.59375 C 1.4375 2.6875 1.71875 2.71875 1.953125 2.71875 C 2.6875 2.71875 3.015625 2.4375 3.296875 1.703125 C 3.296875 1.703125 3.9375 0.046875 3.9375 0.046875 C 3.9375 0.046875 0.40625 -10.484375 0.40625 -10.484375 C 0.40625 -10.484375 2.1875 -10.484375 2.1875 -10.484375 C 2.1875 -10.484375 4.859375 -2.3125 4.859375 -2.3125 C 4.859375 -2.3125 7.765625 -10.484375 7.765625 -10.484375 C 7.765625 -10.484375 9.5625 -10.484375 9.5625 -10.484375 Z M 9.5625 -10.484375 "/>
</g>
<g id="glyph-1-0-ec75932e">
<path d="M 0 -9.640625 C 0 -9.640625 0 -8.140625 0 -8.140625 C 0 -8.140625 -1.625 -8.140625 -1.625 -8.140625 C -0.234375 -7.15625 0.296875 -6.1875 0.296875 -4.640625 C 0.296875 -2.59375 -0.8125 -1.296875 -2.5625 -1.296875 C -2.5625 -1.296875 -10.484375 -1.296875 -10.484375 -1.296875 C -10.484375 -1.296875 -10.484375 -2.953125 -10.484375 -2.953125 C -10.484375 -2.953125 -3.21875 -2.953125 -3.21875 -2.953125 C -1.953125 -2.953125 -1.15625 -3.796875 -1.15625 -5.125 C -1.15625 -6.859375 -2.5625 -7.984375 -4.703125 -7.984375 C -4.703125 -7.984375 -10.484375 -7.984375 -10.484375 -7.984375 C -10.484375 -7.984375 -10.484375 -9.640625 -10.484375 -9.640625 C -10.484375 -9.640625 0 -9.640625 0 -9.640625 Z M 0 -9.640625 "/>
</g>
<g id="glyph-1-1-ec75932e">
<path d="M -10.484375 -9.71875 C -10.484375 -9.71875 0 -5.703125 0 -5.703125 C 0 -5.703125 0 -3.875 0 -3.875 C 0 -3.875 -10.484375 -0.203125 -10.484375 -0.203125 C -10.484375 -0.203125 -10.484375 -2.078125 -10.484375 -2.078125 C -10.484375 -2.078125 -1.984375 -4.875 -1.984375 -4.875 C -1.984375 -4.875 -10.484375 -7.84375 -10.484375 -7.84375 C -10.484375 -7.84375 -10.484375 -9.71875 -10.484375 -9.71875 Z M -10.484375 -9.71875 "/>
</g>
<g id="glyph-2-0-ec75932e">
<path d="M 4.234375 -5 C 4.234375 -5 4.234375 -1.28125 4.234375 -1.28125 C 4.234375 -1.28125 -14.578125 -1.28125 -14.578125 -1.28125 C -14.578125 -1.28125 -14.578125 -5 -14.578125 -5 C -14.578125 -5 -13.140625 -5 -13.140625 -5 C -13.140625 -5 -13.140625 -2.9375 -13.140625 -2.9375 C -13.140625 -2.9375 2.796875 -2.9375 2.796875 -2.9375 C 2.796875 -2.9375 2.796875 -5 2.796875 -5 C 2.796875 -5 4.234375 -5 4.234375 -5 Z M 4.234375 -5 "/>
</g>
<g id="glyph-3-0-ec75932e">
<path d="M 0 -15.203125 C 0 -15.203125 0 -13.546875 0 -13.546875 C 0 -13.546875 -7.21875 -13.546875 -7.21875 -13.546875 C -8.546875 -13.546875 -9.3125 -12.84375 -9.3125 -11.625 C -9.3125 -10.265625 -8.09375 -9.140625 -6.578125 -9.140625 C -6.578125 -9.140625 0 -9.140625 0 -9.140625 C 0 -9.140625 0 -7.484375 0 -7.484375 C 0 -7.484375 -7.21875 -7.484375 -7.21875 -7.484375 C -8.5625 -7.484375 -9.3125 -6.78125 -9.3125 -5.546875 C -9.3125 -4.1875 -8.09375 -3.078125 -6.578125 -3.078125 C -6.578125 -3.078125 0 -3.078125 0 -3.078125 C 0 -3.078125 0 -1.421875 0 -1.421875 C 0 -1.421875 -10.484375 -1.421875 -10.484375 -1.421875 C -10.484375 -1.421875 -10.484375 -2.9375 -10.484375 -2.9375 C -10.484375 -2.9375 -9 -2.9375 -9 -2.9375 C -10.265625 -3.84375 -10.78125 -4.765625 -10.78125 -6.15625 C -10.78125 -7.515625 -10.296875 -8.359375 -9.1875 -8.984375 C -10.359375 -9.953125 -10.78125 -10.796875 -10.78125 -12.203125 C -10.78125 -14.15625 -9.734375 -15.203125 -7.859375 -15.203125 C -7.859375 -15.203125 0 -15.203125 0 -15.203125 Z M 0 -15.203125 "/>
</g>
<g id="glyph-3-1-ec75932e">
</g>
<g id="glyph-3-2-ec75932e">
<path d="M -2.9375 -9.1875 C -0.921875 -9.1875 0.296875 -7.5 0.296875 -4.859375 C 0.296875 -2.125 -0.78125 -0.765625 -3.203125 -0.6875 C -3.203125 -0.6875 -3.203125 -2.4375 -3.203125 -2.4375 C -1.59375 -2.65625 -1.234375 -3.5 -1.234375 -5 C -1.234375 -6.453125 -1.8125 -7.4375 -2.796875 -7.4375 C -3.5625 -7.4375 -3.90625 -6.984375 -4.1875 -5.8125 C -4.1875 -5.8125 -4.5625 -4.265625 -4.5625 -4.265625 C -5.15625 -1.78125 -5.9375 -0.9375 -7.578125 -0.9375 C -9.515625 -0.9375 -10.78125 -2.515625 -10.78125 -4.953125 C -10.78125 -7.375 -9.625 -8.734375 -7.5625 -8.765625 C -7.5625 -8.765625 -7.5625 -7 -7.5625 -7 C -8.65625 -6.953125 -9.234375 -6.234375 -9.234375 -4.90625 C -9.234375 -3.546875 -8.625 -2.6875 -7.65625 -2.6875 C -6.921875 -2.6875 -6.484375 -3.265625 -6.15625 -4.625 C -6.15625 -4.625 -5.78125 -6.21875 -5.78125 -6.21875 C -5.28125 -8.296875 -4.5 -9.1875 -2.9375 -9.1875 Z M -2.9375 -9.1875 "/>
</g>
<g id="glyph-3-3-ec75932e">
<path d="M 4.234375 -4.1875 C 4.234375 -4.1875 4.234375 -0.453125 4.234375 -0.453125 C 4.234375 -0.453125 2.796875 -0.453125 2.796875 -0.453125 C 2.796875 -0.453125 2.796875 -2.515625 2.796875 -2.515625 C 2.796875 -2.515625 -13.140625 -2.515625 -13.140625 -2.515625 C -13.140625 -2.515625 -13.140625 -0.453125 -13.140625 -0.453125 C -13.140625 -0.453125 -14.578125 -0.453125 -14.578125 -0.453125 C -14.578125 -0.453125 -14.578125 -4.1875 -14.578125 -4.1875 C -14.578125 -4.1875 4.234375 -4.1875 4.234375 -4.1875 Z M 4.234375 -4.1875 "/>
</g>
<g id="glyph-3-4-ec75932e">
<path d="M 4.234375 -5 C 4.234375 -5 4.234375 -1.28125 4.234375 -1.28125 C 4.234375 -1.28125 -14.578125 -1.28125 -14.578125 -1.28125 C -14.578125 -1.28125 -14.578125 -5 -14.578125 -5 C -14.578125 -5 -13.140625 -5 -13.140625 -5 C -13.140625 -5 -13.140625 -2.9375 -13.140625 -2.9375 C -13.140625 -2.9375 2.796875 -2.9375 2.796875 -2.9375 C 2.796875 -2.9375 2.796875 -5 2.796875 -5 C 2.796875 -5 4.234375 -5 4.234375 -5 Z M 4.234375 -5 "/>
</g>
<g id="glyph-4-0-ec75932e">
<path d="M -10.5 -1.34375 L -10.5 -9.21875 L -9.578125 -9.21875 L -9.578125 -1.34375 Z M -10.5 -1.34375 "/>
</g>
<g id="glyph-5-0-ec75932e">
<path d="M -6.703125 -4.21875 C -6.703125 -4.21875 -6.703125 -3.140625 -6.703125 -3.140625 C -6.703125 -3.140625 -11.90625 -3.140625 -11.90625 -3.140625 C -11.90625 -3.140625 -11.90625 -1.40625 -11.90625 -1.40625 C -11.90625 -1.40625 -12.71875 -1.40625 -12.71875 -1.40625 C -12.71875 -1.40625 -12.734375 -1.65625 -12.734375 -1.65625 C -12.8125 -2.921875 -13.078125 -3.1875 -14.1875 -3.484375 C -14.1875 -3.484375 -14.1875 -4.21875 -14.1875 -4.21875 C -14.1875 -4.21875 -6.703125 -4.21875 -6.703125 -4.21875 Z M -6.703125 -4.21875 "/>
</g>
<g id="glyph-6-0-ec75932e">
<path d="M 10.140625 -6.8125 C 10.140625 -2.15625 8.5 0.296875 5.5 0.296875 C 2.453125 0.296875 0.859375 -2.15625 0.859375 -6.9375 C 0.859375 -11.703125 2.4375 -14.1875 5.5 -14.1875 C 8.578125 -14.1875 10.140625 -11.734375 10.140625 -6.8125 Z M 8.34375 -6.984375 C 8.34375 -10.78125 7.40625 -12.625 5.5 -12.625 C 3.59375 -12.625 2.65625 -10.796875 2.65625 -6.921875 C 2.65625 -3.046875 3.59375 -1.15625 5.453125 -1.15625 C 7.421875 -1.15625 8.34375 -2.953125 8.34375 -6.984375 Z M 8.34375 -6.984375 "/>
</g>
<g id="glyph-7-0-ec75932e">
</g>
<g id="glyph-8-0-ec75932e">
<path d="M -6.703125 -4.21875 C -6.703125 -4.21875 -6.703125 -3.140625 -6.703125 -3.140625 C -6.703125 -3.140625 -11.90625 -3.140625 -11.90625 -3.140625 C -11.90625 -3.140625 -11.90625 -1.40625 -11.90625 -1.40625 C -11.90625 -1.40625 -12.71875 -1.40625 -12.71875 -1.40625 C -12.71875 -1.40625 -12.734375 -1.65625 -12.734375 -1.65625 C -12.8125 -2.921875 -13.078125 -3.1875 -14.1875 -3.484375 C -14.1875 -3.484375 -14.1875 -4.21875 -14.1875 -4.21875 C -14.1875 -4.21875 -6.703125 -4.21875 -6.703125 -4.21875 Z M -6.703125 -4.21875 "/>
</g>
<g id="glyph-9-0-ec75932e">
<path d="M 17.015625 0 C 17.015625 0 15.59375 0 15.59375 0 C 15.59375 0 15.046875 -2.296875 15.046875 -2.296875 C 13.34375 -0.40625 11.453125 0.4375 9.078125 0.4375 C 4.34375 0.4375 1.0625 -3.1875 1.0625 -8.5625 C 1.0625 -13.796875 4.109375 -17.921875 9.453125 -17.921875 C 13.46875 -17.921875 16.15625 -15.75 16.78125 -12.1875 C 16.78125 -12.1875 14.5 -12.1875 14.5 -12.1875 C 14.015625 -14.453125 12.09375 -15.953125 9.4375 -15.953125 C 5.734375 -15.953125 3.28125 -12.984375 3.28125 -8.6875 C 3.28125 -4.421875 5.59375 -1.53125 9.546875 -1.53125 C 12.75 -1.53125 15.046875 -3.671875 15.046875 -6.796875 C 15.046875 -6.796875 15.046875 -7.265625 15.046875 -7.265625 C 15.046875 -7.265625 9.71875 -7.265625 9.71875 -7.265625 C 9.71875 -7.265625 9.71875 -9.234375 9.71875 -9.234375 C 9.71875 -9.234375 17.015625 -9.234375 17.015625 -9.234375 C 17.015625 -9.234375 17.015625 0 17.015625 0 Z M 17.015625 0 "/>
</g>
<g id="glyph-9-1-ec75932e">
<path d="M 12.234375 -6.1875 C 12.234375 -2.0625 10.078125 0.359375 6.546875 0.359375 C 2.96875 0.359375 0.859375 -2.0625 0.859375 -6.28125 C 0.859375 -10.515625 3 -12.9375 6.53125 -12.9375 C 10.15625 -12.9375 12.234375 -10.53125 12.234375 -6.1875 Z M 10.15625 -6.21875 C 10.15625 -9.34375 8.8125 -11.09375 6.546875 -11.09375 C 4.3125 -11.09375 2.953125 -9.3125 2.953125 -6.28125 C 2.953125 -3.234375 4.3125 -1.484375 6.546875 -1.484375 C 8.765625 -1.484375 10.15625 -3.265625 10.15625 -6.21875 Z M 10.15625 -6.21875 "/>
</g>
<g id="glyph-9-2-ec75932e">
<path d="M 11.015625 -3.53125 C 11.015625 -1.109375 9 0.359375 5.828125 0.359375 C 2.546875 0.359375 0.90625 -0.9375 0.8125 -3.84375 C 0.8125 -3.84375 2.921875 -3.84375 2.921875 -3.84375 C 3.1875 -1.921875 4.203125 -1.484375 6 -1.484375 C 7.75 -1.484375 8.921875 -2.1875 8.921875 -3.359375 C 8.921875 -4.265625 8.375 -4.6875 6.984375 -5.015625 C 6.984375 -5.015625 5.109375 -5.46875 5.109375 -5.46875 C 2.140625 -6.1875 1.125 -7.125 1.125 -9.09375 C 1.125 -11.421875 3.03125 -12.9375 5.953125 -12.9375 C 8.859375 -12.9375 10.484375 -11.546875 10.515625 -9.078125 C 10.515625 -9.078125 8.40625 -9.078125 8.40625 -9.078125 C 8.359375 -10.390625 7.484375 -11.09375 5.875 -11.09375 C 4.25 -11.09375 3.21875 -10.34375 3.21875 -9.1875 C 3.21875 -8.296875 3.90625 -7.78125 5.546875 -7.390625 C 5.546875 -7.390625 7.46875 -6.9375 7.46875 -6.9375 C 9.953125 -6.34375 11.015625 -5.40625 11.015625 -3.53125 Z M 11.015625 -3.53125 "/>
</g>
<g id="glyph-9-3-ec75932e">
<path d="M 6.09375 0 C 5.421875 0.125 4.9375 0.171875 4.46875 0.171875 C 2.90625 0.171875 2.046875 -0.546875 2.046875 -1.828125 C 2.046875 -1.828125 2.046875 -10.9375 2.046875 -10.9375 C 2.046875 -10.9375 0.34375 -10.9375 0.34375 -10.9375 C 0.34375 -10.9375 0.34375 -12.578125 0.34375 -12.578125 C 0.34375 -12.578125 2.046875 -12.578125 2.046875 -12.578125 C 2.046875 -12.578125 2.046875 -16.03125 2.046875 -16.03125 C 2.046875 -16.03125 4.03125 -16.03125 4.03125 -16.03125 C 4.03125 -16.03125 4.03125 -12.578125 4.03125 -12.578125 C 4.03125 -12.578125 6.09375 -12.578125 6.09375 -12.578125 C 6.09375 -12.578125 6.09375 -10.9375 6.09375 -10.9375 C 6.09375 -10.9375 4.03125 -10.9375 4.03125 -10.9375 C 4.03125 -10.9375 4.03125 -2.71875 4.03125 -2.71875 C 4.03125 -1.828125 4.265625 -1.578125 5.140625 -1.578125 C 5.515625 -1.578125 5.828125 -1.609375 6.09375 -1.6875 C 6.09375 -1.6875 6.09375 0 6.09375 0 Z M 6.09375 0 "/>
</g>
<g id="glyph-9-4-ec75932e">
<path d="M 7.703125 -10.828125 C 4.609375 -10.78125 3.671875 -9.359375 3.671875 -6.53125 C 3.671875 -6.53125 3.671875 0 3.671875 0 C 3.671875 0 1.6875 0 1.6875 0 C 1.6875 0 1.6875 -12.578125 1.6875 -12.578125 C 1.6875 -12.578125 3.5 -12.578125 3.5 -12.578125 C 3.5 -12.578125 3.5 -10.296875 3.5 -10.296875 C 4.65625 -12.171875 5.640625 -12.9375 6.9375 -12.9375 C 7.203125 -12.9375 7.375 -12.90625 7.703125 -12.859375 C 7.703125 -12.859375 7.703125 -10.828125 7.703125 -10.828125 Z M 7.703125 -10.828125 "/>
</g>
<g id="glyph-9-5-ec75932e">
<path d="M 12.546875 -6.171875 C 12.546875 -2.15625 10.421875 0.359375 7.171875 0.359375 C 5.546875 0.359375 4.375 -0.21875 3.3125 -1.515625 C 3.3125 -1.515625 3.3125 5.234375 3.3125 5.234375 C 3.3125 5.234375 1.3125 5.234375 1.3125 5.234375 C 1.3125 5.234375 1.3125 -12.578125 1.3125 -12.578125 C 1.3125 -12.578125 3.140625 -12.578125 3.140625 -12.578125 C 3.140625 -12.578125 3.140625 -10.6875 3.140625 -10.6875 C 4.078125 -12.171875 5.453125 -12.9375 7.15625 -12.9375 C 10.484375 -12.9375 12.546875 -10.390625 12.546875 -6.171875 Z M 10.46875 -6.21875 C 10.46875 -9.21875 9.03125 -11.0625 6.8125 -11.0625 C 4.703125 -11.0625 3.3125 -9.140625 3.3125 -6.1875 C 3.3125 -3.234375 4.703125 -1.515625 6.8125 -1.515625 C 9 -1.515625 10.46875 -3.359375 10.46875 -6.21875 Z M 10.46875 -6.21875 "/>
</g>
<g id="glyph-9-6-ec75932e">
<path d="M 11.65625 0 C 11.65625 0 9.671875 0 9.671875 0 C 9.671875 0 9.671875 -8.71875 9.671875 -8.71875 C 9.671875 -10.375 8.5 -11.1875 7.078125 -11.1875 C 5.015625 -11.1875 3.671875 -9.5 3.671875 -6.9375 C 3.671875 -6.9375 3.671875 0 3.671875 0 C 3.671875 0 1.6875 0 1.6875 0 C 1.6875 0 1.6875 -17.5 1.6875 -17.5 C 1.6875 -17.5 3.671875 -17.5 3.671875 -17.5 C 3.671875 -17.5 3.671875 -10.84375 3.671875 -10.84375 C 4.84375 -12.390625 5.921875 -12.9375 7.703125 -12.9375 C 10.15625 -12.9375 11.65625 -11.609375 11.65625 -9.5 C 11.65625 -9.5 11.65625 0 11.65625 0 Z M 11.65625 0 "/>
</g>
<g id="glyph-9-7-ec75932e">
<path d="M 3.671875 0 C 3.671875 0 1.6875 0 1.6875 0 C 1.6875 0 1.6875 -12.578125 1.6875 -12.578125 C 1.6875 -12.578125 3.671875 -12.578125 3.671875 -12.578125 C 3.671875 -12.578125 3.671875 0 3.671875 0 Z M 3.9375 -14.46875 C 3.9375 -14.46875 1.4375 -14.46875 1.4375 -14.46875 C 1.4375 -14.46875 1.4375 -16.96875 1.4375 -16.96875 C 1.4375 -16.96875 3.9375 -16.96875 3.9375 -16.96875 C 3.9375 -16.96875 3.9375 -14.46875 3.9375 -14.46875 Z M 3.9375 -14.46875 "/>
</g>
<g id="glyph-9-8-ec75932e">
<path d="M 11.453125 -4.3125 C 11.203125 -1.4375 9.3125 0.359375 6.3125 0.359375 C 2.90625 0.359375 0.75 -2.109375 0.75 -6.171875 C 0.75 -10.34375 2.953125 -12.9375 6.34375 -12.9375 C 9.140625 -12.9375 11.0625 -11.421875 11.296875 -8.359375 C 11.296875 -8.359375 9.28125 -8.359375 9.28125 -8.359375 C 9.046875 -10.109375 7.984375 -11.09375 6.3125 -11.09375 C 4.125 -11.09375 2.828125 -9.3125 2.828125 -6.171875 C 2.828125 -3.1875 4.15625 -1.484375 6.359375 -1.484375 C 8.0625 -1.484375 9.09375 -2.296875 9.4375 -4.3125 C 9.4375 -4.3125 11.453125 -4.3125 11.453125 -4.3125 Z M 11.453125 -4.3125 "/>
</g>
<g id="glyph-9-9-ec75932e">
</g>
<g id="glyph-9-10-ec75932e">
<path d="M 12.546875 -6.4375 C 12.546875 -2.359375 10.390625 0.359375 7.078125 0.359375 C 5.328125 0.359375 4.0625 -0.34375 3.09375 -1.796875 C 3.09375 -1.796875 3.09375 0 3.09375 0 C 3.09375 0 1.296875 0 1.296875 0 C 1.296875 0 1.296875 -17.5 1.296875 -17.5 C 1.296875 -17.5 3.28125 -17.5 3.28125 -17.5 C 3.28125 -17.5 3.28125 -10.875 3.28125 -10.875 C 4.21875 -12.28125 5.453125 -12.9375 7.171875 -12.9375 C 10.484375 -12.9375 12.546875 -10.515625 12.546875 -6.4375 Z M 10.46875 -6.3125 C 10.46875 -9.125 9.03125 -11.0625 6.796875 -11.0625 C 4.6875 -11.15625 3.28125 -9.234375 3.28125 -6.28125 C 3.28125 -3.4375 4.6875 -1.515625 6.796875 -1.515625 C 8.96875 -1.515625 10.46875 -3.453125 10.46875 -6.3125 Z M 10.46875 -6.3125 "/>
</g>
<g id="glyph-9-11-ec75932e">
<path d="M 12.84375 -0.046875 C 12.1875 0.125 11.875 0.171875 11.46875 0.171875 C 10.484375 0.171875 9.625 -0.53125 9.40625 -1.484375 C 8.296875 -0.3125 6.75 0.359375 5.140625 0.359375 C 2.59375 0.359375 1.015625 -0.984375 1.015625 -3.265625 C 1.015625 -4.796875 1.75 -5.921875 3.21875 -6.53125 C 3.984375 -6.84375 4.421875 -6.9375 7.25 -7.296875 C 8.828125 -7.484375 9.34375 -7.84375 9.34375 -8.6875 C 9.34375 -8.6875 9.34375 -9.21875 9.34375 -9.21875 C 9.34375 -10.421875 8.328125 -11.09375 6.53125 -11.09375 C 4.65625 -11.09375 3.75 -10.390625 3.578125 -8.859375 C 3.578125 -8.859375 1.5625 -8.859375 1.5625 -8.859375 C 1.6875 -11.765625 3.546875 -12.9375 6.59375 -12.9375 C 9.703125 -12.9375 11.328125 -11.734375 11.328125 -9.5 C 11.328125 -9.5 11.328125 -2.5 11.328125 -2.5 C 11.328125 -1.875 11.71875 -1.515625 12.40625 -1.515625 C 12.53125 -1.515625 12.625 -1.515625 12.84375 -1.5625 C 12.84375 -1.5625 12.84375 -0.046875 12.84375 -0.046875 Z M 9.34375 -4.34375 C 9.34375 -4.34375 9.34375 -6.21875 9.34375 -6.21875 C 8.65625 -5.90625 8.234375 -5.8125 6.125 -5.515625 C 3.984375 -5.203125 3.09375 -4.625 3.09375 -3.3125 C 3.09375 -1.9375 4.015625 -1.390625 5.5625 -1.390625 C 7.515625 -1.390625 9.34375 -2.546875 9.34375 -4.34375 Z M 9.34375 -4.34375 "/>
</g>
<g id="glyph-9-12-ec75932e">
<path d="M 3.625 0 C 3.625 0 1.625 0 1.625 0 C 1.625 0 1.625 -17.5 1.625 -17.5 C 1.625 -17.5 3.625 -17.5 3.625 -17.5 C 3.625 -17.5 3.625 0 3.625 0 Z M 3.625 0 "/>
</g>
<g id="glyph-9-13-ec75932e">
<path d="M 11.6875 0 C 11.6875 0 9.703125 0 9.703125 0 C 9.703125 0 9.703125 -8.71875 9.703125 -8.71875 C 9.703125 -10.21875 8.6875 -11.1875 7.109375 -11.1875 C 5.0625 -11.1875 3.671875 -9.5 3.671875 -6.9375 C 3.671875 -6.9375 3.671875 0 3.671875 0 C 3.671875 0 1.6875 0 1.6875 0 C 1.6875 0 1.6875 -12.578125 1.6875 -12.578125 C 1.6875 -12.578125 3.53125 -12.578125 3.53125 -12.578125 C 3.53125 -12.578125 3.53125 -10.46875 3.53125 -10.46875 C 4.625 -12.21875 5.828125 -12.9375 7.703125 -12.9375 C 10.125 -12.9375 11.6875 -11.59375 11.6875 -9.5 C 11.6875 -9.5 11.6875 0 11.6875 0 Z M 11.6875 0 "/>
</g>
<g id="glyph-9-14-ec75932e">
<path d="M 12.3125 -5.71875 C 12.3125 -5.71875 3.046875 -5.71875 3.046875 -5.71875 C 3.09375 -2.828125 4.65625 -1.484375 6.75 -1.484375 C 8.359375 -1.484375 9.484375 -2.15625 10.03125 -3.8125 C 10.03125 -3.8125 12.046875 -3.8125 12.046875 -3.8125 C 11.546875 -1.265625 9.546875 0.359375 6.671875 0.359375 C 3.140625 0.359375 0.953125 -2.09375 0.953125 -6.21875 C 0.953125 -10.34375 3.21875 -12.9375 6.71875 -12.9375 C 9.078125 -12.9375 10.984375 -11.6875 11.8125 -9.625 C 12.171875 -8.6875 12.3125 -7.53125 12.3125 -5.71875 Z M 10.171875 -7.484375 C 10.171875 -9.453125 8.65625 -11.09375 6.703125 -11.09375 C 4.6875 -11.09375 3.265625 -9.578125 3.09375 -7.34375 C 3.09375 -7.34375 10.15625 -7.34375 10.15625 -7.34375 C 10.171875 -7.390625 10.171875 -7.484375 10.171875 -7.484375 Z M 10.171875 -7.484375 "/>
</g>
<g id="glyph-10-0-ec75932e">
<path d="M 12.3125 -5.71875 C 12.3125 -5.71875 3.046875 -5.71875 3.046875 -5.71875 C 3.09375 -2.828125 4.65625 -1.484375 6.75 -1.484375 C 8.359375 -1.484375 9.484375 -2.15625 10.03125 -3.8125 C 10.03125 -3.8125 12.046875 -3.8125 12.046875 -3.8125 C 11.546875 -1.265625 9.546875 0.359375 6.671875 0.359375 C 3.140625 0.359375 0.953125 -2.09375 0.953125 -6.21875 C 0.953125 -10.34375 3.21875 -12.9375 6.71875 -12.9375 C 9.078125 -12.9375 10.984375 -11.6875 11.8125 -9.625 C 12.171875 -8.6875 12.3125 -7.53125 12.3125 -5.71875 Z M 10.171875 -7.484375 C 10.171875 -9.453125 8.65625 -11.09375 6.703125 -11.09375 C 4.6875 -11.09375 3.265625 -9.578125 3.09375 -7.34375 C 3.09375 -7.34375 10.15625 -7.34375 10.15625 -7.34375 C 10.171875 -7.390625 10.171875 -7.484375 10.171875 -7.484375 Z M 10.171875 -7.484375 "/>
</g>
<g id="glyph-11-0-ec75932e">
</g>
<g id="glyph-12-0-ec75932e">
<path d="M 9.71875 -10.484375 C 9.71875 -10.484375 5.703125 0 5.703125 0 C 5.703125 0 3.875 0 3.875 0 C 3.875 0 0.203125 -10.484375 0.203125 -10.484375 C 0.203125 -10.484375 2.078125 -10.484375 2.078125 -10.484375 C 2.078125 -10.484375 4.875 -1.984375 4.875 -1.984375 C 4.875 -1.984375 7.84375 -10.484375 7.84375 -10.484375 C 7.84375 -10.484375 9.71875 -10.484375 9.71875 -10.484375 Z M 9.71875 -10.484375 "/>
</g>
</g>
<clipPath id="clip-0-ec75932e">
<path clip-rule="nonzero" d="M 93 131 L 584 131 L 584 187 L 93 187 Z M 93 131 "/>
</clipPath>
<clipPath id="clip-1-ec75932e">
<path clip-rule="nonzero" d="M 93 158 L 584 158 L 584 161 L 93 161 Z M 93 158 "/>
</clipPath>
<clipPath id="clip-2-ec75932e">
<path clip-rule="nonzero" d="M 93 366 L 584 366 L 584 492 L 93 492 Z M 93 366 "/>
</clipPath>
<clipPath id="clip-3-ec75932e">
<path clip-rule="nonzero" d="M 93 367 L 584 367 L 584 492 L 93 492 Z M 93 367 "/>
</clipPath>
</defs>
<rect x="-60" y="-60" width="720" height="720" fill="rgb(100%, 100%, 100%)" fill-opacity="1"/>
<path fill-rule="nonzero" fill="rgb(100%, 100%, 100%)" fill-opacity="1" d="M 93 257 L 584 257 L 584 62 L 93 62 Z M 93 257 "/>
<path fill-rule="nonzero" fill="rgb(100%, 100%, 100%)" fill-opacity="1" d="M 93 527 L 584 527 L 584 332 L 93 332 Z M 93 527 "/>
<path fill="none" stroke-width="1" stroke-linecap="butt" stroke-linejoin="miter" stroke="rgb(0%, 0%, 0%)" stroke-opacity="0.12" stroke-miterlimit="1.154701" d="M 93 257 L 93 62 "/>
<path fill="none" stroke-width="1" stroke-linecap="butt" stroke-linejoin="miter" stroke="rgb(0%, 0%, 0%)" stroke-opacity="0.12" stroke-miterlimit="1.154701" d="M 338.5 257 L 338.5 62 "/>
<path fill="none" stroke-width="1" stroke-linecap="butt" stroke-linejoin="miter" stroke="rgb(0%, 0%, 0%)" stroke-opacity="0.12" stroke-miterlimit="1.154701" d="M 584 257 L 584 62 "/>
<path fill="none" stroke-width="1" stroke-linecap="butt" stroke-linejoin="miter" stroke="rgb(0%, 0%, 0%)" stroke-opacity="0.12" stroke-miterlimit="1.154701" d="M 93 224.5 L 584 224.5 "/>
<path fill="none" stroke-width="1" stroke-linecap="butt" stroke-linejoin="miter" stroke="rgb(0%, 0%, 0%)" stroke-opacity="0.12" stroke-miterlimit="1.154701" d="M 93 192 L 584 192 "/>
<path fill="none" stroke-width="1" stroke-linecap="butt" stroke-linejoin="miter" stroke="rgb(0%, 0%, 0%)" stroke-opacity="0.12" stroke-miterlimit="1.154701" d="M 93 159.5 L 584 159.5 "/>
<path fill="none" stroke-width="1" stroke-linecap="butt" stroke-linejoin="miter" stroke="rgb(0%, 0%, 0%)" stroke-opacity="0.12" stroke-miterlimit="1.154701" d="M 93 127 L 584 127 "/>
<path fill="none" stroke-width="1" stroke-linecap="butt" stroke-linejoin="miter" stroke="rgb(0%, 0%, 0%)" stroke-opacity="0.12" stroke-miterlimit="1.154701" d="M 93 94.5 L 584 94.5 "/>
<path fill="none" stroke-width="1" stroke-linecap="butt" stroke-linejoin="miter" stroke="rgb(0%, 0%, 0%)" stroke-opacity="0.12" stroke-miterlimit="1.154701" d="M 93 527 L 93 332 "/>
<path fill="none" stroke-width="1" stroke-linecap="butt" stroke-linejoin="miter" stroke="rgb(0%, 0%, 0%)" stroke-opacity="0.12" stroke-miterlimit="1.154701" d="M 338.5 527 L 338.5 332 "/>
<path fill="none" stroke-width="1" stroke-linecap="butt" stroke-linejoin="miter" stroke="rgb(0%, 0%, 0%)" stroke-opacity="0.12" stroke-miterlimit="1.154701" d="M 584 527 L 584 332 "/>
<path fill="none" stroke-width="1" stroke-linecap="butt" stroke-linejoin="miter" stroke="rgb(0%, 0%, 0%)" stroke-opacity="0.12" stroke-miterlimit="1.154701" d="M 93 494.5 L 584 494.5 "/>
<path fill="none" stroke-width="1" stroke-linecap="butt" stroke-linejoin="miter" stroke="rgb(0%, 0%, 0%)" stroke-opacity="0.12" stroke-miterlimit="1.154701" d="M 93 462 L 584 462 "/>
<path fill="none" stroke-width="1" stroke-linecap="butt" stroke-linejoin="miter" stroke="rgb(0%, 0%, 0%)" stroke-opacity="0.12" stroke-miterlimit="1.154701" d="M 93 429.5 L 584 429.5 "/>
<path fill="none" stroke-width="1" stroke-linecap="butt" stroke-linejoin="miter" stroke="rgb(0%, 0%, 0%)" stroke-opacity="0.12" stroke-miterlimit="1.154701" d="M 93 397 L 584 397 "/>
<path fill="none" stroke-width="1" stroke-linecap="butt" stroke-linejoin="miter" stroke="rgb(0%, 0%, 0%)" stroke-opacity="0.12" stroke-miterlimit="1.154701" d="M 93 364.5 L 584 364.5 "/>
<g fill="rgb(0%, 0%, 0%)" fill-opacity="1">
<use xlink:href="#glyph-0-0-ec75932e" x="311.830007" y="310.239981"/>
</g>
<g fill="rgb(0%, 0%, 0%)" fill-opacity="1">
<use xlink:href="#glyph-0-1-ec75932e" x="321.830008" y="310.239981"/>
</g>
<g fill="rgb(0%, 0%, 0%)" fill-opacity="1">
<use xlink:href="#glyph-0-2-ec75932e" x="327.390007" y="310.239981"/>
</g>
<g fill="rgb(0%, 0%, 0%)" fill-opacity="1">
<use xlink:href="#glyph-0-3-ec75932e" x="332.950007" y="310.239981"/>
</g>
<g fill="rgb(0%, 0%, 0%)" fill-opacity="1">
<use xlink:href="#glyph-0-4-ec75932e" x="342.950007" y="310.239981"/>
</g>
<g fill="rgb(0%, 0%, 0%)" fill-opacity="1">
<use xlink:href="#glyph-0-5-ec75932e" x="359.610007" y="310.239981"/>
</g>
<g fill="rgb(0%, 0%, 0%)" fill-opacity="1">
<use xlink:href="#glyph-0-6-ec75932e" x="70.480003" y="283.939993"/>
</g>
<g fill="rgb(0%, 0%, 0%)" fill-opacity="1">
<use xlink:href="#glyph-0-7-ec75932e" x="82.160004" y="283.939993"/>
</g>
<g fill="rgb(0%, 0%, 0%)" fill-opacity="1">
<use xlink:href="#glyph-0-8-ec75932e" x="93.280003" y="283.939993"/>
</g>
<g fill="rgb(0%, 0%, 0%)" fill-opacity="1">
<use xlink:href="#glyph-0-9-ec75932e" x="104.400002" y="283.939993"/>
</g>
<g fill="rgb(0%, 0%, 0%)" fill-opacity="1">
<use xlink:href="#glyph-0-9-ec75932e" x="332.940008" y="283.939993"/>
</g>
<g fill="rgb(0%, 0%, 0%)" fill-opacity="1">
<use xlink:href="#glyph-0-7-ec75932e" x="567.320013" y="283.939993"/>
</g>
<g fill="rgb(0%, 0%, 0%)" fill-opacity="1">
<use xlink:href="#glyph-0-8-ec75932e" x="578.440014" y="283.939993"/>
</g>
<g fill="rgb(0%, 0%, 0%)" fill-opacity="1">
<use xlink:href="#glyph-0-9-ec75932e" x="589.560014" y="283.939993"/>
</g>
<g fill="rgb(0%, 0%, 0%)" fill-opacity="1">
<use xlink:href="#glyph-1-0-ec75932e" x="33.803202" y="198.118311"/>
</g>
<g fill="rgb(0%, 0%, 0%)" fill-opacity="1">
<use xlink:href="#glyph-2-0-ec75932e" x="33.803203" y="181.438312"/>
</g>
<g fill="rgb(0%, 0%, 0%)" fill-opacity="1">
<use xlink:href="#glyph-3-0-ec75932e" x="33.803204" y="175.878312"/>
</g>
<g fill="rgb(0%, 0%, 0%)" fill-opacity="1">
<use xlink:href="#glyph-3-1-ec75932e" x="33.803205" y="159.218312"/>
</g>
<g fill="rgb(0%, 0%, 0%)" fill-opacity="1">
<use xlink:href="#glyph-3-2-ec75932e" x="33.803205" y="153.658311"/>
</g>
<g fill="rgb(0%, 0%, 0%)" fill-opacity="1">
<use xlink:href="#glyph-4-0-ec75932e" x="33.803206" y="143.658311"/>
</g>
<g fill="rgb(0%, 0%, 0%)" fill-opacity="1">
<use xlink:href="#glyph-5-0-ec75932e" x="33.803206" y="133.101668"/>
</g>
<g fill="rgb(0%, 0%, 0%)" fill-opacity="1">
<use xlink:href="#glyph-3-3-ec75932e" x="33.803207" y="126.441666"/>
</g>
<g fill="rgb(0%, 0%, 0%)" fill-opacity="1">
<use xlink:href="#glyph-0-6-ec75932e" x="43.520002" y="231.789992"/>
</g>
<g fill="rgb(0%, 0%, 0%)" fill-opacity="1">
<use xlink:href="#glyph-6-0-ec75932e" x="55.200002" y="231.789992"/>
</g>
<g fill="rgb(0%, 0%, 0%)" fill-opacity="1">
<use xlink:href="#glyph-0-10-ec75932e" x="66.320001" y="231.789992"/>
</g>
<g fill="rgb(0%, 0%, 0%)" fill-opacity="1">
<use xlink:href="#glyph-0-7-ec75932e" x="71.880001" y="231.789992"/>
</g>
<g fill="rgb(0%, 0%, 0%)" fill-opacity="1">
<use xlink:href="#glyph-0-6-ec75932e" x="43.520002" y="199.289991"/>
</g>
<g fill="rgb(0%, 0%, 0%)" fill-opacity="1">
<use xlink:href="#glyph-6-0-ec75932e" x="55.200002" y="199.289991"/>
</g>
<g fill="rgb(0%, 0%, 0%)" fill-opacity="1">
<use xlink:href="#glyph-0-10-ec75932e" x="66.320001" y="199.289991"/>
</g>
<g fill="rgb(0%, 0%, 0%)" fill-opacity="1">
<use xlink:href="#glyph-0-11-ec75932e" x="71.880001" y="199.289991"/>
</g>
<g fill="rgb(0%, 0%, 0%)" fill-opacity="1">
<use xlink:href="#glyph-6-0-ec75932e" x="55.200002" y="166.78999"/>
</g>
<g fill="rgb(0%, 0%, 0%)" fill-opacity="1">
<use xlink:href="#glyph-0-10-ec75932e" x="66.320001" y="166.78999"/>
</g>
<g fill="rgb(0%, 0%, 0%)" fill-opacity="1">
<use xlink:href="#glyph-0-9-ec75932e" x="71.880003" y="166.78999"/>
</g>
<g fill="rgb(0%, 0%, 0%)" fill-opacity="1">
<use xlink:href="#glyph-6-0-ec75932e" x="55.200002" y="134.289989"/>
</g>
<g fill="rgb(0%, 0%, 0%)" fill-opacity="1">
<use xlink:href="#glyph-0-10-ec75932e" x="66.320001" y="134.289989"/>
</g>
<g fill="rgb(0%, 0%, 0%)" fill-opacity="1">
<use xlink:href="#glyph-0-11-ec75932e" x="71.880003" y="134.289989"/>
</g>
<g fill="rgb(0%, 0%, 0%)" fill-opacity="1">
<use xlink:href="#glyph-6-0-ec75932e" x="55.200002" y="101.789988"/>
</g>
<g fill="rgb(0%, 0%, 0%)" fill-opacity="1">
<use xlink:href="#glyph-0-10-ec75932e" x="66.320001" y="101.789988"/>
</g>
<g fill="rgb(0%, 0%, 0%)" fill-opacity="1">
<use xlink:href="#glyph-0-7-ec75932e" x="71.880003" y="101.789988"/>
</g>
<g clip-path="url(#clip-0-ec75932e)">
<path fill="none" stroke-width="3" stroke-linecap="butt" stroke-linejoin="miter" stroke="rgb(100%, 0%, 0%)" stroke-opacity="0.7" stroke-miterlimit="2" d="M 93 162.097656 L 93.957031 163.347656 L 94.917969 163.675781 L 95.875 162.976562 L 96.835938 161.511719 L 97.792969 159.714844 L 98.753906 157.914062 L 99.710938 156.199219 L 100.671875 154.507812 L 101.628906 152.878906 L 102.589844 151.574219 L 103.546875 151.054688 L 104.507812 151.742188 L 105.464844 153.8125 L 106.425781 157.101562 L 107.382812 161.113281 L 108.34375 165.167969 L 109.300781 168.574219 L 110.261719 170.796875 L 111.21875 171.605469 L 112.179688 171.089844 L 113.136719 169.523438 L 114.097656 167.164062 L 115.054688 164.152344 L 116.015625 160.589844 L 116.972656 156.671875 L 117.933594 152.835938 L 118.890625 149.664062 L 119.851562 147.652344 L 120.808594 146.980469 L 121.769531 147.464844 L 122.726562 148.679688 L 123.6875 150.253906 L 124.644531 152.054688 L 125.605469 154.1875 L 126.5625 156.839844 L 127.523438 160.050781 L 128.480469 163.597656 L 129.441406 167.035156 L 130.398438 169.894531 L 131.359375 171.867188 L 132.316406 172.90625 L 133.277344 173.175781 L 134.234375 172.953125 L 135.195312 172.453125 L 136.152344 171.710938 L 137.113281 170.496094 L 138.070312 168.386719 L 139.03125 165.011719 L 139.988281 160.386719 L 140.949219 155.078125 L 141.90625 150.035156 L 142.867188 146.164062 L 143.824219 143.839844 L 144.785156 142.789062 L 145.742188 142.355469 L 146.703125 142.054688 L 147.660156 141.953125 L 148.621094 142.59375 L 149.578125 144.554688 L 150.539062 147.90625 L 151.496094 152.011719 L 152.457031 155.855469 L 153.414062 158.675781 L 154.375 160.472656 L 155.332031 161.976562 L 156.292969 164.125 L 157.25 167.351562 L 158.210938 171.242188 L 159.167969 174.816406 L 160.128906 177.148438 L 161.085938 177.953125 L 162.046875 177.644531 L 163.003906 176.976562 L 163.964844 176.457031 L 164.921875 176.066406 L 165.882812 175.328125 L 166.839844 173.707031 L 167.800781 170.984375 L 168.757812 167.40625 L 169.71875 163.539062 L 170.675781 159.9375 L 171.636719 156.902344 L 172.59375 154.394531 L 173.554688 152.140625 L 174.511719 149.851562 L 175.472656 147.363281 L 176.429688 144.75 L 177.390625 142.328125 L 178.347656 140.566406 L 179.308594 139.878906 L 180.265625 140.390625 L 181.226562 141.808594 L 182.183594 143.539062 L 183.144531 145.050781 L 184.101562 146.1875 L 185.0625 147.257812 L 186.019531 148.75 L 186.980469 150.886719 L 187.9375 153.4375 L 188.898438 155.847656 L 189.855469 157.695312 L 190.816406 159.023438 L 191.773438 160.328125 L 192.734375 162.179688 L 193.691406 164.785156 L 194.652344 167.792969 L 195.609375 170.550781 L 196.570312 172.511719 L 197.527344 173.59375 L 198.488281 174.136719 L 199.445312 174.5625 L 200.40625 175.058594 L 201.363281 175.457031 L 202.324219 175.449219 L 203.28125 174.867188 L 204.242188 173.851562 L 205.199219 172.746094 L 206.160156 171.871094 L 207.117188 171.3125 L 208.078125 170.910156 L 209.035156 170.359375 L 209.996094 169.390625 L 210.953125 167.902344 L 211.914062 165.996094 L 212.871094 163.910156 L 213.832031 161.921875 L 214.789062 160.21875 L 215.75 158.8125 L 216.707031 157.5625 L 217.667969 156.292969 L 218.625 154.878906 L 219.585938 153.34375 L 220.542969 151.816406 L 221.503906 150.449219 L 222.460938 149.324219 L 223.421875 148.433594 L 224.382812 147.722656 L 225.339844 147.136719 L 226.296875 146.65625 L 227.257812 146.3125 L 228.21875 146.117188 L 229.175781 146.082031 L 230.132812 146.191406 L 231.09375 146.414062 L 232.054688 146.742188 L 233.011719 147.164062 L 233.96875 147.679688 L 234.929688 148.273438 L 235.890625 148.933594 L 236.847656 149.648438 L 237.804688 150.40625 L 238.765625 151.195312 L 239.726562 152.019531 L 240.683594 152.867188 L 241.640625 153.730469 L 242.601562 154.605469 L 243.5625 155.484375 L 245.476562 157.234375 L 246.4375 158.097656 L 247.398438 158.957031 L 248.355469 159.796875 L 249.3125 160.621094 L 250.273438 161.421875 L 251.234375 162.195312 L 252.191406 162.941406 L 253.148438 163.652344 L 254.109375 164.332031 L 255.070312 164.96875 L 256.027344 165.5625 L 256.984375 166.113281 L 257.945312 166.617188 L 258.90625 167.074219 L 259.863281 167.476562 L 260.820312 167.828125 L 261.78125 168.128906 L 262.742188 168.375 L 263.699219 168.570312 L 264.65625 168.710938 L 265.617188 168.804688 L 266.578125 168.847656 L 267.535156 168.84375 L 268.492188 168.796875 L 269.453125 168.707031 L 270.414062 168.582031 L 271.371094 168.417969 L 272.328125 168.222656 L 273.289062 168 L 274.25 167.753906 L 275.207031 167.484375 L 276.164062 167.199219 L 277.125 166.898438 L 278.085938 166.585938 L 279.042969 166.265625 L 280 165.9375 L 280.960938 165.613281 L 281.921875 165.285156 L 283.835938 164.636719 L 284.796875 164.324219 L 285.757812 164.019531 L 286.714844 163.722656 L 287.671875 163.433594 L 288.632812 163.15625 L 289.59375 162.894531 L 290.550781 162.640625 L 291.507812 162.402344 L 292.46875 162.175781 L 293.429688 161.960938 L 294.386719 161.757812 L 295.34375 161.566406 L 296.304688 161.390625 L 297.265625 161.222656 L 298.222656 161.066406 L 299.179688 160.917969 L 300.140625 160.78125 L 301.101562 160.65625 L 302.058594 160.539062 L 303.015625 160.425781 L 303.976562 160.324219 L 304.9375 160.230469 L 305.894531 160.140625 L 306.851562 160.058594 L 307.8125 159.980469 L 308.773438 159.90625 L 309.730469 159.839844 L 310.6875 159.777344 L 311.648438 159.71875 L 312.609375 159.664062 L 314.523438 159.570312 L 315.484375 159.527344 L 316.445312 159.488281 L 317.402344 159.449219 L 318.359375 159.417969 L 319.320312 159.386719 L 320.28125 159.359375 L 321.238281 159.335938 L 322.195312 159.316406 L 324.117188 159.285156 L 325.074219 159.273438 L 326.03125 159.265625 L 326.992188 159.257812 L 327.953125 159.253906 L 328.910156 159.253906 L 329.867188 159.257812 L 330.828125 159.261719 L 331.789062 159.269531 L 333.703125 159.292969 L 335.625 159.324219 L 336.582031 159.339844 L 337.539062 159.363281 L 338.5 159.382812 L 339.460938 159.40625 L 341.375 159.453125 L 342.335938 159.476562 L 343.296875 159.503906 L 345.210938 159.550781 L 347.132812 159.597656 L 349.046875 159.636719 L 350.007812 159.65625 L 350.96875 159.667969 L 351.925781 159.679688 L 352.882812 159.6875 L 353.84375 159.691406 L 354.804688 159.691406 L 355.761719 159.6875 L 356.71875 159.679688 L 357.679688 159.664062 L 358.640625 159.644531 L 359.597656 159.617188 L 360.554688 159.582031 L 361.515625 159.542969 L 362.476562 159.496094 L 363.433594 159.441406 L 364.390625 159.382812 L 365.351562 159.3125 L 366.3125 159.234375 L 367.269531 159.144531 L 368.226562 159.050781 L 369.1875 158.945312 L 370.148438 158.832031 L 371.105469 158.710938 L 372.0625 158.578125 L 373.023438 158.4375 L 373.984375 158.289062 L 374.941406 158.128906 L 375.898438 157.960938 L 376.859375 157.785156 L 377.820312 157.597656 L 378.777344 157.40625 L 379.734375 157.203125 L 380.695312 156.992188 L 381.65625 156.777344 L 382.613281 156.554688 L 383.570312 156.324219 L 384.53125 156.089844 L 385.492188 155.851562 L 387.40625 155.359375 L 388.367188 155.109375 L 389.328125 154.855469 L 390.285156 154.605469 L 391.242188 154.351562 L 392.203125 154.097656 L 393.164062 153.847656 L 394.121094 153.601562 L 395.078125 153.359375 L 396.039062 153.121094 L 397 152.890625 L 397.957031 152.667969 L 398.914062 152.453125 L 399.875 152.246094 L 400.835938 152.054688 L 401.792969 151.875 L 402.75 151.707031 L 403.710938 151.554688 L 404.671875 151.421875 L 405.628906 151.308594 L 406.585938 151.214844 L 407.546875 151.140625 L 408.507812 151.09375 L 409.464844 151.070312 L 410.421875 151.074219 L 411.382812 151.105469 L 412.34375 151.171875 L 413.300781 151.269531 L 414.257812 151.402344 L 415.21875 151.574219 L 416.179688 151.785156 L 417.136719 152.039062 L 418.09375 152.332031 L 419.054688 152.675781 L 420.015625 153.0625 L 420.972656 153.5 L 421.929688 153.984375 L 422.890625 154.519531 L 423.851562 155.105469 L 424.808594 155.742188 L 425.765625 156.425781 L 426.726562 157.160156 L 427.6875 157.9375 L 428.644531 158.757812 L 429.601562 159.617188 L 430.5625 160.507812 L 431.523438 161.429688 L 432.480469 162.371094 L 435.359375 165.25 L 436.316406 166.195312 L 437.273438 167.125 L 438.234375 168.019531 L 439.195312 168.867188 L 440.152344 169.660156 L 441.109375 170.386719 L 442.070312 171.03125 L 443.03125 171.59375 L 443.988281 172.066406 L 444.945312 172.445312 L 445.90625 172.71875 L 446.867188 172.871094 L 447.824219 172.894531 L 448.78125 172.777344 L 449.742188 172.523438 L 450.703125 172.152344 L 451.660156 171.683594 L 452.617188 171.117188 L 453.578125 170.433594 L 454.539062 169.609375 L 455.496094 168.636719 L 456.453125 167.527344 L 457.414062 166.308594 L 458.375 165 L 459.332031 163.613281 L 460.289062 162.15625 L 461.25 160.65625 L 462.210938 159.148438 L 463.167969 157.640625 L 464.125 156.085938 L 465.085938 154.421875 L 466.046875 152.628906 L 467.003906 150.773438 L 467.960938 149.007812 L 468.921875 147.429688 L 469.882812 146.066406 L 470.839844 144.863281 L 471.796875 143.792969 L 472.757812 142.933594 L 473.71875 142.429688 L 474.675781 142.351562 L 475.632812 142.621094 L 476.59375 143.035156 L 477.554688 143.464844 L 478.511719 143.976562 L 479.46875 144.828125 L 480.429688 146.300781 L 481.390625 148.488281 L 482.347656 151.214844 L 483.304688 154.167969 L 484.265625 157.050781 L 485.226562 159.714844 L 486.183594 162.164062 L 487.140625 164.460938 L 488.101562 166.648438 L 489.0625 168.714844 L 490.019531 170.613281 L 490.976562 172.285156 L 491.9375 173.675781 L 492.898438 174.757812 L 493.855469 175.554688 L 494.8125 176.113281 L 495.773438 176.476562 L 496.734375 176.621094 L 497.691406 176.425781 L 498.648438 175.734375 L 499.609375 174.429688 L 500.570312 172.523438 L 501.527344 170.160156 L 502.484375 167.570312 L 503.445312 164.996094 L 504.40625 162.59375 L 505.363281 160.363281 L 506.320312 158.171875 L 507.28125 155.820312 L 508.242188 153.238281 L 509.199219 150.585938 L 510.15625 148.234375 L 511.117188 146.550781 L 512.078125 145.628906 L 513.035156 145.195312 L 513.992188 144.773438 L 514.953125 144.0625 L 515.914062 143.179688 L 516.871094 142.609375 L 517.828125 142.902344 L 518.789062 144.378906 L 519.75 146.996094 L 520.707031 150.476562 L 521.664062 154.507812 L 522.625 158.808594 L 523.585938 163.117188 L 524.542969 167.101562 L 525.5 170.425781 L 526.460938 172.847656 L 527.421875 174.347656 L 528.378906 175.101562 L 529.335938 175.355469 L 530.296875 175.273438 L 531.257812 174.863281 L 532.214844 173.992188 L 533.171875 172.492188 L 534.132812 170.226562 L 535.09375 167.183594 L 536.050781 163.488281 L 537.007812 159.449219 L 537.96875 155.496094 L 538.929688 152.058594 L 539.886719 149.414062 L 540.84375 147.5625 L 541.804688 146.277344 L 542.765625 145.265625 L 543.722656 144.4375 L 544.679688 144.011719 L 545.640625 144.433594 L 546.601562 146.121094 L 547.558594 149.210938 L 548.515625 153.460938 L 549.476562 158.308594 L 550.4375 163.085938 L 551.394531 167.214844 L 552.351562 170.34375 L 553.3125 172.355469 L 554.273438 173.308594 L 555.230469 173.328125 L 556.1875 172.566406 L 557.148438 171.148438 L 558.109375 169.167969 L 559.066406 166.691406 L 560.023438 163.746094 L 560.984375 160.386719 L 561.945312 156.769531 L 562.902344 153.253906 L 563.859375 150.375 L 564.820312 148.707031 L 565.78125 148.59375 L 566.738281 149.957031 L 567.695312 152.328125 L 568.65625 155.078125 L 569.617188 157.664062 L 570.574219 159.816406 L 571.53125 161.492188 L 572.492188 162.726562 L 573.453125 163.503906 L 574.410156 163.738281 L 575.367188 163.367188 L 576.328125 162.425781 L 577.289062 161.09375 L 578.246094 159.652344 L 579.203125 158.4375 L 580.164062 157.769531 L 581.125 157.878906 L 582.082031 158.824219 L 583.039062 160.390625 "/>
</g>
<g clip-path="url(#clip-1-ec75932e)">
<path fill="none" stroke-width="3" stroke-linecap="butt" stroke-linejoin="miter" stroke="rgb(50.196081%, 0%, 50.196081%)" stroke-opacity="0.7" stroke-miterlimit="2" d="M 93 159.5 L 583.039062 159.5 "/>
</g>
<g fill="rgb(0%, 0%, 0%)" fill-opacity="1">
<use xlink:href="#glyph-0-0-ec75932e" x="311.830007" y="580.239999"/>
</g>
<g fill="rgb(0%, 0%, 0%)" fill-opacity="1">
<use xlink:href="#glyph-0-1-ec75932e" x="321.830008" y="580.239999"/>
</g>
<g fill="rgb(0%, 0%, 0%)" fill-opacity="1">
<use xlink:href="#glyph-0-2-ec75932e" x="327.390007" y="580.239999"/>
</g>
<g fill="rgb(0%, 0%, 0%)" fill-opacity="1">
<use xlink:href="#glyph-0-3-ec75932e" x="332.950007" y="580.239999"/>
</g>
<g fill="rgb(0%, 0%, 0%)" fill-opacity="1">
<use xlink:href="#glyph-0-4-ec75932e" x="342.950007" y="580.239999"/>
</g>
<g fill="rgb(0%, 0%, 0%)" fill-opacity="1">
<use xlink:href="#glyph-0-5-ec75932e" x="359.610007" y="580.239999"/>
</g>
<g fill="rgb(0%, 0%, 0%)" fill-opacity="1">
<use xlink:href="#glyph-0-6-ec75932e" x="70.480003" y="553.939999"/>
</g>
<g fill="rgb(0%, 0%, 0%)" fill-opacity="1">
<use xlink:href="#glyph-0-7-ec75932e" x="82.160004" y="553.939999"/>
</g>
<g fill="rgb(0%, 0%, 0%)" fill-opacity="1">
<use xlink:href="#glyph-0-8-ec75932e" x="93.280003" y="553.939999"/>
</g>
<g fill="rgb(0%, 0%, 0%)" fill-opacity="1">
<use xlink:href="#glyph-0-9-ec75932e" x="104.400002" y="553.939999"/>
</g>
<g fill="rgb(0%, 0%, 0%)" fill-opacity="1">
<use xlink:href="#glyph-0-9-ec75932e" x="332.940008" y="553.939999"/>
</g>
<g fill="rgb(0%, 0%, 0%)" fill-opacity="1">
<use xlink:href="#glyph-0-7-ec75932e" x="567.320013" y="553.939999"/>
</g>
<g fill="rgb(0%, 0%, 0%)" fill-opacity="1">
<use xlink:href="#glyph-0-8-ec75932e" x="578.440014" y="553.939999"/>
</g>
<g fill="rgb(0%, 0%, 0%)" fill-opacity="1">
<use xlink:href="#glyph-0-9-ec75932e" x="589.560014" y="553.939999"/>
</g>
<g fill="rgb(0%, 0%, 0%)" fill-opacity="1">
<use xlink:href="#glyph-1-1-ec75932e" x="33.803202" y="467.558312"/>
</g>
<g fill="rgb(0%, 0%, 0%)" fill-opacity="1">
<use xlink:href="#glyph-3-1-ec75932e" x="33.803203" y="457.558314"/>
</g>
<g fill="rgb(0%, 0%, 0%)" fill-opacity="1">
<use xlink:href="#glyph-3-4-ec75932e" x="33.803203" y="451.998314"/>
</g>
<g fill="rgb(0%, 0%, 0%)" fill-opacity="1">
<use xlink:href="#glyph-3-0-ec75932e" x="33.803204" y="446.438315"/>
</g>
<g fill="rgb(0%, 0%, 0%)" fill-opacity="1">
<use xlink:href="#glyph-7-0-ec75932e" x="33.803205" y="429.778316"/>
</g>
<g fill="rgb(0%, 0%, 0%)" fill-opacity="1">
<use xlink:href="#glyph-3-2-ec75932e" x="33.803205" y="424.218315"/>
</g>
<g fill="rgb(0%, 0%, 0%)" fill-opacity="1">
<use xlink:href="#glyph-4-0-ec75932e" x="33.803206" y="414.218315"/>
</g>
<g fill="rgb(0%, 0%, 0%)" fill-opacity="1">
<use xlink:href="#glyph-8-0-ec75932e" x="33.803206" y="403.661675"/>
</g>
<g fill="rgb(0%, 0%, 0%)" fill-opacity="1">
<use xlink:href="#glyph-3-3-ec75932e" x="33.803207" y="397.001677"/>
</g>
<g fill="rgb(0%, 0%, 0%)" fill-opacity="1">
<use xlink:href="#glyph-0-6-ec75932e" x="43.520002" y="501.789998"/>
</g>
<g fill="rgb(0%, 0%, 0%)" fill-opacity="1">
<use xlink:href="#glyph-6-0-ec75932e" x="55.200002" y="501.789998"/>
</g>
<g fill="rgb(0%, 0%, 0%)" fill-opacity="1">
<use xlink:href="#glyph-0-10-ec75932e" x="66.320001" y="501.789998"/>
</g>
<g fill="rgb(0%, 0%, 0%)" fill-opacity="1">
<use xlink:href="#glyph-0-7-ec75932e" x="71.880001" y="501.789998"/>
</g>
<g fill="rgb(0%, 0%, 0%)" fill-opacity="1">
<use xlink:href="#glyph-0-6-ec75932e" x="43.520002" y="469.289997"/>
</g>
<g fill="rgb(0%, 0%, 0%)" fill-opacity="1">
<use xlink:href="#glyph-6-0-ec75932e" x="55.200002" y="469.289997"/>
</g>
<g fill="rgb(0%, 0%, 0%)" fill-opacity="1">
<use xlink:href="#glyph-0-10-ec75932e" x="66.320001" y="469.289997"/>
</g>
<g fill="rgb(0%, 0%, 0%)" fill-opacity="1">
<use xlink:href="#glyph-0-11-ec75932e" x="71.880001" y="469.289997"/>
</g>
<g fill="rgb(0%, 0%, 0%)" fill-opacity="1">
<use xlink:href="#glyph-6-0-ec75932e" x="55.200002" y="436.789996"/>
</g>
<g fill="rgb(0%, 0%, 0%)" fill-opacity="1">
<use xlink:href="#glyph-0-10-ec75932e" x="66.320001" y="436.789996"/>
</g>
<g fill="rgb(0%, 0%, 0%)" fill-opacity="1">
<use xlink:href="#glyph-0-9-ec75932e" x="71.880003" y="436.789996"/>
</g>
<g fill="rgb(0%, 0%, 0%)" fill-opacity="1">
<use xlink:href="#glyph-6-0-ec75932e" x="55.200002" y="404.289996"/>
</g>
<g fill="rgb(0%, 0%, 0%)" fill-opacity="1">
<use xlink:href="#glyph-0-10-ec75932e" x="66.320001" y="404.289996"/>
</g>
<g fill="rgb(0%, 0%, 0%)" fill-opacity="1">
<use xlink:href="#glyph-0-11-ec75932e" x="71.880003" y="404.289996"/>
</g>
<g fill="rgb(0%, 0%, 0%)" fill-opacity="1">
<use xlink:href="#glyph-6-0-ec75932e" x="55.200002" y="371.789995"/>
</g>
<g fill="rgb(0%, 0%, 0%)" fill-opacity="1">
<use xlink:href="#glyph-0-10-ec75932e" x="66.320001" y="371.789995"/>
</g>
<g fill="rgb(0%, 0%, 0%)" fill-opacity="1">
<use xlink:href="#glyph-0-7-ec75932e" x="71.880003" y="371.789995"/>
</g>
<g clip-path="url(#clip-2-ec75932e)">
<path fill="none" stroke-width="3" stroke-linecap="butt" stroke-linejoin="miter" stroke="rgb(0%, 50.196081%, 0%)" stroke-opacity="0.7" stroke-miterlimit="2" d="M 93 428.84375 L 93.957031 427.019531 L 94.917969 425.492188 L 95.875 424.488281 L 96.835938 424.140625 L 97.792969 424.476562 L 98.753906 425.398438 L 99.710938 426.753906 L 100.671875 428.355469 L 101.628906 430.015625 L 102.589844 431.589844 L 103.546875 432.980469 L 104.507812 434.097656 L 105.464844 434.847656 L 106.425781 435.113281 L 107.382812 434.78125 L 108.34375 433.792969 L 109.300781 432.222656 L 110.261719 430.277344 L 111.21875 428.253906 L 112.179688 426.449219 L 113.136719 425.03125 L 114.097656 424.015625 L 115.054688 423.347656 L 116.015625 422.988281 L 116.972656 423.003906 L 117.933594 423.554688 L 118.890625 424.765625 L 119.851562 426.601562 L 120.808594 428.863281 L 121.769531 431.222656 L 122.726562 433.378906 L 123.6875 435.160156 L 124.644531 436.53125 L 125.605469 437.523438 L 126.5625 438.160156 L 127.523438 438.398438 L 128.480469 438.132812 L 129.441406 437.273438 L 130.398438 435.773438 L 131.359375 433.679688 L 132.316406 431.136719 L 133.277344 428.371094 L 134.234375 425.644531 L 135.195312 423.214844 L 136.152344 421.230469 L 137.113281 419.730469 L 138.070312 418.671875 L 139.03125 418.015625 L 139.988281 417.800781 L 140.949219 418.132812 L 141.90625 419.121094 L 142.867188 420.746094 L 143.824219 422.875 L 144.785156 425.296875 L 145.742188 427.820312 L 146.703125 430.335938 L 147.660156 432.796875 L 148.621094 435.144531 L 149.578125 437.292969 L 150.539062 439.144531 L 151.496094 440.632812 L 152.457031 441.757812 L 153.414062 442.542969 L 154.375 442.976562 L 155.332031 442.980469 L 156.292969 442.453125 L 157.25 441.339844 L 158.210938 439.683594 L 159.167969 437.613281 L 160.128906 435.261719 L 161.085938 432.742188 L 162.046875 430.117188 L 163.003906 427.433594 L 163.964844 424.808594 L 164.921875 422.382812 L 165.882812 420.289062 L 166.839844 418.601562 L 167.800781 417.316406 L 168.757812 416.351562 L 169.71875 415.648438 L 170.675781 415.179688 L 171.636719 414.980469 L 172.59375 415.128906 L 173.554688 415.71875 L 174.511719 416.820312 L 175.472656 418.4375 L 176.429688 420.488281 L 177.390625 422.792969 L 178.347656 425.152344 L 179.308594 427.417969 L 180.265625 429.53125 L 181.226562 431.53125 L 182.183594 433.464844 L 183.144531 435.324219 L 184.101562 437.054688 L 185.0625 438.597656 L 186.019531 439.957031 L 186.980469 441.199219 L 187.9375 442.367188 L 188.898438 443.410156 L 189.855469 444.171875 L 190.816406 444.476562 L 191.773438 444.222656 L 192.734375 443.484375 L 193.691406 442.441406 L 194.652344 441.289062 L 195.609375 440.136719 L 196.570312 438.960938 L 197.527344 437.671875 L 198.488281 436.214844 L 199.445312 434.621094 L 200.40625 432.976562 L 201.363281 431.375 L 202.324219 429.832031 L 203.28125 428.300781 L 204.242188 426.722656 L 205.199219 425.097656 L 206.160156 423.480469 L 207.117188 421.980469 L 208.078125 420.703125 L 209.035156 419.675781 L 209.996094 418.875 L 210.953125 418.238281 L 211.914062 417.679688 L 212.871094 417.167969 L 213.832031 416.714844 L 214.789062 416.371094 L 215.75 416.210938 L 216.707031 416.28125 L 217.667969 416.578125 L 218.625 417.070312 L 219.585938 417.707031 L 220.542969 418.449219 L 221.503906 419.269531 L 222.460938 420.171875 L 223.421875 421.15625 L 224.382812 422.214844 L 225.339844 423.34375 L 226.296875 424.519531 L 227.257812 425.714844 L 228.21875 426.925781 L 229.175781 428.179688 L 230.132812 429.480469 L 231.09375 430.730469 L 232.054688 431.800781 L 233.011719 432.722656 L 233.96875 433.625 L 234.929688 434.507812 L 235.890625 435.277344 L 236.847656 435.90625 L 237.804688 436.472656 L 238.765625 437.050781 L 239.726562 437.675781 L 240.683594 438.339844 L 241.640625 438.886719 L 242.601562 439.113281 L 243.5625 439.042969 L 244.519531 438.96875 L 245.476562 439.070312 L 246.4375 439.214844 L 247.398438 439.214844 L 248.355469 439.105469 L 249.3125 439.078125 L 250.273438 439.273438 L 251.234375 439.773438 L 252.191406 440.5 L 253.148438 440.976562 L 254.109375 440.628906 L 255.070312 439.628906 L 256.027344 438.742188 L 256.984375 438.21875 L 257.945312 437.707031 L 258.90625 437 L 259.863281 436.175781 L 260.820312 435.402344 L 261.78125 434.8125 L 262.742188 434.199219 L 263.699219 433.320312 L 264.65625 432.550781 L 265.617188 432.074219 L 266.578125 431.339844 L 267.535156 430.246094 L 268.492188 429.457031 L 269.453125 429.019531 L 270.414062 428.4375 L 271.371094 427.855469 L 272.328125 427.703125 L 273.289062 427.921875 L 274.25 428.285156 L 275.207031 428.578125 L 276.164062 428.519531 L 277.125 428.136719 L 278.085938 427.800781 L 279.042969 427.644531 L 280 427.492188 L 280.960938 427.214844 L 281.921875 426.875 L 282.878906 426.464844 L 283.835938 425.675781 L 284.796875 424.21875 L 285.757812 422.375 L 286.714844 420.820312 L 287.671875 420.042969 L 288.632812 420.117188 L 289.59375 420.738281 L 290.550781 421.5 L 291.507812 422.25 L 292.46875 422.984375 L 293.429688 423.589844 L 294.386719 423.988281 L 295.34375 424.261719 L 296.304688 424.535156 L 297.265625 424.96875 L 298.222656 425.652344 L 299.179688 426.441406 L 300.140625 427.152344 L 301.101562 427.75 L 302.058594 428.113281 L 303.015625 428.015625 L 303.976562 427.488281 L 304.9375 426.925781 L 305.894531 426.550781 L 306.851562 426.152344 L 307.8125 425.570312 L 308.773438 425.125 L 309.730469 425.011719 L 310.6875 424.871094 L 311.648438 424.351562 L 312.609375 423.59375 L 313.566406 422.929688 L 314.523438 422.402344 L 315.484375 421.652344 L 316.445312 420.472656 L 317.402344 419.320312 L 318.359375 418.488281 L 319.320312 417.253906 L 320.28125 414.882812 L 321.238281 411.835938 L 322.195312 408.816406 L 323.15625 405.566406 L 324.117188 401.511719 L 325.074219 396.703125 L 326.03125 391.542969 L 326.992188 386.46875 L 327.953125 382.019531 L 328.910156 378.558594 L 329.867188 376.011719 L 330.828125 374.542969 L 331.789062 374.898438 L 332.746094 377.511719 L 333.703125 382.121094 L 334.664062 388.667969 L 335.625 397.382812 L 336.582031 407.976562 L 337.539062 419.582031 L 338.5 431.378906 L 339.460938 442.792969 L 340.417969 453.472656 L 341.375 463.136719 L 342.335938 471.339844 L 343.296875 477.609375 L 344.253906 481.695312 L 345.210938 483.464844 L 346.171875 482.980469 L 347.132812 480.765625 L 348.089844 477.554688 L 349.046875 473.917969 L 350.007812 470.066406 L 350.96875 465.933594 L 351.925781 461.6875 L 352.882812 457.800781 L 353.84375 454.351562 L 354.804688 450.886719 L 355.761719 447.421875 L 356.71875 444.585938 L 357.679688 442.5625 L 358.640625 440.863281 L 359.597656 439.28125 L 360.554688 438.101562 L 361.515625 437.234375 L 362.476562 436.15625 L 363.433594 434.847656 L 364.390625 433.914062 L 365.351562 433.703125 L 366.3125 434.058594 L 367.269531 434.695312 L 368.226562 435.242188 L 369.1875 435.46875 L 370.148438 435.4375 L 371.105469 435.226562 L 372.0625 434.871094 L 373.023438 434.515625 L 373.984375 434.214844 L 374.941406 434.089844 L 375.898438 434.410156 L 376.859375 434.875 L 377.820312 434.808594 L 378.777344 434.300781 L 379.734375 433.894531 L 380.695312 433.773438 L 381.65625 434.097656 L 382.613281 434.882812 L 383.570312 435.40625 L 384.53125 435.011719 L 385.492188 433.984375 L 386.449219 433.019531 L 387.40625 432.492188 L 388.367188 432.429688 L 389.328125 432.667969 L 390.285156 433.066406 L 391.242188 433.398438 L 392.203125 433.34375 L 393.164062 433.054688 L 394.121094 433.042969 L 395.078125 433.402344 L 396.039062 433.941406 L 397 434.457031 L 397.957031 434.53125 L 398.914062 434.027344 L 399.875 433.449219 L 400.835938 432.894531 L 401.792969 431.894531 L 402.75 430.609375 L 403.710938 429.714844 L 404.671875 429.492188 L 405.628906 429.859375 L 406.585938 430.363281 L 407.546875 430.152344 L 408.507812 428.945312 L 409.464844 427.644531 L 410.421875 427.261719 L 411.382812 427.617188 L 412.34375 427.667969 L 413.300781 426.910156 L 414.257812 425.863281 L 415.21875 425.007812 L 416.179688 424.25 L 417.136719 423.738281 L 418.09375 423.875 L 419.054688 424.335938 L 420.015625 424.191406 L 420.972656 423.023438 L 421.929688 421.332031 L 422.890625 420.042969 L 423.851562 419.652344 L 424.808594 419.808594 L 425.765625 419.835938 L 426.726562 419.558594 L 427.6875 419.175781 L 428.644531 418.851562 L 429.601562 418.65625 L 430.5625 418.636719 L 431.523438 418.726562 L 432.480469 418.691406 L 433.4375 418.40625 L 434.398438 418.082031 L 435.359375 417.9375 L 436.316406 417.929688 L 437.273438 418.128906 L 438.234375 418.839844 L 439.195312 420.136719 L 440.152344 421.699219 L 441.109375 423.179688 L 442.070312 424.425781 L 443.03125 425.441406 L 443.988281 426.324219 L 444.945312 427.226562 L 445.90625 428.265625 L 446.867188 429.453125 L 447.824219 430.703125 L 448.78125 431.925781 L 449.742188 433.121094 L 450.703125 434.308594 L 451.660156 435.46875 L 452.617188 436.585938 L 453.578125 437.625 L 454.539062 438.5625 L 455.496094 439.429688 L 456.453125 440.226562 L 457.414062 440.941406 L 458.375 441.570312 L 459.332031 442.105469 L 460.289062 442.511719 L 461.25 442.785156 L 462.210938 442.914062 L 463.167969 442.863281 L 464.125 442.625 L 465.085938 442.207031 L 466.046875 441.613281 L 467.003906 440.867188 L 467.960938 439.976562 L 468.921875 438.914062 L 469.882812 437.675781 L 470.839844 436.253906 L 471.796875 434.667969 L 472.757812 432.949219 L 473.71875 431.117188 L 474.675781 429.167969 L 475.632812 427.121094 L 476.59375 425.035156 L 477.554688 423.003906 L 478.511719 421.144531 L 479.46875 419.535156 L 480.429688 418.167969 L 481.390625 417.015625 L 482.347656 416.03125 L 483.304688 415.203125 L 484.265625 414.574219 L 485.226562 414.226562 L 486.183594 414.214844 L 487.140625 414.585938 L 488.101562 415.347656 L 489.0625 416.460938 L 490.019531 417.894531 L 490.976562 419.589844 L 491.9375 421.464844 L 492.898438 423.449219 L 493.855469 425.484375 L 494.8125 427.503906 L 495.773438 429.46875 L 496.734375 431.355469 L 497.691406 433.144531 L 498.648438 434.84375 L 499.609375 436.488281 L 500.570312 438.085938 L 501.527344 439.636719 L 502.484375 441.066406 L 503.445312 442.246094 L 504.40625 443.035156 L 505.363281 443.34375 L 506.320312 443.160156 L 507.28125 442.554688 L 508.242188 441.664062 L 509.199219 440.59375 L 510.15625 439.394531 L 511.117188 438.054688 L 512.078125 436.488281 L 513.035156 434.628906 L 513.992188 432.441406 L 514.953125 429.964844 L 515.914062 427.3125 L 516.871094 424.679688 L 517.828125 422.261719 L 518.789062 420.222656 L 519.75 418.648438 L 520.707031 417.523438 L 521.664062 416.785156 L 522.625 416.394531 L 523.585938 416.371094 L 524.542969 416.792969 L 525.5 417.777344 L 526.460938 419.378906 L 527.421875 421.578125 L 528.378906 424.269531 L 529.335938 427.269531 L 530.296875 430.375 L 531.257812 433.378906 L 532.214844 436.089844 L 533.171875 438.367188 L 534.132812 440.09375 L 535.09375 441.203125 L 536.050781 441.660156 L 537.007812 441.46875 L 537.96875 440.660156 L 538.929688 439.300781 L 539.886719 437.5 L 540.84375 435.359375 L 541.804688 432.984375 L 542.765625 430.480469 L 543.722656 427.933594 L 544.679688 425.4375 L 545.640625 423.105469 L 546.601562 421.089844 L 547.558594 419.585938 L 548.515625 418.808594 L 549.476562 418.894531 L 550.4375 419.859375 L 551.394531 421.5625 L 552.351562 423.726562 L 553.3125 426.070312 L 554.273438 428.367188 L 555.230469 430.5 L 556.1875 432.429688 L 557.148438 434.128906 L 558.109375 435.519531 L 559.066406 436.488281 L 560.023438 436.917969 L 560.984375 436.738281 L 561.945312 435.949219 L 562.902344 434.644531 L 563.859375 432.953125 L 564.820312 431.027344 L 565.78125 429.046875 L 566.738281 427.167969 L 567.695312 425.574219 L 568.65625 424.441406 L 569.617188 423.90625 L 570.574219 424.023438 L 571.53125 424.757812 L 572.492188 425.972656 L 573.453125 427.480469 L 574.410156 429.09375 L 575.367188 430.652344 L 576.328125 432.035156 L 577.289062 433.148438 L 578.246094 433.921875 L 579.203125 434.273438 L 580.164062 434.140625 L 581.125 433.480469 L 582.082031 432.292969 L 583.039062 430.6875 "/>
</g>
<g clip-path="url(#clip-3-ec75932e)">
<path fill="none" stroke-width="3" stroke-linecap="butt" stroke-linejoin="miter" stroke="rgb(50.196081%, 0%, 50.196081%)" stroke-opacity="0.7" stroke-miterlimit="2" d="M 93 431.765625 L 93.957031 438.738281 L 94.917969 443.328125 L 95.875 444.890625 L 96.835938 443.914062 L 97.792969 441.066406 L 98.753906 437.675781 L 99.710938 434.367188 L 100.671875 430.613281 L 101.628906 426.613281 L 102.589844 422.792969 L 103.546875 419.160156 L 104.507812 416.394531 L 105.464844 415.023438 L 106.425781 414.976562 L 107.382812 416.964844 L 108.34375 421.40625 L 109.300781 427.292969 L 110.261719 433.425781 L 111.21875 438.300781 L 112.179688 440.425781 L 113.136719 440.273438 L 114.097656 439.414062 L 115.054688 438.78125 L 116.015625 439.039062 L 116.972656 439.683594 L 117.933594 438.949219 L 118.890625 436.183594 L 119.851562 431.960938 L 120.808594 427.136719 L 121.769531 423.3125 L 122.726562 421.433594 L 123.6875 420.679688 L 124.644531 420.289062 L 125.605469 419.847656 L 126.5625 418.898438 L 127.523438 418.121094 L 128.480469 418.394531 L 129.441406 419.535156 L 130.398438 421.617188 L 131.359375 424.785156 L 132.316406 428.398438 L 133.277344 432.203125 L 134.234375 435.972656 L 135.195312 438.773438 L 136.152344 440.609375 L 137.113281 442.128906 L 138.070312 443.191406 L 139.03125 443.648438 L 139.988281 443.140625 L 140.949219 440.730469 L 141.90625 436.875 L 142.867188 433.226562 L 143.824219 430.675781 L 144.785156 429.507812 L 145.742188 428.996094 L 146.703125 427.230469 L 147.660156 423.796875 L 148.621094 420.328125 L 149.578125 418.570312 L 150.539062 419.789062 L 151.496094 423.367188 L 152.457031 426.125 L 153.414062 425.519531 L 154.375 421.726562 L 155.332031 416.886719 L 156.292969 414.503906 L 157.25 416.867188 L 158.210938 422.5 L 159.167969 428.195312 L 160.128906 431.539062 L 161.085938 431.65625 L 162.046875 430.390625 L 163.003906 430.660156 L 163.964844 433.246094 L 164.921875 437.117188 L 165.882812 440.507812 L 166.839844 441.320312 L 167.800781 439.308594 L 168.757812 436.277344 L 169.71875 433.792969 L 170.675781 433.046875 L 171.636719 434.625 L 172.59375 437.257812 L 173.554688 439.339844 L 174.511719 439.945312 L 175.472656 437.964844 L 176.429688 433.480469 L 177.390625 428.332031 L 178.347656 424.179688 L 179.308594 422.433594 L 180.265625 423.796875 L 181.226562 426.480469 L 182.183594 428.171875 L 183.144531 428.132812 L 184.101562 426.472656 L 185.0625 424.671875 L 186.019531 424.648438 L 186.980469 425.863281 L 187.9375 426.542969 L 188.898438 425.679688 L 189.855469 422.8125 L 190.816406 419.492188 L 191.773438 418.585938 L 192.734375 420.808594 L 193.691406 425.050781 L 194.652344 429.472656 L 195.609375 431.535156 L 196.570312 430.738281 L 197.527344 429 L 198.488281 427.882812 L 199.445312 428.347656 L 200.40625 430.277344 L 201.363281 431.769531 L 202.324219 431.722656 L 203.28125 430.675781 L 204.242188 429.425781 L 205.199219 429.222656 L 206.160156 430.703125 L 207.117188 432.882812 L 208.078125 434.6875 L 209.035156 435.40625 L 209.996094 434.660156 L 210.953125 433.050781 L 211.914062 431.449219 L 212.871094 430.550781 L 213.832031 430.769531 L 214.789062 431.796875 L 215.75 433.097656 L 216.707031 433.957031 L 217.667969 433.71875 L 218.625 432.816406 L 219.585938 431.671875 L 220.542969 430.527344 L 221.503906 430.234375 L 222.460938 430.386719 L 223.421875 430.199219 L 224.382812 430.242188 L 225.339844 429.957031 L 226.296875 429.0625 L 227.257812 428.882812 L 228.21875 428.714844 L 229.175781 428.152344 L 230.132812 428.539062 L 231.09375 428.570312 L 232.054688 427.855469 L 233.011719 428.140625 L 233.96875 427.996094 L 234.929688 427.347656 L 235.890625 427.933594 L 236.847656 427.683594 L 237.804688 426.90625 L 238.765625 427.691406 L 239.726562 427.566406 L 240.683594 427.140625 L 241.640625 428.304688 L 242.601562 427.839844 L 243.5625 426.910156 L 244.519531 427.785156 L 245.476562 427.210938 L 246.4375 426.773438 L 247.398438 428.058594 L 248.355469 427.269531 L 249.3125 426.949219 L 250.273438 428.695312 L 251.234375 428.460938 L 252.191406 429.214844 L 253.148438 431.457031 L 254.109375 430.316406 L 255.070312 429.691406 L 256.027344 430.71875 L 256.984375 429.3125 L 257.945312 429.507812 L 258.90625 430.773438 L 259.863281 428.960938 L 260.820312 429.222656 L 261.78125 430.5625 L 262.742188 428.832031 L 263.699219 429.292969 L 264.65625 430.300781 L 265.617188 428.585938 L 266.578125 429.449219 L 267.535156 429.890625 L 268.492188 427.75 L 269.453125 429.128906 L 270.414062 429.75 L 271.371094 427.746094 L 272.328125 429.574219 L 273.289062 430.605469 L 274.25 429.507812 L 275.207031 431.902344 L 276.164062 432.230469 L 277.125 430.425781 L 278.085938 432.253906 L 279.042969 432.046875 L 280 430.570312 L 280.960938 432.46875 L 281.921875 431.65625 L 282.878906 430.089844 L 283.835938 431.421875 L 284.796875 429.113281 L 285.757812 426.347656 L 286.714844 426.8125 L 287.671875 424.859375 L 288.632812 424.28125 L 289.59375 426.761719 L 290.550781 426.097656 L 291.507812 426.5 L 292.46875 428.875 L 293.429688 427.882812 L 294.386719 428.25 L 295.34375 429.902344 L 296.304688 428.503906 L 297.265625 429.195312 L 298.222656 430.960938 L 299.179688 430.082031 L 300.140625 431.308594 L 301.101562 432.671875 L 302.058594 431.457031 L 303.015625 432.074219 L 303.976562 431.996094 L 304.9375 430.015625 L 305.894531 430.488281 L 306.851562 430.226562 L 307.8125 428.445312 L 308.773438 428.902344 L 309.730469 428.65625 L 310.6875 427.570312 L 311.648438 427.929688 L 312.609375 426.820312 L 313.566406 425.484375 L 314.523438 425.730469 L 315.484375 424.472656 L 316.445312 422.894531 L 317.402344 422.351562 L 318.359375 420.929688 L 319.320312 419.535156 L 320.28125 417.570312 L 321.238281 413.929688 L 322.195312 410.945312 L 323.15625 407.863281 L 324.117188 403.28125 L 325.074219 398.648438 L 326.03125 393.417969 L 326.992188 387.945312 L 327.953125 383.742188 L 328.910156 379.988281 L 329.867188 377.21875 L 330.828125 375.992188 L 331.789062 375.871094 L 332.746094 378.46875 L 333.703125 383.242188 L 334.664062 389.175781 L 335.625 398.097656 L 336.582031 408.714844 L 337.539062 419.632812 L 338.5 431.84375 L 339.460938 443.089844 L 340.417969 453.085938 L 341.375 463.34375 L 342.335938 471.152344 L 343.296875 476.8125 L 344.253906 481.625 L 345.210938 482.753906 L 346.171875 481.800781 L 347.132812 480.382812 L 348.089844 476.304688 L 349.046875 472.386719 L 350.007812 469.335938 L 350.96875 464.125 L 351.925781 459.824219 L 352.882812 456.679688 L 353.84375 451.980469 L 354.804688 448.710938 L 355.761719 445.863281 L 356.71875 441.664062 L 357.679688 440.085938 L 358.640625 438.824219 L 359.597656 435.832031 L 360.554688 435.332031 L 361.515625 434.6875 L 362.476562 432.210938 L 363.433594 431.789062 L 364.390625 430.847656 L 365.351562 429.3125 L 366.3125 430.714844 L 367.269531 431.101562 L 368.226562 430.464844 L 369.1875 431.84375 L 370.148438 431.34375 L 371.105469 430.125 L 372.0625 430.980469 L 373.023438 429.960938 L 373.984375 428.863281 L 374.941406 429.964844 L 375.898438 429.464844 L 376.859375 429.359375 L 377.820312 430.488281 L 378.777344 429.058594 L 379.734375 428.3125 L 380.695312 429.324219 L 381.65625 428.675781 L 382.613281 429.335938 L 383.570312 430.90625 L 384.53125 429.539062 L 385.492188 428.59375 L 386.449219 428.585938 L 387.40625 427.128906 L 388.367188 427.320312 L 389.328125 428.425781 L 390.285156 427.976562 L 391.242188 428.703125 L 392.203125 429.441406 L 393.164062 428.414062 L 394.121094 428.914062 L 395.078125 430.007812 L 396.039062 429.925781 L 397 431.042969 L 397.957031 431.816406 L 398.914062 430.824219 L 399.875 430.90625 L 400.835938 431.039062 L 401.792969 429.675781 L 402.75 429.101562 L 403.710938 428.90625 L 404.671875 428.433594 L 405.628906 429.539062 L 406.585938 430.773438 L 407.546875 430.410156 L 408.507812 429.972656 L 409.464844 429.441406 L 410.421875 428.984375 L 411.382812 430.132812 L 412.34375 430.992188 L 413.300781 430.214844 L 414.257812 429.988281 L 415.21875 429.980469 L 416.179688 429.234375 L 417.136719 429.550781 L 418.09375 430.550781 L 419.054688 431.023438 L 420.015625 431.710938 L 420.972656 431.394531 L 421.929688 429.6875 L 422.890625 429.203125 L 423.851562 429.601562 L 424.808594 429.660156 L 425.765625 430.425781 L 426.726562 430.816406 L 427.6875 430.214844 L 428.644531 430.507812 L 429.601562 430.792969 L 430.5625 430.371094 L 431.523438 430.894531 L 432.480469 431.09375 L 433.4375 430.171875 L 434.398438 430.03125 L 435.359375 429.796875 L 436.316406 428.867188 L 437.273438 428.957031 L 438.234375 429.25 L 439.195312 429.351562 L 440.152344 430.515625 L 441.109375 431.234375 L 442.070312 430.992188 L 443.03125 431.285156 L 443.988281 431.078125 L 444.945312 430.28125 L 445.90625 430.4375 L 446.867188 430.4375 L 447.824219 429.957031 L 448.78125 430.164062 L 449.742188 429.941406 L 450.703125 429.203125 L 451.660156 429.246094 L 452.617188 429.101562 L 453.578125 428.617188 L 454.539062 428.816406 L 455.496094 428.660156 L 456.453125 428.039062 L 457.414062 428.039062 L 458.375 427.792969 L 459.332031 427.152344 L 460.289062 427.007812 L 461.25 426.550781 L 462.210938 425.867188 L 463.167969 426.085938 L 464.125 426.402344 L 465.085938 426.402344 L 466.046875 426.601562 L 467.003906 426.175781 L 467.960938 425.273438 L 468.921875 425.195312 L 469.882812 425.414062 L 470.839844 425.496094 L 471.796875 425.847656 L 472.757812 425.753906 L 473.71875 425.507812 L 474.675781 426.566406 L 475.632812 428.484375 L 476.59375 430.4375 L 477.554688 432.226562 L 478.511719 432.613281 L 479.46875 431.636719 L 480.429688 431.019531 L 481.390625 431.117188 L 482.347656 432.003906 L 483.304688 434.015625 L 484.265625 435.890625 L 485.226562 436.875 L 486.183594 437.585938 L 487.140625 437.65625 L 488.101562 437.015625 L 489.0625 436.488281 L 490.019531 435.613281 L 490.976562 434.199219 L 491.9375 433.027344 L 492.898438 431.734375 L 493.855469 430.214844 L 494.8125 429.371094 L 495.773438 429.007812 L 496.734375 429 L 497.691406 429.882812 L 498.648438 430.773438 L 499.609375 430.738281 L 500.570312 429.867188 L 501.527344 427.632812 L 502.484375 424.253906 L 503.445312 421.402344 L 504.40625 419.867188 L 505.363281 419.988281 L 506.320312 422.046875 L 507.28125 424.460938 L 508.242188 425.511719 L 509.199219 425.175781 L 510.15625 423.695312 L 511.117188 422.078125 L 512.078125 422.007812 L 513.035156 423.339844 L 513.992188 425.0625 L 514.953125 427.015625 L 515.914062 428.726562 L 516.871094 430.117188 L 517.828125 431.941406 L 518.789062 433.691406 L 519.75 434.59375 L 520.707031 435.203125 L 521.664062 435.949219 L 522.625 437.304688 L 523.585938 440.035156 L 524.542969 443.128906 L 525.5 444.816406 L 526.460938 444.546875 L 527.421875 441.992188 L 528.378906 437.589844 L 529.335938 433.042969 L 530.296875 429.097656 L 531.257812 425.75 L 532.214844 423.472656 L 533.171875 421.875 L 534.132812 420.320312 L 535.09375 419.113281 L 536.050781 418.058594 L 537.007812 416.933594 L 537.96875 416.65625 L 538.929688 417.578125 L 539.886719 419.492188 L 540.84375 422.496094 L 541.804688 425.636719 L 542.765625 427.667969 L 543.722656 428.84375 L 544.679688 429.753906 L 545.640625 431.179688 L 546.601562 434.425781 L 547.558594 439.171875 L 548.515625 443.574219 L 549.476562 446.246094 L 550.4375 445.988281 L 551.394531 442.617188 L 552.351562 437.984375 L 553.3125 433.765625 L 554.273438 430.527344 L 555.230469 428.613281 L 556.1875 427.226562 L 557.148438 425.230469 L 558.109375 422.96875 L 559.066406 420.957031 L 560.023438 419.363281 L 560.984375 418.769531 L 561.945312 418.945312 L 562.902344 419.1875 L 563.859375 420.070312 L 564.820312 422.269531 L 565.78125 425.902344 L 566.738281 431.171875 L 567.695312 437.023438 L 568.65625 441.425781 L 569.617188 443.542969 L 570.574219 443.195312 L 571.53125 440.625 L 572.492188 437.285156 L 573.453125 434.128906 L 574.410156 431.054688 L 575.367188 428.332031 L 576.328125 425.835938 L 577.289062 422.972656 L 578.246094 420.125 L 579.203125 417.757812 L 580.164062 416.085938 L 581.125 416.320312 L 582.082031 419.339844 L 583.039062 424.730469 "/>
</g>
<g fill="rgb(0%, 0%, 0%)" fill-opacity="1">
<use xlink:href="#glyph-9-0-ec75932e" x="228.516439" y="38.728028"/>
</g>
<g fill="rgb(0%, 0%, 0%)" fill-opacity="1">
<use xlink:href="#glyph-10-0-ec75932e" x="247.188437" y="38.728028"/>
</g>
<g fill="rgb(0%, 0%, 0%)" fill-opacity="1">
<use xlink:href="#glyph-9-1-ec75932e" x="260.532439" y="38.728028"/>
</g>
<g fill="rgb(0%, 0%, 0%)" fill-opacity="1">
<use xlink:href="#glyph-9-2-ec75932e" x="273.876441" y="38.728028"/>
</g>
<g fill="rgb(0%, 0%, 0%)" fill-opacity="1">
<use xlink:href="#glyph-9-3-ec75932e" x="285.876441" y="38.728028"/>
</g>
<g fill="rgb(0%, 0%, 0%)" fill-opacity="1">
<use xlink:href="#glyph-9-4-ec75932e" x="292.548438" y="38.728028"/>
</g>
<g fill="rgb(0%, 0%, 0%)" fill-opacity="1">
<use xlink:href="#glyph-9-1-ec75932e" x="300.540435" y="38.728028"/>
</g>
<g fill="rgb(0%, 0%, 0%)" fill-opacity="1">
<use xlink:href="#glyph-9-5-ec75932e" x="313.884438" y="38.728028"/>
</g>
<g fill="rgb(0%, 0%, 0%)" fill-opacity="1">
<use xlink:href="#glyph-9-6-ec75932e" x="327.22844" y="38.728028"/>
</g>
<g fill="rgb(0%, 0%, 0%)" fill-opacity="1">
<use xlink:href="#glyph-9-7-ec75932e" x="340.572442" y="38.728028"/>
</g>
<g fill="rgb(0%, 0%, 0%)" fill-opacity="1">
<use xlink:href="#glyph-9-8-ec75932e" x="345.900445" y="38.728028"/>
</g>
<g fill="rgb(0%, 0%, 0%)" fill-opacity="1">
<use xlink:href="#glyph-9-9-ec75932e" x="357.900445" y="38.728028"/>
</g>
<g fill="rgb(0%, 0%, 0%)" fill-opacity="1">
<use xlink:href="#glyph-9-10-ec75932e" x="364.572442" y="38.728028"/>
</g>
<g fill="rgb(0%, 0%, 0%)" fill-opacity="1">
<use xlink:href="#glyph-9-11-ec75932e" x="377.916437" y="38.728028"/>
</g>
<g fill="rgb(0%, 0%, 0%)" fill-opacity="1">
<use xlink:href="#glyph-9-12-ec75932e" x="391.260431" y="38.728028"/>
</g>
<g fill="rgb(0%, 0%, 0%)" fill-opacity="1">
<use xlink:href="#glyph-9-11-ec75932e" x="396.588434" y="38.728028"/>
</g>
<g fill="rgb(0%, 0%, 0%)" fill-opacity="1">
<use xlink:href="#glyph-9-13-ec75932e" x="409.932429" y="38.728028"/>
</g>
<g fill="rgb(0%, 0%, 0%)" fill-opacity="1">
<use xlink:href="#glyph-9-8-ec75932e" x="423.276423" y="38.728028"/>
</g>
<g fill="rgb(0%, 0%, 0%)" fill-opacity="1">
<use xlink:href="#glyph-9-14-ec75932e" x="435.276424" y="38.728028"/>
</g>
<path fill-rule="nonzero" fill="rgb(100%, 100%, 100%)" fill-opacity="1" stroke-width="1" stroke-linecap="butt" stroke-linejoin="miter" stroke="rgb(0%, 0%, 0%)" stroke-opacity="1" stroke-miterlimit="2" d="M 455 130 L 578 130 L 578 68 L 455 68 Z M 455 130 "/>
<path fill-rule="nonzero" fill="rgb(100%, 100%, 100%)" fill-opacity="1" stroke-width="1" stroke-linecap="butt" stroke-linejoin="miter" stroke="rgb(0%, 0%, 0%)" stroke-opacity="1" stroke-miterlimit="2" d="M 467 400 L 578 400 L 578 338 L 467 338 Z M 467 400 "/>
<path fill="none" stroke-width="1" stroke-linecap="butt" stroke-linejoin="miter" stroke="rgb(0%, 0%, 0%)" stroke-opacity="1" stroke-miterlimit="1.154701" d="M 93 257.5 L 93 262.5 "/>
<path fill="none" stroke-width="1" stroke-linecap="butt" stroke-linejoin="miter" stroke="rgb(0%, 0%, 0%)" stroke-opacity="1" stroke-miterlimit="1.154701" d="M 338.5 257.5 L 338.5 262.5 "/>
<path fill="none" stroke-width="1" stroke-linecap="butt" stroke-linejoin="miter" stroke="rgb(0%, 0%, 0%)" stroke-opacity="1" stroke-miterlimit="1.154701" d="M 584 257.5 L 584 262.5 "/>
<path fill="none" stroke-width="1" stroke-linecap="butt" stroke-linejoin="miter" stroke="rgb(0%, 0%, 0%)" stroke-opacity="1" stroke-miterlimit="1.154701" d="M 92.5 224.5 L 87.5 224.5 "/>
<path fill="none" stroke-width="1" stroke-linecap="butt" stroke-linejoin="miter" stroke="rgb(0%, 0%, 0%)" stroke-opacity="1" stroke-miterlimit="1.154701" d="M 92.5 192 L 87.5 192 "/>
<path fill="none" stroke-width="1" stroke-linecap="butt" stroke-linejoin="miter" stroke="rgb(0%, 0%, 0%)" stroke-opacity="1" stroke-miterlimit="1.154701" d="M 92.5 159.5 L 87.5 159.5 "/>
<path fill="none" stroke-width="1" stroke-linecap="butt" stroke-linejoin="miter" stroke="rgb(0%, 0%, 0%)" stroke-opacity="1" stroke-miterlimit="1.154701" d="M 92.5 127 L 87.5 127 "/>
<path fill="none" stroke-width="1" stroke-linecap="butt" stroke-linejoin="miter" stroke="rgb(0%, 0%, 0%)" stroke-opacity="1" stroke-miterlimit="1.154701" d="M 92.5 94.5 L 87.5 94.5 "/>
<path fill="none" stroke-width="1" stroke-linecap="butt" stroke-linejoin="miter" stroke="rgb(0%, 0%, 0%)" stroke-opacity="1" stroke-miterlimit="1.154701" d="M 93 527.5 L 93 532.5 "/>
<path fill="none" stroke-width="1" stroke-linecap="butt" stroke-linejoin="miter" stroke="rgb(0%, 0%, 0%)" stroke-opacity="1" stroke-miterlimit="1.154701" d="M 338.5 527.5 L 338.5 532.5 "/>
<path fill="none" stroke-width="1" stroke-linecap="butt" stroke-linejoin="miter" stroke="rgb(0%, 0%, 0%)" stroke-opacity="1" stroke-miterlimit="1.154701" d="M 584 527.5 L 584 532.5 "/>
<path fill="none" stroke-width="1" stroke-linecap="butt" stroke-linejoin="miter" stroke="rgb(0%, 0%, 0%)" stroke-opacity="1" stroke-miterlimit="1.154701" d="M 92.5 494.5 L 87.5 494.5 "/>
<path fill="none" stroke-width="1" stroke-linecap="butt" stroke-linejoin="miter" stroke="rgb(0%, 0%, 0%)" stroke-opacity="1" stroke-miterlimit="1.154701" d="M 92.5 462 L 87.5 462 "/>
<path fill="none" stroke-width="1" stroke-linecap="butt" stroke-linejoin="miter" stroke="rgb(0%, 0%, 0%)" stroke-opacity="1" stroke-miterlimit="1.154701" d="M 92.5 429.5 L 87.5 429.5 "/>
<path fill="none" stroke-width="1" stroke-linecap="butt" stroke-linejoin="miter" stroke="rgb(0%, 0%, 0%)" stroke-opacity="1" stroke-miterlimit="1.154701" d="M 92.5 397 L 87.5 397 "/>
<path fill="none" stroke-width="1" stroke-linecap="butt" stroke-linejoin="miter" stroke="rgb(0%, 0%, 0%)" stroke-opacity="1" stroke-miterlimit="1.154701" d="M 92.5 364.5 L 87.5 364.5 "/>
<path fill="none" stroke-width="3" stroke-linecap="butt" stroke-linejoin="miter" stroke="rgb(100%, 0%, 0%)" stroke-opacity="0.7" stroke-miterlimit="2" d="M 460.851562 85.851562 L 480.851562 85.851562 "/>
<path fill="none" stroke-width="3" stroke-linecap="butt" stroke-linejoin="miter" stroke="rgb(50.196081%, 0%, 50.196081%)" stroke-opacity="0.7" stroke-miterlimit="2" d="M 460.851562 112.148438 L 480.851562 112.148438 "/>
<g fill="rgb(0%, 0%, 0%)" fill-opacity="1">
<use xlink:href="#glyph-0-12-ec75932e" x="485.850015" y="93.139964"/>
</g>
<g fill="rgb(0%, 0%, 0%)" fill-opacity="1">
<use xlink:href="#glyph-0-13-ec75932e" x="485.85001" y="119.439983"/>
</g>
<g fill="rgb(0%, 0%, 0%)" fill-opacity="1">
<use xlink:href="#glyph-11-0-ec75932e" x="492.51001" y="119.439983"/>
</g>
<g fill="rgb(0%, 0%, 0%)" fill-opacity="1">
<use xlink:href="#glyph-0-14-ec75932e" x="498.07001" y="119.439983"/>
</g>
<g fill="rgb(0%, 0%, 0%)" fill-opacity="1">
<use xlink:href="#glyph-0-15-ec75932e" x="509.190011" y="119.439983"/>
</g>
<g fill="rgb(0%, 0%, 0%)" fill-opacity="1">
<use xlink:href="#glyph-0-16-ec75932e" x="514.750011" y="119.439983"/>
</g>
<g fill="rgb(0%, 0%, 0%)" fill-opacity="1">
<use xlink:href="#glyph-0-1-ec75932e" x="520.31001" y="119.439983"/>
</g>
<g fill="rgb(0%, 0%, 0%)" fill-opacity="1">
<use xlink:href="#glyph-0-17-ec75932e" x="525.870012" y="119.439983"/>
</g>
<g fill="rgb(0%, 0%, 0%)" fill-opacity="1">
<use xlink:href="#glyph-0-18-ec75932e" x="535.670011" y="119.439983"/>
</g>
<g fill="rgb(0%, 0%, 0%)" fill-opacity="1">
<use xlink:href="#glyph-0-15-ec75932e" x="546.79001" y="119.439983"/>
</g>
<g fill="rgb(0%, 0%, 0%)" fill-opacity="1">
<use xlink:href="#glyph-0-17-ec75932e" x="552.350012" y="119.439983"/>
</g>
<g fill="rgb(0%, 0%, 0%)" fill-opacity="1">
<use xlink:href="#glyph-0-19-ec75932e" x="562.150015" y="119.439983"/>
</g>
<path fill="none" stroke-width="3" stroke-linecap="butt" stroke-linejoin="miter" stroke="rgb(0%, 50.196081%, 0%)" stroke-opacity="0.7" stroke-miterlimit="2" d="M 472.960938 355.851562 L 492.960938 355.851562 "/>
<path fill="none" stroke-width="3" stroke-linecap="butt" stroke-linejoin="miter" stroke="rgb(50.196081%, 0%, 50.196081%)" stroke-opacity="0.7" stroke-miterlimit="2" d="M 472.960938 382.148438 L 492.960938 382.148438 "/>
<g fill="rgb(0%, 0%, 0%)" fill-opacity="1">
<use xlink:href="#glyph-12-0-ec75932e" x="497.960004" y="363.140016"/>
</g>
<g fill="rgb(0%, 0%, 0%)" fill-opacity="1">
<use xlink:href="#glyph-0-14-ec75932e" x="497.960011" y="389.44002"/>
</g>
<g fill="rgb(0%, 0%, 0%)" fill-opacity="1">
<use xlink:href="#glyph-0-15-ec75932e" x="509.08001" y="389.44002"/>
</g>
<g fill="rgb(0%, 0%, 0%)" fill-opacity="1">
<use xlink:href="#glyph-0-16-ec75932e" x="514.640012" y="389.44002"/>
</g>
<g fill="rgb(0%, 0%, 0%)" fill-opacity="1">
<use xlink:href="#glyph-0-1-ec75932e" x="520.200011" y="389.44002"/>
</g>
<g fill="rgb(0%, 0%, 0%)" fill-opacity="1">
<use xlink:href="#glyph-0-17-ec75932e" x="525.760011" y="389.44002"/>
</g>
<g fill="rgb(0%, 0%, 0%)" fill-opacity="1">
<use xlink:href="#glyph-0-18-ec75932e" x="535.560011" y="389.44002"/>
</g>
<g fill="rgb(0%, 0%, 0%)" fill-opacity="1">
<use xlink:href="#glyph-0-15-ec75932e" x="546.68001" y="389.44002"/>
</g>
<g fill="rgb(0%, 0%, 0%)" fill-opacity="1">
<use xlink:href="#glyph-0-17-ec75932e" x="552.240011" y="389.44002"/>
</g>
<g fill="rgb(0%, 0%, 0%)" fill-opacity="1">
<use xlink:href="#glyph-0-0-ec75932e" x="562.040015" y="389.44002"/>
</g>
<path fill="none" stroke-width="1" stroke-linecap="butt" stroke-linejoin="miter" stroke="rgb(0%, 0%, 0%)" stroke-opacity="1" stroke-miterlimit="1.154701" d="M 92.5 257 L 584.5 257 "/>
<path fill="none" stroke-width="1" stroke-linecap="butt" stroke-linejoin="miter" stroke="rgb(0%, 0%, 0%)" stroke-opacity="1" stroke-miterlimit="1.154701" d="M 93 257.5 L 93 61.5 "/>
<path fill="none" stroke-width="1" stroke-linecap="butt" stroke-linejoin="miter" stroke="rgb(0%, 0%, 0%)" stroke-opacity="1" stroke-miterlimit="1.154701" d="M 92.5 62 L 584.5 62 "/>
<path fill="none" stroke-width="1" stroke-linecap="butt" stroke-linejoin="miter" stroke="rgb(0%, 0%, 0%)" stroke-opacity="1" stroke-miterlimit="1.154701" d="M 584 257.5 L 584 61.5 "/>
<path fill="none" stroke-width="1" stroke-linecap="butt" stroke-linejoin="miter" stroke="rgb(0%, 0%, 0%)" stroke-opacity="1" stroke-miterlimit="1.154701" d="M 92.5 527 L 584.5 527 "/>
<path fill="none" stroke-width="1" stroke-linecap="butt" stroke-linejoin="miter" stroke="rgb(0%, 0%, 0%)" stroke-opacity="1" stroke-miterlimit="1.154701" d="M 93 527.5 L 93 331.5 "/>
<path fill="none" stroke-width="1" stroke-linecap="butt" stroke-linejoin="miter" stroke="rgb(0%, 0%, 0%)" stroke-opacity="1" stroke-miterlimit="1.154701" d="M 92.5 332 L 584.5 332 "/>
<path fill="none" stroke-width="1" stroke-linecap="butt" stroke-linejoin="miter" stroke="rgb(0%, 0%, 0%)" stroke-opacity="1" stroke-miterlimit="1.154701" d="M 584 527.5 L 584 331.5 "/>
</svg>
