<?xml version="1.0" encoding="UTF-8"?>
<svg xmlns="http://www.w3.org/2000/svg" xmlns:xlink="http://www.w3.org/1999/xlink" width="600" height="520" viewBox="0 0 600 520">
<defs>
<g>
<g id="glyph-0-0-efe23749">
<path d="M 9.453125 0 C 9.453125 0 7.515625 0 7.515625 0 C 7.515625 0 4.90625 -4.015625 4.90625 -4.015625 C 4.90625 -4.015625 2.234375 0 2.234375 0 C 2.234375 0 0.34375 0 0.34375 0 C 0.34375 0 4.046875 -5.34375 4.046875 -5.34375 C 4.046875 -5.34375 0.546875 -10.484375 0.546875 -10.484375 C 0.546875 -10.484375 2.4375 -10.484375 2.4375 -10.484375 C 2.4375 -10.484375 4.953125 -6.6875 4.953125 -6.6875 C 4.953125 -6.6875 7.484375 -10.484375 7.484375 -10.484375 C 7.484375 -10.484375 9.359375 -10.484375 9.359375 -10.484375 C 9.359375 -10.484375 5.84375 -5.421875 5.84375 -5.421875 C 5.84375 -5.421875 9.453125 0 9.453125 0 Z M 9.453125 0 "/>
</g>
<g id="glyph-0-1-efe23749">
</g>
<g id="glyph-0-2-efe23749">
<path d="M 5 4.234375 C 5 4.234375 1.28125 4.234375 1.28125 4.234375 C 1.28125 4.234375 1.28125 -14.578125 1.28125 -14.578125 C 1.28125 -14.578125 5 -14.578125 5 -14.578125 C 5 -14.578125 5 -13.140625 5 -13.140625 C 5 -13.140625 2.9375 -13.140625 2.9375 -13.140625 C 2.9375 -13.140625 2.9375 2.796875 2.9375 2.796875 C 2.9375 2.796875 5 2.796875 5 2.796875 C 5 2.796875 5 4.234375 5 4.234375 Z M 5 4.234375 "/>
</g>
<g id="glyph-0-3-efe23749">
<path d="M 10.046875 0 C 10.046875 0 7.984375 0 7.984375 0 C 7.984375 0 4.4375 -5.6875 4.4375 -5.6875 C 4.4375 -5.6875 2.8125 -4.078125 2.8125 -4.078125 C 2.8125 -4.078125 2.8125 0 2.8125 0 C 2.8125 0 1.15625 0 1.15625 0 C 1.15625 0 1.15625 -14.578125 1.15625 -14.578125 C 1.15625 -14.578125 2.8125 -14.578125 2.8125 -14.578125 C 2.8125 -14.578125 2.8125 -6.046875 2.8125 -6.046875 C 2.8125 -6.046875 7.265625 -10.484375 7.265625 -10.484375 C 7.265625 -10.484375 9.40625 -10.484375 9.40625 -10.484375 C 9.40625 -10.484375 5.765625 -6.859375 5.765625 -6.859375 C 5.765625 -6.859375 10.046875 0 10.046875 0 Z M 10.046875 0 "/>
</g>
<g id="glyph-0-4-efe23749">
<path d="M 15.203125 0 C 15.203125 0 13.546875 0 13.546875 0 C 13.546875 0 13.546875 -7.21875 13.546875 -7.21875 C 13.546875 -8.546875 12.84375 -9.3125 11.625 -9.3125 C 10.265625 -9.3125 9.140625 -8.09375 9.140625 -6.578125 C 9.140625 -6.578125 9.140625 0 9.140625 0 C 9.140625 0 7.484375 0 7.484375 0 C 7.484375 0 7.484375 -7.21875 7.484375 -7.21875 C 7.484375 -8.5625 6.78125 -9.3125 5.546875 -9.3125 C 4.1875 -9.3125 3.078125 -8.09375 3.078125 -6.578125 C 3.078125 -6.578125 3.078125 0 3.078125 0 C 3.078125 0 1.421875 0 1.421875 0 C 1.421875 0 1.421875 -10.484375 1.421875 -10.484375 C 1.421875 -10.484375 2.9375 -10.484375 2.9375 -10.484375 C 2.9375 -10.484375 2.9375 -9 2.9375 -9 C 3.84375 -10.265625 4.765625 -10.78125 6.15625 -10.78125 C 7.515625 -10.78125 8.359375 -10.296875 8.984375 -9.1875 C 9.953125 -10.359375 10.796875 -10.78125 12.203125 -10.78125 C 14.15625 -10.78125 15.203125 -9.734375 15.203125 -7.859375 C 15.203125 -7.859375 15.203125 0 15.203125 0 Z M 15.203125 0 "/>
</g>
<g id="glyph-0-5-efe23749">
<path d="M 4.1875 4.234375 C 4.1875 4.234375 0.453125 4.234375 0.453125 4.234375 C 0.453125 4.234375 0.453125 2.796875 0.453125 2.796875 C 0.453125 2.796875 2.515625 2.796875 2.515625 2.796875 C 2.515625 2.796875 2.515625 -13.140625 2.515625 -13.140625 C 2.515625 -13.140625 0.453125 -13.140625 0.453125 -13.140625 C 0.453125 -13.140625 0.453125 -14.578125 0.453125 -14.578125 C 0.453125 -14.578125 4.1875 -14.578125 4.1875 -14.578125 C 4.1875 -14.578125 4.1875 4.234375 4.1875 4.234375 Z M 4.1875 4.234375 "/>
</g>
<g id="glyph-0-6-efe23749">
<path d="M 10.3125 -4.3125 C 10.3125 -4.3125 1.359375 -4.3125 1.359375 -4.3125 C 1.359375 -4.3125 1.359375 -5.6875 1.359375 -5.6875 C 1.359375 -5.6875 10.3125 -5.6875 10.3125 -5.6875 C 10.3125 -5.6875 10.3125 -4.3125 10.3125 -4.3125 Z M 10.3125 -4.3125 "/>
</g>
<g id="glyph-0-7-efe23749">
<path d="M 10.21875 -10.015625 C 10.21875 -8.28125 9.203125 -6.796875 7.21875 -5.734375 C 7.21875 -5.734375 5.21875 -4.65625 5.21875 -4.65625 C 3.484375 -3.640625 2.84375 -2.90625 2.65625 -1.734375 C 2.65625 -1.734375 10.125 -1.734375 10.125 -1.734375 C 10.125 -1.734375 10.125 0 10.125 0 C 10.125 0 0.6875 0 0.6875 0 C 0.84375 -3.125 1.703125 -4.453125 4.65625 -6.140625 C 4.65625 -6.140625 6.5 -7.1875 6.5 -7.1875 C 7.765625 -7.90625 8.421875 -8.859375 8.421875 -9.984375 C 8.421875 -11.5 7.21875 -12.640625 5.625 -12.640625 C 3.875 -12.640625 2.90625 -11.640625 2.765625 -9.265625 C 2.765625 -9.265625 1 -9.265625 1 -9.265625 C 1.09375 -12.703125 2.78125 -14.1875 5.6875 -14.1875 C 8.359375 -14.1875 10.21875 -12.421875 10.21875 -10.015625 Z M 10.21875 -10.015625 "/>
</g>
<g id="glyph-0-8-efe23749">
<path d="M 10.265625 -4.703125 C 10.265625 -1.703125 8.265625 0.296875 5.40625 0.296875 C 2.875 0.296875 1.28125 -0.8125 0.703125 -3.640625 C 0.703125 -3.640625 2.453125 -3.640625 2.453125 -3.640625 C 2.875 -2.046875 3.8125 -1.265625 5.359375 -1.265625 C 7.28125 -1.265625 8.453125 -2.421875 8.453125 -4.453125 C 8.453125 -6.5625 7.265625 -7.78125 5.359375 -7.78125 C 4.265625 -7.78125 3.578125 -7.4375 2.765625 -6.453125 C 2.765625 -6.453125 1.140625 -6.453125 1.140625 -6.453125 C 1.140625 -6.453125 2.203125 -13.875 2.203125 -13.875 C 2.203125 -13.875 9.515625 -13.875 9.515625 -13.875 C 9.515625 -13.875 9.515625 -12.140625 9.515625 -12.140625 C 9.515625 -12.140625 3.625 -12.140625 3.625 -12.140625 C 3.625 -12.140625 3.0625 -8.484375 3.0625 -8.484375 C 3.875 -9.078125 4.6875 -9.34375 5.6875 -9.34375 C 8.40625 -9.34375 10.265625 -7.5 10.265625 -4.703125 Z M 10.265625 -4.703125 "/>
</g>
<g id="glyph-0-9-efe23749">
<path d="M 10.140625 -6.8125 C 10.140625 -2.15625 8.5 0.296875 5.5 0.296875 C 2.453125 0.296875 0.859375 -2.15625 0.859375 -6.9375 C 0.859375 -11.703125 2.4375 -14.1875 5.5 -14.1875 C 8.578125 -14.1875 10.140625 -11.734375 10.140625 -6.8125 Z M 8.34375 -6.984375 C 8.34375 -10.78125 7.40625 -12.625 5.5 -12.625 C 3.59375 -12.625 2.65625 -10.796875 2.65625 -6.921875 C 2.65625 -3.046875 3.59375 -1.15625 5.453125 -1.15625 C 7.421875 -1.15625 8.34375 -2.953125 8.34375 -6.984375 Z M 8.34375 -6.984375 "/>
</g>
<g id="glyph-0-10-efe23749">
<path d="M 3.8125 0 C 3.8125 0 1.734375 0 1.734375 0 C 1.734375 0 1.734375 -2.078125 1.734375 -2.078125 C 1.734375 -2.078125 3.8125 -2.078125 3.8125 -2.078125 C 3.8125 -2.078125 3.8125 0 3.8125 0 Z M 3.8125 0 "/>
</g>
<g id="glyph-1-0-efe23749">
<path d="M 4 -9.734375 C 4 -9.734375 4 -8.078125 4 -8.078125 C 4 -8.078125 -7.265625 -8.078125 -7.265625 -8.078125 C -8.515625 -8.078125 -9.3125 -7.234375 -9.3125 -5.921875 C -9.3125 -4.21875 -7.921875 -3.0625 -5.78125 -3.0625 C -5.78125 -3.0625 0 -3.0625 0 -3.0625 C 0 -3.0625 0 -1.40625 0 -1.40625 C 0 -1.40625 -10.484375 -1.40625 -10.484375 -1.40625 C -10.484375 -1.40625 -10.484375 -2.9375 -10.484375 -2.9375 C -10.484375 -2.9375 -8.71875 -2.9375 -8.71875 -2.9375 C -10.1875 -3.859375 -10.78125 -4.859375 -10.78125 -6.421875 C -10.78125 -8.4375 -9.65625 -9.734375 -7.921875 -9.734375 C -7.921875 -9.734375 4 -9.734375 4 -9.734375 Z M 4 -9.734375 "/>
</g>
<g id="glyph-2-0-efe23749">
</g>
<g id="glyph-2-1-efe23749">
<path d="M 4.234375 -5 C 4.234375 -5 4.234375 -1.28125 4.234375 -1.28125 C 4.234375 -1.28125 -14.578125 -1.28125 -14.578125 -1.28125 C -14.578125 -1.28125 -14.578125 -5 -14.578125 -5 C -14.578125 -5 -13.140625 -5 -13.140625 -5 C -13.140625 -5 -13.140625 -2.9375 -13.140625 -2.9375 C -13.140625 -2.9375 2.796875 -2.9375 2.796875 -2.9375 C 2.796875 -2.9375 2.796875 -5 2.796875 -5 C 2.796875 -5 4.234375 -5 4.234375 -5 Z M 4.234375 -5 "/>
</g>
<g id="glyph-2-2-efe23749">
<path d="M -0.046875 -10.703125 C 0.09375 -10.15625 0.140625 -9.90625 0.140625 -9.5625 C 0.140625 -8.734375 -0.4375 -8.015625 -1.234375 -7.84375 C -0.265625 -6.921875 0.296875 -5.625 0.296875 -4.28125 C 0.296875 -2.15625 -0.8125 -0.84375 -2.71875 -0.84375 C -4 -0.84375 -4.9375 -1.453125 -5.4375 -2.6875 C -5.703125 -3.3125 -5.78125 -3.6875 -6.078125 -6.046875 C -6.234375 -7.359375 -6.546875 -7.78125 -7.234375 -7.78125 C -7.234375 -7.78125 -7.6875 -7.78125 -7.6875 -7.78125 C -8.6875 -7.78125 -9.234375 -6.9375 -9.234375 -5.4375 C -9.234375 -3.875 -8.65625 -3.125 -7.375 -2.984375 C -7.375 -2.984375 -7.375 -1.296875 -7.375 -1.296875 C -9.796875 -1.40625 -10.78125 -2.953125 -10.78125 -5.5 C -10.78125 -8.078125 -9.78125 -9.4375 -7.921875 -9.4375 C -7.921875 -9.4375 -2.078125 -9.4375 -2.078125 -9.4375 C -1.5625 -9.4375 -1.265625 -9.765625 -1.265625 -10.34375 C -1.265625 -10.4375 -1.265625 -10.515625 -1.296875 -10.703125 C -1.296875 -10.703125 -0.046875 -10.703125 -0.046875 -10.703125 Z M -3.625 -7.78125 C -3.625 -7.78125 -5.1875 -7.78125 -5.1875 -7.78125 C -4.921875 -7.21875 -4.84375 -6.859375 -4.59375 -5.09375 C -4.34375 -3.3125 -3.859375 -2.578125 -2.765625 -2.578125 C -1.625 -2.578125 -1.15625 -3.34375 -1.15625 -4.640625 C -1.15625 -6.265625 -2.125 -7.78125 -3.625 -7.78125 Z M -3.625 -7.78125 "/>
</g>
<g id="glyph-2-3-efe23749">
<path d="M -2.9375 -9.1875 C -0.921875 -9.1875 0.296875 -7.5 0.296875 -4.859375 C 0.296875 -2.125 -0.78125 -0.765625 -3.203125 -0.6875 C -3.203125 -0.6875 -3.203125 -2.4375 -3.203125 -2.4375 C -1.59375 -2.65625 -1.234375 -3.5 -1.234375 -5 C -1.234375 -6.453125 -1.8125 -7.4375 -2.796875 -7.4375 C -3.5625 -7.4375 -3.90625 -6.984375 -4.1875 -5.8125 C -4.1875 -5.8125 -4.5625 -4.265625 -4.5625 -4.265625 C -5.15625 -1.78125 -5.9375 -0.9375 -7.578125 -0.9375 C -9.515625 -0.9375 -10.78125 -2.515625 -10.78125 -4.953125 C -10.78125 -7.375 -9.625 -8.734375 -7.5625 -8.765625 C -7.5625 -8.765625 -7.5625 -7 -7.5625 -7 C -8.65625 -6.953125 -9.234375 -6.234375 -9.234375 -4.90625 C -9.234375 -3.546875 -8.625 -2.6875 -7.65625 -2.6875 C -6.921875 -2.6875 -6.484375 -3.265625 -6.15625 -4.625 C -6.15625 -4.625 -5.78125 -6.21875 -5.78125 -6.21875 C -5.28125 -8.296875 -4.5 -9.1875 -2.9375 -9.1875 Z M -2.9375 -9.1875 "/>
</g>
<g id="glyph-3-0-efe23749">
<path d="M 0 -15.203125 C 0 -15.203125 0 -13.546875 0 -13.546875 C 0 -13.546875 -7.21875 -13.546875 -7.21875 -13.546875 C -8.546875 -13.546875 -9.3125 -12.84375 -9.3125 -11.625 C -9.3125 -10.265625 -8.09375 -9.140625 -6.578125 -9.140625 C -6.578125 -9.140625 0 -9.140625 0 -9.140625 C 0 -9.140625 0 -7.484375 0 -7.484375 C 0 -7.484375 -7.21875 -7.484375 -7.21875 -7.484375 C -8.5625 -7.484375 -9.3125 -6.78125 -9.3125 -5.546875 C -9.3125 -4.1875 -8.09375 -3.078125 -6.578125 -3.078125 C -6.578125 -3.078125 0 -3.078125 0 -3.078125 C 0 -3.078125 0 -1.421875 0 -1.421875 C 0 -1.421875 -10.484375 -1.421875 -10.484375 -1.421875 C -10.484375 -1.421875 -10.484375 -2.9375 -10.484375 -2.9375 C -10.484375 -2.9375 -9 -2.9375 -9 -2.9375 C -10.265625 -3.84375 -10.78125 -4.765625 -10.78125 -6.15625 C -10.78125 -7.515625 -10.296875 -8.359375 -9.1875 -8.984375 C -10.359375 -9.953125 -10.78125 -10.796875 -10.78125 -12.203125 C -10.78125 -14.15625 -9.734375 -15.203125 -7.859375 -15.203125 C -7.859375 -15.203125 0 -15.203125 0 -15.203125 Z M 0 -15.203125 "/>
</g>
<g id="glyph-3-1-efe23749">
<path d="M 4.234375 -4.1875 C 4.234375 -4.1875 4.234375 -0.453125 4.234375 -0.453125 C 4.234375 -0.453125 2.796875 -0.453125 2.796875 -0.453125 C 2.796875 -0.453125 2.796875 -2.515625 2.796875 -2.515625 C 2.796875 -2.515625 -13.140625 -2.515625 -13.140625 -2.515625 C -13.140625 -2.515625 -13.140625 -0.453125 -13.140625 -0.453125 C -13.140625 -0.453125 -14.578125 -0.453125 -14.578125 -0.453125 C -14.578125 -0.453125 -14.578125 -4.1875 -14.578125 -4.1875 C -14.578125 -4.1875 4.234375 -4.1875 4.234375 -4.1875 Z M 4.234375 -4.1875 "/>
</g>
<g id="glyph-4-0-efe23749">
<path d="M 10.140625 -6.8125 C 10.140625 -2.15625 8.5 0.296875 5.5 0.296875 C 2.453125 0.296875 0.859375 -2.15625 0.859375 -6.9375 C 0.859375 -11.703125 2.4375 -14.1875 5.5 -14.1875 C 8.578125 -14.1875 10.140625 -11.734375 10.140625 -6.8125 Z M 8.34375 -6.984375 C 8.34375 -10.78125 7.40625 -12.625 5.5 -12.625 C 3.59375 -12.625 2.65625 -10.796875 2.65625 -6.921875 C 2.65625 -3.046875 3.59375 -1.15625 5.453125 -1.15625 C 7.421875 -1.15625 8.34375 -2.953125 8.34375 -6.984375 Z M 8.34375 -6.984375 "/>
</g>
<g id="glyph-4-1-efe23749">
<path d="M 6.9375 0 C 6.9375 0 5.1875 0 5.1875 0 C 5.1875 0 5.1875 -10.09375 5.1875 -10.09375 C 5.1875 -10.09375 2.046875 -10.09375 2.046875 -10.09375 C 2.046875 -10.09375 2.046875 -11.359375 2.046875 -11.359375 C 4.765625 -11.703125 5.15625 -12 5.78125 -14.1875 C 5.78125 -14.1875 6.9375 -14.1875 6.9375 -14.1875 C 6.9375 -14.1875 6.9375 0 6.9375 0 Z M 6.9375 0 "/>
</g>
<g id="glyph-5-0-efe23749">
<path d="M 10.40625 -3.203125 C 10.40625 -1.015625 8.71875 0.1875 5.6875 0.1875 C 2.40625 0.1875 0.65625 -1.0625 0.578125 -3.421875 C 0.578125 -3.421875 3.3125 -3.421875 3.3125 -3.421875 C 3.5625 -2.265625 4.234375 -2.015625 5.515625 -2.015625 C 6.8125 -2.015625 7.59375 -2.28125 7.59375 -2.9375 C 7.59375 -3.234375 7.359375 -3.453125 6.65625 -3.6875 C 6.65625 -3.6875 3.3125 -4.71875 3.3125 -4.71875 C 1.3125 -5.34375 0.953125 -6.0625 0.953125 -7.375 C 0.953125 -9.59375 2.65625 -10.984375 5.40625 -10.984375 C 8.296875 -10.984375 10.0625 -9.59375 10.09375 -7.3125 C 10.09375 -7.3125 7.40625 -7.3125 7.40625 -7.3125 C 7.375 -8.296875 6.71875 -8.78125 5.375 -8.78125 C 4.40625 -8.78125 3.765625 -8.375 3.765625 -7.78125 C 3.765625 -7.34375 3.953125 -7.15625 4.734375 -6.9375 C 4.734375 -6.9375 8.28125 -5.921875 8.28125 -5.921875 C 9.703125 -5.5 10.40625 -4.578125 10.40625 -3.34375 C 10.40625 -3.34375 10.40625 -3.203125 10.40625 -3.203125 Z M 10.40625 -3.203125 "/>
</g>
<g id="glyph-5-1-efe23749">
<path d="M 16.484375 0 C 16.484375 0 13.6875 0 13.6875 0 C 13.6875 0 13.6875 -7.203125 13.6875 -7.203125 C 13.6875 -8.0625 13.09375 -8.59375 12.15625 -8.59375 C 10.953125 -8.59375 10.234375 -7.796875 10.234375 -6.484375 C 10.234375 -6.484375 10.234375 0 10.234375 0 C 10.234375 0 7.4375 0 7.4375 0 C 7.4375 0 7.4375 -7.203125 7.4375 -7.203125 C 7.4375 -8.0625 6.859375 -8.59375 5.921875 -8.59375 C 4.71875 -8.59375 4 -7.796875 4 -6.484375 C 4 -6.484375 4 0 4 0 C 4 0 1.203125 0 1.203125 0 C 1.203125 0 1.203125 -10.796875 1.203125 -10.796875 C 1.203125 -10.796875 3.984375 -10.796875 3.984375 -10.796875 C 3.984375 -10.796875 3.984375 -9.453125 3.984375 -9.453125 C 4.90625 -10.5625 5.703125 -10.984375 6.9375 -10.984375 C 8.28125 -10.984375 9.359375 -10.40625 9.875 -9.375 C 10.71875 -10.5 11.6875 -10.984375 13.046875 -10.984375 C 15.203125 -10.984375 16.484375 -9.734375 16.484375 -7.640625 C 16.484375 -7.640625 16.484375 0 16.484375 0 Z M 16.484375 0 "/>
</g>
<g id="glyph-5-2-efe23749">
<path d="M 10.484375 0 C 10.484375 0 7.4375 0 7.4375 0 C 7.1875 -0.3125 7.125 -0.796875 7.125 -1.359375 C 6.140625 -0.34375 5.046875 0.1875 3.84375 0.1875 C 2.046875 0.1875 0.5625 -0.8125 0.5625 -2.921875 C 0.5625 -4.875 1.59375 -5.796875 3.734375 -6.1875 C 3.734375 -6.1875 4.859375 -6.375 4.859375 -6.375 C 6.265625 -6.625 7.09375 -6.5 7.09375 -7.640625 C 7.09375 -8.359375 6.5625 -8.71875 5.484375 -8.71875 C 4.09375 -8.71875 3.640625 -8.359375 3.5 -7.234375 C 3.5 -7.234375 0.796875 -7.234375 0.796875 -7.234375 C 0.984375 -9.734375 2.5 -10.984375 5.421875 -10.984375 C 8.34375 -10.984375 9.84375 -9.859375 9.84375 -7.65625 C 9.84375 -7.65625 9.84375 -1.65625 9.84375 -1.65625 C 9.84375 -1.09375 9.984375 -0.796875 10.484375 -0.34375 C 10.484375 -0.34375 10.484375 0 10.484375 0 Z M 7.09375 -4.625 C 7.09375 -4.625 7.09375 -5.09375 7.09375 -5.09375 C 6.78125 -4.9375 6.65625 -4.90625 5.921875 -4.765625 C 5.921875 -4.765625 4.953125 -4.578125 4.953125 -4.578125 C 3.796875 -4.359375 3.359375 -4.0625 3.359375 -3.234375 C 3.359375 -2.4375 3.9375 -2.078125 4.875 -2.078125 C 6.296875 -2.078125 7.09375 -3 7.09375 -4.625 Z M 7.09375 -4.625 "/>
</g>
<g id="glyph-5-3-efe23749">
<path d="M 4.140625 0 C 4.140625 0 1.34375 0 1.34375 0 C 1.34375 0 1.34375 -14.578125 1.34375 -14.578125 C 1.34375 -14.578125 4.140625 -14.578125 4.140625 -14.578125 C 4.140625 -14.578125 4.140625 0 4.140625 0 Z M 4.140625 0 "/>
</g>
<g id="glyph-5-4-efe23749">
<path d="M 5.953125 -4.140625 C 5.953125 -4.140625 0.515625 -4.140625 0.515625 -4.140625 C 0.515625 -4.140625 0.515625 -6.84375 0.515625 -6.84375 C 0.515625 -6.84375 5.953125 -6.84375 5.953125 -6.84375 C 5.953125 -6.84375 5.953125 -4.140625 5.953125 -4.140625 Z M 5.953125 -4.140625 "/>
</g>
<g id="glyph-5-5-efe23749">
<path d="M 10.4375 -3.734375 C 10.1875 -1.4375 8.359375 0.1875 5.734375 0.1875 C 2.546875 0.1875 0.6875 -1.765625 0.6875 -5.3125 C 0.6875 -9 2.5625 -10.984375 5.78125 -10.984375 C 8.484375 -10.984375 10.234375 -9.40625 10.4375 -6.765625 C 10.4375 -6.765625 7.765625 -6.765625 7.765625 -6.765625 C 7.4375 -8.1875 6.90625 -8.71875 5.765625 -8.71875 C 4 -8.71875 3.484375 -7.296875 3.484375 -5.3125 C 3.484375 -3.21875 4.34375 -2.078125 5.765625 -2.078125 C 6.84375 -2.078125 7.40625 -2.625 7.765625 -3.734375 C 7.765625 -3.734375 10.4375 -3.734375 10.4375 -3.734375 Z M 10.4375 -3.734375 "/>
</g>
<g id="glyph-5-6-efe23749">
<path d="M 10.5 -5 C 10.5 -5 10.484375 -4.65625 10.484375 -4.65625 C 10.484375 -4.65625 3.234375 -4.65625 3.234375 -4.65625 C 3.3125 -2.5625 4.15625 -1.953125 5.484375 -1.953125 C 6.5 -1.953125 7.375 -2.265625 7.625 -3.046875 C 7.625 -3.046875 10.375 -3.046875 10.375 -3.046875 C 9.765625 -0.921875 7.796875 0.1875 5.375 0.1875 C 2.3125 0.1875 0.4375 -1.796875 0.4375 -5.265625 C 0.4375 -8.875 2.34375 -10.984375 5.4375 -10.984375 C 8.625 -10.984375 10.5 -8.71875 10.5 -5 Z M 7.578125 -6.515625 C 7.4375 -8.0625 6.59375 -8.84375 5.40625 -8.84375 C 4.15625 -8.84375 3.453125 -8.015625 3.28125 -6.515625 C 3.28125 -6.515625 7.578125 -6.515625 7.578125 -6.515625 Z M 7.578125 -6.515625 "/>
</g>
<g id="glyph-5-7-efe23749">
</g>
<g id="glyph-5-8-efe23749">
<path d="M 10.921875 0 C 10.921875 0 8.125 0 8.125 0 C 8.125 0 8.125 -6.65625 8.125 -6.65625 C 8.125 -7.9375 7.515625 -8.59375 6.3125 -8.59375 C 4.953125 -8.59375 4.0625 -7.765625 4.0625 -6.484375 C 4.0625 -6.484375 4.0625 0 4.0625 0 C 4.0625 0 1.265625 0 1.265625 0 C 1.265625 0 1.265625 -10.796875 1.265625 -10.796875 C 1.265625 -10.796875 4.0625 -10.796875 4.0625 -10.796875 C 4.0625 -10.796875 4.0625 -9.234375 4.0625 -9.234375 C 4.859375 -10.4375 5.84375 -10.984375 7.296875 -10.984375 C 9.59375 -10.984375 10.921875 -9.625 10.921875 -7.234375 C 10.921875 -7.234375 10.921875 0 10.921875 0 Z M 10.921875 0 "/>
</g>
<g id="glyph-5-9-efe23749">
<path d="M 11.375 -5.3125 C 11.375 -1.859375 9.3125 0.1875 6.046875 0.1875 C 2.71875 0.1875 0.703125 -1.84375 0.703125 -5.40625 C 0.703125 -8.9375 2.71875 -10.984375 6.015625 -10.984375 C 9.40625 -10.984375 11.375 -8.984375 11.375 -5.3125 Z M 8.578125 -5.359375 C 8.578125 -7.484375 7.578125 -8.71875 6.046875 -8.71875 C 4.515625 -8.71875 3.5 -7.453125 3.5 -5.40625 C 3.5 -3.34375 4.515625 -2.078125 6.046875 -2.078125 C 7.546875 -2.078125 8.578125 -3.34375 8.578125 -5.359375 Z M 8.578125 -5.359375 "/>
</g>
<g id="glyph-5-10-efe23749">
<path d="M 4.140625 0 C 4.140625 0 1.34375 0 1.34375 0 C 1.34375 0 1.34375 -10.796875 1.34375 -10.796875 C 1.34375 -10.796875 4.140625 -10.796875 4.140625 -10.796875 C 4.140625 -10.796875 4.140625 0 4.140625 0 Z M 4.1875 -12.09375 C 4.1875 -12.09375 1.375 -12.09375 1.375 -12.09375 C 1.375 -12.09375 1.375 -14.90625 1.375 -14.90625 C 1.375 -14.90625 4.1875 -14.90625 4.1875 -14.90625 C 4.1875 -14.90625 4.1875 -12.09375 4.1875 -12.09375 Z M 4.1875 -12.09375 "/>
</g>
<g id="glyph-6-0-efe23749">
<path d="M 0 -15.203125 C 0 -15.203125 0 -13.546875 0 -13.546875 C 0 -13.546875 -7.21875 -13.546875 -7.21875 -13.546875 C -8.546875 -13.546875 -9.3125 -12.84375 -9.3125 -11.625 C -9.3125 -10.265625 -8.09375 -9.140625 -6.578125 -9.140625 C -6.578125 -9.140625 0 -9.140625 0 -9.140625 C 0 -9.140625 0 -7.484375 0 -7.484375 C 0 -7.484375 -7.21875 -7.484375 -7.21875 -7.484375 C -8.5625 -7.484375 -9.3125 -6.78125 -9.3125 -5.546875 C -9.3125 -4.1875 -8.09375 -3.078125 -6.578125 -3.078125 C -6.578125 -3.078125 0 -3.078125 0 -3.078125 C 0 -3.078125 0 -1.421875 0 -1.421875 C 0 -1.421875 -10.484375 -1.421875 -10.484375 -1.421875 C -10.484375 -1.421875 -10.484375 -2.9375 -10.484375 -2.9375 C -10.484375 -2.9375 -9 -2.9375 -9 -2.9375 C -10.265625 -3.84375 -10.78125 -4.765625 -10.78125 -6.15625 C -10.78125 -7.515625 -10.296875 -8.359375 -9.1875 -8.984375 C -10.359375 -9.953125 -10.78125 -10.796875 -10.78125 -12.203125 C -10.78125 -14.15625 -9.734375 -15.203125 -7.859375 -15.203125 C -7.859375 -15.203125 0 -15.203125 0 -15.203125 Z M 0 -15.203125 "/>
</g>
<g id="glyph-7-0-efe23749">
<path d="M 0 -10.046875 C 0 -10.046875 0 -7.984375 0 -7.984375 C 0 -7.984375 -5.6875 -4.4375 -5.6875 -4.4375 C -5.6875 -4.4375 -4.078125 -2.8125 -4.078125 -2.8125 C -4.078125 -2.8125 0 -2.8125 0 -2.8125 C 0 -2.8125 0 -1.15625 0 -1.15625 C 0 -1.15625 -14.578125 -1.15625 -14.578125 -1.15625 C -14.578125 -1.15625 -14.578125 -2.8125 -14.578125 -2.8125 C -14.578125 -2.8125 -6.046875 -2.8125 -6.046875 -2.8125 C -6.046875 -2.8125 -10.484375 -7.265625 -10.484375 -7.265625 C -10.484375 -7.265625 -10.484375 -9.40625 -10.484375 -9.40625 C -10.484375 -9.40625 -6.859375 -5.765625 -6.859375 -5.765625 C -6.859375 -5.765625 0 -10.046875 0 -10.046875 Z M 0 -10.046875 "/>
</g>
</g>
<clipPath id="clip-0-efe23749">
<path clip-rule="nonzero" d="M 93 43 L 584 43 L 584 208 L 93 208 Z M 93 43 "/>
</clipPath>
<clipPath id="clip-1-efe23749">
<path clip-rule="nonzero" d="M 93 284 L 584 284 L 584 446 L 93 446 Z M 93 284 "/>
</clipPath>
</defs>
<rect x="-60" y="-52" width="720" height="624" fill="rgb(100%, 100%, 100%)" fill-opacity="1"/>
<path fill-rule="nonzero" fill="rgb(100%, 100%, 100%)" fill-opacity="1" d="M 93 208 L 584 208 L 584 43 L 93 43 Z M 93 208 "/>
<path fill-rule="nonzero" fill="rgb(100%, 100%, 100%)" fill-opacity="1" d="M 93 447 L 584 447 L 584 283 L 93 283 Z M 93 447 "/>
<path fill="none" stroke-width="1" stroke-linecap="butt" stroke-linejoin="miter" stroke="rgb(0%, 0%, 0%)" stroke-opacity="0.12" stroke-miterlimit="1.154701" d="M 93 208 L 93 43 "/>
<path fill="none" stroke-width="1" stroke-linecap="butt" stroke-linejoin="miter" stroke="rgb(0%, 0%, 0%)" stroke-opacity="0.12" stroke-miterlimit="1.154701" d="M 338.5 208 L 338.5 43 "/>
<path fill="none" stroke-width="1" stroke-linecap="butt" stroke-linejoin="miter" stroke="rgb(0%, 0%, 0%)" stroke-opacity="0.12" stroke-miterlimit="1.154701" d="M 584 208 L 584 43 "/>
<path fill="none" stroke-width="1" stroke-linecap="butt" stroke-linejoin="miter" stroke="rgb(0%, 0%, 0%)" stroke-opacity="0.12" stroke-miterlimit="1.154701" d="M 93 196.261719 L 584 196.261719 "/>
<path fill="none" stroke-width="1" stroke-linecap="butt" stroke-linejoin="miter" stroke="rgb(0%, 0%, 0%)" stroke-opacity="0.12" stroke-miterlimit="1.154701" d="M 93 139.808594 L 584 139.808594 "/>
<path fill="none" stroke-width="1" stroke-linecap="butt" stroke-linejoin="miter" stroke="rgb(0%, 0%, 0%)" stroke-opacity="0.12" stroke-miterlimit="1.154701" d="M 93 83.351562 L 584 83.351562 "/>
<path fill="none" stroke-width="1" stroke-linecap="butt" stroke-linejoin="miter" stroke="rgb(0%, 0%, 0%)" stroke-opacity="0.12" stroke-miterlimit="1.154701" d="M 93 447 L 93 283 "/>
<path fill="none" stroke-width="1" stroke-linecap="butt" stroke-linejoin="miter" stroke="rgb(0%, 0%, 0%)" stroke-opacity="0.12" stroke-miterlimit="1.154701" d="M 338.5 447 L 338.5 283 "/>
<path fill="none" stroke-width="1" stroke-linecap="butt" stroke-linejoin="miter" stroke="rgb(0%, 0%, 0%)" stroke-opacity="0.12" stroke-miterlimit="1.154701" d="M 584 447 L 584 283 "/>
<path fill="none" stroke-width="1" stroke-linecap="butt" stroke-linejoin="miter" stroke="rgb(0%, 0%, 0%)" stroke-opacity="0.12" stroke-miterlimit="1.154701" d="M 93 439.546875 L 584 439.546875 "/>
<path fill="none" stroke-width="1" stroke-linecap="butt" stroke-linejoin="miter" stroke="rgb(0%, 0%, 0%)" stroke-opacity="0.12" stroke-miterlimit="1.154701" d="M 93 365 L 584 365 "/>
<path fill="none" stroke-width="1" stroke-linecap="butt" stroke-linejoin="miter" stroke="rgb(0%, 0%, 0%)" stroke-opacity="0.12" stroke-miterlimit="1.154701" d="M 93 290.453125 L 584 290.453125 "/>
<g fill="rgb(0%, 0%, 0%)" fill-opacity="1">
<use xlink:href="#glyph-0-0-efe23749" x="311.830007" y="261.239988"/>
</g>
<g fill="rgb(0%, 0%, 0%)" fill-opacity="1">
<use xlink:href="#glyph-0-1-efe23749" x="321.830008" y="261.239988"/>
</g>
<g fill="rgb(0%, 0%, 0%)" fill-opacity="1">
<use xlink:href="#glyph-0-2-efe23749" x="327.390007" y="261.239988"/>
</g>
<g fill="rgb(0%, 0%, 0%)" fill-opacity="1">
<use xlink:href="#glyph-0-3-efe23749" x="332.950007" y="261.239988"/>
</g>
<g fill="rgb(0%, 0%, 0%)" fill-opacity="1">
<use xlink:href="#glyph-0-4-efe23749" x="342.950007" y="261.239988"/>
</g>
<g fill="rgb(0%, 0%, 0%)" fill-opacity="1">
<use xlink:href="#glyph-0-5-efe23749" x="359.610007" y="261.239988"/>
</g>
<g fill="rgb(0%, 0%, 0%)" fill-opacity="1">
<use xlink:href="#glyph-0-6-efe23749" x="70.480003" y="234.94"/>
</g>
<g fill="rgb(0%, 0%, 0%)" fill-opacity="1">
<use xlink:href="#glyph-0-7-efe23749" x="82.160004" y="234.94"/>
</g>
<g fill="rgb(0%, 0%, 0%)" fill-opacity="1">
<use xlink:href="#glyph-0-8-efe23749" x="93.280003" y="234.94"/>
</g>
<g fill="rgb(0%, 0%, 0%)" fill-opacity="1">
<use xlink:href="#glyph-0-9-efe23749" x="104.400002" y="234.94"/>
</g>
<g fill="rgb(0%, 0%, 0%)" fill-opacity="1">
<use xlink:href="#glyph-0-9-efe23749" x="332.940008" y="234.94"/>
</g>
<g fill="rgb(0%, 0%, 0%)" fill-opacity="1">
<use xlink:href="#glyph-0-7-efe23749" x="567.320013" y="234.94"/>
</g>
<g fill="rgb(0%, 0%, 0%)" fill-opacity="1">
<use xlink:href="#glyph-0-8-efe23749" x="578.440014" y="234.94"/>
</g>
<g fill="rgb(0%, 0%, 0%)" fill-opacity="1">
<use xlink:href="#glyph-0-9-efe23749" x="589.560014" y="234.94"/>
</g>
<g fill="rgb(0%, 0%, 0%)" fill-opacity="1">
<use xlink:href="#glyph-1-0-efe23749" x="34.160001" y="147.729999"/>
</g>
<g fill="rgb(0%, 0%, 0%)" fill-opacity="1">
<use xlink:href="#glyph-2-0-efe23749" x="34.160002" y="136.61"/>
</g>
<g fill="rgb(0%, 0%, 0%)" fill-opacity="1">
<use xlink:href="#glyph-2-1-efe23749" x="34.160002" y="131.05"/>
</g>
<g fill="rgb(0%, 0%, 0%)" fill-opacity="1">
<use xlink:href="#glyph-3-0-efe23749" x="34.160002" y="125.490001"/>
</g>
<g fill="rgb(0%, 0%, 0%)" fill-opacity="1">
<use xlink:href="#glyph-3-1-efe23749" x="34.160003" y="108.830001"/>
</g>
<g fill="rgb(0%, 0%, 0%)" fill-opacity="1">
<use xlink:href="#glyph-0-6-efe23749" x="43.520002" y="203.553031"/>
</g>
<g fill="rgb(0%, 0%, 0%)" fill-opacity="1">
<use xlink:href="#glyph-4-0-efe23749" x="55.200002" y="203.553031"/>
</g>
<g fill="rgb(0%, 0%, 0%)" fill-opacity="1">
<use xlink:href="#glyph-0-10-efe23749" x="66.320001" y="203.553031"/>
</g>
<g fill="rgb(0%, 0%, 0%)" fill-opacity="1">
<use xlink:href="#glyph-0-7-efe23749" x="71.880001" y="203.553031"/>
</g>
<g fill="rgb(0%, 0%, 0%)" fill-opacity="1">
<use xlink:href="#glyph-4-0-efe23749" x="55.200002" y="147.097129"/>
</g>
<g fill="rgb(0%, 0%, 0%)" fill-opacity="1">
<use xlink:href="#glyph-0-10-efe23749" x="66.320001" y="147.097129"/>
</g>
<g fill="rgb(0%, 0%, 0%)" fill-opacity="1">
<use xlink:href="#glyph-0-9-efe23749" x="71.880003" y="147.097129"/>
</g>
<g fill="rgb(0%, 0%, 0%)" fill-opacity="1">
<use xlink:href="#glyph-4-0-efe23749" x="55.200002" y="90.641227"/>
</g>
<g fill="rgb(0%, 0%, 0%)" fill-opacity="1">
<use xlink:href="#glyph-0-10-efe23749" x="66.320001" y="90.641227"/>
</g>
<g fill="rgb(0%, 0%, 0%)" fill-opacity="1">
<use xlink:href="#glyph-0-7-efe23749" x="71.880003" y="90.641227"/>
</g>
<g fill="rgb(0%, 0%, 0%)" fill-opacity="1">
<use xlink:href="#glyph-5-0-efe23749" x="255.680006" y="34.64"/>
</g>
<g fill="rgb(0%, 0%, 0%)" fill-opacity="1">
<use xlink:href="#glyph-5-1-efe23749" x="266.80001" y="34.64"/>
</g>
<g fill="rgb(0%, 0%, 0%)" fill-opacity="1">
<use xlink:href="#glyph-5-2-efe23749" x="284.580009" y="34.64"/>
</g>
<g fill="rgb(0%, 0%, 0%)" fill-opacity="1">
<use xlink:href="#glyph-5-3-efe23749" x="295.700008" y="34.64"/>
</g>
<g fill="rgb(0%, 0%, 0%)" fill-opacity="1">
<use xlink:href="#glyph-5-3-efe23749" x="301.260009" y="34.64"/>
</g>
<g fill="rgb(0%, 0%, 0%)" fill-opacity="1">
<use xlink:href="#glyph-5-4-efe23749" x="306.820011" y="34.64"/>
</g>
<g fill="rgb(0%, 0%, 0%)" fill-opacity="1">
<use xlink:href="#glyph-5-0-efe23749" x="313.480011" y="34.64"/>
</g>
<g fill="rgb(0%, 0%, 0%)" fill-opacity="1">
<use xlink:href="#glyph-5-5-efe23749" x="324.600014" y="34.64"/>
</g>
<g fill="rgb(0%, 0%, 0%)" fill-opacity="1">
<use xlink:href="#glyph-5-2-efe23749" x="335.720017" y="34.64"/>
</g>
<g fill="rgb(0%, 0%, 0%)" fill-opacity="1">
<use xlink:href="#glyph-5-3-efe23749" x="346.84002" y="34.64"/>
</g>
<g fill="rgb(0%, 0%, 0%)" fill-opacity="1">
<use xlink:href="#glyph-5-6-efe23749" x="352.400018" y="34.64"/>
</g>
<g fill="rgb(0%, 0%, 0%)" fill-opacity="1">
<use xlink:href="#glyph-5-7-efe23749" x="363.520021" y="34.64"/>
</g>
<g fill="rgb(0%, 0%, 0%)" fill-opacity="1">
<use xlink:href="#glyph-5-8-efe23749" x="369.080018" y="34.64"/>
</g>
<g fill="rgb(0%, 0%, 0%)" fill-opacity="1">
<use xlink:href="#glyph-5-9-efe23749" x="381.30002" y="34.64"/>
</g>
<g fill="rgb(0%, 0%, 0%)" fill-opacity="1">
<use xlink:href="#glyph-5-10-efe23749" x="393.520021" y="34.64"/>
</g>
<g fill="rgb(0%, 0%, 0%)" fill-opacity="1">
<use xlink:href="#glyph-5-0-efe23749" x="399.080019" y="34.64"/>
</g>
<g fill="rgb(0%, 0%, 0%)" fill-opacity="1">
<use xlink:href="#glyph-5-6-efe23749" x="410.200015" y="34.64"/>
</g>
<g clip-path="url(#clip-0-efe23749)">
<path fill="none" stroke-width="3" stroke-linecap="butt" stroke-linejoin="miter" stroke="rgb(0%, 0%, 0%)" stroke-opacity="0.7" stroke-miterlimit="2" d="M 93 139.808594 L 187.9375 139.808594 L 188.898438 139.804688 L 189.855469 139.808594 L 192.734375 139.808594 L 193.691406 139.804688 L 194.652344 139.804688 L 195.609375 139.808594 L 196.570312 139.8125 L 197.527344 139.808594 L 198.488281 139.816406 L 199.445312 139.804688 L 200.40625 139.804688 L 201.363281 139.789062 L 202.324219 139.816406 L 203.28125 139.8125 L 204.242188 139.796875 L 205.199219 139.785156 L 206.160156 139.824219 L 207.117188 139.792969 L 208.078125 139.863281 L 209.035156 139.839844 L 209.996094 139.757812 L 210.953125 139.894531 L 211.914062 139.882812 L 212.871094 139.769531 L 213.832031 139.550781 L 214.789062 139.621094 L 215.75 139.675781 L 216.707031 139.394531 L 217.667969 139.890625 L 218.625 139.449219 L 219.585938 139.300781 L 220.542969 139.585938 L 221.503906 138.867188 L 222.460938 139.296875 L 223.421875 139.652344 L 224.382812 140.371094 L 225.339844 138.191406 L 226.296875 140.472656 L 227.257812 138.460938 L 228.21875 139.214844 L 229.175781 138.707031 L 230.132812 132.246094 L 231.09375 134.605469 L 232.054688 147.058594 L 233.011719 142.761719 L 233.96875 134.847656 L 234.929688 143.957031 L 235.890625 133.882812 L 236.847656 152.863281 L 237.804688 132.46875 L 238.765625 144.824219 L 239.726562 128.328125 L 240.683594 139.246094 L 241.640625 119.828125 L 242.601562 154.070312 L 243.5625 149.5625 L 244.519531 134.386719 L 245.476562 128.484375 L 246.4375 138.496094 L 247.398438 121.152344 L 248.355469 157.359375 L 249.3125 110.28125 L 250.273438 129.726562 L 251.234375 114.144531 L 252.191406 102.78125 L 253.148438 97.292969 L 254.109375 175.882812 L 255.070312 156.59375 L 256.027344 121.675781 L 256.984375 143.085938 L 257.945312 130.289062 L 258.90625 144.25 L 259.863281 157.773438 L 260.820312 128.0625 L 261.78125 141.496094 L 262.742188 122.847656 L 263.699219 179 L 264.65625 123.9375 L 265.617188 115.109375 L 266.578125 152.816406 L 267.535156 181.085938 L 268.492188 103.300781 L 269.453125 125.140625 L 270.414062 157.875 L 271.371094 137.191406 L 272.328125 105.757812 L 273.289062 113.746094 L 274.25 138.9375 L 275.207031 75.566406 L 276.164062 170.285156 L 277.125 136.921875 L 278.085938 118.09375 L 279.042969 146.964844 L 280 129.507812 L 280.960938 142.125 L 281.921875 154.730469 L 282.878906 131.902344 L 283.835938 154.765625 L 284.796875 190.917969 L 285.757812 189.367188 L 286.714844 141.5 L 287.671875 168.292969 L 288.632812 87.957031 L 289.59375 120.894531 L 290.550781 108.738281 L 291.507812 112.214844 L 292.46875 94.25 L 293.429688 113.636719 L 294.386719 127.53125 L 295.34375 81.300781 L 296.304688 152.480469 L 297.265625 86.148438 L 298.222656 84.984375 L 299.179688 142.253906 L 300.140625 64.710938 L 301.101562 133.667969 L 302.058594 120.78125 L 303.015625 102.714844 L 303.976562 190.90625 L 304.9375 113.191406 L 305.894531 122.683594 L 306.851562 157.339844 L 307.8125 140.785156 L 308.773438 138.46875 L 309.730469 114.382812 L 310.6875 134.507812 L 311.648438 141.050781 L 312.609375 155.089844 L 313.566406 120.328125 L 314.523438 117.835938 L 315.484375 139.398438 L 316.445312 140.816406 L 317.402344 142.988281 L 318.359375 64.152344 L 319.320312 132.292969 L 320.28125 164.097656 L 321.238281 146.621094 L 322.195312 97.894531 L 323.15625 125.667969 L 324.117188 161.726562 L 325.074219 136.789062 L 326.03125 157.472656 L 326.992188 156.085938 L 327.953125 132.796875 L 328.910156 112.824219 L 329.867188 153.003906 L 330.828125 138.515625 L 331.789062 143.949219 L 332.746094 89.957031 L 333.703125 150.195312 L 334.664062 145.390625 L 335.625 105.347656 L 336.582031 107.980469 L 337.539062 157.410156 L 338.5 108.066406 L 339.460938 179.175781 L 340.417969 149.078125 L 341.375 124.246094 L 342.335938 162.644531 L 343.296875 144.449219 L 344.253906 129.945312 L 345.210938 190.222656 L 346.171875 136.902344 L 347.132812 200.5 L 348.089844 122.707031 L 349.046875 164.234375 L 350.007812 96.808594 L 350.96875 159.671875 L 351.925781 144.367188 L 352.882812 103.726562 L 353.84375 133.566406 L 354.804688 140.082031 L 355.761719 158.625 L 356.71875 148.816406 L 357.679688 82.0625 L 358.640625 165.132812 L 359.597656 154.710938 L 360.554688 96.152344 L 361.515625 146.773438 L 362.476562 147.988281 L 363.433594 159.277344 L 364.390625 143.726562 L 365.351562 111.6875 L 366.3125 114.40625 L 367.269531 120.152344 L 368.226562 104.667969 L 369.1875 152.765625 L 370.148438 120.199219 L 371.105469 146.6875 L 372.0625 145.476562 L 373.023438 136.824219 L 373.984375 143.929688 L 374.941406 147.222656 L 375.898438 110.871094 L 376.859375 105.375 L 377.820312 176.25 L 378.777344 141.78125 L 379.734375 143.140625 L 380.695312 120.671875 L 381.65625 163.335938 L 382.613281 50.5 L 383.570312 151.433594 L 384.53125 173.972656 L 385.492188 140.644531 L 386.449219 167.71875 L 387.40625 128.898438 L 388.367188 118.261719 L 389.328125 130.722656 L 390.285156 121.40625 L 391.242188 89.253906 L 392.203125 174.285156 L 393.164062 120.761719 L 394.121094 112.222656 L 395.078125 127.027344 L 396.039062 103.105469 L 397 111.589844 L 397.957031 130.777344 L 398.914062 169.808594 L 399.875 122.546875 L 400.835938 127.121094 L 401.792969 177.03125 L 402.75 173.445312 L 403.710938 121.449219 L 404.671875 139.605469 L 405.628906 123.148438 L 406.585938 77.859375 L 407.546875 175.976562 L 408.507812 184.703125 L 409.464844 146.398438 L 410.421875 143.957031 L 411.382812 66.398438 L 412.34375 171.550781 L 413.300781 173.585938 L 414.257812 140.660156 L 415.21875 152.4375 L 416.179688 149.542969 L 417.136719 172.9375 L 418.09375 84.6875 L 419.054688 140.511719 L 420.015625 139.082031 L 420.972656 192.882812 L 421.929688 197.753906 L 422.890625 144.8125 L 423.851562 147 L 424.808594 113.566406 L 425.765625 170.320312 L 426.726562 145.570312 L 427.6875 165.027344 L 428.644531 140.066406 L 429.601562 170.132812 L 430.5625 132.871094 L 431.523438 154.707031 L 432.480469 148.359375 L 433.4375 177.191406 L 434.398438 156.539062 L 435.359375 150.398438 L 436.316406 159.207031 L 437.273438 160.296875 L 438.234375 125.316406 L 439.195312 122.476562 L 440.152344 122.746094 L 441.109375 127.863281 L 442.070312 141.511719 L 443.03125 138.03125 L 443.988281 148.871094 L 444.945312 143.640625 L 445.90625 136.910156 L 446.867188 137.273438 L 447.824219 136.675781 L 448.78125 140.113281 L 449.742188 138.855469 L 450.703125 139.195312 L 451.660156 138.332031 L 452.617188 138.746094 L 453.578125 140.550781 L 454.539062 140.851562 L 455.496094 139.441406 L 456.453125 140.671875 L 457.414062 140.421875 L 458.375 139.320312 L 459.332031 139.753906 L 460.289062 140.0625 L 461.25 140.035156 L 462.210938 139.605469 L 463.167969 139.871094 L 464.125 139.65625 L 465.085938 139.75 L 466.046875 139.773438 L 467.003906 139.902344 L 467.960938 139.867188 L 468.921875 139.871094 L 469.882812 139.824219 L 470.839844 139.765625 L 471.796875 139.761719 L 472.757812 139.78125 L 473.71875 139.824219 L 474.675781 139.824219 L 475.632812 139.828125 L 476.59375 139.816406 L 477.554688 139.796875 L 479.46875 139.8125 L 480.429688 139.808594 L 481.390625 139.800781 L 483.304688 139.808594 L 486.183594 139.808594 L 487.140625 139.804688 L 488.101562 139.808594 L 489.0625 139.808594 L 490.019531 139.804688 L 490.976562 139.804688 L 491.9375 139.808594 L 583.039062 139.808594 "/>
</g>
<g fill="rgb(0%, 0%, 0%)" fill-opacity="1">
<use xlink:href="#glyph-0-0-efe23749" x="311.830007" y="500.24"/>
</g>
<g fill="rgb(0%, 0%, 0%)" fill-opacity="1">
<use xlink:href="#glyph-0-1-efe23749" x="321.830008" y="500.24"/>
</g>
<g fill="rgb(0%, 0%, 0%)" fill-opacity="1">
<use xlink:href="#glyph-0-2-efe23749" x="327.390007" y="500.24"/>
</g>
<g fill="rgb(0%, 0%, 0%)" fill-opacity="1">
<use xlink:href="#glyph-0-3-efe23749" x="332.950007" y="500.24"/>
</g>
<g fill="rgb(0%, 0%, 0%)" fill-opacity="1">
<use xlink:href="#glyph-0-4-efe23749" x="342.950007" y="500.24"/>
</g>
<g fill="rgb(0%, 0%, 0%)" fill-opacity="1">
<use xlink:href="#glyph-0-5-efe23749" x="359.610007" y="500.24"/>
</g>
<g fill="rgb(0%, 0%, 0%)" fill-opacity="1">
<use xlink:href="#glyph-0-6-efe23749" x="70.480003" y="473.94"/>
</g>
<g fill="rgb(0%, 0%, 0%)" fill-opacity="1">
<use xlink:href="#glyph-0-7-efe23749" x="82.160004" y="473.94"/>
</g>
<g fill="rgb(0%, 0%, 0%)" fill-opacity="1">
<use xlink:href="#glyph-0-8-efe23749" x="93.280003" y="473.94"/>
</g>
<g fill="rgb(0%, 0%, 0%)" fill-opacity="1">
<use xlink:href="#glyph-0-9-efe23749" x="104.400002" y="473.94"/>
</g>
<g fill="rgb(0%, 0%, 0%)" fill-opacity="1">
<use xlink:href="#glyph-0-9-efe23749" x="332.940008" y="473.94"/>
</g>
<g fill="rgb(0%, 0%, 0%)" fill-opacity="1">
<use xlink:href="#glyph-0-7-efe23749" x="567.320013" y="473.94"/>
</g>
<g fill="rgb(0%, 0%, 0%)" fill-opacity="1">
<use xlink:href="#glyph-0-8-efe23749" x="578.440014" y="473.94"/>
</g>
<g fill="rgb(0%, 0%, 0%)" fill-opacity="1">
<use xlink:href="#glyph-0-9-efe23749" x="589.560014" y="473.94"/>
</g>
<g fill="rgb(0%, 0%, 0%)" fill-opacity="1">
<use xlink:href="#glyph-6-0-efe23749" x="45.840001" y="388.889997"/>
</g>
<g fill="rgb(0%, 0%, 0%)" fill-opacity="1">
<use xlink:href="#glyph-2-2-efe23749" x="45.840002" y="372.229998"/>
</g>
<g fill="rgb(0%, 0%, 0%)" fill-opacity="1">
<use xlink:href="#glyph-2-3-efe23749" x="45.840003" y="361.11"/>
</g>
<g fill="rgb(0%, 0%, 0%)" fill-opacity="1">
<use xlink:href="#glyph-7-0-efe23749" x="45.840004" y="351.110001"/>
</g>
<g fill="rgb(0%, 0%, 0%)" fill-opacity="1">
<use xlink:href="#glyph-4-0-efe23749" x="55.200002" y="446.835456"/>
</g>
<g fill="rgb(0%, 0%, 0%)" fill-opacity="1">
<use xlink:href="#glyph-0-10-efe23749" x="66.320001" y="446.835456"/>
</g>
<g fill="rgb(0%, 0%, 0%)" fill-opacity="1">
<use xlink:href="#glyph-0-9-efe23749" x="71.880003" y="446.835456"/>
</g>
<g fill="rgb(0%, 0%, 0%)" fill-opacity="1">
<use xlink:href="#glyph-4-0-efe23749" x="55.200002" y="372.29"/>
</g>
<g fill="rgb(0%, 0%, 0%)" fill-opacity="1">
<use xlink:href="#glyph-0-10-efe23749" x="66.320001" y="372.29"/>
</g>
<g fill="rgb(0%, 0%, 0%)" fill-opacity="1">
<use xlink:href="#glyph-0-8-efe23749" x="71.880003" y="372.29"/>
</g>
<g fill="rgb(0%, 0%, 0%)" fill-opacity="1">
<use xlink:href="#glyph-4-1-efe23749" x="55.200002" y="297.744544"/>
</g>
<g fill="rgb(0%, 0%, 0%)" fill-opacity="1">
<use xlink:href="#glyph-0-10-efe23749" x="66.320001" y="297.744544"/>
</g>
<g fill="rgb(0%, 0%, 0%)" fill-opacity="1">
<use xlink:href="#glyph-0-9-efe23749" x="71.880003" y="297.744544"/>
</g>
<g clip-path="url(#clip-1-efe23749)">
<path fill="none" stroke-width="2" stroke-linecap="butt" stroke-linejoin="miter" stroke="rgb(50.196081%, 50.196081%, 50.196081%)" stroke-opacity="0.7" stroke-miterlimit="2" d="M 93 439.546875 L 178.347656 439.546875 L 179.308594 439.542969 L 188.898438 439.542969 L 189.855469 439.539062 L 191.773438 439.539062 L 192.734375 439.535156 L 193.691406 439.535156 L 194.652344 439.53125 L 195.609375 439.527344 L 196.570312 439.523438 L 197.527344 439.519531 L 198.488281 439.515625 L 199.445312 439.507812 L 200.40625 439.5 L 201.363281 439.492188 L 202.324219 439.480469 L 203.28125 439.464844 L 204.242188 439.449219 L 205.199219 439.429688 L 206.160156 439.402344 L 207.117188 439.371094 L 208.078125 439.335938 L 209.035156 439.289062 L 209.996094 439.234375 L 210.953125 439.167969 L 211.914062 439.085938 L 212.871094 438.988281 L 213.832031 438.867188 L 214.789062 438.722656 L 215.75 438.546875 L 216.707031 438.335938 L 217.667969 438.074219 L 218.625 437.761719 L 219.585938 437.382812 L 220.542969 436.925781 L 221.503906 436.371094 L 222.460938 435.703125 L 223.421875 434.902344 L 224.382812 433.9375 L 225.339844 432.785156 L 226.296875 431.40625 L 227.257812 429.765625 L 228.21875 427.820312 L 229.175781 425.53125 L 230.132812 422.84375 L 231.09375 419.722656 L 232.054688 416.117188 L 233.011719 412 L 233.96875 407.339844 L 234.929688 402.136719 L 235.890625 396.402344 L 236.847656 390.179688 L 237.804688 383.53125 L 238.765625 376.554688 L 239.726562 369.363281 L 240.683594 362.089844 L 241.640625 354.871094 L 242.601562 347.839844 L 243.5625 341.121094 L 244.519531 334.804688 L 245.476562 328.96875 L 246.4375 323.65625 L 247.398438 318.890625 L 248.355469 314.664062 L 249.3125 310.960938 L 250.273438 307.742188 L 251.234375 304.972656 L 252.191406 302.609375 L 253.148438 300.597656 L 254.109375 298.902344 L 255.070312 297.472656 L 256.027344 296.277344 L 256.984375 295.277344 L 257.945312 294.445312 L 258.90625 293.75 L 259.863281 293.175781 L 260.820312 292.703125 L 261.78125 292.308594 L 262.742188 291.984375 L 263.699219 291.714844 L 264.65625 291.492188 L 265.617188 291.308594 L 266.578125 291.15625 L 267.535156 291.035156 L 268.492188 290.929688 L 269.453125 290.847656 L 270.414062 290.777344 L 271.371094 290.71875 L 272.328125 290.671875 L 273.289062 290.632812 L 274.25 290.601562 L 276.164062 290.554688 L 277.125 290.535156 L 278.085938 290.523438 L 280 290.5 L 281.921875 290.484375 L 283.835938 290.476562 L 285.757812 290.46875 L 286.714844 290.464844 L 287.671875 290.464844 L 288.632812 290.460938 L 290.550781 290.460938 L 291.507812 290.457031 L 301.101562 290.457031 L 302.058594 290.453125 L 374.941406 290.453125 L 375.898438 290.457031 L 385.492188 290.457031 L 386.449219 290.460938 L 388.367188 290.460938 L 389.328125 290.464844 L 390.285156 290.464844 L 391.242188 290.46875 L 393.164062 290.476562 L 395.078125 290.484375 L 397 290.5 L 398.914062 290.523438 L 399.875 290.535156 L 400.835938 290.554688 L 402.75 290.601562 L 403.710938 290.632812 L 404.671875 290.671875 L 405.628906 290.71875 L 406.585938 290.777344 L 407.546875 290.847656 L 408.507812 290.929688 L 409.464844 291.035156 L 410.421875 291.15625 L 411.382812 291.308594 L 412.34375 291.492188 L 413.300781 291.714844 L 414.257812 291.984375 L 415.21875 292.308594 L 416.179688 292.703125 L 417.136719 293.175781 L 418.09375 293.75 L 419.054688 294.445312 L 420.015625 295.277344 L 420.972656 296.277344 L 421.929688 297.472656 L 422.890625 298.902344 L 423.851562 300.597656 L 424.808594 302.609375 L 425.765625 304.972656 L 426.726562 307.742188 L 427.6875 310.960938 L 428.644531 314.664062 L 429.601562 318.890625 L 430.5625 323.65625 L 431.523438 328.96875 L 432.480469 334.804688 L 433.4375 341.121094 L 434.398438 347.839844 L 435.359375 354.871094 L 436.316406 362.089844 L 437.273438 369.363281 L 438.234375 376.554688 L 439.195312 383.53125 L 440.152344 390.179688 L 441.109375 396.402344 L 442.070312 402.136719 L 443.03125 407.339844 L 443.988281 412 L 444.945312 416.117188 L 445.90625 419.722656 L 446.867188 422.84375 L 447.824219 425.53125 L 448.78125 427.820312 L 449.742188 429.765625 L 450.703125 431.40625 L 451.660156 432.785156 L 452.617188 433.9375 L 453.578125 434.902344 L 454.539062 435.703125 L 455.496094 436.371094 L 456.453125 436.925781 L 457.414062 437.382812 L 458.375 437.761719 L 459.332031 438.074219 L 460.289062 438.335938 L 461.25 438.546875 L 462.210938 438.722656 L 463.167969 438.867188 L 464.125 438.988281 L 465.085938 439.085938 L 466.046875 439.167969 L 467.003906 439.234375 L 467.960938 439.289062 L 468.921875 439.335938 L 469.882812 439.371094 L 470.839844 439.402344 L 471.796875 439.429688 L 472.757812 439.449219 L 473.71875 439.464844 L 474.675781 439.480469 L 475.632812 439.492188 L 477.554688 439.507812 L 478.511719 439.515625 L 479.46875 439.519531 L 481.390625 439.527344 L 483.304688 439.535156 L 484.265625 439.535156 L 485.226562 439.539062 L 487.140625 439.539062 L 488.101562 439.542969 L 497.691406 439.542969 L 498.648438 439.546875 L 583.039062 439.546875 "/>
</g>
<path fill="none" stroke-width="1" stroke-linecap="butt" stroke-linejoin="miter" stroke="rgb(0%, 0%, 0%)" stroke-opacity="1" stroke-miterlimit="1.154701" d="M 93 208.5 L 93 213.5 "/>
<path fill="none" stroke-width="1" stroke-linecap="butt" stroke-linejoin="miter" stroke="rgb(0%, 0%, 0%)" stroke-opacity="1" stroke-miterlimit="1.154701" d="M 338.5 208.5 L 338.5 213.5 "/>
<path fill="none" stroke-width="1" stroke-linecap="butt" stroke-linejoin="miter" stroke="rgb(0%, 0%, 0%)" stroke-opacity="1" stroke-miterlimit="1.154701" d="M 584 208.5 L 584 213.5 "/>
<path fill="none" stroke-width="1" stroke-linecap="butt" stroke-linejoin="miter" stroke="rgb(0%, 0%, 0%)" stroke-opacity="1" stroke-miterlimit="1.154701" d="M 92.5 196.261719 L 87.5 196.261719 "/>
<path fill="none" stroke-width="1" stroke-linecap="butt" stroke-linejoin="miter" stroke="rgb(0%, 0%, 0%)" stroke-opacity="1" stroke-miterlimit="1.154701" d="M 92.5 139.808594 L 87.5 139.808594 "/>
<path fill="none" stroke-width="1" stroke-linecap="butt" stroke-linejoin="miter" stroke="rgb(0%, 0%, 0%)" stroke-opacity="1" stroke-miterlimit="1.154701" d="M 92.5 83.351562 L 87.5 83.351562 "/>
<path fill="none" stroke-width="1" stroke-linecap="butt" stroke-linejoin="miter" stroke="rgb(0%, 0%, 0%)" stroke-opacity="1" stroke-miterlimit="1.154701" d="M 93 447.5 L 93 452.5 "/>
<path fill="none" stroke-width="1" stroke-linecap="butt" stroke-linejoin="miter" stroke="rgb(0%, 0%, 0%)" stroke-opacity="1" stroke-miterlimit="1.154701" d="M 338.5 447.5 L 338.5 452.5 "/>
<path fill="none" stroke-width="1" stroke-linecap="butt" stroke-linejoin="miter" stroke="rgb(0%, 0%, 0%)" stroke-opacity="1" stroke-miterlimit="1.154701" d="M 584 447.5 L 584 452.5 "/>
<path fill="none" stroke-width="1" stroke-linecap="butt" stroke-linejoin="miter" stroke="rgb(0%, 0%, 0%)" stroke-opacity="1" stroke-miterlimit="1.154701" d="M 92.5 439.546875 L 87.5 439.546875 "/>
<path fill="none" stroke-width="1" stroke-linecap="butt" stroke-linejoin="miter" stroke="rgb(0%, 0%, 0%)" stroke-opacity="1" stroke-miterlimit="1.154701" d="M 92.5 365 L 87.5 365 "/>
<path fill="none" stroke-width="1" stroke-linecap="butt" stroke-linejoin="miter" stroke="rgb(0%, 0%, 0%)" stroke-opacity="1" stroke-miterlimit="1.154701" d="M 92.5 290.453125 L 87.5 290.453125 "/>
<path fill="none" stroke-width="1" stroke-linecap="butt" stroke-linejoin="miter" stroke="rgb(0%, 0%, 0%)" stroke-opacity="1" stroke-miterlimit="1.154701" d="M 92.5 208 L 584.5 208 "/>
<path fill="none" stroke-width="1" stroke-linecap="butt" stroke-linejoin="miter" stroke="rgb(0%, 0%, 0%)" stroke-opacity="1" stroke-miterlimit="1.154701" d="M 93 208.5 L 93 42.5 "/>
<path fill="none" stroke-width="1" stroke-linecap="butt" stroke-linejoin="miter" stroke="rgb(0%, 0%, 0%)" stroke-opacity="1" stroke-miterlimit="1.154701" d="M 92.5 43 L 584.5 43 "/>
<path fill="none" stroke-width="1" stroke-linecap="butt" stroke-linejoin="miter" stroke="rgb(0%, 0%, 0%)" stroke-opacity="1" stroke-miterlimit="1.154701" d="M 584 208.5 L 584 42.5 "/>
<path fill="none" stroke-width="1" stroke-linecap="butt" stroke-linejoin="miter" stroke="rgb(0%, 0%, 0%)" stroke-opacity="1" stroke-miterlimit="1.154701" d="M 92.5 447 L 584.5 447 "/>
<path fill="none" stroke-width="1" stroke-linecap="butt" stroke-linejoin="miter" stroke="rgb(0%, 0%, 0%)" stroke-opacity="1" stroke-miterlimit="1.154701" d="M 93 447.5 L 93 282.5 "/>
<path fill="none" stroke-width="1" stroke-linecap="butt" stroke-linejoin="miter" stroke="rgb(0%, 0%, 0%)" stroke-opacity="1" stroke-miterlimit="1.154701" d="M 92.5 283 L 584.5 283 "/>
<path fill="none" stroke-width="1" stroke-linecap="butt" stroke-linejoin="miter" stroke="rgb(0%, 0%, 0%)" stroke-opacity="1" stroke-miterlimit="1.154701" d="M 584 447.5 L 584 282.5 "/>
</svg>
